<svg xmlns="http://www.w3.org/2000/svg" xmlns:xlink="http://www.w3.org/1999/xlink" contentStyleType="text/css" data-diagram-type="SEQUENCE" height="824px" preserveAspectRatio="none" style="width:543px;height:824px;background:#FFFFFF;" version="1.1" viewBox="0 0 543 824" width="543px" zoomAndPan="magnify"><title>US2.2.2 - Register and Update Vessel Records (SSD)</title><defs/><g><text fill="#000000" font-family="sans-serif" font-size="14" font-weight="bold" lengthAdjust="spacing" textLength="373.5088" x="80.8125" y="28.5352">US2.2.2 - Register and Update Vessel Records (SSD)</text><g><title>Port Authority Officer</title><rect fill="#000000" fill-opacity="0.00000" height="624.1426" width="8" x="76.6387" y="118.9766"/><line style="stroke:#181818;stroke-width:0.5;stroke-dasharray:5,5;" x1="80" x2="80" y1="118.9766" y2="743.1191"/></g><g><title>Vessel Management API</title><rect fill="#000000" fill-opacity="0.00000" height="624.1426" width="8" x="443.6851" y="118.9766"/><line style="stroke:#181818;stroke-width:0.5;stroke-dasharray:5,5;" x1="447.2363" x2="447.2363" y1="118.9766" y2="743.1191"/></g><g class="participant participant-head" data-participant="Officer"><text fill="#000000" font-family="sans-serif" font-size="14" lengthAdjust="spacing" textLength="145.2773" x="5" y="116.0234">Port Authority Officer</text><ellipse cx="80.6387" cy="50.9883" fill="#E2E2F0" rx="8" ry="8" style="stroke:#181818;stroke-width:0.5;"/><path d="M80.6387,58.9883 L80.6387,85.9883 M67.6387,66.9883 L93.6387,66.9883 M80.6387,85.9883 L67.6387,100.9883 M80.6387,85.9883 L93.6387,100.9883" fill="none" style="stroke:#181818;stroke-width:0.5;"/></g><g class="participant participant-tail" data-participant="Officer"><text fill="#000000" font-family="sans-serif" font-size="14" lengthAdjust="spacing" textLength="145.2773" x="5" y="755.6543">Port Authority Officer</text><ellipse cx="80.6387" cy="767.1074" fill="#E2E2F0" rx="8" ry="8" style="stroke:#181818;stroke-width:0.5;"/><path d="M80.6387,775.1074 L80.6387,802.1074 M67.6387,783.1074 L93.6387,783.1074 M80.6387,802.1074 L67.6387,817.1074 M80.6387,802.1074 L93.6387,817.1074" fill="none" style="stroke:#181818;stroke-width:0.5;"/></g><g class="participant participant-head" data-participant="System"><text fill="#000000" font-family="sans-serif" font-size="14" lengthAdjust="spacing" textLength="160.8975" x="364.2363" y="116.0234">Vessel Management API</text><path d="M427.1851,74.4883 L427.1851,98.4883 M427.1851,86.4883 L444.1851,86.4883" fill="none" style="stroke:#181818;stroke-width:0.5;"/><ellipse cx="456.1851" cy="86.4883" fill="#E2E2F0" rx="12" ry="12" style="stroke:#181818;stroke-width:0.5;"/></g><g class="participant participant-tail" data-participant="System"><text fill="#000000" font-family="sans-serif" font-size="14" lengthAdjust="spacing" textLength="160.8975" x="364.2363" y="755.6543">Vessel Management API</text><path d="M427.1851,762.6074 L427.1851,786.6074 M427.1851,774.6074 L444.1851,774.6074" fill="none" style="stroke:#181818;stroke-width:0.5;"/><ellipse cx="456.1851" cy="774.6074" fill="#E2E2F0" rx="12" ry="12" style="stroke:#181818;stroke-width:0.5;"/></g><rect fill="#EEEEEE" height="3" style="stroke:#EEEEEE;stroke-width:1;" width="536.1338" x="0" y="149.6318"/><line style="stroke:#000000;stroke-width:1;" x1="0" x2="536.1338" y1="149.6318" y2="149.6318"/><line style="stroke:#000000;stroke-width:1;" x1="0" x2="536.1338" y1="152.6318" y2="152.6318"/><rect fill="#EEEEEE" height="23.3105" style="stroke:#000000;stroke-width:2;" width="178.5884" x="178.7727" y="138.9766"/><text fill="#000000" font-family="sans-serif" font-size="13" font-weight="bold" lengthAdjust="spacing" textLength="160.3037" x="184.7727" y="155.5449">Register (Create Vessel)</text><g class="message" data-participant-1="Officer" data-participant-2="System"><polygon fill="#181818" points="435.6851,204.9082,445.6851,208.9082,435.6851,212.9082,439.6851,208.9082" style="stroke:#181818;stroke-width:1;"/><line style="stroke:#181818;stroke-width:1;" x1="80.6387" x2="441.6851" y1="208.9082" y2="208.9082"/><text fill="#000000" font-family="sans-serif" font-size="13" lengthAdjust="spacing" textLength="107.5991" x="87.6387" y="188.8555">POST /api/vessel</text><text fill="#000000" font-family="sans-serif" font-size="13" lengthAdjust="spacing" textLength="308.3057" x="87.6387" y="204.166">Body: { imoNumber, name, owner, vesselTypeId }</text></g><g class="message" data-participant-1="System" data-participant-2="Officer"><polygon fill="#181818" points="91.6387,249.5293,81.6387,253.5293,91.6387,257.5293,87.6387,253.5293" style="stroke:#181818;stroke-width:1;"/><line style="stroke:#181818;stroke-width:1;stroke-dasharray:2,2;" x1="85.6387" x2="446.6851" y1="253.5293" y2="253.5293"/><text fill="#000000" font-family="sans-serif" font-size="13" lengthAdjust="spacing" textLength="77.7969" x="97.6387" y="233.4766">201 Created</text><text fill="#000000" font-family="sans-serif" font-size="13" lengthAdjust="spacing" textLength="101.2451" x="97.6387" y="248.7871">Body: VesselDto</text></g><rect fill="#EEEEEE" height="3" style="stroke:#EEEEEE;stroke-width:1;" width="536.1338" x="0" y="282.1846"/><line style="stroke:#000000;stroke-width:1;" x1="0" x2="536.1338" y1="282.1846" y2="282.1846"/><line style="stroke:#000000;stroke-width:1;" x1="0" x2="536.1338" y1="285.1846" y2="285.1846"/><rect fill="#EEEEEE" height="23.3105" style="stroke:#000000;stroke-width:2;" width="152.6265" x="191.7537" y="271.5293"/><text fill="#000000" font-family="sans-serif" font-size="13" font-weight="bold" lengthAdjust="spacing" textLength="134.3418" x="197.7537" y="288.0977">Update (Partial Edit)</text><g class="message" data-participant-1="Officer" data-participant-2="System"><polygon fill="#181818" points="435.6851,337.4609,445.6851,341.4609,435.6851,345.4609,439.6851,341.4609" style="stroke:#181818;stroke-width:1;"/><line style="stroke:#181818;stroke-width:1;" x1="80.6387" x2="441.6851" y1="341.4609" y2="341.4609"/><text fill="#000000" font-family="sans-serif" font-size="13" lengthAdjust="spacing" textLength="187.8652" x="87.6387" y="321.4082">PATCH /api/vessel/imo/{imo}</text><text fill="#000000" font-family="sans-serif" font-size="13" lengthAdjust="spacing" textLength="147.7988" x="87.6387" y="336.7188">Body: { name?, owner? }</text></g><g class="message" data-participant-1="System" data-participant-2="Officer"><polygon fill="#181818" points="91.6387,382.082,81.6387,386.082,91.6387,390.082,87.6387,386.082" style="stroke:#181818;stroke-width:1;"/><line style="stroke:#181818;stroke-width:1;stroke-dasharray:2,2;" x1="85.6387" x2="446.6851" y1="386.082" y2="386.082"/><text fill="#000000" font-family="sans-serif" font-size="13" lengthAdjust="spacing" textLength="47.3599" x="97.6387" y="366.0293">200 OK</text><text fill="#000000" font-family="sans-serif" font-size="13" lengthAdjust="spacing" textLength="165.7119" x="97.6387" y="381.3398">Body: VesselDto (updated)</text></g><rect fill="#EEEEEE" height="3" style="stroke:#EEEEEE;stroke-width:1;" width="536.1338" x="0" y="414.7373"/><line style="stroke:#000000;stroke-width:1;" x1="0" x2="536.1338" y1="414.7373" y2="414.7373"/><line style="stroke:#000000;stroke-width:1;" x1="0" x2="536.1338" y1="417.7373" y2="417.7373"/><rect fill="#EEEEEE" height="23.3105" style="stroke:#000000;stroke-width:2;" width="239.9512" x="148.0913" y="404.082"/><text fill="#000000" font-family="sans-serif" font-size="13" font-weight="bold" lengthAdjust="spacing" textLength="221.6665" x="154.0913" y="420.6504">Search (Read Vessel Information)</text><g class="message" data-participant-1="Officer" data-participant-2="System"><polygon fill="#181818" points="435.6851,454.7031,445.6851,458.7031,435.6851,462.7031,439.6851,458.7031" style="stroke:#181818;stroke-width:1;"/><line style="stroke:#181818;stroke-width:1;" x1="80.6387" x2="441.6851" y1="458.7031" y2="458.7031"/><text fill="#000000" font-family="sans-serif" font-size="13" lengthAdjust="spacing" textLength="169.603" x="87.6387" y="453.9609">GET /api/vessel/imo/{imo}</text></g><g class="message" data-participant-1="System" data-participant-2="Officer"><polygon fill="#181818" points="91.6387,499.3242,81.6387,503.3242,91.6387,507.3242,87.6387,503.3242" style="stroke:#181818;stroke-width:1;"/><line style="stroke:#181818;stroke-width:1;stroke-dasharray:2,2;" x1="85.6387" x2="446.6851" y1="503.3242" y2="503.3242"/><text fill="#000000" font-family="sans-serif" font-size="13" lengthAdjust="spacing" textLength="47.3599" x="97.6387" y="483.2715">200 OK</text><text fill="#000000" font-family="sans-serif" font-size="13" lengthAdjust="spacing" textLength="101.2451" x="97.6387" y="498.582">Body: VesselDto</text></g><g class="message" data-participant-1="Officer" data-participant-2="System"><polygon fill="#181818" points="435.6851,528.6348,445.6851,532.6348,435.6851,536.6348,439.6851,532.6348" style="stroke:#181818;stroke-width:1;"/><line style="stroke:#181818;stroke-width:1;" x1="80.6387" x2="441.6851" y1="532.6348" y2="532.6348"/><text fill="#000000" font-family="sans-serif" font-size="13" lengthAdjust="spacing" textLength="191.0962" x="87.6387" y="527.8926">GET /api/vessel/name/{name}</text></g><g class="message" data-participant-1="System" data-participant-2="Officer"><polygon fill="#181818" points="91.6387,573.2559,81.6387,577.2559,91.6387,581.2559,87.6387,577.2559" style="stroke:#181818;stroke-width:1;"/><line style="stroke:#181818;stroke-width:1;stroke-dasharray:2,2;" x1="85.6387" x2="446.6851" y1="577.2559" y2="577.2559"/><text fill="#000000" font-family="sans-serif" font-size="13" lengthAdjust="spacing" textLength="47.3599" x="97.6387" y="557.2031">200 OK</text><text fill="#000000" font-family="sans-serif" font-size="13" lengthAdjust="spacing" textLength="144.0918" x="97.6387" y="572.5137">Body: List&lt;VesselDto&gt;</text></g><g class="message" data-participant-1="Officer" data-participant-2="System"><polygon fill="#181818" points="435.6851,602.5664,445.6851,606.5664,435.6851,610.5664,439.6851,606.5664" style="stroke:#181818;stroke-width:1;"/><line style="stroke:#181818;stroke-width:1;" x1="80.6387" x2="441.6851" y1="606.5664" y2="606.5664"/><text fill="#000000" font-family="sans-serif" font-size="13" lengthAdjust="spacing" textLength="199.1069" x="87.6387" y="601.8242">GET /api/vessel/owner/{owner}</text></g><g class="message" data-participant-1="System" data-participant-2="Officer"><polygon fill="#181818" points="91.6387,647.1875,81.6387,651.1875,91.6387,655.1875,87.6387,651.1875" style="stroke:#181818;stroke-width:1;"/><line style="stroke:#181818;stroke-width:1;stroke-dasharray:2,2;" x1="85.6387" x2="446.6851" y1="651.1875" y2="651.1875"/><text fill="#000000" font-family="sans-serif" font-size="13" lengthAdjust="spacing" textLength="47.3599" x="97.6387" y="631.1348">200 OK</text><text fill="#000000" font-family="sans-serif" font-size="13" lengthAdjust="spacing" textLength="144.0918" x="97.6387" y="646.4453">Body: List&lt;VesselDto&gt;</text></g><g class="message" data-participant-1="Officer" data-participant-2="System"><polygon fill="#181818" points="435.6851,676.498,445.6851,680.498,435.6851,684.498,439.6851,680.498" style="stroke:#181818;stroke-width:1;"/><line style="stroke:#181818;stroke-width:1;" x1="80.6387" x2="441.6851" y1="680.498" y2="680.498"/><text fill="#000000" font-family="sans-serif" font-size="13" lengthAdjust="spacing" textLength="343.0464" x="87.6387" y="675.7559">GET /api/vessel/filter?name=&amp;imo=&amp;owner=&amp;query=</text></g><g class="message" data-participant-1="System" data-participant-2="Officer"><polygon fill="#181818" points="91.6387,721.1191,81.6387,725.1191,91.6387,729.1191,87.6387,725.1191" style="stroke:#181818;stroke-width:1;"/><line style="stroke:#181818;stroke-width:1;stroke-dasharray:2,2;" x1="85.6387" x2="446.6851" y1="725.1191" y2="725.1191"/><text fill="#000000" font-family="sans-serif" font-size="13" lengthAdjust="spacing" textLength="47.3599" x="97.6387" y="705.0664">200 OK</text><text fill="#000000" font-family="sans-serif" font-size="13" lengthAdjust="spacing" textLength="144.0918" x="97.6387" y="720.377">Body: List&lt;VesselDto&gt;</text></g><!--SRC=[jP9TQy8m58RlyoiENaY5kJelPL6SoYRxiDYwgzt4vbG3RUBITACK__lIsix19hZ12EI3dBplSqwE4IP6MFdzIpkW2qlSYDIW1YOvh7QS6OHdJ5ECxLMeD4_1yVrfXn0M6gMXvIbjO9oPhTB2vB288X6YRW5BcprPgqnofdDerKgFJB8D9YZjIszUnVgvTKq8eVI8u4mq7lqxG2cf9Q4xh5_00Bo57u3BTi9zgm9Vv8tY-G0A48bwof8rwWkGBC4BKE-oF1pYWdo7SmvxKYjrhMYZFu1-xmeE_hmHF71CZQemw-8u7jD6i1XcN9ZJZEDWSlSLqhLiRc6d_H6tP1pLaAFJN3rOt7z30YUhU7YdWlEHwN0BpX8PR_vlBYEb4sQ4aYSvRsV1pvI_WY5dQPVfkaKvdwN-O9lY-jDYU9v7LKktg9R_Sub4RFjrLAP2sxPQj5qPqlPhXZgdV_3z0000]--></g></svg>