<svg xmlns="http://www.w3.org/2000/svg" xmlns:xlink="http://www.w3.org/1999/xlink" contentStyleType="text/css" data-diagram-type="SEQUENCE" height="438px" preserveAspectRatio="none" style="width:768px;height:438px;background:#FFFFFF;" version="1.1" viewBox="0 0 768 438" width="768px" zoomAndPan="magnify"><title>SSD - US 4.1.3: Search &amp; List Operation Plans</title><defs/><g><text fill="#000000" font-family="sans-serif" font-size="14" font-weight="bold" lengthAdjust="spacing" textLength="323.9346" x="221.2148" y="28.5352">SSD - US 4.1.3: Search &amp; List Operation Plans</text><g><title>System .SPA.</title><rect fill="#FFFFFF" height="175.4629" style="stroke:#181818;stroke-width:1;" width="10" x="545.8877" y="169.5977"/></g><rect fill="none" height="135.1523" style="stroke:#000000;stroke-width:1.5;" width="601.1729" x="10" y="202.9082"/><g><title>Logistics Operator</title><rect fill="#000000" fill-opacity="0.00000" height="235.084" width="8" x="81.2549" y="119.9766"/><line style="stroke:#181818;stroke-width:0.5;stroke-dasharray:5,5;" x1="85" x2="85" y1="119.9766" y2="355.0605"/></g><g><title>System .SPA.</title><rect fill="#000000" fill-opacity="0.00000" height="235.084" width="8" x="546.8877" y="119.9766"/><line style="stroke:#181818;stroke-width:0.5;stroke-dasharray:5,5;" x1="550.6025" x2="550.6025" y1="119.9766" y2="355.0605"/></g><g class="participant participant-head" data-participant="User"><text fill="#000000" font-family="sans-serif" font-size="14" lengthAdjust="spacing" textLength="124.5098" x="20" y="117.0234">Logistics Operator</text><ellipse cx="85.2549" cy="58.9883" fill="#E2E2F0" rx="16" ry="16" style="stroke:#181818;stroke-width:0.5;"/><path d="M85.2549,78.9883 C89.2549,78.9883 92.2549,78.9883 96.2549,74.9883 C104.2549,74.9883 112.2549,82.9883 112.2549,90.9883 L112.2549,94.9883 C112.2549,98.9883 108.2549,102.9883 104.2549,102.9883 L66.2549,102.9883 C62.2549,102.9883 58.2549,98.9883 58.2549,94.9883 L58.2549,90.9883 C58.2549,82.9883 66.2549,74.9883 74.2549,74.9883 C78.2549,78.9883 81.2549,78.9883 85.2549,78.9883" fill="#E2E2F0" style="stroke:#181818;stroke-width:0.5;"/></g><g class="participant participant-tail" data-participant="User"><text fill="#000000" font-family="sans-serif" font-size="14" lengthAdjust="spacing" textLength="124.5098" x="20" y="367.5957">Logistics Operator</text><ellipse cx="85.2549" cy="387.0488" fill="#E2E2F0" rx="16" ry="16" style="stroke:#181818;stroke-width:0.5;"/><path d="M85.2549,407.0488 C89.2549,407.0488 92.2549,407.0488 96.2549,403.0488 C104.2549,403.0488 112.2549,411.0488 112.2549,419.0488 L112.2549,423.0488 C112.2549,427.0488 108.2549,431.0488 104.2549,431.0488 L66.2549,431.0488 C62.2549,431.0488 58.2549,427.0488 58.2549,423.0488 L58.2549,419.0488 C58.2549,411.0488 66.2549,403.0488 74.2549,403.0488 C78.2549,407.0488 81.2549,407.0488 85.2549,407.0488" fill="#E2E2F0" style="stroke:#181818;stroke-width:0.5;"/></g><g class="participant participant-head" data-participant="System"><rect fill="#E2E2F0" height="30.4883" rx="2.5" ry="2.5" style="stroke:#181818;stroke-width:0.5;" width="100.5703" x="500.6025" y="88.4883"/><text fill="#000000" font-family="sans-serif" font-size="14" lengthAdjust="spacing" textLength="86.5703" x="507.6025" y="109.0234">System (SPA)</text></g><g class="participant participant-tail" data-participant="System"><rect fill="#E2E2F0" height="30.4883" rx="2.5" ry="2.5" style="stroke:#181818;stroke-width:0.5;" width="100.5703" x="500.6025" y="354.0605"/><text fill="#000000" font-family="sans-serif" font-size="14" lengthAdjust="spacing" textLength="86.5703" x="507.6025" y="374.5957">System (SPA)</text></g><g><title>System .SPA.</title><rect fill="#FFFFFF" height="175.4629" style="stroke:#181818;stroke-width:1;" width="10" x="545.8877" y="169.5977"/></g><g class="message" data-participant-1="User" data-participant-2="System"><polygon fill="#181818" points="533.8877,165.5977,543.8877,169.5977,533.8877,173.5977,537.8877,169.5977" style="stroke:#181818;stroke-width:1;"/><line style="stroke:#181818;stroke-width:1;" x1="85.2549" x2="539.8877" y1="169.5977" y2="169.5977"/><text fill="#000000" font-family="sans-serif" font-size="13" font-weight="bold" lengthAdjust="spacing" textLength="8.5757" x="92.2549" y="164.8555">1</text><text fill="#000000" font-family="sans-serif" font-size="13" lengthAdjust="spacing" textLength="429.0571" x="104.8306" y="164.8555">GET /api/operation-plans?startDate={...}&amp;endDate={...}&amp;vessel={...}</text></g><path d="M560,134.9766 L560,189.9766 L761,189.9766 L761,144.9766 L751,134.9766 L560,134.9766" fill="#FEFFDD" style="stroke:#181818;stroke-width:0.5;"/><path d="M751,134.9766 L751,144.9766 L761,144.9766 L751,134.9766" fill="#FEFFDD" style="stroke:#181818;stroke-width:0.5;"/><text fill="#000000" font-family="sans-serif" font-size="13" lengthAdjust="spacing" textLength="180.4766" x="566" y="152.5449">Filters (Optional/Combined):</text><text fill="#000000" font-family="sans-serif" font-size="13" lengthAdjust="spacing" textLength="155.4922" x="566" y="167.8555">- Date Range (Start/End)</text><text fill="#000000" font-family="sans-serif" font-size="13" lengthAdjust="spacing" textLength="112.7026" x="566" y="183.166">- Vessel Identifier</text><path d="M10,202.9082 L72.1387,202.9082 L72.1387,210.2188 L62.1387,220.2188 L10,220.2188 L10,202.9082" fill="#EEEEEE" style="stroke:#000000;stroke-width:1.5;"/><rect fill="none" height="135.1523" style="stroke:#000000;stroke-width:1.5;" width="601.1729" x="10" y="202.9082"/><text fill="#000000" font-family="sans-serif" font-size="13" font-weight="bold" lengthAdjust="spacing" textLength="17.1387" x="25" y="216.4766">alt</text><text fill="#000000" font-family="sans-serif" font-size="11" font-weight="bold" lengthAdjust="spacing" textLength="106.2939" x="87.1387" y="215.543">[Success (200 OK)]</text><g class="message" data-participant-1="System" data-participant-2="User"><polygon fill="#181818" points="96.2549,237.5293,86.2549,241.5293,96.2549,245.5293,92.2549,241.5293" style="stroke:#181818;stroke-width:1;"/><line style="stroke:#181818;stroke-width:1;stroke-dasharray:2,2;" x1="90.2549" x2="544.8877" y1="241.5293" y2="241.5293"/><text fill="#000000" font-family="sans-serif" font-size="13" font-weight="bold" lengthAdjust="spacing" textLength="8.5757" x="102.2549" y="236.7871">2</text><text fill="#000000" font-family="sans-serif" font-size="13" lengthAdjust="spacing" textLength="220.0415" x="114.8306" y="236.7871">200 OK (List of OperationPlanDTO)</text></g><line style="stroke:#000000;stroke-width:1;stroke-dasharray:2,2;" x1="10" x2="611.1729" y1="250.5293" y2="250.5293"/><text fill="#000000" font-family="sans-serif" font-size="11" font-weight="bold" lengthAdjust="spacing" textLength="147.5493" x="15" y="261.1641">[Invalid Parameters (400)]</text><g class="message" data-participant-1="System" data-participant-2="User"><polygon fill="#181818" points="96.2549,281.7949,86.2549,285.7949,96.2549,289.7949,92.2549,285.7949" style="stroke:#181818;stroke-width:1;"/><line style="stroke:#181818;stroke-width:1;stroke-dasharray:2,2;" x1="90.2549" x2="544.8877" y1="285.7949" y2="285.7949"/><text fill="#000000" font-family="sans-serif" font-size="13" font-weight="bold" lengthAdjust="spacing" textLength="8.5757" x="102.2549" y="281.0527">3</text><text fill="#000000" font-family="sans-serif" font-size="13" lengthAdjust="spacing" textLength="106.1709" x="114.8306" y="281.0527">400 Bad Request</text></g><line style="stroke:#000000;stroke-width:1;stroke-dasharray:2,2;" x1="10" x2="611.1729" y1="294.7949" y2="294.7949"/><text fill="#000000" font-family="sans-serif" font-size="11" font-weight="bold" lengthAdjust="spacing" textLength="118.2339" x="15" y="305.4297">[Unauthorized (401)]</text><g class="message" data-participant-1="System" data-participant-2="User"><polygon fill="#181818" points="96.2549,326.0605,86.2549,330.0605,96.2549,334.0605,92.2549,330.0605" style="stroke:#181818;stroke-width:1;"/><line style="stroke:#181818;stroke-width:1;stroke-dasharray:2,2;" x1="90.2549" x2="544.8877" y1="330.0605" y2="330.0605"/><text fill="#000000" font-family="sans-serif" font-size="13" font-weight="bold" lengthAdjust="spacing" textLength="8.5757" x="102.2549" y="325.3184">4</text><text fill="#000000" font-family="sans-serif" font-size="13" lengthAdjust="spacing" textLength="113.9658" x="114.8306" y="325.3184">401 Unauthorized</text></g><!--SRC=[TP9DRjim48NtFCM35uaDLBBTPYKWBThQAO86a175sK-aiKsK8XMISfCMFKpFqejrADjeiyYEd9_l3TymVDEs8qyjg8xEL_7PCEWx1zUoeZuwsxSFx9KQqXZTkAqEKTS1PSUU93O21Qo3r0X7CheZ6p6gdaFa5kDgzN4ob1m2IaKTHQAg5iYmhd2Hp_Dt1IecN-zmXXl17zdQMQmCsQ3KEQvC_-JGC5OS7diT2BLhSQLDz2uDKqirwQ3I9CZU7-LGuClo3bFgzDITe5cNe1z2b7aN5FdoPvxdlyxODl_TzXm2cyD5MHSPNcztKM7GP1ymBhj48pFzxDe7RRcP59BEa2Yu9RjbUNuIcIvjCnbIzmCLrmtRg3TQJ1DL9FpWiDwdrfDJP2Aglgwb1-EtindAhua2dAD4fLCHmRFim188HYA4JNA46WA_WMwOJ2jISdPUD2K-08xcPEBJu5U10nxZmNwt-RU1j835NJa8AyKcCAxjdenki4h_XWzUNCncfzcMJqMoWA3j_izlANnDKthmYHhSycFF8HxfQolVRkUy_i5DuiudhxRFNnIhvALIykQNHlu5]--></g></svg>