<svg xmlns="http://www.w3.org/2000/svg" xmlns:xlink="http://www.w3.org/1999/xlink" contentStyleType="text/css" data-diagram-type="SEQUENCE" height="1694px" preserveAspectRatio="none" style="width:743px;height:1694px;background:#FFFFFF;" version="1.1" viewBox="0 0 743 1694" width="743px" zoomAndPan="magnify"><title>SSD: Complementary Task Category Management (with Authorization)</title><defs/><g><text fill="#000000" font-family="sans-serif" font-size="14" font-weight="bold" lengthAdjust="spacing" textLength="505.0391" x="115.0908" y="28.5352">SSD: Complementary Task Category Management (with Authorization)</text><rect fill="none" height="90.8867" style="stroke:#000000;stroke-width:1.5;" width="716.2207" x="10" y="209.5977"/><rect fill="none" height="90.8867" style="stroke:#000000;stroke-width:1.5;" width="716.2207" x="10" y="343.7949"/><rect fill="none" height="90.8867" style="stroke:#000000;stroke-width:1.5;" width="716.2207" x="10" y="521.3027"/><rect fill="none" height="90.8867" style="stroke:#000000;stroke-width:1.5;" width="716.2207" x="10" y="655.5"/><rect fill="none" height="90.8867" style="stroke:#000000;stroke-width:1.5;" width="716.2207" x="10" y="833.0078"/><rect fill="none" height="90.8867" style="stroke:#000000;stroke-width:1.5;" width="716.2207" x="10" y="967.2051"/><rect fill="none" height="90.8867" style="stroke:#000000;stroke-width:1.5;" width="716.2207" x="10" y="1101.4023"/><rect fill="none" height="90.8867" style="stroke:#000000;stroke-width:1.5;" width="716.2207" x="10" y="1235.5996"/><rect fill="none" height="90.8867" style="stroke:#000000;stroke-width:1.5;" width="716.2207" x="10" y="1369.7969"/><rect fill="none" height="90.8867" style="stroke:#000000;stroke-width:1.5;" width="716.2207" x="10" y="1503.9941"/><g><title>PortOperationsSupervisor</title><rect fill="#000000" fill-opacity="0.00000" height="1491.9043" width="8" x="105.6421" y="119.9766"/><line style="stroke:#181818;stroke-width:0.5;stroke-dasharray:5,5;" x1="109" x2="109" y1="119.9766" y2="1611.8809"/></g><g><title>System</title><rect fill="#000000" fill-opacity="0.00000" height="1491.9043" width="8" x="681.1719" y="119.9766"/><line style="stroke:#181818;stroke-width:0.5;stroke-dasharray:5,5;" x1="685.123" x2="685.123" y1="119.9766" y2="1611.8809"/></g><g class="participant participant-head" data-participant="User"><text fill="#000000" font-family="sans-serif" font-size="14" lengthAdjust="spacing" textLength="173.2842" x="20" y="117.0234">PortOperationsSupervisor</text><ellipse cx="109.6421" cy="58.9883" fill="#E2E2F0" rx="16" ry="16" style="stroke:#181818;stroke-width:0.5;"/><path d="M109.6421,78.9883 C113.6421,78.9883 116.6421,78.9883 120.6421,74.9883 C128.6421,74.9883 136.6421,82.9883 136.6421,90.9883 L136.6421,94.9883 C136.6421,98.9883 132.6421,102.9883 128.6421,102.9883 L90.6421,102.9883 C86.6421,102.9883 82.6421,98.9883 82.6421,94.9883 L82.6421,90.9883 C82.6421,82.9883 90.6421,74.9883 98.6421,74.9883 C102.6421,78.9883 105.6421,78.9883 109.6421,78.9883" fill="#E2E2F0" style="stroke:#181818;stroke-width:0.5;"/></g><g class="participant participant-tail" data-participant="User"><text fill="#000000" font-family="sans-serif" font-size="14" lengthAdjust="spacing" textLength="173.2842" x="20" y="1624.416">PortOperationsSupervisor</text><ellipse cx="109.6421" cy="1643.8691" fill="#E2E2F0" rx="16" ry="16" style="stroke:#181818;stroke-width:0.5;"/><path d="M109.6421,1663.8691 C113.6421,1663.8691 116.6421,1663.8691 120.6421,1659.8691 C128.6421,1659.8691 136.6421,1667.8691 136.6421,1675.8691 L136.6421,1679.8691 C136.6421,1683.8691 132.6421,1687.8691 128.6421,1687.8691 L90.6421,1687.8691 C86.6421,1687.8691 82.6421,1683.8691 82.6421,1679.8691 L82.6421,1675.8691 C82.6421,1667.8691 90.6421,1659.8691 98.6421,1659.8691 C102.6421,1663.8691 105.6421,1663.8691 109.6421,1663.8691" fill="#E2E2F0" style="stroke:#181818;stroke-width:0.5;"/></g><g class="participant participant-head" data-participant="System"><rect fill="#E2E2F0" height="30.4883" rx="2.5" ry="2.5" style="stroke:#181818;stroke-width:0.5;" width="62.0977" x="654.123" y="88.4883"/><text fill="#000000" font-family="sans-serif" font-size="14" lengthAdjust="spacing" textLength="48.0977" x="661.123" y="109.0234">System</text></g><g class="participant participant-tail" data-participant="System"><rect fill="#E2E2F0" height="30.4883" rx="2.5" ry="2.5" style="stroke:#181818;stroke-width:0.5;" width="62.0977" x="654.123" y="1610.8809"/><text fill="#000000" font-family="sans-serif" font-size="14" lengthAdjust="spacing" textLength="48.0977" x="661.123" y="1631.416">System</text></g><rect fill="#EEEEEE" height="3" style="stroke:#EEEEEE;stroke-width:1;" width="736.2207" x="0" y="150.6318"/><line style="stroke:#000000;stroke-width:1;" x1="0" x2="736.2207" y1="150.6318" y2="150.6318"/><line style="stroke:#000000;stroke-width:1;" x1="0" x2="736.2207" y1="153.6318" y2="153.6318"/><rect fill="#EEEEEE" height="23.3105" style="stroke:#000000;stroke-width:2;" width="191.874" x="272.1733" y="139.9766"/><text fill="#000000" font-family="sans-serif" font-size="13" font-weight="bold" lengthAdjust="spacing" textLength="173.5894" x="278.1733" y="156.5449">Creation and Modification</text><g class="message" data-participant-1="User" data-participant-2="System"><polygon fill="#181818" points="673.1719,190.5977,683.1719,194.5977,673.1719,198.5977,677.1719,194.5977" style="stroke:#181818;stroke-width:1;"/><line style="stroke:#181818;stroke-width:1;" x1="109.6421" x2="679.1719" y1="194.5977" y2="194.5977"/><text fill="#000000" font-family="sans-serif" font-size="13" font-weight="bold" lengthAdjust="spacing" textLength="8.5757" x="116.6421" y="189.8555">1</text><text fill="#000000" font-family="sans-serif" font-size="13" lengthAdjust="spacing" textLength="287.2632" x="129.2178" y="189.8555">POST /complementary-task-categories (data)</text></g><path d="M10,209.5977 L72.1387,209.5977 L72.1387,216.9082 L62.1387,226.9082 L10,226.9082 L10,209.5977" fill="#EEEEEE" style="stroke:#000000;stroke-width:1.5;"/><rect fill="none" height="90.8867" style="stroke:#000000;stroke-width:1.5;" width="716.2207" x="10" y="209.5977"/><text fill="#000000" font-family="sans-serif" font-size="13" font-weight="bold" lengthAdjust="spacing" textLength="17.1387" x="25" y="223.166">alt</text><text fill="#000000" font-family="sans-serif" font-size="11" font-weight="bold" lengthAdjust="spacing" textLength="70.9951" x="87.1387" y="222.2324">[Authorized]</text><g class="message" data-participant-1="System" data-participant-2="User"><polygon fill="#181818" points="120.6421,244.2188,110.6421,248.2188,120.6421,252.2188,116.6421,248.2188" style="stroke:#181818;stroke-width:1;"/><line style="stroke:#181818;stroke-width:1;stroke-dasharray:2,2;" x1="114.6421" x2="684.1719" y1="248.2188" y2="248.2188"/><text fill="#000000" font-family="sans-serif" font-size="13" font-weight="bold" lengthAdjust="spacing" textLength="8.5757" x="126.6421" y="243.4766">2</text><text fill="#000000" font-family="sans-serif" font-size="13" lengthAdjust="spacing" textLength="199.0117" x="139.2178" y="243.4766">201 Created / 400 Bad Request</text></g><line style="stroke:#000000;stroke-width:1;stroke-dasharray:2,2;" x1="10" x2="726.2207" y1="257.2188" y2="257.2188"/><text fill="#000000" font-family="sans-serif" font-size="11" font-weight="bold" lengthAdjust="spacing" textLength="84.686" x="15" y="267.8535">[Unauthorized]</text><g class="message" data-participant-1="System" data-participant-2="User"><polygon fill="#181818" points="120.6421,288.4844,110.6421,292.4844,120.6421,296.4844,116.6421,292.4844" style="stroke:#181818;stroke-width:1;"/><line style="stroke:#181818;stroke-width:1;stroke-dasharray:2,2;" x1="114.6421" x2="684.1719" y1="292.4844" y2="292.4844"/><text fill="#000000" font-family="sans-serif" font-size="13" font-weight="bold" lengthAdjust="spacing" textLength="8.5757" x="126.6421" y="287.7422">3</text><text fill="#000000" font-family="sans-serif" font-size="13" lengthAdjust="spacing" textLength="221.6729" x="139.2178" y="287.7422">401 Unauthorized / 403 Forbidden</text></g><g class="message" data-participant-1="User" data-participant-2="System"><polygon fill="#181818" points="673.1719,324.7949,683.1719,328.7949,673.1719,332.7949,677.1719,328.7949" style="stroke:#181818;stroke-width:1;"/><line style="stroke:#181818;stroke-width:1;" x1="109.6421" x2="679.1719" y1="328.7949" y2="328.7949"/><text fill="#000000" font-family="sans-serif" font-size="13" font-weight="bold" lengthAdjust="spacing" textLength="8.5757" x="116.6421" y="324.0527">4</text><text fill="#000000" font-family="sans-serif" font-size="13" lengthAdjust="spacing" textLength="324.5112" x="129.2178" y="324.0527">PUT /complementary-task-categories/{code} (data)</text></g><path d="M10,343.7949 L72.1387,343.7949 L72.1387,351.1055 L62.1387,361.1055 L10,361.1055 L10,343.7949" fill="#EEEEEE" style="stroke:#000000;stroke-width:1.5;"/><rect fill="none" height="90.8867" style="stroke:#000000;stroke-width:1.5;" width="716.2207" x="10" y="343.7949"/><text fill="#000000" font-family="sans-serif" font-size="13" font-weight="bold" lengthAdjust="spacing" textLength="17.1387" x="25" y="357.3633">alt</text><text fill="#000000" font-family="sans-serif" font-size="11" font-weight="bold" lengthAdjust="spacing" textLength="70.9951" x="87.1387" y="356.4297">[Authorized]</text><g class="message" data-participant-1="System" data-participant-2="User"><polygon fill="#181818" points="120.6421,378.416,110.6421,382.416,120.6421,386.416,116.6421,382.416" style="stroke:#181818;stroke-width:1;"/><line style="stroke:#181818;stroke-width:1;stroke-dasharray:2,2;" x1="114.6421" x2="684.1719" y1="382.416" y2="382.416"/><text fill="#000000" font-family="sans-serif" font-size="13" font-weight="bold" lengthAdjust="spacing" textLength="8.5757" x="126.6421" y="377.6738">5</text><text fill="#000000" font-family="sans-serif" font-size="13" lengthAdjust="spacing" textLength="157.0156" x="139.2178" y="377.6738">200 OK / 404 Not Found</text></g><line style="stroke:#000000;stroke-width:1;stroke-dasharray:2,2;" x1="10" x2="726.2207" y1="391.416" y2="391.416"/><text fill="#000000" font-family="sans-serif" font-size="11" font-weight="bold" lengthAdjust="spacing" textLength="84.686" x="15" y="402.0508">[Unauthorized]</text><g class="message" data-participant-1="System" data-participant-2="User"><polygon fill="#181818" points="120.6421,422.6816,110.6421,426.6816,120.6421,430.6816,116.6421,426.6816" style="stroke:#181818;stroke-width:1;"/><line style="stroke:#181818;stroke-width:1;stroke-dasharray:2,2;" x1="114.6421" x2="684.1719" y1="426.6816" y2="426.6816"/><text fill="#000000" font-family="sans-serif" font-size="13" font-weight="bold" lengthAdjust="spacing" textLength="8.5757" x="126.6421" y="421.9395">6</text><text fill="#000000" font-family="sans-serif" font-size="13" lengthAdjust="spacing" textLength="221.6729" x="139.2178" y="421.9395">401 Unauthorized / 403 Forbidden</text></g><rect fill="#EEEEEE" height="3" style="stroke:#EEEEEE;stroke-width:1;" width="736.2207" x="0" y="462.3369"/><line style="stroke:#000000;stroke-width:1;" x1="0" x2="736.2207" y1="462.3369" y2="462.3369"/><line style="stroke:#000000;stroke-width:1;" x1="0" x2="736.2207" y1="465.3369" y2="465.3369"/><rect fill="#EEEEEE" height="23.3105" style="stroke:#000000;stroke-width:2;" width="149.9097" x="293.1555" y="451.6816"/><text fill="#000000" font-family="sans-serif" font-size="13" font-weight="bold" lengthAdjust="spacing" textLength="131.625" x="299.1555" y="468.25">Status Management</text><g class="message" data-participant-1="User" data-participant-2="System"><polygon fill="#181818" points="673.1719,502.3027,683.1719,506.3027,673.1719,510.3027,677.1719,506.3027" style="stroke:#181818;stroke-width:1;"/><line style="stroke:#181818;stroke-width:1;" x1="109.6421" x2="679.1719" y1="506.3027" y2="506.3027"/><text fill="#000000" font-family="sans-serif" font-size="13" font-weight="bold" lengthAdjust="spacing" textLength="8.5757" x="116.6421" y="501.5605">7</text><text fill="#000000" font-family="sans-serif" font-size="13" lengthAdjust="spacing" textLength="358.3379" x="129.2178" y="501.5605">PATCH /complementary-task-categories/{code}/activate</text></g><path d="M10,521.3027 L72.1387,521.3027 L72.1387,528.6133 L62.1387,538.6133 L10,538.6133 L10,521.3027" fill="#EEEEEE" style="stroke:#000000;stroke-width:1.5;"/><rect fill="none" height="90.8867" style="stroke:#000000;stroke-width:1.5;" width="716.2207" x="10" y="521.3027"/><text fill="#000000" font-family="sans-serif" font-size="13" font-weight="bold" lengthAdjust="spacing" textLength="17.1387" x="25" y="534.8711">alt</text><text fill="#000000" font-family="sans-serif" font-size="11" font-weight="bold" lengthAdjust="spacing" textLength="70.9951" x="87.1387" y="533.9375">[Authorized]</text><g class="message" data-participant-1="System" data-participant-2="User"><polygon fill="#181818" points="120.6421,555.9238,110.6421,559.9238,120.6421,563.9238,116.6421,559.9238" style="stroke:#181818;stroke-width:1;"/><line style="stroke:#181818;stroke-width:1;stroke-dasharray:2,2;" x1="114.6421" x2="684.1719" y1="559.9238" y2="559.9238"/><text fill="#000000" font-family="sans-serif" font-size="13" font-weight="bold" lengthAdjust="spacing" textLength="8.5757" x="126.6421" y="555.1816">8</text><text fill="#000000" font-family="sans-serif" font-size="13" lengthAdjust="spacing" textLength="168.5747" x="139.2178" y="555.1816">200 OK / 400 Bad Request</text></g><line style="stroke:#000000;stroke-width:1;stroke-dasharray:2,2;" x1="10" x2="726.2207" y1="568.9238" y2="568.9238"/><text fill="#000000" font-family="sans-serif" font-size="11" font-weight="bold" lengthAdjust="spacing" textLength="84.686" x="15" y="579.5586">[Unauthorized]</text><g class="message" data-participant-1="System" data-participant-2="User"><polygon fill="#181818" points="120.6421,600.1895,110.6421,604.1895,120.6421,608.1895,116.6421,604.1895" style="stroke:#181818;stroke-width:1;"/><line style="stroke:#181818;stroke-width:1;stroke-dasharray:2,2;" x1="114.6421" x2="684.1719" y1="604.1895" y2="604.1895"/><text fill="#000000" font-family="sans-serif" font-size="13" font-weight="bold" lengthAdjust="spacing" textLength="8.5757" x="126.6421" y="599.4473">9</text><text fill="#000000" font-family="sans-serif" font-size="13" lengthAdjust="spacing" textLength="221.6729" x="139.2178" y="599.4473">401 Unauthorized / 403 Forbidden</text></g><g class="message" data-participant-1="User" data-participant-2="System"><polygon fill="#181818" points="673.1719,636.5,683.1719,640.5,673.1719,644.5,677.1719,640.5" style="stroke:#181818;stroke-width:1;"/><line style="stroke:#181818;stroke-width:1;" x1="109.6421" x2="679.1719" y1="640.5" y2="640.5"/><text fill="#000000" font-family="sans-serif" font-size="13" font-weight="bold" lengthAdjust="spacing" textLength="17.1514" x="116.6421" y="635.7578">10</text><text fill="#000000" font-family="sans-serif" font-size="13" lengthAdjust="spacing" textLength="373.7627" x="137.7935" y="635.7578">PATCH /complementary-task-categories/{code}/deactivate</text></g><path d="M10,655.5 L72.1387,655.5 L72.1387,662.8105 L62.1387,672.8105 L10,672.8105 L10,655.5" fill="#EEEEEE" style="stroke:#000000;stroke-width:1.5;"/><rect fill="none" height="90.8867" style="stroke:#000000;stroke-width:1.5;" width="716.2207" x="10" y="655.5"/><text fill="#000000" font-family="sans-serif" font-size="13" font-weight="bold" lengthAdjust="spacing" textLength="17.1387" x="25" y="669.0684">alt</text><text fill="#000000" font-family="sans-serif" font-size="11" font-weight="bold" lengthAdjust="spacing" textLength="70.9951" x="87.1387" y="668.1348">[Authorized]</text><g class="message" data-participant-1="System" data-participant-2="User"><polygon fill="#181818" points="120.6421,690.1211,110.6421,694.1211,120.6421,698.1211,116.6421,694.1211" style="stroke:#181818;stroke-width:1;"/><line style="stroke:#181818;stroke-width:1;stroke-dasharray:2,2;" x1="114.6421" x2="684.1719" y1="694.1211" y2="694.1211"/><text fill="#000000" font-family="sans-serif" font-size="13" font-weight="bold" lengthAdjust="spacing" textLength="17.1514" x="126.6421" y="689.3789">11</text><text fill="#000000" font-family="sans-serif" font-size="13" lengthAdjust="spacing" textLength="168.5747" x="147.7935" y="689.3789">200 OK / 400 Bad Request</text></g><line style="stroke:#000000;stroke-width:1;stroke-dasharray:2,2;" x1="10" x2="726.2207" y1="703.1211" y2="703.1211"/><text fill="#000000" font-family="sans-serif" font-size="11" font-weight="bold" lengthAdjust="spacing" textLength="84.686" x="15" y="713.7559">[Unauthorized]</text><g class="message" data-participant-1="System" data-participant-2="User"><polygon fill="#181818" points="120.6421,734.3867,110.6421,738.3867,120.6421,742.3867,116.6421,738.3867" style="stroke:#181818;stroke-width:1;"/><line style="stroke:#181818;stroke-width:1;stroke-dasharray:2,2;" x1="114.6421" x2="684.1719" y1="738.3867" y2="738.3867"/><text fill="#000000" font-family="sans-serif" font-size="13" font-weight="bold" lengthAdjust="spacing" textLength="17.1514" x="126.6421" y="733.6445">12</text><text fill="#000000" font-family="sans-serif" font-size="13" lengthAdjust="spacing" textLength="221.6729" x="147.7935" y="733.6445">401 Unauthorized / 403 Forbidden</text></g><rect fill="#EEEEEE" height="3" style="stroke:#EEEEEE;stroke-width:1;" width="736.2207" x="0" y="774.042"/><line style="stroke:#000000;stroke-width:1;" x1="0" x2="736.2207" y1="774.042" y2="774.042"/><line style="stroke:#000000;stroke-width:1;" x1="0" x2="736.2207" y1="777.042" y2="777.042"/><rect fill="#EEEEEE" height="23.3105" style="stroke:#000000;stroke-width:2;" width="147.6689" x="294.2759" y="763.3867"/><text fill="#000000" font-family="sans-serif" font-size="13" font-weight="bold" lengthAdjust="spacing" textLength="129.3843" x="300.2759" y="779.9551">Queries and Search</text><g class="message" data-participant-1="User" data-participant-2="System"><polygon fill="#181818" points="673.1719,814.0078,683.1719,818.0078,673.1719,822.0078,677.1719,818.0078" style="stroke:#181818;stroke-width:1;"/><line style="stroke:#181818;stroke-width:1;" x1="109.6421" x2="679.1719" y1="818.0078" y2="818.0078"/><text fill="#000000" font-family="sans-serif" font-size="13" font-weight="bold" lengthAdjust="spacing" textLength="17.1514" x="116.6421" y="813.2656">13</text><text fill="#000000" font-family="sans-serif" font-size="13" lengthAdjust="spacing" textLength="239.4463" x="137.7935" y="813.2656">GET /complementary-task-categories</text></g><path d="M10,833.0078 L72.1387,833.0078 L72.1387,840.3184 L62.1387,850.3184 L10,850.3184 L10,833.0078" fill="#EEEEEE" style="stroke:#000000;stroke-width:1.5;"/><rect fill="none" height="90.8867" style="stroke:#000000;stroke-width:1.5;" width="716.2207" x="10" y="833.0078"/><text fill="#000000" font-family="sans-serif" font-size="13" font-weight="bold" lengthAdjust="spacing" textLength="17.1387" x="25" y="846.5762">alt</text><text fill="#000000" font-family="sans-serif" font-size="11" font-weight="bold" lengthAdjust="spacing" textLength="70.9951" x="87.1387" y="845.6426">[Authorized]</text><g class="message" data-participant-1="System" data-participant-2="User"><polygon fill="#181818" points="120.6421,867.6289,110.6421,871.6289,120.6421,875.6289,116.6421,871.6289" style="stroke:#181818;stroke-width:1;"/><line style="stroke:#181818;stroke-width:1;stroke-dasharray:2,2;" x1="114.6421" x2="684.1719" y1="871.6289" y2="871.6289"/><text fill="#000000" font-family="sans-serif" font-size="13" font-weight="bold" lengthAdjust="spacing" textLength="17.1514" x="126.6421" y="866.8867">14</text><text fill="#000000" font-family="sans-serif" font-size="13" lengthAdjust="spacing" textLength="168.0796" x="147.7935" y="866.8867">200 OK (List of categories)</text></g><line style="stroke:#000000;stroke-width:1;stroke-dasharray:2,2;" x1="10" x2="726.2207" y1="880.6289" y2="880.6289"/><text fill="#000000" font-family="sans-serif" font-size="11" font-weight="bold" lengthAdjust="spacing" textLength="84.686" x="15" y="891.2637">[Unauthorized]</text><g class="message" data-participant-1="System" data-participant-2="User"><polygon fill="#181818" points="120.6421,911.8945,110.6421,915.8945,120.6421,919.8945,116.6421,915.8945" style="stroke:#181818;stroke-width:1;"/><line style="stroke:#181818;stroke-width:1;stroke-dasharray:2,2;" x1="114.6421" x2="684.1719" y1="915.8945" y2="915.8945"/><text fill="#000000" font-family="sans-serif" font-size="13" font-weight="bold" lengthAdjust="spacing" textLength="17.1514" x="126.6421" y="911.1523">15</text><text fill="#000000" font-family="sans-serif" font-size="13" lengthAdjust="spacing" textLength="221.6729" x="147.7935" y="911.1523">401 Unauthorized / 403 Forbidden</text></g><g class="message" data-participant-1="User" data-participant-2="System"><polygon fill="#181818" points="673.1719,948.2051,683.1719,952.2051,673.1719,956.2051,677.1719,952.2051" style="stroke:#181818;stroke-width:1;"/><line style="stroke:#181818;stroke-width:1;" x1="109.6421" x2="679.1719" y1="952.2051" y2="952.2051"/><text fill="#000000" font-family="sans-serif" font-size="13" font-weight="bold" lengthAdjust="spacing" textLength="17.1514" x="116.6421" y="947.4629">16</text><text fill="#000000" font-family="sans-serif" font-size="13" lengthAdjust="spacing" textLength="284.7876" x="137.7935" y="947.4629">GET /complementary-task-categories/{code}</text></g><path d="M10,967.2051 L72.1387,967.2051 L72.1387,974.5156 L62.1387,984.5156 L10,984.5156 L10,967.2051" fill="#EEEEEE" style="stroke:#000000;stroke-width:1.5;"/><rect fill="none" height="90.8867" style="stroke:#000000;stroke-width:1.5;" width="716.2207" x="10" y="967.2051"/><text fill="#000000" font-family="sans-serif" font-size="13" font-weight="bold" lengthAdjust="spacing" textLength="17.1387" x="25" y="980.7734">alt</text><text fill="#000000" font-family="sans-serif" font-size="11" font-weight="bold" lengthAdjust="spacing" textLength="70.9951" x="87.1387" y="979.8398">[Authorized]</text><g class="message" data-participant-1="System" data-participant-2="User"><polygon fill="#181818" points="120.6421,1001.8262,110.6421,1005.8262,120.6421,1009.8262,116.6421,1005.8262" style="stroke:#181818;stroke-width:1;"/><line style="stroke:#181818;stroke-width:1;stroke-dasharray:2,2;" x1="114.6421" x2="684.1719" y1="1005.8262" y2="1005.8262"/><text fill="#000000" font-family="sans-serif" font-size="13" font-weight="bold" lengthAdjust="spacing" textLength="17.1514" x="126.6421" y="1001.084">17</text><text fill="#000000" font-family="sans-serif" font-size="13" lengthAdjust="spacing" textLength="157.0156" x="147.7935" y="1001.084">200 OK / 404 Not Found</text></g><line style="stroke:#000000;stroke-width:1;stroke-dasharray:2,2;" x1="10" x2="726.2207" y1="1014.8262" y2="1014.8262"/><text fill="#000000" font-family="sans-serif" font-size="11" font-weight="bold" lengthAdjust="spacing" textLength="84.686" x="15" y="1025.4609">[Unauthorized]</text><g class="message" data-participant-1="System" data-participant-2="User"><polygon fill="#181818" points="120.6421,1046.0918,110.6421,1050.0918,120.6421,1054.0918,116.6421,1050.0918" style="stroke:#181818;stroke-width:1;"/><line style="stroke:#181818;stroke-width:1;stroke-dasharray:2,2;" x1="114.6421" x2="684.1719" y1="1050.0918" y2="1050.0918"/><text fill="#000000" font-family="sans-serif" font-size="13" font-weight="bold" lengthAdjust="spacing" textLength="17.1514" x="126.6421" y="1045.3496">18</text><text fill="#000000" font-family="sans-serif" font-size="13" lengthAdjust="spacing" textLength="221.6729" x="147.7935" y="1045.3496">401 Unauthorized / 403 Forbidden</text></g><g class="message" data-participant-1="User" data-participant-2="System"><polygon fill="#181818" points="673.1719,1082.4023,683.1719,1086.4023,673.1719,1090.4023,677.1719,1086.4023" style="stroke:#181818;stroke-width:1;"/><line style="stroke:#181818;stroke-width:1;" x1="109.6421" x2="679.1719" y1="1086.4023" y2="1086.4023"/><text fill="#000000" font-family="sans-serif" font-size="13" font-weight="bold" lengthAdjust="spacing" textLength="17.1514" x="116.6421" y="1081.6602">19</text><text fill="#000000" font-family="sans-serif" font-size="13" lengthAdjust="spacing" textLength="333.3281" x="137.7935" y="1081.6602">GET /complementary-task-categories/search/id/{id}</text></g><path d="M10,1101.4023 L72.1387,1101.4023 L72.1387,1108.7129 L62.1387,1118.7129 L10,1118.7129 L10,1101.4023" fill="#EEEEEE" style="stroke:#000000;stroke-width:1.5;"/><rect fill="none" height="90.8867" style="stroke:#000000;stroke-width:1.5;" width="716.2207" x="10" y="1101.4023"/><text fill="#000000" font-family="sans-serif" font-size="13" font-weight="bold" lengthAdjust="spacing" textLength="17.1387" x="25" y="1114.9707">alt</text><text fill="#000000" font-family="sans-serif" font-size="11" font-weight="bold" lengthAdjust="spacing" textLength="70.9951" x="87.1387" y="1114.0371">[Authorized]</text><g class="message" data-participant-1="System" data-participant-2="User"><polygon fill="#181818" points="120.6421,1136.0234,110.6421,1140.0234,120.6421,1144.0234,116.6421,1140.0234" style="stroke:#181818;stroke-width:1;"/><line style="stroke:#181818;stroke-width:1;stroke-dasharray:2,2;" x1="114.6421" x2="684.1719" y1="1140.0234" y2="1140.0234"/><text fill="#000000" font-family="sans-serif" font-size="13" font-weight="bold" lengthAdjust="spacing" textLength="17.1514" x="126.6421" y="1135.2813">20</text><text fill="#000000" font-family="sans-serif" font-size="13" lengthAdjust="spacing" textLength="157.0156" x="147.7935" y="1135.2813">200 OK / 404 Not Found</text></g><line style="stroke:#000000;stroke-width:1;stroke-dasharray:2,2;" x1="10" x2="726.2207" y1="1149.0234" y2="1149.0234"/><text fill="#000000" font-family="sans-serif" font-size="11" font-weight="bold" lengthAdjust="spacing" textLength="84.686" x="15" y="1159.6582">[Unauthorized]</text><g class="message" data-participant-1="System" data-participant-2="User"><polygon fill="#181818" points="120.6421,1180.2891,110.6421,1184.2891,120.6421,1188.2891,116.6421,1184.2891" style="stroke:#181818;stroke-width:1;"/><line style="stroke:#181818;stroke-width:1;stroke-dasharray:2,2;" x1="114.6421" x2="684.1719" y1="1184.2891" y2="1184.2891"/><text fill="#000000" font-family="sans-serif" font-size="13" font-weight="bold" lengthAdjust="spacing" textLength="17.1514" x="126.6421" y="1179.5469">21</text><text fill="#000000" font-family="sans-serif" font-size="13" lengthAdjust="spacing" textLength="221.6729" x="147.7935" y="1179.5469">401 Unauthorized / 403 Forbidden</text></g><g class="message" data-participant-1="User" data-participant-2="System"><polygon fill="#181818" points="673.1719,1216.5996,683.1719,1220.5996,673.1719,1224.5996,677.1719,1220.5996" style="stroke:#181818;stroke-width:1;"/><line style="stroke:#181818;stroke-width:1;" x1="109.6421" x2="679.1719" y1="1220.5996" y2="1220.5996"/><text fill="#000000" font-family="sans-serif" font-size="13" font-weight="bold" lengthAdjust="spacing" textLength="17.1514" x="116.6421" y="1215.8574">22</text><text fill="#000000" font-family="sans-serif" font-size="13" lengthAdjust="spacing" textLength="422.3286" x="137.7935" y="1215.8574">GET /complementary-task-categories/search/name?name={name}</text></g><path d="M10,1235.5996 L72.1387,1235.5996 L72.1387,1242.9102 L62.1387,1252.9102 L10,1252.9102 L10,1235.5996" fill="#EEEEEE" style="stroke:#000000;stroke-width:1.5;"/><rect fill="none" height="90.8867" style="stroke:#000000;stroke-width:1.5;" width="716.2207" x="10" y="1235.5996"/><text fill="#000000" font-family="sans-serif" font-size="13" font-weight="bold" lengthAdjust="spacing" textLength="17.1387" x="25" y="1249.168">alt</text><text fill="#000000" font-family="sans-serif" font-size="11" font-weight="bold" lengthAdjust="spacing" textLength="70.9951" x="87.1387" y="1248.2344">[Authorized]</text><g class="message" data-participant-1="System" data-participant-2="User"><polygon fill="#181818" points="120.6421,1270.2207,110.6421,1274.2207,120.6421,1278.2207,116.6421,1274.2207" style="stroke:#181818;stroke-width:1;"/><line style="stroke:#181818;stroke-width:1;stroke-dasharray:2,2;" x1="114.6421" x2="684.1719" y1="1274.2207" y2="1274.2207"/><text fill="#000000" font-family="sans-serif" font-size="13" font-weight="bold" lengthAdjust="spacing" textLength="17.1514" x="126.6421" y="1269.4785">23</text><text fill="#000000" font-family="sans-serif" font-size="13" lengthAdjust="spacing" textLength="148.0146" x="147.7935" y="1269.4785">200 OK (Search results)</text></g><line style="stroke:#000000;stroke-width:1;stroke-dasharray:2,2;" x1="10" x2="726.2207" y1="1283.2207" y2="1283.2207"/><text fill="#000000" font-family="sans-serif" font-size="11" font-weight="bold" lengthAdjust="spacing" textLength="84.686" x="15" y="1293.8555">[Unauthorized]</text><g class="message" data-participant-1="System" data-participant-2="User"><polygon fill="#181818" points="120.6421,1314.4863,110.6421,1318.4863,120.6421,1322.4863,116.6421,1318.4863" style="stroke:#181818;stroke-width:1;"/><line style="stroke:#181818;stroke-width:1;stroke-dasharray:2,2;" x1="114.6421" x2="684.1719" y1="1318.4863" y2="1318.4863"/><text fill="#000000" font-family="sans-serif" font-size="13" font-weight="bold" lengthAdjust="spacing" textLength="17.1514" x="126.6421" y="1313.7441">24</text><text fill="#000000" font-family="sans-serif" font-size="13" lengthAdjust="spacing" textLength="221.6729" x="147.7935" y="1313.7441">401 Unauthorized / 403 Forbidden</text></g><g class="message" data-participant-1="User" data-participant-2="System"><polygon fill="#181818" points="673.1719,1350.7969,683.1719,1354.7969,673.1719,1358.7969,677.1719,1354.7969" style="stroke:#181818;stroke-width:1;"/><line style="stroke:#181818;stroke-width:1;" x1="109.6421" x2="679.1719" y1="1354.7969" y2="1354.7969"/><text fill="#000000" font-family="sans-serif" font-size="13" font-weight="bold" lengthAdjust="spacing" textLength="17.1514" x="116.6421" y="1350.0547">25</text><text fill="#000000" font-family="sans-serif" font-size="13" lengthAdjust="spacing" textLength="530.3784" x="137.7935" y="1350.0547">GET /complementary-task-categories/search/description?description={description}</text></g><path d="M10,1369.7969 L72.1387,1369.7969 L72.1387,1377.1074 L62.1387,1387.1074 L10,1387.1074 L10,1369.7969" fill="#EEEEEE" style="stroke:#000000;stroke-width:1.5;"/><rect fill="none" height="90.8867" style="stroke:#000000;stroke-width:1.5;" width="716.2207" x="10" y="1369.7969"/><text fill="#000000" font-family="sans-serif" font-size="13" font-weight="bold" lengthAdjust="spacing" textLength="17.1387" x="25" y="1383.3652">alt</text><text fill="#000000" font-family="sans-serif" font-size="11" font-weight="bold" lengthAdjust="spacing" textLength="70.9951" x="87.1387" y="1382.4316">[Authorized]</text><g class="message" data-participant-1="System" data-participant-2="User"><polygon fill="#181818" points="120.6421,1404.418,110.6421,1408.418,120.6421,1412.418,116.6421,1408.418" style="stroke:#181818;stroke-width:1;"/><line style="stroke:#181818;stroke-width:1;stroke-dasharray:2,2;" x1="114.6421" x2="684.1719" y1="1408.418" y2="1408.418"/><text fill="#000000" font-family="sans-serif" font-size="13" font-weight="bold" lengthAdjust="spacing" textLength="17.1514" x="126.6421" y="1403.6758">26</text><text fill="#000000" font-family="sans-serif" font-size="13" lengthAdjust="spacing" textLength="148.0146" x="147.7935" y="1403.6758">200 OK (Search results)</text></g><line style="stroke:#000000;stroke-width:1;stroke-dasharray:2,2;" x1="10" x2="726.2207" y1="1417.418" y2="1417.418"/><text fill="#000000" font-family="sans-serif" font-size="11" font-weight="bold" lengthAdjust="spacing" textLength="84.686" x="15" y="1428.0527">[Unauthorized]</text><g class="message" data-participant-1="System" data-participant-2="User"><polygon fill="#181818" points="120.6421,1448.6836,110.6421,1452.6836,120.6421,1456.6836,116.6421,1452.6836" style="stroke:#181818;stroke-width:1;"/><line style="stroke:#181818;stroke-width:1;stroke-dasharray:2,2;" x1="114.6421" x2="684.1719" y1="1452.6836" y2="1452.6836"/><text fill="#000000" font-family="sans-serif" font-size="13" font-weight="bold" lengthAdjust="spacing" textLength="17.1514" x="126.6421" y="1447.9414">27</text><text fill="#000000" font-family="sans-serif" font-size="13" lengthAdjust="spacing" textLength="221.6729" x="147.7935" y="1447.9414">401 Unauthorized / 403 Forbidden</text></g><g class="message" data-participant-1="User" data-participant-2="System"><polygon fill="#181818" points="673.1719,1484.9941,683.1719,1488.9941,673.1719,1492.9941,677.1719,1488.9941" style="stroke:#181818;stroke-width:1;"/><line style="stroke:#181818;stroke-width:1;" x1="109.6421" x2="679.1719" y1="1488.9941" y2="1488.9941"/><text fill="#000000" font-family="sans-serif" font-size="13" font-weight="bold" lengthAdjust="spacing" textLength="17.1514" x="116.6421" y="1484.252">28</text><text fill="#000000" font-family="sans-serif" font-size="13" lengthAdjust="spacing" textLength="480.8857" x="137.7935" y="1484.252">GET /complementary-task-categories/search/category?category={category}</text></g><path d="M10,1503.9941 L72.1387,1503.9941 L72.1387,1511.3047 L62.1387,1521.3047 L10,1521.3047 L10,1503.9941" fill="#EEEEEE" style="stroke:#000000;stroke-width:1.5;"/><rect fill="none" height="90.8867" style="stroke:#000000;stroke-width:1.5;" width="716.2207" x="10" y="1503.9941"/><text fill="#000000" font-family="sans-serif" font-size="13" font-weight="bold" lengthAdjust="spacing" textLength="17.1387" x="25" y="1517.5625">alt</text><text fill="#000000" font-family="sans-serif" font-size="11" font-weight="bold" lengthAdjust="spacing" textLength="70.9951" x="87.1387" y="1516.6289">[Authorized]</text><g class="message" data-participant-1="System" data-participant-2="User"><polygon fill="#181818" points="120.6421,1538.6152,110.6421,1542.6152,120.6421,1546.6152,116.6421,1542.6152" style="stroke:#181818;stroke-width:1;"/><line style="stroke:#181818;stroke-width:1;stroke-dasharray:2,2;" x1="114.6421" x2="684.1719" y1="1542.6152" y2="1542.6152"/><text fill="#000000" font-family="sans-serif" font-size="13" font-weight="bold" lengthAdjust="spacing" textLength="17.1514" x="126.6421" y="1537.873">29</text><text fill="#000000" font-family="sans-serif" font-size="13" lengthAdjust="spacing" textLength="148.0146" x="147.7935" y="1537.873">200 OK (Search results)</text></g><line style="stroke:#000000;stroke-width:1;stroke-dasharray:2,2;" x1="10" x2="726.2207" y1="1551.6152" y2="1551.6152"/><text fill="#000000" font-family="sans-serif" font-size="11" font-weight="bold" lengthAdjust="spacing" textLength="84.686" x="15" y="1562.25">[Unauthorized]</text><g class="message" data-participant-1="System" data-participant-2="User"><polygon fill="#181818" points="120.6421,1582.8809,110.6421,1586.8809,120.6421,1590.8809,116.6421,1586.8809" style="stroke:#181818;stroke-width:1;"/><line style="stroke:#181818;stroke-width:1;stroke-dasharray:2,2;" x1="114.6421" x2="684.1719" y1="1586.8809" y2="1586.8809"/><text fill="#000000" font-family="sans-serif" font-size="13" font-weight="bold" lengthAdjust="spacing" textLength="17.1514" x="126.6421" y="1582.1387">30</text><text fill="#000000" font-family="sans-serif" font-size="13" lengthAdjust="spacing" textLength="221.6729" x="147.7935" y="1582.1387">401 Unauthorized / 403 Forbidden</text></g><!--SRC=[tPNBRjim44Nt_8g1L_R2aDjwPK0nKlS5jAcJoFw0YJY9YKYaIWuJk4B-FHGjfreOS5MqXH4jYE53S-VW3a5thtI55al0d8tDU5iGu2CvKv90pqRxyeQi474R1fV6yh8YYwoCTfaFuODonWu07QnTE1coiSfLXPfXa6qTKnatTw4Gh3X8PDc76InCMHLKacQqMrYXkuS5CjsPCBj0ZNTn3uQFYZTmxdbZhFePbKT2f2aiBCKPe9PmOQIwLVbk8Ks5QAg1yLah33EuN6OhIFAkw9Y3w3ZVYIfoC9J8E19Oy8iWIG7XQzECGyQOUGPl9szs9P241AQJ2Rn72TVqmvDZGOKZM6iybcKQidIFnLJlu9EnDqfAqeAqF0IpFiQIrBcHzDGJQGBBhx64ANmt7ChmGVxliWJdCaRshcloOSVELuilluUPX0PL3s6rD-Z_jQq7aQIJP0hsNNcAjwMvTncXpJU7_VlyyLYJzY8RVbEEmTp2h_z7_zgmumYjNITqmVu4maKR4oMJMibN0gEnf7apf7KpzgCQjerjoVc2JwBHMYn9BhUgQXwwUITEwyxajR2sAzlvFaZhVNHAYCy0]--></g></svg>