<svg xmlns="http://www.w3.org/2000/svg" xmlns:xlink="http://www.w3.org/1999/xlink" contentStyleType="text/css" data-diagram-type="SEQUENCE" height="443px" preserveAspectRatio="none" style="width:1085px;height:443px;background:#FFFFFF;" version="1.1" viewBox="0 0 1085 443" width="1085px" zoomAndPan="magnify"><defs/><g><g><title>API Controller</title><rect fill="#FFFFFF" height="188.8633" style="stroke:#181818;stroke-width:1;" width="10" x="404.6055" y="156.1094"/></g><g><title>StorageAreaService</title><rect fill="#FFFFFF" height="130.2422" style="stroke:#181818;stroke-width:1;" width="10" x="675.3813" y="185.4199"/></g><g><title>StorageAreaRepository</title><rect fill="#FFFFFF" height="29.3105" style="stroke:#181818;stroke-width:1;" width="10" x="988.2612" y="214.7305"/></g><g><title>Port Authority Officer</title><rect fill="#000000" fill-opacity="0.00000" height="281.4844" width="8" x="76.6387" y="81.4883"/><line style="stroke:#181818;stroke-width:0.5;stroke-dasharray:5,5;" x1="80" x2="80" y1="81.4883" y2="362.9727"/></g><g><title>API Controller</title><rect fill="#000000" fill-opacity="0.00000" height="281.4844" width="8" x="405.6055" y="81.4883"/><line style="stroke:#181818;stroke-width:0.5;stroke-dasharray:5,5;" x1="409.5947" x2="409.5947" y1="81.4883" y2="362.9727"/></g><g><title>StorageAreaService</title><rect fill="#000000" fill-opacity="0.00000" height="281.4844" width="8" x="676.3813" y="81.4883"/><line style="stroke:#181818;stroke-width:0.5;stroke-dasharray:5,5;" x1="679.5732" x2="679.5732" y1="81.4883" y2="362.9727"/></g><g><title>StorageAreaRepository</title><rect fill="#000000" fill-opacity="0.00000" height="281.4844" width="8" x="989.2612" y="81.4883"/><line style="stroke:#181818;stroke-width:0.5;stroke-dasharray:5,5;" x1="993.0562" x2="993.0562" y1="81.4883" y2="362.9727"/></g><g class="participant participant-head" data-participant="Officer"><text fill="#000000" font-family="sans-serif" font-size="14" lengthAdjust="spacing" textLength="145.2773" x="5" y="78.5352">Port Authority Officer</text><ellipse cx="80.6387" cy="13.5" fill="#E2E2F0" rx="8" ry="8" style="stroke:#181818;stroke-width:0.5;"/><path d="M80.6387,21.5 L80.6387,48.5 M67.6387,29.5 L93.6387,29.5 M80.6387,48.5 L67.6387,63.5 M80.6387,48.5 L93.6387,63.5" fill="none" style="stroke:#181818;stroke-width:0.5;"/></g><g class="participant participant-tail" data-participant="Officer"><text fill="#000000" font-family="sans-serif" font-size="14" lengthAdjust="spacing" textLength="145.2773" x="5" y="375.5078">Port Authority Officer</text><ellipse cx="80.6387" cy="386.9609" fill="#E2E2F0" rx="8" ry="8" style="stroke:#181818;stroke-width:0.5;"/><path d="M80.6387,394.9609 L80.6387,421.9609 M67.6387,402.9609 L93.6387,402.9609 M80.6387,421.9609 L67.6387,436.9609 M80.6387,421.9609 L93.6387,436.9609" fill="none" style="stroke:#181818;stroke-width:0.5;"/></g><g class="participant participant-head" data-participant="Controller"><text fill="#000000" font-family="sans-serif" font-size="14" lengthAdjust="spacing" textLength="94.0215" x="359.5947" y="78.5352">API Controller</text><path d="M389.1055,37 L389.1055,61 M389.1055,49 L406.1055,49" fill="none" style="stroke:#181818;stroke-width:0.5;"/><ellipse cx="418.1055" cy="49" fill="#E2E2F0" rx="12" ry="12" style="stroke:#181818;stroke-width:0.5;"/></g><g class="participant participant-tail" data-participant="Controller"><text fill="#000000" font-family="sans-serif" font-size="14" lengthAdjust="spacing" textLength="94.0215" x="359.5947" y="375.5078">API Controller</text><path d="M389.1055,382.4609 L389.1055,406.4609 M389.1055,394.4609 L406.1055,394.4609" fill="none" style="stroke:#181818;stroke-width:0.5;"/><ellipse cx="418.1055" cy="394.4609" fill="#E2E2F0" rx="12" ry="12" style="stroke:#181818;stroke-width:0.5;"/></g><g class="participant participant-head" data-participant="Service"><text fill="#000000" font-family="sans-serif" font-size="14" lengthAdjust="spacing" textLength="129.6162" x="612.5732" y="78.5352">StorageAreaService</text><ellipse cx="680.3813" cy="49" fill="#E2E2F0" rx="12" ry="12" style="stroke:#181818;stroke-width:0.5;"/><polygon fill="#181818" points="676.3813,37,682.3813,32,680.3813,37,682.3813,42,676.3813,37" style="stroke:#181818;stroke-width:1;"/></g><g class="participant participant-tail" data-participant="Service"><text fill="#000000" font-family="sans-serif" font-size="14" lengthAdjust="spacing" textLength="129.6162" x="612.5732" y="375.5078">StorageAreaService</text><ellipse cx="680.3813" cy="394.4609" fill="#E2E2F0" rx="12" ry="12" style="stroke:#181818;stroke-width:0.5;"/><polygon fill="#181818" points="676.3813,382.4609,682.3813,377.4609,680.3813,382.4609,682.3813,387.4609,676.3813,382.4609" style="stroke:#181818;stroke-width:1;"/></g><g class="participant participant-head" data-participant="Repo"><text fill="#000000" font-family="sans-serif" font-size="14" lengthAdjust="spacing" textLength="154.4102" x="913.0562" y="78.5352">StorageAreaRepository</text><ellipse cx="993.2612" cy="49" fill="#E2E2F0" rx="12" ry="12" style="stroke:#181818;stroke-width:0.5;"/><line style="stroke:#181818;stroke-width:0.5;" x1="981.2612" x2="1005.2612" y1="63" y2="63"/></g><g class="participant participant-tail" data-participant="Repo"><text fill="#000000" font-family="sans-serif" font-size="14" lengthAdjust="spacing" textLength="154.4102" x="913.0562" y="375.5078">StorageAreaRepository</text><ellipse cx="993.2612" cy="394.4609" fill="#E2E2F0" rx="12" ry="12" style="stroke:#181818;stroke-width:0.5;"/><line style="stroke:#181818;stroke-width:0.5;" x1="981.2612" x2="1005.2612" y1="408.4609" y2="408.4609"/></g><g><title>API Controller</title><rect fill="#FFFFFF" height="188.8633" style="stroke:#181818;stroke-width:1;" width="10" x="404.6055" y="156.1094"/></g><g><title>StorageAreaService</title><rect fill="#FFFFFF" height="130.2422" style="stroke:#181818;stroke-width:1;" width="10" x="675.3813" y="185.4199"/></g><g><title>StorageAreaRepository</title><rect fill="#FFFFFF" height="29.3105" style="stroke:#181818;stroke-width:1;" width="10" x="988.2612" y="214.7305"/></g><rect fill="#EEEEEE" height="3" style="stroke:#EEEEEE;stroke-width:1;" width="1078.4663" x="0" y="112.1436"/><line style="stroke:#000000;stroke-width:1;" x1="0" x2="1078.4663" y1="112.1436" y2="112.1436"/><line style="stroke:#000000;stroke-width:1;" x1="0" x2="1078.4663" y1="115.1436" y2="115.1436"/><rect fill="#EEEEEE" height="23.3105" style="stroke:#000000;stroke-width:2;" width="173.6182" x="452.4241" y="101.4883"/><text fill="#000000" font-family="sans-serif" font-size="13" font-weight="bold" lengthAdjust="spacing" textLength="155.3335" x="458.4241" y="118.0566">Get Distances to Docks</text><g class="message" data-participant-1="Officer" data-participant-2="Controller"><polygon fill="#181818" points="392.6055,152.1094,402.6055,156.1094,392.6055,160.1094,396.6055,156.1094" style="stroke:#181818;stroke-width:1;"/><line style="stroke:#181818;stroke-width:1;" x1="80.6387" x2="398.6055" y1="156.1094" y2="156.1094"/><text fill="#000000" font-family="sans-serif" font-size="13" lengthAdjust="spacing" textLength="304.9668" x="87.6387" y="151.3672">GET /api/storageareas/distances?name=x&amp;id=y</text></g><g class="message" data-participant-1="Controller" data-participant-2="Service"><polygon fill="#181818" points="663.3813,181.4199,673.3813,185.4199,663.3813,189.4199,667.3813,185.4199" style="stroke:#181818;stroke-width:1;"/><line style="stroke:#181818;stroke-width:1;" x1="414.6055" x2="669.3813" y1="185.4199" y2="185.4199"/><text fill="#000000" font-family="sans-serif" font-size="13" lengthAdjust="spacing" textLength="241.7759" x="421.6055" y="180.6777">GetDistancesToDockAsync(name?, id?)</text></g><g class="message" data-participant-1="Service" data-participant-2="Repo"><polygon fill="#181818" points="976.2612,210.7305,986.2612,214.7305,976.2612,218.7305,980.2612,214.7305" style="stroke:#181818;stroke-width:1;"/><line style="stroke:#181818;stroke-width:1;" x1="685.3813" x2="982.2612" y1="214.7305" y2="214.7305"/><text fill="#000000" font-family="sans-serif" font-size="13" lengthAdjust="spacing" textLength="283.8799" x="692.3813" y="209.9883">GetByNameAsync(name) OR GetByIdAsync(id)</text></g><g class="message" data-participant-1="Repo" data-participant-2="Service"><polygon fill="#181818" points="696.3813,240.041,686.3813,244.041,696.3813,248.041,692.3813,244.041" style="stroke:#181818;stroke-width:1;"/><line style="stroke:#181818;stroke-width:1;stroke-dasharray:2,2;" x1="690.3813" x2="992.2612" y1="244.041" y2="244.041"/><text fill="#000000" font-family="sans-serif" font-size="13" lengthAdjust="spacing" textLength="76.4067" x="702.3813" y="239.2988">StorageArea</text></g><g class="message" data-participant-1="Service" data-participant-2="Service"><line style="stroke:#181818;stroke-width:1;" x1="685.3813" x2="727.3813" y1="273.3516" y2="273.3516"/><line style="stroke:#181818;stroke-width:1;" x1="727.3813" x2="727.3813" y1="273.3516" y2="286.3516"/><line style="stroke:#181818;stroke-width:1;" x1="686.3813" x2="727.3813" y1="286.3516" y2="286.3516"/><polygon fill="#181818" points="696.3813,282.3516,686.3813,286.3516,696.3813,290.3516,692.3813,286.3516" style="stroke:#181818;stroke-width:1;"/><text fill="#000000" font-family="sans-serif" font-size="13" lengthAdjust="spacing" textLength="248.0854" x="692.3813" y="268.6094">Extract Distances (DockCode, Distance)</text></g><g class="message" data-participant-1="Service" data-participant-2="Controller"><polygon fill="#181818" points="425.6055,311.6621,415.6055,315.6621,425.6055,319.6621,421.6055,315.6621" style="stroke:#181818;stroke-width:1;"/><line style="stroke:#181818;stroke-width:1;stroke-dasharray:2,2;" x1="419.6055" x2="679.3813" y1="315.6621" y2="315.6621"/><text fill="#000000" font-family="sans-serif" font-size="13" lengthAdjust="spacing" textLength="227.9507" x="431.6055" y="310.9199">List&lt;StorageAreaDockDistanceDto&gt;</text></g><g class="message" data-participant-1="Controller" data-participant-2="Officer"><polygon fill="#181818" points="91.6387,340.9727,81.6387,344.9727,91.6387,348.9727,87.6387,344.9727" style="stroke:#181818;stroke-width:1;"/><line style="stroke:#181818;stroke-width:1;stroke-dasharray:2,2;" x1="85.6387" x2="408.6055" y1="344.9727" y2="344.9727"/><text fill="#000000" font-family="sans-serif" font-size="13" lengthAdjust="spacing" textLength="251.2974" x="97.6387" y="340.2305">200 OK (StorageAreaDockDistanceDto*)</text></g><!--SRC=[TP7HRi8m34NVynLM7wPs0XNj4QsW3X12cmO2VY1BmXQDDIWnYFxzahQXPjBUxEZUusk72pGMaesn2EKPlupLMCFwSD12sGIuYpNxCETASbj3KcvMC3CLMdCyTgA-PQ8j8TbvClzKfLLyf-p5GnffLpDLOHX5PLjrCaxxlcwKeMMiA62f4ERQ8Q-4Se06vaPyEoWAreM3uOH4W34i5tl8-KddhgLpJtUvZ8nfnNzKSNtGigWP5wWl71LTWi0ykeiSk0flGVOcn2XTNOaqyAO3q7AQzRouAOj-ZmexjPoN-jsRUdi6wstxlfBjgvO4rXoZSG_l4f7pCQdkvNHmxrXSqNeTkMWQ5faPgGQtnuoO_nxtpMkUoTpWZhuvcWdD4Mz03-fvyT_6y3GQmVeLqlzvZna5zg1V]--></g></svg>