<svg xmlns="http://www.w3.org/2000/svg" xmlns:xlink="http://www.w3.org/1999/xlink" contentStyleType="text/css" data-diagram-type="SEQUENCE" height="548px" preserveAspectRatio="none" style="width:999px;height:548px;background:#FFFFFF;" version="1.1" viewBox="0 0 999 548" width="999px" zoomAndPan="magnify"><defs/><g><g><title>API Controller</title><rect fill="#FFFFFF" height="293.1055" style="stroke:#181818;stroke-width:1;" width="10" x="293.9956" y="156.1094"/></g><g><title>StorageAreaService</title><rect fill="#FFFFFF" height="234.4844" style="stroke:#181818;stroke-width:1;" width="10" x="430.436" y="185.4199"/></g><g><title>StorageAreaRepository</title><rect fill="#FFFFFF" height="29.3105" style="stroke:#181818;stroke-width:1;" width="10" x="661.4292" y="214.7305"/></g><g><title>StorageAreaRepository</title><rect fill="#FFFFFF" height="29.3105" style="stroke:#181818;stroke-width:1;" width="10" x="661.4292" y="331.9727"/></g><g><title>StorageAreaFactory</title><rect fill="#FFFFFF" height="29.3105" style="stroke:#181818;stroke-width:1;" width="10" x="820.4199" y="273.3516"/></g><g><title>Port Authority Officer</title><rect fill="#000000" fill-opacity="0.00000" height="385.7266" width="8" x="76.6387" y="81.4883"/><line style="stroke:#181818;stroke-width:0.5;stroke-dasharray:5,5;" x1="80" x2="80" y1="81.4883" y2="467.2148"/></g><g><title>API Controller</title><rect fill="#000000" fill-opacity="0.00000" height="385.7266" width="8" x="294.9956" y="81.4883"/><line style="stroke:#181818;stroke-width:0.5;stroke-dasharray:5,5;" x1="298.9849" x2="298.9849" y1="81.4883" y2="467.2148"/></g><g><title>StorageAreaService</title><rect fill="#000000" fill-opacity="0.00000" height="385.7266" width="8" x="431.436" y="81.4883"/><line style="stroke:#181818;stroke-width:0.5;stroke-dasharray:5,5;" x1="434.6279" x2="434.6279" y1="81.4883" y2="467.2148"/></g><g><title>StorageAreaRepository</title><rect fill="#000000" fill-opacity="0.00000" height="385.7266" width="8" x="662.4292" y="81.4883"/><line style="stroke:#181818;stroke-width:0.5;stroke-dasharray:5,5;" x1="666.2241" x2="666.2241" y1="81.4883" y2="467.2148"/></g><g><title>StorageAreaFactory</title><rect fill="#000000" fill-opacity="0.00000" height="385.7266" width="8" x="821.4199" y="81.4883"/><line style="stroke:#181818;stroke-width:0.5;stroke-dasharray:5,5;" x1="824.6343" x2="824.6343" y1="81.4883" y2="467.2148"/></g><g><title>Audit Log</title><rect fill="#000000" fill-opacity="0.00000" height="385.7266" width="8" x="942.0386" y="81.4883"/><line style="stroke:#181818;stroke-width:0.5;stroke-dasharray:5,5;" x1="945.2056" x2="945.2056" y1="81.4883" y2="467.2148"/></g><g class="participant participant-head" data-participant="Officer"><text fill="#000000" font-family="sans-serif" font-size="14" lengthAdjust="spacing" textLength="145.2773" x="5" y="78.5352">Port Authority Officer</text><ellipse cx="80.6387" cy="13.5" fill="#E2E2F0" rx="8" ry="8" style="stroke:#181818;stroke-width:0.5;"/><path d="M80.6387,21.5 L80.6387,48.5 M67.6387,29.5 L93.6387,29.5 M80.6387,48.5 L67.6387,63.5 M80.6387,48.5 L93.6387,63.5" fill="none" style="stroke:#181818;stroke-width:0.5;"/></g><g class="participant participant-tail" data-participant="Officer"><text fill="#000000" font-family="sans-serif" font-size="14" lengthAdjust="spacing" textLength="145.2773" x="5" y="479.75">Port Authority Officer</text><ellipse cx="80.6387" cy="491.2031" fill="#E2E2F0" rx="8" ry="8" style="stroke:#181818;stroke-width:0.5;"/><path d="M80.6387,499.2031 L80.6387,526.2031 M67.6387,507.2031 L93.6387,507.2031 M80.6387,526.2031 L67.6387,541.2031 M80.6387,526.2031 L93.6387,541.2031" fill="none" style="stroke:#181818;stroke-width:0.5;"/></g><g class="participant participant-head" data-participant="Controller"><text fill="#000000" font-family="sans-serif" font-size="14" lengthAdjust="spacing" textLength="94.0215" x="248.9849" y="78.5352">API Controller</text><path d="M278.4956,37 L278.4956,61 M278.4956,49 L295.4956,49" fill="none" style="stroke:#181818;stroke-width:0.5;"/><ellipse cx="307.4956" cy="49" fill="#E2E2F0" rx="12" ry="12" style="stroke:#181818;stroke-width:0.5;"/></g><g class="participant participant-tail" data-participant="Controller"><text fill="#000000" font-family="sans-serif" font-size="14" lengthAdjust="spacing" textLength="94.0215" x="248.9849" y="479.75">API Controller</text><path d="M278.4956,486.7031 L278.4956,510.7031 M278.4956,498.7031 L295.4956,498.7031" fill="none" style="stroke:#181818;stroke-width:0.5;"/><ellipse cx="307.4956" cy="498.7031" fill="#E2E2F0" rx="12" ry="12" style="stroke:#181818;stroke-width:0.5;"/></g><g class="participant participant-head" data-participant="Service"><text fill="#000000" font-family="sans-serif" font-size="14" lengthAdjust="spacing" textLength="129.6162" x="367.6279" y="78.5352">StorageAreaService</text><ellipse cx="435.436" cy="49" fill="#E2E2F0" rx="12" ry="12" style="stroke:#181818;stroke-width:0.5;"/><polygon fill="#181818" points="431.436,37,437.436,32,435.436,37,437.436,42,431.436,37" style="stroke:#181818;stroke-width:1;"/></g><g class="participant participant-tail" data-participant="Service"><text fill="#000000" font-family="sans-serif" font-size="14" lengthAdjust="spacing" textLength="129.6162" x="367.6279" y="479.75">StorageAreaService</text><ellipse cx="435.436" cy="498.7031" fill="#E2E2F0" rx="12" ry="12" style="stroke:#181818;stroke-width:0.5;"/><polygon fill="#181818" points="431.436,486.7031,437.436,481.7031,435.436,486.7031,437.436,491.7031,431.436,486.7031" style="stroke:#181818;stroke-width:1;"/></g><g class="participant participant-head" data-participant="Repo"><text fill="#000000" font-family="sans-serif" font-size="14" lengthAdjust="spacing" textLength="154.4102" x="586.2241" y="78.5352">StorageAreaRepository</text><ellipse cx="666.4292" cy="49" fill="#E2E2F0" rx="12" ry="12" style="stroke:#181818;stroke-width:0.5;"/><line style="stroke:#181818;stroke-width:0.5;" x1="654.4292" x2="678.4292" y1="63" y2="63"/></g><g class="participant participant-tail" data-participant="Repo"><text fill="#000000" font-family="sans-serif" font-size="14" lengthAdjust="spacing" textLength="154.4102" x="586.2241" y="479.75">StorageAreaRepository</text><ellipse cx="666.4292" cy="498.7031" fill="#E2E2F0" rx="12" ry="12" style="stroke:#181818;stroke-width:0.5;"/><line style="stroke:#181818;stroke-width:0.5;" x1="654.4292" x2="678.4292" y1="512.7031" y2="512.7031"/></g><g class="participant participant-head" data-participant="Factory"><text fill="#000000" font-family="sans-serif" font-size="14" lengthAdjust="spacing" textLength="131.5713" x="756.6343" y="78.5352">StorageAreaFactory</text><ellipse cx="825.4199" cy="49" fill="#E2E2F0" rx="12" ry="12" style="stroke:#181818;stroke-width:0.5;"/><polygon fill="#181818" points="821.4199,37,827.4199,32,825.4199,37,827.4199,42,821.4199,37" style="stroke:#181818;stroke-width:1;"/></g><g class="participant participant-tail" data-participant="Factory"><text fill="#000000" font-family="sans-serif" font-size="14" lengthAdjust="spacing" textLength="131.5713" x="756.6343" y="479.75">StorageAreaFactory</text><ellipse cx="825.4199" cy="498.7031" fill="#E2E2F0" rx="12" ry="12" style="stroke:#181818;stroke-width:0.5;"/><polygon fill="#181818" points="821.4199,486.7031,827.4199,481.7031,825.4199,486.7031,827.4199,491.7031,821.4199,486.7031" style="stroke:#181818;stroke-width:1;"/></g><g class="participant participant-head" data-participant="Audit"><rect fill="#E2E2F0" height="30.4883" style="stroke:#181818;stroke-width:0.5;" width="79.666" x="908.2056" y="46"/><rect fill="#E2E2F0" height="30.4883" style="stroke:#181818;stroke-width:0.5;" width="79.666" x="904.2056" y="50"/><text fill="#000000" font-family="sans-serif" font-size="14" lengthAdjust="spacing" textLength="65.666" x="911.2056" y="70.5352">Audit Log</text></g><g class="participant participant-tail" data-participant="Audit"><rect fill="#E2E2F0" height="30.4883" style="stroke:#181818;stroke-width:0.5;" width="79.666" x="908.2056" y="466.2148"/><rect fill="#E2E2F0" height="30.4883" style="stroke:#181818;stroke-width:0.5;" width="79.666" x="904.2056" y="470.2148"/><text fill="#000000" font-family="sans-serif" font-size="14" lengthAdjust="spacing" textLength="65.666" x="911.2056" y="490.75">Audit Log</text></g><g><title>API Controller</title><rect fill="#FFFFFF" height="293.1055" style="stroke:#181818;stroke-width:1;" width="10" x="293.9956" y="156.1094"/></g><g><title>StorageAreaService</title><rect fill="#FFFFFF" height="234.4844" style="stroke:#181818;stroke-width:1;" width="10" x="430.436" y="185.4199"/></g><g><title>StorageAreaRepository</title><rect fill="#FFFFFF" height="29.3105" style="stroke:#181818;stroke-width:1;" width="10" x="661.4292" y="214.7305"/></g><g><title>StorageAreaRepository</title><rect fill="#FFFFFF" height="29.3105" style="stroke:#181818;stroke-width:1;" width="10" x="661.4292" y="331.9727"/></g><g><title>StorageAreaFactory</title><rect fill="#FFFFFF" height="29.3105" style="stroke:#181818;stroke-width:1;" width="10" x="820.4199" y="273.3516"/></g><rect fill="#EEEEEE" height="3" style="stroke:#EEEEEE;stroke-width:1;" width="992.8716" x="0" y="112.1436"/><line style="stroke:#000000;stroke-width:1;" x1="0" x2="992.8716" y1="112.1436" y2="112.1436"/><line style="stroke:#000000;stroke-width:1;" x1="0" x2="992.8716" y1="115.1436" y2="115.1436"/><rect fill="#EEEEEE" height="23.3105" style="stroke:#000000;stroke-width:2;" width="151.6553" x="420.6082" y="101.4883"/><text fill="#000000" font-family="sans-serif" font-size="13" font-weight="bold" lengthAdjust="spacing" textLength="133.3706" x="426.6082" y="118.0566">Create Storage Area</text><g class="message" data-participant-1="Officer" data-participant-2="Controller"><polygon fill="#181818" points="281.9956,152.1094,291.9956,156.1094,281.9956,160.1094,285.9956,156.1094" style="stroke:#181818;stroke-width:1;"/><line style="stroke:#181818;stroke-width:1;" x1="80.6387" x2="287.9956" y1="156.1094" y2="156.1094"/><text fill="#000000" font-family="sans-serif" font-size="13" lengthAdjust="spacing" textLength="183.8408" x="87.6387" y="151.3672">POST /api/storageareas {dto}</text></g><g class="message" data-participant-1="Controller" data-participant-2="Service"><polygon fill="#181818" points="418.436,181.4199,428.436,185.4199,418.436,189.4199,422.436,185.4199" style="stroke:#181818;stroke-width:1;"/><line style="stroke:#181818;stroke-width:1;" x1="303.9956" x2="424.436" y1="185.4199" y2="185.4199"/><text fill="#000000" font-family="sans-serif" font-size="13" lengthAdjust="spacing" textLength="107.4404" x="310.9956" y="180.6777">CreateAsync(dto)</text></g><g class="message" data-participant-1="Service" data-participant-2="Repo"><polygon fill="#181818" points="649.4292,210.7305,659.4292,214.7305,649.4292,218.7305,653.4292,214.7305" style="stroke:#181818;stroke-width:1;"/><line style="stroke:#181818;stroke-width:1;" x1="440.436" x2="655.4292" y1="214.7305" y2="214.7305"/><text fill="#000000" font-family="sans-serif" font-size="13" lengthAdjust="spacing" textLength="178.8071" x="447.436" y="209.9883">GetByNameAsync(dto.Name)</text></g><g class="message" data-participant-1="Repo" data-participant-2="Service"><polygon fill="#181818" points="451.436,240.041,441.436,244.041,451.436,248.041,447.436,244.041" style="stroke:#181818;stroke-width:1;"/><line style="stroke:#181818;stroke-width:1;stroke-dasharray:2,2;" x1="445.436" x2="665.4292" y1="244.041" y2="244.041"/><text fill="#000000" font-family="sans-serif" font-size="13" lengthAdjust="spacing" textLength="196.9932" x="457.436" y="239.2988">StorageArea? (null if not exists)</text></g><g class="message" data-participant-1="Service" data-participant-2="Factory"><polygon fill="#181818" points="808.4199,269.3516,818.4199,273.3516,808.4199,277.3516,812.4199,273.3516" style="stroke:#181818;stroke-width:1;"/><line style="stroke:#181818;stroke-width:1;" x1="440.436" x2="814.4199" y1="273.3516" y2="273.3516"/><text fill="#000000" font-family="sans-serif" font-size="13" lengthAdjust="spacing" textLength="146.7324" x="447.436" y="268.6094">CreateStorageArea(dto)</text></g><g class="message" data-participant-1="Factory" data-participant-2="Service"><polygon fill="#181818" points="451.436,298.6621,441.436,302.6621,451.436,306.6621,447.436,302.6621" style="stroke:#181818;stroke-width:1;"/><line style="stroke:#181818;stroke-width:1;stroke-dasharray:2,2;" x1="445.436" x2="824.4199" y1="302.6621" y2="302.6621"/><text fill="#000000" font-family="sans-serif" font-size="13" lengthAdjust="spacing" textLength="76.4067" x="457.436" y="297.9199">StorageArea</text></g><g class="message" data-participant-1="Service" data-participant-2="Repo"><polygon fill="#181818" points="649.4292,327.9727,659.4292,331.9727,649.4292,335.9727,653.4292,331.9727" style="stroke:#181818;stroke-width:1;"/><line style="stroke:#181818;stroke-width:1;" x1="440.436" x2="655.4292" y1="331.9727" y2="331.9727"/><text fill="#000000" font-family="sans-serif" font-size="13" lengthAdjust="spacing" textLength="146.9355" x="447.436" y="327.2305">AddAsync(storageArea)</text></g><g class="message" data-participant-1="Repo" data-participant-2="Service"><polygon fill="#181818" points="451.436,357.2832,441.436,361.2832,451.436,365.2832,447.436,361.2832" style="stroke:#181818;stroke-width:1;"/><line style="stroke:#181818;stroke-width:1;stroke-dasharray:2,2;" x1="445.436" x2="665.4292" y1="361.2832" y2="361.2832"/><text fill="#000000" font-family="sans-serif" font-size="13" lengthAdjust="spacing" textLength="29.8911" x="457.436" y="356.541">(ack)</text></g><g class="message" data-participant-1="Service" data-participant-2="Audit"><polygon fill="#181818" points="934.0386,386.5938,944.0386,390.5938,934.0386,394.5938,938.0386,390.5938" style="stroke:#181818;stroke-width:1;"/><line style="stroke:#181818;stroke-width:1;" x1="440.436" x2="940.0386" y1="390.5938" y2="390.5938"/><text fill="#000000" font-family="sans-serif" font-size="13" lengthAdjust="spacing" textLength="400.499" x="447.436" y="385.8516">log(CREATE, officerId, storageArea.Name, timestamp, SUCCESS)</text></g><g class="message" data-participant-1="Service" data-participant-2="Controller"><polygon fill="#181818" points="314.9956,415.9043,304.9956,419.9043,314.9956,423.9043,310.9956,419.9043" style="stroke:#181818;stroke-width:1;"/><line style="stroke:#181818;stroke-width:1;stroke-dasharray:2,2;" x1="308.9956" x2="434.436" y1="419.9043" y2="419.9043"/><text fill="#000000" font-family="sans-serif" font-size="13" lengthAdjust="spacing" textLength="98.9917" x="320.9956" y="415.1621">StorageAreaDto</text></g><g class="message" data-participant-1="Controller" data-participant-2="Officer"><polygon fill="#181818" points="91.6387,445.2148,81.6387,449.2148,91.6387,453.2148,87.6387,449.2148" style="stroke:#181818;stroke-width:1;"/><line style="stroke:#181818;stroke-width:1;stroke-dasharray:2,2;" x1="85.6387" x2="297.9956" y1="449.2148" y2="449.2148"/><text fill="#000000" font-family="sans-serif" font-size="13" lengthAdjust="spacing" textLength="189.3569" x="97.6387" y="444.4727">201 Created (StorageAreaDto)</text></g><!--SRC=[ZL9TIyCm57tFhxZqgOFEgO-3AhLE6OWRw_O3OfFDODUCv7POnFzksYPhEgRubWlduvwJItEK2eAbL0X9XUzI2QnXiTsAdAi0g7PlyYQhab5LGv0ivv3A4fKi2WlgHv9tJmWoeqntF56SPbmTZKWBjM_2IsoiVDYA7wGMPgvRP3DUb7kY-GbatmPdt7CKijHcmue9X1UvQo7jH4WSGsh8oC5AGQC5SKniH1ZVUK5W2ij5jeO9FOY9xXZK43HyCPJVnFYAOwFcPVVOHiicDKATRwBhCWyDUTIJNHl4WGsloMr8pnmVwbUwxtbNpUIHsu9Qz7XWvrLr3s5P5GM8BPGIWNyAZNf461-A-FQsqTFQdjhPygvxn_Xr2z_FaIuaJXZhikgU-e-u8Sq__exKtSCK2haBqzKiMSyYaDsdpra4dbrRSGGezbmZtHyYo3PfEikoaITuVYTUqaUK_YRkU_t3C6ntS5EulRwnDJC8Xpg3IBt03m00]--></g></svg>