<svg xmlns="http://www.w3.org/2000/svg" xmlns:xlink="http://www.w3.org/1999/xlink" contentStyleType="text/css" data-diagram-type="CLASS" height="965px" preserveAspectRatio="none" style="width:2636px;height:965px;background:#FFFFFF;" version="1.1" viewBox="0 0 2636 965" width="2636px" zoomAndPan="magnify"><title>Class Diagram (Excerpt) - US2.2.4 Register &amp; Update Storage Areas</title><defs/><g><g class="title" data-source-line="7"><text fill="#000000" font-family="sans-serif" font-size="14" font-weight="bold" lengthAdjust="spacing" textLength="484.1758" x="1069.1721" y="23.5352">Class Diagram (Excerpt) - US2.2.4 Register &amp; Update Storage Areas</text></g><!--cluster Domain :: StorageAreas--><g class="cluster" data-entity="Domain .. StorageAreas" data-source-line="10" data-uid="ent0002" id="cluster_Domain .. StorageAreas"><rect fill="none" height="289" rx="2.5" ry="2.5" style="stroke:#000000;stroke-width:1.5;" width="1231.39" x="1386.97" y="481.4883"/><text fill="#000000" font-family="sans-serif" font-size="14" font-weight="bold" lengthAdjust="spacing" textLength="167.4121" x="1918.9589" y="497.0234">Domain :: StorageAreas</text></g><!--cluster Application DTOs--><g class="cluster" data-entity="Application DTOs" data-source-line="38" data-uid="ent0006" id="cluster_Application DTOs"><rect fill="none" height="413" rx="2.5" ry="2.5" style="stroke:#000000;stroke-width:1.5;" width="730.71" x="1899.81" y="44.4883"/><text fill="#000000" font-family="sans-serif" font-size="14" font-weight="bold" lengthAdjust="spacing" textLength="126.8271" x="2201.7514" y="60.0234">Application DTOs</text></g><!--cluster Application :: Services--><g class="cluster" data-entity="Application .. Services" data-source-line="66" data-uid="ent0010" id="cluster_Application .. Services"><rect fill="none" height="181" rx="2.5" ry="2.5" style="stroke:#000000;stroke-width:1.5;" width="574.27" x="750.7" y="756.4883"/><text fill="#000000" font-family="sans-serif" font-size="14" font-weight="bold" lengthAdjust="spacing" textLength="157.1514" x="959.2593" y="772.0234">Application :: Services</text></g><!--cluster Infrastructure :: Repositories--><g class="cluster" data-entity="Infrastructure .. Repositories" data-source-line="77" data-uid="ent0012" id="cluster_Infrastructure .. Repositories"><rect fill="none" height="165" rx="2.5" ry="2.5" style="stroke:#000000;stroke-width:1.5;" width="787.26" x="1440.94" y="794.4883"/><text fill="#000000" font-family="sans-serif" font-size="14" font-weight="bold" lengthAdjust="spacing" textLength="206.6162" x="1731.2619" y="810.0234">Infrastructure :: Repositories</text></g><!--cluster Interface :: API--><g class="cluster" data-entity="Interface .. API" data-source-line="89" data-uid="ent0016" id="cluster_Interface .. API"><rect fill="none" height="181" rx="2.5" ry="2.5" style="stroke:#000000;stroke-width:1.5;" width="681.7" x="7" y="756.4883"/><text fill="#000000" font-family="sans-serif" font-size="14" font-weight="bold" lengthAdjust="spacing" textLength="103.4482" x="296.1259" y="772.0234">Interface :: API</text></g><!--class StorageArea--><g class="entity" data-entity="StorageArea" data-source-line="11" data-uid="ent0003" id="entity_StorageArea"><rect fill="#F1F1F1" height="237.9922" rx="2.5" ry="2.5" style="stroke:#181818;stroke-width:0.5;" width="379.0146" x="1929.48" y="516.4883"/><ellipse cx="2066.9795" cy="536.7988" fill="#ADD1B2" rx="11" ry="11" style="stroke:#181818;stroke-width:1;"/><path d="M2069.9527,542.4419 Q2069.3716,542.7407 2068.7324,542.8901 Q2068.0933,543.0396 2067.3877,543.0396 Q2064.8809,543.0396 2063.5611,541.3877 Q2062.2412,539.7358 2062.2412,536.6147 Q2062.2412,533.4854 2063.5611,531.8335 Q2064.8809,530.1816 2067.3877,530.1816 Q2068.0933,530.1816 2068.7407,530.3311 Q2069.3882,530.4805 2069.9527,530.7793 L2069.9527,533.502 Q2069.3218,532.9209 2068.7283,532.6511 Q2068.1348,532.3813 2067.5039,532.3813 Q2066.1592,532.3813 2065.4744,533.448 Q2064.7896,534.5146 2064.7896,536.6147 Q2064.7896,538.7065 2065.4744,539.7732 Q2066.1592,540.8398 2067.5039,540.8398 Q2068.1348,540.8398 2068.7283,540.5701 Q2069.3218,540.3003 2069.9527,539.7192 Z " fill="#000000"/><text fill="#000000" font-family="sans-serif" font-size="12" font-style="italic" lengthAdjust="spacing" textLength="99.5156" x="2085.4795" y="533.0898">&#171;AggregateRoot&#187;</text><text fill="#000000" font-family="sans-serif" font-size="14" lengthAdjust="spacing" textLength="82.2842" x="2094.0952" y="549.1563">StorageArea</text><line style="stroke:#181818;stroke-width:0.5;" x1="1930.48" x2="2307.4946" y1="557.1094" y2="557.1094"/><text fill="#000000" font-family="sans-serif" font-size="14" lengthAdjust="spacing" textLength="99.9004" x="1935.48" y="574.6445">-Name : string</text><text fill="#000000" font-family="sans-serif" font-size="14" lengthAdjust="spacing" textLength="138.708" x="1935.48" y="591.1328">-Description : string</text><text fill="#000000" font-family="sans-serif" font-size="14" lengthAdjust="spacing" textLength="169.2305" x="1935.48" y="607.6211">-Type : StorageAreaType</text><text fill="#000000" font-family="sans-serif" font-size="14" lengthAdjust="spacing" textLength="97.9727" x="1935.48" y="624.1094">-MaxBays : int</text><text fill="#000000" font-family="sans-serif" font-size="14" lengthAdjust="spacing" textLength="103.1133" x="1935.48" y="640.5977">-MaxRows : int</text><text fill="#000000" font-family="sans-serif" font-size="14" lengthAdjust="spacing" textLength="101.3018" x="1935.48" y="657.0859">-MaxTiers : int</text><text fill="#000000" font-family="sans-serif" font-size="14" lengthAdjust="spacing" textLength="173.9883" x="1935.48" y="673.5742">-CurrentCapacityTeu : int</text><text fill="#000000" font-family="sans-serif" font-size="14" lengthAdjust="spacing" textLength="367.0146" x="1935.48" y="690.0625">-DistancesToDocks : List&lt;StorageAreaDockDistance&gt;</text><line style="stroke:#181818;stroke-width:1;" x1="1930.48" x2="2307.4946" y1="697.0156" y2="697.0156"/><text fill="#000000" font-family="sans-serif" font-size="14" lengthAdjust="spacing" textLength="225.7842" x="1935.48" y="714.5508">+PlaceContainer(iso,row,bay,tier)</text><text fill="#000000" font-family="sans-serif" font-size="14" lengthAdjust="spacing" textLength="220.4521" x="1935.48" y="731.0391">+RemoveContainer(row,bay,tier)</text><text fill="#000000" font-family="sans-serif" font-size="14" lengthAdjust="spacing" textLength="198.3174" x="1935.48" y="747.5273">+AssignDock(dock, distance)</text></g><!--class StorageAreaDockDistance--><g class="entity" data-entity="StorageAreaDockDistance" data-source-line="26" data-uid="ent0004" id="entity_StorageAreaDockDistance"><rect fill="#F1F1F1" height="89.5977" rx="2.5" ry="2.5" style="stroke:#181818;stroke-width:0.5;" width="207.0205" x="2395.34" y="590.6883"/><ellipse cx="2410.34" cy="610.9988" fill="#ADD1B2" rx="11" ry="11" style="stroke:#181818;stroke-width:1;"/><path d="M2413.3131,616.6419 Q2412.7321,616.9407 2412.0929,617.0901 Q2411.4538,617.2396 2410.7482,617.2396 Q2408.2414,617.2396 2406.9215,615.5877 Q2405.6017,613.9358 2405.6017,610.8147 Q2405.6017,607.6854 2406.9215,606.0335 Q2408.2414,604.3816 2410.7482,604.3816 Q2411.4538,604.3816 2412.1012,604.5311 Q2412.7487,604.6805 2413.3131,604.9793 L2413.3131,607.702 Q2412.6823,607.1209 2412.0888,606.8511 Q2411.4953,606.5813 2410.8644,606.5813 Q2409.5197,606.5813 2408.8349,607.648 Q2408.1501,608.7146 2408.1501,610.8147 Q2408.1501,612.9065 2408.8349,613.9732 Q2409.5197,615.0398 2410.8644,615.0398 Q2411.4953,615.0398 2412.0888,614.7701 Q2412.6823,614.5003 2413.3131,613.9192 Z " fill="#000000"/><text fill="#000000" font-family="sans-serif" font-size="12" font-style="italic" lengthAdjust="spacing" textLength="82.4941" x="2470.6032" y="607.2898">&#171;ValueObject&#187;</text><text fill="#000000" font-family="sans-serif" font-size="14" lengthAdjust="spacing" textLength="175.0205" x="2424.34" y="623.3563">StorageAreaDockDistance</text><line style="stroke:#181818;stroke-width:0.5;" x1="2396.34" x2="2601.3605" y1="631.3094" y2="631.3094"/><text fill="#000000" font-family="sans-serif" font-size="14" lengthAdjust="spacing" textLength="130.293" x="2401.34" y="648.8445">-DockCode : string</text><text fill="#000000" font-family="sans-serif" font-size="14" lengthAdjust="spacing" textLength="132.6582" x="2401.34" y="665.3328">-DistanceKm : float</text><line style="stroke:#181818;stroke-width:0.5;" x1="2396.34" x2="2601.3605" y1="672.2859" y2="672.2859"/></g><!--class StorageAreaFactory--><g class="entity" data-entity="StorageAreaFactory" data-source-line="31" data-uid="ent0005" id="entity_StorageAreaFactory"><rect fill="#F1F1F1" height="80.9766" rx="2.5" ry="2.5" style="stroke:#181818;stroke-width:0.5;" width="449.835" x="1402.97" y="542.9983"/><ellipse cx="1557.8518" cy="558.9983" fill="#ADD1B2" rx="11" ry="11" style="stroke:#181818;stroke-width:1;"/><path d="M1560.825,564.6413 Q1560.2439,564.9402 1559.6048,565.0896 Q1558.9656,565.239 1558.26,565.239 Q1555.7532,565.239 1554.4334,563.5871 Q1553.1136,561.9353 1553.1136,558.8142 Q1553.1136,555.6848 1554.4334,554.0329 Q1555.7532,552.3811 1558.26,552.3811 Q1558.9656,552.3811 1559.6131,552.5305 Q1560.2605,552.6799 1560.825,552.9788 L1560.825,555.7014 Q1560.1941,555.1204 1559.6006,554.8506 Q1559.0071,554.5808 1558.3763,554.5808 Q1557.0315,554.5808 1556.3467,555.6475 Q1555.6619,556.7141 1555.6619,558.8142 Q1555.6619,560.906 1556.3467,561.9726 Q1557.0315,563.0393 1558.3763,563.0393 Q1559.0071,563.0393 1559.6006,562.7695 Q1560.1941,562.4997 1560.825,561.9187 Z " fill="#000000"/><text fill="#000000" font-family="sans-serif" font-size="14" lengthAdjust="spacing" textLength="131.5713" x="1578.3518" y="564.2893">StorageAreaFactory</text><line style="stroke:#181818;stroke-width:0.5;" x1="1403.97" x2="1851.805" y1="574.9983" y2="574.9983"/><line style="stroke:#181818;stroke-width:0.5;" x1="1403.97" x2="1851.805" y1="582.9983" y2="582.9983"/><text fill="#000000" font-family="sans-serif" font-size="14" lengthAdjust="spacing" textLength="437.835" x="1408.97" y="600.5334">+CreateStorageArea(dto: CreatingStorageAreaDto) : StorageArea</text><text fill="#000000" font-family="sans-serif" font-size="14" lengthAdjust="spacing" textLength="410.8535" x="1408.97" y="617.0217">+CreateStorageAreaDto(area: StorageArea) : StorageAreaDto</text></g><!--class CreatingStorageAreaDto--><g class="entity" data-entity="CreatingStorageAreaDto" data-source-line="39" data-uid="ent0007" id="entity_CreatingStorageAreaDto"><rect fill="#F1F1F1" height="163.418" rx="2.5" ry="2.5" style="stroke:#181818;stroke-width:0.5;" width="406.3652" x="1915.81" y="277.7783"/><ellipse cx="2032.6157" cy="293.7783" fill="#ADD1B2" rx="11" ry="11" style="stroke:#181818;stroke-width:1;"/><path d="M2035.5888,299.4213 Q2035.0078,299.7202 2034.3686,299.8696 Q2033.7294,300.019 2033.0239,300.019 Q2030.517,300.019 2029.1972,298.3671 Q2027.8774,296.7153 2027.8774,293.5942 Q2027.8774,290.4648 2029.1972,288.8129 Q2030.517,287.1611 2033.0239,287.1611 Q2033.7294,287.1611 2034.3769,287.3105 Q2035.0244,287.4599 2035.5888,287.7587 L2035.5888,290.4814 Q2034.9579,289.9004 2034.3644,289.6306 Q2033.7709,289.3608 2033.1401,289.3608 Q2031.7954,289.3608 2031.1105,290.4275 Q2030.4257,291.4941 2030.4257,293.5942 Q2030.4257,295.686 2031.1105,296.7526 Q2031.7954,297.8193 2033.1401,297.8193 Q2033.7709,297.8193 2034.3644,297.5495 Q2034.9579,297.2797 2035.5888,296.6987 Z " fill="#000000"/><text fill="#000000" font-family="sans-serif" font-size="14" lengthAdjust="spacing" textLength="164.2539" x="2053.1157" y="299.0693">CreatingStorageAreaDto</text><line style="stroke:#181818;stroke-width:0.5;" x1="1916.81" x2="2321.1752" y1="309.7783" y2="309.7783"/><text fill="#000000" font-family="sans-serif" font-size="14" lengthAdjust="spacing" textLength="102.9287" x="1921.81" y="327.3134">+Name : string</text><text fill="#000000" font-family="sans-serif" font-size="14" lengthAdjust="spacing" textLength="141.7363" x="1921.81" y="343.8017">+Description : string</text><text fill="#000000" font-family="sans-serif" font-size="14" lengthAdjust="spacing" textLength="172.2588" x="1921.81" y="360.29">+Type : StorageAreaType</text><text fill="#000000" font-family="sans-serif" font-size="14" lengthAdjust="spacing" textLength="101.001" x="1921.81" y="376.7783">+MaxBays : int</text><text fill="#000000" font-family="sans-serif" font-size="14" lengthAdjust="spacing" textLength="106.1416" x="1921.81" y="393.2666">+MaxRows : int</text><text fill="#000000" font-family="sans-serif" font-size="14" lengthAdjust="spacing" textLength="104.3301" x="1921.81" y="409.7548">+MaxTiers : int</text><text fill="#000000" font-family="sans-serif" font-size="14" lengthAdjust="spacing" textLength="394.3652" x="1921.81" y="426.2431">+DistancesToDocks : List&lt;StorageAreaDockDistanceDto&gt;</text><line style="stroke:#181818;stroke-width:0.5;" x1="1916.81" x2="2321.1752" y1="433.1962" y2="433.1962"/></g><!--class StorageAreaDto--><g class="entity" data-entity="StorageAreaDto" data-source-line="49" data-uid="ent0008" id="entity_StorageAreaDto"><rect fill="#F1F1F1" height="163.418" rx="2.5" ry="2.5" style="stroke:#181818;stroke-width:0.5;" width="406.3652" x="1915.81" y="79.7783"/><ellipse cx="2061.4394" cy="95.7783" fill="#ADD1B2" rx="11" ry="11" style="stroke:#181818;stroke-width:1;"/><path d="M2064.4125,101.4213 Q2063.8315,101.7202 2063.1923,101.8696 Q2062.5532,102.019 2061.8476,102.019 Q2059.3408,102.019 2058.0209,100.3671 Q2056.7011,98.7153 2056.7011,95.5942 Q2056.7011,92.4648 2058.0209,90.8129 Q2059.3408,89.1611 2061.8476,89.1611 Q2062.5532,89.1611 2063.2006,89.3105 Q2063.8481,89.4599 2064.4125,89.7587 L2064.4125,92.4814 Q2063.7817,91.9004 2063.1882,91.6306 Q2062.5947,91.3608 2061.9638,91.3608 Q2060.6191,91.3608 2059.9343,92.4275 Q2059.2495,93.4941 2059.2495,95.5942 Q2059.2495,97.686 2059.9343,98.7526 Q2060.6191,99.8193 2061.9638,99.8193 Q2062.5947,99.8193 2063.1882,99.5495 Q2063.7817,99.2797 2064.4125,98.6987 Z " fill="#000000"/><text fill="#000000" font-family="sans-serif" font-size="14" lengthAdjust="spacing" textLength="106.6064" x="2081.9394" y="101.0693">StorageAreaDto</text><line style="stroke:#181818;stroke-width:0.5;" x1="1916.81" x2="2321.1752" y1="111.7783" y2="111.7783"/><text fill="#000000" font-family="sans-serif" font-size="14" lengthAdjust="spacing" textLength="68.9268" x="1921.81" y="129.3134">+Id : Guid</text><text fill="#000000" font-family="sans-serif" font-size="14" lengthAdjust="spacing" textLength="102.9287" x="1921.81" y="145.8017">+Name : string</text><text fill="#000000" font-family="sans-serif" font-size="14" lengthAdjust="spacing" textLength="141.7363" x="1921.81" y="162.29">+Description : string</text><text fill="#000000" font-family="sans-serif" font-size="14" lengthAdjust="spacing" textLength="172.2588" x="1921.81" y="178.7783">+Type : StorageAreaType</text><text fill="#000000" font-family="sans-serif" font-size="14" lengthAdjust="spacing" textLength="153.8359" x="1921.81" y="195.2666">+MaxCapacityTeu : int</text><text fill="#000000" font-family="sans-serif" font-size="14" lengthAdjust="spacing" textLength="177.0166" x="1921.81" y="211.7548">+CurrentCapacityTeu : int</text><text fill="#000000" font-family="sans-serif" font-size="14" lengthAdjust="spacing" textLength="394.3652" x="1921.81" y="228.2431">+DistancesToDocks : List&lt;StorageAreaDockDistanceDto&gt;</text><line style="stroke:#181818;stroke-width:0.5;" x1="1916.81" x2="2321.1752" y1="235.1962" y2="235.1962"/></g><!--class StorageAreaDockDistanceDto--><g class="entity" data-entity="StorageAreaDockDistanceDto" data-source-line="59" data-uid="ent0009" id="entity_StorageAreaDockDistanceDto"><rect fill="#F1F1F1" height="80.9766" rx="2.5" ry="2.5" style="stroke:#181818;stroke-width:0.5;" width="231.3428" x="2383.17" y="120.9983"/><ellipse cx="2398.17" cy="136.9983" fill="#ADD1B2" rx="11" ry="11" style="stroke:#181818;stroke-width:1;"/><path d="M2401.1431,142.6413 Q2400.5621,142.9402 2399.9229,143.0896 Q2399.2838,143.239 2398.5782,143.239 Q2396.0714,143.239 2394.7515,141.5871 Q2393.4317,139.9353 2393.4317,136.8142 Q2393.4317,133.6848 2394.7515,132.0329 Q2396.0714,130.3811 2398.5782,130.3811 Q2399.2838,130.3811 2399.9312,130.5305 Q2400.5787,130.6799 2401.1431,130.9788 L2401.1431,133.7014 Q2400.5123,133.1204 2399.9188,132.8506 Q2399.3253,132.5808 2398.6944,132.5808 Q2397.3497,132.5808 2396.6649,133.6475 Q2395.9801,134.7141 2395.9801,136.8142 Q2395.9801,138.906 2396.6649,139.9726 Q2397.3497,141.0393 2398.6944,141.0393 Q2399.3253,141.0393 2399.9188,140.7695 Q2400.5123,140.4997 2401.1431,139.9187 Z " fill="#000000"/><text fill="#000000" font-family="sans-serif" font-size="14" lengthAdjust="spacing" textLength="199.3428" x="2412.17" y="142.2893">StorageAreaDockDistanceDto</text><line style="stroke:#181818;stroke-width:0.5;" x1="2384.17" x2="2613.5128" y1="152.9983" y2="152.9983"/><text fill="#000000" font-family="sans-serif" font-size="14" lengthAdjust="spacing" textLength="133.3213" x="2389.17" y="170.5334">+DockCode : string</text><text fill="#000000" font-family="sans-serif" font-size="14" lengthAdjust="spacing" textLength="135.6865" x="2389.17" y="187.0217">+DistanceKm : float</text><line style="stroke:#181818;stroke-width:0.5;" x1="2384.17" x2="2613.5128" y1="193.9748" y2="193.9748"/></g><!--class StorageAreaService--><g class="entity" data-entity="StorageAreaService" data-source-line="67" data-uid="ent0011" id="entity_StorageAreaService"><rect fill="#F1F1F1" height="130.4414" rx="2.5" ry="2.5" style="stroke:#181818;stroke-width:0.5;" width="542.2773" x="766.7" y="791.2683"/><ellipse cx="968.7806" cy="807.2683" fill="#ADD1B2" rx="11" ry="11" style="stroke:#181818;stroke-width:1;"/><path d="M971.7537,812.9113 Q971.1727,813.2102 970.5335,813.3596 Q969.8943,813.509 969.1888,813.509 Q966.6819,813.509 965.3621,811.8571 Q964.0423,810.2053 964.0423,807.0842 Q964.0423,803.9548 965.3621,802.3029 Q966.6819,800.6511 969.1888,800.6511 Q969.8943,800.6511 970.5418,800.8005 Q971.1893,800.9499 971.7537,801.2488 L971.7537,803.9714 Q971.1229,803.3904 970.5293,803.1206 Q969.9358,802.8508 969.305,802.8508 Q967.9603,802.8508 967.2754,803.9175 Q966.5906,804.9841 966.5906,807.0842 Q966.5906,809.176 967.2754,810.2426 Q967.9603,811.3093 969.305,811.3093 Q969.9358,811.3093 970.5293,811.0395 Q971.1229,810.7697 971.7537,810.1887 Z " fill="#000000"/><text fill="#000000" font-family="sans-serif" font-size="14" lengthAdjust="spacing" textLength="129.6162" x="989.2806" y="812.5593">StorageAreaService</text><line style="stroke:#181818;stroke-width:0.5;" x1="767.7" x2="1307.9773" y1="823.2683" y2="823.2683"/><line style="stroke:#181818;stroke-width:0.5;" x1="767.7" x2="1307.9773" y1="831.2683" y2="831.2683"/><text fill="#000000" font-family="sans-serif" font-size="14" lengthAdjust="spacing" textLength="267.1484" x="772.7" y="848.8034">+GetAllAsync() : List&lt;StorageAreaDto&gt;</text><text fill="#000000" font-family="sans-serif" font-size="14" lengthAdjust="spacing" textLength="348.3115" x="772.7" y="865.2917">+GetByIdAsync(id: StorageAreaId) : StorageAreaDto</text><text fill="#000000" font-family="sans-serif" font-size="14" lengthAdjust="spacing" textLength="343.2803" x="772.7" y="881.78">+GetByNameAsync(name: string) : StorageAreaDto</text><text fill="#000000" font-family="sans-serif" font-size="14" lengthAdjust="spacing" textLength="530.2773" x="772.7" y="898.2683">+GetDistancesToDockAsync(name?, id?) : List&lt;StorageAreaDockDistanceDto&gt;</text><text fill="#000000" font-family="sans-serif" font-size="14" lengthAdjust="spacing" textLength="419.8428" x="772.7" y="914.7566">+CreateAsync(dto: CreatingStorageAreaDto) : StorageAreaDto</text></g><!--class IStorageAreaRepository--><g class="entity" data-entity="IStorageAreaRepository" data-source-line="78" data-uid="ent0013" id="entity_IStorageAreaRepository"><rect fill="#F1F1F1" height="113.9531" rx="2.5" ry="2.5" style="stroke:#181818;stroke-width:0.5;" width="341.8955" x="1456.94" y="829.5083"/><ellipse cx="1544.4161" cy="845.5083" fill="#B4A7E5" rx="11" ry="11" style="stroke:#181818;stroke-width:1;"/><path d="M1540.3438,841.2734 L1540.3438,839.1152 L1547.7232,839.1152 L1547.7232,841.2734 L1545.2579,841.2734 L1545.2579,849.3501 L1547.7232,849.3501 L1547.7232,851.5083 L1540.3438,851.5083 L1540.3438,849.3501 L1542.8091,849.3501 L1542.8091,841.2734 Z " fill="#000000"/><text fill="#000000" font-family="sans-serif" font-size="14" font-style="italic" lengthAdjust="spacing" textLength="158.4434" x="1564.9161" y="850.7993">IStorageAreaRepository</text><line style="stroke:#181818;stroke-width:0.5;" x1="1457.94" x2="1797.8355" y1="861.5083" y2="861.5083"/><line style="stroke:#181818;stroke-width:0.5;" x1="1457.94" x2="1797.8355" y1="869.5083" y2="869.5083"/><text fill="#000000" font-family="sans-serif" font-size="14" lengthAdjust="spacing" textLength="242.8262" x="1462.94" y="887.0434">+GetAllAsync() : List&lt;StorageArea&gt;</text><text fill="#000000" font-family="sans-serif" font-size="14" lengthAdjust="spacing" textLength="329.8955" x="1462.94" y="903.5317">+GetByIdAsync(id: StorageAreaId) : StorageArea?</text><text fill="#000000" font-family="sans-serif" font-size="14" lengthAdjust="spacing" textLength="324.8643" x="1462.94" y="920.02">+GetByNameAsync(name: string) : StorageArea?</text><text fill="#000000" font-family="sans-serif" font-size="14" lengthAdjust="spacing" textLength="207.6211" x="1462.94" y="936.5083">+AddAsync(area: StorageArea)</text></g><!--class StorageAreaRepository--><g class="entity" data-entity="StorageAreaRepository" data-source-line="85" data-uid="ent0014" id="entity_StorageAreaRepository"><rect fill="#F1F1F1" height="48" rx="2.5" ry="2.5" style="stroke:#181818;stroke-width:0.5;" width="186.4102" x="2025.79" y="862.4883"/><ellipse cx="2040.79" cy="878.4883" fill="#ADD1B2" rx="11" ry="11" style="stroke:#181818;stroke-width:1;"/><path d="M2043.7631,884.1313 Q2043.1821,884.4302 2042.5429,884.5796 Q2041.9038,884.729 2041.1982,884.729 Q2038.6914,884.729 2037.3715,883.0771 Q2036.0517,881.4253 2036.0517,878.3042 Q2036.0517,875.1748 2037.3715,873.5229 Q2038.6914,871.8711 2041.1982,871.8711 Q2041.9038,871.8711 2042.5512,872.0205 Q2043.1987,872.1699 2043.7631,872.4688 L2043.7631,875.1914 Q2043.1323,874.6104 2042.5388,874.3406 Q2041.9453,874.0708 2041.3144,874.0708 Q2039.9697,874.0708 2039.2849,875.1375 Q2038.6001,876.2041 2038.6001,878.3042 Q2038.6001,880.396 2039.2849,881.4626 Q2039.9697,882.5293 2041.3144,882.5293 Q2041.9453,882.5293 2042.5388,882.2595 Q2043.1323,881.9897 2043.7631,881.4087 Z " fill="#000000"/><text fill="#000000" font-family="sans-serif" font-size="14" lengthAdjust="spacing" textLength="154.4102" x="2054.79" y="883.7793">StorageAreaRepository</text><line style="stroke:#181818;stroke-width:0.5;" x1="2026.79" x2="2211.2002" y1="894.4883" y2="894.4883"/><line style="stroke:#181818;stroke-width:0.5;" x1="2026.79" x2="2211.2002" y1="902.4883" y2="902.4883"/></g><!--class StorageAreasController--><g class="entity" data-entity="StorageAreasController" data-source-line="90" data-uid="ent0017" id="entity_StorageAreasController"><rect fill="#F1F1F1" height="130.4414" rx="2.5" ry="2.5" style="stroke:#181818;stroke-width:0.5;" width="649.6973" x="23" y="791.2683"/><ellipse cx="264.8076" cy="807.2683" fill="#ADD1B2" rx="11" ry="11" style="stroke:#181818;stroke-width:1;"/><path d="M267.7808,812.9113 Q267.1997,813.2102 266.5605,813.3596 Q265.9214,813.509 265.2158,813.509 Q262.709,813.509 261.3892,811.8571 Q260.0693,810.2053 260.0693,807.0842 Q260.0693,803.9548 261.3892,802.3029 Q262.709,800.6511 265.2158,800.6511 Q265.9214,800.6511 266.5688,800.8005 Q267.2163,800.9499 267.7808,801.2488 L267.7808,803.9714 Q267.1499,803.3904 266.5564,803.1206 Q265.9629,802.8508 265.332,802.8508 Q263.9873,802.8508 263.3025,803.9175 Q262.6177,804.9841 262.6177,807.0842 Q262.6177,809.176 263.3025,810.2426 Q263.9873,811.3093 265.332,811.3093 Q265.9629,811.3093 266.5564,811.0395 Q267.1499,810.7697 267.7808,810.1887 Z " fill="#000000"/><text fill="#000000" font-family="sans-serif" font-size="14" lengthAdjust="spacing" textLength="157.582" x="285.3076" y="812.5593">StorageAreasController</text><line style="stroke:#181818;stroke-width:0.5;" x1="24" x2="671.6973" y1="823.2683" y2="823.2683"/><line style="stroke:#181818;stroke-width:0.5;" x1="24" x2="671.6973" y1="831.2683" y2="831.2683"/><text fill="#000000" font-family="sans-serif" font-size="14" lengthAdjust="spacing" textLength="374.5684" x="29" y="848.8034">+GetAllAsync() : ActionResult&lt;List&lt;StorageAreaDto&gt;&gt;</text><text fill="#000000" font-family="sans-serif" font-size="14" lengthAdjust="spacing" textLength="392.2666" x="29" y="865.2917">+GetByIdAsync(id: Guid) : ActionResult&lt;StorageAreaDto&gt;</text><text fill="#000000" font-family="sans-serif" font-size="14" lengthAdjust="spacing" textLength="450.7002" x="29" y="881.78">+GetByNameAsync(name: string) : ActionResult&lt;StorageAreaDto&gt;</text><text fill="#000000" font-family="sans-serif" font-size="14" lengthAdjust="spacing" textLength="637.6973" x="29" y="898.2683">+GetDistancesToDockAsync(name?, id?) : ActionResult&lt;List&lt;StorageAreaDockDistanceDto&gt;&gt;</text><text fill="#000000" font-family="sans-serif" font-size="14" lengthAdjust="spacing" textLength="527.2627" x="29" y="914.7566">+CreateAsync(dto: CreatingStorageAreaDto) : ActionResult&lt;StorageAreaDto&gt;</text></g><!--reverse link IStorageAreaRepository to StorageAreaRepository--><g class="link" data-entity-1="IStorageAreaRepository" data-entity-2="StorageAreaRepository" data-source-line="85" data-uid="lnk15" id="link_IStorageAreaRepository_StorageAreaRepository"><path d="M1817.27,886.4883 C1893.22,886.4883 1961.72,886.4883 2025.42,886.4883" fill="none" id="IStorageAreaRepository-backto-StorageAreaRepository" style="stroke:#181818;stroke-width:1;stroke-dasharray:7,7;"/><polygon fill="none" points="1799.27,886.4883,1817.27,892.4883,1817.27,880.4883,1799.27,886.4883" style="stroke:#181818;stroke-width:1;"/></g><!--link StorageAreasController to StorageAreaService--><g class="link" data-entity-1="StorageAreasController" data-entity-2="StorageAreaService" data-source-line="100" data-uid="lnk18" id="link_StorageAreasController_StorageAreaService"><path codeLine="100" d="M672.95,856.4883 C704.21,856.4883 729.7,856.4883 760.37,856.4883" fill="none" id="StorageAreasController-to-StorageAreaService" style="stroke:#181818;stroke-width:1;"/><polygon fill="#181818" points="766.37,856.4883,757.37,852.4883,761.37,856.4883,757.37,860.4883,766.37,856.4883" style="stroke:#181818;stroke-width:1;"/><text fill="#000000" font-family="sans-serif" font-size="13" lengthAdjust="spacing" textLength="28.5645" x="705.7" y="853.0566">uses</text></g><!--link StorageAreaService to IStorageAreaRepository--><g class="link" data-entity-1="StorageAreaService" data-entity-2="IStorageAreaRepository" data-source-line="101" data-uid="lnk19" id="link_StorageAreaService_IStorageAreaRepository"><path codeLine="101" d="M1309.2,870.2783 C1359.43,872.8483 1404.5978,875.1533 1450.7678,877.5033" fill="none" id="StorageAreaService-to-IStorageAreaRepository" style="stroke:#181818;stroke-width:1;"/><polygon fill="#181818" points="1456.76,877.8083,1447.975,873.356,1451.7665,877.5541,1447.5683,881.3456,1456.76,877.8083" style="stroke:#181818;stroke-width:1;"/><text fill="#000000" font-family="sans-serif" font-size="13" lengthAdjust="spacing" textLength="28.5645" x="1341.97" y="868.5066">uses</text></g><!--link StorageAreaService to StorageAreaFactory--><g class="link" data-entity-1="StorageAreaService" data-entity-2="StorageAreaFactory" data-source-line="102" data-uid="lnk20" id="link_StorageAreaService_StorageAreaFactory"><path codeLine="102" d="M1180.06,790.9283 C1291.7,739.0983 1438.5778,670.9146 1533.4278,626.8846" fill="none" id="StorageAreaService-to-StorageAreaFactory" style="stroke:#181818;stroke-width:1;"/><polygon fill="#181818" points="1538.87,624.3583,1529.0225,624.5196,1534.3348,626.4635,1532.3909,631.7759,1538.87,624.3583" style="stroke:#181818;stroke-width:1;"/><text fill="#000000" font-family="sans-serif" font-size="13" lengthAdjust="spacing" textLength="28.5645" x="1341.97" y="700.2066">uses</text></g><!--link StorageAreaFactory to StorageArea--><g class="link" data-entity-1="StorageAreaFactory" data-entity-2="StorageArea" data-source-line="103" data-uid="lnk21" id="link_StorageAreaFactory_StorageArea"><path codeLine="103" d="M1853.04,607.3183 C1878.55,610.0283 1898.3935,612.1456 1923.3835,614.7956" fill="none" id="StorageAreaFactory-to-StorageArea" style="stroke:#181818;stroke-width:1;"/><polygon fill="#181818" points="1929.35,615.4283,1920.822,610.5015,1924.3779,614.901,1919.9784,618.4569,1929.35,615.4283" style="stroke:#181818;stroke-width:1;"/></g><!--link StorageAreaFactory to CreatingStorageAreaDto--><g class="link" data-entity-1="StorageAreaFactory" data-entity-2="CreatingStorageAreaDto" data-source-line="104" data-uid="lnk22" id="link_StorageAreaFactory_CreatingStorageAreaDto"><path codeLine="104" d="M1718.32,542.5383 C1779.86,514.3483 1858.2647,478.4362 1933.2847,444.0862" fill="none" id="StorageAreaFactory-to-CreatingStorageAreaDto" style="stroke:#181818;stroke-width:1;"/><polygon fill="#181818" points="1938.74,441.5883,1928.8918,441.6982,1934.1939,443.6698,1932.2223,448.972,1938.74,441.5883" style="stroke:#181818;stroke-width:1;"/></g><!--link StorageAreaFactory to StorageAreaDto--><g class="link" data-entity-1="StorageAreaFactory" data-entity-2="StorageAreaDto" data-source-line="105" data-uid="lnk23" id="link_StorageAreaFactory_StorageAreaDto"><path codeLine="105" d="M1662.19,542.5783 C1732.94,455.6683 1891.81,260.4883 1891.81,260.4883 C1891.81,260.4883 1901.8031,256.1132 1924.6831,246.1032" fill="none" id="StorageAreaFactory-to-StorageAreaDto" style="stroke:#181818;stroke-width:1;"/><polygon fill="#181818" points="1930.18,243.6983,1920.3313,243.641,1925.5992,245.7024,1923.5379,250.9703,1930.18,243.6983" style="stroke:#181818;stroke-width:1;"/></g><!--link StorageArea to StorageAreaDockDistance--><g class="link" data-entity-1="StorageArea" data-entity-2="StorageAreaDockDistance" data-source-line="106" data-uid="lnk24" id="link_StorageArea_StorageAreaDockDistance"><path codeLine="106" d="M2308.92,635.4883 C2338.62,635.4883 2362.33,635.4883 2389.1,635.4883" fill="none" id="StorageArea-to-StorageAreaDockDistance" style="stroke:#181818;stroke-width:1;"/><polygon fill="#181818" points="2395.1,635.4883,2386.1,631.4883,2390.1,635.4883,2386.1,639.4883,2395.1,635.4883" style="stroke:#181818;stroke-width:1;"/></g><!--link StorageAreaDto to StorageAreaDockDistanceDto--><g class="link" data-entity-1="StorageAreaDto" data-entity-2="StorageAreaDockDistanceDto" data-source-line="107" data-uid="lnk25" id="link_StorageAreaDto_StorageAreaDockDistanceDto"><path codeLine="107" d="M2322.47,161.4883 C2343.15,161.4883 2357.62,161.4883 2376.86,161.4883" fill="none" id="StorageAreaDto-to-StorageAreaDockDistanceDto" style="stroke:#181818;stroke-width:1;"/><polygon fill="#181818" points="2382.86,161.4883,2373.86,157.4883,2377.86,161.4883,2373.86,165.4883,2382.86,161.4883" style="stroke:#181818;stroke-width:1;"/></g><!--SRC=[lLPHRzem47xFhx3si842rLJj2J6g5BOAhLihe7jtaoFrQkp8TjfcK__xpX2A4-90AsrvQC7ttVdkk_ikw7icCgheYcGqlgSfp4t1WIY83HKfXq2_0FGTJUGZ4obPKgvT2sS2J941oIGlx1V75dEgTMICOhUvWMainPpz1l8nuB0qn4YYM7fdICBibKoA833CO0PZwqScZAOsIkVBKmmgCrtI9pVpqvFJaqza1YdJ1XHvJswoX1eWSoCLba0Y1LG7mGVo6HyoaIlA1Bca1MBjIL2MIjwLfi5WwxhsV4V-10IVTUgkXGo7KPegIF6ocPHcD2gHzkcJ7tG5P40qrYfIvtm2EbOiizKrcHUMkKe6ziG1VATFvxJGY672LCzdyh7nVC50xHl6kL8Wp9WY0SmK2yZt81Eab8eOz49EP7nlOrpYqT39pfvlOQETQ__bOqYkEOrXB8L1Ta5rc9Oz9HzxjxJe6Soiwq1di98F3jQ7YxHcgR1tTnByqyE9sQIm0Jq7pIrpayNs_QGyXwlRNpXhjUPPu5WcpGqi0tnReNN99JMjTtwbCNufdF0X6UEv0GVKIOmSR8xnCZTZ8xlLSMWBW-WEnVyLXve_OifydtUYM5pfcXYYBECifkinjUQg39ephTJOFFzX-_o7X-O_zCn_w9d_q3V_uMk76-iRjGzNZO1fWX4lSfRy7rByEWuFI_qVi545LvZngolqgsithUveDkrnrswNEQW7XeLv5ta9gAHu0IRYFDA5Y3lT9YwszR_0pujfii6pfDAgQU9HeEDgvsBZBF3JbfP3VhMUxGASzGXBphh7zj3T9fiWnw-ZfdKo5Kj5iOGyDhc2MdTgHcpG33Af6OPakoRXS89Qudk3J9tBNf35gvhrvawTlQbFhbUKb5Vjh-LM-JYLibN6OONorHukAinlQQkJlZr7lgFhgLSBshvxbUGSLTL6SRJ-UJO3dNCpR197A-TsA-v5EQ0kF_N7Hpb2CEs5rTJpHlaSJDWLqmpuUfNfEvQLBsbFl_hzKTDQ6v1SWmuQBDR18wzsfuQVD_iEMqlDmGTffkk8W3NKdjdfML1xNRT0RTI_]--></g></svg>