<svg xmlns="http://www.w3.org/2000/svg" xmlns:xlink="http://www.w3.org/1999/xlink" contentStyleType="text/css" data-diagram-type="SEQUENCE" height="531px" preserveAspectRatio="none" style="width:1078px;height:531px;background:#FFFFFF;" version="1.1" viewBox="0 0 1078 531" width="1078px" zoomAndPan="magnify"><defs/><g><g><title>API Controller</title><rect fill="#FFFFFF" height="276.7949" style="stroke:#181818;stroke-width:1;" width="10" x="321.1084" y="156.1094"/></g><g><title>StorageAreaService</title><rect fill="#FFFFFF" height="218.1738" style="stroke:#181818;stroke-width:1;" width="10" x="481.5303" y="185.4199"/></g><g><title>StorageAreaRepository</title><rect fill="#FFFFFF" height="29.3105" style="stroke:#181818;stroke-width:1;" width="10" x="887.998" y="214.7305"/></g><g><title>StorageAreaRepository</title><rect fill="#FFFFFF" height="29.3105" style="stroke:#181818;stroke-width:1;" width="10" x="887.998" y="315.6621"/></g><g><title>Port Authority Officer</title><rect fill="#000000" fill-opacity="0.00000" height="369.416" width="8" x="76.6387" y="81.4883"/><line style="stroke:#181818;stroke-width:0.5;stroke-dasharray:5,5;" x1="80" x2="80" y1="81.4883" y2="450.9043"/></g><g><title>API Controller</title><rect fill="#000000" fill-opacity="0.00000" height="369.416" width="8" x="322.1084" y="81.4883"/><line style="stroke:#181818;stroke-width:0.5;stroke-dasharray:5,5;" x1="326.0977" x2="326.0977" y1="81.4883" y2="450.9043"/></g><g><title>StorageAreaService</title><rect fill="#000000" fill-opacity="0.00000" height="369.416" width="8" x="482.5303" y="81.4883"/><line style="stroke:#181818;stroke-width:0.5;stroke-dasharray:5,5;" x1="485.7222" x2="485.7222" y1="81.4883" y2="450.9043"/></g><g><title>StorageAreaRepository</title><rect fill="#000000" fill-opacity="0.00000" height="369.416" width="8" x="888.998" y="81.4883"/><line style="stroke:#181818;stroke-width:0.5;stroke-dasharray:5,5;" x1="892.793" x2="892.793" y1="81.4883" y2="450.9043"/></g><g><title>Audit Log</title><rect fill="#000000" fill-opacity="0.00000" height="369.416" width="8" x="1021.0361" y="81.4883"/><line style="stroke:#181818;stroke-width:0.5;stroke-dasharray:5,5;" x1="1024.2031" x2="1024.2031" y1="81.4883" y2="450.9043"/></g><g class="participant participant-head" data-participant="Officer"><text fill="#000000" font-family="sans-serif" font-size="14" lengthAdjust="spacing" textLength="145.2773" x="5" y="78.5352">Port Authority Officer</text><ellipse cx="80.6387" cy="13.5" fill="#E2E2F0" rx="8" ry="8" style="stroke:#181818;stroke-width:0.5;"/><path d="M80.6387,21.5 L80.6387,48.5 M67.6387,29.5 L93.6387,29.5 M80.6387,48.5 L67.6387,63.5 M80.6387,48.5 L93.6387,63.5" fill="none" style="stroke:#181818;stroke-width:0.5;"/></g><g class="participant participant-tail" data-participant="Officer"><text fill="#000000" font-family="sans-serif" font-size="14" lengthAdjust="spacing" textLength="145.2773" x="5" y="463.4395">Port Authority Officer</text><ellipse cx="80.6387" cy="474.8926" fill="#E2E2F0" rx="8" ry="8" style="stroke:#181818;stroke-width:0.5;"/><path d="M80.6387,482.8926 L80.6387,509.8926 M67.6387,490.8926 L93.6387,490.8926 M80.6387,509.8926 L67.6387,524.8926 M80.6387,509.8926 L93.6387,524.8926" fill="none" style="stroke:#181818;stroke-width:0.5;"/></g><g class="participant participant-head" data-participant="Controller"><text fill="#000000" font-family="sans-serif" font-size="14" lengthAdjust="spacing" textLength="94.0215" x="276.0977" y="78.5352">API Controller</text><path d="M305.6084,37 L305.6084,61 M305.6084,49 L322.6084,49" fill="none" style="stroke:#181818;stroke-width:0.5;"/><ellipse cx="334.6084" cy="49" fill="#E2E2F0" rx="12" ry="12" style="stroke:#181818;stroke-width:0.5;"/></g><g class="participant participant-tail" data-participant="Controller"><text fill="#000000" font-family="sans-serif" font-size="14" lengthAdjust="spacing" textLength="94.0215" x="276.0977" y="463.4395">API Controller</text><path d="M305.6084,470.3926 L305.6084,494.3926 M305.6084,482.3926 L322.6084,482.3926" fill="none" style="stroke:#181818;stroke-width:0.5;"/><ellipse cx="334.6084" cy="482.3926" fill="#E2E2F0" rx="12" ry="12" style="stroke:#181818;stroke-width:0.5;"/></g><g class="participant participant-head" data-participant="Service"><text fill="#000000" font-family="sans-serif" font-size="14" lengthAdjust="spacing" textLength="129.6162" x="418.7222" y="78.5352">StorageAreaService</text><ellipse cx="486.5303" cy="49" fill="#E2E2F0" rx="12" ry="12" style="stroke:#181818;stroke-width:0.5;"/><polygon fill="#181818" points="482.5303,37,488.5303,32,486.5303,37,488.5303,42,482.5303,37" style="stroke:#181818;stroke-width:1;"/></g><g class="participant participant-tail" data-participant="Service"><text fill="#000000" font-family="sans-serif" font-size="14" lengthAdjust="spacing" textLength="129.6162" x="418.7222" y="463.4395">StorageAreaService</text><ellipse cx="486.5303" cy="482.3926" fill="#E2E2F0" rx="12" ry="12" style="stroke:#181818;stroke-width:0.5;"/><polygon fill="#181818" points="482.5303,470.3926,488.5303,465.3926,486.5303,470.3926,488.5303,475.3926,482.5303,470.3926" style="stroke:#181818;stroke-width:1;"/></g><g class="participant participant-head" data-participant="Repo"><text fill="#000000" font-family="sans-serif" font-size="14" lengthAdjust="spacing" textLength="154.4102" x="812.793" y="78.5352">StorageAreaRepository</text><ellipse cx="892.998" cy="49" fill="#E2E2F0" rx="12" ry="12" style="stroke:#181818;stroke-width:0.5;"/><line style="stroke:#181818;stroke-width:0.5;" x1="880.998" x2="904.998" y1="63" y2="63"/></g><g class="participant participant-tail" data-participant="Repo"><text fill="#000000" font-family="sans-serif" font-size="14" lengthAdjust="spacing" textLength="154.4102" x="812.793" y="463.4395">StorageAreaRepository</text><ellipse cx="892.998" cy="482.3926" fill="#E2E2F0" rx="12" ry="12" style="stroke:#181818;stroke-width:0.5;"/><line style="stroke:#181818;stroke-width:0.5;" x1="880.998" x2="904.998" y1="496.3926" y2="496.3926"/></g><g class="participant participant-head" data-participant="Audit"><rect fill="#E2E2F0" height="30.4883" style="stroke:#181818;stroke-width:0.5;" width="79.666" x="987.2031" y="46"/><rect fill="#E2E2F0" height="30.4883" style="stroke:#181818;stroke-width:0.5;" width="79.666" x="983.2031" y="50"/><text fill="#000000" font-family="sans-serif" font-size="14" lengthAdjust="spacing" textLength="65.666" x="990.2031" y="70.5352">Audit Log</text></g><g class="participant participant-tail" data-participant="Audit"><rect fill="#E2E2F0" height="30.4883" style="stroke:#181818;stroke-width:0.5;" width="79.666" x="987.2031" y="449.9043"/><rect fill="#E2E2F0" height="30.4883" style="stroke:#181818;stroke-width:0.5;" width="79.666" x="983.2031" y="453.9043"/><text fill="#000000" font-family="sans-serif" font-size="14" lengthAdjust="spacing" textLength="65.666" x="990.2031" y="474.4395">Audit Log</text></g><g><title>API Controller</title><rect fill="#FFFFFF" height="276.7949" style="stroke:#181818;stroke-width:1;" width="10" x="321.1084" y="156.1094"/></g><g><title>StorageAreaService</title><rect fill="#FFFFFF" height="218.1738" style="stroke:#181818;stroke-width:1;" width="10" x="481.5303" y="185.4199"/></g><g><title>StorageAreaRepository</title><rect fill="#FFFFFF" height="29.3105" style="stroke:#181818;stroke-width:1;" width="10" x="887.998" y="214.7305"/></g><g><title>StorageAreaRepository</title><rect fill="#FFFFFF" height="29.3105" style="stroke:#181818;stroke-width:1;" width="10" x="887.998" y="315.6621"/></g><rect fill="#EEEEEE" height="3" style="stroke:#EEEEEE;stroke-width:1;" width="1071.8691" x="0" y="112.1436"/><line style="stroke:#000000;stroke-width:1;" x1="0" x2="1071.8691" y1="112.1436" y2="112.1436"/><line style="stroke:#000000;stroke-width:1;" x1="0" x2="1071.8691" y1="115.1436" y2="115.1436"/><rect fill="#EEEEEE" height="23.3105" style="stroke:#000000;stroke-width:2;" width="155.667" x="458.1011" y="101.4883"/><text fill="#000000" font-family="sans-serif" font-size="13" font-weight="bold" lengthAdjust="spacing" textLength="137.3823" x="464.1011" y="118.0566">Update Storage Area</text><g class="message" data-participant-1="Officer" data-participant-2="Controller"><polygon fill="#181818" points="309.1084,152.1094,319.1084,156.1094,309.1084,160.1094,313.1084,156.1094" style="stroke:#181818;stroke-width:1;"/><line style="stroke:#181818;stroke-width:1;" x1="80.6387" x2="315.1084" y1="156.1094" y2="156.1094"/><text fill="#000000" font-family="sans-serif" font-size="13" lengthAdjust="spacing" textLength="221.4697" x="87.6387" y="151.3672">PATCH /api/storageareas/{id} {dto}</text></g><g class="message" data-participant-1="Controller" data-participant-2="Service"><polygon fill="#181818" points="469.5303,181.4199,479.5303,185.4199,469.5303,189.4199,473.5303,185.4199" style="stroke:#181818;stroke-width:1;"/><line style="stroke:#181818;stroke-width:1;" x1="331.1084" x2="475.5303" y1="185.4199" y2="185.4199"/><text fill="#000000" font-family="sans-serif" font-size="13" lengthAdjust="spacing" textLength="131.4219" x="338.1084" y="180.6777">UpdateAsync(id, dto)</text></g><g class="message" data-participant-1="Service" data-participant-2="Repo"><polygon fill="#181818" points="875.998,210.7305,885.998,214.7305,875.998,218.7305,879.998,214.7305" style="stroke:#181818;stroke-width:1;"/><line style="stroke:#181818;stroke-width:1;" x1="491.5303" x2="881.998" y1="214.7305" y2="214.7305"/><text fill="#000000" font-family="sans-serif" font-size="13" lengthAdjust="spacing" textLength="105.2061" x="498.5303" y="209.9883">GetByIdAsync(id)</text></g><g class="message" data-participant-1="Repo" data-participant-2="Service"><polygon fill="#181818" points="502.5303,240.041,492.5303,244.041,502.5303,248.041,498.5303,244.041" style="stroke:#181818;stroke-width:1;"/><line style="stroke:#181818;stroke-width:1;stroke-dasharray:2,2;" x1="496.5303" x2="891.998" y1="244.041" y2="244.041"/><text fill="#000000" font-family="sans-serif" font-size="13" lengthAdjust="spacing" textLength="121.5894" x="508.5303" y="239.2988">StorageArea or null</text></g><g class="message" data-participant-1="Service" data-participant-2="Service"><line style="stroke:#181818;stroke-width:1;" x1="491.5303" x2="533.5303" y1="273.3516" y2="273.3516"/><line style="stroke:#181818;stroke-width:1;" x1="533.5303" x2="533.5303" y1="273.3516" y2="286.3516"/><line style="stroke:#181818;stroke-width:1;" x1="492.5303" x2="533.5303" y1="286.3516" y2="286.3516"/><polygon fill="#181818" points="502.5303,282.3516,492.5303,286.3516,502.5303,290.3516,498.5303,286.3516" style="stroke:#181818;stroke-width:1;"/><text fill="#000000" font-family="sans-serif" font-size="13" lengthAdjust="spacing" textLength="372.4678" x="498.5303" y="268.6094">Apply updates (name?, type?, capacity?, docks?, distances?)</text></g><g class="message" data-participant-1="Service" data-participant-2="Repo"><polygon fill="#181818" points="875.998,311.6621,885.998,315.6621,875.998,319.6621,879.998,315.6621" style="stroke:#181818;stroke-width:1;"/><line style="stroke:#181818;stroke-width:1;" x1="491.5303" x2="881.998" y1="315.6621" y2="315.6621"/><text fill="#000000" font-family="sans-serif" font-size="13" lengthAdjust="spacing" textLength="95.4434" x="498.5303" y="310.9199">CommitAsync()</text></g><g class="message" data-participant-1="Repo" data-participant-2="Service"><polygon fill="#181818" points="502.5303,340.9727,492.5303,344.9727,502.5303,348.9727,498.5303,344.9727" style="stroke:#181818;stroke-width:1;"/><line style="stroke:#181818;stroke-width:1;stroke-dasharray:2,2;" x1="496.5303" x2="891.998" y1="344.9727" y2="344.9727"/><text fill="#000000" font-family="sans-serif" font-size="13" lengthAdjust="spacing" textLength="29.8911" x="508.5303" y="340.2305">(ack)</text></g><g class="message" data-participant-1="Service" data-participant-2="Audit"><polygon fill="#181818" points="1013.0361,370.2832,1023.0361,374.2832,1013.0361,378.2832,1017.0361,374.2832" style="stroke:#181818;stroke-width:1;"/><line style="stroke:#181818;stroke-width:1;" x1="491.5303" x2="1019.0361" y1="374.2832" y2="374.2832"/><text fill="#000000" font-family="sans-serif" font-size="13" lengthAdjust="spacing" textLength="377.9331" x="498.5303" y="369.541">log(UPDATE, officerId, storageArea.Id, timestamp, SUCCESS)</text></g><g class="message" data-participant-1="Service" data-participant-2="Controller"><polygon fill="#181818" points="342.1084,399.5938,332.1084,403.5938,342.1084,407.5938,338.1084,403.5938" style="stroke:#181818;stroke-width:1;"/><line style="stroke:#181818;stroke-width:1;stroke-dasharray:2,2;" x1="336.1084" x2="485.5303" y1="403.5938" y2="403.5938"/><text fill="#000000" font-family="sans-serif" font-size="13" lengthAdjust="spacing" textLength="98.9917" x="348.1084" y="398.8516">StorageAreaDto</text></g><g class="message" data-participant-1="Controller" data-participant-2="Officer"><polygon fill="#181818" points="91.6387,428.9043,81.6387,432.9043,91.6387,436.9043,87.6387,432.9043" style="stroke:#181818;stroke-width:1;"/><line style="stroke:#181818;stroke-width:1;stroke-dasharray:2,2;" x1="85.6387" x2="325.1084" y1="432.9043" y2="432.9043"/><text fill="#000000" font-family="sans-serif" font-size="13" lengthAdjust="spacing" textLength="158.9199" x="97.6387" y="428.1621">200 OK (StorageAreaDto)</text></g><!--SRC=[ZLBBQiCm4BphAnQV772Qq6F03QuJsj12J9ryW2efgOXj6KiEc91_xyeFB9TIUj8ktfcTsJ5bHbNW9Qeo4DNcIrNIDB0_dIGJbGTK3pNvL7N1QTM05oKxY5LXAfLb_T3O4jQLuAN8JCyYgWHDHNL5adQqhuaeZ5tbZds8Kcc9VTDEsXRfa9KPgGgDcsik3RohS_kzxGW9GpYMd1e1FHLOBWX3qak7-PCZ45QGH8Vu5HQqb0lTGIWYzE8c-HrktAWxeRZoQZaTPmu7ClO-aAxR7kccOBxa0I31R2GO_981W5Zh384lmZmtEpuW7L1hlPsQJrOvnmBChQYpZ70nXRcBHcHKbba3TIjLWr_GNAm3C4rf7qPBoZ0DBBbY5srVgGqjcD3hsM_IOvNdqdJA_w7Rf-mo-rDf5-qACdNsZyacEcm3K5r-Exof7eq_sDx8NA30l0mWFSRnDarTcJy3TywsCShLCQJZPeleuSzPmUDo2VityASK4oyZzXi0]--></g></svg>