<svg xmlns="http://www.w3.org/2000/svg" xmlns:xlink="http://www.w3.org/1999/xlink" contentStyleType="text/css" data-diagram-type="SEQUENCE" height="1436px" preserveAspectRatio="none" style="width:1420px;height:1436px;background:#FFFFFF;" version="1.1" viewBox="0 0 1420 1436" width="1420px" zoomAndPan="magnify"><defs/><g><g><title>API Controller</title><rect fill="#FFFFFF" height="263.7949" style="stroke:#181818;stroke-width:1;" width="10" x="404.6055" y="156.1094"/></g><g><title>API Controller</title><rect fill="#FFFFFF" height="247.4844" style="stroke:#181818;stroke-width:1;" width="10" x="404.6055" y="521.8359"/></g><g><title>API Controller</title><rect fill="#FFFFFF" height="175.8633" style="stroke:#181818;stroke-width:1;" width="10" x="404.6055" y="871.252"/></g><g><title>API Controller</title><rect fill="#FFFFFF" height="159.5527" style="stroke:#181818;stroke-width:1;" width="10" x="404.6055" y="1149.0469"/></g><g><title>StorageAreaService</title><rect fill="#FFFFFF" height="205.1738" style="stroke:#181818;stroke-width:1;" width="10" x="675.3813" y="185.4199"/></g><g><title>StorageAreaService</title><rect fill="#FFFFFF" height="188.8633" style="stroke:#181818;stroke-width:1;" width="10" x="675.3813" y="551.1465"/></g><g><title>StorageAreaService</title><rect fill="#FFFFFF" height="117.2422" style="stroke:#181818;stroke-width:1;" width="10" x="675.3813" y="900.5625"/></g><g><title>StorageAreaService</title><rect fill="#FFFFFF" height="93.9316" style="stroke:#181818;stroke-width:1;" width="10" x="675.3813" y="1178.3574"/></g><g><title>StorageAreaRepository</title><rect fill="#FFFFFF" height="29.3105" style="stroke:#181818;stroke-width:1;" width="10" x="1081.8491" y="214.7305"/></g><g><title>StorageAreaRepository</title><rect fill="#FFFFFF" height="29.3105" style="stroke:#181818;stroke-width:1;" width="10" x="1081.8491" y="331.9727"/></g><g><title>StorageAreaRepository</title><rect fill="#FFFFFF" height="29.3105" style="stroke:#181818;stroke-width:1;" width="10" x="1081.8491" y="580.457"/></g><g><title>StorageAreaRepository</title><rect fill="#FFFFFF" height="29.3105" style="stroke:#181818;stroke-width:1;" width="10" x="1081.8491" y="681.3887"/></g><g><title>StorageAreaRepository</title><rect fill="#FFFFFF" height="29.3105" style="stroke:#181818;stroke-width:1;" width="10" x="1081.8491" y="929.873"/></g><g><title>StorageAreaRepository</title><rect fill="#FFFFFF" height="29.3105" style="stroke:#181818;stroke-width:1;" width="10" x="1081.8491" y="1207.668"/></g><g><title>StorageAreaFactory</title><rect fill="#FFFFFF" height="29.3105" style="stroke:#181818;stroke-width:1;" width="10" x="1240.8398" y="273.3516"/></g><g><title>StorageAreaFactory</title><rect fill="#FFFFFF" height="29.3105" style="stroke:#181818;stroke-width:1;" width="10" x="1240.8398" y="988.4941"/></g><g><title>Port Authority Officer</title><rect fill="#000000" fill-opacity="0.00000" height="1274.4219" width="8" x="76.6387" y="81.4883"/><line style="stroke:#181818;stroke-width:0.5;stroke-dasharray:5,5;" x1="80" x2="80" y1="81.4883" y2="1355.9102"/></g><g><title>API Controller</title><rect fill="#000000" fill-opacity="0.00000" height="1274.4219" width="8" x="405.6055" y="81.4883"/><line style="stroke:#181818;stroke-width:0.5;stroke-dasharray:5,5;" x1="409.5947" x2="409.5947" y1="81.4883" y2="1355.9102"/></g><g><title>StorageAreaService</title><rect fill="#000000" fill-opacity="0.00000" height="1274.4219" width="8" x="676.3813" y="81.4883"/><line style="stroke:#181818;stroke-width:0.5;stroke-dasharray:5,5;" x1="679.5732" x2="679.5732" y1="81.4883" y2="1355.9102"/></g><g><title>StorageAreaRepository</title><rect fill="#000000" fill-opacity="0.00000" height="1274.4219" width="8" x="1082.8491" y="81.4883"/><line style="stroke:#181818;stroke-width:0.5;stroke-dasharray:5,5;" x1="1086.644" x2="1086.644" y1="81.4883" y2="1355.9102"/></g><g><title>StorageAreaFactory</title><rect fill="#000000" fill-opacity="0.00000" height="1274.4219" width="8" x="1241.8398" y="81.4883"/><line style="stroke:#181818;stroke-width:0.5;stroke-dasharray:5,5;" x1="1245.0542" x2="1245.0542" y1="81.4883" y2="1355.9102"/></g><g><title>Audit Log</title><rect fill="#000000" fill-opacity="0.00000" height="1274.4219" width="8" x="1362.4585" y="81.4883"/><line style="stroke:#181818;stroke-width:0.5;stroke-dasharray:5,5;" x1="1365.6255" x2="1365.6255" y1="81.4883" y2="1355.9102"/></g><g class="participant participant-head" data-participant="Officer"><text fill="#000000" font-family="sans-serif" font-size="14" lengthAdjust="spacing" textLength="145.2773" x="5" y="78.5352">Port Authority Officer</text><ellipse cx="80.6387" cy="13.5" fill="#E2E2F0" rx="8" ry="8" style="stroke:#181818;stroke-width:0.5;"/><path d="M80.6387,21.5 L80.6387,48.5 M67.6387,29.5 L93.6387,29.5 M80.6387,48.5 L67.6387,63.5 M80.6387,48.5 L93.6387,63.5" fill="none" style="stroke:#181818;stroke-width:0.5;"/></g><g class="participant participant-tail" data-participant="Officer"><text fill="#000000" font-family="sans-serif" font-size="14" lengthAdjust="spacing" textLength="145.2773" x="5" y="1368.4453">Port Authority Officer</text><ellipse cx="80.6387" cy="1379.8984" fill="#E2E2F0" rx="8" ry="8" style="stroke:#181818;stroke-width:0.5;"/><path d="M80.6387,1387.8984 L80.6387,1414.8984 M67.6387,1395.8984 L93.6387,1395.8984 M80.6387,1414.8984 L67.6387,1429.8984 M80.6387,1414.8984 L93.6387,1429.8984" fill="none" style="stroke:#181818;stroke-width:0.5;"/></g><g class="participant participant-head" data-participant="Controller"><text fill="#000000" font-family="sans-serif" font-size="14" lengthAdjust="spacing" textLength="94.0215" x="359.5947" y="78.5352">API Controller</text><path d="M389.1055,37 L389.1055,61 M389.1055,49 L406.1055,49" fill="none" style="stroke:#181818;stroke-width:0.5;"/><ellipse cx="418.1055" cy="49" fill="#E2E2F0" rx="12" ry="12" style="stroke:#181818;stroke-width:0.5;"/></g><g class="participant participant-tail" data-participant="Controller"><text fill="#000000" font-family="sans-serif" font-size="14" lengthAdjust="spacing" textLength="94.0215" x="359.5947" y="1368.4453">API Controller</text><path d="M389.1055,1375.3984 L389.1055,1399.3984 M389.1055,1387.3984 L406.1055,1387.3984" fill="none" style="stroke:#181818;stroke-width:0.5;"/><ellipse cx="418.1055" cy="1387.3984" fill="#E2E2F0" rx="12" ry="12" style="stroke:#181818;stroke-width:0.5;"/></g><g class="participant participant-head" data-participant="Service"><text fill="#000000" font-family="sans-serif" font-size="14" lengthAdjust="spacing" textLength="129.6162" x="612.5732" y="78.5352">StorageAreaService</text><ellipse cx="680.3813" cy="49" fill="#E2E2F0" rx="12" ry="12" style="stroke:#181818;stroke-width:0.5;"/><polygon fill="#181818" points="676.3813,37,682.3813,32,680.3813,37,682.3813,42,676.3813,37" style="stroke:#181818;stroke-width:1;"/></g><g class="participant participant-tail" data-participant="Service"><text fill="#000000" font-family="sans-serif" font-size="14" lengthAdjust="spacing" textLength="129.6162" x="612.5732" y="1368.4453">StorageAreaService</text><ellipse cx="680.3813" cy="1387.3984" fill="#E2E2F0" rx="12" ry="12" style="stroke:#181818;stroke-width:0.5;"/><polygon fill="#181818" points="676.3813,1375.3984,682.3813,1370.3984,680.3813,1375.3984,682.3813,1380.3984,676.3813,1375.3984" style="stroke:#181818;stroke-width:1;"/></g><g class="participant participant-head" data-participant="Repo"><text fill="#000000" font-family="sans-serif" font-size="14" lengthAdjust="spacing" textLength="154.4102" x="1006.644" y="78.5352">StorageAreaRepository</text><ellipse cx="1086.8491" cy="49" fill="#E2E2F0" rx="12" ry="12" style="stroke:#181818;stroke-width:0.5;"/><line style="stroke:#181818;stroke-width:0.5;" x1="1074.8491" x2="1098.8491" y1="63" y2="63"/></g><g class="participant participant-tail" data-participant="Repo"><text fill="#000000" font-family="sans-serif" font-size="14" lengthAdjust="spacing" textLength="154.4102" x="1006.644" y="1368.4453">StorageAreaRepository</text><ellipse cx="1086.8491" cy="1387.3984" fill="#E2E2F0" rx="12" ry="12" style="stroke:#181818;stroke-width:0.5;"/><line style="stroke:#181818;stroke-width:0.5;" x1="1074.8491" x2="1098.8491" y1="1401.3984" y2="1401.3984"/></g><g class="participant participant-head" data-participant="Factory"><text fill="#000000" font-family="sans-serif" font-size="14" lengthAdjust="spacing" textLength="131.5713" x="1177.0542" y="78.5352">StorageAreaFactory</text><ellipse cx="1245.8398" cy="49" fill="#E2E2F0" rx="12" ry="12" style="stroke:#181818;stroke-width:0.5;"/><polygon fill="#181818" points="1241.8398,37,1247.8398,32,1245.8398,37,1247.8398,42,1241.8398,37" style="stroke:#181818;stroke-width:1;"/></g><g class="participant participant-tail" data-participant="Factory"><text fill="#000000" font-family="sans-serif" font-size="14" lengthAdjust="spacing" textLength="131.5713" x="1177.0542" y="1368.4453">StorageAreaFactory</text><ellipse cx="1245.8398" cy="1387.3984" fill="#E2E2F0" rx="12" ry="12" style="stroke:#181818;stroke-width:0.5;"/><polygon fill="#181818" points="1241.8398,1375.3984,1247.8398,1370.3984,1245.8398,1375.3984,1247.8398,1380.3984,1241.8398,1375.3984" style="stroke:#181818;stroke-width:1;"/></g><g class="participant participant-head" data-participant="Audit"><rect fill="#E2E2F0" height="30.4883" style="stroke:#181818;stroke-width:0.5;" width="79.666" x="1328.6255" y="46"/><rect fill="#E2E2F0" height="30.4883" style="stroke:#181818;stroke-width:0.5;" width="79.666" x="1324.6255" y="50"/><text fill="#000000" font-family="sans-serif" font-size="14" lengthAdjust="spacing" textLength="65.666" x="1331.6255" y="70.5352">Audit Log</text></g><g class="participant participant-tail" data-participant="Audit"><rect fill="#E2E2F0" height="30.4883" style="stroke:#181818;stroke-width:0.5;" width="79.666" x="1328.6255" y="1354.9102"/><rect fill="#E2E2F0" height="30.4883" style="stroke:#181818;stroke-width:0.5;" width="79.666" x="1324.6255" y="1358.9102"/><text fill="#000000" font-family="sans-serif" font-size="14" lengthAdjust="spacing" textLength="65.666" x="1331.6255" y="1379.4453">Audit Log</text></g><g><title>API Controller</title><rect fill="#FFFFFF" height="263.7949" style="stroke:#181818;stroke-width:1;" width="10" x="404.6055" y="156.1094"/></g><g><title>API Controller</title><rect fill="#FFFFFF" height="247.4844" style="stroke:#181818;stroke-width:1;" width="10" x="404.6055" y="521.8359"/></g><g><title>API Controller</title><rect fill="#FFFFFF" height="175.8633" style="stroke:#181818;stroke-width:1;" width="10" x="404.6055" y="871.252"/></g><g><title>API Controller</title><rect fill="#FFFFFF" height="159.5527" style="stroke:#181818;stroke-width:1;" width="10" x="404.6055" y="1149.0469"/></g><g><title>StorageAreaService</title><rect fill="#FFFFFF" height="205.1738" style="stroke:#181818;stroke-width:1;" width="10" x="675.3813" y="185.4199"/></g><g><title>StorageAreaService</title><rect fill="#FFFFFF" height="188.8633" style="stroke:#181818;stroke-width:1;" width="10" x="675.3813" y="551.1465"/></g><g><title>StorageAreaService</title><rect fill="#FFFFFF" height="117.2422" style="stroke:#181818;stroke-width:1;" width="10" x="675.3813" y="900.5625"/></g><g><title>StorageAreaService</title><rect fill="#FFFFFF" height="93.9316" style="stroke:#181818;stroke-width:1;" width="10" x="675.3813" y="1178.3574"/></g><g><title>StorageAreaRepository</title><rect fill="#FFFFFF" height="29.3105" style="stroke:#181818;stroke-width:1;" width="10" x="1081.8491" y="214.7305"/></g><g><title>StorageAreaRepository</title><rect fill="#FFFFFF" height="29.3105" style="stroke:#181818;stroke-width:1;" width="10" x="1081.8491" y="331.9727"/></g><g><title>StorageAreaRepository</title><rect fill="#FFFFFF" height="29.3105" style="stroke:#181818;stroke-width:1;" width="10" x="1081.8491" y="580.457"/></g><g><title>StorageAreaRepository</title><rect fill="#FFFFFF" height="29.3105" style="stroke:#181818;stroke-width:1;" width="10" x="1081.8491" y="681.3887"/></g><g><title>StorageAreaRepository</title><rect fill="#FFFFFF" height="29.3105" style="stroke:#181818;stroke-width:1;" width="10" x="1081.8491" y="929.873"/></g><g><title>StorageAreaRepository</title><rect fill="#FFFFFF" height="29.3105" style="stroke:#181818;stroke-width:1;" width="10" x="1081.8491" y="1207.668"/></g><g><title>StorageAreaFactory</title><rect fill="#FFFFFF" height="29.3105" style="stroke:#181818;stroke-width:1;" width="10" x="1240.8398" y="273.3516"/></g><g><title>StorageAreaFactory</title><rect fill="#FFFFFF" height="29.3105" style="stroke:#181818;stroke-width:1;" width="10" x="1240.8398" y="988.4941"/></g><rect fill="#EEEEEE" height="3" style="stroke:#EEEEEE;stroke-width:1;" width="1413.2915" x="0" y="112.1436"/><line style="stroke:#000000;stroke-width:1;" x1="0" x2="1413.2915" y1="112.1436" y2="112.1436"/><line style="stroke:#000000;stroke-width:1;" x1="0" x2="1413.2915" y1="115.1436" y2="115.1436"/><rect fill="#EEEEEE" height="23.3105" style="stroke:#000000;stroke-width:2;" width="151.6553" x="630.8181" y="101.4883"/><text fill="#000000" font-family="sans-serif" font-size="13" font-weight="bold" lengthAdjust="spacing" textLength="133.3706" x="636.8181" y="118.0566">Create Storage Area</text><g class="message" data-participant-1="Officer" data-participant-2="Controller"><polygon fill="#181818" points="392.6055,152.1094,402.6055,156.1094,392.6055,160.1094,396.6055,156.1094" style="stroke:#181818;stroke-width:1;"/><line style="stroke:#181818;stroke-width:1;" x1="80.6387" x2="398.6055" y1="156.1094" y2="156.1094"/><text fill="#000000" font-family="sans-serif" font-size="13" lengthAdjust="spacing" textLength="183.8408" x="87.6387" y="151.3672">POST /api/storageareas {dto}</text></g><g class="message" data-participant-1="Controller" data-participant-2="Service"><polygon fill="#181818" points="663.3813,181.4199,673.3813,185.4199,663.3813,189.4199,667.3813,185.4199" style="stroke:#181818;stroke-width:1;"/><line style="stroke:#181818;stroke-width:1;" x1="414.6055" x2="669.3813" y1="185.4199" y2="185.4199"/><text fill="#000000" font-family="sans-serif" font-size="13" lengthAdjust="spacing" textLength="107.4404" x="421.6055" y="180.6777">CreateAsync(dto)</text></g><g class="message" data-participant-1="Service" data-participant-2="Repo"><polygon fill="#181818" points="1069.8491,210.7305,1079.8491,214.7305,1069.8491,218.7305,1073.8491,214.7305" style="stroke:#181818;stroke-width:1;"/><line style="stroke:#181818;stroke-width:1;" x1="685.3813" x2="1075.8491" y1="214.7305" y2="214.7305"/><text fill="#000000" font-family="sans-serif" font-size="13" lengthAdjust="spacing" textLength="178.8071" x="692.3813" y="209.9883">GetByNameAsync(dto.Name)</text></g><g class="message" data-participant-1="Repo" data-participant-2="Service"><polygon fill="#181818" points="696.3813,240.041,686.3813,244.041,696.3813,248.041,692.3813,244.041" style="stroke:#181818;stroke-width:1;"/><line style="stroke:#181818;stroke-width:1;stroke-dasharray:2,2;" x1="690.3813" x2="1085.8491" y1="244.041" y2="244.041"/><text fill="#000000" font-family="sans-serif" font-size="13" lengthAdjust="spacing" textLength="196.9932" x="702.3813" y="239.2988">StorageArea? (null if not exists)</text></g><g class="message" data-participant-1="Service" data-participant-2="Factory"><polygon fill="#181818" points="1228.8398,269.3516,1238.8398,273.3516,1228.8398,277.3516,1232.8398,273.3516" style="stroke:#181818;stroke-width:1;"/><line style="stroke:#181818;stroke-width:1;" x1="685.3813" x2="1234.8398" y1="273.3516" y2="273.3516"/><text fill="#000000" font-family="sans-serif" font-size="13" lengthAdjust="spacing" textLength="146.7324" x="692.3813" y="268.6094">CreateStorageArea(dto)</text></g><g class="message" data-participant-1="Factory" data-participant-2="Service"><polygon fill="#181818" points="696.3813,298.6621,686.3813,302.6621,696.3813,306.6621,692.3813,302.6621" style="stroke:#181818;stroke-width:1;"/><line style="stroke:#181818;stroke-width:1;stroke-dasharray:2,2;" x1="690.3813" x2="1244.8398" y1="302.6621" y2="302.6621"/><text fill="#000000" font-family="sans-serif" font-size="13" lengthAdjust="spacing" textLength="76.4067" x="702.3813" y="297.9199">StorageArea</text></g><g class="message" data-participant-1="Service" data-participant-2="Repo"><polygon fill="#181818" points="1069.8491,327.9727,1079.8491,331.9727,1069.8491,335.9727,1073.8491,331.9727" style="stroke:#181818;stroke-width:1;"/><line style="stroke:#181818;stroke-width:1;" x1="685.3813" x2="1075.8491" y1="331.9727" y2="331.9727"/><text fill="#000000" font-family="sans-serif" font-size="13" lengthAdjust="spacing" textLength="146.9355" x="692.3813" y="327.2305">AddAsync(storageArea)</text></g><g class="message" data-participant-1="Repo" data-participant-2="Service"><polygon fill="#181818" points="696.3813,357.2832,686.3813,361.2832,696.3813,365.2832,692.3813,361.2832" style="stroke:#181818;stroke-width:1;"/><line style="stroke:#181818;stroke-width:1;stroke-dasharray:2,2;" x1="690.3813" x2="1085.8491" y1="361.2832" y2="361.2832"/><text fill="#000000" font-family="sans-serif" font-size="13" lengthAdjust="spacing" textLength="29.8911" x="702.3813" y="356.541">(ack)</text></g><g class="message" data-participant-1="Service" data-participant-2="Audit"><polygon fill="#181818" points="1354.4585,386.5938,1364.4585,390.5938,1354.4585,394.5938,1358.4585,390.5938" style="stroke:#181818;stroke-width:1;"/><line style="stroke:#181818;stroke-width:1;" x1="680.3813" x2="1360.4585" y1="390.5938" y2="390.5938"/><text fill="#000000" font-family="sans-serif" font-size="13" lengthAdjust="spacing" textLength="400.499" x="687.3813" y="385.8516">log(CREATE, officerId, storageArea.Name, timestamp, SUCCESS)</text></g><g class="message" data-participant-1="Service" data-participant-2="Controller"><polygon fill="#181818" points="420.6055,415.9043,410.6055,419.9043,420.6055,423.9043,416.6055,419.9043" style="stroke:#181818;stroke-width:1;"/><line style="stroke:#181818;stroke-width:1;stroke-dasharray:2,2;" x1="414.6055" x2="679.3813" y1="419.9043" y2="419.9043"/><text fill="#000000" font-family="sans-serif" font-size="13" lengthAdjust="spacing" textLength="98.9917" x="426.6055" y="415.1621">StorageAreaDto</text></g><g class="message" data-participant-1="Controller" data-participant-2="Officer"><polygon fill="#181818" points="91.6387,445.2148,81.6387,449.2148,91.6387,453.2148,87.6387,449.2148" style="stroke:#181818;stroke-width:1;"/><line style="stroke:#181818;stroke-width:1;stroke-dasharray:2,2;" x1="85.6387" x2="408.6055" y1="449.2148" y2="449.2148"/><text fill="#000000" font-family="sans-serif" font-size="13" lengthAdjust="spacing" textLength="189.3569" x="97.6387" y="444.4727">201 Created (StorageAreaDto)</text></g><rect fill="#EEEEEE" height="3" style="stroke:#EEEEEE;stroke-width:1;" width="1413.2915" x="0" y="477.8701"/><line style="stroke:#000000;stroke-width:1;" x1="0" x2="1413.2915" y1="477.8701" y2="477.8701"/><line style="stroke:#000000;stroke-width:1;" x1="0" x2="1413.2915" y1="480.8701" y2="480.8701"/><rect fill="#EEEEEE" height="23.3105" style="stroke:#000000;stroke-width:2;" width="155.667" x="628.8123" y="467.2148"/><text fill="#000000" font-family="sans-serif" font-size="13" font-weight="bold" lengthAdjust="spacing" textLength="137.3823" x="634.8123" y="483.7832">Update Storage Area</text><g class="message" data-participant-1="Officer" data-participant-2="Controller"><polygon fill="#181818" points="392.6055,517.8359,402.6055,521.8359,392.6055,525.8359,396.6055,521.8359" style="stroke:#181818;stroke-width:1;"/><line style="stroke:#181818;stroke-width:1;" x1="80.6387" x2="398.6055" y1="521.8359" y2="521.8359"/><text fill="#000000" font-family="sans-serif" font-size="13" lengthAdjust="spacing" textLength="221.4697" x="87.6387" y="517.0938">PATCH /api/storageareas/{id} {dto}</text></g><g class="message" data-participant-1="Controller" data-participant-2="Service"><polygon fill="#181818" points="663.3813,547.1465,673.3813,551.1465,663.3813,555.1465,667.3813,551.1465" style="stroke:#181818;stroke-width:1;"/><line style="stroke:#181818;stroke-width:1;" x1="414.6055" x2="669.3813" y1="551.1465" y2="551.1465"/><text fill="#000000" font-family="sans-serif" font-size="13" lengthAdjust="spacing" textLength="131.4219" x="421.6055" y="546.4043">UpdateAsync(id, dto)</text></g><g class="message" data-participant-1="Service" data-participant-2="Repo"><polygon fill="#181818" points="1069.8491,576.457,1079.8491,580.457,1069.8491,584.457,1073.8491,580.457" style="stroke:#181818;stroke-width:1;"/><line style="stroke:#181818;stroke-width:1;" x1="685.3813" x2="1075.8491" y1="580.457" y2="580.457"/><text fill="#000000" font-family="sans-serif" font-size="13" lengthAdjust="spacing" textLength="105.2061" x="692.3813" y="575.7148">GetByIdAsync(id)</text></g><g class="message" data-participant-1="Repo" data-participant-2="Service"><polygon fill="#181818" points="696.3813,605.7676,686.3813,609.7676,696.3813,613.7676,692.3813,609.7676" style="stroke:#181818;stroke-width:1;"/><line style="stroke:#181818;stroke-width:1;stroke-dasharray:2,2;" x1="690.3813" x2="1085.8491" y1="609.7676" y2="609.7676"/><text fill="#000000" font-family="sans-serif" font-size="13" lengthAdjust="spacing" textLength="121.5894" x="702.3813" y="605.0254">StorageArea or null</text></g><g class="message" data-participant-1="Service" data-participant-2="Service"><line style="stroke:#181818;stroke-width:1;" x1="685.3813" x2="727.3813" y1="639.0781" y2="639.0781"/><line style="stroke:#181818;stroke-width:1;" x1="727.3813" x2="727.3813" y1="639.0781" y2="652.0781"/><line style="stroke:#181818;stroke-width:1;" x1="686.3813" x2="727.3813" y1="652.0781" y2="652.0781"/><polygon fill="#181818" points="696.3813,648.0781,686.3813,652.0781,696.3813,656.0781,692.3813,652.0781" style="stroke:#181818;stroke-width:1;"/><text fill="#000000" font-family="sans-serif" font-size="13" lengthAdjust="spacing" textLength="372.4678" x="692.3813" y="634.3359">Apply updates (name?, type?, capacity?, docks?, distances?)</text></g><g class="message" data-participant-1="Service" data-participant-2="Repo"><polygon fill="#181818" points="1069.8491,677.3887,1079.8491,681.3887,1069.8491,685.3887,1073.8491,681.3887" style="stroke:#181818;stroke-width:1;"/><line style="stroke:#181818;stroke-width:1;" x1="685.3813" x2="1075.8491" y1="681.3887" y2="681.3887"/><text fill="#000000" font-family="sans-serif" font-size="13" lengthAdjust="spacing" textLength="95.4434" x="692.3813" y="676.6465">CommitAsync()</text></g><g class="message" data-participant-1="Repo" data-participant-2="Service"><polygon fill="#181818" points="696.3813,706.6992,686.3813,710.6992,696.3813,714.6992,692.3813,710.6992" style="stroke:#181818;stroke-width:1;"/><line style="stroke:#181818;stroke-width:1;stroke-dasharray:2,2;" x1="690.3813" x2="1085.8491" y1="710.6992" y2="710.6992"/><text fill="#000000" font-family="sans-serif" font-size="13" lengthAdjust="spacing" textLength="29.8911" x="702.3813" y="705.957">(ack)</text></g><g class="message" data-participant-1="Service" data-participant-2="Audit"><polygon fill="#181818" points="1354.4585,736.0098,1364.4585,740.0098,1354.4585,744.0098,1358.4585,740.0098" style="stroke:#181818;stroke-width:1;"/><line style="stroke:#181818;stroke-width:1;" x1="680.3813" x2="1360.4585" y1="740.0098" y2="740.0098"/><text fill="#000000" font-family="sans-serif" font-size="13" lengthAdjust="spacing" textLength="377.9331" x="687.3813" y="735.2676">log(UPDATE, officerId, storageArea.Id, timestamp, SUCCESS)</text></g><g class="message" data-participant-1="Service" data-participant-2="Controller"><polygon fill="#181818" points="420.6055,765.3203,410.6055,769.3203,420.6055,773.3203,416.6055,769.3203" style="stroke:#181818;stroke-width:1;"/><line style="stroke:#181818;stroke-width:1;stroke-dasharray:2,2;" x1="414.6055" x2="679.3813" y1="769.3203" y2="769.3203"/><text fill="#000000" font-family="sans-serif" font-size="13" lengthAdjust="spacing" textLength="98.9917" x="426.6055" y="764.5781">StorageAreaDto</text></g><g class="message" data-participant-1="Controller" data-participant-2="Officer"><polygon fill="#181818" points="91.6387,794.6309,81.6387,798.6309,91.6387,802.6309,87.6387,798.6309" style="stroke:#181818;stroke-width:1;"/><line style="stroke:#181818;stroke-width:1;stroke-dasharray:2,2;" x1="85.6387" x2="408.6055" y1="798.6309" y2="798.6309"/><text fill="#000000" font-family="sans-serif" font-size="13" lengthAdjust="spacing" textLength="158.9199" x="97.6387" y="793.8887">200 OK (StorageAreaDto)</text></g><rect fill="#EEEEEE" height="3" style="stroke:#EEEEEE;stroke-width:1;" width="1413.2915" x="0" y="827.2861"/><line style="stroke:#000000;stroke-width:1;" x1="0" x2="1413.2915" y1="827.2861" y2="827.2861"/><line style="stroke:#000000;stroke-width:1;" x1="0" x2="1413.2915" y1="830.2861" y2="830.2861"/><rect fill="#EEEEEE" height="23.3105" style="stroke:#000000;stroke-width:2;" width="160.5801" x="626.3557" y="816.6309"/><text fill="#000000" font-family="sans-serif" font-size="13" font-weight="bold" lengthAdjust="spacing" textLength="142.2954" x="632.3557" y="833.1992">Get All Storage Areas</text><g class="message" data-participant-1="Officer" data-participant-2="Controller"><polygon fill="#181818" points="392.6055,867.252,402.6055,871.252,392.6055,875.252,396.6055,871.252" style="stroke:#181818;stroke-width:1;"/><line style="stroke:#181818;stroke-width:1;" x1="80.6387" x2="398.6055" y1="871.252" y2="871.252"/><text fill="#000000" font-family="sans-serif" font-size="13" lengthAdjust="spacing" textLength="142.397" x="87.6387" y="866.5098">GET /api/storageareas</text></g><g class="message" data-participant-1="Controller" data-participant-2="Service"><polygon fill="#181818" points="663.3813,896.5625,673.3813,900.5625,663.3813,904.5625,667.3813,900.5625" style="stroke:#181818;stroke-width:1;"/><line style="stroke:#181818;stroke-width:1;" x1="414.6055" x2="669.3813" y1="900.5625" y2="900.5625"/><text fill="#000000" font-family="sans-serif" font-size="13" lengthAdjust="spacing" textLength="83.5542" x="421.6055" y="895.8203">GetAllAsync()</text></g><g class="message" data-participant-1="Service" data-participant-2="Repo"><polygon fill="#181818" points="1069.8491,925.873,1079.8491,929.873,1069.8491,933.873,1073.8491,929.873" style="stroke:#181818;stroke-width:1;"/><line style="stroke:#181818;stroke-width:1;" x1="685.3813" x2="1075.8491" y1="929.873" y2="929.873"/><text fill="#000000" font-family="sans-serif" font-size="13" lengthAdjust="spacing" textLength="83.5542" x="692.3813" y="925.1309">GetAllAsync()</text></g><g class="message" data-participant-1="Repo" data-participant-2="Service"><polygon fill="#181818" points="696.3813,955.1836,686.3813,959.1836,696.3813,963.1836,692.3813,959.1836" style="stroke:#181818;stroke-width:1;"/><line style="stroke:#181818;stroke-width:1;stroke-dasharray:2,2;" x1="690.3813" x2="1085.8491" y1="959.1836" y2="959.1836"/><text fill="#000000" font-family="sans-serif" font-size="13" lengthAdjust="spacing" textLength="119.2534" x="702.3813" y="954.4414">List&lt;StorageArea&gt;</text></g><g class="message" data-participant-1="Service" data-participant-2="Factory"><polygon fill="#181818" points="1228.8398,984.4941,1238.8398,988.4941,1228.8398,992.4941,1232.8398,988.4941" style="stroke:#181818;stroke-width:1;"/><line style="stroke:#181818;stroke-width:1;" x1="685.3813" x2="1234.8398" y1="988.4941" y2="988.4941"/><text fill="#000000" font-family="sans-serif" font-size="13" lengthAdjust="spacing" textLength="181.4731" x="692.3813" y="983.752">CreateStorageAreaDto(area*)</text></g><g class="message" data-participant-1="Factory" data-participant-2="Service"><polygon fill="#181818" points="691.3813,1013.8047,681.3813,1017.8047,691.3813,1021.8047,687.3813,1017.8047" style="stroke:#181818;stroke-width:1;"/><line style="stroke:#181818;stroke-width:1;stroke-dasharray:2,2;" x1="685.3813" x2="1244.8398" y1="1017.8047" y2="1017.8047"/><text fill="#000000" font-family="sans-serif" font-size="13" lengthAdjust="spacing" textLength="105.2568" x="697.3813" y="1013.0625">StorageAreaDto*</text></g><g class="message" data-participant-1="Service" data-participant-2="Controller"><polygon fill="#181818" points="420.6055,1043.1152,410.6055,1047.1152,420.6055,1051.1152,416.6055,1047.1152" style="stroke:#181818;stroke-width:1;"/><line style="stroke:#181818;stroke-width:1;stroke-dasharray:2,2;" x1="414.6055" x2="679.3813" y1="1047.1152" y2="1047.1152"/><text fill="#000000" font-family="sans-serif" font-size="13" lengthAdjust="spacing" textLength="141.8384" x="426.6055" y="1042.373">List&lt;StorageAreaDto&gt;</text></g><g class="message" data-participant-1="Controller" data-participant-2="Officer"><polygon fill="#181818" points="91.6387,1072.4258,81.6387,1076.4258,91.6387,1080.4258,87.6387,1076.4258" style="stroke:#181818;stroke-width:1;"/><line style="stroke:#181818;stroke-width:1;stroke-dasharray:2,2;" x1="85.6387" x2="408.6055" y1="1076.4258" y2="1076.4258"/><text fill="#000000" font-family="sans-serif" font-size="13" lengthAdjust="spacing" textLength="165.1851" x="97.6387" y="1071.6836">200 OK (StorageAreaDto*)</text></g><rect fill="#EEEEEE" height="3" style="stroke:#EEEEEE;stroke-width:1;" width="1413.2915" x="0" y="1105.0811"/><line style="stroke:#000000;stroke-width:1;" x1="0" x2="1413.2915" y1="1105.0811" y2="1105.0811"/><line style="stroke:#000000;stroke-width:1;" x1="0" x2="1413.2915" y1="1108.0811" y2="1108.0811"/><rect fill="#EEEEEE" height="23.3105" style="stroke:#000000;stroke-width:2;" width="173.6182" x="619.8367" y="1094.4258"/><text fill="#000000" font-family="sans-serif" font-size="13" font-weight="bold" lengthAdjust="spacing" textLength="155.3335" x="625.8367" y="1110.9941">Get Distances to Docks</text><g class="message" data-participant-1="Officer" data-participant-2="Controller"><polygon fill="#181818" points="392.6055,1145.0469,402.6055,1149.0469,392.6055,1153.0469,396.6055,1149.0469" style="stroke:#181818;stroke-width:1;"/><line style="stroke:#181818;stroke-width:1;" x1="80.6387" x2="398.6055" y1="1149.0469" y2="1149.0469"/><text fill="#000000" font-family="sans-serif" font-size="13" lengthAdjust="spacing" textLength="304.9668" x="87.6387" y="1144.3047">GET /api/storageareas/distances?name=x&amp;id=y</text></g><g class="message" data-participant-1="Controller" data-participant-2="Service"><polygon fill="#181818" points="663.3813,1174.3574,673.3813,1178.3574,663.3813,1182.3574,667.3813,1178.3574" style="stroke:#181818;stroke-width:1;"/><line style="stroke:#181818;stroke-width:1;" x1="414.6055" x2="669.3813" y1="1178.3574" y2="1178.3574"/><text fill="#000000" font-family="sans-serif" font-size="13" lengthAdjust="spacing" textLength="241.7759" x="421.6055" y="1173.6152">GetDistancesToDockAsync(name?, id?)</text></g><g class="message" data-participant-1="Service" data-participant-2="Repo"><polygon fill="#181818" points="1069.8491,1203.668,1079.8491,1207.668,1069.8491,1211.668,1073.8491,1207.668" style="stroke:#181818;stroke-width:1;"/><line style="stroke:#181818;stroke-width:1;" x1="685.3813" x2="1075.8491" y1="1207.668" y2="1207.668"/><text fill="#000000" font-family="sans-serif" font-size="13" lengthAdjust="spacing" textLength="283.8799" x="692.3813" y="1202.9258">GetByNameAsync(name) OR GetByIdAsync(id)</text></g><g class="message" data-participant-1="Repo" data-participant-2="Service"><polygon fill="#181818" points="696.3813,1232.9785,686.3813,1236.9785,696.3813,1240.9785,692.3813,1236.9785" style="stroke:#181818;stroke-width:1;"/><line style="stroke:#181818;stroke-width:1;stroke-dasharray:2,2;" x1="690.3813" x2="1085.8491" y1="1236.9785" y2="1236.9785"/><text fill="#000000" font-family="sans-serif" font-size="13" lengthAdjust="spacing" textLength="76.4067" x="702.3813" y="1232.2363">StorageArea</text></g><g class="message" data-participant-1="Service" data-participant-2="Service"><line style="stroke:#181818;stroke-width:1;" x1="685.3813" x2="727.3813" y1="1271.2891" y2="1271.2891"/><line style="stroke:#181818;stroke-width:1;" x1="727.3813" x2="727.3813" y1="1271.2891" y2="1284.2891"/><line style="stroke:#181818;stroke-width:1;" x1="680.3813" x2="727.3813" y1="1284.2891" y2="1284.2891"/><polygon fill="#181818" points="690.3813,1280.2891,680.3813,1284.2891,690.3813,1288.2891,686.3813,1284.2891" style="stroke:#181818;stroke-width:1;"/><text fill="#000000" font-family="sans-serif" font-size="13" lengthAdjust="spacing" textLength="248.0854" x="692.3813" y="1266.5469">Extract Distances (DockCode, Distance)</text></g><g class="message" data-participant-1="Service" data-participant-2="Controller"><polygon fill="#181818" points="420.6055,1304.5996,410.6055,1308.5996,420.6055,1312.5996,416.6055,1308.5996" style="stroke:#181818;stroke-width:1;"/><line style="stroke:#181818;stroke-width:1;stroke-dasharray:2,2;" x1="414.6055" x2="679.3813" y1="1308.5996" y2="1308.5996"/><text fill="#000000" font-family="sans-serif" font-size="13" lengthAdjust="spacing" textLength="227.9507" x="426.6055" y="1303.8574">List&lt;StorageAreaDockDistanceDto&gt;</text></g><g class="message" data-participant-1="Controller" data-participant-2="Officer"><polygon fill="#181818" points="91.6387,1333.9102,81.6387,1337.9102,91.6387,1341.9102,87.6387,1337.9102" style="stroke:#181818;stroke-width:1;"/><line style="stroke:#181818;stroke-width:1;stroke-dasharray:2,2;" x1="85.6387" x2="408.6055" y1="1337.9102" y2="1337.9102"/><text fill="#000000" font-family="sans-serif" font-size="13" lengthAdjust="spacing" textLength="251.2974" x="97.6387" y="1333.168">200 OK (StorageAreaDockDistanceDto*)</text></g><!--SRC=[nLN1Zjem4BtdAqOSgWInPTiZQa1fe5lKLK44Fi2D0xKsn55iLaIh_VUEavWODg0DYzGJDfhtPjxCyuI4acVGcVDCWhUJVtd6P0wpzPg5KTO18lJP-iDt2ILP3XrlFWMV9pBZSLm5rLShB8_G2P2PR28lYqWGPSz8KeHMPojAf4fbXYsYb0k6zxo8LDT6kXyaF0HLPup3xA5aF15OuOuo2OzyKuGKDyjoNV0HB2Eeg41nWUjQbKIu6nf2O03pMR24FabPNvG8WW01BrJoLmlpicV5PcWtqCXLAKMYCgydyYIq4UpKODqDImSZJkb6q4Cal-U_oRR6VLOt0rmqg8Y-Eqfdj6e4ThABOs1hIBY4QC-458v5esCICttLqKFP1jj9yRht6d6s2ZEV1ZKezYWjjOeQ-WwvDWcVBaig_J20c6ziVp7nbfCUy7BeKze38rtHuXv8jes49Dkq1y7AzoT1S9H0J-sGujGvXlQnv2RqZ5kGGBjm05_llrIzfs0VKpc5ZrSfRULZR-d_V6la_WkZhrUukSnUJefX-zevUaerifsJ0VUKilB5GTT8BqtZ77P5gG8V0OvrX7FDK_KJafI4k7tmI7du9DGlFWoIX94OEKsb-toxPRAi_EQMNCt7boofxl_RaFSm-zNiHHmgUBXXJ3EAIsvyc3GirLO6n9IOySqmBZkl2N5kV8zeXc-6sE6r2nExP2jztMks9eAxZPkppU1FfI3fy3RZxzRp7-l70vB3MBserWRermzGlLLt_ubHDszhYqCXIwxAA0TUlNr6HrTzU1NSWTdYO-lhdMjhifSPnXaTjPKGdrFyAka_dGzQ00arrQtiS4o9rlW7]--></g></svg>