<svg xmlns="http://www.w3.org/2000/svg" xmlns:xlink="http://www.w3.org/1999/xlink" contentStyleType="text/css" data-diagram-type="SEQUENCE" height="401px" preserveAspectRatio="none" style="width:481px;height:401px;background:#FFFFFF;" version="1.1" viewBox="0 0 481 401" width="481px" zoomAndPan="magnify"><title>SSD: Search VVE in Date Range</title><defs/><g><text fill="#000000" font-family="sans-serif" font-size="14" font-weight="bold" lengthAdjust="spacing" textLength="220.5205" x="131.5115" y="28.5352">SSD: Search VVE in Date Range</text><g><title>System</title><rect fill="#FFFFFF" height="157.1523" style="stroke:#181818;stroke-width:1;" width="10" x="428.4946" y="151.2871"/></g><rect fill="none" height="135.1523" style="stroke:#000000;stroke-width:1.5;" width="464.5435" x="10" y="166.2871"/><g><title>LogisticsOperator</title><rect fill="#000000" fill-opacity="0.00000" height="198.4629" width="8" x="79.04" y="119.9766"/><line style="stroke:#181818;stroke-width:0.5;stroke-dasharray:5,5;" x1="83" x2="83" y1="119.9766" y2="318.4395"/></g><g><title>System</title><rect fill="#000000" fill-opacity="0.00000" height="198.4629" width="8" x="429.4946" y="119.9766"/><line style="stroke:#181818;stroke-width:0.5;stroke-dasharray:5,5;" x1="433.4458" x2="433.4458" y1="119.9766" y2="318.4395"/></g><g class="participant participant-head" data-participant="User"><text fill="#000000" font-family="sans-serif" font-size="14" lengthAdjust="spacing" textLength="120.0801" x="20" y="117.0234">LogisticsOperator</text><ellipse cx="83.04" cy="58.9883" fill="#E2E2F0" rx="16" ry="16" style="stroke:#181818;stroke-width:0.5;"/><path d="M83.04,78.9883 C87.04,78.9883 90.04,78.9883 94.04,74.9883 C102.04,74.9883 110.04,82.9883 110.04,90.9883 L110.04,94.9883 C110.04,98.9883 106.04,102.9883 102.04,102.9883 L64.04,102.9883 C60.04,102.9883 56.04,98.9883 56.04,94.9883 L56.04,90.9883 C56.04,82.9883 64.04,74.9883 72.04,74.9883 C76.04,78.9883 79.04,78.9883 83.04,78.9883" fill="#E2E2F0" style="stroke:#181818;stroke-width:0.5;"/></g><g class="participant participant-tail" data-participant="User"><text fill="#000000" font-family="sans-serif" font-size="14" lengthAdjust="spacing" textLength="120.0801" x="20" y="330.9746">LogisticsOperator</text><ellipse cx="83.04" cy="350.4277" fill="#E2E2F0" rx="16" ry="16" style="stroke:#181818;stroke-width:0.5;"/><path d="M83.04,370.4277 C87.04,370.4277 90.04,370.4277 94.04,366.4277 C102.04,366.4277 110.04,374.4277 110.04,382.4277 L110.04,386.4277 C110.04,390.4277 106.04,394.4277 102.04,394.4277 L64.04,394.4277 C60.04,394.4277 56.04,390.4277 56.04,386.4277 L56.04,382.4277 C56.04,374.4277 64.04,366.4277 72.04,366.4277 C76.04,370.4277 79.04,370.4277 83.04,370.4277" fill="#E2E2F0" style="stroke:#181818;stroke-width:0.5;"/></g><g class="participant participant-head" data-participant="System"><rect fill="#E2E2F0" height="30.4883" rx="2.5" ry="2.5" style="stroke:#181818;stroke-width:0.5;" width="62.0977" x="402.4458" y="88.4883"/><text fill="#000000" font-family="sans-serif" font-size="14" lengthAdjust="spacing" textLength="48.0977" x="409.4458" y="109.0234">System</text></g><g class="participant participant-tail" data-participant="System"><rect fill="#E2E2F0" height="30.4883" rx="2.5" ry="2.5" style="stroke:#181818;stroke-width:0.5;" width="62.0977" x="402.4458" y="317.4395"/><text fill="#000000" font-family="sans-serif" font-size="14" lengthAdjust="spacing" textLength="48.0977" x="409.4458" y="337.9746">System</text></g><g><title>System</title><rect fill="#FFFFFF" height="157.1523" style="stroke:#181818;stroke-width:1;" width="10" x="428.4946" y="151.2871"/></g><g class="message" data-participant-1="User" data-participant-2="System"><polygon fill="#181818" points="416.4946,147.2871,426.4946,151.2871,416.4946,155.2871,420.4946,151.2871" style="stroke:#181818;stroke-width:1;"/><line style="stroke:#181818;stroke-width:1;" x1="83.04" x2="422.4946" y1="151.2871" y2="151.2871"/><text fill="#000000" font-family="sans-serif" font-size="13" font-weight="bold" lengthAdjust="spacing" textLength="8.5757" x="90.04" y="146.5449">1</text><text fill="#000000" font-family="sans-serif" font-size="13" lengthAdjust="spacing" textLength="313.8789" x="102.6157" y="146.5449">GET /vve/range?start={startDate}&amp;end={endDate}</text></g><path d="M10,166.2871 L72.1387,166.2871 L72.1387,173.5977 L62.1387,183.5977 L10,183.5977 L10,166.2871" fill="#EEEEEE" style="stroke:#000000;stroke-width:1.5;"/><rect fill="none" height="135.1523" style="stroke:#000000;stroke-width:1.5;" width="464.5435" x="10" y="166.2871"/><text fill="#000000" font-family="sans-serif" font-size="13" font-weight="bold" lengthAdjust="spacing" textLength="17.1387" x="25" y="179.8555">alt</text><text fill="#000000" font-family="sans-serif" font-size="11" font-weight="bold" lengthAdjust="spacing" textLength="82.8491" x="87.1387" y="178.9219">[Success Case]</text><g class="message" data-participant-1="System" data-participant-2="User"><polygon fill="#181818" points="94.04,200.9082,84.04,204.9082,94.04,208.9082,90.04,204.9082" style="stroke:#181818;stroke-width:1;"/><line style="stroke:#181818;stroke-width:1;stroke-dasharray:2,2;" x1="88.04" x2="427.4946" y1="204.9082" y2="204.9082"/><text fill="#000000" font-family="sans-serif" font-size="13" font-weight="bold" lengthAdjust="spacing" textLength="8.5757" x="100.04" y="200.166">2</text><text fill="#000000" font-family="sans-serif" font-size="13" lengthAdjust="spacing" textLength="133.7705" x="112.6157" y="200.166">200 OK (List of VVEs)</text></g><line style="stroke:#000000;stroke-width:1;stroke-dasharray:2,2;" x1="10" x2="474.5435" y1="213.9082" y2="213.9082"/><text fill="#000000" font-family="sans-serif" font-size="11" font-weight="bold" lengthAdjust="spacing" textLength="244.8091" x="15" y="224.543">[Invalid Date Format / Missing Parameters]</text><g class="message" data-participant-1="System" data-participant-2="User"><polygon fill="#181818" points="94.04,245.1738,84.04,249.1738,94.04,253.1738,90.04,249.1738" style="stroke:#181818;stroke-width:1;"/><line style="stroke:#181818;stroke-width:1;stroke-dasharray:2,2;" x1="88.04" x2="427.4946" y1="249.1738" y2="249.1738"/><text fill="#000000" font-family="sans-serif" font-size="13" font-weight="bold" lengthAdjust="spacing" textLength="8.5757" x="100.04" y="244.4316">3</text><text fill="#000000" font-family="sans-serif" font-size="13" lengthAdjust="spacing" textLength="106.1709" x="112.6157" y="244.4316">400 Bad Request</text></g><line style="stroke:#000000;stroke-width:1;stroke-dasharray:2,2;" x1="10" x2="474.5435" y1="258.1738" y2="258.1738"/><text fill="#000000" font-family="sans-serif" font-size="11" font-weight="bold" lengthAdjust="spacing" textLength="175.2373" x="15" y="268.8086">[Unauthorized (Incorrect Role)]</text><g class="message" data-participant-1="System" data-participant-2="User"><polygon fill="#181818" points="94.04,289.4395,84.04,293.4395,94.04,297.4395,90.04,293.4395" style="stroke:#181818;stroke-width:1;"/><line style="stroke:#181818;stroke-width:1;stroke-dasharray:2,2;" x1="88.04" x2="427.4946" y1="293.4395" y2="293.4395"/><text fill="#000000" font-family="sans-serif" font-size="13" font-weight="bold" lengthAdjust="spacing" textLength="8.5757" x="100.04" y="288.6973">4</text><text fill="#000000" font-family="sans-serif" font-size="13" lengthAdjust="spacing" textLength="221.6729" x="112.6157" y="288.6973">401 Unauthorized / 403 Forbidden</text></g><!--SRC=[TP1DJm8n48Rl_HKJ3WOEPF7ZH88c2XeY1iCAzw4xGkDkYvtPDKZyxquNFMX23_sOZ-UTllpc_0uZLe1MGinbNnBW1t6eo60jmTVLcg8nRHewix1nBCxoV4SHDTG1P5YobYX64sw7Ng2JxrceQfF7gp7YHDbvFXv2JXZj5bQh2JWFOnI21VeD6PD8qB_-QO8XF4nU86iQoc8gk65HbT6XFLBVrndvOdJGhNsbCLsJUB-gM0hajRN437V8P43N3xslGgtW42u60vW_GdUcluFmcaRZdg6I2QQ-mT8Lnp7lGwnG88Cdn-py1fwJUIGK-GJvIictMC22tcjYEJANNhtTXkW-gO3krDiG8rc1HIYfTn9q_hSlqz1bccZjYeAyKHECAUYV1Ty0]--></g></svg>