<?xml version="1.0" encoding="UTF-8" standalone="no"?><svg xmlns="http://www.w3.org/2000/svg" xmlns:xlink="http://www.w3.org/1999/xlink" contentStyleType="text/css" height="320px" preserveAspectRatio="none" style="width:339px;height:320px;background:#FFFFFF;" version="1.1" viewBox="0 0 339 320" width="339px" zoomAndPan="magnify"><defs/><g><!--class ApplicationSession--><g id="elem_ApplicationSession"><rect codeLine="3" fill="#F1F1F1" height="71.24" id="ApplicationSession" rx="2.5" ry="2.5" style="stroke:#181818;stroke-width:0.5;" width="118" x="7" y="242"/><ellipse cx="20" cy="256" fill="#ADD1B2" rx="9" ry="9" style="stroke:#181818;stroke-width:1.0;"/><path d="M21.2813,259.2969 Q20.9375,259.4688 20.5625,259.5469 Q20.1875,259.6406 19.7656,259.6406 Q18.2969,259.6406 17.5156,258.6719 Q16.75,257.7031 16.75,255.8594 Q16.75,254.0156 17.5156,253.0469 Q18.2969,252.0781 19.7656,252.0781 Q20.1875,252.0781 20.5625,252.1719 Q20.9531,252.25 21.2813,252.4219 L21.2813,254.0313 Q20.9063,253.6875 20.5469,253.5313 Q20.2031,253.375 19.8438,253.375 Q19.0469,253.375 18.6406,254 Q18.2344,254.625 18.2344,255.8594 Q18.2344,257.0938 18.6406,257.7188 Q19.0469,258.3438 19.8438,258.3438 Q20.2031,258.3438 20.5469,258.1875 Q20.9063,258.0313 21.2813,257.6875 L21.2813,259.2969 Z " fill="#000000"/><text fill="#000000" font-family="Times" font-size="10" lengthAdjust="spacing" textLength="90" x="32" y="259.88">ApplicationSession</text><line style="stroke:#181818;stroke-width:0.5;" x1="8" x2="124" y1="270" y2="270"/><line style="stroke:#181818;stroke-width:0.5;" x1="8" x2="124" y1="278" y2="278"/><text fill="#000000" font-family="Times" font-size="10" lengthAdjust="spacing" textLength="99" x="13" y="292.69">+static getInstance()</text><text fill="#000000" font-family="Times" font-size="10" lengthAdjust="spacing" textLength="100" x="13" y="306.31">+getCurrentSession()</text></g><!--class UserSession--><g id="elem_UserSession"><rect codeLine="9" fill="#F1F1F1" height="57.62" id="UserSession" rx="2.5" ry="2.5" style="stroke:#181818;stroke-width:0.5;" width="172" x="160" y="248.5"/><ellipse cx="213.25" cy="262.5" fill="#ADD1B2" rx="9" ry="9" style="stroke:#181818;stroke-width:1.0;"/><path d="M214.5313,265.7969 Q214.1875,265.9688 213.8125,266.0469 Q213.4375,266.1406 213.0156,266.1406 Q211.5469,266.1406 210.7656,265.1719 Q210,264.2031 210,262.3594 Q210,260.5156 210.7656,259.5469 Q211.5469,258.5781 213.0156,258.5781 Q213.4375,258.5781 213.8125,258.6719 Q214.2031,258.75 214.5313,258.9219 L214.5313,260.5313 Q214.1563,260.1875 213.7969,260.0313 Q213.4531,259.875 213.0938,259.875 Q212.2969,259.875 211.8906,260.5 Q211.4844,261.125 211.4844,262.3594 Q211.4844,263.5938 211.8906,264.2188 Q212.2969,264.8438 213.0938,264.8438 Q213.4531,264.8438 213.7969,264.6875 Q214.1563,264.5313 214.5313,264.1875 L214.5313,265.7969 Z " fill="#000000"/><text fill="#000000" font-family="Times" font-size="10" lengthAdjust="spacing" textLength="58" x="230.75" y="266.38">UserSession</text><line style="stroke:#181818;stroke-width:0.5;" x1="161" x2="331" y1="276.5" y2="276.5"/><line style="stroke:#181818;stroke-width:0.5;" x1="161" x2="331" y1="284.5" y2="284.5"/><text fill="#000000" font-family="Times" font-size="10" lengthAdjust="spacing" textLength="160" x="166" y="299.19">+isLoggedInWithRole(USER_ROLE)</text></g><!--class {NameOfUC}Controller--><g id="elem_{NameOfUC}Controller"><rect codeLine="14" fill="#F1F1F1" height="71.24" id="{NameOfUC}Controller" rx="2.5" ry="2.5" style="stroke:#181818;stroke-width:0.5;" width="137" x="87.5" y="111"/><ellipse cx="100.5" cy="125" fill="#ADD1B2" rx="9" ry="9" style="stroke:#181818;stroke-width:1.0;"/><path d="M101.7813,128.2969 Q101.4375,128.4688 101.0625,128.5469 Q100.6875,128.6406 100.2656,128.6406 Q98.7969,128.6406 98.0156,127.6719 Q97.25,126.7031 97.25,124.8594 Q97.25,123.0156 98.0156,122.0469 Q98.7969,121.0781 100.2656,121.0781 Q100.6875,121.0781 101.0625,121.1719 Q101.4531,121.25 101.7813,121.4219 L101.7813,123.0313 Q101.4063,122.6875 101.0469,122.5313 Q100.7031,122.375 100.3438,122.375 Q99.5469,122.375 99.1406,123 Q98.7344,123.625 98.7344,124.8594 Q98.7344,126.0938 99.1406,126.7188 Q99.5469,127.3438 100.3438,127.3438 Q100.7031,127.3438 101.0469,127.1875 Q101.4063,127.0313 101.7813,126.6875 L101.7813,128.2969 Z " fill="#000000"/><text fill="#000000" font-family="Times" font-size="10" lengthAdjust="spacing" textLength="109" x="112.5" y="128.88">{NameOfUC}Controller</text><line style="stroke:#181818;stroke-width:0.5;" x1="88.5" x2="223.5" y1="139" y2="139"/><line style="stroke:#181818;stroke-width:0.5;" x1="88.5" x2="223.5" y1="147" y2="147"/><text fill="#000000" font-family="Times" font-size="10" lengthAdjust="spacing" textLength="121" x="93.5" y="161.69">+{NameOfUC}Controller()</text><text fill="#000000" font-family="Times" font-size="10" lengthAdjust="spacing" textLength="64" x="93.5" y="175.31">+methodX(...)</text></g><!--class {NameOfUC}UI--><g id="elem_{NameOfUC}UI"><rect codeLine="19" fill="#F1F1F1" height="44" id="{NameOfUC}UI" rx="2.5" ry="2.5" style="stroke:#181818;stroke-width:0.5;" width="99" x="106.5" y="7"/><ellipse cx="119.5" cy="21" fill="#ADD1B2" rx="9" ry="9" style="stroke:#181818;stroke-width:1.0;"/><path d="M120.7813,24.2969 Q120.4375,24.4688 120.0625,24.5469 Q119.6875,24.6406 119.2656,24.6406 Q117.7969,24.6406 117.0156,23.6719 Q116.25,22.7031 116.25,20.8594 Q116.25,19.0156 117.0156,18.0469 Q117.7969,17.0781 119.2656,17.0781 Q119.6875,17.0781 120.0625,17.1719 Q120.4531,17.25 120.7813,17.4219 L120.7813,19.0313 Q120.4063,18.6875 120.0469,18.5313 Q119.7031,18.375 119.3438,18.375 Q118.5469,18.375 118.1406,19 Q117.7344,19.625 117.7344,20.8594 Q117.7344,22.0938 118.1406,22.7188 Q118.5469,23.3438 119.3438,23.3438 Q119.7031,23.3438 120.0469,23.1875 Q120.4063,23.0313 120.7813,22.6875 L120.7813,24.2969 Z " fill="#000000"/><text fill="#000000" font-family="Times" font-size="10" lengthAdjust="spacing" textLength="71" x="131.5" y="24.88">{NameOfUC}UI</text><line style="stroke:#181818;stroke-width:0.5;" x1="107.5" x2="204.5" y1="35" y2="35"/><line style="stroke:#181818;stroke-width:0.5;" x1="107.5" x2="204.5" y1="43" y2="43"/></g><!--link {NameOfUC}UI to {NameOfUC}Controller--><g id="link_{NameOfUC}UI_{NameOfUC}Controller"><path codeLine="22" d="M156,51.18 C156,66.42 156,87.43 156,105.76 " fill="none" id="{NameOfUC}UI-to-{NameOfUC}Controller" style="stroke:#181818;stroke-width:1.0;stroke-dasharray:7.0,7.0;"/><polygon fill="#181818" points="156,110.85,160,101.85,156,105.85,152,101.85,156,110.85" style="stroke:#181818;stroke-width:1.0;"/></g><!--link {NameOfUC}Controller to ApplicationSession--><g id="link_{NameOfUC}Controller_ApplicationSession"><path codeLine="23" d="M131.88,182.07 C119.98,199.13 105.57,219.79 93.26,237.42 " fill="none" id="{NameOfUC}Controller-to-ApplicationSession" style="stroke:#181818;stroke-width:1.0;stroke-dasharray:7.0,7.0;"/><polygon fill="#181818" points="90.18,241.83,98.6193,236.7527,93.0483,237.7345,92.0665,232.1635,90.18,241.83" style="stroke:#181818;stroke-width:1.0;"/></g><!--link {NameOfUC}Controller to UserSession--><g id="link_{NameOfUC}Controller_UserSession"><path codeLine="24" d="M180.12,182.07 C193.58,201.36 210.23,225.24 223.43,244.15 " fill="none" id="{NameOfUC}Controller-to-UserSession" style="stroke:#181818;stroke-width:1.0;stroke-dasharray:7.0,7.0;"/><polygon fill="#181818" points="226.37,248.36,224.5061,238.6891,223.5113,244.2578,217.9426,243.263,226.37,248.36" style="stroke:#181818;stroke-width:1.0;"/></g><!--SRC=[VP1DQiCm48NtEiMGbKl1f1S819E28IJWrBIxeieJHqIMZ6QyISZTEt8fJOlTbSHxRxxveRFrlOwwSy6SiO46Ztfm_1myxtI7y68x94NpgOEz83mjVo9Wd2PQCqVxCJ2M9lWnirHgT63TzyuQpLOC9997NHN08x5e1bhaqilV6ymUaYv2CSI8qkihBlBj6rOJnbyKIzlGjjYK_jNogGeEi_gmgTwh_NPpLxUuflNsnxgu5R953CvXN41220Ict76QP7R8fz2yPNcUJnFhCf74-QFb-MgciPgP9rLCtEkVzFr1FW40]--></g></svg>