<?xml version="1.0" encoding="UTF-8" standalone="no"?><svg xmlns="http://www.w3.org/2000/svg" xmlns:xlink="http://www.w3.org/1999/xlink" contentStyleType="text/css" height="798px" preserveAspectRatio="none" style="width:808px;height:798px;background:#FFFFFF;" version="1.1" viewBox="0 0 808 798" width="808px" zoomAndPan="magnify"><defs/><g><rect fill="#FFFFFF" height="621.3997" style="stroke:#181818;stroke-width:1.0;" width="10" x="29" y="88.62"/><rect fill="#FFFFFF" height="264.9599" style="stroke:#181818;stroke-width:1.0;" width="10" x="151" y="108.24"/><rect fill="#FFFFFF" height="28.62" style="stroke:#181818;stroke-width:1.0;" width="10" x="265" y="145.86"/><rect fill="#FFFFFF" height="57.62" style="stroke:#181818;stroke-width:1.0;" width="10" x="265" y="343.1999"/><rect fill="#FFFFFF" height="193.9599" style="stroke:#181818;stroke-width:1.0;" width="10" x="265" y="476.0598"/><rect fill="#FFFFFF" height="131.0999" style="stroke:#181818;stroke-width:1.0;" width="10" x="398" y="184.4799"/><rect fill="#FFFFFF" height="138.7199" style="stroke:#181818;stroke-width:1.0;" width="10" x="398" y="503.6798"/><rect fill="#FFFFFF" height="37.43" style="stroke:#181818;stroke-width:1.0;" width="10" x="523" y="222.9099"/><rect fill="#FFFFFF" height="83.4799" style="stroke:#181818;stroke-width:1.0;" width="10" x="523" y="531.2998"/><rect fill="#FFFFFF" height="27.62" style="stroke:#181818;stroke-width:1.0;" width="10" x="638.5" y="287.9599"/><rect fill="none" height="262.1999" style="stroke:#000000;stroke-width:1.5;" width="792" x="10" y="440.8199"/><line style="stroke:#181818;stroke-width:0.5;stroke-dasharray:5.0,5.0;" x1="34" x2="34" y1="78.62" y2="720.0197"/><line style="stroke:#181818;stroke-width:0.5;stroke-dasharray:5.0,5.0;" x1="156" x2="156" y1="78.62" y2="720.0197"/><line style="stroke:#181818;stroke-width:0.5;stroke-dasharray:5.0,5.0;" x1="270" x2="270" y1="145.55" y2="720.0197"/><line style="stroke:#181818;stroke-width:0.5;stroke-dasharray:5.0,5.0;" x1="403" x2="403" y1="184.17" y2="720.0197"/><line style="stroke:#181818;stroke-width:0.5;stroke-dasharray:5.0,5.0;" x1="528" x2="528" y1="78.62" y2="720.0197"/><line style="stroke:#181818;stroke-width:0.5;stroke-dasharray:5.0,5.0;" x1="643" x2="643" y1="78.62" y2="720.0197"/><line style="stroke:#181818;stroke-width:0.5;stroke-dasharray:5.0,5.0;" x1="749" x2="749" y1="78.62" y2="720.0197"/><text fill="#000000" font-family="Times" font-size="10" lengthAdjust="spacing" textLength="22" x="20" y="75.69">User</text><ellipse cx="34" cy="13.5" fill="#E3E3E3" rx="8" ry="8" style="stroke:#181818;stroke-width:0.5;"/><path d="M34,21.5 L34,48.5 M21,29.5 L47,29.5 M34,48.5 L21,63.5 M34,48.5 L47,63.5 " fill="none" style="stroke:#181818;stroke-width:0.5;"/><text fill="#000000" font-family="Times" font-size="10" lengthAdjust="spacing" textLength="22" x="20" y="729.7097">User</text><ellipse cx="34" cy="741.1397" fill="#E3E3E3" rx="8" ry="8" style="stroke:#181818;stroke-width:0.5;"/><path d="M34,749.1397 L34,776.1397 M21,757.1397 L47,757.1397 M34,776.1397 L21,791.1397 M34,776.1397 L47,791.1397 " fill="none" style="stroke:#181818;stroke-width:0.5;"/><rect fill="#E3E3E3" height="27.62" rx="2.5" ry="2.5" style="stroke:#181818;stroke-width:0.5;" width="68" x="122" y="50"/><text fill="#000000" font-family="Times" font-size="10" lengthAdjust="spacing" textLength="54" x="129" y="67.69">:{MenuX}UI</text><rect fill="#E3E3E3" height="27.62" rx="2.5" ry="2.5" style="stroke:#181818;stroke-width:0.5;" width="68" x="122" y="719.0197"/><text fill="#000000" font-family="Times" font-size="10" lengthAdjust="spacing" textLength="54" x="129" y="736.7097">:{MenuX}UI</text><rect fill="#E3E3E3" height="27.62" rx="2.5" ry="2.5" style="stroke:#181818;stroke-width:0.5;" width="88" x="226" y="719.0197"/><text fill="#000000" font-family="Times" font-size="10" lengthAdjust="spacing" textLength="74" x="233" y="736.7097">:{NameOfUC}UI</text><rect fill="#E3E3E3" height="27.62" rx="2.5" ry="2.5" style="stroke:#181818;stroke-width:0.5;" width="126" x="340" y="719.0197"/><text fill="#000000" font-family="Times" font-size="10" lengthAdjust="spacing" textLength="112" x="347" y="736.7097">:{NameOfUC}Controller</text><rect fill="#E3E3E3" height="27.62" rx="2.5" ry="2.5" style="stroke:#181818;stroke-width:0.5;" width="104" x="476" y="50"/><text fill="#000000" font-family="Times" font-size="10" lengthAdjust="spacing" textLength="90" x="483" y="67.69">ApplicationSession</text><rect fill="#E3E3E3" height="27.62" rx="2.5" ry="2.5" style="stroke:#181818;stroke-width:0.5;" width="104" x="476" y="719.0197"/><text fill="#000000" font-family="Times" font-size="10" lengthAdjust="spacing" textLength="90" x="483" y="736.7097">ApplicationSession</text><rect fill="#E3E3E3" height="41.24" rx="2.5" ry="2.5" style="stroke:#181818;stroke-width:0.5;" width="107" x="590" y="36.38"/><text fill="#000000" font-family="Times" font-size="10" lengthAdjust="spacing" textLength="54" x="616.5" y="54.07">appSession</text><text fill="#000000" font-family="Times" font-size="10" lengthAdjust="spacing" textLength="93" x="597" y="67.69">:ApplicationSession</text><rect fill="#E3E3E3" height="41.24" rx="2.5" ry="2.5" style="stroke:#181818;stroke-width:0.5;" width="107" x="590" y="719.0197"/><text fill="#000000" font-family="Times" font-size="10" lengthAdjust="spacing" textLength="54" x="616.5" y="736.7097">appSession</text><text fill="#000000" font-family="Times" font-size="10" lengthAdjust="spacing" textLength="93" x="597" y="750.3297">:ApplicationSession</text><rect fill="#E3E3E3" height="41.24" rx="2.5" ry="2.5" style="stroke:#181818;stroke-width:0.5;" width="85" x="707" y="36.38"/><text fill="#000000" font-family="Times" font-size="10" lengthAdjust="spacing" textLength="71" x="714" y="54.07">currentSession</text><text fill="#000000" font-family="Times" font-size="10" lengthAdjust="spacing" textLength="61" x="719" y="67.69">:UserSession</text><rect fill="#E3E3E3" height="41.24" rx="2.5" ry="2.5" style="stroke:#181818;stroke-width:0.5;" width="85" x="707" y="719.0197"/><text fill="#000000" font-family="Times" font-size="10" lengthAdjust="spacing" textLength="71" x="714" y="736.7097">currentSession</text><text fill="#000000" font-family="Times" font-size="10" lengthAdjust="spacing" textLength="61" x="719" y="750.3297">:UserSession</text><rect fill="#FFFFFF" height="621.3997" style="stroke:#181818;stroke-width:1.0;" width="10" x="29" y="88.62"/><rect fill="#FFFFFF" height="264.9599" style="stroke:#181818;stroke-width:1.0;" width="10" x="151" y="108.24"/><rect fill="#FFFFFF" height="28.62" style="stroke:#181818;stroke-width:1.0;" width="10" x="265" y="145.86"/><rect fill="#FFFFFF" height="57.62" style="stroke:#181818;stroke-width:1.0;" width="10" x="265" y="343.1999"/><rect fill="#FFFFFF" height="193.9599" style="stroke:#181818;stroke-width:1.0;" width="10" x="265" y="476.0598"/><rect fill="#FFFFFF" height="131.0999" style="stroke:#181818;stroke-width:1.0;" width="10" x="398" y="184.4799"/><rect fill="#FFFFFF" height="138.7199" style="stroke:#181818;stroke-width:1.0;" width="10" x="398" y="503.6798"/><rect fill="#FFFFFF" height="37.43" style="stroke:#181818;stroke-width:1.0;" width="10" x="523" y="222.9099"/><rect fill="#FFFFFF" height="83.4799" style="stroke:#181818;stroke-width:1.0;" width="10" x="523" y="531.2998"/><rect fill="#FFFFFF" height="27.62" style="stroke:#181818;stroke-width:1.0;" width="10" x="638.5" y="287.9599"/><polygon fill="#181818" points="139,104.24,149,108.24,139,112.24,143,108.24" style="stroke:#181818;stroke-width:1.0;"/><line style="stroke:#181818;stroke-width:1.0;" x1="39" x2="145" y1="108.24" y2="108.24"/><text fill="#000000" font-family="Times" font-size="10" font-weight="bold" lengthAdjust="spacing" textLength="6" x="46" y="103.31">1</text><text fill="#000000" font-family="Times" font-size="10" lengthAdjust="spacing" textLength="83" x="56" y="103.31">selects an option</text><polygon fill="#181818" points="214,131.86,224,135.86,214,139.86,218,135.86" style="stroke:#181818;stroke-width:1.0;"/><line style="stroke:#181818;stroke-width:1.0;stroke-dasharray:2.0,2.0;" x1="161" x2="220" y1="135.86" y2="135.86"/><text fill="#000000" font-family="Times" font-size="10" font-weight="bold" lengthAdjust="spacing" textLength="6" x="168" y="130.93">2</text><text fill="#000000" font-family="Times" font-size="10" lengthAdjust="spacing" textLength="31" x="178" y="130.93">create</text><rect fill="#E3E3E3" height="27.62" rx="2.5" ry="2.5" style="stroke:#181818;stroke-width:0.5;" width="88" x="226" y="116.24"/><text fill="#000000" font-family="Times" font-size="10" lengthAdjust="spacing" textLength="74" x="233" y="133.93">:{NameOfUC}UI</text><polygon fill="#181818" points="328,170.4799,338,174.4799,328,178.4799,332,174.4799" style="stroke:#181818;stroke-width:1.0;"/><line style="stroke:#181818;stroke-width:1.0;stroke-dasharray:2.0,2.0;" x1="270" x2="334" y1="174.4799" y2="174.4799"/><text fill="#000000" font-family="Times" font-size="10" font-weight="bold" lengthAdjust="spacing" textLength="6" x="277" y="169.55">3</text><text fill="#000000" font-family="Times" font-size="10" lengthAdjust="spacing" textLength="31" x="287" y="169.55">create</text><rect fill="#E3E3E3" height="27.62" rx="2.5" ry="2.5" style="stroke:#181818;stroke-width:0.5;" width="126" x="340" y="154.86"/><text fill="#000000" font-family="Times" font-size="10" lengthAdjust="spacing" textLength="112" x="347" y="172.55">:{NameOfUC}Controller</text><polygon fill="#181818" points="511,218.9099,521,222.9099,511,226.9099,515,222.9099" style="stroke:#181818;stroke-width:1.0;"/><line style="stroke:#181818;stroke-width:1.0;" x1="408" x2="517" y1="222.9099" y2="222.9099"/><text fill="#000000" font-family="Times" font-size="10" font-weight="bold" lengthAdjust="spacing" textLength="6" x="415" y="217.9799">4</text><text fill="#000000" font-family="Times" font-size="10" lengthAdjust="spacing" textLength="63" x="425" y="217.9799">getinstance()</text><path d="M538,198.4799 L538,235.4799 L649,235.4799 L649,208.4799 L639,198.4799 L538,198.4799 " fill="#FAFAFA" style="stroke:#181818;stroke-width:0.5;"/><path d="M639,198.4799 L639,208.4799 L649,208.4799 L639,198.4799 " fill="#FAFAFA" style="stroke:#181818;stroke-width:0.5;"/><text fill="#000000" font-family="Times" font-size="10" lengthAdjust="spacing" textLength="67" x="544" y="214.1699">static method</text><text fill="#000000" font-family="Times" font-size="10" lengthAdjust="spacing" textLength="90" x="544" y="227.7899">(Singleton pattern)</text><polygon fill="#181818" points="419,256.3399,409,260.3399,419,264.3399,415,260.3399" style="stroke:#181818;stroke-width:1.0;"/><line style="stroke:#181818;stroke-width:1.0;stroke-dasharray:2.0,2.0;" x1="413" x2="527" y1="260.3399" y2="260.3399"/><text fill="#000000" font-family="Times" font-size="10" font-weight="bold" lengthAdjust="spacing" textLength="6" x="425" y="255.4099">5</text><text fill="#000000" font-family="Times" font-size="10" lengthAdjust="spacing" textLength="54" x="435" y="255.4099">appSession</text><polygon fill="#181818" points="626.5,283.9599,636.5,287.9599,626.5,291.9599,630.5,287.9599" style="stroke:#181818;stroke-width:1.0;"/><line style="stroke:#181818;stroke-width:1.0;" x1="408" x2="632.5" y1="287.9599" y2="287.9599"/><text fill="#000000" font-family="Times" font-size="10" font-weight="bold" lengthAdjust="spacing" textLength="6" x="415" y="283.0299">6</text><text fill="#000000" font-family="Times" font-size="10" lengthAdjust="spacing" textLength="94" x="425" y="283.0299">getCurrentSession()</text><polygon fill="#181818" points="414,311.5799,404,315.5799,414,319.5799,410,315.5799" style="stroke:#181818;stroke-width:1.0;"/><line style="stroke:#181818;stroke-width:1.0;stroke-dasharray:2.0,2.0;" x1="408" x2="642.5" y1="315.5799" y2="315.5799"/><text fill="#000000" font-family="Times" font-size="10" font-weight="bold" lengthAdjust="spacing" textLength="6" x="420" y="310.6499">7</text><text fill="#000000" font-family="Times" font-size="10" lengthAdjust="spacing" textLength="71" x="430" y="310.6499">currentSession</text><polygon fill="#181818" points="253,339.1999,263,343.1999,253,347.1999,257,343.1999" style="stroke:#181818;stroke-width:1.0;"/><line style="stroke:#181818;stroke-width:1.0;" x1="161" x2="259" y1="343.1999" y2="343.1999"/><text fill="#000000" font-family="Times" font-size="10" font-weight="bold" lengthAdjust="spacing" textLength="6" x="168" y="338.2699">8</text><text fill="#000000" font-family="Times" font-size="10" lengthAdjust="spacing" textLength="22" x="178" y="338.2699">run()</text><polygon fill="#181818" points="50,396.8199,40,400.8199,50,404.8199,46,400.8199" style="stroke:#181818;stroke-width:1.0;"/><line style="stroke:#181818;stroke-width:1.0;stroke-dasharray:2.0,2.0;" x1="44" x2="269" y1="400.8199" y2="400.8199"/><text fill="#000000" font-family="Times" font-size="10" font-weight="bold" lengthAdjust="spacing" textLength="6" x="56" y="395.8899">9</text><text fill="#000000" font-family="Times" font-size="10" lengthAdjust="spacing" textLength="96" x="66" y="395.8899">requests something</text><path d="M10,440.8199 L76,440.8199 L76,446.4398 L66,456.4398 L10,456.4398 L10,440.8199 " fill="#EEEEEE" style="stroke:#000000;stroke-width:1.5;"/><rect fill="none" height="262.1999" style="stroke:#000000;stroke-width:1.5;" width="792" x="10" y="440.8199"/><text fill="#000000" font-family="Times" font-size="10" font-weight="bold" lengthAdjust="spacing" textLength="21" x="25" y="452.5099">loop</text><polygon fill="#181818" points="253,472.0598,263,476.0598,253,480.0598,257,476.0598" style="stroke:#181818;stroke-width:1.0;"/><line style="stroke:#181818;stroke-width:1.0;" x1="39" x2="259" y1="476.0598" y2="476.0598"/><text fill="#000000" font-family="Times" font-size="10" font-weight="bold" lengthAdjust="spacing" textLength="12" x="46" y="471.1298">10</text><text fill="#000000" font-family="Times" font-size="10" lengthAdjust="spacing" textLength="77" x="62" y="471.1298">does something</text><polygon fill="#181818" points="386,499.6798,396,503.6798,386,507.6798,390,503.6798" style="stroke:#181818;stroke-width:1.0;"/><line style="stroke:#181818;stroke-width:1.0;" x1="275" x2="392" y1="503.6798" y2="503.6798"/><text fill="#000000" font-family="Times" font-size="10" font-weight="bold" lengthAdjust="spacing" textLength="12" x="282" y="498.7498">11</text><text fill="#000000" font-family="Times" font-size="10" lengthAdjust="spacing" textLength="58" x="298" y="498.7498">methodX(...)</text><polygon fill="#181818" points="511,527.2998,521,531.2998,511,535.2998,515,531.2998" style="stroke:#181818;stroke-width:1.0;"/><line style="stroke:#181818;stroke-width:1.0;" x1="408" x2="517" y1="531.2998" y2="531.2998"/><text fill="#000000" font-family="Times" font-size="10" font-weight="bold" lengthAdjust="spacing" textLength="12" x="415" y="526.3698">12</text><text fill="#000000" font-family="Times" font-size="10" lengthAdjust="spacing" textLength="58" x="431" y="526.3698">methodY(...)</text><rect fill="none" height="50.86" style="stroke:#000000;stroke-width:1.5;" width="322" x="473" y="539.2998"/><path d="M473,539.2998 L533,539.2998 L533,544.2998 L523,554.2998 L473,554.2998 L473,539.2998 " fill="#EEEEEE" style="stroke:#000000;stroke-width:2.0;"/><text fill="#000000" font-family="Times" font-size="10" font-weight="bold" lengthAdjust="spacing" textLength="15" x="486" y="551.9898">ref</text><text fill="#000000" font-family="Times" font-size="10" lengthAdjust="spacing" textLength="3" x="632.5" y="568.9898"> </text><text fill="#000000" font-family="Times" font-size="10" lengthAdjust="spacing" textLength="3" x="632.5" y="582.6098"> </text><polygon fill="#181818" points="419,610.7798,409,614.7798,419,618.7798,415,614.7798" style="stroke:#181818;stroke-width:1.0;"/><line style="stroke:#181818;stroke-width:1.0;stroke-dasharray:2.0,2.0;" x1="413" x2="527" y1="614.7798" y2="614.7798"/><text fill="#000000" font-family="Times" font-size="10" font-weight="bold" lengthAdjust="spacing" textLength="12" x="425" y="609.8498">13</text><text fill="#000000" font-family="Times" font-size="10" lengthAdjust="spacing" textLength="35" x="441" y="609.8498">answer</text><polygon fill="#181818" points="286,638.3997,276,642.3997,286,646.3997,282,642.3997" style="stroke:#181818;stroke-width:1.0;"/><line style="stroke:#181818;stroke-width:1.0;stroke-dasharray:2.0,2.0;" x1="280" x2="402" y1="642.3997" y2="642.3997"/><text fill="#000000" font-family="Times" font-size="10" font-weight="bold" lengthAdjust="spacing" textLength="12" x="292" y="637.4698">14</text><text fill="#000000" font-family="Times" font-size="10" lengthAdjust="spacing" textLength="35" x="308" y="637.4698">answer</text><polygon fill="#181818" points="50,666.0197,40,670.0197,50,674.0197,46,670.0197" style="stroke:#181818;stroke-width:1.0;"/><line style="stroke:#181818;stroke-width:1.0;stroke-dasharray:2.0,2.0;" x1="44" x2="269" y1="670.0197" y2="670.0197"/><text fill="#000000" font-family="Times" font-size="10" font-weight="bold" lengthAdjust="spacing" textLength="12" x="56" y="665.0897">15</text><text fill="#000000" font-family="Times" font-size="10" lengthAdjust="spacing" textLength="155" x="72" y="665.0897">answers/requests another thing</text><!--SRC=[bLNBRjim4BphAmXVwWQ9qrvzA608BY0WTW8h0bAW5qPQMuGbKYMff0_ttxkaB9cKfJZbnGOvEzoTdQNKdl6AIbeM8jr3HZBOqhhGNmNNQre2UMGbg42DesBs6yZdJoS8AGKNQIu5HcjPWtDIqNHFTn3hNmKG2QccV5Uu09NJJBmolYDRMYW80bfhmUlo6MGGVCXP1cGhX7uMFmEQQY79954W9uGgaiJBJO0icgMieboJoVpF2dZzz3U9B62rN2TzW2dnVfk4BIO9rulLCeb6SI5MB4LH72yD7pTtFdPHLGLBgMQ2nw0K_bZWuk4XNiPnTByEVJojgYFkEvzV3EubbjPI0hQW8p1gk95XiZb61aOmza8rD4e519VvHsw-M6d8d2Wei2UAK4v4PPAme2xE2aYEouRSO6mhsTKLCgGI4Dc1JbUskdP7zlhZhkKnKWvnPF06ItTa6-5ocmrJcYCySkz0CwxGTYbCFtfuBf15ibsklMsp48-Ian9qBhApqsdCZ8dHfcXlhK5odnXuPiczpIvlrnTzPZVrLY6iuUGOueKuGhci5rI96bL2pqazRGPuepUoZTniVOjUJZWQQhpjRizw9-VXBR9sSputJ8_FEddSYdOia1H-rA1m7fGmlSSsUo67m-6oIGiXgWxLZfkJU2PWY7-uWlDaEvaRSpvDPxFPIE_E9cHyIXgoR-TaxxQkMHAsHBo0T87NJgEltSTfaC6C3h8CdeqD1rUl-Ateezyp6oSz_1ODK8vQSynA3OUwxIn5yKd8KPl_jrKhZ7LMu2BCi_uF]--></g></svg>