<svg xmlns="http://www.w3.org/2000/svg" xmlns:xlink="http://www.w3.org/1999/xlink" contentStyleType="text/css" data-diagram-type="CLASS" height="1263px" preserveAspectRatio="none" style="width:2010px;height:1263px;background:#FFFFFF;" version="1.1" viewBox="0 0 2010 1263" width="2010px" zoomAndPan="magnify"><title>Class Diagram - US4.1.1 Register Vessel Visit Notification</title><defs/><g><g class="title" data-source-line="5"><text fill="#000000" font-family="sans-serif" font-size="14" font-weight="bold" lengthAdjust="spacing" textLength="417.2383" x="789.3809" y="23.5352">Class Diagram - US4.1.1 Register Vessel Visit Notification</text></g><!--cluster Application Layer--><g class="cluster" data-entity="Application Layer" data-source-line="7" data-uid="ent0002" id="cluster_Application Layer"><rect fill="none" height="338.9" rx="2.5" ry="2.5" style="stroke:#000000;stroke-width:1.5;" width="606" x="674" y="44.4883"/><text fill="#000000" font-family="sans-serif" font-size="14" font-weight="bold" lengthAdjust="spacing" textLength="125.7266" x="914.1367" y="60.0234">Application Layer</text></g><!--cluster Domain Layer--><g class="cluster" data-entity="Domain Layer" data-source-line="23" data-uid="ent0005" id="cluster_Domain Layer"><rect fill="none" height="677.74" rx="2.5" ry="2.5" style="stroke:#000000;stroke-width:1.5;" width="1252" x="7" y="579.8583"/><text fill="#000000" font-family="sans-serif" font-size="14" font-weight="bold" lengthAdjust="spacing" textLength="99.3125" x="583.3438" y="595.3934">Domain Layer</text></g><!--cluster Infrastructure Layer--><g class="cluster" data-entity="Infrastructure Layer" data-source-line="63" data-uid="ent0013" id="cluster_Infrastructure Layer"><rect fill="none" height="148.47" rx="2.5" ry="2.5" style="stroke:#000000;stroke-width:1.5;" width="507" x="782" y="407.3883"/><text fill="#000000" font-family="sans-serif" font-size="14" font-weight="bold" lengthAdjust="spacing" textLength="143.9854" x="963.5073" y="422.9234">Infrastructure Layer</text></g><!--cluster DTOs--><g class="cluster" data-entity="DTOs" data-source-line="75" data-uid="ent0016" id="cluster_DTOs"><rect fill="none" height="247.4" rx="2.5" ry="2.5" style="stroke:#000000;stroke-width:1.5;" width="721" x="1283" y="819.7583"/><text fill="#000000" font-family="sans-serif" font-size="14" font-weight="bold" lengthAdjust="spacing" textLength="40.2021" x="1623.3989" y="835.2934">DTOs</text></g><!--class VesselVisitNotificationController--><g class="entity" data-entity="VesselVisitNotificationController" data-source-line="8" data-uid="ent0003" id="entity_VesselVisitNotificationController"><rect fill="#F1F1F1" height="80.9766" rx="2.5" ry="2.5" style="stroke:#181818;stroke-width:0.5;" width="574.8779" x="689.56" y="79.4883"/><ellipse cx="862.8749" cy="95.4883" fill="#ADD1B2" rx="11" ry="11" style="stroke:#181818;stroke-width:1;"/><path d="M865.8481,101.1313 Q865.267,101.4302 864.6279,101.5796 Q863.9887,101.729 863.2831,101.729 Q860.7763,101.729 859.4565,100.0771 Q858.1367,98.4253 858.1367,95.3042 Q858.1367,92.1748 859.4565,90.5229 Q860.7763,88.8711 863.2831,88.8711 Q863.9887,88.8711 864.6362,89.0205 Q865.2836,89.1699 865.8481,89.4688 L865.8481,92.1914 Q865.2172,91.6104 864.6237,91.3406 Q864.0302,91.0708 863.3994,91.0708 Q862.0546,91.0708 861.3698,92.1375 Q860.685,93.2041 860.685,95.3042 Q860.685,97.396 861.3698,98.4626 Q862.0546,99.5293 863.3994,99.5293 Q864.0302,99.5293 864.6237,99.2595 Q865.2172,98.9897 865.8481,98.4087 Z " fill="#000000"/><text fill="#000000" font-family="sans-serif" font-size="14" lengthAdjust="spacing" textLength="219.748" x="883.3749" y="100.7793">VesselVisitNotificationController</text><line style="stroke:#181818;stroke-width:0.5;" x1="690.56" x2="1263.4379" y1="111.4883" y2="111.4883"/><line style="stroke:#181818;stroke-width:0.5;" x1="690.56" x2="1263.4379" y1="119.4883" y2="119.4883"/><text fill="#000000" font-family="sans-serif" font-size="14" lengthAdjust="spacing" textLength="562.8779" x="695.56" y="137.0234">+CreateAsync(dto : CreatingVesselVisitNotificationDto) : VesselVisitNotificationDto</text><text fill="#000000" font-family="sans-serif" font-size="14" lengthAdjust="spacing" textLength="318.6094" x="695.56" y="153.5117">+GetById(id : Guid) : VesselVisitNotificationDto</text></g><!--class VesselVisitNotificationService--><g class="entity" data-entity="VesselVisitNotificationService" data-source-line="13" data-uid="ent0004" id="entity_VesselVisitNotificationService"><rect fill="#F1F1F1" height="146.9297" rx="2.5" ry="2.5" style="stroke:#181818;stroke-width:0.5;" width="558.1777" x="697.91" y="220.4583"/><ellipse cx="873.2894" cy="236.4583" fill="#ADD1B2" rx="11" ry="11" style="stroke:#181818;stroke-width:1;"/><path d="M876.2625,242.1013 Q875.6815,242.4002 875.0423,242.5496 Q874.4032,242.699 873.6976,242.699 Q871.1908,242.699 869.8709,241.0471 Q868.5511,239.3953 868.5511,236.2742 Q868.5511,233.1448 869.8709,231.4929 Q871.1908,229.8411 873.6976,229.8411 Q874.4032,229.8411 875.0506,229.9905 Q875.6981,230.1399 876.2625,230.4387 L876.2625,233.1614 Q875.6317,232.5804 875.0382,232.3106 Q874.4447,232.0408 873.8138,232.0408 Q872.4691,232.0408 871.7843,233.1075 Q871.0995,234.1741 871.0995,236.2742 Q871.0995,238.366 871.7843,239.4326 Q872.4691,240.4993 873.8138,240.4993 Q874.4447,240.4993 875.0382,240.2295 Q875.6317,239.9597 876.2625,239.3787 Z " fill="#000000"/><text fill="#000000" font-family="sans-serif" font-size="14" lengthAdjust="spacing" textLength="198.9189" x="893.7894" y="241.7493">VesselVisitNotificationService</text><line style="stroke:#181818;stroke-width:0.5;" x1="698.91" x2="1255.0877" y1="252.4583" y2="252.4583"/><line style="stroke:#181818;stroke-width:0.5;" x1="698.91" x2="1255.0877" y1="260.4583" y2="260.4583"/><text fill="#000000" font-family="sans-serif" font-size="14" lengthAdjust="spacing" textLength="546.1777" x="703.91" y="277.9934">+AddAsync(dto : CreatingVesselVisitNotificationDto) : VesselVisitNotificationDto</text><text fill="#000000" font-family="sans-serif" font-size="14" lengthAdjust="spacing" textLength="491.3467" x="703.91" y="294.4817">+GetByIdAsync(id : VesselVisitNotificationId) : VesselVisitNotificationDto</text><text fill="#000000" font-family="sans-serif" font-size="14" lengthAdjust="spacing" textLength="140.1982" x="703.91" y="310.97">-CreateTasksAsync()</text><text fill="#000000" font-family="sans-serif" font-size="14" lengthAdjust="spacing" textLength="199.4795" x="703.91" y="327.4583">-CreateCargoManifestAsync()</text><text fill="#000000" font-family="sans-serif" font-size="14" lengthAdjust="spacing" textLength="193.0059" x="703.91" y="343.9466">-CreateCrewManifestAsync()</text><text fill="#000000" font-family="sans-serif" font-size="14" lengthAdjust="spacing" textLength="155.6611" x="703.91" y="360.4348">-CheckForVesselInDb()</text></g><!--class VesselVisitNotification--><g class="entity" data-entity="VesselVisitNotification" data-source-line="24" data-uid="ent0006" id="entity_VesselVisitNotification"><rect fill="#F1F1F1" height="361.2773" rx="2.5" ry="2.5" style="stroke:#181818;stroke-width:0.5;" width="298.0635" x="944.97" y="772.3183"/><ellipse cx="1013.9583" cy="788.3183" fill="#ADD1B2" rx="11" ry="11" style="stroke:#181818;stroke-width:1;"/><path d="M1016.9314,793.9613 Q1016.3504,794.2602 1015.7112,794.4096 Q1015.0721,794.559 1014.3665,794.559 Q1011.8596,794.559 1010.5398,792.9071 Q1009.22,791.2553 1009.22,788.1342 Q1009.22,785.0048 1010.5398,783.3529 Q1011.8596,781.7011 1014.3665,781.7011 Q1015.0721,781.7011 1015.7195,781.8505 Q1016.367,781.9999 1016.9314,782.2987 L1016.9314,785.0214 Q1016.3006,784.4404 1015.7071,784.1706 Q1015.1136,783.9008 1014.4827,783.9008 Q1013.138,783.9008 1012.4532,784.9675 Q1011.7683,786.0341 1011.7683,788.1342 Q1011.7683,790.226 1012.4532,791.2926 Q1013.138,792.3593 1014.4827,792.3593 Q1015.1136,792.3593 1015.7071,792.0895 Q1016.3006,791.8197 1016.9314,791.2387 Z " fill="#000000"/><text fill="#000000" font-family="sans-serif" font-size="14" lengthAdjust="spacing" textLength="151.5869" x="1034.4583" y="793.6093">VesselVisitNotification</text><line style="stroke:#181818;stroke-width:0.5;" x1="945.97" x2="1242.0335" y1="804.3183" y2="804.3183"/><text fill="#000000" font-family="sans-serif" font-size="14" lengthAdjust="spacing" textLength="198.6797" x="950.97" y="821.8534">-id : VesselVisitNotificationId</text><text fill="#000000" font-family="sans-serif" font-size="14" lengthAdjust="spacing" textLength="113.7568" x="950.97" y="838.3417">-code : VvnCode</text><text fill="#000000" font-family="sans-serif" font-size="14" lengthAdjust="spacing" textLength="237.6719" x="950.97" y="854.83">-estimatedTimeArrival : ClockTime</text><text fill="#000000" font-family="sans-serif" font-size="14" lengthAdjust="spacing" textLength="261.4951" x="950.97" y="871.3183">-estimatedTimeDeparture : ClockTime</text><text fill="#000000" font-family="sans-serif" font-size="14" lengthAdjust="spacing" textLength="211.4082" x="950.97" y="887.8066">-actualTimeArrival : ClockTime</text><text fill="#000000" font-family="sans-serif" font-size="14" lengthAdjust="spacing" textLength="235.2314" x="950.97" y="904.2948">-actualTimeDeparture : ClockTime</text><text fill="#000000" font-family="sans-serif" font-size="14" lengthAdjust="spacing" textLength="88.8125" x="950.97" y="920.7831">-volume : int</text><text fill="#000000" font-family="sans-serif" font-size="14" lengthAdjust="spacing" textLength="129.2129" x="950.97" y="937.2714">-status : VvnStatus</text><text fill="#000000" font-family="sans-serif" font-size="14" lengthAdjust="spacing" textLength="255.9512" x="950.97" y="953.7597">-documents : PdfDocumentCollection</text><text fill="#000000" font-family="sans-serif" font-size="14" lengthAdjust="spacing" textLength="202.125" x="950.97" y="970.248">-listDocks : List&lt;EntityDock&gt;</text><text fill="#000000" font-family="sans-serif" font-size="14" lengthAdjust="spacing" textLength="202.5693" x="950.97" y="986.7362">-crewManifest : CrewManifest</text><text fill="#000000" font-family="sans-serif" font-size="14" lengthAdjust="spacing" textLength="268.6865" x="950.97" y="1003.2245">-loadingCargoManifest : CargoManifest</text><text fill="#000000" font-family="sans-serif" font-size="14" lengthAdjust="spacing" textLength="286.0635" x="950.97" y="1019.7128">-unloadingCargoManifest : CargoManifest</text><text fill="#000000" font-family="sans-serif" font-size="14" lengthAdjust="spacing" textLength="168.4033" x="950.97" y="1036.2011">-vesselImo : ImoNumber</text><text fill="#000000" font-family="sans-serif" font-size="14" lengthAdjust="spacing" textLength="172.9697" x="950.97" y="1052.6894">-tasks : List&lt;EntityTask&gt;</text><line style="stroke:#181818;stroke-width:0.5;" x1="945.97" x2="1242.0335" y1="1059.6425" y2="1059.6425"/><text fill="#000000" font-family="sans-serif" font-size="14" lengthAdjust="spacing" textLength="67.6279" x="950.97" y="1077.1777">+Submit()</text><text fill="#000000" font-family="sans-serif" font-size="14" lengthAdjust="spacing" textLength="83.2412" x="950.97" y="1093.6659">+Withdraw()</text><text fill="#000000" font-family="sans-serif" font-size="14" lengthAdjust="spacing" textLength="66.083" x="950.97" y="1110.1542">+Accept()</text><text fill="#000000" font-family="sans-serif" font-size="14" lengthAdjust="spacing" textLength="73.582" x="950.97" y="1126.6425">+Resume()</text></g><!--class VesselVisitNotificationFactory--><g class="entity" data-entity="VesselVisitNotificationFactory" data-source-line="46" data-uid="ent0007" id="entity_VesselVisitNotificationFactory"><rect fill="#F1F1F1" height="80.9766" rx="2.5" ry="2.5" style="stroke:#181818;stroke-width:0.5;" width="629.3809" x="23.31" y="623.0983"/><ellipse cx="233.3134" cy="639.0983" fill="#ADD1B2" rx="11" ry="11" style="stroke:#181818;stroke-width:1;"/><path d="M236.2866,644.7413 Q235.7055,645.0402 235.0663,645.1896 Q234.4272,645.339 233.7216,645.339 Q231.2148,645.339 229.895,643.6871 Q228.5751,642.0353 228.5751,638.9142 Q228.5751,635.7848 229.895,634.1329 Q231.2148,632.4811 233.7216,632.4811 Q234.4272,632.4811 235.0746,632.6305 Q235.7221,632.7799 236.2866,633.0787 L236.2866,635.8014 Q235.6557,635.2204 235.0622,634.9506 Q234.4687,634.6808 233.8378,634.6808 Q232.4931,634.6808 231.8083,635.7475 Q231.1235,636.8141 231.1235,638.9142 Q231.1235,641.006 231.8083,642.0726 Q232.4931,643.1393 233.8378,643.1393 Q234.4687,643.1393 235.0622,642.8695 Q235.6557,642.5997 236.2866,642.0187 Z " fill="#000000"/><text fill="#000000" font-family="sans-serif" font-size="14" lengthAdjust="spacing" textLength="200.874" x="253.8134" y="644.3893">VesselVisitNotificationFactory</text><line style="stroke:#181818;stroke-width:0.5;" x1="24.31" x2="651.6909" y1="655.0983" y2="655.0983"/><line style="stroke:#181818;stroke-width:0.5;" x1="24.31" x2="651.6909" y1="663.0983" y2="663.0983"/><text fill="#000000" font-family="sans-serif" font-size="14" lengthAdjust="spacing" textLength="599.2246" x="29.31" y="680.6334">+CreateVesselVisitNotification(code : VvnCode, eta : string, etd : string, volume : int, ...)</text><text fill="#000000" font-family="sans-serif" font-size="14" lengthAdjust="spacing" textLength="617.3809" x="29.31" y="697.1217">+CreateVesselVisitNotificationDto(vvn : VesselVisitNotification) : VesselVisitNotificationDto</text></g><!--class IVesselVisitNotificationRepository--><g class="entity" data-entity="IVesselVisitNotificationRepository" data-source-line="51" data-uid="ent0008" id="entity_IVesselVisitNotificationRepository"><rect fill="#F1F1F1" height="97.4648" rx="2.5" ry="2.5" style="stroke:#181818;stroke-width:0.5;" width="324.1289" x="687.94" y="614.8583"/><ellipse cx="731.9123" cy="630.8583" fill="#B4A7E5" rx="11" ry="11" style="stroke:#181818;stroke-width:1;"/><path d="M727.84,626.6234 L727.84,624.4652 L735.2194,624.4652 L735.2194,626.6234 L732.7541,626.6234 L732.7541,634.7001 L735.2194,634.7001 L735.2194,636.8583 L727.84,636.8583 L727.84,634.7001 L730.3053,634.7001 L730.3053,626.6234 Z " fill="#000000"/><text fill="#000000" font-family="sans-serif" font-size="14" font-style="italic" lengthAdjust="spacing" textLength="227.7461" x="752.3505" y="636.1493">IVesselVisitNotificationRepository</text><line style="stroke:#181818;stroke-width:0.5;" x1="688.94" x2="1011.0689" y1="646.8583" y2="646.8583"/><line style="stroke:#181818;stroke-width:0.5;" x1="688.94" x2="1011.0689" y1="654.8583" y2="654.8583"/><text fill="#000000" font-family="sans-serif" font-size="14" lengthAdjust="spacing" textLength="275.543" x="693.94" y="672.3934">+AddAsync(vvn : VesselVisitNotification)</text><text fill="#000000" font-family="sans-serif" font-size="14" lengthAdjust="spacing" textLength="302.1484" x="693.94" y="688.8817">+GetByIdAsync(id : VesselVisitNotificationId)</text><text fill="#000000" font-family="sans-serif" font-size="14" lengthAdjust="spacing" textLength="312.1289" x="693.94" y="705.37">+GetAllAsync() : List&lt;VesselVisitNotification&gt;</text></g><!--class VesselVisitNotificationId--><g class="entity" data-entity="VesselVisitNotificationId" data-source-line="57" data-uid="ent0009" id="entity_VesselVisitNotificationId"><rect fill="#F1F1F1" height="48" rx="2.5" ry="2.5" style="stroke:#181818;stroke-width:0.5;" width="196.4316" x="1046.78" y="639.5883"/><ellipse cx="1061.78" cy="655.5883" fill="#ADD1B2" rx="11" ry="11" style="stroke:#181818;stroke-width:1;"/><path d="M1064.7531,661.2313 Q1064.1721,661.5302 1063.5329,661.6796 Q1062.8938,661.829 1062.1882,661.829 Q1059.6814,661.829 1058.3615,660.1771 Q1057.0417,658.5253 1057.0417,655.4042 Q1057.0417,652.2748 1058.3615,650.6229 Q1059.6814,648.9711 1062.1882,648.9711 Q1062.8938,648.9711 1063.5412,649.1205 Q1064.1887,649.2699 1064.7531,649.5687 L1064.7531,652.2914 Q1064.1223,651.7104 1063.5288,651.4406 Q1062.9353,651.1708 1062.3044,651.1708 Q1060.9597,651.1708 1060.2749,652.2375 Q1059.5901,653.3041 1059.5901,655.4042 Q1059.5901,657.496 1060.2749,658.5626 Q1060.9597,659.6293 1062.3044,659.6293 Q1062.9353,659.6293 1063.5288,659.3595 Q1064.1223,659.0897 1064.7531,658.5087 Z " fill="#000000"/><text fill="#000000" font-family="sans-serif" font-size="14" lengthAdjust="spacing" textLength="164.4316" x="1075.78" y="660.8793">VesselVisitNotificationId</text><line style="stroke:#181818;stroke-width:0.5;" x1="1047.78" x2="1242.2116" y1="671.5883" y2="671.5883"/><line style="stroke:#181818;stroke-width:0.5;" x1="1047.78" x2="1242.2116" y1="679.5883" y2="679.5883"/></g><!--class VvnCode--><g class="entity" data-entity="VvnCode" data-source-line="58" data-uid="ent0010" id="entity_VvnCode"><rect fill="#F1F1F1" height="48" rx="2.5" ry="2.5" style="stroke:#181818;stroke-width:0.5;" width="91.9854" x="862.01" y="1193.5983"/><ellipse cx="877.01" cy="1209.5983" fill="#ADD1B2" rx="11" ry="11" style="stroke:#181818;stroke-width:1;"/><path d="M879.9831,1215.2413 Q879.4021,1215.5402 878.7629,1215.6896 Q878.1238,1215.839 877.4182,1215.839 Q874.9114,1215.839 873.5915,1214.1871 Q872.2717,1212.5353 872.2717,1209.4142 Q872.2717,1206.2848 873.5915,1204.6329 Q874.9114,1202.9811 877.4182,1202.9811 Q878.1238,1202.9811 878.7712,1203.1305 Q879.4187,1203.2799 879.9831,1203.5788 L879.9831,1206.3014 Q879.3523,1205.7204 878.7588,1205.4506 Q878.1653,1205.1808 877.5344,1205.1808 Q876.1897,1205.1808 875.5049,1206.2475 Q874.8201,1207.3141 874.8201,1209.4142 Q874.8201,1211.506 875.5049,1212.5726 Q876.1897,1213.6393 877.5344,1213.6393 Q878.1653,1213.6393 878.7588,1213.3695 Q879.3523,1213.0997 879.9831,1212.5187 Z " fill="#000000"/><text fill="#000000" font-family="sans-serif" font-size="14" lengthAdjust="spacing" textLength="59.9854" x="891.01" y="1214.8893">VvnCode</text><line style="stroke:#181818;stroke-width:0.5;" x1="863.01" x2="952.9954" y1="1225.5983" y2="1225.5983"/><line style="stroke:#181818;stroke-width:0.5;" x1="863.01" x2="952.9954" y1="1233.5983" y2="1233.5983"/></g><!--class ClockTime--><g class="entity" data-entity="ClockTime" data-source-line="59" data-uid="ent0011" id="entity_ClockTime"><rect fill="#F1F1F1" height="48" rx="2.5" ry="2.5" style="stroke:#181818;stroke-width:0.5;" width="103.4561" x="989.27" y="1193.5983"/><ellipse cx="1004.27" cy="1209.5983" fill="#ADD1B2" rx="11" ry="11" style="stroke:#181818;stroke-width:1;"/><path d="M1007.2431,1215.2413 Q1006.6621,1215.5402 1006.0229,1215.6896 Q1005.3838,1215.839 1004.6782,1215.839 Q1002.1714,1215.839 1000.8515,1214.1871 Q999.5317,1212.5353 999.5317,1209.4142 Q999.5317,1206.2848 1000.8515,1204.6329 Q1002.1714,1202.9811 1004.6782,1202.9811 Q1005.3838,1202.9811 1006.0312,1203.1305 Q1006.6787,1203.2799 1007.2431,1203.5788 L1007.2431,1206.3014 Q1006.6123,1205.7204 1006.0188,1205.4506 Q1005.4253,1205.1808 1004.7944,1205.1808 Q1003.4497,1205.1808 1002.7649,1206.2475 Q1002.0801,1207.3141 1002.0801,1209.4142 Q1002.0801,1211.506 1002.7649,1212.5726 Q1003.4497,1213.6393 1004.7944,1213.6393 Q1005.4253,1213.6393 1006.0188,1213.3695 Q1006.6123,1213.0997 1007.2431,1212.5187 Z " fill="#000000"/><text fill="#000000" font-family="sans-serif" font-size="14" lengthAdjust="spacing" textLength="71.4561" x="1018.27" y="1214.8893">ClockTime</text><line style="stroke:#181818;stroke-width:0.5;" x1="990.27" x2="1091.7261" y1="1225.5983" y2="1225.5983"/><line style="stroke:#181818;stroke-width:0.5;" x1="990.27" x2="1091.7261" y1="1233.5983" y2="1233.5983"/></g><!--class ImoNumber--><g class="entity" data-entity="ImoNumber" data-source-line="60" data-uid="ent0012" id="entity_ImoNumber"><rect fill="#F1F1F1" height="48" rx="2.5" ry="2.5" style="stroke:#181818;stroke-width:0.5;" width="112.1445" x="1127.93" y="1193.5983"/><ellipse cx="1142.93" cy="1209.5983" fill="#ADD1B2" rx="11" ry="11" style="stroke:#181818;stroke-width:1;"/><path d="M1145.9031,1215.2413 Q1145.3221,1215.5402 1144.6829,1215.6896 Q1144.0438,1215.839 1143.3382,1215.839 Q1140.8314,1215.839 1139.5115,1214.1871 Q1138.1917,1212.5353 1138.1917,1209.4142 Q1138.1917,1206.2848 1139.5115,1204.6329 Q1140.8314,1202.9811 1143.3382,1202.9811 Q1144.0438,1202.9811 1144.6912,1203.1305 Q1145.3387,1203.2799 1145.9031,1203.5788 L1145.9031,1206.3014 Q1145.2723,1205.7204 1144.6788,1205.4506 Q1144.0853,1205.1808 1143.4544,1205.1808 Q1142.1097,1205.1808 1141.4249,1206.2475 Q1140.7401,1207.3141 1140.7401,1209.4142 Q1140.7401,1211.506 1141.4249,1212.5726 Q1142.1097,1213.6393 1143.4544,1213.6393 Q1144.0853,1213.6393 1144.6788,1213.3695 Q1145.2723,1213.0997 1145.9031,1212.5187 Z " fill="#000000"/><text fill="#000000" font-family="sans-serif" font-size="14" lengthAdjust="spacing" textLength="80.1445" x="1156.93" y="1214.8893">ImoNumber</text><line style="stroke:#181818;stroke-width:0.5;" x1="1128.93" x2="1239.0745" y1="1225.5983" y2="1225.5983"/><line style="stroke:#181818;stroke-width:0.5;" x1="1128.93" x2="1239.0745" y1="1233.5983" y2="1233.5983"/></g><!--class VesselVisitNotificationRepository--><g class="entity" data-entity="VesselVisitNotificationRepository" data-source-line="64" data-uid="ent0014" id="entity_VesselVisitNotificationRepository"><rect fill="#F1F1F1" height="97.4648" rx="2.5" ry="2.5" style="stroke:#181818;stroke-width:0.5;" width="314.1484" x="797.93" y="442.3883"/><ellipse cx="839.226" cy="458.3883" fill="#ADD1B2" rx="11" ry="11" style="stroke:#181818;stroke-width:1;"/><path d="M842.1991,464.0313 Q841.6181,464.3302 840.9789,464.4796 Q840.3398,464.629 839.6342,464.629 Q837.1274,464.629 835.8075,462.9771 Q834.4877,461.3253 834.4877,458.2042 Q834.4877,455.0748 835.8075,453.4229 Q837.1274,451.7711 839.6342,451.7711 Q840.3398,451.7711 840.9872,451.9205 Q841.6347,452.0699 842.1991,452.3687 L842.1991,455.0914 Q841.5683,454.5104 840.9748,454.2406 Q840.3813,453.9708 839.7504,453.9708 Q838.4057,453.9708 837.7209,455.0375 Q837.0361,456.1041 837.0361,458.2042 Q837.0361,460.296 837.7209,461.3626 Q838.4057,462.4293 839.7504,462.4293 Q840.3813,462.4293 840.9748,462.1595 Q841.5683,461.8897 842.1991,461.3087 Z " fill="#000000"/><text fill="#000000" font-family="sans-serif" font-size="14" lengthAdjust="spacing" textLength="223.7129" x="859.0696" y="463.6793">VesselVisitNotificationRepository</text><line style="stroke:#181818;stroke-width:0.5;" x1="798.93" x2="1111.0784" y1="474.3883" y2="474.3883"/><text fill="#000000" font-family="sans-serif" font-size="14" lengthAdjust="spacing" textLength="238.7998" x="803.93" y="491.9234">-_context : DddSample1DbContext</text><line style="stroke:#181818;stroke-width:0.5;" x1="798.93" x2="1111.0784" y1="498.8766" y2="498.8766"/><text fill="#000000" font-family="sans-serif" font-size="14" lengthAdjust="spacing" textLength="275.543" x="803.93" y="516.4117">+AddAsync(vvn : VesselVisitNotification)</text><text fill="#000000" font-family="sans-serif" font-size="14" lengthAdjust="spacing" textLength="302.1484" x="803.93" y="532.9">+GetByIdAsync(id : VesselVisitNotificationId)</text></g><!--class UnitOfWork--><g class="entity" data-entity="UnitOfWork" data-source-line="70" data-uid="ent0015" id="entity_UnitOfWork"><rect fill="#F1F1F1" height="64.4883" rx="2.5" ry="2.5" style="stroke:#181818;stroke-width:0.5;" width="125.9141" x="1147.04" y="458.8783"/><ellipse cx="1169.1192" cy="474.8783" fill="#ADD1B2" rx="11" ry="11" style="stroke:#181818;stroke-width:1;"/><path d="M1172.0923,480.5213 Q1171.5112,480.8202 1170.8721,480.9696 Q1170.2329,481.119 1169.5274,481.119 Q1167.0205,481.119 1165.7007,479.4671 Q1164.3809,477.8153 1164.3809,474.6942 Q1164.3809,471.5648 1165.7007,469.9129 Q1167.0205,468.2611 1169.5274,468.2611 Q1170.2329,468.2611 1170.8804,468.4105 Q1171.5278,468.5599 1172.0923,468.8587 L1172.0923,471.5814 Q1171.4614,471.0004 1170.8679,470.7306 Q1170.2744,470.4608 1169.6436,470.4608 Q1168.2988,470.4608 1167.614,471.5275 Q1166.9292,472.5941 1166.9292,474.6942 Q1166.9292,476.786 1167.614,477.8526 Q1168.2988,478.9193 1169.6436,478.9193 Q1170.2744,478.9193 1170.8679,478.6495 Q1171.4614,478.3797 1172.0923,477.7987 Z " fill="#000000"/><text fill="#000000" font-family="sans-serif" font-size="14" lengthAdjust="spacing" textLength="78.1826" x="1184.6923" y="480.1693">UnitOfWork</text><line style="stroke:#181818;stroke-width:0.5;" x1="1148.04" x2="1271.9541" y1="490.8783" y2="490.8783"/><line style="stroke:#181818;stroke-width:0.5;" x1="1148.04" x2="1271.9541" y1="498.8783" y2="498.8783"/><text fill="#000000" font-family="sans-serif" font-size="14" lengthAdjust="spacing" textLength="113.9141" x="1153.04" y="516.4134">+CommitAsync()</text></g><!--class CreatingVesselVisitNotificationDto--><g class="entity" data-entity="CreatingVesselVisitNotificationDto" data-source-line="76" data-uid="ent0017" id="entity_CreatingVesselVisitNotificationDto"><rect fill="#F1F1F1" height="196.3945" rx="2.5" ry="2.5" style="stroke:#181818;stroke-width:0.5;" width="384.0732" x="1603.96" y="854.7583"/><ellipse cx="1674.9683" cy="870.7583" fill="#ADD1B2" rx="11" ry="11" style="stroke:#181818;stroke-width:1;"/><path d="M1677.9414,876.4013 Q1677.3604,876.7002 1676.7212,876.8496 Q1676.0821,876.999 1675.3765,876.999 Q1672.8697,876.999 1671.5498,875.3471 Q1670.23,873.6953 1670.23,870.5742 Q1670.23,867.4448 1671.5498,865.7929 Q1672.8697,864.1411 1675.3765,864.1411 Q1676.0821,864.1411 1676.7295,864.2905 Q1677.377,864.4399 1677.9414,864.7388 L1677.9414,867.4614 Q1677.3106,866.8804 1676.7171,866.6106 Q1676.1236,866.3408 1675.4927,866.3408 Q1674.148,866.3408 1673.4632,867.4075 Q1672.7784,868.4741 1672.7784,870.5742 Q1672.7784,872.666 1673.4632,873.7326 Q1674.148,874.7993 1675.4927,874.7993 Q1676.1236,874.7993 1676.7171,874.5295 Q1677.3106,874.2597 1677.9414,873.6787 Z " fill="#000000"/><text fill="#000000" font-family="sans-serif" font-size="14" lengthAdjust="spacing" textLength="233.5566" x="1695.4683" y="876.0493">CreatingVesselVisitNotificationDto</text><line style="stroke:#181818;stroke-width:0.5;" x1="1604.96" x2="1987.0332" y1="886.7583" y2="886.7583"/><text fill="#000000" font-family="sans-serif" font-size="14" lengthAdjust="spacing" textLength="208.5986" x="1609.96" y="904.2934">+EstimatedTimeArrival : string</text><text fill="#000000" font-family="sans-serif" font-size="14" lengthAdjust="spacing" textLength="232.4219" x="1609.96" y="920.7817">+EstimatedTimeDeparture : string</text><text fill="#000000" font-family="sans-serif" font-size="14" lengthAdjust="spacing" textLength="93.748" x="1609.96" y="937.27">+Volume : int</text><text fill="#000000" font-family="sans-serif" font-size="14" lengthAdjust="spacing" textLength="140.8613" x="1609.96" y="953.7583">+Documents : string</text><text fill="#000000" font-family="sans-serif" font-size="14" lengthAdjust="spacing" textLength="175.5879" x="1609.96" y="970.2466">+ListDocks : List&lt;string&gt;</text><text fill="#000000" font-family="sans-serif" font-size="14" lengthAdjust="spacing" textLength="290.083" x="1609.96" y="986.7348">+CrewManifest : CreatingCrewManifestDto</text><text fill="#000000" font-family="sans-serif" font-size="14" lengthAdjust="spacing" textLength="357.1025" x="1609.96" y="1003.2231">+LoadingCargoManifest : CreatingCargoManifestDto</text><text fill="#000000" font-family="sans-serif" font-size="14" lengthAdjust="spacing" textLength="372.0732" x="1609.96" y="1019.7114">+UnloadingCargoManifest : CreatingCargoManifestDto</text><text fill="#000000" font-family="sans-serif" font-size="14" lengthAdjust="spacing" textLength="132.7607" x="1609.96" y="1036.1997">+VesselImo : string</text><line style="stroke:#181818;stroke-width:0.5;" x1="1604.96" x2="1987.0332" y1="1043.1528" y2="1043.1528"/></g><!--class VesselVisitNotificationDto--><g class="entity" data-entity="VesselVisitNotificationDto" data-source-line="88" data-uid="ent0018" id="entity_VesselVisitNotificationDto"><rect fill="#F1F1F1" height="146.9297" rx="2.5" ry="2.5" style="stroke:#181818;stroke-width:0.5;" width="269.8789" x="1299.06" y="879.4983"/><ellipse cx="1341.9464" cy="895.4983" fill="#ADD1B2" rx="11" ry="11" style="stroke:#181818;stroke-width:1;"/><path d="M1344.9195,901.1413 Q1344.3385,901.4402 1343.6993,901.5896 Q1343.0601,901.739 1342.3546,901.739 Q1339.8477,901.739 1338.5279,900.0871 Q1337.2081,898.4353 1337.2081,895.3142 Q1337.2081,892.1848 1338.5279,890.5329 Q1339.8477,888.8811 1342.3546,888.8811 Q1343.0601,888.8811 1343.7076,889.0305 Q1344.3551,889.1799 1344.9195,889.4787 L1344.9195,892.2014 Q1344.2887,891.6204 1343.6952,891.3506 Q1343.1017,891.0808 1342.4708,891.0808 Q1341.1261,891.0808 1340.4412,892.1475 Q1339.7564,893.2141 1339.7564,895.3142 Q1339.7564,897.406 1340.4412,898.4726 Q1341.1261,899.5393 1342.4708,899.5393 Q1343.1017,899.5393 1343.6952,899.2695 Q1344.2887,898.9997 1344.9195,898.4187 Z " fill="#000000"/><text fill="#000000" font-family="sans-serif" font-size="14" lengthAdjust="spacing" textLength="175.9092" x="1362.1433" y="900.7893">VesselVisitNotificationDto</text><line style="stroke:#181818;stroke-width:0.5;" x1="1300.06" x2="1567.9389" y1="911.4983" y2="911.4983"/><text fill="#000000" font-family="sans-serif" font-size="14" lengthAdjust="spacing" textLength="76.8291" x="1305.06" y="929.0334">+Id : string</text><text fill="#000000" font-family="sans-serif" font-size="14" lengthAdjust="spacing" textLength="98.8818" x="1305.06" y="945.5217">+Code : string</text><text fill="#000000" font-family="sans-serif" font-size="14" lengthAdjust="spacing" textLength="234.0557" x="1305.06" y="962.01">+EstimatedTimeArrival : DateTime</text><text fill="#000000" font-family="sans-serif" font-size="14" lengthAdjust="spacing" textLength="257.8789" x="1305.06" y="978.4983">+EstimatedTimeDeparture : DateTime</text><text fill="#000000" font-family="sans-serif" font-size="14" lengthAdjust="spacing" textLength="93.748" x="1305.06" y="994.9866">+Volume : int</text><text fill="#000000" font-family="sans-serif" font-size="14" lengthAdjust="spacing" textLength="132.6445" x="1305.06" y="1011.4748">+Status : VvnStatus</text><line style="stroke:#181818;stroke-width:0.5;" x1="1300.06" x2="1567.9389" y1="1018.428" y2="1018.428"/></g><!--class EntityTask--><g class="entity" data-entity="EntityTask" data-source-line="110" data-uid="ent0030" id="entity_EntityTask"><rect fill="#F1F1F1" height="48" rx="2.5" ry="2.5" style="stroke:#181818;stroke-width:0.5;" width="102.0137" x="1274.99" y="1193.5983"/><ellipse cx="1289.99" cy="1209.5983" fill="#ADD1B2" rx="11" ry="11" style="stroke:#181818;stroke-width:1;"/><path d="M1292.9631,1215.2413 Q1292.3821,1215.5402 1291.7429,1215.6896 Q1291.1038,1215.839 1290.3982,1215.839 Q1287.8914,1215.839 1286.5715,1214.1871 Q1285.2517,1212.5353 1285.2517,1209.4142 Q1285.2517,1206.2848 1286.5715,1204.6329 Q1287.8914,1202.9811 1290.3982,1202.9811 Q1291.1038,1202.9811 1291.7512,1203.1305 Q1292.3987,1203.2799 1292.9631,1203.5788 L1292.9631,1206.3014 Q1292.3323,1205.7204 1291.7388,1205.4506 Q1291.1453,1205.1808 1290.5144,1205.1808 Q1289.1697,1205.1808 1288.4849,1206.2475 Q1287.8001,1207.3141 1287.8001,1209.4142 Q1287.8001,1211.506 1288.4849,1212.5726 Q1289.1697,1213.6393 1290.5144,1213.6393 Q1291.1453,1213.6393 1291.7388,1213.3695 Q1292.3323,1213.0997 1292.9631,1212.5187 Z " fill="#000000"/><text fill="#000000" font-family="sans-serif" font-size="14" lengthAdjust="spacing" textLength="70.0137" x="1303.99" y="1214.8893">EntityTask</text><line style="stroke:#181818;stroke-width:0.5;" x1="1275.99" x2="1376.0037" y1="1225.5983" y2="1225.5983"/><line style="stroke:#181818;stroke-width:0.5;" x1="1275.99" x2="1376.0037" y1="1233.5983" y2="1233.5983"/></g><!--class CrewManifest--><g class="entity" data-entity="CrewManifest" data-source-line="111" data-uid="ent0032" id="entity_CrewManifest"><rect fill="#F1F1F1" height="48" rx="2.5" ry="2.5" style="stroke:#181818;stroke-width:0.5;" width="123.8477" x="1412.08" y="1193.5983"/><ellipse cx="1427.08" cy="1209.5983" fill="#ADD1B2" rx="11" ry="11" style="stroke:#181818;stroke-width:1;"/><path d="M1430.0531,1215.2413 Q1429.4721,1215.5402 1428.8329,1215.6896 Q1428.1938,1215.839 1427.4882,1215.839 Q1424.9814,1215.839 1423.6615,1214.1871 Q1422.3417,1212.5353 1422.3417,1209.4142 Q1422.3417,1206.2848 1423.6615,1204.6329 Q1424.9814,1202.9811 1427.4882,1202.9811 Q1428.1938,1202.9811 1428.8412,1203.1305 Q1429.4887,1203.2799 1430.0531,1203.5788 L1430.0531,1206.3014 Q1429.4223,1205.7204 1428.8288,1205.4506 Q1428.2353,1205.1808 1427.6044,1205.1808 Q1426.2597,1205.1808 1425.5749,1206.2475 Q1424.8901,1207.3141 1424.8901,1209.4142 Q1424.8901,1211.506 1425.5749,1212.5726 Q1426.2597,1213.6393 1427.6044,1213.6393 Q1428.2353,1213.6393 1428.8288,1213.3695 Q1429.4223,1213.0997 1430.0531,1212.5187 Z " fill="#000000"/><text fill="#000000" font-family="sans-serif" font-size="14" lengthAdjust="spacing" textLength="91.8477" x="1441.08" y="1214.8893">CrewManifest</text><line style="stroke:#181818;stroke-width:0.5;" x1="1413.08" x2="1534.9277" y1="1225.5983" y2="1225.5983"/><line style="stroke:#181818;stroke-width:0.5;" x1="1413.08" x2="1534.9277" y1="1233.5983" y2="1233.5983"/></g><!--class CargoManifest--><g class="entity" data-entity="CargoManifest" data-source-line="112" data-uid="ent0034" id="entity_CargoManifest"><rect fill="#F1F1F1" height="48" rx="2.5" ry="2.5" style="stroke:#181818;stroke-width:0.5;" width="130.3213" x="1570.84" y="1193.5983"/><ellipse cx="1585.84" cy="1209.5983" fill="#ADD1B2" rx="11" ry="11" style="stroke:#181818;stroke-width:1;"/><path d="M1588.8131,1215.2413 Q1588.2321,1215.5402 1587.5929,1215.6896 Q1586.9538,1215.839 1586.2482,1215.839 Q1583.7414,1215.839 1582.4215,1214.1871 Q1581.1017,1212.5353 1581.1017,1209.4142 Q1581.1017,1206.2848 1582.4215,1204.6329 Q1583.7414,1202.9811 1586.2482,1202.9811 Q1586.9538,1202.9811 1587.6012,1203.1305 Q1588.2487,1203.2799 1588.8131,1203.5788 L1588.8131,1206.3014 Q1588.1823,1205.7204 1587.5888,1205.4506 Q1586.9953,1205.1808 1586.3644,1205.1808 Q1585.0197,1205.1808 1584.3349,1206.2475 Q1583.6501,1207.3141 1583.6501,1209.4142 Q1583.6501,1211.506 1584.3349,1212.5726 Q1585.0197,1213.6393 1586.3644,1213.6393 Q1586.9953,1213.6393 1587.5888,1213.3695 Q1588.1823,1213.0997 1588.8131,1212.5187 Z " fill="#000000"/><text fill="#000000" font-family="sans-serif" font-size="14" lengthAdjust="spacing" textLength="98.3213" x="1599.84" y="1214.8893">CargoManifest</text><line style="stroke:#181818;stroke-width:0.5;" x1="1571.84" x2="1700.1613" y1="1225.5983" y2="1225.5983"/><line style="stroke:#181818;stroke-width:0.5;" x1="1571.84" x2="1700.1613" y1="1233.5983" y2="1233.5983"/></g><!--class EntityDock--><g class="entity" data-entity="EntityDock" data-source-line="113" data-uid="ent0036" id="entity_EntityDock"><rect fill="#F1F1F1" height="48" rx="2.5" ry="2.5" style="stroke:#181818;stroke-width:0.5;" width="104.5498" x="1735.73" y="1193.5983"/><ellipse cx="1750.73" cy="1209.5983" fill="#ADD1B2" rx="11" ry="11" style="stroke:#181818;stroke-width:1;"/><path d="M1753.7031,1215.2413 Q1753.1221,1215.5402 1752.4829,1215.6896 Q1751.8438,1215.839 1751.1382,1215.839 Q1748.6314,1215.839 1747.3115,1214.1871 Q1745.9917,1212.5353 1745.9917,1209.4142 Q1745.9917,1206.2848 1747.3115,1204.6329 Q1748.6314,1202.9811 1751.1382,1202.9811 Q1751.8438,1202.9811 1752.4912,1203.1305 Q1753.1387,1203.2799 1753.7031,1203.5788 L1753.7031,1206.3014 Q1753.0723,1205.7204 1752.4788,1205.4506 Q1751.8853,1205.1808 1751.2544,1205.1808 Q1749.9097,1205.1808 1749.2249,1206.2475 Q1748.5401,1207.3141 1748.5401,1209.4142 Q1748.5401,1211.506 1749.2249,1212.5726 Q1749.9097,1213.6393 1751.2544,1213.6393 Q1751.8853,1213.6393 1752.4788,1213.3695 Q1753.0723,1213.0997 1753.7031,1212.5187 Z " fill="#000000"/><text fill="#000000" font-family="sans-serif" font-size="14" lengthAdjust="spacing" textLength="72.5498" x="1764.73" y="1214.8893">EntityDock</text><line style="stroke:#181818;stroke-width:0.5;" x1="1736.73" x2="1839.2798" y1="1225.5983" y2="1225.5983"/><line style="stroke:#181818;stroke-width:0.5;" x1="1736.73" x2="1839.2798" y1="1233.5983" y2="1233.5983"/></g><!--link VesselVisitNotificationController to VesselVisitNotificationService--><g class="link" data-entity-1="VesselVisitNotificationController" data-entity-2="VesselVisitNotificationService" data-source-line="99" data-uid="lnk19" id="link_VesselVisitNotificationController_VesselVisitNotificationService"><path codeLine="99" d="M977,160.7583 C977,178.4283 977,193.6883 977,213.9783" fill="none" id="VesselVisitNotificationController-to-VesselVisitNotificationService" style="stroke:#181818;stroke-width:1;"/><polygon fill="#181818" points="977,219.9783,981,210.9783,977,214.9783,973,210.9783,977,219.9783" style="stroke:#181818;stroke-width:1;"/><text fill="#000000" font-family="sans-serif" font-size="13" lengthAdjust="spacing" textLength="28.5645" x="948" y="186.9366">uses</text></g><!--link VesselVisitNotificationService to VesselVisitNotificationFactory--><g class="link" data-entity-1="VesselVisitNotificationService" data-entity-2="VesselVisitNotificationFactory" data-source-line="100" data-uid="lnk20" id="link_VesselVisitNotificationService_VesselVisitNotificationFactory"><path codeLine="100" d="M697.65,293.5983 C525.71,293.5983 338,293.5983 338,293.5983 C338,293.5983 338,520.8183 338,616.9383" fill="none" id="VesselVisitNotificationService-to-VesselVisitNotificationFactory" style="stroke:#181818;stroke-width:1;"/><polygon fill="#181818" points="338,622.9383,342,613.9383,338,617.9383,334,613.9383,338,622.9383" style="stroke:#181818;stroke-width:1;"/><text fill="#000000" font-family="sans-serif" font-size="13" lengthAdjust="spacing" textLength="28.5645" x="324.16" y="290.1666">uses</text></g><!--link VesselVisitNotificationService to IVesselVisitNotificationRepository--><g class="link" data-entity-1="VesselVisitNotificationService" data-entity-2="IVesselVisitNotificationRepository" data-source-line="101" data-uid="lnk21" id="link_VesselVisitNotificationService_IVesselVisitNotificationRepository"><path codeLine="101" d="M747.92,367.8483 C747.92,441.1683 747.92,545.4383 747.92,608.5683" fill="none" id="VesselVisitNotificationService-to-IVesselVisitNotificationRepository" style="stroke:#181818;stroke-width:1;"/><polygon fill="#181818" points="747.92,614.5683,751.92,605.5683,747.92,609.5683,743.92,605.5683,747.92,614.5683" style="stroke:#181818;stroke-width:1;"/><text fill="#000000" font-family="sans-serif" font-size="13" lengthAdjust="spacing" textLength="28.5645" x="718.92" y="487.7766">uses</text></g><!--link VesselVisitNotificationService to UnitOfWork--><g class="link" data-entity-1="VesselVisitNotificationService" data-entity-2="UnitOfWork" data-source-line="102" data-uid="lnk22" id="link_VesselVisitNotificationService_UnitOfWork"><path codeLine="102" d="M1201.57,367.6383 C1201.57,398.9183 1201.57,427.7883 1201.57,452.4683" fill="none" id="VesselVisitNotificationService-to-UnitOfWork" style="stroke:#181818;stroke-width:1;"/><polygon fill="#181818" points="1201.57,458.4683,1205.57,449.4683,1201.57,453.4683,1197.57,449.4683,1201.57,458.4683" style="stroke:#181818;stroke-width:1;"/><text fill="#000000" font-family="sans-serif" font-size="13" lengthAdjust="spacing" textLength="54.1646" x="1146.57" y="409.6266">commits</text></g><!--link VesselVisitNotificationFactory to VesselVisitNotification--><g class="link" data-entity-1="VesselVisitNotificationFactory" data-entity-2="VesselVisitNotification" data-source-line="103" data-uid="lnk23" id="link_VesselVisitNotificationFactory_VesselVisitNotification"><path codeLine="103" d="M233.1,704.3883 C233.1,784.0483 233.1,952.5983 233.1,952.5983 C233.1,952.5983 692.01,952.5983 938.53,952.5983" fill="none" id="VesselVisitNotificationFactory-to-VesselVisitNotification" style="stroke:#181818;stroke-width:1;"/><polygon fill="#181818" points="944.53,952.5983,935.53,948.5983,939.53,952.5983,935.53,956.5983,944.53,952.5983" style="stroke:#181818;stroke-width:1;"/><text fill="#000000" font-family="sans-serif" font-size="13" lengthAdjust="spacing" textLength="45.1318" x="418.71" y="949.1666">creates</text></g><!--link VesselVisitNotificationRepository to IVesselVisitNotificationRepository--><g class="link" data-entity-1="VesselVisitNotificationRepository" data-entity-2="IVesselVisitNotificationRepository" data-source-line="104" data-uid="lnk24" id="link_VesselVisitNotificationRepository_IVesselVisitNotificationRepository"><path codeLine="104" d="M905,540.0883 C905,563.3883 905,573.1883 905,596.5083" fill="none" id="VesselVisitNotificationRepository-to-IVesselVisitNotificationRepository" style="stroke:#181818;stroke-width:1;stroke-dasharray:7,7;"/><polygon fill="none" points="905,614.5083,911,596.5083,899,596.5083,905,614.5083" style="stroke:#181818;stroke-width:1;"/></g><!--link VesselVisitNotificationService to CreatingVesselVisitNotificationDto--><g class="link" data-entity-1="VesselVisitNotificationService" data-entity-2="CreatingVesselVisitNotificationDto" data-source-line="105" data-uid="lnk25" id="link_VesselVisitNotificationService_CreatingVesselVisitNotificationDto"><path codeLine="105" d="M1256.56,293.5983 C1493.82,293.5983 1796,293.5983 1796,293.5983 C1796,293.5983 1796,664.7983 1796,848.5983" fill="none" id="VesselVisitNotificationService-to-CreatingVesselVisitNotificationDto" style="stroke:#181818;stroke-width:1;"/><polygon fill="#181818" points="1796,854.5983,1800,845.5983,1796,849.5983,1792,845.5983,1796,854.5983" style="stroke:#181818;stroke-width:1;"/></g><!--link VesselVisitNotificationFactory to VesselVisitNotificationDto--><g class="link" data-entity-1="VesselVisitNotificationFactory" data-entity-2="VesselVisitNotificationDto" data-source-line="106" data-uid="lnk26" id="link_VesselVisitNotificationFactory_VesselVisitNotificationDto"><path codeLine="106" d="M442.9,704.4783 C442.9,723.7583 442.9,742.5983 442.9,742.5983 C442.9,742.5983 1434,742.5983 1434,742.5983 C1434,742.5983 1434,812.4783 1434,873.0883" fill="none" id="VesselVisitNotificationFactory-to-VesselVisitNotificationDto" style="stroke:#181818;stroke-width:1;"/><polygon fill="#181818" points="1434,879.0883,1438,870.0883,1434,874.0883,1430,870.0883,1434,879.0883" style="stroke:#181818;stroke-width:1;"/></g><!--reverse link VesselVisitNotification to VvnCode--><g class="link" data-entity-1="VesselVisitNotification" data-entity-2="VvnCode" data-source-line="107" data-uid="lnk27" id="link_VesselVisitNotification_VvnCode"><path codeLine="107" d="M949.48,1145.8683 C949.48,1169.1283 949.48,1178.0583 949.48,1193.1783" fill="none" id="VesselVisitNotification-backto-VvnCode" style="stroke:#181818;stroke-width:1;"/><polygon fill="#181818" points="949.48,1133.8683,945.48,1139.8683,949.48,1145.8683,953.48,1139.8683,949.48,1133.8683" style="stroke:#181818;stroke-width:1;"/></g><!--reverse link VesselVisitNotification to ClockTime--><g class="link" data-entity-1="VesselVisitNotification" data-entity-2="ClockTime" data-source-line="108" data-uid="lnk28" id="link_VesselVisitNotification_ClockTime"><path codeLine="108" d="M1041,1145.8683 C1041,1169.1283 1041,1178.0583 1041,1193.1783" fill="none" id="VesselVisitNotification-backto-ClockTime" style="stroke:#181818;stroke-width:1;"/><polygon fill="#181818" points="1041,1133.8683,1037,1139.8683,1041,1145.8683,1045,1139.8683,1041,1133.8683" style="stroke:#181818;stroke-width:1;"/></g><!--reverse link VesselVisitNotification to ImoNumber--><g class="link" data-entity-1="VesselVisitNotification" data-entity-2="ImoNumber" data-source-line="109" data-uid="lnk29" id="link_VesselVisitNotification_ImoNumber"><path codeLine="109" d="M1184,1145.8683 C1184,1169.1283 1184,1178.0583 1184,1193.1783" fill="none" id="VesselVisitNotification-backto-ImoNumber" style="stroke:#181818;stroke-width:1;"/><polygon fill="#181818" points="1184,1133.8683,1180,1139.8683,1184,1145.8683,1188,1139.8683,1184,1133.8683" style="stroke:#181818;stroke-width:1;"/></g><!--reverse link VesselVisitNotification to EntityTask--><g class="link" data-entity-1="VesselVisitNotification" data-entity-2="EntityTask" data-source-line="110" data-uid="lnk31" id="link_VesselVisitNotification_EntityTask"><path codeLine="110" d="M1255.23,1117.5983 C1280.64,1117.5983 1287.03,1117.5983 1287.03,1117.5983 C1287.03,1117.5983 1287.03,1163.5283 1287.03,1193.1383" fill="none" id="VesselVisitNotification-backto-EntityTask" style="stroke:#181818;stroke-width:1;"/><polygon fill="#181818" points="1243.23,1117.5983,1249.23,1121.5983,1255.23,1117.5983,1249.23,1113.5983,1243.23,1117.5983" style="stroke:#181818;stroke-width:1;"/></g><!--reverse link VesselVisitNotification to CrewManifest--><g class="link" data-entity-1="VesselVisitNotification" data-entity-2="CrewManifest" data-source-line="111" data-uid="lnk33" id="link_VesselVisitNotification_CrewManifest"><path codeLine="111" d="M1255.37,1100.5983 C1361.77,1100.5983 1474,1100.5983 1474,1100.5983 C1474,1100.5983 1474,1159.0883 1474,1193.3583" fill="none" id="VesselVisitNotification-backto-CrewManifest" style="stroke:#181818;stroke-width:1;"/><polygon fill="#181818" points="1243.37,1100.5983,1249.37,1104.5983,1255.37,1100.5983,1249.37,1096.5983,1243.37,1100.5983" style="stroke:#181818;stroke-width:1;"/></g><!--reverse link VesselVisitNotification to CargoManifest--><g class="link" data-entity-1="VesselVisitNotification" data-entity-2="CargoManifest" data-source-line="112" data-uid="lnk35" id="link_VesselVisitNotification_CargoManifest"><path codeLine="112" d="M1255.38,1084.5983 C1400.6,1084.5983 1587.4,1084.5983 1587.4,1084.5983 C1587.4,1084.5983 1587.4,1154.8083 1587.4,1193.2083" fill="none" id="VesselVisitNotification-backto-CargoManifest" style="stroke:#181818;stroke-width:1;"/><polygon fill="#181818" points="1243.38,1084.5983,1249.38,1088.5983,1255.38,1084.5983,1249.38,1080.5983,1243.38,1084.5983" style="stroke:#181818;stroke-width:1;"/></g><!--reverse link VesselVisitNotification to EntityDock--><g class="link" data-entity-1="VesselVisitNotification" data-entity-2="EntityDock" data-source-line="113" data-uid="lnk37" id="link_VesselVisitNotification_EntityDock"><path codeLine="113" d="M1255.31,1067.5983 C1459.28,1067.5983 1788,1067.5983 1788,1067.5983 C1788,1067.5983 1788,1150.6583 1788,1193.1683" fill="none" id="VesselVisitNotification-backto-EntityDock" style="stroke:#181818;stroke-width:1;"/><polygon fill="#181818" points="1243.31,1067.5983,1249.31,1071.5983,1255.31,1067.5983,1249.31,1063.5983,1243.31,1067.5983" style="stroke:#181818;stroke-width:1;"/></g><!--SRC=[lLPBRzim3BxxLmYzh5sRO0LsAjO0MTns1hAsgFiu3eh5f49aAP3aTDdM_px9TXCwZH_TiFaGHEH7IXJ9Zp9pBXTKqvGiQ3AdCuZjIW3Ha5WgPm82imQOHyhK4vSpCgN2O8tW4kng0KHf-wYG8X7KcA6rcayo2r6YPCn_0FaGM6xTBYEl9Y6dCm_kaRluO_-uVqnkOCQD1KtkmHWGv9uRRicbidpA4sgvaa5G7fVi3HSBKKh9cAv0xv6V0N5Vlddf8lU07OoKj5e9uJOfqFux92CDrCBGh6IopwmY9uN41LtZ9xJgmA7gjSZv1TZFguZjS-OiBZBEEbW-1-snnA2NF85A84F6_cqKXVSyb1gpY7NqsIkl_PQQkIdy7hnIZgYUgQzKyYaOMmlIyDI0UOHaVgvqSQH8XfDI_Hmyeu8ALKhvMse9NNoFDDy80YQAWOSkNIqoG0ftTfwwODWjJs6eDLzIuLCeL3BteZfe2AxfRAQX1amJcr7HxdI3Q_EuL29BlP9BYyJ6KfkP8hOu_u-KJ2NEHbgllsRJi5oEV2ycUMjliCAnW0FCFNRi_dywauuuLbuqm3U9ibxK-dg9dIdAN0TKwiYZyHh1C_b6WsLHLQblD_TxcQKJq4XlVNLN0_45Fq2j5MUJb5jKiuVaWTj7fkbJHJXC4bXKSJTWt3skwxczQCzTcfLUxM2_6eFzQi4U4R3KBOqZTpdpAuPMk3AEIB_VF-YwZIE6_ULIrZTHTz9qUuEUKiUCKOt13IoK4stVmveycm_oXwHODHiAKJBLIstKM0uwfxQacHA3-AMGL3kva6qA5ZDX9AUQkfHcIKu2tHbnvxtso3Vt0B3mtNTHo5XCquM0ut0oAgJ_Dm6LYxoJt5vD7vIUL_j1fQuVyI3PcXItLwPw7-rpjhB1sMwgBxge3eTP-HNoVXSb7v8GiUuhc_4spHQ8GRLbjoWs3nEBgw-4SGrvlXXYUTNohfPusstl4GUZCBiqpNPg8hRhgaO51pOdQ9F8qBzgyCniIEKER4qouztpDQ_DT-Jqz9JSd8s7jz7LPVmbkewz96X_1lTwWxO7vWd939YW1TNWw6NeT7VKWRcxEqDjVkBUNxwvQ-rUZjeGZNUIZx9Q9-YK_VwlBj5q2QETPFuYg0PhyhxNMy-J9incmZIXDZEd2RLvAJLlYHzzZS3AywrzPq-CmMy0]--></g></svg>