<svg xmlns="http://www.w3.org/2000/svg" xmlns:xlink="http://www.w3.org/1999/xlink" contentStyleType="text/css" data-diagram-type="SEQUENCE" height="534px" preserveAspectRatio="none" style="width:404px;height:534px;background:#FFFFFF;" version="1.1" viewBox="0 0 404 534" width="404px" zoomAndPan="magnify"><defs/><g><g><title>Logistics Operator</title><rect fill="#FFFFFF" height="352.7266" style="stroke:#181818;stroke-width:1;" width="10" x="65.2549" y="91.4883"/></g><g><title>Port Logistics System</title><rect fill="#FFFFFF" height="29.3105" style="stroke:#181818;stroke-width:1;" width="10" x="314.9312" y="112.7988"/></g><g><title>Port Logistics System</title><rect fill="#FFFFFF" height="29.3105" style="stroke:#181818;stroke-width:1;" width="10" x="314.9312" y="171.4199"/></g><g><title>Port Logistics System</title><rect fill="#FFFFFF" height="29.3105" style="stroke:#181818;stroke-width:1;" width="10" x="314.9312" y="230.041"/></g><g><title>Port Logistics System</title><rect fill="#FFFFFF" height="29.3105" style="stroke:#181818;stroke-width:1;" width="10" x="314.9312" y="288.6621"/></g><g><title>Port Logistics System</title><rect fill="#FFFFFF" height="29.3105" style="stroke:#181818;stroke-width:1;" width="10" x="314.9312" y="347.2832"/></g><g><title>Port Logistics System</title><rect fill="#FFFFFF" height="29.3105" style="stroke:#181818;stroke-width:1;" width="10" x="314.9312" y="405.9043"/></g><g><title>Logistics Operator</title><rect fill="#000000" fill-opacity="0.00000" height="371.7266" width="8" x="66.2549" y="81.4883"/><line style="stroke:#181818;stroke-width:0.5;stroke-dasharray:5,5;" x1="70" x2="70" y1="81.4883" y2="453.2148"/></g><g><title>Port Logistics System</title><rect fill="#000000" fill-opacity="0.00000" height="371.7266" width="8" x="315.9312" y="81.4883"/><line style="stroke:#181818;stroke-width:0.5;stroke-dasharray:5,5;" x1="319.0171" x2="319.0171" y1="81.4883" y2="453.2148"/></g><g class="participant participant-head" data-participant="Operator"><text fill="#000000" font-family="sans-serif" font-size="14" lengthAdjust="spacing" textLength="124.5098" x="5" y="78.5352">Logistics Operator</text><ellipse cx="70.2549" cy="13.5" fill="#E2E2F0" rx="8" ry="8" style="stroke:#181818;stroke-width:0.5;"/><path d="M70.2549,21.5 L70.2549,48.5 M57.2549,29.5 L83.2549,29.5 M70.2549,48.5 L57.2549,63.5 M70.2549,48.5 L83.2549,63.5" fill="none" style="stroke:#181818;stroke-width:0.5;"/></g><g class="participant participant-tail" data-participant="Operator"><text fill="#000000" font-family="sans-serif" font-size="14" lengthAdjust="spacing" textLength="124.5098" x="5" y="465.75">Logistics Operator</text><ellipse cx="70.2549" cy="477.2031" fill="#E2E2F0" rx="8" ry="8" style="stroke:#181818;stroke-width:0.5;"/><path d="M70.2549,485.2031 L70.2549,512.2031 M57.2549,493.2031 L83.2549,493.2031 M70.2549,512.2031 L57.2549,527.2031 M70.2549,512.2031 L83.2549,527.2031" fill="none" style="stroke:#181818;stroke-width:0.5;"/></g><g class="participant participant-head" data-participant="System"><rect fill="#E2E2F0" height="30.4883" rx="2.5" ry="2.5" style="stroke:#181818;stroke-width:0.5;" width="157.8281" x="241.0171" y="50"/><text fill="#000000" font-family="sans-serif" font-size="14" lengthAdjust="spacing" textLength="143.8281" x="248.0171" y="70.5352">Port Logistics System</text></g><g class="participant participant-tail" data-participant="System"><rect fill="#E2E2F0" height="30.4883" rx="2.5" ry="2.5" style="stroke:#181818;stroke-width:0.5;" width="157.8281" x="241.0171" y="452.2148"/><text fill="#000000" font-family="sans-serif" font-size="14" lengthAdjust="spacing" textLength="143.8281" x="248.0171" y="472.75">Port Logistics System</text></g><g><title>Logistics Operator</title><rect fill="#FFFFFF" height="352.7266" style="stroke:#181818;stroke-width:1;" width="10" x="65.2549" y="91.4883"/></g><g><title>Port Logistics System</title><rect fill="#FFFFFF" height="29.3105" style="stroke:#181818;stroke-width:1;" width="10" x="314.9312" y="112.7988"/></g><g><title>Port Logistics System</title><rect fill="#FFFFFF" height="29.3105" style="stroke:#181818;stroke-width:1;" width="10" x="314.9312" y="171.4199"/></g><g><title>Port Logistics System</title><rect fill="#FFFFFF" height="29.3105" style="stroke:#181818;stroke-width:1;" width="10" x="314.9312" y="230.041"/></g><g><title>Port Logistics System</title><rect fill="#FFFFFF" height="29.3105" style="stroke:#181818;stroke-width:1;" width="10" x="314.9312" y="288.6621"/></g><g><title>Port Logistics System</title><rect fill="#FFFFFF" height="29.3105" style="stroke:#181818;stroke-width:1;" width="10" x="314.9312" y="347.2832"/></g><g><title>Port Logistics System</title><rect fill="#FFFFFF" height="29.3105" style="stroke:#181818;stroke-width:1;" width="10" x="314.9312" y="405.9043"/></g><g class="message" data-participant-1="Operator" data-participant-2="System"><polygon fill="#181818" points="302.9312,108.7988,312.9312,112.7988,302.9312,116.7988,306.9312,112.7988" style="stroke:#181818;stroke-width:1;"/><line style="stroke:#181818;stroke-width:1;" x1="75.2549" x2="308.9312" y1="112.7988" y2="112.7988"/><text fill="#000000" font-family="sans-serif" font-size="13" lengthAdjust="spacing" textLength="79.8408" x="82.2549" y="108.0566">Authenticate</text></g><g class="message" data-participant-1="System" data-participant-2="Operator"><polygon fill="#181818" points="86.2549,138.1094,76.2549,142.1094,86.2549,146.1094,82.2549,142.1094" style="stroke:#181818;stroke-width:1;"/><line style="stroke:#181818;stroke-width:1;stroke-dasharray:2,2;" x1="80.2549" x2="318.9312" y1="142.1094" y2="142.1094"/><text fill="#000000" font-family="sans-serif" font-size="13" lengthAdjust="spacing" textLength="132.3994" x="92.2549" y="137.3672">Authentication result</text></g><g class="message" data-participant-1="Operator" data-participant-2="System"><polygon fill="#181818" points="302.9312,167.4199,312.9312,171.4199,302.9312,175.4199,306.9312,171.4199" style="stroke:#181818;stroke-width:1;"/><line style="stroke:#181818;stroke-width:1;" x1="75.2549" x2="308.9312" y1="171.4199" y2="171.4199"/><text fill="#000000" font-family="sans-serif" font-size="13" lengthAdjust="spacing" textLength="129.5557" x="82.2549" y="166.6777">Create staff member</text></g><g class="message" data-participant-1="System" data-participant-2="Operator"><polygon fill="#181818" points="86.2549,196.7305,76.2549,200.7305,86.2549,204.7305,82.2549,200.7305" style="stroke:#181818;stroke-width:1;"/><line style="stroke:#181818;stroke-width:1;stroke-dasharray:2,2;" x1="80.2549" x2="318.9312" y1="200.7305" y2="200.7305"/><text fill="#000000" font-family="sans-serif" font-size="13" lengthAdjust="spacing" textLength="154.959" x="92.2549" y="195.9883">Confirmation of creation</text></g><g class="message" data-participant-1="Operator" data-participant-2="System"><polygon fill="#181818" points="302.9312,226.041,312.9312,230.041,302.9312,234.041,306.9312,230.041" style="stroke:#181818;stroke-width:1;"/><line style="stroke:#181818;stroke-width:1;" x1="75.2549" x2="308.9312" y1="230.041" y2="230.041"/><text fill="#000000" font-family="sans-serif" font-size="13" lengthAdjust="spacing" textLength="200.4971" x="82.2549" y="225.2988">Filter staff members (to update)</text></g><g class="message" data-participant-1="System" data-participant-2="Operator"><polygon fill="#181818" points="86.2549,255.3516,76.2549,259.3516,86.2549,263.3516,82.2549,259.3516" style="stroke:#181818;stroke-width:1;"/><line style="stroke:#181818;stroke-width:1;stroke-dasharray:2,2;" x1="80.2549" x2="318.9312" y1="259.3516" y2="259.3516"/><text fill="#000000" font-family="sans-serif" font-size="13" lengthAdjust="spacing" textLength="151.3154" x="92.2549" y="254.6094">List of filtered members</text></g><g class="message" data-participant-1="Operator" data-participant-2="System"><polygon fill="#181818" points="302.9312,284.6621,312.9312,288.6621,302.9312,292.6621,306.9312,288.6621" style="stroke:#181818;stroke-width:1;"/><line style="stroke:#181818;stroke-width:1;" x1="75.2549" x2="308.9312" y1="288.6621" y2="288.6621"/><text fill="#000000" font-family="sans-serif" font-size="13" lengthAdjust="spacing" textLength="164.8867" x="82.2549" y="283.9199">Update staff member data</text></g><g class="message" data-participant-1="System" data-participant-2="Operator"><polygon fill="#181818" points="86.2549,313.9727,76.2549,317.9727,86.2549,321.9727,82.2549,317.9727" style="stroke:#181818;stroke-width:1;"/><line style="stroke:#181818;stroke-width:1;stroke-dasharray:2,2;" x1="80.2549" x2="318.9312" y1="317.9727" y2="317.9727"/><text fill="#000000" font-family="sans-serif" font-size="13" lengthAdjust="spacing" textLength="147.6021" x="92.2549" y="313.2305">Confirmation of update</text></g><g class="message" data-participant-1="Operator" data-participant-2="System"><polygon fill="#181818" points="302.9312,343.2832,312.9312,347.2832,302.9312,351.2832,306.9312,347.2832" style="stroke:#181818;stroke-width:1;"/><line style="stroke:#181818;stroke-width:1;" x1="75.2549" x2="308.9312" y1="347.2832" y2="347.2832"/><text fill="#000000" font-family="sans-serif" font-size="13" lengthAdjust="spacing" textLength="220.6763" x="82.2549" y="342.541">Filter staff members (to deactivate)</text></g><g class="message" data-participant-1="System" data-participant-2="Operator"><polygon fill="#181818" points="86.2549,372.5938,76.2549,376.5938,86.2549,380.5938,82.2549,376.5938" style="stroke:#181818;stroke-width:1;"/><line style="stroke:#181818;stroke-width:1;stroke-dasharray:2,2;" x1="80.2549" x2="318.9312" y1="376.5938" y2="376.5938"/><text fill="#000000" font-family="sans-serif" font-size="13" lengthAdjust="spacing" textLength="151.3154" x="92.2549" y="371.8516">List of filtered members</text></g><g class="message" data-participant-1="Operator" data-participant-2="System"><polygon fill="#181818" points="302.9312,401.9043,312.9312,405.9043,302.9312,409.9043,306.9312,405.9043" style="stroke:#181818;stroke-width:1;"/><line style="stroke:#181818;stroke-width:1;" x1="75.2549" x2="308.9312" y1="405.9043" y2="405.9043"/><text fill="#000000" font-family="sans-serif" font-size="13" lengthAdjust="spacing" textLength="154.1655" x="82.2549" y="401.1621">Deactivate staff member</text></g><g class="message" data-participant-1="System" data-participant-2="Operator"><polygon fill="#181818" points="86.2549,431.2148,76.2549,435.2148,86.2549,439.2148,82.2549,435.2148" style="stroke:#181818;stroke-width:1;"/><line style="stroke:#181818;stroke-width:1;stroke-dasharray:2,2;" x1="80.2549" x2="318.9312" y1="435.2148" y2="435.2148"/><text fill="#000000" font-family="sans-serif" font-size="13" lengthAdjust="spacing" textLength="180.3496" x="92.2549" y="430.4727">Confirmation of deactivation</text></g><!--SRC=[lL9B2i8m4Dtt54DNkl02BWIfk18Kn0ECwKG3jYcJgU3jdVuC5HT5mLKca_VZ4JJY6TATlxWWpWJOLyIeknGmNf8AMLzTXQL0Ul0i41d7Hn0gMdmt9WaQSNSKYWB308jLZrh2kfOhbQgXo4ZfDRe35eeVk2E6yoKmXVecIKxlv8zs6LC32OBMGa75cNYQQ-PBwxZeFBq5qmZfFDLuwsv2F38EC1CFTPKhTpujnKxhRjnjgqRve3GrnQar6wK0tU1t7NJHVsuWyl_KmYR2Vly8By-Fd-49]--></g></svg>