<svg xmlns="http://www.w3.org/2000/svg" xmlns:xlink="http://www.w3.org/1999/xlink" contentStyleType="text/css" data-diagram-type="SEQUENCE" height="818px" preserveAspectRatio="none" style="width:1808px;height:818px;background:#FFFFFF;" version="1.1" viewBox="0 0 1808 818" width="1808px" zoomAndPan="magnify"><title>Sequence Diagram (Full) - US: Search VVEs in a Range</title><defs/><g><text fill="#000000" font-family="sans-serif" font-size="14" font-weight="bold" lengthAdjust="spacing" textLength="387.7959" x="706.1807" y="28.5352">Sequence Diagram (Full) - US: Search VVEs in a Range</text><g><title>GetVVEInRangeController</title><rect fill="#FFFFFF" height="343.7266" style="stroke:#181818;stroke-width:1;" width="10" x="723.7695" y="318.8398"/></g><g><title>VVEService</title><rect fill="#FFFFFF" height="269.7949" style="stroke:#181818;stroke-width:1;" width="10" x="987.7915" y="348.1504"/></g><g><title>VVERepo</title><rect fill="#FFFFFF" height="152.5527" style="stroke:#181818;stroke-width:1;" width="10" x="1219.2754" y="377.4609"/></g><g><title>VVEMap</title><rect fill="#FFFFFF" height="29.3105" style="stroke:#181818;stroke-width:1;" width="10" x="1382.3633" y="471.3926"/></g><g><title>VVEMap</title><rect fill="#FFFFFF" height="29.3105" style="stroke:#181818;stroke-width:1;" width="10" x="1382.3633" y="559.3242"/></g><rect fill="none" height="440.6133" style="stroke:#000000;stroke-width:1.5;" width="1596.4004" x="194.7568" y="280.2188"/><g><title>Logistics Operator</title><rect fill="#000000" fill-opacity="0.00000" height="618.8555" width="8" x="66.2549" y="118.9766"/><line style="stroke:#181818;stroke-width:0.5;stroke-dasharray:5,5;" x1="70" x2="70" y1="118.9766" y2="737.832"/></g><g><title>SPA</title><rect fill="#000000" fill-opacity="0.00000" height="618.8555" width="8" x="225.2568" y="118.9766"/><line style="stroke:#181818;stroke-width:0.5;stroke-dasharray:5,5;" x1="228.7568" x2="228.7568" y1="118.9766" y2="737.832"/></g><g><title>VVE Routes</title><rect fill="#000000" fill-opacity="0.00000" height="618.8555" width="8" x="563.1357" y="118.9766"/><line style="stroke:#181818;stroke-width:0.5;stroke-dasharray:5,5;" x1="566.8169" x2="566.8169" y1="118.9766" y2="737.832"/></g><g><title>GetVVEInRangeController</title><rect fill="#000000" fill-opacity="0.00000" height="618.8555" width="8" x="724.7695" y="118.9766"/><line style="stroke:#181818;stroke-width:0.5;stroke-dasharray:5,5;" x1="727.9033" x2="727.9033" y1="118.9766" y2="737.832"/></g><g><title>VVEService</title><rect fill="#000000" fill-opacity="0.00000" height="618.8555" width="8" x="988.7915" y="118.9766"/><line style="stroke:#181818;stroke-width:0.5;stroke-dasharray:5,5;" x1="992.1782" x2="992.1782" y1="118.9766" y2="737.832"/></g><g><title>VVERepo</title><rect fill="#000000" fill-opacity="0.00000" height="618.8555" width="8" x="1220.2754" y="118.9766"/><line style="stroke:#181818;stroke-width:0.5;stroke-dasharray:5,5;" x1="1223.2964" x2="1223.2964" y1="118.9766" y2="737.832"/></g><g><title>VVEMap</title><rect fill="#000000" fill-opacity="0.00000" height="618.8555" width="8" x="1383.3633" y="118.9766"/><line style="stroke:#181818;stroke-width:0.5;stroke-dasharray:5,5;" x1="1387.1152" x2="1387.1152" y1="118.9766" y2="737.832"/></g><g><title>MongoDB .Mongoose.</title><rect fill="#000000" fill-opacity="0.00000" height="618.8555" width="8" x="1532.3809" y="118.9766"/><line style="stroke:#181818;stroke-width:0.5;stroke-dasharray:5,5;" x1="1535.8999" x2="1535.8999" y1="118.9766" y2="737.832"/></g><g class="participant participant-head" data-participant="Operator"><text fill="#000000" font-family="sans-serif" font-size="14" lengthAdjust="spacing" textLength="124.5098" x="5" y="116.0234">Logistics Operator</text><ellipse cx="70.2549" cy="50.9883" fill="#E3E3E3" rx="8" ry="8" style="stroke:#181818;stroke-width:0.5;"/><path d="M70.2549,58.9883 L70.2549,85.9883 M57.2549,66.9883 L83.2549,66.9883 M70.2549,85.9883 L57.2549,100.9883 M70.2549,85.9883 L83.2549,100.9883" fill="none" style="stroke:#181818;stroke-width:0.5;"/></g><g class="participant participant-tail" data-participant="Operator"><text fill="#000000" font-family="sans-serif" font-size="14" lengthAdjust="spacing" textLength="124.5098" x="5" y="750.3672">Logistics Operator</text><ellipse cx="70.2549" cy="761.8203" fill="#E3E3E3" rx="8" ry="8" style="stroke:#181818;stroke-width:0.5;"/><path d="M70.2549,769.8203 L70.2549,796.8203 M57.2549,777.8203 L83.2549,777.8203 M70.2549,796.8203 L57.2549,811.8203 M70.2549,796.8203 L83.2549,811.8203" fill="none" style="stroke:#181818;stroke-width:0.5;"/></g><g class="participant participant-head" data-participant="SPA"><text fill="#000000" font-family="sans-serif" font-size="14" lengthAdjust="spacing" textLength="24.9375" x="213.7881" y="116.0234">SPA</text><path d="M208.7568,74.4883 L208.7568,98.4883 M208.7568,86.4883 L225.7568,86.4883" fill="none" style="stroke:#181818;stroke-width:0.5;"/><ellipse cx="237.7568" cy="86.4883" fill="#E3E3E3" rx="12" ry="12" style="stroke:#181818;stroke-width:0.5;"/></g><g class="participant participant-tail" data-participant="SPA"><text fill="#000000" font-family="sans-serif" font-size="14" lengthAdjust="spacing" textLength="24.9375" x="213.7881" y="750.3672">SPA</text><path d="M208.7568,757.3203 L208.7568,781.3203 M208.7568,769.3203 L225.7568,769.3203" fill="none" style="stroke:#181818;stroke-width:0.5;"/><ellipse cx="237.7568" cy="769.3203" fill="#E3E3E3" rx="12" ry="12" style="stroke:#181818;stroke-width:0.5;"/></g><g class="participant participant-head" data-participant="Routes"><text fill="#000000" font-family="sans-serif" font-size="14" lengthAdjust="spacing" textLength="76.6377" x="525.8169" y="116.0234">VVE Routes</text><path d="M546.6357,74.4883 L546.6357,98.4883 M546.6357,86.4883 L563.6357,86.4883" fill="none" style="stroke:#181818;stroke-width:0.5;"/><ellipse cx="575.6357" cy="86.4883" fill="#E3E3E3" rx="12" ry="12" style="stroke:#181818;stroke-width:0.5;"/></g><g class="participant participant-tail" data-participant="Routes"><text fill="#000000" font-family="sans-serif" font-size="14" lengthAdjust="spacing" textLength="76.6377" x="525.8169" y="750.3672">VVE Routes</text><path d="M546.6357,757.3203 L546.6357,781.3203 M546.6357,769.3203 L563.6357,769.3203" fill="none" style="stroke:#181818;stroke-width:0.5;"/><ellipse cx="575.6357" cy="769.3203" fill="#E3E3E3" rx="12" ry="12" style="stroke:#181818;stroke-width:0.5;"/></g><g class="participant participant-head" data-participant="Ctrl"><text fill="#000000" font-family="sans-serif" font-size="14" lengthAdjust="spacing" textLength="171.7324" x="639.9033" y="116.0234">GetVVEInRangeController</text><ellipse cx="728.7695" cy="86.4883" fill="#E3E3E3" rx="12" ry="12" style="stroke:#181818;stroke-width:0.5;"/><polygon fill="#181818" points="724.7695,74.4883,730.7695,69.4883,728.7695,74.4883,730.7695,79.4883,724.7695,74.4883" style="stroke:#181818;stroke-width:1;"/></g><g class="participant participant-tail" data-participant="Ctrl"><text fill="#000000" font-family="sans-serif" font-size="14" lengthAdjust="spacing" textLength="171.7324" x="639.9033" y="750.3672">GetVVEInRangeController</text><ellipse cx="728.7695" cy="769.3203" fill="#E3E3E3" rx="12" ry="12" style="stroke:#181818;stroke-width:0.5;"/><polygon fill="#181818" points="724.7695,757.3203,730.7695,752.3203,728.7695,757.3203,730.7695,762.3203,724.7695,757.3203" style="stroke:#181818;stroke-width:1;"/></g><g class="participant participant-head" data-participant="Svc"><text fill="#000000" font-family="sans-serif" font-size="14" lengthAdjust="spacing" textLength="73.2266" x="953.1782" y="116.0234">VVEService</text><ellipse cx="992.7915" cy="86.4883" fill="#E3E3E3" rx="12" ry="12" style="stroke:#181818;stroke-width:0.5;"/><polygon fill="#181818" points="988.7915,74.4883,994.7915,69.4883,992.7915,74.4883,994.7915,79.4883,988.7915,74.4883" style="stroke:#181818;stroke-width:1;"/></g><g class="participant participant-tail" data-participant="Svc"><text fill="#000000" font-family="sans-serif" font-size="14" lengthAdjust="spacing" textLength="73.2266" x="953.1782" y="750.3672">VVEService</text><ellipse cx="992.7915" cy="769.3203" fill="#E3E3E3" rx="12" ry="12" style="stroke:#181818;stroke-width:0.5;"/><polygon fill="#181818" points="988.7915,757.3203,994.7915,752.3203,992.7915,757.3203,994.7915,762.3203,988.7915,757.3203" style="stroke:#181818;stroke-width:1;"/></g><g class="participant participant-head" data-participant="Repo"><text fill="#000000" font-family="sans-serif" font-size="14" lengthAdjust="spacing" textLength="59.958" x="1191.2964" y="116.0234">VVERepo</text><ellipse cx="1224.2754" cy="86.4883" fill="#E3E3E3" rx="12" ry="12" style="stroke:#181818;stroke-width:0.5;"/><line style="stroke:#181818;stroke-width:0.5;" x1="1212.2754" x2="1236.2754" y1="100.4883" y2="100.4883"/></g><g class="participant participant-tail" data-participant="Repo"><text fill="#000000" font-family="sans-serif" font-size="14" lengthAdjust="spacing" textLength="59.958" x="1191.2964" y="750.3672">VVERepo</text><ellipse cx="1224.2754" cy="769.3203" fill="#E3E3E3" rx="12" ry="12" style="stroke:#181818;stroke-width:0.5;"/><line style="stroke:#181818;stroke-width:0.5;" x1="1212.2754" x2="1236.2754" y1="783.3203" y2="783.3203"/></g><g class="participant participant-head" data-participant="Map"><text fill="#000000" font-family="sans-serif" font-size="14" lengthAdjust="spacing" textLength="54.4961" x="1357.1152" y="116.0234">VVEMap</text><ellipse cx="1387.3633" cy="86.4883" fill="#E3E3E3" rx="12" ry="12" style="stroke:#181818;stroke-width:0.5;"/><line style="stroke:#181818;stroke-width:0.5;" x1="1375.3633" x2="1399.3633" y1="100.4883" y2="100.4883"/></g><g class="participant participant-tail" data-participant="Map"><text fill="#000000" font-family="sans-serif" font-size="14" lengthAdjust="spacing" textLength="54.4961" x="1357.1152" y="750.3672">VVEMap</text><ellipse cx="1387.3633" cy="769.3203" fill="#E3E3E3" rx="12" ry="12" style="stroke:#181818;stroke-width:0.5;"/><line style="stroke:#181818;stroke-width:0.5;" x1="1375.3633" x2="1399.3633" y1="783.3203" y2="783.3203"/></g><g class="participant participant-head" data-participant="DB"><text fill="#000000" font-family="sans-serif" font-size="14" lengthAdjust="spacing" textLength="148.9619" x="1458.8999" y="116.0234">MongoDB (Mongoose)</text><path d="M1518.3809,66.4883 C1518.3809,56.4883 1536.3809,56.4883 1536.3809,56.4883 C1536.3809,56.4883 1554.3809,56.4883 1554.3809,66.4883 L1554.3809,92.4883 C1554.3809,102.4883 1536.3809,102.4883 1536.3809,102.4883 C1536.3809,102.4883 1518.3809,102.4883 1518.3809,92.4883 L1518.3809,66.4883" fill="#E3E3E3" style="stroke:#181818;stroke-width:0.5;"/><path d="M1518.3809,66.4883 C1518.3809,76.4883 1536.3809,76.4883 1536.3809,76.4883 C1536.3809,76.4883 1554.3809,76.4883 1554.3809,66.4883" fill="none" style="stroke:#181818;stroke-width:0.5;"/></g><g class="participant participant-tail" data-participant="DB"><text fill="#000000" font-family="sans-serif" font-size="14" lengthAdjust="spacing" textLength="148.9619" x="1458.8999" y="750.3672">MongoDB (Mongoose)</text><path d="M1518.3809,763.3203 C1518.3809,753.3203 1536.3809,753.3203 1536.3809,753.3203 C1536.3809,753.3203 1554.3809,753.3203 1554.3809,763.3203 L1554.3809,789.3203 C1554.3809,799.3203 1536.3809,799.3203 1536.3809,799.3203 C1536.3809,799.3203 1518.3809,799.3203 1518.3809,789.3203 L1518.3809,763.3203" fill="#E3E3E3" style="stroke:#181818;stroke-width:0.5;"/><path d="M1518.3809,763.3203 C1518.3809,773.3203 1536.3809,773.3203 1536.3809,773.3203 C1536.3809,773.3203 1554.3809,773.3203 1554.3809,763.3203" fill="none" style="stroke:#181818;stroke-width:0.5;"/></g><g><title>GetVVEInRangeController</title><rect fill="#FFFFFF" height="343.7266" style="stroke:#181818;stroke-width:1;" width="10" x="723.7695" y="318.8398"/></g><g><title>VVEService</title><rect fill="#FFFFFF" height="269.7949" style="stroke:#181818;stroke-width:1;" width="10" x="987.7915" y="348.1504"/></g><g><title>VVERepo</title><rect fill="#FFFFFF" height="152.5527" style="stroke:#181818;stroke-width:1;" width="10" x="1219.2754" y="377.4609"/></g><g><title>VVEMap</title><rect fill="#FFFFFF" height="29.3105" style="stroke:#181818;stroke-width:1;" width="10" x="1382.3633" y="471.3926"/></g><g><title>VVEMap</title><rect fill="#FFFFFF" height="29.3105" style="stroke:#181818;stroke-width:1;" width="10" x="1382.3633" y="559.3242"/></g><rect fill="#EEEEEE" height="3" style="stroke:#EEEEEE;stroke-width:1;" width="1801.1572" x="0" y="149.6318"/><line style="stroke:#000000;stroke-width:1;" x1="0" x2="1801.1572" y1="149.6318" y2="149.6318"/><line style="stroke:#000000;stroke-width:1;" x1="0" x2="1801.1572" y1="152.6318" y2="152.6318"/><rect fill="#EEEEEE" height="23.3105" style="stroke:#000000;stroke-width:2;" width="201.1733" x="799.9919" y="138.9766"/><text fill="#000000" font-family="sans-serif" font-size="13" font-weight="bold" lengthAdjust="spacing" textLength="182.8887" x="805.9919" y="155.5449">Search VVEs by Date Range</text><g class="message" data-participant-1="Operator" data-participant-2="SPA"><polygon fill="#181818" points="217.2568,189.5977,227.2568,193.5977,217.2568,197.5977,221.2568,193.5977" style="stroke:#181818;stroke-width:1;"/><line style="stroke:#181818;stroke-width:1;" x1="70.2549" x2="223.2568" y1="193.5977" y2="193.5977"/><text fill="#000000" font-family="sans-serif" font-size="13" lengthAdjust="spacing" textLength="135.002" x="77.2549" y="188.8555">Select dates + Search</text></g><g class="message" data-participant-1="SPA" data-participant-2="Routes"><polygon fill="#181818" points="555.1357,218.9082,565.1357,222.9082,555.1357,226.9082,559.1357,222.9082" style="stroke:#181818;stroke-width:1;"/><line style="stroke:#181818;stroke-width:1;" x1="229.2568" x2="561.1357" y1="222.9082" y2="222.9082"/><text fill="#000000" font-family="sans-serif" font-size="13" lengthAdjust="spacing" textLength="313.8789" x="236.2568" y="218.166">GET /vve/range?start={startDate}&amp;end={endDate}</text></g><g class="message" data-participant-1="Routes" data-participant-2="Routes"><line style="stroke:#181818;stroke-width:1;" x1="567.1357" x2="609.1357" y1="252.2188" y2="252.2188"/><line style="stroke:#181818;stroke-width:1;" x1="609.1357" x2="609.1357" y1="252.2188" y2="265.2188"/><line style="stroke:#181818;stroke-width:1;" x1="568.1357" x2="609.1357" y1="265.2188" y2="265.2188"/><polygon fill="#181818" points="578.1357,261.2188,568.1357,265.2188,578.1357,269.2188,574.1357,265.2188" style="stroke:#181818;stroke-width:1;"/><text fill="#000000" font-family="sans-serif" font-size="13" lengthAdjust="spacing" textLength="147.6338" x="574.1357" y="247.4766">celebrate/Joi Validation</text></g><path d="M733.6338,239.4082 L733.6338,264.4082 L1002.6338,264.4082 L1002.6338,249.4082 L992.6338,239.4082 L733.6338,239.4082" fill="#FAFAFA" style="stroke:#181818;stroke-width:0.5;"/><path d="M992.6338,239.4082 L992.6338,249.4082 L1002.6338,249.4082 L992.6338,239.4082" fill="#FAFAFA" style="stroke:#181818;stroke-width:0.5;"/><text fill="#000000" font-family="sans-serif" font-size="13" lengthAdjust="spacing" textLength="248.2632" x="739.6338" y="256.9766">Validates date formats in query params</text><path d="M194.7568,280.2188 L256.8955,280.2188 L256.8955,287.5293 L246.8955,297.5293 L194.7568,297.5293 L194.7568,280.2188" fill="#EEEEEE" style="stroke:#000000;stroke-width:1.5;"/><rect fill="none" height="440.6133" style="stroke:#000000;stroke-width:1.5;" width="1596.4004" x="194.7568" y="280.2188"/><text fill="#000000" font-family="sans-serif" font-size="13" font-weight="bold" lengthAdjust="spacing" textLength="17.1387" x="209.7568" y="293.7871">alt</text><text fill="#000000" font-family="sans-serif" font-size="11" font-weight="bold" lengthAdjust="spacing" textLength="70.9951" x="271.8955" y="292.8535">[Authorized]</text><g class="message" data-participant-1="Routes" data-participant-2="Ctrl"><polygon fill="#181818" points="711.7695,314.8398,721.7695,318.8398,711.7695,322.8398,715.7695,318.8398" style="stroke:#181818;stroke-width:1;"/><line style="stroke:#181818;stroke-width:1;" x1="567.1357" x2="717.7695" y1="318.8398" y2="318.8398"/><text fill="#000000" font-family="sans-serif" font-size="13" lengthAdjust="spacing" textLength="105.9043" x="574.1357" y="314.0977">execute(req, res)</text></g><g class="message" data-participant-1="Ctrl" data-participant-2="Svc"><polygon fill="#181818" points="975.7915,344.1504,985.7915,348.1504,975.7915,352.1504,979.7915,348.1504" style="stroke:#181818;stroke-width:1;"/><line style="stroke:#181818;stroke-width:1;" x1="733.7695" x2="981.7915" y1="348.1504" y2="348.1504"/><text fill="#000000" font-family="sans-serif" font-size="13" lengthAdjust="spacing" textLength="235.022" x="740.7695" y="343.4082">getInRangeAsync(startDate, endDate)</text></g><g class="message" data-participant-1="Svc" data-participant-2="Repo"><polygon fill="#181818" points="1207.2754,373.4609,1217.2754,377.4609,1207.2754,381.4609,1211.2754,377.4609" style="stroke:#181818;stroke-width:1;"/><line style="stroke:#181818;stroke-width:1;" x1="997.7915" x2="1213.2754" y1="377.4609" y2="377.4609"/><text fill="#000000" font-family="sans-serif" font-size="13" lengthAdjust="spacing" textLength="202.4839" x="1004.7915" y="372.7188">findInRange(startDate, endDate)</text></g><g class="message" data-participant-1="Repo" data-participant-2="DB"><polygon fill="#181818" points="1524.3809,405.7715,1534.3809,409.7715,1524.3809,413.7715,1528.3809,409.7715" style="stroke:#181818;stroke-width:1;"/><line style="stroke:#181818;stroke-width:1;" x1="1229.2754" x2="1530.3809" y1="409.7715" y2="409.7715"/><text fill="#000000" font-family="sans-serif" font-size="13" lengthAdjust="spacing" textLength="283.1055" x="1236.2754" y="405.0293">find({ actualArrival: { $gte: start, $lte: end } })</text></g><path d="M1541,390.4609 L1541,415.4609 L1775,415.4609 L1775,400.4609 L1765,390.4609 L1541,390.4609" fill="#FAFAFA" style="stroke:#181818;stroke-width:0.5;"/><path d="M1765,390.4609 L1765,400.4609 L1775,400.4609 L1765,390.4609" fill="#FAFAFA" style="stroke:#181818;stroke-width:0.5;"/><text fill="#000000" font-family="sans-serif" font-size="13" lengthAdjust="spacing" textLength="213.7764" x="1547" y="408.0293">Query logic based on VVE schema</text><g class="message" data-participant-1="DB" data-participant-2="Repo"><polygon fill="#181818" points="1240.2754,438.082,1230.2754,442.082,1240.2754,446.082,1236.2754,442.082" style="stroke:#181818;stroke-width:1;"/><line style="stroke:#181818;stroke-width:1;stroke-dasharray:2,2;" x1="1234.2754" x2="1535.3809" y1="442.082" y2="442.082"/><text fill="#000000" font-family="sans-serif" font-size="13" lengthAdjust="spacing" textLength="60.1631" x="1246.2754" y="437.3398">vveDocs[]</text></g><g class="message" data-participant-1="Repo" data-participant-2="Map"><polygon fill="#181818" points="1370.3633,467.3926,1380.3633,471.3926,1370.3633,475.3926,1374.3633,471.3926" style="stroke:#181818;stroke-width:1;"/><line style="stroke:#181818;stroke-width:1;" x1="1229.2754" x2="1376.3633" y1="471.3926" y2="471.3926"/><text fill="#000000" font-family="sans-serif" font-size="13" lengthAdjust="spacing" textLength="134.0879" x="1236.2754" y="466.6504">toDomain(vveDocs[i])</text></g><g class="message" data-participant-1="Map" data-participant-2="Repo"><polygon fill="#181818" points="1240.2754,496.7031,1230.2754,500.7031,1240.2754,504.7031,1236.2754,500.7031" style="stroke:#181818;stroke-width:1;"/><line style="stroke:#181818;stroke-width:1;stroke-dasharray:2,2;" x1="1234.2754" x2="1386.3633" y1="500.7031" y2="500.7031"/><text fill="#000000" font-family="sans-serif" font-size="13" lengthAdjust="spacing" textLength="75.3784" x="1246.2754" y="495.9609">vveEntities[]</text></g><g class="message" data-participant-1="Repo" data-participant-2="Svc"><polygon fill="#181818" points="1008.7915,526.0137,998.7915,530.0137,1008.7915,534.0137,1004.7915,530.0137" style="stroke:#181818;stroke-width:1;"/><line style="stroke:#181818;stroke-width:1;stroke-dasharray:2,2;" x1="1002.7915" x2="1223.2754" y1="530.0137" y2="530.0137"/><text fill="#000000" font-family="sans-serif" font-size="13" lengthAdjust="spacing" textLength="75.3784" x="1014.7915" y="525.2715">vveEntities[]</text></g><g class="message" data-participant-1="Svc" data-participant-2="Map"><polygon fill="#181818" points="1370.3633,555.3242,1380.3633,559.3242,1370.3633,563.3242,1374.3633,559.3242" style="stroke:#181818;stroke-width:1;"/><line style="stroke:#181818;stroke-width:1;" x1="997.7915" x2="1376.3633" y1="559.3242" y2="559.3242"/><text fill="#000000" font-family="sans-serif" font-size="13" lengthAdjust="spacing" textLength="128.4956" x="1004.7915" y="554.582">toDTO(vveEntities[i])</text></g><g class="message" data-participant-1="Map" data-participant-2="Svc"><polygon fill="#181818" points="1008.7915,584.6348,998.7915,588.6348,1008.7915,592.6348,1004.7915,588.6348" style="stroke:#181818;stroke-width:1;"/><line style="stroke:#181818;stroke-width:1;stroke-dasharray:2,2;" x1="1002.7915" x2="1386.3633" y1="588.6348" y2="588.6348"/><text fill="#000000" font-family="sans-serif" font-size="13" lengthAdjust="spacing" textLength="63.8384" x="1014.7915" y="583.8926">vveDTOs[]</text></g><g class="message" data-participant-1="Svc" data-participant-2="Ctrl"><polygon fill="#181818" points="744.7695,613.9453,734.7695,617.9453,744.7695,621.9453,740.7695,617.9453" style="stroke:#181818;stroke-width:1;"/><line style="stroke:#181818;stroke-width:1;stroke-dasharray:2,2;" x1="738.7695" x2="991.7915" y1="617.9453" y2="617.9453"/><text fill="#000000" font-family="sans-serif" font-size="13" lengthAdjust="spacing" textLength="122.313" x="750.7695" y="613.2031">Result.ok(vveDTOs)</text></g><g class="message" data-participant-1="Ctrl" data-participant-2="SPA"><polygon fill="#181818" points="240.2568,658.5664,230.2568,662.5664,240.2568,666.5664,236.2568,662.5664" style="stroke:#181818;stroke-width:1;"/><line style="stroke:#181818;stroke-width:1;stroke-dasharray:2,2;" x1="234.2568" x2="727.7695" y1="662.5664" y2="662.5664"/><text fill="#000000" font-family="sans-serif" font-size="13" lengthAdjust="spacing" textLength="47.3599" x="246.2568" y="642.5137">200 OK</text><text fill="#000000" font-family="sans-serif" font-size="13" lengthAdjust="spacing" textLength="106.0122" x="246.2568" y="657.8242">List of VVE DTOs</text></g><line style="stroke:#000000;stroke-width:1;stroke-dasharray:2,2;" x1="194.7568" x2="1791.1572" y1="671.5664" y2="671.5664"/><text fill="#000000" font-family="sans-serif" font-size="11" font-weight="bold" lengthAdjust="spacing" textLength="155.6113" x="199.7568" y="682.2012">[Unauthorized / Forbidden]</text><g class="message" data-participant-1="Routes" data-participant-2="SPA"><polygon fill="#181818" points="240.2568,705.832,230.2568,709.832,240.2568,713.832,236.2568,709.832" style="stroke:#181818;stroke-width:1;"/><line style="stroke:#181818;stroke-width:1;stroke-dasharray:2,2;" x1="234.2568" x2="566.1357" y1="709.832" y2="709.832"/><text fill="#000000" font-family="sans-serif" font-size="13" lengthAdjust="spacing" textLength="221.6729" x="246.2568" y="705.0898">401 Unauthorized / 403 Forbidden</text></g><path d="M572,690.5215 L572,715.5215 L822,715.5215 L822,700.5215 L812,690.5215 L572,690.5215" fill="#FAFAFA" style="stroke:#181818;stroke-width:0.5;"/><path d="M812,690.5215 L812,700.5215 L822,700.5215 L812,690.5215" fill="#FAFAFA" style="stroke:#181818;stroke-width:0.5;"/><text fill="#000000" font-family="sans-serif" font-size="13" lengthAdjust="spacing" textLength="229.3472" x="578" y="708.0898">Checked via requireRole middleware</text><!--SRC=[XLHRJzim57xthpYgq9Hgi7ORJvMwgL10sq1iBVHbuy5rJXCBnows4yOg_lkEdJPDYpRwq2J7tyNdOhjxgPVSyW8Aeut8hIaGl2sHkMR5vJmrZr9diE3A8VFIAuGfFfIe1S9OyYp0alDIgIuSmUrqGAlSYXncipC7KWE72TSPCiQ5DnOwboQJpalXu7g9bbEi0tpxmUQcr2ctJz2PVX_59NgsegGB4rDwT76nVcN2Q6-DWiu5Ua9yqT7qj8ugh3rElLLR9C6cQ2ifi7Qf14DD2TOU4roQse1UsWjNV1dZz6GfztpE7KBdokZCZ4yWYI_6OJU2nYUC3OSx9Pa_mPXxhAi2mo5ZczJXw5F85K895GeF98yEtgxfBAmHfCwOK1TdDz2hAkpP8FNPUMxzS1KVmU7v3UfqkAA_-CNMlBQ289yvUMFlgv4muqgIfJIQQKCxj3BB_M0J9aBuXuMn1VUnjJG5r94uAOxwgpoCIfyRA_zWoe1-MyjGUZB4toWeb5XyE0IBhXjXD1co2jgnGJ4KyQ4UbI1QXdxTqP5xqY9fSZo4TNfxGg6PCHBu8MDg8kaif4xNGgzhnCQ7I9rAK20bwd6jawm2jEHgP2qHr01MS91v741KFeG35Jv86vxXkTPkb_L7B9wYqo0Wp50AHeS90IToB7Z4azdHTlVKwh4HxkVTortHC1B0cx4fkDJ91Ydlzd8AGni20R-hV1OcNE96FSKNd9PXqvZ_4cC1srreTdbpdRIPhswpCIFcFtQuzTbEsmHTgVmxSv-igTrzPZCdzRmr1_13lm_NttxfIxggm2nYNuB0FhyUMAIh4MurRuOVUd1kx5ocAUgTWz0O7FVVxpEE-n_tMErnESrHt1EkafmEpaCfBKuCtSK5mHK-SejqIQNiBm00]--></g></svg>