<svg xmlns="http://www.w3.org/2000/svg" xmlns:xlink="http://www.w3.org/1999/xlink" contentStyleType="text/css" data-diagram-type="SEQUENCE" height="1536px" preserveAspectRatio="none" style="width:1813px;height:1536px;background:#FFFFFF;" version="1.1" viewBox="0 0 1813 1536" width="1813px" zoomAndPan="magnify"><defs/><g><g><title>Port Authority Officer</title><rect fill="#000000" fill-opacity="0.00000" height="1374.1094" width="8" x="78.3921" y="81.2969"/><line style="stroke:#181818;stroke-width:0.5;stroke-dasharray:5,5;" x1="82" x2="82" y1="81.2969" y2="1455.4063"/></g><g><title>API .ShippingAgentRepresentativeController.</title><rect fill="#000000" fill-opacity="0.00000" height="1374.1094" width="8" x="461.6567" y="81.2969"/><line style="stroke:#181818;stroke-width:0.5;stroke-dasharray:5,5;" x1="464.6919" x2="464.6919" y1="81.2969" y2="1455.4063"/></g><g><title>ShippingAgentRepresentativeService</title><rect fill="#000000" fill-opacity="0.00000" height="1374.1094" width="8" x="766.1094" y="81.2969"/><line style="stroke:#181818;stroke-width:0.5;stroke-dasharray:5,5;" x1="769.6216" x2="769.6216" y1="81.2969" y2="1455.4063"/></g><g><title>ShippingAgentRepresentativeRepository</title><rect fill="#000000" fill-opacity="0.00000" height="1374.1094" width="8" x="1054.7505" y="81.2969"/><line style="stroke:#181818;stroke-width:0.5;stroke-dasharray:5,5;" x1="1058.5972" x2="1058.5972" y1="81.2969" y2="1455.4063"/></g><g><title>UnitOfWork</title><rect fill="#000000" fill-opacity="0.00000" height="1374.1094" width="8" x="1253.2632" y="81.2969"/><line style="stroke:#181818;stroke-width:0.5;stroke-dasharray:5,5;" x1="1256.9038" x2="1256.9038" y1="81.2969" y2="1455.4063"/></g><g><title>ShippingAgentRepresentativeFactory</title><rect fill="#000000" fill-opacity="0.00000" height="1374.1094" width="8" x="1440.4521" y="81.2969"/><line style="stroke:#181818;stroke-width:0.5;stroke-dasharray:5,5;" x1="1443.6226" x2="1443.6226" y1="81.2969" y2="1455.4063"/></g><g><title>Audit.Logs .ILogger.Serilog.</title><rect fill="#000000" fill-opacity="0.00000" height="1374.1094" width="8" x="1690.8784" y="81.2969"/><line style="stroke:#181818;stroke-width:0.5;stroke-dasharray:5,5;" x1="1694.2817" x2="1694.2817" y1="81.2969" y2="1455.4063"/></g><g class="participant participant-head" data-participant="Officer"><text fill="#000000" font-family="sans-serif" font-size="14" lengthAdjust="spacing" textLength="148.7842" x="5" y="77.9951">Port Authority Officer</text><ellipse cx="82.3921" cy="13.5" fill="#E2E2F0" rx="8" ry="8" style="stroke:#181818;stroke-width:0.5;"/><path d="M82.3921,21.5 L82.3921,48.5 M69.3921,29.5 L95.3921,29.5 M82.3921,48.5 L69.3921,63.5 M82.3921,48.5 L95.3921,63.5" fill="none" style="stroke:#181818;stroke-width:0.5;"/></g><g class="participant participant-tail" data-participant="Officer"><text fill="#000000" font-family="sans-serif" font-size="14" lengthAdjust="spacing" textLength="148.7842" x="5" y="1467.4014">Port Authority Officer</text><ellipse cx="82.3921" cy="1479.2031" fill="#E2E2F0" rx="8" ry="8" style="stroke:#181818;stroke-width:0.5;"/><path d="M82.3921,1487.2031 L82.3921,1514.2031 M69.3921,1495.2031 L95.3921,1495.2031 M82.3921,1514.2031 L69.3921,1529.2031 M82.3921,1514.2031 L95.3921,1529.2031" fill="none" style="stroke:#181818;stroke-width:0.5;"/></g><g class="participant participant-head" data-participant="Controller"><text fill="#000000" font-family="sans-serif" font-size="14" lengthAdjust="spacing" textLength="315.9297" x="304.6919" y="77.9951">API (ShippingAgentRepresentativeController)</text><path d="M445.1567,37 L445.1567,61 M445.1567,49 L462.1567,49" fill="none" style="stroke:#181818;stroke-width:0.5;"/><ellipse cx="474.1567" cy="49" fill="#E2E2F0" rx="12" ry="12" style="stroke:#181818;stroke-width:0.5;"/></g><g class="participant participant-tail" data-participant="Controller"><text fill="#000000" font-family="sans-serif" font-size="14" lengthAdjust="spacing" textLength="315.9297" x="304.6919" y="1467.4014">API (ShippingAgentRepresentativeController)</text><path d="M445.1567,1474.7031 L445.1567,1498.7031 M445.1567,1486.7031 L462.1567,1486.7031" fill="none" style="stroke:#181818;stroke-width:0.5;"/><ellipse cx="474.1567" cy="1486.7031" fill="#E2E2F0" rx="12" ry="12" style="stroke:#181818;stroke-width:0.5;"/></g><g class="participant participant-head" data-participant="Service"><text fill="#000000" font-family="sans-serif" font-size="14" lengthAdjust="spacing" textLength="260.9756" x="636.6216" y="77.9951">ShippingAgentRepresentativeService</text><ellipse cx="770.1094" cy="49" fill="#E2E2F0" rx="12" ry="12" style="stroke:#181818;stroke-width:0.5;"/><polygon fill="#181818" points="766.1094,37,772.1094,32,770.1094,37,772.1094,42,766.1094,37" style="stroke:#181818;stroke-width:1;"/></g><g class="participant participant-tail" data-participant="Service"><text fill="#000000" font-family="sans-serif" font-size="14" lengthAdjust="spacing" textLength="260.9756" x="636.6216" y="1467.4014">ShippingAgentRepresentativeService</text><ellipse cx="770.1094" cy="1486.7031" fill="#E2E2F0" rx="12" ry="12" style="stroke:#181818;stroke-width:0.5;"/><polygon fill="#181818" points="766.1094,1474.7031,772.1094,1469.7031,770.1094,1474.7031,772.1094,1479.7031,766.1094,1474.7031" style="stroke:#181818;stroke-width:1;"/></g><g class="participant participant-head" data-participant="Repo"><text fill="#000000" font-family="sans-serif" font-size="14" lengthAdjust="spacing" textLength="284.3066" x="913.5972" y="77.9951">ShippingAgentRepresentativeRepository</text><ellipse cx="1058.7505" cy="49" fill="#E2E2F0" rx="12" ry="12" style="stroke:#181818;stroke-width:0.5;"/><line style="stroke:#181818;stroke-width:0.5;" x1="1046.7505" x2="1070.7505" y1="63" y2="63"/></g><g class="participant participant-tail" data-participant="Repo"><text fill="#000000" font-family="sans-serif" font-size="14" lengthAdjust="spacing" textLength="284.3066" x="913.5972" y="1467.4014">ShippingAgentRepresentativeRepository</text><ellipse cx="1058.7505" cy="1486.7031" fill="#E2E2F0" rx="12" ry="12" style="stroke:#181818;stroke-width:0.5;"/><line style="stroke:#181818;stroke-width:0.5;" x1="1046.7505" x2="1070.7505" y1="1500.7031" y2="1500.7031"/></g><g class="participant participant-head" data-participant="UoW"><text fill="#000000" font-family="sans-serif" font-size="14" lengthAdjust="spacing" textLength="80.7188" x="1213.9038" y="77.9951">UnitOfWork</text><ellipse cx="1257.2632" cy="49" fill="#E2E2F0" rx="12" ry="12" style="stroke:#181818;stroke-width:0.5;"/><line style="stroke:#181818;stroke-width:0.5;" x1="1245.2632" x2="1269.2632" y1="63" y2="63"/></g><g class="participant participant-tail" data-participant="UoW"><text fill="#000000" font-family="sans-serif" font-size="14" lengthAdjust="spacing" textLength="80.7188" x="1213.9038" y="1467.4014">UnitOfWork</text><ellipse cx="1257.2632" cy="1486.7031" fill="#E2E2F0" rx="12" ry="12" style="stroke:#181818;stroke-width:0.5;"/><line style="stroke:#181818;stroke-width:0.5;" x1="1245.2632" x2="1269.2632" y1="1500.7031" y2="1500.7031"/></g><g class="participant participant-head" data-participant="Factory"><text fill="#000000" font-family="sans-serif" font-size="14" lengthAdjust="spacing" textLength="261.6592" x="1310.6226" y="77.9951">ShippingAgentRepresentativeFactory</text><ellipse cx="1444.4521" cy="49" fill="#E2E2F0" rx="12" ry="12" style="stroke:#181818;stroke-width:0.5;"/><polygon fill="#181818" points="1440.4521,37,1446.4521,32,1444.4521,37,1446.4521,42,1440.4521,37" style="stroke:#181818;stroke-width:1;"/></g><g class="participant participant-tail" data-participant="Factory"><text fill="#000000" font-family="sans-serif" font-size="14" lengthAdjust="spacing" textLength="261.6592" x="1310.6226" y="1467.4014">ShippingAgentRepresentativeFactory</text><ellipse cx="1444.4521" cy="1486.7031" fill="#E2E2F0" rx="12" ry="12" style="stroke:#181818;stroke-width:0.5;"/><polygon fill="#181818" points="1440.4521,1474.7031,1446.4521,1469.7031,1444.4521,1474.7031,1446.4521,1479.7031,1440.4521,1474.7031" style="stroke:#181818;stroke-width:1;"/></g><g class="participant participant-head" data-participant="Log"><rect fill="#E2E2F0" height="30.2969" style="stroke:#181818;stroke-width:0.5;" width="209.1934" x="1592.2817" y="46"/><rect fill="#E2E2F0" height="30.2969" style="stroke:#181818;stroke-width:0.5;" width="209.1934" x="1588.2817" y="50"/><text fill="#000000" font-family="sans-serif" font-size="14" lengthAdjust="spacing" textLength="195.1934" x="1595.2817" y="69.9951">Audit/Logs (ILogger/Serilog)</text></g><g class="participant participant-tail" data-participant="Log"><rect fill="#E2E2F0" height="30.2969" style="stroke:#181818;stroke-width:0.5;" width="209.1934" x="1592.2817" y="1454.4063"/><rect fill="#E2E2F0" height="30.2969" style="stroke:#181818;stroke-width:0.5;" width="209.1934" x="1588.2817" y="1458.4063"/><text fill="#000000" font-family="sans-serif" font-size="14" lengthAdjust="spacing" textLength="195.1934" x="1595.2817" y="1478.4014">Audit/Logs (ILogger/Serilog)</text></g><rect fill="#EEEEEE" height="3" style="stroke:#EEEEEE;stroke-width:1;" width="1806.4751" x="0" y="111.8633"/><line style="stroke:#000000;stroke-width:1;" x1="0" x2="1806.4751" y1="111.8633" y2="111.8633"/><line style="stroke:#000000;stroke-width:1;" x1="0" x2="1806.4751" y1="114.8633" y2="114.8633"/><rect fill="#EEEEEE" height="23.1328" style="stroke:#000000;stroke-width:2;" width="67.0981" x="869.6885" y="101.2969"/><text fill="#000000" font-family="sans-serif" font-size="13" font-weight="bold" lengthAdjust="spacing" textLength="48.5723" x="875.6885" y="117.3638">Create</text><g class="message" data-participant-1="Officer" data-participant-2="Controller"><polygon fill="#181818" points="453.6567,166.6953,463.6567,170.6953,453.6567,174.6953,457.6567,170.6953" style="stroke:#181818;stroke-width:1;"/><line style="stroke:#181818;stroke-width:1;" x1="82.3921" x2="459.6567" y1="170.6953" y2="170.6953"/><text fill="#000000" font-family="sans-serif" font-size="13" lengthAdjust="spacing" textLength="261.2759" x="89.3921" y="150.4966">POST /api/ShippingAgentRepresentative</text><text fill="#000000" font-family="sans-serif" font-size="13" lengthAdjust="spacing" textLength="314.2661" x="89.3921" y="165.6294">Body: CreatingShippingAgentRepresentativeDto</text></g><g class="message" data-participant-1="Controller" data-participant-2="Service"><polygon fill="#181818" points="758.1094,195.8281,768.1094,199.8281,758.1094,203.8281,762.1094,199.8281" style="stroke:#181818;stroke-width:1;"/><line style="stroke:#181818;stroke-width:1;" x1="465.6567" x2="764.1094" y1="199.8281" y2="199.8281"/><text fill="#000000" font-family="sans-serif" font-size="13" lengthAdjust="spacing" textLength="95.5894" x="472.6567" y="194.7622">AddAsync(dto)</text></g><g class="message" data-participant-1="Service" data-participant-2="Repo"><polygon fill="#181818" points="1046.7505,224.9609,1056.7505,228.9609,1046.7505,232.9609,1050.7505,228.9609" style="stroke:#181818;stroke-width:1;"/><line style="stroke:#181818;stroke-width:1;" x1="770.1094" x2="1052.7505" y1="228.9609" y2="228.9609"/><text fill="#000000" font-family="sans-serif" font-size="13" lengthAdjust="spacing" textLength="227.1953" x="777.1094" y="223.895">GetByCitizenIdAsync(dto.CitizenId)</text></g><g class="message" data-participant-1="Repo" data-participant-2="Service"><polygon fill="#181818" points="781.1094,254.0938,771.1094,258.0938,781.1094,262.0938,777.1094,258.0938" style="stroke:#181818;stroke-width:1;"/><line style="stroke:#181818;stroke-width:1;stroke-dasharray:2,2;" x1="775.1094" x2="1057.7505" y1="258.0938" y2="258.0938"/><text fill="#000000" font-family="sans-serif" font-size="13" lengthAdjust="spacing" textLength="230.6357" x="787.1094" y="253.0278">null / ShippingAgentRepresentative</text></g><g class="message" data-participant-1="Service" data-participant-2="Repo"><polygon fill="#181818" points="1046.7505,283.2266,1056.7505,287.2266,1046.7505,291.2266,1050.7505,287.2266" style="stroke:#181818;stroke-width:1;"/><line style="stroke:#181818;stroke-width:1;" x1="770.1094" x2="1052.7505" y1="287.2266" y2="287.2266"/><text fill="#000000" font-family="sans-serif" font-size="13" lengthAdjust="spacing" textLength="186.2402" x="777.1094" y="282.1606">GetByEmailAsync(dto.Email)</text></g><g class="message" data-participant-1="Repo" data-participant-2="Service"><polygon fill="#181818" points="781.1094,312.3594,771.1094,316.3594,781.1094,320.3594,777.1094,316.3594" style="stroke:#181818;stroke-width:1;"/><line style="stroke:#181818;stroke-width:1;stroke-dasharray:2,2;" x1="775.1094" x2="1057.7505" y1="316.3594" y2="316.3594"/><text fill="#000000" font-family="sans-serif" font-size="13" lengthAdjust="spacing" textLength="230.6357" x="787.1094" y="311.2935">null / ShippingAgentRepresentative</text></g><g class="message" data-participant-1="Service" data-participant-2="Repo"><polygon fill="#181818" points="1046.7505,341.4922,1056.7505,345.4922,1046.7505,349.4922,1050.7505,345.4922" style="stroke:#181818;stroke-width:1;"/><line style="stroke:#181818;stroke-width:1;" x1="770.1094" x2="1052.7505" y1="345.4922" y2="345.4922"/><text fill="#000000" font-family="sans-serif" font-size="13" lengthAdjust="spacing" textLength="171.5581" x="777.1094" y="340.4263">GetByCodeAsync(dto.Sao)</text></g><g class="message" data-participant-1="Repo" data-participant-2="Service"><polygon fill="#181818" points="781.1094,370.625,771.1094,374.625,781.1094,378.625,777.1094,374.625" style="stroke:#181818;stroke-width:1;"/><line style="stroke:#181818;stroke-width:1;stroke-dasharray:2,2;" x1="775.1094" x2="1057.7505" y1="374.625" y2="374.625"/><text fill="#000000" font-family="sans-serif" font-size="13" lengthAdjust="spacing" textLength="230.6357" x="787.1094" y="369.5591">null / ShippingAgentRepresentative</text></g><g class="message" data-participant-1="Service" data-participant-2="Factory"><polygon fill="#181818" points="1432.4521,399.7578,1442.4521,403.7578,1432.4521,407.7578,1436.4521,403.7578" style="stroke:#181818;stroke-width:1;"/><line style="stroke:#181818;stroke-width:1;" x1="770.1094" x2="1438.4521" y1="403.7578" y2="403.7578"/><text fill="#000000" font-family="sans-serif" font-size="13" lengthAdjust="spacing" textLength="112.8804" x="777.1094" y="398.6919">CreateEntity(dto)</text></g><g class="message" data-participant-1="Factory" data-participant-2="Service"><polygon fill="#181818" points="781.1094,428.8906,771.1094,432.8906,781.1094,436.8906,777.1094,432.8906" style="stroke:#181818;stroke-width:1;"/><line style="stroke:#181818;stroke-width:1;stroke-dasharray:2,2;" x1="775.1094" x2="1443.4521" y1="432.8906" y2="432.8906"/><text fill="#000000" font-family="sans-serif" font-size="13" lengthAdjust="spacing" textLength="246.3018" x="787.1094" y="427.8247">ShippingAgentRepresentative (entity)</text></g><g class="message" data-participant-1="Service" data-participant-2="Repo"><polygon fill="#181818" points="1046.7505,458.0234,1056.7505,462.0234,1046.7505,466.0234,1050.7505,462.0234" style="stroke:#181818;stroke-width:1;"/><line style="stroke:#181818;stroke-width:1;" x1="770.1094" x2="1052.7505" y1="462.0234" y2="462.0234"/><text fill="#000000" font-family="sans-serif" font-size="13" lengthAdjust="spacing" textLength="112.0234" x="777.1094" y="456.9575">AddAsync(entity)</text></g><g class="message" data-participant-1="Repo" data-participant-2="Service"><polygon fill="#181818" points="781.1094,487.1563,771.1094,491.1563,781.1094,495.1563,777.1094,491.1563" style="stroke:#181818;stroke-width:1;"/><line style="stroke:#181818;stroke-width:1;stroke-dasharray:2,2;" x1="775.1094" x2="1057.7505" y1="491.1563" y2="491.1563"/><text fill="#000000" font-family="sans-serif" font-size="13" lengthAdjust="spacing" textLength="102.1846" x="787.1094" y="486.0903">Entity persisted</text></g><g class="message" data-participant-1="Service" data-participant-2="UoW"><polygon fill="#181818" points="1245.2632,516.2891,1255.2632,520.2891,1245.2632,524.2891,1249.2632,520.2891" style="stroke:#181818;stroke-width:1;"/><line style="stroke:#181818;stroke-width:1;" x1="770.1094" x2="1251.2632" y1="520.2891" y2="520.2891"/><text fill="#000000" font-family="sans-serif" font-size="13" lengthAdjust="spacing" textLength="99.9565" x="777.1094" y="515.2231">CommitAsync()</text></g><g class="message" data-participant-1="UoW" data-participant-2="Service"><polygon fill="#181818" points="781.1094,545.4219,771.1094,549.4219,781.1094,553.4219,777.1094,549.4219" style="stroke:#181818;stroke-width:1;"/><line style="stroke:#181818;stroke-width:1;stroke-dasharray:2,2;" x1="775.1094" x2="1256.2632" y1="549.4219" y2="549.4219"/><text fill="#000000" font-family="sans-serif" font-size="13" lengthAdjust="spacing" textLength="150.8965" x="787.1094" y="544.356">Transaction committed</text></g><g class="message" data-participant-1="Service" data-participant-2="Factory"><polygon fill="#181818" points="1432.4521,574.5547,1442.4521,578.5547,1432.4521,582.5547,1436.4521,578.5547" style="stroke:#181818;stroke-width:1;"/><line style="stroke:#181818;stroke-width:1;" x1="770.1094" x2="1438.4521" y1="578.5547" y2="578.5547"/><text fill="#000000" font-family="sans-serif" font-size="13" lengthAdjust="spacing" textLength="114.4229" x="777.1094" y="573.4888">CreateDto(entity)</text></g><g class="message" data-participant-1="Factory" data-participant-2="Service"><polygon fill="#181818" points="781.1094,603.6875,771.1094,607.6875,781.1094,611.6875,777.1094,607.6875" style="stroke:#181818;stroke-width:1;"/><line style="stroke:#181818;stroke-width:1;stroke-dasharray:2,2;" x1="775.1094" x2="1443.4521" y1="607.6875" y2="607.6875"/><text fill="#000000" font-family="sans-serif" font-size="13" lengthAdjust="spacing" textLength="217.3501" x="787.1094" y="602.6216">ShippingAgentRepresentativeDto</text></g><g class="message" data-participant-1="Service" data-participant-2="Log"><polygon fill="#181818" points="1682.8784,632.8203,1692.8784,636.8203,1682.8784,640.8203,1686.8784,636.8203" style="stroke:#181818;stroke-width:1;"/><line style="stroke:#181818;stroke-width:1;" x1="770.1094" x2="1688.8784" y1="636.8203" y2="636.8203"/><text fill="#000000" font-family="sans-serif" font-size="13" lengthAdjust="spacing" textLength="259.543" x="777.1094" y="631.7544">Log(CREATE, officerId, email, SUCCESS)</text></g><g class="message" data-participant-1="Service" data-participant-2="Controller"><polygon fill="#181818" points="476.6567,661.9531,466.6567,665.9531,476.6567,669.9531,472.6567,665.9531" style="stroke:#181818;stroke-width:1;"/><line style="stroke:#181818;stroke-width:1;stroke-dasharray:2,2;" x1="470.6567" x2="769.1094" y1="665.9531" y2="665.9531"/><text fill="#000000" font-family="sans-serif" font-size="13" lengthAdjust="spacing" textLength="217.3501" x="482.6567" y="660.8872">ShippingAgentRepresentativeDto</text></g><g class="message" data-participant-1="Controller" data-participant-2="Officer"><polygon fill="#181818" points="93.3921,691.0859,83.3921,695.0859,93.3921,699.0859,89.3921,695.0859" style="stroke:#181818;stroke-width:1;"/><line style="stroke:#181818;stroke-width:1;stroke-dasharray:2,2;" x1="87.3921" x2="464.6567" y1="695.0859" y2="695.0859"/><text fill="#000000" font-family="sans-serif" font-size="13" lengthAdjust="spacing" textLength="312.3047" x="99.3921" y="690.02">201 Created (ShippingAgentRepresentativeDto)</text></g><rect fill="#EEEEEE" height="3" style="stroke:#EEEEEE;stroke-width:1;" width="1806.4751" x="0" y="723.6523"/><line style="stroke:#000000;stroke-width:1;" x1="0" x2="1806.4751" y1="723.6523" y2="723.6523"/><line style="stroke:#000000;stroke-width:1;" x1="0" x2="1806.4751" y1="726.6523" y2="726.6523"/><rect fill="#EEEEEE" height="23.1328" style="stroke:#000000;stroke-width:2;" width="71.4971" x="867.489" y="713.0859"/><text fill="#000000" font-family="sans-serif" font-size="13" font-weight="bold" lengthAdjust="spacing" textLength="52.9712" x="873.489" y="729.1528">Update</text><g class="message" data-participant-1="Officer" data-participant-2="Controller"><polygon fill="#181818" points="453.6567,778.4844,463.6567,782.4844,453.6567,786.4844,457.6567,782.4844" style="stroke:#181818;stroke-width:1;"/><line style="stroke:#181818;stroke-width:1;" x1="82.3921" x2="459.6567" y1="782.4844" y2="782.4844"/><text fill="#000000" font-family="sans-serif" font-size="13" lengthAdjust="spacing" textLength="359.2646" x="89.3921" y="762.2856">PUT /api/ShippingAgentRepresentative/update/{email}</text><text fill="#000000" font-family="sans-serif" font-size="13" lengthAdjust="spacing" textLength="258.6797" x="89.3921" y="777.4185">Body: ShippingAgentRepresentativeDto</text></g><g class="message" data-participant-1="Controller" data-participant-2="Service"><polygon fill="#181818" points="758.1094,807.6172,768.1094,811.6172,758.1094,815.6172,762.1094,811.6172" style="stroke:#181818;stroke-width:1;"/><line style="stroke:#181818;stroke-width:1;" x1="465.6567" x2="764.1094" y1="811.6172" y2="811.6172"/><text fill="#000000" font-family="sans-serif" font-size="13" lengthAdjust="spacing" textLength="161.3892" x="472.6567" y="806.5513">UpdateAsync(email, dto)</text></g><g class="message" data-participant-1="Service" data-participant-2="Repo"><polygon fill="#181818" points="1046.7505,836.75,1056.7505,840.75,1046.7505,844.75,1050.7505,840.75" style="stroke:#181818;stroke-width:1;"/><line style="stroke:#181818;stroke-width:1;" x1="770.1094" x2="1052.7505" y1="840.75" y2="840.75"/><text fill="#000000" font-family="sans-serif" font-size="13" lengthAdjust="spacing" textLength="160.5894" x="777.1094" y="835.6841">GetByEmailAsync(email)</text></g><g class="message" data-participant-1="Repo" data-participant-2="Service"><polygon fill="#181818" points="781.1094,865.8828,771.1094,869.8828,781.1094,873.8828,777.1094,869.8828" style="stroke:#181818;stroke-width:1;"/><line style="stroke:#181818;stroke-width:1;stroke-dasharray:2,2;" x1="775.1094" x2="1057.7505" y1="869.8828" y2="869.8828"/><text fill="#000000" font-family="sans-serif" font-size="13" lengthAdjust="spacing" textLength="259.8413" x="787.1094" y="864.8169">ShippingAgentRepresentative (existing)</text></g><g class="message" data-participant-1="Service" data-participant-2="Repo"><polygon fill="#181818" points="1046.7505,895.0156,1056.7505,899.0156,1046.7505,903.0156,1050.7505,899.0156" style="stroke:#181818;stroke-width:1;"/><line style="stroke:#181818;stroke-width:1;" x1="770.1094" x2="1052.7505" y1="899.0156" y2="899.0156"/><text fill="#000000" font-family="sans-serif" font-size="13" lengthAdjust="spacing" textLength="137.979" x="777.1094" y="893.9497">Save(updated entity)</text></g><g class="message" data-participant-1="Repo" data-participant-2="Service"><polygon fill="#181818" points="781.1094,924.1484,771.1094,928.1484,781.1094,932.1484,777.1094,928.1484" style="stroke:#181818;stroke-width:1;"/><line style="stroke:#181818;stroke-width:1;stroke-dasharray:2,2;" x1="775.1094" x2="1057.7505" y1="928.1484" y2="928.1484"/><text fill="#000000" font-family="sans-serif" font-size="13" lengthAdjust="spacing" textLength="96.1416" x="787.1094" y="923.0825">Entity updated</text></g><g class="message" data-participant-1="Service" data-participant-2="UoW"><polygon fill="#181818" points="1245.2632,953.2813,1255.2632,957.2813,1245.2632,961.2813,1249.2632,957.2813" style="stroke:#181818;stroke-width:1;"/><line style="stroke:#181818;stroke-width:1;" x1="770.1094" x2="1251.2632" y1="957.2813" y2="957.2813"/><text fill="#000000" font-family="sans-serif" font-size="13" lengthAdjust="spacing" textLength="99.9565" x="777.1094" y="952.2153">CommitAsync()</text></g><g class="message" data-participant-1="UoW" data-participant-2="Service"><polygon fill="#181818" points="781.1094,982.4141,771.1094,986.4141,781.1094,990.4141,777.1094,986.4141" style="stroke:#181818;stroke-width:1;"/><line style="stroke:#181818;stroke-width:1;stroke-dasharray:2,2;" x1="775.1094" x2="1256.2632" y1="986.4141" y2="986.4141"/><text fill="#000000" font-family="sans-serif" font-size="13" lengthAdjust="spacing" textLength="150.8965" x="787.1094" y="981.3481">Transaction committed</text></g><g class="message" data-participant-1="Service" data-participant-2="Factory"><polygon fill="#181818" points="1432.4521,1011.5469,1442.4521,1015.5469,1432.4521,1019.5469,1436.4521,1015.5469" style="stroke:#181818;stroke-width:1;"/><line style="stroke:#181818;stroke-width:1;" x1="770.1094" x2="1438.4521" y1="1015.5469" y2="1015.5469"/><text fill="#000000" font-family="sans-serif" font-size="13" lengthAdjust="spacing" textLength="130.7427" x="777.1094" y="1010.481">CreateDto(updated)</text></g><g class="message" data-participant-1="Factory" data-participant-2="Service"><polygon fill="#181818" points="781.1094,1040.6797,771.1094,1044.6797,781.1094,1048.6797,777.1094,1044.6797" style="stroke:#181818;stroke-width:1;"/><line style="stroke:#181818;stroke-width:1;stroke-dasharray:2,2;" x1="775.1094" x2="1443.4521" y1="1044.6797" y2="1044.6797"/><text fill="#000000" font-family="sans-serif" font-size="13" lengthAdjust="spacing" textLength="217.3501" x="787.1094" y="1039.6138">ShippingAgentRepresentativeDto</text></g><g class="message" data-participant-1="Service" data-participant-2="Log"><polygon fill="#181818" points="1682.8784,1069.8125,1692.8784,1073.8125,1682.8784,1077.8125,1686.8784,1073.8125" style="stroke:#181818;stroke-width:1;"/><line style="stroke:#181818;stroke-width:1;" x1="770.1094" x2="1688.8784" y1="1073.8125" y2="1073.8125"/><text fill="#000000" font-family="sans-serif" font-size="13" lengthAdjust="spacing" textLength="260.584" x="777.1094" y="1068.7466">Log(UPDATE, officerId, email, SUCCESS)</text></g><g class="message" data-participant-1="Service" data-participant-2="Controller"><polygon fill="#181818" points="476.6567,1098.9453,466.6567,1102.9453,476.6567,1106.9453,472.6567,1102.9453" style="stroke:#181818;stroke-width:1;"/><line style="stroke:#181818;stroke-width:1;stroke-dasharray:2,2;" x1="470.6567" x2="769.1094" y1="1102.9453" y2="1102.9453"/><text fill="#000000" font-family="sans-serif" font-size="13" lengthAdjust="spacing" textLength="217.3501" x="482.6567" y="1097.8794">ShippingAgentRepresentativeDto</text></g><g class="message" data-participant-1="Controller" data-participant-2="Officer"><polygon fill="#181818" points="93.3921,1128.0781,83.3921,1132.0781,93.3921,1136.0781,89.3921,1132.0781" style="stroke:#181818;stroke-width:1;"/><line style="stroke:#181818;stroke-width:1;stroke-dasharray:2,2;" x1="87.3921" x2="464.6567" y1="1132.0781" y2="1132.0781"/><text fill="#000000" font-family="sans-serif" font-size="13" lengthAdjust="spacing" textLength="279.3286" x="99.3921" y="1127.0122">200 OK (ShippingAgentRepresentativeDto)</text></g><rect fill="#EEEEEE" height="3" style="stroke:#EEEEEE;stroke-width:1;" width="1806.4751" x="0" y="1160.6445"/><line style="stroke:#000000;stroke-width:1;" x1="0" x2="1806.4751" y1="1160.6445" y2="1160.6445"/><line style="stroke:#000000;stroke-width:1;" x1="0" x2="1806.4751" y1="1163.6445" y2="1163.6445"/><rect fill="#EEEEEE" height="23.1328" style="stroke:#000000;stroke-width:2;" width="68.8501" x="868.8125" y="1150.0781"/><text fill="#000000" font-family="sans-serif" font-size="13" font-weight="bold" lengthAdjust="spacing" textLength="50.3242" x="874.8125" y="1166.145">Search</text><g class="message" data-participant-1="Officer" data-participant-2="Controller"><polygon fill="#181818" points="453.6567,1200.3438,463.6567,1204.3438,453.6567,1208.3438,457.6567,1204.3438" style="stroke:#181818;stroke-width:1;"/><line style="stroke:#181818;stroke-width:1;" x1="82.3921" x2="459.6567" y1="1204.3438" y2="1204.3438"/><text fill="#000000" font-family="sans-serif" font-size="13" lengthAdjust="spacing" textLength="350.2446" x="89.3921" y="1199.2778">GET /api/ShippingAgentRepresentative/email/{email}</text></g><g class="message" data-participant-1="Controller" data-participant-2="Service"><polygon fill="#181818" points="758.1094,1229.4766,768.1094,1233.4766,758.1094,1237.4766,762.1094,1233.4766" style="stroke:#181818;stroke-width:1;"/><line style="stroke:#181818;stroke-width:1;" x1="465.6567" x2="764.1094" y1="1233.4766" y2="1233.4766"/><text fill="#000000" font-family="sans-serif" font-size="13" lengthAdjust="spacing" textLength="160.5894" x="472.6567" y="1228.4106">GetByEmailAsync(email)</text></g><g class="message" data-participant-1="Service" data-participant-2="Repo"><polygon fill="#181818" points="1046.7505,1258.6094,1056.7505,1262.6094,1046.7505,1266.6094,1050.7505,1262.6094" style="stroke:#181818;stroke-width:1;"/><line style="stroke:#181818;stroke-width:1;" x1="770.1094" x2="1052.7505" y1="1262.6094" y2="1262.6094"/><text fill="#000000" font-family="sans-serif" font-size="13" lengthAdjust="spacing" textLength="160.5894" x="777.1094" y="1257.5435">GetByEmailAsync(email)</text></g><g class="message" data-participant-1="Repo" data-participant-2="Service"><polygon fill="#181818" points="781.1094,1287.7422,771.1094,1291.7422,781.1094,1295.7422,777.1094,1291.7422" style="stroke:#181818;stroke-width:1;"/><line style="stroke:#181818;stroke-width:1;stroke-dasharray:2,2;" x1="775.1094" x2="1057.7505" y1="1291.7422" y2="1291.7422"/><text fill="#000000" font-family="sans-serif" font-size="13" lengthAdjust="spacing" textLength="194.2891" x="787.1094" y="1286.6763">ShippingAgentRepresentative</text></g><g class="message" data-participant-1="Service" data-participant-2="Factory"><polygon fill="#181818" points="1432.4521,1316.875,1442.4521,1320.875,1432.4521,1324.875,1436.4521,1320.875" style="stroke:#181818;stroke-width:1;"/><line style="stroke:#181818;stroke-width:1;" x1="770.1094" x2="1438.4521" y1="1320.875" y2="1320.875"/><text fill="#000000" font-family="sans-serif" font-size="13" lengthAdjust="spacing" textLength="270.9751" x="777.1094" y="1315.8091">CreateDto(ShippingAgentRepresentative)</text></g><g class="message" data-participant-1="Factory" data-participant-2="Service"><polygon fill="#181818" points="781.1094,1346.0078,771.1094,1350.0078,781.1094,1354.0078,777.1094,1350.0078" style="stroke:#181818;stroke-width:1;"/><line style="stroke:#181818;stroke-width:1;stroke-dasharray:2,2;" x1="775.1094" x2="1443.4521" y1="1350.0078" y2="1350.0078"/><text fill="#000000" font-family="sans-serif" font-size="13" lengthAdjust="spacing" textLength="217.3501" x="787.1094" y="1344.9419">ShippingAgentRepresentativeDto</text></g><g class="message" data-participant-1="Service" data-participant-2="Controller"><polygon fill="#181818" points="476.6567,1375.1406,466.6567,1379.1406,476.6567,1383.1406,472.6567,1379.1406" style="stroke:#181818;stroke-width:1;"/><line style="stroke:#181818;stroke-width:1;stroke-dasharray:2,2;" x1="470.6567" x2="769.1094" y1="1379.1406" y2="1379.1406"/><text fill="#000000" font-family="sans-serif" font-size="13" lengthAdjust="spacing" textLength="217.3501" x="482.6567" y="1374.0747">ShippingAgentRepresentativeDto</text></g><g class="message" data-participant-1="Controller" data-participant-2="Log"><polygon fill="#181818" points="1682.8784,1404.2734,1692.8784,1408.2734,1682.8784,1412.2734,1686.8784,1408.2734" style="stroke:#181818;stroke-width:1;"/><line style="stroke:#181818;stroke-width:1;" x1="465.6567" x2="1688.8784" y1="1408.2734" y2="1408.2734"/><text fill="#000000" font-family="sans-serif" font-size="13" lengthAdjust="spacing" textLength="263.0913" x="472.6567" y="1403.2075">Log(SEARCH, officerId, query, SUCCESS)</text></g><g class="message" data-participant-1="Controller" data-participant-2="Officer"><polygon fill="#181818" points="93.3921,1433.4063,83.3921,1437.4063,93.3921,1441.4063,89.3921,1437.4063" style="stroke:#181818;stroke-width:1;"/><line style="stroke:#181818;stroke-width:1;stroke-dasharray:2,2;" x1="87.3921" x2="464.6567" y1="1437.4063" y2="1437.4063"/><text fill="#000000" font-family="sans-serif" font-size="13" lengthAdjust="spacing" textLength="279.3286" x="99.3921" y="1432.3403">200 OK (ShippingAgentRepresentativeDto)</text></g><!--SRC=[nPPDJzj048Rl_XMZN70aWYc77Y9HoJWfZLeKXEDowMNh7SogpgwxNYFSYl_UyTfE74GS8BJDWUp7p3iV-qp40Po- -kCSG8W_2vGnmaImHBCbZ20AJuvEZjw36sXa1e593XTCiWGXl1LP9cG2VeBIm1Lc6dDQCIFkC1-Idb-OMwN7uATuJuuQ8L2vONGJA6dmtepXKcdJ22uhbH5ynJp751PbXd2XU94YsUzHbiDYepGCRAGw8s5AcD_SY1Zr05ZUhftlgf2SwH86_kKCtBP0MzzcULN-MgKfwg5LME-Tk5x2eCSzH7r74QrhitRehighpursAXTKJMazg-tABPB2p6-kbVvXxo9r_QnCFjhkr7hDcloeaDW89NFgHC65yRwe90TtHby9QezI5gbAwjBfp75EJw41X3hUj1D67pfz0NhhURW0ZsN2wqdecpnJl1pNScJIOpenoka4e71DBocMpxcVbp9skL53fpqdawffT7-EvgmCX16_KCxMfaUhew5ZBKSRgh98K_2W9wTjeQPB9j9r6Bjzun21uhYE43Br1leD4j2y1qujRNLJsxjD_HvXS6jOdtgFrNkr9a-aNWU737KkSeEyAqEyLqcgvLAOMcZeL6UR2WlDPCuisX1RsqSoZ-ibn5OPlRZUYi-EDWqAsTDVDxYQ-elf8QXwK6Ry4B02uX32A0YcOTZfqECXUi4ya6ixYcCuENxNrCHxVzacrTDMynnbVDSyHxl7sIkiZFVR5lZGJlShfxhEgG6bxbZVV7U63hSEN3-mzqGQNJuL8cHtwDRbSTYDRMFvZw1jehqbjT7bv3zGUmpppyy3DaIcuzi-OC-dpm3MrjJokfN4BNpz9H1tlNQFwxu4xF6INNZ2gNyLVDg0X_xNr6K7ddqX-0C0]--></g></svg>