<svg xmlns="http://www.w3.org/2000/svg" xmlns:xlink="http://www.w3.org/1999/xlink" contentStyleType="text/css" data-diagram-type="CLASS" height="1242px" preserveAspectRatio="none" style="width:1393px;height:1242px;background:#FFFFFF;" version="1.1" viewBox="0 0 1393 1242" width="1393px" zoomAndPan="magnify"><defs/><g><!--cluster Domain--><g class="cluster" data-entity="Domain" data-source-line="2" data-uid="ent0002" id="cluster_Domain"><path d="M358.5,847.23 L415.0967,847.23 A3.75,3.75 0 0 1 417.5967,849.73 L424.5967,869.7183 L903.5,869.7183 A2.5,2.5 0 0 1 906,872.2183 L906,1233.1 A2.5,2.5 0 0 1 903.5,1235.6 L358.5,1235.6 A2.5,2.5 0 0 1 356,1233.1 L356,849.73 A2.5,2.5 0 0 1 358.5,847.23" fill="none" style="stroke:#000000;stroke-width:1.5;"/><line style="stroke:#000000;stroke-width:1.5;" x1="356" x2="424.5967" y1="869.7183" y2="869.7183"/><text fill="#000000" font-family="sans-serif" font-size="14" font-weight="bold" lengthAdjust="spacing" textLength="55.5967" x="360" y="862.7652">Domain</text></g><!--cluster DTOs--><g class="cluster" data-entity="DTOs" data-source-line="23" data-uid="ent0006" id="cluster_DTOs"><path d="M673.5,608.81 L714.7021,608.81 A3.75,3.75 0 0 1 717.2021,611.31 L724.2021,631.2983 L1073.5,631.2983 A2.5,2.5 0 0 1 1076,633.7983 L1076,820.73 A2.5,2.5 0 0 1 1073.5,823.23 L673.5,823.23 A2.5,2.5 0 0 1 671,820.73 L671,611.31 A2.5,2.5 0 0 1 673.5,608.81" fill="none" style="stroke:#000000;stroke-width:1.5;"/><line style="stroke:#000000;stroke-width:1.5;" x1="671" x2="724.2021" y1="631.2983" y2="631.2983"/><text fill="#000000" font-family="sans-serif" font-size="14" font-weight="bold" lengthAdjust="spacing" textLength="40.2021" x="675" y="624.3452">DTOs</text></g><!--cluster Application--><g class="cluster" data-entity="Application" data-source-line="43" data-uid="ent0009" id="cluster_Application"><path d="M626.5,211.44 L709.5107,211.44 A3.75,3.75 0 0 1 712.0107,213.94 L719.0107,233.9283 L1089.5,233.9283 A2.5,2.5 0 0 1 1092,236.4283 L1092,572.58 A2.5,2.5 0 0 1 1089.5,575.08 L626.5,575.08 A2.5,2.5 0 0 1 624,572.58 L624,213.94 A2.5,2.5 0 0 1 626.5,211.44" fill="none" style="stroke:#000000;stroke-width:1.5;"/><line style="stroke:#000000;stroke-width:1.5;" x1="624" x2="719.0107" y1="233.9283" y2="233.9283"/><text fill="#000000" font-family="sans-serif" font-size="14" font-weight="bold" lengthAdjust="spacing" textLength="82.0107" x="628" y="226.9752">Application</text></g><!--cluster Infrastructure--><g class="cluster" data-entity="Infrastructure" data-source-line="59" data-uid="ent0012" id="cluster_Infrastructure"><path d="M8.5,418.37 L109.7695,418.37 A3.75,3.75 0 0 1 112.2695,420.87 L119.2695,440.8583 L597.5,440.8583 A2.5,2.5 0 0 1 600,443.3583 L600,763.02 A2.5,2.5 0 0 1 597.5,765.52 L8.5,765.52 A2.5,2.5 0 0 1 6,763.02 L6,420.87 A2.5,2.5 0 0 1 8.5,418.37" fill="none" style="stroke:#000000;stroke-width:1.5;"/><line style="stroke:#000000;stroke-width:1.5;" x1="6" x2="119.2695" y1="440.8583" y2="440.8583"/><text fill="#000000" font-family="sans-serif" font-size="14" font-weight="bold" lengthAdjust="spacing" textLength="100.2695" x="10" y="433.9052">Infrastructure</text></g><!--cluster Presentation--><g class="cluster" data-entity="Presentation" data-source-line="79" data-uid="ent0019" id="cluster_Presentation"><path d="M834.5,6 L926.2334,6 A3.75,3.75 0 0 1 928.7334,8.5 L935.7334,28.4883 L1211.5,28.4883 A2.5,2.5 0 0 1 1214,30.9883 L1214,184.94 A2.5,2.5 0 0 1 1211.5,187.44 L834.5,187.44 A2.5,2.5 0 0 1 832,184.94 L832,8.5 A2.5,2.5 0 0 1 834.5,6" fill="none" style="stroke:#000000;stroke-width:1.5;"/><line style="stroke:#000000;stroke-width:1.5;" x1="832" x2="935.7334" y1="28.4883" y2="28.4883"/><text fill="#000000" font-family="sans-serif" font-size="14" font-weight="bold" lengthAdjust="spacing" textLength="90.7334" x="836" y="21.5352">Presentation</text></g><!--cluster Cross-cutting--><g class="cluster" data-entity="Cross-cutting" data-source-line="89" data-uid="ent0021" id="cluster_Cross-cutting"><path d="M1118.5,434.86 L1220.5283,434.86 A3.75,3.75 0 0 1 1223.0283,437.36 L1230.0283,457.3483 L1383.5,457.3483 A2.5,2.5 0 0 1 1386,459.8483 L1386,580.82 A2.5,2.5 0 0 1 1383.5,583.32 L1118.5,583.32 A2.5,2.5 0 0 1 1116,580.82 L1116,437.36 A2.5,2.5 0 0 1 1118.5,434.86" fill="none" style="stroke:#000000;stroke-width:1.5;"/><line style="stroke:#000000;stroke-width:1.5;" x1="1116" x2="1230.0283" y1="457.3483" y2="457.3483"/><text fill="#000000" font-family="sans-serif" font-size="14" font-weight="bold" lengthAdjust="spacing" textLength="101.0283" x="1120" y="450.3952">Cross-cutting</text></g><!--class VesselType--><g class="entity" data-entity="VesselType" data-source-line="3" data-uid="ent0003" id="entity_VesselType"><rect fill="#F1F1F1" height="196.3945" rx="2.5" ry="2.5" style="stroke:#181818;stroke-width:0.5;" width="228.9043" x="371.55" y="882.23"/><ellipse cx="443.8264" cy="898.23" fill="#ADD1B2" rx="11" ry="11" style="stroke:#181818;stroke-width:1;"/><path d="M446.7995,903.8731 Q446.2185,904.1719 445.5793,904.3213 Q444.9401,904.4707 444.2346,904.4707 Q441.7277,904.4707 440.4079,902.8189 Q439.0881,901.167 439.0881,898.0459 Q439.0881,894.9165 440.4079,893.2647 Q441.7277,891.6128 444.2346,891.6128 Q444.9401,891.6128 445.5876,891.7622 Q446.2351,891.9116 446.7995,892.2105 L446.7995,894.9331 Q446.1687,894.3521 445.5751,894.0823 Q444.9816,893.8125 444.3508,893.8125 Q443.0061,893.8125 442.3212,894.8792 Q441.6364,895.9458 441.6364,898.0459 Q441.6364,900.1377 442.3212,901.2044 Q443.0061,902.271 444.3508,902.271 Q444.9816,902.271 445.5751,902.0012 Q446.1687,901.7315 446.7995,901.1504 Z " fill="#000000"/><text fill="#000000" font-family="sans-serif" font-size="14" lengthAdjust="spacing" textLength="75.8516" x="464.3264" y="903.521">VesselType</text><line style="stroke:#181818;stroke-width:0.5;" x1="372.55" x2="599.4543" y1="914.23" y2="914.23"/><rect fill="none" height="6" style="stroke:#C82930;stroke-width:1;" width="6" x="379.55" y="924.9741"/><text fill="#000000" font-family="sans-serif" font-size="14" lengthAdjust="spacing" textLength="82.9404" x="391.55" y="931.7652">string Name</text><rect fill="none" height="6" style="stroke:#C82930;stroke-width:1;" width="6" x="379.55" y="941.4624"/><text fill="#000000" font-family="sans-serif" font-size="14" lengthAdjust="spacing" textLength="121.748" x="391.55" y="948.2534">string Description</text><rect fill="none" height="6" style="stroke:#C82930;stroke-width:1;" width="6" x="379.55" y="957.9507"/><text fill="#000000" font-family="sans-serif" font-size="14" lengthAdjust="spacing" textLength="81.0127" x="391.55" y="964.7417">int MaxBays</text><rect fill="none" height="6" style="stroke:#C82930;stroke-width:1;" width="6" x="379.55" y="974.439"/><text fill="#000000" font-family="sans-serif" font-size="14" lengthAdjust="spacing" textLength="86.1533" x="391.55" y="981.23">int MaxRows</text><rect fill="none" height="6" style="stroke:#C82930;stroke-width:1;" width="6" x="379.55" y="990.9273"/><text fill="#000000" font-family="sans-serif" font-size="14" lengthAdjust="spacing" textLength="84.3418" x="391.55" y="997.7183">int MaxTiers</text><rect fill="none" height="6" style="stroke:#C82930;stroke-width:1;" width="6" x="379.55" y="1007.4155"/><text fill="#000000" font-family="sans-serif" font-size="14" lengthAdjust="spacing" textLength="92.9209" x="391.55" y="1014.2066">float Capacity</text><line style="stroke:#181818;stroke-width:0.5;" x1="372.55" x2="599.4543" y1="1021.1597" y2="1021.1597"/><ellipse cx="382.55" cy="1034.9038" fill="#84BE84" rx="3" ry="3" style="stroke:#038048;stroke-width:1;"/><text fill="#000000" font-family="sans-serif" font-size="14" lengthAdjust="spacing" textLength="138.9404" x="391.55" y="1038.6948">ChangeName(string)</text><ellipse cx="382.55" cy="1051.3921" fill="#84BE84" rx="3" ry="3" style="stroke:#038048;stroke-width:1;"/><text fill="#000000" font-family="sans-serif" font-size="14" lengthAdjust="spacing" textLength="177.748" x="391.55" y="1055.1831">ChangeDescription(string)</text><ellipse cx="382.55" cy="1067.8804" fill="#84BE84" rx="3" ry="3" style="stroke:#038048;stroke-width:1;"/><text fill="#000000" font-family="sans-serif" font-size="14" lengthAdjust="spacing" textLength="202.9043" x="391.55" y="1071.6714">ChangeDimensions(int,int,int)</text></g><!--class VesselTypeId--><g class="entity" data-entity="VesselTypeId" data-source-line="15" data-uid="ent0004" id="entity_VesselTypeId"><rect fill="#F1F1F1" height="80.9766" rx="2.5" ry="2.5" style="stroke:#181818;stroke-width:0.5;" width="128.5186" x="421.74" y="1138.62"/><ellipse cx="440.26" cy="1154.62" fill="#ADD1B2" rx="11" ry="11" style="stroke:#181818;stroke-width:1;"/><path d="M443.2332,1160.2631 Q442.6521,1160.5619 442.0129,1160.7113 Q441.3738,1160.8607 440.6682,1160.8607 Q438.1614,1160.8607 436.8416,1159.2089 Q435.5217,1157.557 435.5217,1154.4359 Q435.5217,1151.3065 436.8416,1149.6547 Q438.1614,1148.0028 440.6682,1148.0028 Q441.3738,1148.0028 442.0213,1148.1522 Q442.6687,1148.3016 443.2332,1148.6005 L443.2332,1151.3231 Q442.6023,1150.7421 442.0088,1150.4723 Q441.4153,1150.2025 440.7844,1150.2025 Q439.4397,1150.2025 438.7549,1151.2692 Q438.0701,1152.3358 438.0701,1154.4359 Q438.0701,1156.5277 438.7549,1157.5944 Q439.4397,1158.661 440.7844,1158.661 Q441.4153,1158.661 442.0088,1158.3912 Q442.6023,1158.1215 443.2332,1157.5404 Z " fill="#000000"/><text fill="#000000" font-family="sans-serif" font-size="14" lengthAdjust="spacing" textLength="88.6963" x="455.0422" y="1159.911">VesselTypeId</text><line style="stroke:#181818;stroke-width:0.5;" x1="422.74" x2="549.2586" y1="1170.62" y2="1170.62"/><rect fill="none" height="6" style="stroke:#C82930;stroke-width:1;" width="6" x="429.74" y="1181.3641"/><text fill="#000000" font-family="sans-serif" font-size="14" lengthAdjust="spacing" textLength="73.5137" x="441.74" y="1188.1552">Guid Value</text><line style="stroke:#181818;stroke-width:0.5;" x1="422.74" x2="549.2586" y1="1195.1083" y2="1195.1083"/><ellipse cx="432.74" cy="1208.8524" fill="#84BE84" rx="3" ry="3" style="stroke:#038048;stroke-width:1;"/><text fill="#000000" font-family="sans-serif" font-size="14" lengthAdjust="spacing" textLength="102.5186" x="441.74" y="1212.6434">AsGuid() : Guid</text></g><!--class BusinessRuleValidationException--><g class="entity" data-entity="BusinessRuleValidationException" data-source-line="20" data-uid="ent0005" id="entity_BusinessRuleValidationException"><rect fill="#F1F1F1" height="48" rx="2.5" ry="2.5" style="stroke:#181818;stroke-width:0.5;" width="254.6943" x="635.65" y="956.43"/><ellipse cx="650.65" cy="972.43" fill="#ADD1B2" rx="11" ry="11" style="stroke:#181818;stroke-width:1;"/><path d="M653.6231,978.0731 Q653.0421,978.3719 652.4029,978.5213 Q651.7638,978.6707 651.0582,978.6707 Q648.5514,978.6707 647.2315,977.0189 Q645.9117,975.367 645.9117,972.2459 Q645.9117,969.1165 647.2315,967.4647 Q648.5514,965.8128 651.0582,965.8128 Q651.7638,965.8128 652.4112,965.9622 Q653.0587,966.1116 653.6231,966.4105 L653.6231,969.1331 Q652.9923,968.5521 652.3988,968.2823 Q651.8053,968.0125 651.1744,968.0125 Q649.8297,968.0125 649.1449,969.0792 Q648.4601,970.1458 648.4601,972.2459 Q648.4601,974.3377 649.1449,975.4044 Q649.8297,976.471 651.1744,976.471 Q651.8053,976.471 652.3988,976.2012 Q652.9923,975.9315 653.6231,975.3504 Z " fill="#000000"/><text fill="#000000" font-family="sans-serif" font-size="14" lengthAdjust="spacing" textLength="222.6943" x="664.65" y="977.721">BusinessRuleValidationException</text><line style="stroke:#181818;stroke-width:0.5;" x1="636.65" x2="889.3443" y1="988.43" y2="988.43"/><line style="stroke:#181818;stroke-width:0.5;" x1="636.65" x2="889.3443" y1="996.43" y2="996.43"/></g><!--class CreatingVesselTypeDto--><g class="entity" data-entity="CreatingVesselTypeDto" data-source-line="24" data-uid="ent0007" id="entity_CreatingVesselTypeDto"><rect fill="#F1F1F1" height="130.4414" rx="2.5" ry="2.5" style="stroke:#181818;stroke-width:0.5;" width="189.8213" x="687.09" y="660.3"/><ellipse cx="702.09" cy="676.3" fill="#ADD1B2" rx="11" ry="11" style="stroke:#181818;stroke-width:1;"/><path d="M705.0631,681.9431 Q704.4821,682.2419 703.8429,682.3913 Q703.2038,682.5407 702.4982,682.5407 Q699.9914,682.5407 698.6715,680.8889 Q697.3517,679.237 697.3517,676.1159 Q697.3517,672.9865 698.6715,671.3347 Q699.9914,669.6828 702.4982,669.6828 Q703.2038,669.6828 703.8512,669.8322 Q704.4987,669.9816 705.0631,670.2805 L705.0631,673.0031 Q704.4323,672.4221 703.8388,672.1523 Q703.2453,671.8825 702.6144,671.8825 Q701.2697,671.8825 700.5849,672.9492 Q699.9001,674.0158 699.9001,676.1159 Q699.9001,678.2077 700.5849,679.2744 Q701.2697,680.341 702.6144,680.341 Q703.2453,680.341 703.8388,680.0712 Q704.4323,679.8015 705.0631,679.2204 Z " fill="#000000"/><text fill="#000000" font-family="sans-serif" font-size="14" lengthAdjust="spacing" textLength="157.8213" x="716.09" y="681.591">CreatingVesselTypeDto</text><line style="stroke:#181818;stroke-width:0.5;" x1="688.09" x2="875.9113" y1="692.3" y2="692.3"/><ellipse cx="698.09" cy="706.0441" fill="none" rx="3" ry="3" style="stroke:#038048;stroke-width:1;"/><text fill="#000000" font-family="sans-serif" font-size="14" lengthAdjust="spacing" textLength="82.9404" x="707.09" y="709.8352">string Name</text><ellipse cx="698.09" cy="722.5324" fill="none" rx="3" ry="3" style="stroke:#038048;stroke-width:1;"/><text fill="#000000" font-family="sans-serif" font-size="14" lengthAdjust="spacing" textLength="121.748" x="707.09" y="726.3234">string Description</text><ellipse cx="698.09" cy="739.0207" fill="none" rx="3" ry="3" style="stroke:#038048;stroke-width:1;"/><text fill="#000000" font-family="sans-serif" font-size="14" lengthAdjust="spacing" textLength="81.0127" x="707.09" y="742.8117">int MaxBays</text><ellipse cx="698.09" cy="755.509" fill="none" rx="3" ry="3" style="stroke:#038048;stroke-width:1;"/><text fill="#000000" font-family="sans-serif" font-size="14" lengthAdjust="spacing" textLength="86.1533" x="707.09" y="759.3">int MaxRows</text><ellipse cx="698.09" cy="771.9973" fill="none" rx="3" ry="3" style="stroke:#038048;stroke-width:1;"/><text fill="#000000" font-family="sans-serif" font-size="14" lengthAdjust="spacing" textLength="84.3418" x="707.09" y="775.7883">int MaxTiers</text><line style="stroke:#181818;stroke-width:0.5;" x1="688.09" x2="875.9113" y1="782.7414" y2="782.7414"/></g><!--class VesselTypeDto--><g class="entity" data-entity="VesselTypeDto" data-source-line="32" data-uid="ent0008" id="entity_VesselTypeDto"><rect fill="#F1F1F1" height="163.418" rx="2.5" ry="2.5" style="stroke:#181818;stroke-width:0.5;" width="147.748" x="912.13" y="643.81"/><ellipse cx="934.1384" cy="659.81" fill="#ADD1B2" rx="11" ry="11" style="stroke:#181818;stroke-width:1;"/><path d="M937.1115,665.4531 Q936.5305,665.7519 935.8913,665.9013 Q935.2522,666.0507 934.5466,666.0507 Q932.0398,666.0507 930.7199,664.3989 Q929.4001,662.747 929.4001,659.6259 Q929.4001,656.4965 930.7199,654.8447 Q932.0398,653.1928 934.5466,653.1928 Q935.2522,653.1928 935.8996,653.3422 Q936.5471,653.4916 937.1115,653.7905 L937.1115,656.5131 Q936.4807,655.9321 935.8872,655.6623 Q935.2937,655.3925 934.6628,655.3925 Q933.3181,655.3925 932.6333,656.4592 Q931.9485,657.5258 931.9485,659.6259 Q931.9485,661.7177 932.6333,662.7844 Q933.3181,663.851 934.6628,663.851 Q935.2937,663.851 935.8872,663.5812 Q936.4807,663.3115 937.1115,662.7304 Z " fill="#000000"/><text fill="#000000" font-family="sans-serif" font-size="14" lengthAdjust="spacing" textLength="100.1738" x="949.6958" y="665.101">VesselTypeDto</text><line style="stroke:#181818;stroke-width:0.5;" x1="913.13" x2="1058.878" y1="675.81" y2="675.81"/><ellipse cx="923.13" cy="689.5541" fill="none" rx="3" ry="3" style="stroke:#038048;stroke-width:1;"/><text fill="#000000" font-family="sans-serif" font-size="14" lengthAdjust="spacing" textLength="48.9385" x="932.13" y="693.3452">Guid Id</text><ellipse cx="923.13" cy="706.0424" fill="none" rx="3" ry="3" style="stroke:#038048;stroke-width:1;"/><text fill="#000000" font-family="sans-serif" font-size="14" lengthAdjust="spacing" textLength="82.9404" x="932.13" y="709.8334">string Name</text><ellipse cx="923.13" cy="722.5307" fill="none" rx="3" ry="3" style="stroke:#038048;stroke-width:1;"/><text fill="#000000" font-family="sans-serif" font-size="14" lengthAdjust="spacing" textLength="121.748" x="932.13" y="726.3217">string Description</text><ellipse cx="923.13" cy="739.019" fill="none" rx="3" ry="3" style="stroke:#038048;stroke-width:1;"/><text fill="#000000" font-family="sans-serif" font-size="14" lengthAdjust="spacing" textLength="81.0127" x="932.13" y="742.81">int MaxBays</text><ellipse cx="923.13" cy="755.5073" fill="none" rx="3" ry="3" style="stroke:#038048;stroke-width:1;"/><text fill="#000000" font-family="sans-serif" font-size="14" lengthAdjust="spacing" textLength="86.1533" x="932.13" y="759.2983">int MaxRows</text><ellipse cx="923.13" cy="771.9955" fill="none" rx="3" ry="3" style="stroke:#038048;stroke-width:1;"/><text fill="#000000" font-family="sans-serif" font-size="14" lengthAdjust="spacing" textLength="84.3418" x="932.13" y="775.7866">int MaxTiers</text><ellipse cx="923.13" cy="788.4838" fill="none" rx="3" ry="3" style="stroke:#038048;stroke-width:1;"/><text fill="#000000" font-family="sans-serif" font-size="14" lengthAdjust="spacing" textLength="92.9209" x="932.13" y="792.2748">float Capacity</text><line style="stroke:#181818;stroke-width:0.5;" x1="913.13" x2="1058.878" y1="799.228" y2="799.228"/></g><!--class VesselTypeService--><g class="entity" data-entity="VesselTypeService" data-source-line="44" data-uid="ent0010" id="entity_VesselTypeService"><rect fill="#F1F1F1" height="146.9297" rx="2.5" ry="2.5" style="stroke:#181818;stroke-width:0.5;" width="434.9736" x="640.51" y="246.44"/><ellipse cx="792.155" cy="262.44" fill="#ADD1B2" rx="11" ry="11" style="stroke:#181818;stroke-width:1;"/><path d="M795.1282,268.0831 Q794.5471,268.3819 793.9079,268.5313 Q793.2688,268.6807 792.5632,268.6807 Q790.0564,268.6807 788.7366,267.0289 Q787.4167,265.377 787.4167,262.2559 Q787.4167,259.1265 788.7366,257.4747 Q790.0564,255.8228 792.5632,255.8228 Q793.2688,255.8228 793.9163,255.9722 Q794.5637,256.1216 795.1282,256.4205 L795.1282,259.1431 Q794.4973,258.5621 793.9038,258.2923 Q793.3103,258.0225 792.6794,258.0225 Q791.3347,258.0225 790.6499,259.0892 Q789.9651,260.1558 789.9651,262.2559 Q789.9651,264.3477 790.6499,265.4144 Q791.3347,266.481 792.6794,266.481 Q793.3103,266.481 793.9038,266.2112 Q794.4973,265.9415 795.1282,265.3604 Z " fill="#000000"/><text fill="#000000" font-family="sans-serif" font-size="14" lengthAdjust="spacing" textLength="123.1836" x="812.655" y="267.731">VesselTypeService</text><line style="stroke:#181818;stroke-width:0.5;" x1="641.51" x2="1074.4836" y1="278.44" y2="278.44"/><line style="stroke:#181818;stroke-width:0.5;" x1="641.51" x2="1074.4836" y1="286.44" y2="286.44"/><ellipse cx="651.51" cy="300.1841" fill="#84BE84" rx="3" ry="3" style="stroke:#038048;stroke-width:1;"/><text fill="#000000" font-family="sans-serif" font-size="14" lengthAdjust="spacing" textLength="249.5869" x="660.51" y="303.9752">GetAllAsync() : List&lt;VesselTypeDto&gt;</text><ellipse cx="651.51" cy="316.6724" fill="#84BE84" rx="3" ry="3" style="stroke:#038048;stroke-width:1;"/><text fill="#000000" font-family="sans-serif" font-size="14" lengthAdjust="spacing" textLength="302.5996" x="660.51" y="320.4634">GetByIdAsync(VesselTypeId) : VesselTypeDto</text><ellipse cx="651.51" cy="333.1607" fill="#84BE84" rx="3" ry="3" style="stroke:#038048;stroke-width:1;"/><text fill="#000000" font-family="sans-serif" font-size="14" lengthAdjust="spacing" textLength="279.5693" x="660.51" y="336.9517">GetByNameAsync(string) : VesselTypeDto</text><ellipse cx="651.51" cy="349.649" fill="#84BE84" rx="3" ry="3" style="stroke:#038048;stroke-width:1;"/><text fill="#000000" font-family="sans-serif" font-size="14" lengthAdjust="spacing" textLength="397.1816" x="660.51" y="353.44">FilterAsync(string?, string?, string?) : List&lt;VesselTypeDto&gt;</text><ellipse cx="651.51" cy="366.1373" fill="#84BE84" rx="3" ry="3" style="stroke:#038048;stroke-width:1;"/><text fill="#000000" font-family="sans-serif" font-size="14" lengthAdjust="spacing" textLength="347.6416" x="660.51" y="369.9283">AddAsync(CreatingVesselTypeDto) : VesselTypeDto</text><ellipse cx="651.51" cy="382.6255" fill="#84BE84" rx="3" ry="3" style="stroke:#038048;stroke-width:1;"/><text fill="#000000" font-family="sans-serif" font-size="14" lengthAdjust="spacing" textLength="408.9736" x="660.51" y="386.4166">UpdateAsync(Guid, CreatingVesselTypeDto) : VesselTypeDto</text></g><!--class VesselTypeFactory--><g class="entity" data-entity="VesselTypeFactory" data-source-line="53" data-uid="ent0011" id="entity_VesselTypeFactory"><rect fill="#F1F1F1" height="80.9766" rx="2.5" ry="2.5" style="stroke:#181818;stroke-width:0.5;" width="436.04" x="639.98" y="478.1"/><ellipse cx="791.1807" cy="494.1" fill="#ADD1B2" rx="11" ry="11" style="stroke:#181818;stroke-width:1;"/><path d="M794.1538,499.7431 Q793.5728,500.0419 792.9336,500.1913 Q792.2945,500.3407 791.5889,500.3407 Q789.0821,500.3407 787.7622,498.6889 Q786.4424,497.037 786.4424,493.9159 Q786.4424,490.7865 787.7622,489.1347 Q789.0821,487.4828 791.5889,487.4828 Q792.2945,487.4828 792.9419,487.6322 Q793.5894,487.7816 794.1538,488.0805 L794.1538,490.8031 Q793.523,490.2221 792.9295,489.9523 Q792.336,489.6825 791.7051,489.6825 Q790.3604,489.6825 789.6756,490.7492 Q788.9907,491.8158 788.9907,493.9159 Q788.9907,496.0077 789.6756,497.0744 Q790.3604,498.141 791.7051,498.141 Q792.336,498.141 792.9295,497.8712 Q793.523,497.6015 794.1538,497.0204 Z " fill="#000000"/><text fill="#000000" font-family="sans-serif" font-size="14" lengthAdjust="spacing" textLength="125.1387" x="811.6807" y="499.391">VesselTypeFactory</text><line style="stroke:#181818;stroke-width:0.5;" x1="640.98" x2="1075.02" y1="510.1" y2="510.1"/><line style="stroke:#181818;stroke-width:0.5;" x1="640.98" x2="1075.02" y1="518.1" y2="518.1"/><ellipse cx="650.98" cy="531.8441" fill="#84BE84" rx="3" ry="3" style="stroke:#038048;stroke-width:1;"/><text fill="#000000" font-family="sans-serif" font-size="14" lengthAdjust="spacing" textLength="410.04" x="659.98" y="535.6352">CreateBasicVesselType(CreatingVesselTypeDto) : VesselType</text><ellipse cx="650.98" cy="548.3324" fill="#84BE84" rx="3" ry="3" style="stroke:#038048;stroke-width:1;"/><text fill="#000000" font-family="sans-serif" font-size="14" lengthAdjust="spacing" textLength="342.5762" x="659.98" y="552.1234">CreateDtoVesselType(VesselType) : VesselTypeDto</text></g><!--class IVesselTypeRepository--><g class="entity" data-entity="IVesselTypeRepository" data-source-line="60" data-uid="ent0013" id="entity_IVesselTypeRepository"><rect fill="#F1F1F1" height="130.4414" rx="2.5" ry="2.5" style="stroke:#181818;stroke-width:0.5;" width="398.8594" x="21.57" y="453.37"/><ellipse cx="140.7443" cy="469.37" fill="#B4A7E5" rx="11" ry="11" style="stroke:#181818;stroke-width:1;"/><path d="M136.6721,465.1351 L136.6721,462.9769 L144.0514,462.9769 L144.0514,465.1351 L141.5861,465.1351 L141.5861,473.2118 L144.0514,473.2118 L144.0514,475.37 L136.6721,475.37 L136.6721,473.2118 L139.1374,473.2118 L139.1374,465.1351 Z " fill="#000000"/><text fill="#000000" font-family="sans-serif" font-size="14" font-style="italic" lengthAdjust="spacing" textLength="152.0107" x="161.2443" y="474.661">IVesselTypeRepository</text><line style="stroke:#181818;stroke-width:0.5;" x1="22.57" x2="419.4294" y1="485.37" y2="485.37"/><line style="stroke:#181818;stroke-width:0.5;" x1="22.57" x2="419.4294" y1="493.37" y2="493.37"/><ellipse cx="32.57" cy="507.1141" fill="#84BE84" rx="3" ry="3" style="stroke:#038048;stroke-width:1;"/><text fill="#000000" font-family="sans-serif" font-size="14" lengthAdjust="spacing" textLength="225.2646" x="41.57" y="510.9052">GetAllAsync() : List&lt;VesselType&gt;</text><ellipse cx="32.57" cy="523.6024" fill="#84BE84" rx="3" ry="3" style="stroke:#038048;stroke-width:1;"/><text fill="#000000" font-family="sans-serif" font-size="14" lengthAdjust="spacing" textLength="278.2773" x="41.57" y="527.3934">GetByIdAsync(VesselTypeId) : VesselType</text><ellipse cx="32.57" cy="540.0907" fill="#84BE84" rx="3" ry="3" style="stroke:#038048;stroke-width:1;"/><text fill="#000000" font-family="sans-serif" font-size="14" lengthAdjust="spacing" textLength="261.1533" x="41.57" y="543.8817">GetByNameAsync(string) : VesselType?</text><ellipse cx="32.57" cy="556.579" fill="#84BE84" rx="3" ry="3" style="stroke:#038048;stroke-width:1;"/><text fill="#000000" font-family="sans-serif" font-size="14" lengthAdjust="spacing" textLength="372.8594" x="41.57" y="560.37">FilterAsync(string?, string?, string?) : List&lt;VesselType&gt;</text><ellipse cx="32.57" cy="573.0673" fill="#84BE84" rx="3" ry="3" style="stroke:#038048;stroke-width:1;"/><text fill="#000000" font-family="sans-serif" font-size="14" lengthAdjust="spacing" textLength="152.209" x="41.57" y="576.8583">AddAsync(VesselType)</text></g><!--class VesselTypeRepository--><g class="entity" data-entity="VesselTypeRepository" data-source-line="68" data-uid="ent0014" id="entity_VesselTypeRepository"><rect fill="#F1F1F1" height="48" rx="2.5" ry="2.5" style="stroke:#181818;stroke-width:0.5;" width="179.9775" x="190.01" y="701.52"/><ellipse cx="205.01" cy="717.52" fill="#ADD1B2" rx="11" ry="11" style="stroke:#181818;stroke-width:1;"/><path d="M207.9831,723.1631 Q207.4021,723.4619 206.7629,723.6113 Q206.1238,723.7607 205.4182,723.7607 Q202.9114,723.7607 201.5915,722.1089 Q200.2717,720.457 200.2717,717.3359 Q200.2717,714.2065 201.5915,712.5547 Q202.9114,710.9028 205.4182,710.9028 Q206.1238,710.9028 206.7712,711.0522 Q207.4187,711.2016 207.9831,711.5005 L207.9831,714.2231 Q207.3523,713.6421 206.7588,713.3723 Q206.1653,713.1025 205.5344,713.1025 Q204.1897,713.1025 203.5049,714.1692 Q202.8201,715.2358 202.8201,717.3359 Q202.8201,719.4277 203.5049,720.4944 Q204.1897,721.561 205.5344,721.561 Q206.1653,721.561 206.7588,721.2912 Q207.3523,721.0215 207.9831,720.4404 Z " fill="#000000"/><text fill="#000000" font-family="sans-serif" font-size="14" lengthAdjust="spacing" textLength="147.9775" x="219.01" y="722.811">VesselTypeRepository</text><line style="stroke:#181818;stroke-width:0.5;" x1="191.01" x2="368.9875" y1="733.52" y2="733.52"/><line style="stroke:#181818;stroke-width:0.5;" x1="191.01" x2="368.9875" y1="741.52" y2="741.52"/></g><!--class IUnitOfWork--><g class="entity" data-entity="IUnitOfWork" data-source-line="71" data-uid="ent0016" id="entity_IUnitOfWork"><rect fill="#F1F1F1" height="64.4883" rx="2.5" ry="2.5" style="stroke:#181818;stroke-width:0.5;" width="128.7852" x="455.61" y="486.35"/><ellipse cx="477.1662" cy="502.35" fill="#B4A7E5" rx="11" ry="11" style="stroke:#181818;stroke-width:1;"/><path d="M473.0939,498.1151 L473.0939,495.9569 L480.4733,495.9569 L480.4733,498.1151 L478.008,498.1151 L478.008,506.1918 L480.4733,506.1918 L480.4733,508.35 L473.0939,508.35 L473.0939,506.1918 L475.5593,506.1918 L475.5593,498.1151 Z " fill="#000000"/><text fill="#000000" font-family="sans-serif" font-size="14" font-style="italic" lengthAdjust="spacing" textLength="82.2158" x="492.6231" y="507.641">IUnitOfWork</text><line style="stroke:#181818;stroke-width:0.5;" x1="456.61" x2="583.3952" y1="518.35" y2="518.35"/><line style="stroke:#181818;stroke-width:0.5;" x1="456.61" x2="583.3952" y1="526.35" y2="526.35"/><ellipse cx="466.61" cy="540.0941" fill="#84BE84" rx="3" ry="3" style="stroke:#038048;stroke-width:1;"/><text fill="#000000" font-family="sans-serif" font-size="14" lengthAdjust="spacing" textLength="102.7852" x="475.61" y="543.8852">CommitAsync()</text></g><!--class UnitOfWork--><g class="entity" data-entity="UnitOfWork" data-source-line="75" data-uid="ent0017" id="entity_UnitOfWork"><rect fill="#F1F1F1" height="48" rx="2.5" ry="2.5" style="stroke:#181818;stroke-width:0.5;" width="110.1826" x="464.91" y="701.52"/><ellipse cx="479.91" cy="717.52" fill="#ADD1B2" rx="11" ry="11" style="stroke:#181818;stroke-width:1;"/><path d="M482.8831,723.1631 Q482.3021,723.4619 481.6629,723.6113 Q481.0238,723.7607 480.3182,723.7607 Q477.8114,723.7607 476.4915,722.1089 Q475.1717,720.457 475.1717,717.3359 Q475.1717,714.2065 476.4915,712.5547 Q477.8114,710.9028 480.3182,710.9028 Q481.0238,710.9028 481.6712,711.0522 Q482.3187,711.2016 482.8831,711.5005 L482.8831,714.2231 Q482.2523,713.6421 481.6588,713.3723 Q481.0653,713.1025 480.4344,713.1025 Q479.0897,713.1025 478.4049,714.1692 Q477.7201,715.2358 477.7201,717.3359 Q477.7201,719.4277 478.4049,720.4944 Q479.0897,721.561 480.4344,721.561 Q481.0653,721.561 481.6588,721.2912 Q482.2523,721.0215 482.8831,720.4404 Z " fill="#000000"/><text fill="#000000" font-family="sans-serif" font-size="14" lengthAdjust="spacing" textLength="78.1826" x="493.91" y="722.811">UnitOfWork</text><line style="stroke:#181818;stroke-width:0.5;" x1="465.91" x2="574.0926" y1="733.52" y2="733.52"/><line style="stroke:#181818;stroke-width:0.5;" x1="465.91" x2="574.0926" y1="741.52" y2="741.52"/></g><!--class VesselTypeController--><g class="entity" data-entity="VesselTypeController" data-source-line="80" data-uid="ent0020" id="entity_VesselTypeController"><rect fill="#F1F1F1" height="130.4414" rx="2.5" ry="2.5" style="stroke:#181818;stroke-width:0.5;" width="350.3721" x="847.81" y="41"/><ellipse cx="946.7397" cy="57" fill="#ADD1B2" rx="11" ry="11" style="stroke:#181818;stroke-width:1;"/><path d="M949.7128,62.6431 Q949.1318,62.9419 948.4926,63.0913 Q947.8535,63.2407 947.1479,63.2407 Q944.6411,63.2407 943.3212,61.5889 Q942.0014,59.937 942.0014,56.8159 Q942.0014,53.6865 943.3212,52.0347 Q944.6411,50.3828 947.1479,50.3828 Q947.8535,50.3828 948.5009,50.5322 Q949.1484,50.6816 949.7128,50.9805 L949.7128,53.7031 Q949.082,53.1221 948.4885,52.8523 Q947.895,52.5825 947.2641,52.5825 Q945.9194,52.5825 945.2346,53.6492 Q944.5497,54.7158 944.5497,56.8159 Q944.5497,58.9077 945.2346,59.9744 Q945.9194,61.041 947.2641,61.041 Q947.895,61.041 948.4885,60.7712 Q949.082,60.5015 949.7128,59.9204 Z " fill="#000000"/><text fill="#000000" font-family="sans-serif" font-size="14" lengthAdjust="spacing" textLength="144.0127" x="967.2397" y="62.291">VesselTypeController</text><line style="stroke:#181818;stroke-width:0.5;" x1="848.81" x2="1197.1821" y1="73" y2="73"/><line style="stroke:#181818;stroke-width:0.5;" x1="848.81" x2="1197.1821" y1="81" y2="81"/><ellipse cx="858.81" cy="94.7441" fill="#84BE84" rx="3" ry="3" style="stroke:#038048;stroke-width:1;"/><text fill="#000000" font-family="sans-serif" font-size="14" lengthAdjust="spacing" textLength="209.6172" x="867.81" y="98.5352">GetAll() : List&lt;VesselTypeDto&gt;</text><ellipse cx="858.81" cy="111.2324" fill="#84BE84" rx="3" ry="3" style="stroke:#038048;stroke-width:1;"/><text fill="#000000" font-family="sans-serif" font-size="14" lengthAdjust="spacing" textLength="205.5977" x="867.81" y="115.0234">GetById(Guid) : VesselTypeDto</text><ellipse cx="858.81" cy="127.7207" fill="#84BE84" rx="3" ry="3" style="stroke:#038048;stroke-width:1;"/><text fill="#000000" font-family="sans-serif" font-size="14" lengthAdjust="spacing" textLength="239.5996" x="867.81" y="131.5117">GetByName(string) : VesselTypeDto</text><ellipse cx="858.81" cy="144.209" fill="#84BE84" rx="3" ry="3" style="stroke:#038048;stroke-width:1;"/><text fill="#000000" font-family="sans-serif" font-size="14" lengthAdjust="spacing" textLength="302.8799" x="867.81" y="148">Filter(string?, string?) : List&lt;VesselTypeDto&gt;</text><ellipse cx="858.81" cy="160.6973" fill="#84BE84" rx="3" ry="3" style="stroke:#038048;stroke-width:1;"/><text fill="#000000" font-family="sans-serif" font-size="14" lengthAdjust="spacing" textLength="324.3721" x="867.81" y="164.4883">Create(CreatingVesselTypeDto) : VesselTypeDto</text></g><!--class ILogger--><g class="entity" data-entity="ILogger" data-source-line="90" data-uid="ent0022" id="entity_ILogger"><rect fill="#F1F1F1" height="97.4648" rx="2.5" ry="2.5" style="stroke:#181818;stroke-width:0.5;" width="238.1055" x="1131.95" y="469.86"/><ellipse cx="1215.4163" cy="485.86" fill="#B4A7E5" rx="11" ry="11" style="stroke:#181818;stroke-width:1;"/><path d="M1211.344,481.6251 L1211.344,479.4669 L1218.7234,479.4669 L1218.7234,481.6251 L1216.2581,481.6251 L1216.2581,489.7018 L1218.7234,489.7018 L1218.7234,491.86 L1211.344,491.86 L1211.344,489.7018 L1213.8094,489.7018 L1213.8094,481.6251 Z " fill="#000000"/><text fill="#000000" font-family="sans-serif" font-size="14" font-style="italic" lengthAdjust="spacing" textLength="51.085" x="1235.9163" y="491.151">ILogger</text><rect fill="#FFFFFF" height="16.1328" style="stroke:#181818;stroke-width:1;stroke-dasharray:2,2;" width="9.5879" x="1363.4676" y="466.86"/><text fill="#000000" font-family="sans-serif" font-size="12" font-style="italic" lengthAdjust="spacing" textLength="7.5879" x="1364.4676" y="479.4616">T</text><line style="stroke:#181818;stroke-width:0.5;" x1="1132.95" x2="1369.0555" y1="501.86" y2="501.86"/><line style="stroke:#181818;stroke-width:0.5;" x1="1132.95" x2="1369.0555" y1="509.86" y2="509.86"/><ellipse cx="1142.95" cy="523.6041" fill="#84BE84" rx="3" ry="3" style="stroke:#038048;stroke-width:1;"/><text fill="#000000" font-family="sans-serif" font-size="14" lengthAdjust="spacing" textLength="212.1055" x="1151.95" y="527.3952">LogInformation(string, params)</text><ellipse cx="1142.95" cy="540.0924" fill="#84BE84" rx="3" ry="3" style="stroke:#038048;stroke-width:1;"/><text fill="#000000" font-family="sans-serif" font-size="14" lengthAdjust="spacing" textLength="188.125" x="1151.95" y="543.8834">LogWarning(string, params)</text><ellipse cx="1142.95" cy="556.5807" fill="#84BE84" rx="3" ry="3" style="stroke:#038048;stroke-width:1;"/><text fill="#000000" font-family="sans-serif" font-size="14" lengthAdjust="spacing" textLength="165.9082" x="1151.95" y="560.3717">LogError(string, params)</text></g><!--reverse link IVesselTypeRepository to VesselTypeRepository--><g class="link" data-entity-1="IVesselTypeRepository" data-entity-2="VesselTypeRepository" data-uid="lnk15" id="link_IVesselTypeRepository_VesselTypeRepository"><path d="M244.5682,601.4479 C256.0482,641.3379 265.12,672.85 273.27,701.14" fill="none" id="IVesselTypeRepository-backto-VesselTypeRepository" style="stroke:#181818;stroke-width:1;stroke-dasharray:7,7;"/><polygon fill="none" points="239.59,584.15,238.8022,603.1073,250.3342,599.7885,239.59,584.15" style="stroke:#181818;stroke-width:1;"/></g><!--reverse link IUnitOfWork to UnitOfWork--><g class="link" data-entity-1="IUnitOfWork" data-entity-2="UnitOfWork" data-uid="lnk18" id="link_IUnitOfWork_UnitOfWork"><path d="M520,569.16 C520,610.59 520,664.35 520,701.2" fill="none" id="IUnitOfWork-backto-UnitOfWork" style="stroke:#181818;stroke-width:1;stroke-dasharray:7,7;"/><polygon fill="none" points="520,551.16,514,569.16,526,569.16,520,551.16" style="stroke:#181818;stroke-width:1;"/></g><!--reverse link VesselType to VesselTypeId--><g class="link" data-entity-1="VesselType" data-entity-2="VesselTypeId" data-source-line="98" data-uid="lnk23" id="link_VesselType_VesselTypeId"><path codeLine="98" d="M486,1090.9 C486,1111.96 486,1121.07 486,1138.38" fill="none" id="VesselType-backto-VesselTypeId" style="stroke:#181818;stroke-width:1;"/><polygon fill="#181818" points="486,1078.9,482,1084.9,486,1090.9,490,1084.9,486,1078.9" style="stroke:#181818;stroke-width:1;"/><text fill="#000000" font-family="sans-serif" font-size="13" lengthAdjust="spacing" textLength="8.2202" x="477.7142" y="1099.2621">1</text><text fill="#000000" font-family="sans-serif" font-size="13" lengthAdjust="spacing" textLength="8.2202" x="477.3559" y="1127.9863">1</text></g><!--link VesselTypeService to IVesselTypeRepository--><g class="link" data-entity-1="VesselTypeService" data-entity-2="IVesselTypeRepository" data-source-line="99" data-uid="lnk24" id="link_VesselTypeService_IVesselTypeRepository"><path codeLine="99" d="M640.16,356.58 C574.27,370.22 502.35,388.01 438,410.37 C404.76,421.92 375.4231,434.7401 343.7531,450.3301" fill="none" id="VesselTypeService-to-IVesselTypeRepository" style="stroke:#181818;stroke-width:1;"/><polygon fill="#181818" points="338.37,452.98,348.2113,452.5939,342.8559,450.7717,344.6781,445.4164,338.37,452.98" style="stroke:#181818;stroke-width:1;"/></g><!--link VesselTypeService to IUnitOfWork--><g class="link" data-entity-1="VesselTypeService" data-entity-2="IUnitOfWork" data-source-line="100" data-uid="lnk25" id="link_VesselTypeService_IUnitOfWork"><path codeLine="100" d="M651.55,393.84 C642.04,399.06 632.81,404.56 624,410.37 C592.61,431.07 567.2261,458.09 547.8161,481.64" fill="none" id="VesselTypeService-to-IUnitOfWork" style="stroke:#181818;stroke-width:1;"/><polygon fill="#181818" points="544,486.27,552.8109,481.869,547.1801,482.4116,546.6375,476.7809,544,486.27" style="stroke:#181818;stroke-width:1;"/></g><!--link VesselTypeService to VesselTypeFactory--><g class="link" data-entity-1="VesselTypeService" data-entity-2="VesselTypeFactory" data-source-line="101" data-uid="lnk26" id="link_VesselTypeService_VesselTypeFactory"><path codeLine="101" d="M858,393.86 C858,422.29 858,447.75 858,471.83" fill="none" id="VesselTypeService-to-VesselTypeFactory" style="stroke:#181818;stroke-width:1;"/><polygon fill="#181818" points="858,477.83,862,468.83,858,472.83,854,468.83,858,477.83" style="stroke:#181818;stroke-width:1;"/></g><!--link VesselTypeService to ILogger--><g class="link" data-entity-1="VesselTypeService" data-entity-2="ILogger" data-source-line="102" data-uid="lnk27" id="link_VesselTypeService_ILogger"><path codeLine="102" d="M1057.89,393.75 C1069.55,399.1 1081,404.65 1092,410.37 C1124.65,427.33 1153.8244,446.1752 1182.0244,466.0352" fill="none" id="VesselTypeService-to-ILogger" style="stroke:#181818;stroke-width:1;"/><polygon fill="#181818" points="1186.93,469.49,1181.8748,461.0375,1182.842,466.611,1177.2685,467.5782,1186.93,469.49" style="stroke:#181818;stroke-width:1;"/></g><!--link VesselTypeRepository to VesselType--><g class="link" data-entity-1="VesselTypeRepository" data-entity-2="VesselType" data-source-line="103" data-uid="lnk28" id="link_VesselTypeRepository_VesselType"><path codeLine="103" d="M299.01,749.86 C323.46,779.88 363.6713,829.2375 402.8413,877.3375" fill="none" id="VesselTypeRepository-to-VesselType" style="stroke:#181818;stroke-width:1;"/><polygon fill="#181818" points="406.63,881.99,404.0486,872.4855,403.4727,878.1129,397.8453,877.5371,406.63,881.99" style="stroke:#181818;stroke-width:1;"/></g><!--link VesselTypeFactory to VesselType--><g class="link" data-entity-1="VesselTypeFactory" data-entity-2="VesselType" data-source-line="104" data-uid="lnk29" id="link_VesselTypeFactory_VesselType"><path codeLine="104" d="M726.19,559.38 C705.65,570.2 686.22,583.8 671,600.81 C599.54,680.67 649.23,736.05 600,831.23 C591.13,848.38 583.6838,860.6708 572.1738,876.9508" fill="none" id="VesselTypeFactory-to-VesselType" style="stroke:#181818;stroke-width:1;"/><polygon fill="#181818" points="568.71,881.85,577.1718,876.8103,571.5965,877.7673,570.6395,872.192,568.71,881.85" style="stroke:#181818;stroke-width:1;"/></g><!--link VesselTypeFactory to VesselTypeDto--><g class="link" data-entity-1="VesselTypeFactory" data-entity-2="VesselTypeDto" data-source-line="105" data-uid="lnk30" id="link_VesselTypeFactory_VesselTypeDto"><path codeLine="105" d="M882.68,559.1 C897.64,583.06 914.1113,609.4312 932.2513,638.4712" fill="none" id="VesselTypeFactory-to-VesselTypeDto" style="stroke:#181818;stroke-width:1;"/><polygon fill="#181818" points="935.43,643.56,934.0544,633.8077,932.7811,639.3194,927.2694,638.046,935.43,643.56" style="stroke:#181818;stroke-width:1;"/></g><!--link VesselTypeController to VesselTypeService--><g class="link" data-entity-1="VesselTypeController" data-entity-2="VesselTypeService" data-source-line="106" data-uid="lnk31" id="link_VesselTypeController_VesselTypeService"><path codeLine="106" d="M972.6,171.88 C954.31,195.35 937.2085,217.2777 918.4085,241.3977" fill="none" id="VesselTypeController-to-VesselTypeService" style="stroke:#181818;stroke-width:1;"/><polygon fill="#181818" points="914.72,246.13,923.4077,241.4906,917.7938,242.1864,917.0979,236.5725,914.72,246.13" style="stroke:#181818;stroke-width:1;"/></g><!--link VesselTypeController to ILogger--><g class="link" data-entity-1="VesselTypeController" data-entity-2="ILogger" data-source-line="107" data-uid="lnk32" id="link_VesselTypeController_ILogger"><path codeLine="107" d="M1071.34,171.78 C1078.53,182.19 1085.66,192.98 1092,203.44 C1147.17,294.38 1198.3035,401.374 1226.9935,464.074" fill="none" id="VesselTypeController-to-ILogger" style="stroke:#181818;stroke-width:1;"/><polygon fill="#181818" points="1229.49,469.53,1229.3825,459.6817,1227.4096,464.9834,1222.1079,463.0104,1229.49,469.53" style="stroke:#181818;stroke-width:1;"/></g><!--SRC=[lLPTQzim57tthn1vMJB73tiT9IKVxGXqwyZIzbd8DvweB1b9tcf6__iasuqbMquJ1Wk4c7lF_T2vvyefC7d66Q39HkIOyWdw4o5465OAFO9ImFPL0RKHeGGfBIdFq3USWs_PW2AI5feAtZeer-WhVbdXIlcMdVZTi-mfo3VJWGciqHeNc51TrSOOhNzYde6jEctgpJo7KppifpbmPRngQYhEsw_5l4Q1qsxJutc_b3H5ZvYLq2PSAckQpj3dskUdM9MASfDcLp8mGJJ5jgMR5m8DCGPQ7EdUtokNxBK4W-PPryP6YxQFUC1xFCPxFE0z7l0UztaFik2MhsdOfl-b6MiQYE3LusvP58oIcjomNd-0_4K9TFs3NZAsL1KdzUZkgD9Ntb4N7N9LRTC6wah2XdaHRe2beWbfvJS2lgLCWtIHrtFKVpZTu39jcmiAPgpmGs6qsBPeXpb7PuS7nN6BYHQoEX9SPuCLLfHqe7DQzEADrudk7iDjkOhOyeF4Xh-Iw5928mgZAv07R6ImxO9tK0X5lTxV4SU5oZXV5jV_A8g18Xp2nkRc79_c1GDpBsfrWfywYKFa0wVw_l0av7CtUf7dLBVq-NKTj5kjbyIVv7S9oi1EBFTQS2q5Oo1x8pnljMlzlxlDPotozBBLRKG-lM3pN6BMKYYLa5BRs872xqIMWRpQBuwS68lP2Y5pxBmNvwZ04kTgre6UiEJ6CmwuaLB8WBjkxmDAUX-q0rQNL0DN4Zb_AIQV9kYZWTjVTvsYuJMU98kmHiUmdS9648ERR2nJmsiKN10_KJIy7Iy4sAa7PUx3slx6eMzD_mK0]--></g></svg>