<svg xmlns="http://www.w3.org/2000/svg" xmlns:xlink="http://www.w3.org/1999/xlink" contentStyleType="text/css" data-diagram-type="SEQUENCE" height="1481px" preserveAspectRatio="none" style="width:1485px;height:1481px;background:#FFFFFF;" version="1.1" viewBox="0 0 1485 1481" width="1485px" zoomAndPan="magnify"><defs/><g><g><title>Port Authority Officer</title><rect fill="#000000" fill-opacity="0.00000" height="1319.043" width="8" x="76.6387" y="81.4883"/><line style="stroke:#181818;stroke-width:0.5;stroke-dasharray:5,5;" x1="80" x2="80" y1="81.4883" y2="1400.5313"/></g><g><title>API .VesselTypeController.</title><rect fill="#000000" fill-opacity="0.00000" height="1319.043" width="8" x="399.5625" y="81.4883"/><line style="stroke:#181818;stroke-width:0.5;stroke-dasharray:5,5;" x1="403.0732" x2="403.0732" y1="81.4883" y2="1400.5313"/></g><g><title>VesselTypeService</title><rect fill="#000000" fill-opacity="0.00000" height="1319.043" width="8" x="566.6436" y="81.4883"/><line style="stroke:#181818;stroke-width:0.5;stroke-dasharray:5,5;" x1="570.0518" x2="570.0518" y1="81.4883" y2="1400.5313"/></g><g><title>VesselTypeRepository</title><rect fill="#000000" fill-opacity="0.00000" height="1319.043" width="8" x="934.6777" y="81.4883"/><line style="stroke:#181818;stroke-width:0.5;stroke-dasharray:5,5;" x1="937.689" x2="937.689" y1="81.4883" y2="1400.5313"/></g><g><title>UnitOfWork</title><rect fill="#000000" fill-opacity="0.00000" height="1319.043" width="8" x="1063.7578" y="81.4883"/><line style="stroke:#181818;stroke-width:0.5;stroke-dasharray:5,5;" x1="1067.6665" x2="1067.6665" y1="81.4883" y2="1400.5313"/></g><g><title>VesselTypeFactory</title><rect fill="#000000" fill-opacity="0.00000" height="1319.043" width="8" x="1181.4185" y="81.4883"/><line style="stroke:#181818;stroke-width:0.5;stroke-dasharray:5,5;" x1="1184.8491" x2="1184.8491" y1="81.4883" y2="1400.5313"/></g><g><title>Audit.Logs .ILogger.Serilog.</title><rect fill="#000000" fill-opacity="0.00000" height="1319.043" width="8" x="1363.0718" y="81.4883"/><line style="stroke:#181818;stroke-width:0.5;stroke-dasharray:5,5;" x1="1366.9878" x2="1366.9878" y1="81.4883" y2="1400.5313"/></g><g class="participant participant-head" data-participant="Officer"><text fill="#000000" font-family="sans-serif" font-size="14" lengthAdjust="spacing" textLength="145.2773" x="5" y="78.5352">Port Authority Officer</text><ellipse cx="80.6387" cy="13.5" fill="#E2E2F0" rx="8" ry="8" style="stroke:#181818;stroke-width:0.5;"/><path d="M80.6387,21.5 L80.6387,48.5 M67.6387,29.5 L93.6387,29.5 M80.6387,48.5 L67.6387,63.5 M80.6387,48.5 L93.6387,63.5" fill="none" style="stroke:#181818;stroke-width:0.5;"/></g><g class="participant participant-tail" data-participant="Officer"><text fill="#000000" font-family="sans-serif" font-size="14" lengthAdjust="spacing" textLength="145.2773" x="5" y="1413.0664">Port Authority Officer</text><ellipse cx="80.6387" cy="1424.5195" fill="#E2E2F0" rx="8" ry="8" style="stroke:#181818;stroke-width:0.5;"/><path d="M80.6387,1432.5195 L80.6387,1459.5195 M67.6387,1440.5195 L93.6387,1440.5195 M80.6387,1459.5195 L67.6387,1474.5195 M80.6387,1459.5195 L93.6387,1474.5195" fill="none" style="stroke:#181818;stroke-width:0.5;"/></g><g class="participant participant-head" data-participant="Controller"><text fill="#000000" font-family="sans-serif" font-size="14" lengthAdjust="spacing" textLength="178.9785" x="311.0732" y="78.5352">API (VesselTypeController)</text><path d="M383.0625,37 L383.0625,61 M383.0625,49 L400.0625,49" fill="none" style="stroke:#181818;stroke-width:0.5;"/><ellipse cx="412.0625" cy="49" fill="#E2E2F0" rx="12" ry="12" style="stroke:#181818;stroke-width:0.5;"/></g><g class="participant participant-tail" data-participant="Controller"><text fill="#000000" font-family="sans-serif" font-size="14" lengthAdjust="spacing" textLength="178.9785" x="311.0732" y="1413.0664">API (VesselTypeController)</text><path d="M383.0625,1420.0195 L383.0625,1444.0195 M383.0625,1432.0195 L400.0625,1432.0195" fill="none" style="stroke:#181818;stroke-width:0.5;"/><ellipse cx="412.0625" cy="1432.0195" fill="#E2E2F0" rx="12" ry="12" style="stroke:#181818;stroke-width:0.5;"/></g><g class="participant participant-head" data-participant="Service"><text fill="#000000" font-family="sans-serif" font-size="14" lengthAdjust="spacing" textLength="123.1836" x="506.0518" y="78.5352">VesselTypeService</text><ellipse cx="570.6436" cy="49" fill="#E2E2F0" rx="12" ry="12" style="stroke:#181818;stroke-width:0.5;"/><polygon fill="#181818" points="566.6436,37,572.6436,32,570.6436,37,572.6436,42,566.6436,37" style="stroke:#181818;stroke-width:1;"/></g><g class="participant participant-tail" data-participant="Service"><text fill="#000000" font-family="sans-serif" font-size="14" lengthAdjust="spacing" textLength="123.1836" x="506.0518" y="1413.0664">VesselTypeService</text><ellipse cx="570.6436" cy="1432.0195" fill="#E2E2F0" rx="12" ry="12" style="stroke:#181818;stroke-width:0.5;"/><polygon fill="#181818" points="566.6436,1420.0195,572.6436,1415.0195,570.6436,1420.0195,572.6436,1425.0195,566.6436,1420.0195" style="stroke:#181818;stroke-width:1;"/></g><g class="participant participant-head" data-participant="Repo"><text fill="#000000" font-family="sans-serif" font-size="14" lengthAdjust="spacing" textLength="147.9775" x="861.689" y="78.5352">VesselTypeRepository</text><ellipse cx="938.6777" cy="49" fill="#E2E2F0" rx="12" ry="12" style="stroke:#181818;stroke-width:0.5;"/><line style="stroke:#181818;stroke-width:0.5;" x1="926.6777" x2="950.6777" y1="63" y2="63"/></g><g class="participant participant-tail" data-participant="Repo"><text fill="#000000" font-family="sans-serif" font-size="14" lengthAdjust="spacing" textLength="147.9775" x="861.689" y="1413.0664">VesselTypeRepository</text><ellipse cx="938.6777" cy="1432.0195" fill="#E2E2F0" rx="12" ry="12" style="stroke:#181818;stroke-width:0.5;"/><line style="stroke:#181818;stroke-width:0.5;" x1="926.6777" x2="950.6777" y1="1446.0195" y2="1446.0195"/></g><g class="participant participant-head" data-participant="UoW"><text fill="#000000" font-family="sans-serif" font-size="14" lengthAdjust="spacing" textLength="78.1826" x="1025.6665" y="78.5352">UnitOfWork</text><ellipse cx="1067.7578" cy="49" fill="#E2E2F0" rx="12" ry="12" style="stroke:#181818;stroke-width:0.5;"/><line style="stroke:#181818;stroke-width:0.5;" x1="1055.7578" x2="1079.7578" y1="63" y2="63"/></g><g class="participant participant-tail" data-participant="UoW"><text fill="#000000" font-family="sans-serif" font-size="14" lengthAdjust="spacing" textLength="78.1826" x="1025.6665" y="1413.0664">UnitOfWork</text><ellipse cx="1067.7578" cy="1432.0195" fill="#E2E2F0" rx="12" ry="12" style="stroke:#181818;stroke-width:0.5;"/><line style="stroke:#181818;stroke-width:0.5;" x1="1055.7578" x2="1079.7578" y1="1446.0195" y2="1446.0195"/></g><g class="participant participant-head" data-participant="Factory"><text fill="#000000" font-family="sans-serif" font-size="14" lengthAdjust="spacing" textLength="125.1387" x="1119.8491" y="78.5352">VesselTypeFactory</text><ellipse cx="1185.4185" cy="49" fill="#E2E2F0" rx="12" ry="12" style="stroke:#181818;stroke-width:0.5;"/><polygon fill="#181818" points="1181.4185,37,1187.4185,32,1185.4185,37,1187.4185,42,1181.4185,37" style="stroke:#181818;stroke-width:1;"/></g><g class="participant participant-tail" data-participant="Factory"><text fill="#000000" font-family="sans-serif" font-size="14" lengthAdjust="spacing" textLength="125.1387" x="1119.8491" y="1413.0664">VesselTypeFactory</text><ellipse cx="1185.4185" cy="1432.0195" fill="#E2E2F0" rx="12" ry="12" style="stroke:#181818;stroke-width:0.5;"/><polygon fill="#181818" points="1181.4185,1420.0195,1187.4185,1415.0195,1185.4185,1420.0195,1187.4185,1425.0195,1181.4185,1420.0195" style="stroke:#181818;stroke-width:1;"/></g><g class="participant participant-head" data-participant="Log"><rect fill="#E2E2F0" height="30.4883" style="stroke:#181818;stroke-width:0.5;" width="208.168" x="1264.9878" y="46"/><rect fill="#E2E2F0" height="30.4883" style="stroke:#181818;stroke-width:0.5;" width="208.168" x="1260.9878" y="50"/><text fill="#000000" font-family="sans-serif" font-size="14" lengthAdjust="spacing" textLength="194.168" x="1267.9878" y="70.5352">Audit/Logs (ILogger/Serilog)</text></g><g class="participant participant-tail" data-participant="Log"><rect fill="#E2E2F0" height="30.4883" style="stroke:#181818;stroke-width:0.5;" width="208.168" x="1264.9878" y="1399.5313"/><rect fill="#E2E2F0" height="30.4883" style="stroke:#181818;stroke-width:0.5;" width="208.168" x="1260.9878" y="1403.5313"/><text fill="#000000" font-family="sans-serif" font-size="14" lengthAdjust="spacing" textLength="194.168" x="1267.9878" y="1424.0664">Audit/Logs (ILogger/Serilog)</text></g><rect fill="#EEEEEE" height="3" style="stroke:#EEEEEE;stroke-width:1;" width="1478.1558" x="0" y="112.1436"/><line style="stroke:#000000;stroke-width:1;" x1="0" x2="1478.1558" y1="112.1436" y2="112.1436"/><line style="stroke:#000000;stroke-width:1;" x1="0" x2="1478.1558" y1="115.1436" y2="115.1436"/><rect fill="#EEEEEE" height="23.3105" style="stroke:#000000;stroke-width:2;" width="61.6011" x="708.2773" y="101.4883"/><text fill="#000000" font-family="sans-serif" font-size="13" font-weight="bold" lengthAdjust="spacing" textLength="43.3164" x="714.2773" y="118.0566">Create</text><g class="message" data-participant-1="Officer" data-participant-2="Controller"><polygon fill="#181818" points="391.5625,152.1094,401.5625,156.1094,391.5625,160.1094,395.5625,156.1094" style="stroke:#181818;stroke-width:1;"/><line style="stroke:#181818;stroke-width:1;" x1="80.6387" x2="397.5625" y1="156.1094" y2="156.1094"/><text fill="#000000" font-family="sans-serif" font-size="13" lengthAdjust="spacing" textLength="298.9238" x="87.6387" y="151.3672">POST /api/VesselType (CreatingVesselTypeDto)</text></g><g class="message" data-participant-1="Controller" data-participant-2="Service"><polygon fill="#181818" points="558.6436,181.4199,568.6436,185.4199,558.6436,189.4199,562.6436,185.4199" style="stroke:#181818;stroke-width:1;"/><line style="stroke:#181818;stroke-width:1;" x1="403.5625" x2="564.6436" y1="185.4199" y2="185.4199"/><text fill="#000000" font-family="sans-serif" font-size="13" lengthAdjust="spacing" textLength="91.9331" x="410.5625" y="180.6777">AddAsync(dto)</text></g><g class="message" data-participant-1="Service" data-participant-2="Repo"><polygon fill="#181818" points="926.6777,210.7305,936.6777,214.7305,926.6777,218.7305,930.6777,214.7305" style="stroke:#181818;stroke-width:1;"/><line style="stroke:#181818;stroke-width:1;" x1="570.6436" x2="932.6777" y1="214.7305" y2="214.7305"/><text fill="#000000" font-family="sans-serif" font-size="13" lengthAdjust="spacing" textLength="184.2915" x="577.6436" y="209.9883">GetByNameAsync(dto.Name)?</text></g><g class="message" data-participant-1="Repo" data-participant-2="Service"><polygon fill="#181818" points="581.6436,240.041,571.6436,244.041,581.6436,248.041,577.6436,244.041" style="stroke:#181818;stroke-width:1;"/><line style="stroke:#181818;stroke-width:1;stroke-dasharray:2,2;" x1="575.6436" x2="937.6777" y1="244.041" y2="244.041"/><text fill="#000000" font-family="sans-serif" font-size="13" lengthAdjust="spacing" textLength="109.1289" x="587.6436" y="239.2988">null / VesselType</text></g><g class="message" data-participant-1="Service" data-participant-2="Service"><line style="stroke:#181818;stroke-width:1;" x1="570.6436" x2="612.6436" y1="273.3516" y2="273.3516"/><line style="stroke:#181818;stroke-width:1;" x1="612.6436" x2="612.6436" y1="273.3516" y2="286.3516"/><line style="stroke:#181818;stroke-width:1;" x1="571.6436" x2="612.6436" y1="286.3516" y2="286.3516"/><polygon fill="#181818" points="581.6436,282.3516,571.6436,286.3516,581.6436,290.3516,577.6436,286.3516" style="stroke:#181818;stroke-width:1;"/><text fill="#000000" font-family="sans-serif" font-size="13" lengthAdjust="spacing" textLength="354.0342" x="577.6436" y="268.6094">validate constraints (name length, bays &gt; 0, tiers &gt; 0&#8230;)</text></g><g class="message" data-participant-1="Service" data-participant-2="Factory"><polygon fill="#181818" points="1173.4185,311.6621,1183.4185,315.6621,1173.4185,319.6621,1177.4185,315.6621" style="stroke:#181818;stroke-width:1;"/><line style="stroke:#181818;stroke-width:1;" x1="570.6436" x2="1179.4185" y1="315.6621" y2="315.6621"/><text fill="#000000" font-family="sans-serif" font-size="13" lengthAdjust="spacing" textLength="172.4595" x="577.6436" y="310.9199">CreateBasicVesselType(dto)</text></g><g class="message" data-participant-1="Factory" data-participant-2="Service"><polygon fill="#181818" points="581.6436,340.9727,571.6436,344.9727,581.6436,348.9727,577.6436,344.9727" style="stroke:#181818;stroke-width:1;"/><line style="stroke:#181818;stroke-width:1;stroke-dasharray:2,2;" x1="575.6436" x2="1184.4185" y1="344.9727" y2="344.9727"/><text fill="#000000" font-family="sans-serif" font-size="13" lengthAdjust="spacing" textLength="114.4736" x="587.6436" y="340.2305">VesselType(entity)</text></g><g class="message" data-participant-1="Service" data-participant-2="Repo"><polygon fill="#181818" points="926.6777,370.2832,936.6777,374.2832,926.6777,378.2832,930.6777,374.2832" style="stroke:#181818;stroke-width:1;"/><line style="stroke:#181818;stroke-width:1;" x1="570.6436" x2="932.6777" y1="374.2832" y2="374.2832"/><text fill="#000000" font-family="sans-serif" font-size="13" lengthAdjust="spacing" textLength="106.4883" x="577.6436" y="369.541">AddAsync(entity)</text></g><g class="message" data-participant-1="Repo" data-participant-2="Service"><polygon fill="#181818" points="581.6436,399.5938,571.6436,403.5938,581.6436,407.5938,577.6436,403.5938" style="stroke:#181818;stroke-width:1;"/><line style="stroke:#181818;stroke-width:1;stroke-dasharray:2,2;" x1="575.6436" x2="937.6777" y1="403.5938" y2="403.5938"/><text fill="#000000" font-family="sans-serif" font-size="13" lengthAdjust="spacing" textLength="97.7412" x="587.6436" y="398.8516">entity persisted</text></g><g class="message" data-participant-1="Service" data-participant-2="UoW"><polygon fill="#181818" points="1055.7578,428.9043,1065.7578,432.9043,1055.7578,436.9043,1059.7578,432.9043" style="stroke:#181818;stroke-width:1;"/><line style="stroke:#181818;stroke-width:1;" x1="570.6436" x2="1061.7578" y1="432.9043" y2="432.9043"/><text fill="#000000" font-family="sans-serif" font-size="13" lengthAdjust="spacing" textLength="95.4434" x="577.6436" y="428.1621">CommitAsync()</text></g><g class="message" data-participant-1="UoW" data-participant-2="Service"><polygon fill="#181818" points="581.6436,458.2148,571.6436,462.2148,581.6436,466.2148,577.6436,462.2148" style="stroke:#181818;stroke-width:1;"/><line style="stroke:#181818;stroke-width:1;stroke-dasharray:2,2;" x1="575.6436" x2="1066.7578" y1="462.2148" y2="462.2148"/><text fill="#000000" font-family="sans-serif" font-size="13" lengthAdjust="spacing" textLength="142.5049" x="587.6436" y="457.4727">transaction committed</text></g><g class="message" data-participant-1="Service" data-participant-2="Factory"><polygon fill="#181818" points="1173.4185,487.5254,1183.4185,491.5254,1173.4185,495.5254,1177.4185,491.5254" style="stroke:#181818;stroke-width:1;"/><line style="stroke:#181818;stroke-width:1;" x1="570.6436" x2="1179.4185" y1="491.5254" y2="491.5254"/><text fill="#000000" font-family="sans-serif" font-size="13" lengthAdjust="spacing" textLength="177.8994" x="577.6436" y="486.7832">CreateDtoVesselType(entity)</text></g><g class="message" data-participant-1="Factory" data-participant-2="Service"><polygon fill="#181818" points="581.6436,516.8359,571.6436,520.8359,581.6436,524.8359,577.6436,520.8359" style="stroke:#181818;stroke-width:1;"/><line style="stroke:#181818;stroke-width:1;stroke-dasharray:2,2;" x1="575.6436" x2="1184.4185" y1="520.8359" y2="520.8359"/><text fill="#000000" font-family="sans-serif" font-size="13" lengthAdjust="spacing" textLength="93.0186" x="587.6436" y="516.0938">VesselTypeDto</text></g><g class="message" data-participant-1="Service" data-participant-2="Log"><polygon fill="#181818" points="1355.0718,546.1465,1365.0718,550.1465,1355.0718,554.1465,1359.0718,550.1465" style="stroke:#181818;stroke-width:1;"/><line style="stroke:#181818;stroke-width:1;" x1="570.6436" x2="1361.0718" y1="550.1465" y2="550.1465"/><text fill="#000000" font-family="sans-serif" font-size="13" lengthAdjust="spacing" textLength="354.8403" x="577.6436" y="545.4043">log(CREATE, officerId, vesselTypeId, outcome=SUCCESS)</text></g><g class="message" data-participant-1="Service" data-participant-2="Controller"><polygon fill="#181818" points="414.5625,575.457,404.5625,579.457,414.5625,583.457,410.5625,579.457" style="stroke:#181818;stroke-width:1;"/><line style="stroke:#181818;stroke-width:1;stroke-dasharray:2,2;" x1="408.5625" x2="569.6436" y1="579.457" y2="579.457"/><text fill="#000000" font-family="sans-serif" font-size="13" lengthAdjust="spacing" textLength="93.0186" x="420.5625" y="574.7148">VesselTypeDto</text></g><g class="message" data-participant-1="Controller" data-participant-2="Officer"><polygon fill="#181818" points="91.6387,604.7676,81.6387,608.7676,91.6387,612.7676,87.6387,608.7676" style="stroke:#181818;stroke-width:1;"/><line style="stroke:#181818;stroke-width:1;stroke-dasharray:2,2;" x1="85.6387" x2="402.5625" y1="608.7676" y2="608.7676"/><text fill="#000000" font-family="sans-serif" font-size="13" lengthAdjust="spacing" textLength="183.3838" x="97.6387" y="604.0254">201 Created (VesselTypeDto)</text></g><rect fill="#EEEEEE" height="3" style="stroke:#EEEEEE;stroke-width:1;" width="1478.1558" x="0" y="637.4229"/><line style="stroke:#000000;stroke-width:1;" x1="0" x2="1478.1558" y1="637.4229" y2="637.4229"/><line style="stroke:#000000;stroke-width:1;" x1="0" x2="1478.1558" y1="640.4229" y2="640.4229"/><rect fill="#EEEEEE" height="23.3105" style="stroke:#000000;stroke-width:2;" width="65.6128" x="706.2715" y="626.7676"/><text fill="#000000" font-family="sans-serif" font-size="13" font-weight="bold" lengthAdjust="spacing" textLength="47.3281" x="712.2715" y="643.3359">Update</text><g class="message" data-participant-1="Officer" data-participant-2="Controller"><polygon fill="#181818" points="391.5625,677.3887,401.5625,681.3887,391.5625,685.3887,395.5625,681.3887" style="stroke:#181818;stroke-width:1;"/><line style="stroke:#181818;stroke-width:1;" x1="80.6387" x2="397.5625" y1="681.3887" y2="681.3887"/><text fill="#000000" font-family="sans-serif" font-size="13" lengthAdjust="spacing" textLength="218.8418" x="87.6387" y="676.6465">PUT /api/VesselType/{id} (fields&#8230;)</text></g><g class="message" data-participant-1="Controller" data-participant-2="Service"><polygon fill="#181818" points="558.6436,706.6992,568.6436,710.6992,558.6436,714.6992,562.6436,710.6992" style="stroke:#181818;stroke-width:1;"/><line style="stroke:#181818;stroke-width:1;" x1="403.5625" x2="564.6436" y1="710.6992" y2="710.6992"/><text fill="#000000" font-family="sans-serif" font-size="13" lengthAdjust="spacing" textLength="131.4219" x="410.5625" y="705.957">UpdateAsync(id, dto)</text></g><g class="message" data-participant-1="Service" data-participant-2="Repo"><polygon fill="#181818" points="926.6777,736.0098,936.6777,740.0098,926.6777,744.0098,930.6777,740.0098" style="stroke:#181818;stroke-width:1;"/><line style="stroke:#181818;stroke-width:1;" x1="570.6436" x2="932.6777" y1="740.0098" y2="740.0098"/><text fill="#000000" font-family="sans-serif" font-size="13" lengthAdjust="spacing" textLength="105.2061" x="577.6436" y="735.2676">GetByIdAsync(id)</text></g><g class="message" data-participant-1="Repo" data-participant-2="Service"><polygon fill="#181818" points="581.6436,765.3203,571.6436,769.3203,581.6436,773.3203,577.6436,769.3203" style="stroke:#181818;stroke-width:1;"/><line style="stroke:#181818;stroke-width:1;stroke-dasharray:2,2;" x1="575.6436" x2="937.6777" y1="769.3203" y2="769.3203"/><text fill="#000000" font-family="sans-serif" font-size="13" lengthAdjust="spacing" textLength="70.4336" x="587.6436" y="764.5781">VesselType</text></g><g class="message" data-participant-1="Service" data-participant-2="Service"><line style="stroke:#181818;stroke-width:1;" x1="570.6436" x2="612.6436" y1="798.6309" y2="798.6309"/><line style="stroke:#181818;stroke-width:1;" x1="612.6436" x2="612.6436" y1="798.6309" y2="811.6309"/><line style="stroke:#181818;stroke-width:1;" x1="571.6436" x2="612.6436" y1="811.6309" y2="811.6309"/><polygon fill="#181818" points="581.6436,807.6309,571.6436,811.6309,581.6436,815.6309,577.6436,811.6309" style="stroke:#181818;stroke-width:1;"/><text fill="#000000" font-family="sans-serif" font-size="13" lengthAdjust="spacing" textLength="320.106" x="577.6436" y="793.8887">validate changes (unique name, dimensions &gt; 0&#8230;)</text></g><g class="message" data-participant-1="Service" data-participant-2="Repo"><polygon fill="#181818" points="926.6777,836.9414,936.6777,840.9414,926.6777,844.9414,930.6777,840.9414" style="stroke:#181818;stroke-width:1;"/><line style="stroke:#181818;stroke-width:1;" x1="570.6436" x2="932.6777" y1="840.9414" y2="840.9414"/><text fill="#000000" font-family="sans-serif" font-size="13" lengthAdjust="spacing" textLength="128.2036" x="577.6436" y="836.1992">Save(updated entity)</text></g><g class="message" data-participant-1="Repo" data-participant-2="Service"><polygon fill="#181818" points="581.6436,866.252,571.6436,870.252,581.6436,874.252,577.6436,870.252" style="stroke:#181818;stroke-width:1;"/><line style="stroke:#181818;stroke-width:1;stroke-dasharray:2,2;" x1="575.6436" x2="937.6777" y1="870.252" y2="870.252"/><text fill="#000000" font-family="sans-serif" font-size="13" lengthAdjust="spacing" textLength="91.5967" x="587.6436" y="865.5098">entity updated</text></g><g class="message" data-participant-1="Service" data-participant-2="UoW"><polygon fill="#181818" points="1055.7578,895.5625,1065.7578,899.5625,1055.7578,903.5625,1059.7578,899.5625" style="stroke:#181818;stroke-width:1;"/><line style="stroke:#181818;stroke-width:1;" x1="570.6436" x2="1061.7578" y1="899.5625" y2="899.5625"/><text fill="#000000" font-family="sans-serif" font-size="13" lengthAdjust="spacing" textLength="95.4434" x="577.6436" y="894.8203">CommitAsync()</text></g><g class="message" data-participant-1="UoW" data-participant-2="Service"><polygon fill="#181818" points="581.6436,924.873,571.6436,928.873,581.6436,932.873,577.6436,928.873" style="stroke:#181818;stroke-width:1;"/><line style="stroke:#181818;stroke-width:1;stroke-dasharray:2,2;" x1="575.6436" x2="1066.7578" y1="928.873" y2="928.873"/><text fill="#000000" font-family="sans-serif" font-size="13" lengthAdjust="spacing" textLength="142.5049" x="587.6436" y="924.1309">transaction committed</text></g><g class="message" data-participant-1="Service" data-participant-2="Factory"><polygon fill="#181818" points="1173.4185,954.1836,1183.4185,958.1836,1173.4185,962.1836,1177.4185,958.1836" style="stroke:#181818;stroke-width:1;"/><line style="stroke:#181818;stroke-width:1;" x1="570.6436" x2="1179.4185" y1="958.1836" y2="958.1836"/><text fill="#000000" font-family="sans-serif" font-size="13" lengthAdjust="spacing" textLength="194.2129" x="577.6436" y="953.4414">CreateDtoVesselType(updated)</text></g><g class="message" data-participant-1="Factory" data-participant-2="Service"><polygon fill="#181818" points="581.6436,983.4941,571.6436,987.4941,581.6436,991.4941,577.6436,987.4941" style="stroke:#181818;stroke-width:1;"/><line style="stroke:#181818;stroke-width:1;stroke-dasharray:2,2;" x1="575.6436" x2="1184.4185" y1="987.4941" y2="987.4941"/><text fill="#000000" font-family="sans-serif" font-size="13" lengthAdjust="spacing" textLength="93.0186" x="587.6436" y="982.752">VesselTypeDto</text></g><g class="message" data-participant-1="Service" data-participant-2="Log"><polygon fill="#181818" points="1355.0718,1012.8047,1365.0718,1016.8047,1355.0718,1020.8047,1359.0718,1016.8047" style="stroke:#181818;stroke-width:1;"/><line style="stroke:#181818;stroke-width:1;" x1="570.6436" x2="1361.0718" y1="1016.8047" y2="1016.8047"/><text fill="#000000" font-family="sans-serif" font-size="13" lengthAdjust="spacing" textLength="356.5098" x="577.6436" y="1012.0625">log(UPDATE, officerId, vesselTypeId, outcome=SUCCESS)</text></g><g class="message" data-participant-1="Service" data-participant-2="Controller"><polygon fill="#181818" points="414.5625,1042.1152,404.5625,1046.1152,414.5625,1050.1152,410.5625,1046.1152" style="stroke:#181818;stroke-width:1;"/><line style="stroke:#181818;stroke-width:1;stroke-dasharray:2,2;" x1="408.5625" x2="569.6436" y1="1046.1152" y2="1046.1152"/><text fill="#000000" font-family="sans-serif" font-size="13" lengthAdjust="spacing" textLength="93.0186" x="420.5625" y="1041.373">VesselTypeDto</text></g><g class="message" data-participant-1="Controller" data-participant-2="Officer"><polygon fill="#181818" points="91.6387,1071.4258,81.6387,1075.4258,91.6387,1079.4258,87.6387,1075.4258" style="stroke:#181818;stroke-width:1;"/><line style="stroke:#181818;stroke-width:1;stroke-dasharray:2,2;" x1="85.6387" x2="402.5625" y1="1075.4258" y2="1075.4258"/><text fill="#000000" font-family="sans-serif" font-size="13" lengthAdjust="spacing" textLength="152.9468" x="97.6387" y="1070.6836">200 OK (VesselTypeDto)</text></g><rect fill="#EEEEEE" height="3" style="stroke:#EEEEEE;stroke-width:1;" width="1478.1558" x="0" y="1104.0811"/><line style="stroke:#000000;stroke-width:1;" x1="0" x2="1478.1558" y1="1104.0811" y2="1104.0811"/><line style="stroke:#000000;stroke-width:1;" x1="0" x2="1478.1558" y1="1107.0811" y2="1107.0811"/><rect fill="#EEEEEE" height="23.3105" style="stroke:#000000;stroke-width:2;" width="62.3374" x="707.9092" y="1093.4258"/><text fill="#000000" font-family="sans-serif" font-size="13" font-weight="bold" lengthAdjust="spacing" textLength="44.0527" x="713.9092" y="1109.9941">Search</text><g class="message" data-participant-1="Officer" data-participant-2="Controller"><polygon fill="#181818" points="391.5625,1144.0469,401.5625,1148.0469,391.5625,1152.0469,395.5625,1148.0469" style="stroke:#181818;stroke-width:1;"/><line style="stroke:#181818;stroke-width:1;" x1="80.6387" x2="397.5625" y1="1148.0469" y2="1148.0469"/><text fill="#000000" font-family="sans-serif" font-size="13" lengthAdjust="spacing" textLength="243.3501" x="87.6387" y="1143.3047">GET /api/VesselType/filter?query=pan</text></g><g class="message" data-participant-1="Controller" data-participant-2="Service"><polygon fill="#181818" points="558.6436,1173.3574,568.6436,1177.3574,558.6436,1181.3574,562.6436,1177.3574" style="stroke:#181818;stroke-width:1;"/><line style="stroke:#181818;stroke-width:1;" x1="403.5625" x2="564.6436" y1="1177.3574" y2="1177.3574"/><text fill="#000000" font-family="sans-serif" font-size="13" lengthAdjust="spacing" textLength="113.0835" x="410.5625" y="1172.6152">FilterAsync(query)</text></g><g class="message" data-participant-1="Service" data-participant-2="Repo"><polygon fill="#181818" points="926.6777,1202.668,936.6777,1206.668,926.6777,1210.668,930.6777,1206.668" style="stroke:#181818;stroke-width:1;"/><line style="stroke:#181818;stroke-width:1;" x1="570.6436" x2="932.6777" y1="1206.668" y2="1206.668"/><text fill="#000000" font-family="sans-serif" font-size="13" lengthAdjust="spacing" textLength="334.7754" x="577.6436" y="1201.9258">FilterAsync(query) (name/description contains query)</text></g><g class="message" data-participant-1="Repo" data-participant-2="Service"><polygon fill="#181818" points="581.6436,1231.9785,571.6436,1235.9785,581.6436,1239.9785,577.6436,1235.9785" style="stroke:#181818;stroke-width:1;"/><line style="stroke:#181818;stroke-width:1;stroke-dasharray:2,2;" x1="575.6436" x2="937.6777" y1="1235.9785" y2="1235.9785"/><text fill="#000000" font-family="sans-serif" font-size="13" lengthAdjust="spacing" textLength="113.2803" x="587.6436" y="1231.2363">List&lt;VesselType&gt;</text></g><g class="message" data-participant-1="Service" data-participant-2="Factory"><polygon fill="#181818" points="1173.4185,1261.2891,1183.4185,1265.2891,1173.4185,1269.2891,1177.4185,1265.2891" style="stroke:#181818;stroke-width:1;"/><line style="stroke:#181818;stroke-width:1;" x1="570.6436" x2="1179.4185" y1="1265.2891" y2="1265.2891"/><text fill="#000000" font-family="sans-serif" font-size="13" lengthAdjust="spacing" textLength="161.3193" x="577.6436" y="1260.5469">CreateDtoVesselType(list)</text></g><g class="message" data-participant-1="Factory" data-participant-2="Service"><polygon fill="#181818" points="581.6436,1290.5996,571.6436,1294.5996,581.6436,1298.5996,577.6436,1294.5996" style="stroke:#181818;stroke-width:1;"/><line style="stroke:#181818;stroke-width:1;stroke-dasharray:2,2;" x1="575.6436" x2="1184.4185" y1="1294.5996" y2="1294.5996"/><text fill="#000000" font-family="sans-serif" font-size="13" lengthAdjust="spacing" textLength="135.8652" x="587.6436" y="1289.8574">List&lt;VesselTypeDto&gt;</text></g><g class="message" data-participant-1="Service" data-participant-2="Log"><polygon fill="#181818" points="1355.0718,1319.9102,1365.0718,1323.9102,1355.0718,1327.9102,1359.0718,1323.9102" style="stroke:#181818;stroke-width:1;"/><line style="stroke:#181818;stroke-width:1;" x1="570.6436" x2="1361.0718" y1="1323.9102" y2="1323.9102"/><text fill="#000000" font-family="sans-serif" font-size="13" lengthAdjust="spacing" textLength="311.1431" x="577.6436" y="1319.168">log(SEARCH, officerId, query, outcome=SUCCESS)</text></g><g class="message" data-participant-1="Service" data-participant-2="Controller"><polygon fill="#181818" points="414.5625,1349.2207,404.5625,1353.2207,414.5625,1357.2207,410.5625,1353.2207" style="stroke:#181818;stroke-width:1;"/><line style="stroke:#181818;stroke-width:1;stroke-dasharray:2,2;" x1="408.5625" x2="569.6436" y1="1353.2207" y2="1353.2207"/><text fill="#000000" font-family="sans-serif" font-size="13" lengthAdjust="spacing" textLength="135.8652" x="420.5625" y="1348.4785">List&lt;VesselTypeDto&gt;</text></g><g class="message" data-participant-1="Controller" data-participant-2="Officer"><polygon fill="#181818" points="91.6387,1378.5313,81.6387,1382.5313,91.6387,1386.5313,87.6387,1382.5313" style="stroke:#181818;stroke-width:1;"/><line style="stroke:#181818;stroke-width:1;stroke-dasharray:2,2;" x1="85.6387" x2="402.5625" y1="1382.5313" y2="1382.5313"/><text fill="#000000" font-family="sans-serif" font-size="13" lengthAdjust="spacing" textLength="78.9331" x="97.6387" y="1377.7891">200 OK (list)</text></g><!--SRC=[lPJVRjem5CRlynH7N0M9BcoNrQ2Yb7PerK04rcitFe2rO6UsWnHDa_OqUx0zoKwSG0A4qcbIhx2Tpz_vzyCiiaf3QwgqXK5grqeBcy5akHGHwXOmirjxpogLdEaCMeFf6FolQ0p6yop1eP9MgpX6tNONghqN5KjeLUeGzPRydB9SUoXj7hMccc6YZA3KCYVCjtlLGWexMJuf_SrzMwYdfZZtBDfVBzSaewmYAvGqL4NAXGqUrSg0FwQV5Ug04XAnMXLrq9ddzNemrCWiGg_dbQs0gtwjIBY6wIISGy0I4LJnmNVtX5nLPtTMjRtQJV8fMq0c0yu79fEHptFLxfmaUV7q_G7jRVQ5RN2lUfVlsZUU4rmTcCaqZY60AdJTi99jMInuNXmrq5ZDXBJK3Kcs4ADSsNK7dbbce0_T3bY1sYt__Ffza63PNl8hMdNBZ8Ygq4L1Ez5XdZLLCTwcolUTsKaQ2YxXI2X5OIpokWqHakUcDXjX2wEsbvyTEb3vqZ171xKZrnxP79T9qsn8_rATTAjkIf3HPsBE7yv6W_ce0wg0RCmxiDtVodSgjPGNziB5S3WAmrgdZdayZ5O7ZfGxYA_XG_TzMGgl_vyTfJduYuHV0dznmdtmG_2Vu2y5njmuKiu1NzWN0n5KtqlSZ_bErpZzrtE-PdA5n7WgnVSK8KUT8eiDIkEUXGQyopn2jaK_TJbpk4nYgNnp3iku_m7YOdhtvY1sOVAvaS4GcOxMBp7uC3fbS2bYY_g69gopNiBaMGRldR0OXbCtJVvKLBoH0KSJQP6KevAMtay3fKq36O_qCdsiiko_VgWntJmtqIDNkjXldciu6io6dmxcwdBzbu4s1RiurYBxlm00]--></g></svg>