<svg xmlns="http://www.w3.org/2000/svg" xmlns:xlink="http://www.w3.org/1999/xlink" contentStyleType="text/css" data-diagram-type="CLASS" height="600px" preserveAspectRatio="none" style="width:1431px;height:600px;background:#FFFFFF;" version="1.1" viewBox="0 0 1431 600" width="1431px" zoomAndPan="magnify"><title>Class Diagram - US4.1.6 Resource Allocation Query</title><defs/><g><g class="title" data-source-line="3"><text fill="#000000" font-family="sans-serif" font-size="14" font-weight="bold" lengthAdjust="spacing" textLength="403.5391" x="506.9965" y="22.9951">Class Diagram - US4.1.6 Resource Allocation Query</text></g><!--class PhysicalResourceController--><g class="entity" data-qualified-name="PhysicalResourceController" data-source-line="5" id="ent0002"><rect fill="#F1F1F1" height="72.5625" rx="2.5" ry="2.5" style="stroke:#181818;stroke-width:0.5;" width="663.6563" x="107.63" y="85.0469"/><ellipse cx="339.5768" cy="105.1797" fill="#C2C2C2" rx="11" ry="11" style="stroke:#181818;stroke-width:1;"/><path d="M342.5455,110.8203 Q341.9674,111.1172 341.3268,111.2578 Q340.6862,111.4141 339.983,111.4141 Q337.483,111.4141 336.1549,109.7734 Q334.8424,108.1172 334.8424,104.9922 Q334.8424,101.8672 336.1549,100.2109 Q337.483,98.5547 339.983,98.5547 Q340.6862,98.5547 341.3268,98.7109 Q341.983,98.8672 342.5455,99.1641 L342.5455,101.8828 Q341.9205,101.3047 341.3268,101.0391 Q340.733,100.7578 340.108,100.7578 Q338.7643,100.7578 338.0768,101.8359 Q337.3893,102.8984 337.3893,104.9922 Q337.3893,107.0859 338.0768,108.1641 Q338.7643,109.2266 340.108,109.2266 Q340.733,109.2266 341.3268,108.9609 Q341.9205,108.6797 342.5455,108.1016 L342.5455,110.8203 Z " fill="#000000"/><text fill="#000000" font-family="sans-serif" font-size="12" font-style="italic" lengthAdjust="spacing" textLength="73.9746" x="418.7208" y="101.1855">&#171;Controller&#187;</text><text fill="#000000" font-family="sans-serif" font-size="14" lengthAdjust="spacing" textLength="191.2627" x="360.0768" y="117.0107">PhysicalResourceController</text><line style="stroke:#181818;stroke-width:0.5;" x1="108.63" x2="770.2863" y1="125.3125" y2="125.3125"/><line style="stroke:#181818;stroke-width:0.5;" x1="108.63" x2="770.2863" y1="133.3125" y2="133.3125"/><g data-visibility-modifier="PUBLIC_METHOD"><ellipse cx="118.63" cy="146.9609" fill="#A6A6A6" rx="3" ry="3" style="stroke:#545454;stroke-width:1;"/></g><text fill="#000000" font-family="sans-serif" font-size="14" lengthAdjust="spacing" textLength="637.6563" x="127.63" y="150.3076">getAllocation(resourceType: string, resourceId: string, from: Date, to: Date): HttpResponse</text></g><!--class PhysicalResourceService--><g class="entity" data-qualified-name="PhysicalResourceService" data-source-line="9" id="ent0003"><rect fill="#F1F1F1" height="72.5625" rx="2.5" ry="2.5" style="stroke:#181818;stroke-width:0.5;" width="864.9063" x="7" y="307.2369"/><ellipse cx="348.2876" cy="327.3697" fill="#C2C2C2" rx="11" ry="11" style="stroke:#181818;stroke-width:1;"/><path d="M351.2563,333.0103 Q350.6782,333.3072 350.0376,333.4478 Q349.397,333.6041 348.6938,333.6041 Q346.1938,333.6041 344.8657,331.9634 Q343.5532,330.3072 343.5532,327.1822 Q343.5532,324.0572 344.8657,322.4009 Q346.1938,320.7447 348.6938,320.7447 Q349.397,320.7447 350.0376,320.9009 Q350.6938,321.0572 351.2563,321.3541 L351.2563,324.0728 Q350.6313,323.4947 350.0376,323.2291 Q349.4438,322.9478 348.8188,322.9478 Q347.4751,322.9478 346.7876,324.0259 Q346.1001,325.0884 346.1001,327.1822 Q346.1001,329.2759 346.7876,330.3541 Q347.4751,331.4166 348.8188,331.4166 Q349.4438,331.4166 350.0376,331.1509 Q350.6313,330.8697 351.2563,330.2916 L351.2563,333.0103 Z " fill="#000000"/><text fill="#000000" font-family="sans-serif" font-size="12" font-style="italic" lengthAdjust="spacing" textLength="126.082" x="392.6621" y="323.3755">&#171;ApplicationService&#187;</text><text fill="#000000" font-family="sans-serif" font-size="14" lengthAdjust="spacing" textLength="173.8311" x="368.7876" y="339.2007">PhysicalResourceService</text><line style="stroke:#181818;stroke-width:0.5;" x1="8" x2="870.9063" y1="347.5025" y2="347.5025"/><line style="stroke:#181818;stroke-width:0.5;" x1="8" x2="870.9063" y1="355.5025" y2="355.5025"/><g data-visibility-modifier="PUBLIC_METHOD"><ellipse cx="18" cy="369.1509" fill="#A6A6A6" rx="3" ry="3" style="stroke:#545454;stroke-width:1;"/></g><text fill="#000000" font-family="sans-serif" font-size="14" lengthAdjust="spacing" textLength="838.9063" x="27" y="372.4976">getAllocation(resourceType: string, resourceId: string, from: Date, to: Date): Result&lt;ResourceAllocationSummaryDTO&gt;</text></g><!--class OperationPlanRepo--><g class="entity" data-qualified-name="OperationPlanRepo" data-source-line="13" id="ent0004"><rect fill="#F1F1F1" height="72.5625" rx="2.5" ry="2.5" style="stroke:#181818;stroke-width:0.5;" width="484.1377" x="197.38" y="504.9869"/><ellipse cx="367.5743" cy="525.1197" fill="#C2C2C2" rx="11" ry="11" style="stroke:#181818;stroke-width:1;"/><path d="M370.5431,530.7603 Q369.965,531.0572 369.3243,531.1978 Q368.6837,531.3541 367.9806,531.3541 Q365.4806,531.3541 364.1525,529.7134 Q362.84,528.0572 362.84,524.9322 Q362.84,521.8072 364.1525,520.1509 Q365.4806,518.4947 367.9806,518.4947 Q368.6837,518.4947 369.3243,518.6509 Q369.9806,518.8072 370.5431,519.1041 L370.5431,521.8228 Q369.9181,521.2447 369.3243,520.9791 Q368.7306,520.6978 368.1056,520.6978 Q366.7618,520.6978 366.0743,521.7759 Q365.3868,522.8384 365.3868,524.9322 Q365.3868,527.0259 366.0743,528.1041 Q366.7618,529.1666 368.1056,529.1666 Q368.7306,529.1666 369.3243,528.9009 Q369.9181,528.6197 370.5431,528.0416 L370.5431,530.7603 Z " fill="#000000"/><text fill="#000000" font-family="sans-serif" font-size="12" font-style="italic" lengthAdjust="spacing" textLength="79.0313" x="416.1832" y="521.1255">&#171;Repository&#187;</text><text fill="#000000" font-family="sans-serif" font-size="14" lengthAdjust="spacing" textLength="135.249" x="388.0743" y="536.9507">OperationPlanRepo</text><line style="stroke:#181818;stroke-width:0.5;" x1="198.38" x2="680.5177" y1="545.2525" y2="545.2525"/><line style="stroke:#181818;stroke-width:0.5;" x1="198.38" x2="680.5177" y1="553.2525" y2="553.2525"/><g data-visibility-modifier="PUBLIC_METHOD"><ellipse cx="208.38" cy="566.9009" fill="#A6A6A6" rx="3" ry="3" style="stroke:#545454;stroke-width:1;"/></g><text fill="#000000" font-family="sans-serif" font-size="14" lengthAdjust="spacing" textLength="458.1377" x="217.38" y="570.2476">findSavedPlans(from: Date, to: Date): Promise&lt;OperationPlan[]&gt;</text></g><!--class OperationPlan--><g class="entity" data-qualified-name="OperationPlan" data-source-line="17" id="ent0005"><rect fill="#F1F1F1" height="105.1563" rx="2.5" ry="2.5" style="stroke:#181818;stroke-width:0.5;" width="153.1074" x="971.9" y="68.7469"/><ellipse cx="995.8455" cy="88.8797" fill="#C2C2C2" rx="11" ry="11" style="stroke:#181818;stroke-width:1;"/><path d="M998.8143,94.5203 Q998.2361,94.8172 997.5955,94.9578 Q996.9549,95.1141 996.2518,95.1141 Q993.7518,95.1141 992.4236,93.4734 Q991.1111,91.8172 991.1111,88.6922 Q991.1111,85.5672 992.4236,83.9109 Q993.7518,82.2547 996.2518,82.2547 Q996.9549,82.2547 997.5955,82.4109 Q998.2518,82.5672 998.8143,82.8641 L998.8143,85.5828 Q998.1893,85.0047 997.5955,84.7391 Q997.0018,84.4578 996.3768,84.4578 Q995.033,84.4578 994.3455,85.5359 Q993.658,86.5984 993.658,88.6922 Q993.658,90.7859 994.3455,91.8641 Q995.033,92.9266 996.3768,92.9266 Q997.0018,92.9266 997.5955,92.6609 Q998.1893,92.3797 998.8143,91.8016 L998.8143,94.5203 Z " fill="#000000"/><text fill="#000000" font-family="sans-serif" font-size="12" font-style="italic" lengthAdjust="spacing" textLength="105.2285" x="1009.8334" y="84.8855">&#171;AggregateRoot&#187;</text><text fill="#000000" font-family="sans-serif" font-size="14" lengthAdjust="spacing" textLength="99.4561" x="1012.7196" y="100.7107">OperationPlan</text><line style="stroke:#181818;stroke-width:0.5;" x1="972.9" x2="1124.0074" y1="109.0125" y2="109.0125"/><g data-visibility-modifier="PUBLIC_FIELD"><ellipse cx="982.9" cy="122.6609" fill="none" rx="3" ry="3" style="stroke:#545454;stroke-width:1;"/></g><text fill="#000000" font-family="sans-serif" font-size="14" lengthAdjust="spacing" textLength="127.1074" x="991.9" y="126.0076">id: UniqueEntityID</text><g data-visibility-modifier="PUBLIC_FIELD"><ellipse cx="982.9" cy="138.9578" fill="none" rx="3" ry="3" style="stroke:#545454;stroke-width:1;"/></g><text fill="#000000" font-family="sans-serif" font-size="14" lengthAdjust="spacing" textLength="92.374" x="991.9" y="142.3045">status: string</text><g data-visibility-modifier="PUBLIC_FIELD"><ellipse cx="982.9" cy="155.2547" fill="none" rx="3" ry="3" style="stroke:#545454;stroke-width:1;"/></g><text fill="#000000" font-family="sans-serif" font-size="14" lengthAdjust="spacing" textLength="106.3193" x="991.9" y="158.6014">planDate: Date</text><line style="stroke:#181818;stroke-width:0.5;" x1="972.9" x2="1124.0074" y1="165.9031" y2="165.9031"/></g><!--class Operation--><g class="entity" data-qualified-name="Operation" data-source-line="23" id="ent0006"><rect fill="#F1F1F1" height="170.3438" rx="2.5" ry="2.5" style="stroke:#181818;stroke-width:0.5;" width="282.2725" x="907.32" y="258.3469"/><ellipse cx="1009.3703" cy="278.4797" fill="#C2C2C2" rx="11" ry="11" style="stroke:#181818;stroke-width:1;"/><path d="M1012.339,284.1203 Q1011.7609,284.4172 1011.1203,284.5578 Q1010.4797,284.7141 1009.7765,284.7141 Q1007.2765,284.7141 1005.9484,283.0734 Q1004.6359,281.4172 1004.6359,278.2922 Q1004.6359,275.1672 1005.9484,273.5109 Q1007.2765,271.8547 1009.7765,271.8547 Q1010.4797,271.8547 1011.1203,272.0109 Q1011.7765,272.1672 1012.339,272.4641 L1012.339,275.1828 Q1011.714,274.6047 1011.1203,274.3391 Q1010.5265,274.0578 1009.9015,274.0578 Q1008.5578,274.0578 1007.8703,275.1359 Q1007.1828,276.1984 1007.1828,278.2922 Q1007.1828,280.3859 1007.8703,281.4641 Q1008.5578,282.5266 1009.9015,282.5266 Q1010.5265,282.5266 1011.1203,282.2609 Q1011.714,281.9797 1012.339,281.4016 L1012.339,284.1203 Z " fill="#000000"/><text fill="#000000" font-family="sans-serif" font-size="12" font-style="italic" lengthAdjust="spacing" textLength="49.7168" x="1039.8478" y="274.4855">&#171;Entity&#187;</text><text fill="#000000" font-family="sans-serif" font-size="14" lengthAdjust="spacing" textLength="69.6719" x="1029.8703" y="290.3107">Operation</text><line style="stroke:#181818;stroke-width:0.5;" x1="908.32" x2="1188.5925" y1="298.6125" y2="298.6125"/><g data-visibility-modifier="PUBLIC_FIELD"><ellipse cx="918.32" cy="312.2609" fill="none" rx="3" ry="3" style="stroke:#545454;stroke-width:1;"/></g><text fill="#000000" font-family="sans-serif" font-size="14" lengthAdjust="spacing" textLength="129.5889" x="927.32" y="315.6076">operationId: string</text><g data-visibility-modifier="PUBLIC_FIELD"><ellipse cx="918.32" cy="328.5578" fill="none" rx="3" ry="3" style="stroke:#545454;stroke-width:1;"/></g><text fill="#000000" font-family="sans-serif" font-size="14" lengthAdjust="spacing" textLength="131.1064" x="927.32" y="331.9045">startTime: number</text><g data-visibility-modifier="PUBLIC_FIELD"><ellipse cx="918.32" cy="344.8547" fill="none" rx="3" ry="3" style="stroke:#545454;stroke-width:1;"/></g><text fill="#000000" font-family="sans-serif" font-size="14" lengthAdjust="spacing" textLength="124.8721" x="927.32" y="348.2014">endTime: number</text><g data-visibility-modifier="PUBLIC_FIELD"><ellipse cx="918.32" cy="361.1516" fill="none" rx="3" ry="3" style="stroke:#545454;stroke-width:1;"/></g><text fill="#000000" font-family="sans-serif" font-size="14" lengthAdjust="spacing" textLength="82.6123" x="927.32" y="364.4982">dock: string</text><g data-visibility-modifier="PUBLIC_FIELD"><ellipse cx="918.32" cy="377.4484" fill="none" rx="3" ry="3" style="stroke:#545454;stroke-width:1;"/></g><text fill="#000000" font-family="sans-serif" font-size="14" lengthAdjust="spacing" textLength="88.874" x="927.32" y="380.7951">crane: string</text><g data-visibility-modifier="PUBLIC_FIELD"><ellipse cx="918.32" cy="393.7453" fill="none" rx="3" ry="3" style="stroke:#545454;stroke-width:1;"/></g><text fill="#000000" font-family="sans-serif" font-size="14" lengthAdjust="spacing" textLength="179.9424" x="927.32" y="397.092">craneCountUsed: number</text><g data-visibility-modifier="PUBLIC_FIELD"><ellipse cx="918.32" cy="410.0422" fill="none" rx="3" ry="3" style="stroke:#545454;stroke-width:1;"/></g><text fill="#000000" font-family="sans-serif" font-size="14" lengthAdjust="spacing" textLength="256.2725" x="927.32" y="413.3889">staffAssignments: StaffAssignment[]</text><line style="stroke:#181818;stroke-width:0.5;" x1="908.32" x2="1188.5925" y1="420.6906" y2="420.6906"/></g><!--class StaffAssignment--><g class="entity" data-qualified-name="StaffAssignment" data-source-line="33" id="ent0007"><rect fill="#F1F1F1" height="105.1563" rx="2.5" ry="2.5" style="stroke:#181818;stroke-width:0.5;" width="157.1064" x="969.9" y="488.6869"/><ellipse cx="989.3398" cy="508.8197" fill="#C2C2C2" rx="11" ry="11" style="stroke:#181818;stroke-width:1;"/><path d="M992.3085,514.4603 Q991.7304,514.7572 991.0898,514.8978 Q990.4492,515.0541 989.746,515.0541 Q987.246,515.0541 985.9179,513.4134 Q984.6054,511.7572 984.6054,508.6322 Q984.6054,505.5072 985.9179,503.8509 Q987.246,502.1947 989.746,502.1947 Q990.4492,502.1947 991.0898,502.3509 Q991.746,502.5072 992.3085,502.8041 L992.3085,505.5228 Q991.6835,504.9447 991.0898,504.6791 Q990.496,504.3978 989.871,504.3978 Q988.5273,504.3978 987.8398,505.4759 Q987.1523,506.5384 987.1523,508.6322 Q987.1523,510.7259 987.8398,511.8041 Q988.5273,512.8666 989.871,512.8666 Q990.496,512.8666 991.0898,512.6009 Q991.6835,512.3197 992.3085,511.7416 L992.3085,514.4603 Z " fill="#000000"/><text fill="#000000" font-family="sans-serif" font-size="12" font-style="italic" lengthAdjust="spacing" textLength="87.6504" x="1018.1213" y="504.8255">&#171;ValueObject&#187;</text><text fill="#000000" font-family="sans-serif" font-size="14" lengthAdjust="spacing" textLength="115.2402" x="1004.3264" y="520.6507">StaffAssignment</text><line style="stroke:#181818;stroke-width:0.5;" x1="970.9" x2="1126.0064" y1="528.9525" y2="528.9525"/><g data-visibility-modifier="PUBLIC_FIELD"><ellipse cx="980.9" cy="542.6009" fill="none" rx="3" ry="3" style="stroke:#545454;stroke-width:1;"/></g><text fill="#000000" font-family="sans-serif" font-size="14" lengthAdjust="spacing" textLength="93.5908" x="989.9" y="545.9476">staffId: string</text><g data-visibility-modifier="PUBLIC_FIELD"><ellipse cx="980.9" cy="558.8978" fill="none" rx="3" ry="3" style="stroke:#545454;stroke-width:1;"/></g><text fill="#000000" font-family="sans-serif" font-size="14" lengthAdjust="spacing" textLength="131.1064" x="989.9" y="562.2445">startTime: number</text><g data-visibility-modifier="PUBLIC_FIELD"><ellipse cx="980.9" cy="575.1947" fill="none" rx="3" ry="3" style="stroke:#545454;stroke-width:1;"/></g><text fill="#000000" font-family="sans-serif" font-size="14" lengthAdjust="spacing" textLength="124.8721" x="989.9" y="578.5414">endTime: number</text><line style="stroke:#181818;stroke-width:0.5;" x1="970.9" x2="1126.0064" y1="585.8431" y2="585.8431"/></g><!--class ResourceAllocationSummaryDTO--><g class="entity" data-qualified-name="ResourceAllocationSummaryDTO" data-source-line="39" id="ent0008"><rect fill="#F1F1F1" height="154.0469" rx="2.5" ry="2.5" style="stroke:#181818;stroke-width:0.5;" width="264.1621" x="1160.37" y="44.2969"/><ellipse cx="1175.37" cy="64.4297" fill="#C2C2C2" rx="11" ry="11" style="stroke:#181818;stroke-width:1;"/><path d="M1178.3388,70.0703 Q1177.7606,70.3672 1177.12,70.5078 Q1176.4794,70.6641 1175.7763,70.6641 Q1173.2763,70.6641 1171.9481,69.0234 Q1170.6356,67.3672 1170.6356,64.2422 Q1170.6356,61.1172 1171.9481,59.4609 Q1173.2763,57.8047 1175.7763,57.8047 Q1176.4794,57.8047 1177.12,57.9609 Q1177.7763,58.1172 1178.3388,58.4141 L1178.3388,61.1328 Q1177.7138,60.5547 1177.12,60.2891 Q1176.5263,60.0078 1175.9013,60.0078 Q1174.5575,60.0078 1173.87,61.0859 Q1173.1825,62.1484 1173.1825,64.2422 Q1173.1825,66.3359 1173.87,67.4141 Q1174.5575,68.4766 1175.9013,68.4766 Q1176.5263,68.4766 1177.12,68.2109 Q1177.7138,67.9297 1178.3388,67.3516 L1178.3388,70.0703 Z " fill="#000000"/><text fill="#000000" font-family="sans-serif" font-size="12" font-style="italic" lengthAdjust="spacing" textLength="40.6992" x="1285.1014" y="60.4355">&#171;DTO&#187;</text><text fill="#000000" font-family="sans-serif" font-size="14" lengthAdjust="spacing" textLength="232.1621" x="1189.37" y="76.2607">ResourceAllocationSummaryDTO</text><line style="stroke:#181818;stroke-width:0.5;" x1="1161.37" x2="1423.5321" y1="84.5625" y2="84.5625"/><g data-visibility-modifier="PUBLIC_FIELD"><ellipse cx="1171.37" cy="98.2109" fill="none" rx="3" ry="3" style="stroke:#545454;stroke-width:1;"/></g><text fill="#000000" font-family="sans-serif" font-size="14" lengthAdjust="spacing" textLength="144.8604" x="1180.37" y="101.5576">resourceType: string</text><g data-visibility-modifier="PUBLIC_FIELD"><ellipse cx="1171.37" cy="114.5078" fill="none" rx="3" ry="3" style="stroke:#545454;stroke-width:1;"/></g><text fill="#000000" font-family="sans-serif" font-size="14" lengthAdjust="spacing" textLength="123.5391" x="1180.37" y="117.8545">resourceId: string</text><g data-visibility-modifier="PUBLIC_FIELD"><ellipse cx="1171.37" cy="130.8047" fill="none" rx="3" ry="3" style="stroke:#545454;stroke-width:1;"/></g><text fill="#000000" font-family="sans-serif" font-size="14" lengthAdjust="spacing" textLength="75.5166" x="1180.37" y="134.1514">from: Date</text><g data-visibility-modifier="PUBLIC_FIELD"><ellipse cx="1171.37" cy="147.1016" fill="none" rx="3" ry="3" style="stroke:#545454;stroke-width:1;"/></g><text fill="#000000" font-family="sans-serif" font-size="14" lengthAdjust="spacing" textLength="56.6836" x="1180.37" y="150.4482">to: Date</text><g data-visibility-modifier="PUBLIC_FIELD"><ellipse cx="1171.37" cy="163.3984" fill="none" rx="3" ry="3" style="stroke:#545454;stroke-width:1;"/></g><text fill="#000000" font-family="sans-serif" font-size="14" lengthAdjust="spacing" textLength="195.6992" x="1180.37" y="166.7451">totalAllocatedTime: number</text><g data-visibility-modifier="PUBLIC_FIELD"><ellipse cx="1171.37" cy="179.6953" fill="none" rx="3" ry="3" style="stroke:#545454;stroke-width:1;"/></g><text fill="#000000" font-family="sans-serif" font-size="14" lengthAdjust="spacing" textLength="211.3604" x="1180.37" y="183.042">numberOfOperations: number</text><line style="stroke:#181818;stroke-width:0.5;" x1="1161.37" x2="1423.5321" y1="190.3438" y2="190.3438"/></g><!--link PhysicalResourceController to PhysicalResourceService--><g class="link" data-entity-1="ent0002" data-entity-2="ent0003" data-link-type="dependency" data-source-line="48" id="lnk9"><path codeLine="48" d="M439.45,157.6969 C439.45,198.6669 439.45,259.7769 439.45,300.8669" fill="none" id="PhysicalResourceController-to-PhysicalResourceService" style="stroke:#181818;stroke-width:1;"/><polygon fill="#181818" points="439.45,306.8669,443.45,297.8669,439.45,301.8669,435.45,297.8669,439.45,306.8669" style="stroke:#181818;stroke-width:1;"/></g><!--link PhysicalResourceService to OperationPlanRepo--><g class="link" data-entity-1="ent0003" data-entity-2="ent0004" data-link-type="dependency" data-source-line="49" id="lnk10"><path codeLine="49" d="M439.45,379.9669 C439.45,415.3369 439.45,463.3669 439.45,498.7569" fill="none" id="PhysicalResourceService-to-OperationPlanRepo" style="stroke:#181818;stroke-width:1;"/><polygon fill="#181818" points="439.45,504.7569,443.45,495.7569,439.45,499.7569,435.45,495.7569,439.45,504.7569" style="stroke:#181818;stroke-width:1;"/></g><!--reverse link OperationPlan to Operation--><g class="link" data-entity-1="ent0005" data-entity-2="ent0006" data-link-type="composition" data-source-line="51" id="lnk11"><path codeLine="51" d="M1048.45,186.2269 C1048.45,211.2769 1048.45,229.9669 1048.45,258.2469" fill="none" id="OperationPlan-backto-Operation" style="stroke:#181818;stroke-width:1;"/><polygon fill="#181818" points="1048.45,174.2269,1044.45,180.2269,1048.45,186.2269,1052.45,180.2269,1048.45,174.2269" style="stroke:#181818;stroke-width:1;"/><text fill="#000000" font-family="sans-serif" font-size="13" lengthAdjust="spacing" textLength="8.271" x="1039.9544" y="194.0413">1</text><text fill="#000000" font-family="sans-serif" font-size="13" lengthAdjust="spacing" textLength="23.0356" x="1024.4627" y="247.3469">0..*</text></g><!--reverse link Operation to StaffAssignment--><g class="link" data-entity-1="ent0006" data-entity-2="ent0007" data-link-type="composition" data-source-line="52" id="lnk12"><path codeLine="52" d="M1048.45,440.9569 C1048.45,461.1369 1048.45,470.0869 1048.45,488.2969" fill="none" id="Operation-backto-StaffAssignment" style="stroke:#181818;stroke-width:1;"/><polygon fill="#181818" points="1048.45,428.9569,1044.45,434.9569,1048.45,440.9569,1052.45,434.9569,1048.45,428.9569" style="stroke:#181818;stroke-width:1;"/><text fill="#000000" font-family="sans-serif" font-size="13" lengthAdjust="spacing" textLength="8.271" x="1040.1295" y="448.7257">1</text><text fill="#000000" font-family="sans-serif" font-size="13" lengthAdjust="spacing" textLength="23.0356" x="1023.9784" y="477.6248">0..*</text></g><!--SRC=[jLCxRzim4DxrAmwUqZGo6g3eO0W633j0Cjcrx2v11aOwoMmeKYMFAOIY_xsa9Pb-H1a2T1BryUvxa4VpmcNDDAkWKb9bEwqg1D8M8tFOCJkMgzzSbb0mOJ0YJW9XBfWniE2iz3KnRDEluzlnDrYZKLPd23CXLCQ8AmdVBUecYh9zoshN69unqHVEbIIjX40DIH9-fbFu4m5yBf42qvNkcZPDZHCmf9sj6-ZHXpnWXOioWGKZl05IxUhJ1Ew9QgTSA-cI_1tobA9-vIv3aipgMl1Ml0F_ap4dRGKblOD0dTggOhfPR9RJO7XPezxlhWIJQwoLi-e_XfFIJM-nu39FsIlclifS3IYl7CmD9YUSZqz3QlvGob9ZwRhNIb4lnbt6hUI_BDv9DoBDmyAZXXXPqwVtIEqul7Ah_uQ84sWPUcRLxuHZxAWrRNZbcAIjdb5x46L-3kKgUpdkopIJU07CbPMqDPWVjpg9efWPmqjPeIIN8pr57fz2WBCj5-C74nQNppynEvpIdl43EGugxms8a_HZqaczDPB7-AcBC1p-hn-FTarCT79uSRhjQbaShiySUtxdiSVnTEZTHKFlqVTSZ7uKdSxdw7O4rt4Ceo_ZyVKer8UoyvApc_i7]--></g></svg>