<svg xmlns="http://www.w3.org/2000/svg" xmlns:xlink="http://www.w3.org/1999/xlink" contentStyleType="text/css" data-diagram-type="SEQUENCE" height="1536px" preserveAspectRatio="none" style="width:1764px;height:1536px;background:#FFFFFF;" version="1.1" viewBox="0 0 1764 1536" width="1764px" zoomAndPan="magnify"><defs/><g><g><title>Port Authority Officer</title><rect fill="#000000" fill-opacity="0.00000" height="1364.9746" width="8" x="76.6387" y="86.4648"/><line style="stroke:#181818;stroke-width:0.5;stroke-dasharray:5,5;" x1="80" x2="80" y1="86.4648" y2="1451.4395"/></g><g><title>API Layer</title><rect fill="#000000" fill-opacity="0.00000" height="1364.9746" width="8" x="345.4868" y="86.4648"/><line style="stroke:#181818;stroke-width:0.5;stroke-dasharray:5,5;" x1="348.9478" x2="348.9478" y1="86.4648" y2="1451.4395"/></g><g><title>Application Layer</title><rect fill="#000000" fill-opacity="0.00000" height="1364.9746" width="8" x="849.5029" y="86.4648"/><line style="stroke:#181818;stroke-width:0.5;stroke-dasharray:5,5;" x1="853.2734" x2="853.2734" y1="86.4648" y2="1451.4395"/></g><g><title>Mapper</title><rect fill="#000000" fill-opacity="0.00000" height="1364.9746" width="8" x="1088.0195" y="86.4648"/><line style="stroke:#181818;stroke-width:0.5;stroke-dasharray:5,5;" x1="1091.502" x2="1091.502" y1="86.4648" y2="1451.4395"/></g><g><title>Factory</title><rect fill="#000000" fill-opacity="0.00000" height="1364.9746" width="8" x="1242.6592" y="86.4648"/><line style="stroke:#181818;stroke-width:0.5;stroke-dasharray:5,5;" x1="1246.5371" x2="1246.5371" y1="86.4648" y2="1451.4395"/></g><g><title>Repository</title><rect fill="#000000" fill-opacity="0.00000" height="1364.9746" width="8" x="1406.3394" y="86.4648"/><line style="stroke:#181818;stroke-width:0.5;stroke-dasharray:5,5;" x1="1409.7813" x2="1409.7813" y1="86.4648" y2="1451.4395"/></g><g><title>UnitOfWork</title><rect fill="#000000" fill-opacity="0.00000" height="1364.9746" width="8" x="1548.5581" y="86.4648"/><line style="stroke:#181818;stroke-width:0.5;stroke-dasharray:5,5;" x1="1551.8975" x2="1551.8975" y1="86.4648" y2="1451.4395"/></g><g><title>Audit.Logs</title><rect fill="#000000" fill-opacity="0.00000" height="1364.9746" width="8" x="1677.6602" y="86.4648"/><line style="stroke:#181818;stroke-width:0.5;stroke-dasharray:5,5;" x1="1681.2188" x2="1681.2188" y1="86.4648" y2="1451.4395"/></g><g class="participant participant-head" data-participant="Officer"><text fill="#000000" font-family="sans-serif" font-size="14" lengthAdjust="spacing" textLength="145.2773" x="5" y="83.5117">Port Authority Officer</text><ellipse cx="80.6387" cy="18.4766" fill="#E2E2F0" rx="8" ry="8" style="stroke:#181818;stroke-width:0.5;"/><path d="M80.6387,26.4766 L80.6387,53.4766 M67.6387,34.4766 L93.6387,34.4766 M80.6387,53.4766 L67.6387,68.4766 M80.6387,53.4766 L93.6387,68.4766" fill="none" style="stroke:#181818;stroke-width:0.5;"/></g><g class="participant participant-tail" data-participant="Officer"><text fill="#000000" font-family="sans-serif" font-size="14" lengthAdjust="spacing" textLength="145.2773" x="5" y="1463.9746">Port Authority Officer</text><ellipse cx="80.6387" cy="1475.4277" fill="#E2E2F0" rx="8" ry="8" style="stroke:#181818;stroke-width:0.5;"/><path d="M80.6387,1483.4277 L80.6387,1510.4277 M67.6387,1491.4277 L93.6387,1491.4277 M80.6387,1510.4277 L67.6387,1525.4277 M80.6387,1510.4277 L93.6387,1525.4277" fill="none" style="stroke:#181818;stroke-width:0.5;"/></g><g class="participant participant-head" data-participant="Controller"><text fill="#000000" font-family="sans-serif" font-size="14" lengthAdjust="spacing" textLength="61.8994" x="315.5371" y="50.5352">API Layer</text><text fill="#000000" font-family="sans-serif" font-size="14" lengthAdjust="spacing" textLength="77.2666" x="307.8535" y="67.0234">(Controller)</text><text fill="#000000" font-family="sans-serif" font-size="14" lengthAdjust="spacing" textLength="177.0781" x="257.9478" y="83.5117">&#171;uses IVesselTypeService&#187;</text><path d="M328.9868,9 L328.9868,33 M328.9868,21 L345.9868,21" fill="none" style="stroke:#181818;stroke-width:0.5;"/><ellipse cx="357.9868" cy="21" fill="#E2E2F0" rx="12" ry="12" style="stroke:#181818;stroke-width:0.5;"/></g><g class="participant participant-tail" data-participant="Controller"><text fill="#000000" font-family="sans-serif" font-size="14" lengthAdjust="spacing" textLength="61.8994" x="315.5371" y="1463.9746">API Layer</text><text fill="#000000" font-family="sans-serif" font-size="14" lengthAdjust="spacing" textLength="77.2666" x="307.8535" y="1480.4629">(Controller)</text><text fill="#000000" font-family="sans-serif" font-size="14" lengthAdjust="spacing" textLength="177.0781" x="257.9478" y="1496.9512">&#171;uses IVesselTypeService&#187;</text><path d="M328.9868,1503.9043 L328.9868,1527.9043 M328.9868,1515.9043 L345.9868,1515.9043" fill="none" style="stroke:#181818;stroke-width:0.5;"/><ellipse cx="357.9868" cy="1515.9043" fill="#E2E2F0" rx="12" ry="12" style="stroke:#181818;stroke-width:0.5;"/></g><g class="participant participant-head" data-participant="Service"><text fill="#000000" font-family="sans-serif" font-size="14" lengthAdjust="spacing" textLength="117.3184" x="791.8438" y="50.5352">Application Layer</text><text fill="#000000" font-family="sans-serif" font-size="14" lengthAdjust="spacing" textLength="132.2891" x="784.3584" y="67.0234">(VesselTypeService)</text><text fill="#000000" font-family="sans-serif" font-size="14" lengthAdjust="spacing" textLength="220.459" x="740.2734" y="83.5117">(implements IVesselTypeService)</text><ellipse cx="853.5029" cy="21" fill="#E2E2F0" rx="12" ry="12" style="stroke:#181818;stroke-width:0.5;"/><polygon fill="#181818" points="849.5029,9,855.5029,4,853.5029,9,855.5029,14,849.5029,9" style="stroke:#181818;stroke-width:1;"/></g><g class="participant participant-tail" data-participant="Service"><text fill="#000000" font-family="sans-serif" font-size="14" lengthAdjust="spacing" textLength="117.3184" x="791.8438" y="1463.9746">Application Layer</text><text fill="#000000" font-family="sans-serif" font-size="14" lengthAdjust="spacing" textLength="132.2891" x="784.3584" y="1480.4629">(VesselTypeService)</text><text fill="#000000" font-family="sans-serif" font-size="14" lengthAdjust="spacing" textLength="220.459" x="740.2734" y="1496.9512">(implements IVesselTypeService)</text><ellipse cx="853.5029" cy="1515.9043" fill="#E2E2F0" rx="12" ry="12" style="stroke:#181818;stroke-width:0.5;"/><polygon fill="#181818" points="849.5029,1503.9043,855.5029,1498.9043,853.5029,1503.9043,855.5029,1508.9043,849.5029,1503.9043" style="stroke:#181818;stroke-width:1;"/></g><g class="participant participant-head" data-participant="Mappers"><text fill="#000000" font-family="sans-serif" font-size="14" lengthAdjust="spacing" textLength="50.9414" x="1063.5488" y="67.0234">Mapper</text><text fill="#000000" font-family="sans-serif" font-size="14" lengthAdjust="spacing" textLength="143.0352" x="1017.502" y="83.5117">(VesselTypeMappers)</text><ellipse cx="1092.0195" cy="37.4883" fill="#E2E2F0" rx="12" ry="12" style="stroke:#181818;stroke-width:0.5;"/><polygon fill="#181818" points="1088.0195,25.4883,1094.0195,20.4883,1092.0195,25.4883,1094.0195,30.4883,1088.0195,25.4883" style="stroke:#181818;stroke-width:1;"/></g><g class="participant participant-tail" data-participant="Mappers"><text fill="#000000" font-family="sans-serif" font-size="14" lengthAdjust="spacing" textLength="50.9414" x="1063.5488" y="1463.9746">Mapper</text><text fill="#000000" font-family="sans-serif" font-size="14" lengthAdjust="spacing" textLength="143.0352" x="1017.502" y="1480.4629">(VesselTypeMappers)</text><ellipse cx="1092.0195" cy="1499.416" fill="#E2E2F0" rx="12" ry="12" style="stroke:#181818;stroke-width:0.5;"/><polygon fill="#181818" points="1088.0195,1487.416,1094.0195,1482.416,1092.0195,1487.416,1094.0195,1492.416,1088.0195,1487.416" style="stroke:#181818;stroke-width:1;"/></g><g class="participant participant-head" data-participant="Factory"><text fill="#000000" font-family="sans-serif" font-size="14" lengthAdjust="spacing" textLength="49.2871" x="1219.0156" y="67.0234">Factory</text><text fill="#000000" font-family="sans-serif" font-size="14" lengthAdjust="spacing" textLength="134.2441" x="1176.5371" y="83.5117">(VesselTypeFactory)</text><ellipse cx="1246.6592" cy="37.4883" fill="#E2E2F0" rx="12" ry="12" style="stroke:#181818;stroke-width:0.5;"/><polygon fill="#181818" points="1242.6592,25.4883,1248.6592,20.4883,1246.6592,25.4883,1248.6592,30.4883,1242.6592,25.4883" style="stroke:#181818;stroke-width:1;"/></g><g class="participant participant-tail" data-participant="Factory"><text fill="#000000" font-family="sans-serif" font-size="14" lengthAdjust="spacing" textLength="49.2871" x="1219.0156" y="1463.9746">Factory</text><text fill="#000000" font-family="sans-serif" font-size="14" lengthAdjust="spacing" textLength="134.2441" x="1176.5371" y="1480.4629">(VesselTypeFactory)</text><ellipse cx="1246.6592" cy="1499.416" fill="#E2E2F0" rx="12" ry="12" style="stroke:#181818;stroke-width:0.5;"/><polygon fill="#181818" points="1242.6592,1487.416,1248.6592,1482.416,1246.6592,1487.416,1248.6592,1492.416,1242.6592,1487.416" style="stroke:#181818;stroke-width:1;"/></g><g class="participant participant-head" data-participant="Repo"><text fill="#000000" font-family="sans-serif" font-size="14" lengthAdjust="spacing" textLength="72.126" x="1371.2764" y="50.5352">Repository</text><text fill="#000000" font-family="sans-serif" font-size="14" lengthAdjust="spacing" textLength="74.0195" x="1370.3296" y="67.0234">&#171;interface&#187;</text><text fill="#000000" font-family="sans-serif" font-size="14" lengthAdjust="spacing" textLength="161.1162" x="1326.7813" y="83.5117">(IVesselTypeRepository)</text><ellipse cx="1410.3394" cy="21" fill="#E2E2F0" rx="12" ry="12" style="stroke:#181818;stroke-width:0.5;"/><line style="stroke:#181818;stroke-width:0.5;" x1="1398.3394" x2="1422.3394" y1="35" y2="35"/></g><g class="participant participant-tail" data-participant="Repo"><text fill="#000000" font-family="sans-serif" font-size="14" lengthAdjust="spacing" textLength="72.126" x="1371.2764" y="1463.9746">Repository</text><text fill="#000000" font-family="sans-serif" font-size="14" lengthAdjust="spacing" textLength="74.0195" x="1370.3296" y="1480.4629">&#171;interface&#187;</text><text fill="#000000" font-family="sans-serif" font-size="14" lengthAdjust="spacing" textLength="161.1162" x="1326.7813" y="1496.9512">(IVesselTypeRepository)</text><ellipse cx="1410.3394" cy="1515.9043" fill="#E2E2F0" rx="12" ry="12" style="stroke:#181818;stroke-width:0.5;"/><line style="stroke:#181818;stroke-width:0.5;" x1="1398.3394" x2="1422.3394" y1="1529.9043" y2="1529.9043"/></g><g class="participant participant-head" data-participant="UoW"><text fill="#000000" font-family="sans-serif" font-size="14" lengthAdjust="spacing" textLength="78.1826" x="1510.4668" y="50.5352">UnitOfWork</text><text fill="#000000" font-family="sans-serif" font-size="14" lengthAdjust="spacing" textLength="74.0195" x="1512.5483" y="67.0234">&#171;interface&#187;</text><text fill="#000000" font-family="sans-serif" font-size="14" lengthAdjust="spacing" textLength="91.3213" x="1503.8975" y="83.5117">(IUnitOfWork)</text><ellipse cx="1552.5581" cy="21" fill="#E2E2F0" rx="12" ry="12" style="stroke:#181818;stroke-width:0.5;"/><line style="stroke:#181818;stroke-width:0.5;" x1="1540.5581" x2="1564.5581" y1="35" y2="35"/></g><g class="participant participant-tail" data-participant="UoW"><text fill="#000000" font-family="sans-serif" font-size="14" lengthAdjust="spacing" textLength="78.1826" x="1510.4668" y="1463.9746">UnitOfWork</text><text fill="#000000" font-family="sans-serif" font-size="14" lengthAdjust="spacing" textLength="74.0195" x="1512.5483" y="1480.4629">&#171;interface&#187;</text><text fill="#000000" font-family="sans-serif" font-size="14" lengthAdjust="spacing" textLength="91.3213" x="1503.8975" y="1496.9512">(IUnitOfWork)</text><ellipse cx="1552.5581" cy="1515.9043" fill="#E2E2F0" rx="12" ry="12" style="stroke:#181818;stroke-width:0.5;"/><line style="stroke:#181818;stroke-width:0.5;" x1="1540.5581" x2="1564.5581" y1="1529.9043" y2="1529.9043"/></g><g class="participant participant-head" data-participant="Log"><rect fill="#E2E2F0" height="46.9766" style="stroke:#181818;stroke-width:0.5;" width="136.8828" x="1615.2188" y="34.4883"/><rect fill="#E2E2F0" height="46.9766" style="stroke:#181818;stroke-width:0.5;" width="136.8828" x="1611.2188" y="38.4883"/><text fill="#000000" font-family="sans-serif" font-size="14" lengthAdjust="spacing" textLength="75.7148" x="1641.8027" y="59.0234">Audit/Logs</text><text fill="#000000" font-family="sans-serif" font-size="14" lengthAdjust="spacing" textLength="122.8828" x="1618.2188" y="75.5117">(ILogger / Serilog)</text></g><g class="participant participant-tail" data-participant="Log"><rect fill="#E2E2F0" height="46.9766" style="stroke:#181818;stroke-width:0.5;" width="136.8828" x="1615.2188" y="1450.4395"/><rect fill="#E2E2F0" height="46.9766" style="stroke:#181818;stroke-width:0.5;" width="136.8828" x="1611.2188" y="1454.4395"/><text fill="#000000" font-family="sans-serif" font-size="14" lengthAdjust="spacing" textLength="75.7148" x="1641.8027" y="1474.9746">Audit/Logs</text><text fill="#000000" font-family="sans-serif" font-size="14" lengthAdjust="spacing" textLength="122.8828" x="1618.2188" y="1491.4629">(ILogger / Serilog)</text></g><rect fill="#EEEEEE" height="3" style="stroke:#EEEEEE;stroke-width:1;" width="1757.1016" x="0" y="117.1201"/><line style="stroke:#000000;stroke-width:1;" x1="0" x2="1757.1016" y1="117.1201" y2="117.1201"/><line style="stroke:#000000;stroke-width:1;" x1="0" x2="1757.1016" y1="120.1201" y2="120.1201"/><rect fill="#EEEEEE" height="23.3105" style="stroke:#000000;stroke-width:2;" width="61.6011" x="847.7502" y="106.4648"/><text fill="#000000" font-family="sans-serif" font-size="13" font-weight="bold" lengthAdjust="spacing" textLength="43.3164" x="853.7502" y="123.0332">Create</text><g class="message" data-participant-1="Officer" data-participant-2="Controller"><polygon fill="#181818" points="337.4868,172.3965,347.4868,176.3965,337.4868,180.3965,341.4868,176.3965" style="stroke:#181818;stroke-width:1;"/><line style="stroke:#181818;stroke-width:1;" x1="80.6387" x2="343.4868" y1="176.3965" y2="176.3965"/><text fill="#000000" font-family="sans-serif" font-size="13" lengthAdjust="spacing" textLength="141.3052" x="87.6387" y="156.3438">POST /api/vesseltypes</text><text fill="#000000" font-family="sans-serif" font-size="13" lengthAdjust="spacing" textLength="185.2119" x="87.6387" y="171.6543">Body: CreatingVesselTypeDto</text></g><g class="message" data-participant-1="Controller" data-participant-2="Service"><polygon fill="#181818" points="841.5029,201.707,851.5029,205.707,841.5029,209.707,845.5029,205.707" style="stroke:#181818;stroke-width:1;"/><line style="stroke:#181818;stroke-width:1;" x1="349.4868" x2="847.5029" y1="205.707" y2="205.707"/><text fill="#000000" font-family="sans-serif" font-size="13" lengthAdjust="spacing" textLength="330.5669" x="356.4868" y="200.9648">AddAsync(dto)  &#171;calls IVesselTypeService.AddAsync&#187;</text></g><g class="message" data-participant-1="Service" data-participant-2="Repo"><polygon fill="#181818" points="1398.3394,231.0176,1408.3394,235.0176,1398.3394,239.0176,1402.3394,235.0176" style="stroke:#181818;stroke-width:1;"/><line style="stroke:#181818;stroke-width:1;" x1="853.5029" x2="1404.3394" y1="235.0176" y2="235.0176"/><text fill="#000000" font-family="sans-serif" font-size="13" lengthAdjust="spacing" textLength="178.8071" x="860.5029" y="230.2754">GetByNameAsync(dto.Name)</text></g><g class="message" data-participant-1="Repo" data-participant-2="Service"><polygon fill="#181818" points="864.5029,260.3281,854.5029,264.3281,864.5029,268.3281,860.5029,264.3281" style="stroke:#181818;stroke-width:1;"/><line style="stroke:#181818;stroke-width:1;stroke-dasharray:2,2;" x1="858.5029" x2="1409.3394" y1="264.3281" y2="264.3281"/><text fill="#000000" font-family="sans-serif" font-size="13" lengthAdjust="spacing" textLength="155.4731" x="870.5029" y="259.5859">null (no duplicate found)</text></g><g class="message" data-participant-1="Service" data-participant-2="Service"><line style="stroke:#181818;stroke-width:1;" x1="853.5029" x2="895.5029" y1="293.6387" y2="293.6387"/><line style="stroke:#181818;stroke-width:1;" x1="895.5029" x2="895.5029" y1="293.6387" y2="306.6387"/><line style="stroke:#181818;stroke-width:1;" x1="854.5029" x2="895.5029" y1="306.6387" y2="306.6387"/><polygon fill="#181818" points="864.5029,302.6387,854.5029,306.6387,864.5029,310.6387,860.5029,306.6387" style="stroke:#181818;stroke-width:1;"/><text fill="#000000" font-family="sans-serif" font-size="13" lengthAdjust="spacing" textLength="176.7061" x="860.5029" y="288.8965">Validate name &amp; constraints</text></g><g class="message" data-participant-1="Service" data-participant-2="Factory"><polygon fill="#181818" points="1234.6592,331.9492,1244.6592,335.9492,1234.6592,339.9492,1238.6592,335.9492" style="stroke:#181818;stroke-width:1;"/><line style="stroke:#181818;stroke-width:1;" x1="853.5029" x2="1240.6592" y1="335.9492" y2="335.9492"/><text fill="#000000" font-family="sans-serif" font-size="13" lengthAdjust="spacing" textLength="172.4595" x="860.5029" y="331.207">CreateBasicVesselType(dto)</text></g><g class="message" data-participant-1="Factory" data-participant-2="Service"><polygon fill="#181818" points="864.5029,361.2598,854.5029,365.2598,864.5029,369.2598,860.5029,365.2598" style="stroke:#181818;stroke-width:1;"/><line style="stroke:#181818;stroke-width:1;stroke-dasharray:2,2;" x1="858.5029" x2="1245.6592" y1="365.2598" y2="365.2598"/><text fill="#000000" font-family="sans-serif" font-size="13" lengthAdjust="spacing" textLength="118.5869" x="870.5029" y="360.5176">VesselType (entity)</text></g><g class="message" data-participant-1="Service" data-participant-2="Repo"><polygon fill="#181818" points="1398.3394,390.5703,1408.3394,394.5703,1398.3394,398.5703,1402.3394,394.5703" style="stroke:#181818;stroke-width:1;"/><line style="stroke:#181818;stroke-width:1;" x1="853.5029" x2="1404.3394" y1="394.5703" y2="394.5703"/><text fill="#000000" font-family="sans-serif" font-size="13" lengthAdjust="spacing" textLength="106.4883" x="860.5029" y="389.8281">AddAsync(entity)</text></g><g class="message" data-participant-1="Repo" data-participant-2="Service"><polygon fill="#181818" points="864.5029,419.8809,854.5029,423.8809,864.5029,427.8809,860.5029,423.8809" style="stroke:#181818;stroke-width:1;"/><line style="stroke:#181818;stroke-width:1;stroke-dasharray:2,2;" x1="858.5029" x2="1409.3394" y1="423.8809" y2="423.8809"/><text fill="#000000" font-family="sans-serif" font-size="13" lengthAdjust="spacing" textLength="97.5444" x="870.5029" y="419.1387">Entity persisted</text></g><g class="message" data-participant-1="Service" data-participant-2="UoW"><polygon fill="#181818" points="1540.5581,449.1914,1550.5581,453.1914,1540.5581,457.1914,1544.5581,453.1914" style="stroke:#181818;stroke-width:1;"/><line style="stroke:#181818;stroke-width:1;" x1="853.5029" x2="1546.5581" y1="453.1914" y2="453.1914"/><text fill="#000000" font-family="sans-serif" font-size="13" lengthAdjust="spacing" textLength="95.4434" x="860.5029" y="448.4492">CommitAsync()</text></g><g class="message" data-participant-1="UoW" data-participant-2="Service"><polygon fill="#181818" points="864.5029,478.502,854.5029,482.502,864.5029,486.502,860.5029,482.502" style="stroke:#181818;stroke-width:1;"/><line style="stroke:#181818;stroke-width:1;stroke-dasharray:2,2;" x1="858.5029" x2="1551.5581" y1="482.502" y2="482.502"/><text fill="#000000" font-family="sans-serif" font-size="13" lengthAdjust="spacing" textLength="145.8628" x="870.5029" y="477.7598">Transaction committed</text></g><g class="message" data-participant-1="Service" data-participant-2="Mappers"><polygon fill="#181818" points="1080.0195,507.8125,1090.0195,511.8125,1080.0195,515.8125,1084.0195,511.8125" style="stroke:#181818;stroke-width:1;"/><line style="stroke:#181818;stroke-width:1;" x1="853.5029" x2="1086.0195" y1="511.8125" y2="511.8125"/><text fill="#000000" font-family="sans-serif" font-size="13" lengthAdjust="spacing" textLength="177.8994" x="860.5029" y="507.0703">CreateDtoVesselType(entity)</text></g><g class="message" data-participant-1="Mappers" data-participant-2="Service"><polygon fill="#181818" points="864.5029,537.123,854.5029,541.123,864.5029,545.123,860.5029,541.123" style="stroke:#181818;stroke-width:1;"/><line style="stroke:#181818;stroke-width:1;stroke-dasharray:2,2;" x1="858.5029" x2="1091.0195" y1="541.123" y2="541.123"/><text fill="#000000" font-family="sans-serif" font-size="13" lengthAdjust="spacing" textLength="93.0186" x="870.5029" y="536.3809">VesselTypeDto</text></g><g class="message" data-participant-1="Service" data-participant-2="Log"><polygon fill="#181818" points="1669.6602,566.4336,1679.6602,570.4336,1669.6602,574.4336,1673.6602,570.4336" style="stroke:#181818;stroke-width:1;"/><line style="stroke:#181818;stroke-width:1;" x1="853.5029" x2="1675.6602" y1="570.4336" y2="570.4336"/><text fill="#000000" font-family="sans-serif" font-size="13" lengthAdjust="spacing" textLength="292.7412" x="860.5029" y="565.6914">Log(CREATE, officerId, vesselTypeId, SUCCESS)</text></g><g class="message" data-participant-1="Service" data-participant-2="Controller"><polygon fill="#181818" points="360.4868,595.7441,350.4868,599.7441,360.4868,603.7441,356.4868,599.7441" style="stroke:#181818;stroke-width:1;"/><line style="stroke:#181818;stroke-width:1;stroke-dasharray:2,2;" x1="354.4868" x2="852.5029" y1="599.7441" y2="599.7441"/><text fill="#000000" font-family="sans-serif" font-size="13" lengthAdjust="spacing" textLength="93.0186" x="366.4868" y="595.002">VesselTypeDto</text></g><g class="message" data-participant-1="Controller" data-participant-2="Officer"><polygon fill="#181818" points="91.6387,625.0547,81.6387,629.0547,91.6387,633.0547,87.6387,629.0547" style="stroke:#181818;stroke-width:1;"/><line style="stroke:#181818;stroke-width:1;stroke-dasharray:2,2;" x1="85.6387" x2="348.4868" y1="629.0547" y2="629.0547"/><text fill="#000000" font-family="sans-serif" font-size="13" lengthAdjust="spacing" textLength="183.3838" x="97.6387" y="624.3125">201 Created (VesselTypeDto)</text></g><rect fill="#EEEEEE" height="3" style="stroke:#EEEEEE;stroke-width:1;" width="1757.1016" x="0" y="657.71"/><line style="stroke:#000000;stroke-width:1;" x1="0" x2="1757.1016" y1="657.71" y2="657.71"/><line style="stroke:#000000;stroke-width:1;" x1="0" x2="1757.1016" y1="660.71" y2="660.71"/><rect fill="#EEEEEE" height="23.3105" style="stroke:#000000;stroke-width:2;" width="65.6128" x="845.7444" y="647.0547"/><text fill="#000000" font-family="sans-serif" font-size="13" font-weight="bold" lengthAdjust="spacing" textLength="47.3281" x="851.7444" y="663.623">Update</text><g class="message" data-participant-1="Officer" data-participant-2="Controller"><polygon fill="#181818" points="337.4868,712.9863,347.4868,716.9863,337.4868,720.9863,341.4868,716.9863" style="stroke:#181818;stroke-width:1;"/><line style="stroke:#181818;stroke-width:1;" x1="80.6387" x2="343.4868" y1="716.9863" y2="716.9863"/><text fill="#000000" font-family="sans-serif" font-size="13" lengthAdjust="spacing" textLength="160.4243" x="87.6387" y="696.9336">PUT /api/vesseltypes/{id}</text><text fill="#000000" font-family="sans-serif" font-size="13" lengthAdjust="spacing" textLength="176.3379" x="87.6387" y="712.2441">Body: UpdateVesselTypeDto</text></g><g class="message" data-participant-1="Controller" data-participant-2="Service"><polygon fill="#181818" points="841.5029,742.2969,851.5029,746.2969,841.5029,750.2969,845.5029,746.2969" style="stroke:#181818;stroke-width:1;"/><line style="stroke:#181818;stroke-width:1;" x1="349.4868" x2="847.5029" y1="746.2969" y2="746.2969"/><text fill="#000000" font-family="sans-serif" font-size="13" lengthAdjust="spacing" textLength="389.3779" x="356.4868" y="741.5547">UpdateAsync(id, dto)  &#171;calls IVesselTypeService.UpdateAsync&#187;</text></g><g class="message" data-participant-1="Service" data-participant-2="Repo"><polygon fill="#181818" points="1398.3394,771.6074,1408.3394,775.6074,1398.3394,779.6074,1402.3394,775.6074" style="stroke:#181818;stroke-width:1;"/><line style="stroke:#181818;stroke-width:1;" x1="853.5029" x2="1404.3394" y1="775.6074" y2="775.6074"/><text fill="#000000" font-family="sans-serif" font-size="13" lengthAdjust="spacing" textLength="105.2061" x="860.5029" y="770.8652">GetByIdAsync(id)</text></g><g class="message" data-participant-1="Repo" data-participant-2="Service"><polygon fill="#181818" points="864.5029,800.918,854.5029,804.918,864.5029,808.918,860.5029,804.918" style="stroke:#181818;stroke-width:1;"/><line style="stroke:#181818;stroke-width:1;stroke-dasharray:2,2;" x1="858.5029" x2="1409.3394" y1="804.918" y2="804.918"/><text fill="#000000" font-family="sans-serif" font-size="13" lengthAdjust="spacing" textLength="173.0942" x="870.5029" y="800.1758">VesselType (existing entity)</text></g><g class="message" data-participant-1="Service" data-participant-2="Service"><line style="stroke:#181818;stroke-width:1;" x1="853.5029" x2="895.5029" y1="849.5391" y2="849.5391"/><line style="stroke:#181818;stroke-width:1;" x1="895.5029" x2="895.5029" y1="849.5391" y2="862.5391"/><line style="stroke:#181818;stroke-width:1;" x1="854.5029" x2="895.5029" y1="862.5391" y2="862.5391"/><polygon fill="#181818" points="864.5029,858.5391,854.5029,862.5391,864.5029,866.5391,860.5029,862.5391" style="stroke:#181818;stroke-width:1;"/><text fill="#000000" font-family="sans-serif" font-size="13" lengthAdjust="spacing" textLength="105.1172" x="860.5029" y="829.4863">Validate updates</text><text fill="#000000" font-family="sans-serif" font-size="13" lengthAdjust="spacing" textLength="224.5166" x="860.5029" y="844.7969">(unique name, positive dimensions)</text></g><g class="message" data-participant-1="Service" data-participant-2="Repo"><polygon fill="#181818" points="1398.3394,887.8496,1408.3394,891.8496,1398.3394,895.8496,1402.3394,891.8496" style="stroke:#181818;stroke-width:1;"/><line style="stroke:#181818;stroke-width:1;" x1="853.5029" x2="1404.3394" y1="891.8496" y2="891.8496"/><text fill="#000000" font-family="sans-serif" font-size="13" lengthAdjust="spacing" textLength="374.9434" x="860.5029" y="887.1074">Save(updated entity)  &#171;IVesselTypeRepository.Save/Update&#187;</text></g><g class="message" data-participant-1="Repo" data-participant-2="Service"><polygon fill="#181818" points="864.5029,917.1602,854.5029,921.1602,864.5029,925.1602,860.5029,921.1602" style="stroke:#181818;stroke-width:1;"/><line style="stroke:#181818;stroke-width:1;stroke-dasharray:2,2;" x1="858.5029" x2="1409.3394" y1="921.1602" y2="921.1602"/><text fill="#000000" font-family="sans-serif" font-size="13" lengthAdjust="spacing" textLength="91.3999" x="870.5029" y="916.418">Entity updated</text></g><g class="message" data-participant-1="Service" data-participant-2="UoW"><polygon fill="#181818" points="1540.5581,946.4707,1550.5581,950.4707,1540.5581,954.4707,1544.5581,950.4707" style="stroke:#181818;stroke-width:1;"/><line style="stroke:#181818;stroke-width:1;" x1="853.5029" x2="1546.5581" y1="950.4707" y2="950.4707"/><text fill="#000000" font-family="sans-serif" font-size="13" lengthAdjust="spacing" textLength="95.4434" x="860.5029" y="945.7285">CommitAsync()</text></g><g class="message" data-participant-1="UoW" data-participant-2="Service"><polygon fill="#181818" points="864.5029,975.7813,854.5029,979.7813,864.5029,983.7813,860.5029,979.7813" style="stroke:#181818;stroke-width:1;"/><line style="stroke:#181818;stroke-width:1;stroke-dasharray:2,2;" x1="858.5029" x2="1551.5581" y1="979.7813" y2="979.7813"/><text fill="#000000" font-family="sans-serif" font-size="13" lengthAdjust="spacing" textLength="145.8628" x="870.5029" y="975.0391">Transaction committed</text></g><g class="message" data-participant-1="Service" data-participant-2="Mappers"><polygon fill="#181818" points="1080.0195,1005.0918,1090.0195,1009.0918,1080.0195,1013.0918,1084.0195,1009.0918" style="stroke:#181818;stroke-width:1;"/><line style="stroke:#181818;stroke-width:1;" x1="853.5029" x2="1086.0195" y1="1009.0918" y2="1009.0918"/><text fill="#000000" font-family="sans-serif" font-size="13" lengthAdjust="spacing" textLength="194.2129" x="860.5029" y="1004.3496">CreateDtoVesselType(updated)</text></g><g class="message" data-participant-1="Mappers" data-participant-2="Service"><polygon fill="#181818" points="864.5029,1034.4023,854.5029,1038.4023,864.5029,1042.4023,860.5029,1038.4023" style="stroke:#181818;stroke-width:1;"/><line style="stroke:#181818;stroke-width:1;stroke-dasharray:2,2;" x1="858.5029" x2="1091.0195" y1="1038.4023" y2="1038.4023"/><text fill="#000000" font-family="sans-serif" font-size="13" lengthAdjust="spacing" textLength="93.0186" x="870.5029" y="1033.6602">VesselTypeDto</text></g><g class="message" data-participant-1="Service" data-participant-2="Log"><polygon fill="#181818" points="1669.6602,1063.7129,1679.6602,1067.7129,1669.6602,1071.7129,1673.6602,1067.7129" style="stroke:#181818;stroke-width:1;"/><line style="stroke:#181818;stroke-width:1;" x1="853.5029" x2="1675.6602" y1="1067.7129" y2="1067.7129"/><text fill="#000000" font-family="sans-serif" font-size="13" lengthAdjust="spacing" textLength="294.4106" x="860.5029" y="1062.9707">Log(UPDATE, officerId, vesselTypeId, SUCCESS)</text></g><g class="message" data-participant-1="Service" data-participant-2="Controller"><polygon fill="#181818" points="360.4868,1093.0234,350.4868,1097.0234,360.4868,1101.0234,356.4868,1097.0234" style="stroke:#181818;stroke-width:1;"/><line style="stroke:#181818;stroke-width:1;stroke-dasharray:2,2;" x1="354.4868" x2="852.5029" y1="1097.0234" y2="1097.0234"/><text fill="#000000" font-family="sans-serif" font-size="13" lengthAdjust="spacing" textLength="93.0186" x="366.4868" y="1092.2813">VesselTypeDto</text></g><g class="message" data-participant-1="Controller" data-participant-2="Officer"><polygon fill="#181818" points="91.6387,1122.334,81.6387,1126.334,91.6387,1130.334,87.6387,1126.334" style="stroke:#181818;stroke-width:1;"/><line style="stroke:#181818;stroke-width:1;stroke-dasharray:2,2;" x1="85.6387" x2="348.4868" y1="1126.334" y2="1126.334"/><text fill="#000000" font-family="sans-serif" font-size="13" lengthAdjust="spacing" textLength="152.9468" x="97.6387" y="1121.5918">200 OK (VesselTypeDto)</text></g><rect fill="#EEEEEE" height="3" style="stroke:#EEEEEE;stroke-width:1;" width="1757.1016" x="0" y="1154.9893"/><line style="stroke:#000000;stroke-width:1;" x1="0" x2="1757.1016" y1="1154.9893" y2="1154.9893"/><line style="stroke:#000000;stroke-width:1;" x1="0" x2="1757.1016" y1="1157.9893" y2="1157.9893"/><rect fill="#EEEEEE" height="23.3105" style="stroke:#000000;stroke-width:2;" width="62.3374" x="847.3821" y="1144.334"/><text fill="#000000" font-family="sans-serif" font-size="13" font-weight="bold" lengthAdjust="spacing" textLength="44.0527" x="853.3821" y="1160.9023">Search</text><g class="message" data-participant-1="Officer" data-participant-2="Controller"><polygon fill="#181818" points="337.4868,1194.9551,347.4868,1198.9551,337.4868,1202.9551,341.4868,1198.9551" style="stroke:#181818;stroke-width:1;"/><line style="stroke:#181818;stroke-width:1;" x1="80.6387" x2="343.4868" y1="1198.9551" y2="1198.9551"/><text fill="#000000" font-family="sans-serif" font-size="13" lengthAdjust="spacing" textLength="244.8481" x="87.6387" y="1194.2129">GET /api/vesseltypes/filter?query=pan</text></g><g class="message" data-participant-1="Controller" data-participant-2="Service"><polygon fill="#181818" points="841.5029,1224.2656,851.5029,1228.2656,841.5029,1232.2656,845.5029,1228.2656" style="stroke:#181818;stroke-width:1;"/><line style="stroke:#181818;stroke-width:1;" x1="349.4868" x2="847.5029" y1="1228.2656" y2="1228.2656"/><text fill="#000000" font-family="sans-serif" font-size="13" lengthAdjust="spacing" textLength="480.0161" x="356.4868" y="1223.5234">FilterAsync(name, description, query)  &#171;calls IVesselTypeService.FilterAsync&#187;</text></g><g class="message" data-participant-1="Service" data-participant-2="Repo"><polygon fill="#181818" points="1398.3394,1253.5762,1408.3394,1257.5762,1398.3394,1261.5762,1402.3394,1257.5762" style="stroke:#181818;stroke-width:1;"/><line style="stroke:#181818;stroke-width:1;" x1="853.5029" x2="1404.3394" y1="1257.5762" y2="1257.5762"/><text fill="#000000" font-family="sans-serif" font-size="13" lengthAdjust="spacing" textLength="470.9453" x="860.5029" y="1252.834">FilterAsync(name, description, query)  &#171;IVesselTypeRepository.FilterAsync&#187;</text></g><g class="message" data-participant-1="Repo" data-participant-2="Service"><polygon fill="#181818" points="864.5029,1282.8867,854.5029,1286.8867,864.5029,1290.8867,860.5029,1286.8867" style="stroke:#181818;stroke-width:1;"/><line style="stroke:#181818;stroke-width:1;stroke-dasharray:2,2;" x1="858.5029" x2="1409.3394" y1="1286.8867" y2="1286.8867"/><text fill="#000000" font-family="sans-serif" font-size="13" lengthAdjust="spacing" textLength="113.2803" x="870.5029" y="1282.1445">List&lt;VesselType&gt;</text></g><g class="message" data-participant-1="Service" data-participant-2="Mappers"><polygon fill="#181818" points="1080.0195,1312.1973,1090.0195,1316.1973,1080.0195,1320.1973,1084.0195,1316.1973" style="stroke:#181818;stroke-width:1;"/><line style="stroke:#181818;stroke-width:1;" x1="853.5029" x2="1086.0195" y1="1316.1973" y2="1316.1973"/><text fill="#000000" font-family="sans-serif" font-size="13" lengthAdjust="spacing" textLength="161.3193" x="860.5029" y="1311.4551">CreateDtoVesselType(list)</text></g><g class="message" data-participant-1="Mappers" data-participant-2="Service"><polygon fill="#181818" points="864.5029,1341.5078,854.5029,1345.5078,864.5029,1349.5078,860.5029,1345.5078" style="stroke:#181818;stroke-width:1;"/><line style="stroke:#181818;stroke-width:1;stroke-dasharray:2,2;" x1="858.5029" x2="1091.0195" y1="1345.5078" y2="1345.5078"/><text fill="#000000" font-family="sans-serif" font-size="13" lengthAdjust="spacing" textLength="135.8652" x="870.5029" y="1340.7656">List&lt;VesselTypeDto&gt;</text></g><g class="message" data-participant-1="Service" data-participant-2="Log"><polygon fill="#181818" points="1669.6602,1370.8184,1679.6602,1374.8184,1669.6602,1378.8184,1673.6602,1374.8184" style="stroke:#181818;stroke-width:1;"/><line style="stroke:#181818;stroke-width:1;" x1="853.5029" x2="1675.6602" y1="1374.8184" y2="1374.8184"/><text fill="#000000" font-family="sans-serif" font-size="13" lengthAdjust="spacing" textLength="249.0439" x="860.5029" y="1370.0762">Log(SEARCH, officerId, query, SUCCESS)</text></g><g class="message" data-participant-1="Service" data-participant-2="Controller"><polygon fill="#181818" points="360.4868,1400.1289,350.4868,1404.1289,360.4868,1408.1289,356.4868,1404.1289" style="stroke:#181818;stroke-width:1;"/><line style="stroke:#181818;stroke-width:1;stroke-dasharray:2,2;" x1="354.4868" x2="852.5029" y1="1404.1289" y2="1404.1289"/><text fill="#000000" font-family="sans-serif" font-size="13" lengthAdjust="spacing" textLength="135.8652" x="366.4868" y="1399.3867">List&lt;VesselTypeDto&gt;</text></g><g class="message" data-participant-1="Controller" data-participant-2="Officer"><polygon fill="#181818" points="91.6387,1429.4395,81.6387,1433.4395,91.6387,1437.4395,87.6387,1433.4395" style="stroke:#181818;stroke-width:1;"/><line style="stroke:#181818;stroke-width:1;stroke-dasharray:2,2;" x1="85.6387" x2="348.4868" y1="1433.4395" y2="1433.4395"/><text fill="#000000" font-family="sans-serif" font-size="13" lengthAdjust="spacing" textLength="189.687" x="97.6387" y="1428.6973">200 OK (List&lt;VesselTypeDto))</text></g><!--SRC=[nLRVRzCw67tFN_5f3v18MmjxhBgWhYlStZlOjBH3I7iniLiiKZlNTYeYnF_EPpjfaYqTWoBeGridtpdV3v_Zv3cS_V8dU0u9-xzW8cLmmSbQaGsSm38v7PmENa8uLOmO1aHGU4i4MJEuPLgp31PbpdI4w4bXFaarWd-bmhlBZoIZ4cuaLNnTC8q1KoaC-s96S2sLgLWsJ1XCq-A2jv8M6SFuPKun9Hq15sbMKAOHa-TCQLV57CdKYgIE-e2s0v8QgU385ULxuAQ4gzMAfqmT0T7r_-2ZB0GbgeIZoVKSBad9r9q8RLjAPXbJqPqOZmkDXSvzGxQVXAajekFOKJN1GUh_8bcUPpmbXakn8ts0H-wGR_BCJQmlGUJugqL3xaVMOQocw07LeW6yTlCeEuZgcaTKYm3hi8Cwkc6vrDnZncDURqiS8qMhp2RCqzZrZcCfkBbQlPVgSmz7SzCZb_8zbeipJEt8D0wmeDmCB-LQst3yNJC5GpiBdicr1-7Lu32Xe81lPfF536vdIJAxXCM7wzbXZ6TdKDdAwh1I6Pp4BPK0kkKgMS2Gv7ouTSCqrd1tubpISkJnNAoRELyO6RJmo5Pf0gacb4vqATAG6Xa1ZCSfoR8-CGtgo3WEQZWosJr3cZVCd9Vlo8Rjo0Ps5GNk_aadfIYo348XWHPUvGnMraPHq2Pkucz9ngtjGI0ZF0FKfJQAe2Hq6r294Ae9i7EYUTgquHeCwg1kHKqKX5v_tLgg9dUpgcDwcfjv-Le3SOr7LOS7PMhBaviDDvuf2korBiL24Q69KpBsQcFlyzI7NjqgRd2hqRgwEcfVhrOMRLRq0zx7xz2h-XYarz-S7iDs1xEhP3cTekIZ1dvVellLXv6rhaTm-k9brGE5i8F17JZKdClhYzzjJly0UjoSouVU77xbz5jjKC_nD7lwMAyLZeF_eKjR03JgFgVEQKtPA-AE7xwWZl4uWJvZz9YqS0NOOxSG75yUd6kFmPtqVCk0SdnSQNjAHptL9MJBGaz1wuostzwdni163tt7sEn-DrQ4Vy6BLUP3pEXL_6VC-0Ak_llzFancavlfFsqV9WSRCM54fPyUDUARMOyHLpp3DubNA4nLdkL4x7NUQnVebU4bZA-RgUAvrS8nE8B7hTXYwBVYarFqgx_BtwF-ItJkk876Fw7R3A7xH7kF5e7n7kdwZUz8rpNr5CtsPVcXSX-28jJlTm00]--></g></svg>