<svg xmlns="http://www.w3.org/2000/svg" xmlns:xlink="http://www.w3.org/1999/xlink" contentStyleType="text/css" data-diagram-type="SEQUENCE" height="1764px" preserveAspectRatio="none" style="width:2060px;height:1764px;background:#FFFFFF;" version="1.1" viewBox="0 0 2060 1764" width="2060px" zoomAndPan="magnify"><defs/><g><rect fill="none" height="206.1738" style="stroke:#000000;stroke-width:1.5;" width="1507.853" x="535.2871" y="464.2148"/><rect fill="none" height="206.1738" style="stroke:#000000;stroke-width:1.5;" width="1507.853" x="535.2871" y="684.3887"/><g><title>Port Authority Officer</title><rect fill="#000000" fill-opacity="0.00000" height="1602.1484" width="8" x="76.6387" y="81.4883"/><line style="stroke:#181818;stroke-width:0.5;stroke-dasharray:5,5;" x1="80" x2="80" y1="81.4883" y2="1683.6367"/></g><g><title>VesselVisitNotificationController</title><rect fill="#000000" fill-opacity="0.00000" height="1602.1484" width="8" x="275.1514" y="81.4883"/><line style="stroke:#181818;stroke-width:0.5;stroke-dasharray:5,5;" x1="278.2773" x2="278.2773" y1="81.4883" y2="1683.6367"/></g><g><title>VesselVisitNotificationService</title><rect fill="#000000" fill-opacity="0.00000" height="1602.1484" width="8" x="643.7466" y="81.4883"/><line style="stroke:#181818;stroke-width:0.5;stroke-dasharray:5,5;" x1="647.2871" x2="647.2871" y1="81.4883" y2="1683.6367"/></g><g><title>VesselVisitNotificationRepository</title><rect fill="#000000" fill-opacity="0.00000" height="1602.1484" width="8" x="974.4692" y="81.4883"/><line style="stroke:#181818;stroke-width:0.5;stroke-dasharray:5,5;" x1="977.6128" x2="977.6128" y1="81.4883" y2="1683.6367"/></g><g><title>DockRepository</title><rect fill="#000000" fill-opacity="0.00000" height="1602.1484" width="8" x="1155.6084" y="81.4883"/><line style="stroke:#181818;stroke-width:0.5;stroke-dasharray:5,5;" x1="1159.3257" x2="1159.3257" y1="81.4883" y2="1683.6367"/></g><g><title>TaskRepository</title><rect fill="#000000" fill-opacity="0.00000" height="1602.1484" width="8" x="1276.9058" y="81.4883"/><line style="stroke:#181818;stroke-width:0.5;stroke-dasharray:5,5;" x1="1280.8911" x2="1280.8911" y1="81.4883" y2="1683.6367"/></g><g><title>UnitOfWork</title><rect fill="#000000" fill-opacity="0.00000" height="1602.1484" width="8" x="1384.0117" y="81.4883"/><line style="stroke:#181818;stroke-width:0.5;stroke-dasharray:5,5;" x1="1387.9204" x2="1387.9204" y1="81.4883" y2="1683.6367"/></g><g><title>VesselVisitNotification</title><rect fill="#000000" fill-opacity="0.00000" height="1602.1484" width="8" x="1514.8965" y="81.4883"/><line style="stroke:#181818;stroke-width:0.5;stroke-dasharray:5,5;" x1="1518.103" x2="1518.103" y1="81.4883" y2="1683.6367"/></g><g><title>VesselVisitNotificationDto</title><rect fill="#000000" fill-opacity="0.00000" height="1602.1484" width="8" x="1694.6445" y="81.4883"/><line style="stroke:#181818;stroke-width:0.5;stroke-dasharray:5,5;" x1="1697.6899" x2="1697.6899" y1="81.4883" y2="1683.6367"/></g><g><title>Vessel Visit Notification Database</title><rect fill="#000000" fill-opacity="0.00000" height="1602.1484" width="8" x="1912.3696" y="81.4883"/><line style="stroke:#181818;stroke-width:0.5;stroke-dasharray:5,5;" x1="1915.5991" x2="1915.5991" y1="81.4883" y2="1683.6367"/></g><g class="participant participant-head" data-participant="Officer"><text fill="#000000" font-family="sans-serif" font-size="14" lengthAdjust="spacing" textLength="145.2773" x="5" y="78.5352">Port Authority Officer</text><ellipse cx="80.6387" cy="13.5" fill="#E2E2F0" rx="8" ry="8" style="stroke:#181818;stroke-width:0.5;"/><path d="M80.6387,21.5 L80.6387,48.5 M67.6387,29.5 L93.6387,29.5 M80.6387,48.5 L67.6387,63.5 M80.6387,48.5 L93.6387,63.5" fill="none" style="stroke:#181818;stroke-width:0.5;"/></g><g class="participant participant-tail" data-participant="Officer"><text fill="#000000" font-family="sans-serif" font-size="14" lengthAdjust="spacing" textLength="145.2773" x="5" y="1696.1719">Port Authority Officer</text><ellipse cx="80.6387" cy="1707.625" fill="#E2E2F0" rx="8" ry="8" style="stroke:#181818;stroke-width:0.5;"/><path d="M80.6387,1715.625 L80.6387,1742.625 M67.6387,1723.625 L93.6387,1723.625 M80.6387,1742.625 L67.6387,1757.625 M80.6387,1742.625 L93.6387,1757.625" fill="none" style="stroke:#181818;stroke-width:0.5;"/></g><g class="participant participant-head" data-participant="Controller"><text fill="#000000" font-family="sans-serif" font-size="14" lengthAdjust="spacing" textLength="219.748" x="166.2773" y="78.5352">VesselVisitNotificationController</text><path d="M258.6514,37 L258.6514,61 M258.6514,49 L275.6514,49" fill="none" style="stroke:#181818;stroke-width:0.5;"/><ellipse cx="287.6514" cy="49" fill="#E2E2F0" rx="12" ry="12" style="stroke:#181818;stroke-width:0.5;"/></g><g class="participant participant-tail" data-participant="Controller"><text fill="#000000" font-family="sans-serif" font-size="14" lengthAdjust="spacing" textLength="219.748" x="166.2773" y="1696.1719">VesselVisitNotificationController</text><path d="M258.6514,1703.125 L258.6514,1727.125 M258.6514,1715.125 L275.6514,1715.125" fill="none" style="stroke:#181818;stroke-width:0.5;"/><ellipse cx="287.6514" cy="1715.125" fill="#E2E2F0" rx="12" ry="12" style="stroke:#181818;stroke-width:0.5;"/></g><g class="participant participant-head" data-participant="Service"><text fill="#000000" font-family="sans-serif" font-size="14" lengthAdjust="spacing" textLength="198.9189" x="545.2871" y="78.5352">VesselVisitNotificationService</text><ellipse cx="647.7466" cy="49" fill="#E2E2F0" rx="12" ry="12" style="stroke:#181818;stroke-width:0.5;"/><line style="stroke:#181818;stroke-width:0.5;" x1="635.7466" x2="659.7466" y1="63" y2="63"/></g><g class="participant participant-tail" data-participant="Service"><text fill="#000000" font-family="sans-serif" font-size="14" lengthAdjust="spacing" textLength="198.9189" x="545.2871" y="1696.1719">VesselVisitNotificationService</text><ellipse cx="647.7466" cy="1715.125" fill="#E2E2F0" rx="12" ry="12" style="stroke:#181818;stroke-width:0.5;"/><line style="stroke:#181818;stroke-width:0.5;" x1="635.7466" x2="659.7466" y1="1729.125" y2="1729.125"/></g><g class="participant participant-head" data-participant="VVNRepo"><text fill="#000000" font-family="sans-serif" font-size="14" lengthAdjust="spacing" textLength="223.7129" x="863.6128" y="78.5352">VesselVisitNotificationRepository</text><ellipse cx="978.4692" cy="49" fill="#E2E2F0" rx="12" ry="12" style="stroke:#181818;stroke-width:0.5;"/><line style="stroke:#181818;stroke-width:0.5;" x1="966.4692" x2="990.4692" y1="63" y2="63"/></g><g class="participant participant-tail" data-participant="VVNRepo"><text fill="#000000" font-family="sans-serif" font-size="14" lengthAdjust="spacing" textLength="223.7129" x="863.6128" y="1696.1719">VesselVisitNotificationRepository</text><ellipse cx="978.4692" cy="1715.125" fill="#E2E2F0" rx="12" ry="12" style="stroke:#181818;stroke-width:0.5;"/><line style="stroke:#181818;stroke-width:0.5;" x1="966.4692" x2="990.4692" y1="1729.125" y2="1729.125"/></g><g class="participant participant-head" data-participant="DockRepo"><text fill="#000000" font-family="sans-serif" font-size="14" lengthAdjust="spacing" textLength="106.5654" x="1103.3257" y="78.5352">DockRepository</text><ellipse cx="1159.6084" cy="49" fill="#E2E2F0" rx="12" ry="12" style="stroke:#181818;stroke-width:0.5;"/><line style="stroke:#181818;stroke-width:0.5;" x1="1147.6084" x2="1171.6084" y1="63" y2="63"/></g><g class="participant participant-tail" data-participant="DockRepo"><text fill="#000000" font-family="sans-serif" font-size="14" lengthAdjust="spacing" textLength="106.5654" x="1103.3257" y="1696.1719">DockRepository</text><ellipse cx="1159.6084" cy="1715.125" fill="#E2E2F0" rx="12" ry="12" style="stroke:#181818;stroke-width:0.5;"/><line style="stroke:#181818;stroke-width:0.5;" x1="1147.6084" x2="1171.6084" y1="1729.125" y2="1729.125"/></g><g class="participant participant-head" data-participant="TaskRepo"><text fill="#000000" font-family="sans-serif" font-size="14" lengthAdjust="spacing" textLength="104.0293" x="1225.8911" y="78.5352">TaskRepository</text><ellipse cx="1280.9058" cy="49" fill="#E2E2F0" rx="12" ry="12" style="stroke:#181818;stroke-width:0.5;"/><line style="stroke:#181818;stroke-width:0.5;" x1="1268.9058" x2="1292.9058" y1="63" y2="63"/></g><g class="participant participant-tail" data-participant="TaskRepo"><text fill="#000000" font-family="sans-serif" font-size="14" lengthAdjust="spacing" textLength="104.0293" x="1225.8911" y="1696.1719">TaskRepository</text><ellipse cx="1280.9058" cy="1715.125" fill="#E2E2F0" rx="12" ry="12" style="stroke:#181818;stroke-width:0.5;"/><line style="stroke:#181818;stroke-width:0.5;" x1="1268.9058" x2="1292.9058" y1="1729.125" y2="1729.125"/></g><g class="participant participant-head" data-participant="UoW"><text fill="#000000" font-family="sans-serif" font-size="14" lengthAdjust="spacing" textLength="78.1826" x="1345.9204" y="78.5352">UnitOfWork</text><ellipse cx="1388.0117" cy="49" fill="#E2E2F0" rx="12" ry="12" style="stroke:#181818;stroke-width:0.5;"/><line style="stroke:#181818;stroke-width:0.5;" x1="1376.0117" x2="1400.0117" y1="63" y2="63"/></g><g class="participant participant-tail" data-participant="UoW"><text fill="#000000" font-family="sans-serif" font-size="14" lengthAdjust="spacing" textLength="78.1826" x="1345.9204" y="1696.1719">UnitOfWork</text><ellipse cx="1388.0117" cy="1715.125" fill="#E2E2F0" rx="12" ry="12" style="stroke:#181818;stroke-width:0.5;"/><line style="stroke:#181818;stroke-width:0.5;" x1="1376.0117" x2="1400.0117" y1="1729.125" y2="1729.125"/></g><g class="participant participant-head" data-participant="VVN"><text fill="#000000" font-family="sans-serif" font-size="14" lengthAdjust="spacing" textLength="151.5869" x="1440.103" y="78.5352">VesselVisitNotification</text><ellipse cx="1518.8965" cy="49" fill="#E2E2F0" rx="12" ry="12" style="stroke:#181818;stroke-width:0.5;"/><line style="stroke:#181818;stroke-width:0.5;" x1="1506.8965" x2="1530.8965" y1="63" y2="63"/></g><g class="participant participant-tail" data-participant="VVN"><text fill="#000000" font-family="sans-serif" font-size="14" lengthAdjust="spacing" textLength="151.5869" x="1440.103" y="1696.1719">VesselVisitNotification</text><ellipse cx="1518.8965" cy="1715.125" fill="#E2E2F0" rx="12" ry="12" style="stroke:#181818;stroke-width:0.5;"/><line style="stroke:#181818;stroke-width:0.5;" x1="1506.8965" x2="1530.8965" y1="1729.125" y2="1729.125"/></g><g class="participant participant-head" data-participant="VVNDtO"><text fill="#000000" font-family="sans-serif" font-size="14" lengthAdjust="spacing" textLength="175.9092" x="1607.6899" y="78.5352">VesselVisitNotificationDto</text><ellipse cx="1698.6445" cy="49" fill="#E2E2F0" rx="12" ry="12" style="stroke:#181818;stroke-width:0.5;"/><line style="stroke:#181818;stroke-width:0.5;" x1="1686.6445" x2="1710.6445" y1="63" y2="63"/></g><g class="participant participant-tail" data-participant="VVNDtO"><text fill="#000000" font-family="sans-serif" font-size="14" lengthAdjust="spacing" textLength="175.9092" x="1607.6899" y="1696.1719">VesselVisitNotificationDto</text><ellipse cx="1698.6445" cy="1715.125" fill="#E2E2F0" rx="12" ry="12" style="stroke:#181818;stroke-width:0.5;"/><line style="stroke:#181818;stroke-width:0.5;" x1="1686.6445" x2="1710.6445" y1="1729.125" y2="1729.125"/></g><g class="participant participant-head" data-participant="Database"><text fill="#000000" font-family="sans-serif" font-size="14" lengthAdjust="spacing" textLength="227.541" x="1799.5991" y="78.5352">Vessel Visit Notification Database</text><path d="M1898.3696,29 C1898.3696,19 1916.3696,19 1916.3696,19 C1916.3696,19 1934.3696,19 1934.3696,29 L1934.3696,55 C1934.3696,65 1916.3696,65 1916.3696,65 C1916.3696,65 1898.3696,65 1898.3696,55 L1898.3696,29" fill="#E2E2F0" style="stroke:#181818;stroke-width:0.5;"/><path d="M1898.3696,29 C1898.3696,39 1916.3696,39 1916.3696,39 C1916.3696,39 1934.3696,39 1934.3696,29" fill="none" style="stroke:#181818;stroke-width:0.5;"/></g><g class="participant participant-tail" data-participant="Database"><text fill="#000000" font-family="sans-serif" font-size="14" lengthAdjust="spacing" textLength="227.541" x="1799.5991" y="1696.1719">Vessel Visit Notification Database</text><path d="M1898.3696,1709.125 C1898.3696,1699.125 1916.3696,1699.125 1916.3696,1699.125 C1916.3696,1699.125 1934.3696,1699.125 1934.3696,1709.125 L1934.3696,1735.125 C1934.3696,1745.125 1916.3696,1745.125 1916.3696,1745.125 C1916.3696,1745.125 1898.3696,1745.125 1898.3696,1735.125 L1898.3696,1709.125" fill="#E2E2F0" style="stroke:#181818;stroke-width:0.5;"/><path d="M1898.3696,1709.125 C1898.3696,1719.125 1916.3696,1719.125 1916.3696,1719.125 C1916.3696,1719.125 1934.3696,1719.125 1934.3696,1709.125" fill="none" style="stroke:#181818;stroke-width:0.5;"/></g><rect fill="#EEEEEE" height="3" style="stroke:#EEEEEE;stroke-width:1;" width="2053.1401" x="0" y="112.1436"/><line style="stroke:#000000;stroke-width:1;" x1="0" x2="2053.1401" y1="112.1436" y2="112.1436"/><line style="stroke:#000000;stroke-width:1;" x1="0" x2="2053.1401" y1="115.1436" y2="115.1436"/><rect fill="#EEEEEE" height="23.3105" style="stroke:#000000;stroke-width:2;" width="63.1943" x="994.9729" y="101.4883"/><text fill="#000000" font-family="sans-serif" font-size="13" font-weight="bold" lengthAdjust="spacing" textLength="44.9097" x="1000.9729" y="118.0566">Accept</text><g class="message" data-participant-1="Officer" data-participant-2="Controller"><polygon fill="#181818" points="267.1514,152.1094,277.1514,156.1094,267.1514,160.1094,271.1514,156.1094" style="stroke:#181818;stroke-width:1;"/><line style="stroke:#181818;stroke-width:1;" x1="80.6387" x2="273.1514" y1="156.1094" y2="156.1094"/><text fill="#000000" font-family="sans-serif" font-size="13" lengthAdjust="spacing" textLength="122.0972" x="87.6387" y="151.3672">PUT /accept/id/{id}</text></g><g class="message" data-participant-1="Controller" data-participant-2="Service"><polygon fill="#181818" points="635.7466,181.4199,645.7466,185.4199,635.7466,189.4199,639.7466,185.4199" style="stroke:#181818;stroke-width:1;"/><line style="stroke:#181818;stroke-width:1;" x1="279.1514" x2="641.7466" y1="185.4199" y2="185.4199"/><text fill="#000000" font-family="sans-serif" font-size="13" lengthAdjust="spacing" textLength="167.1401" x="286.1514" y="180.6777">AcceptVvnAsync(VvnCode)</text></g><g class="message" data-participant-1="Service" data-participant-2="VVNRepo"><polygon fill="#181818" points="966.4692,210.7305,976.4692,214.7305,966.4692,218.7305,970.4692,214.7305" style="stroke:#181818;stroke-width:1;"/><line style="stroke:#181818;stroke-width:1;" x1="647.7466" x2="972.4692" y1="214.7305" y2="214.7305"/><text fill="#000000" font-family="sans-serif" font-size="13" lengthAdjust="spacing" textLength="165.6104" x="654.7466" y="209.9883">GetCompleteByIdAsync(id)</text></g><g class="message" data-participant-1="VVNRepo" data-participant-2="Database"><polygon fill="#181818" points="1904.3696,240.041,1914.3696,244.041,1904.3696,248.041,1908.3696,244.041" style="stroke:#181818;stroke-width:1;"/><line style="stroke:#181818;stroke-width:1;" x1="978.4692" x2="1910.3696" y1="244.041" y2="244.041"/><text fill="#000000" font-family="sans-serif" font-size="13" lengthAdjust="spacing" textLength="104.9204" x="985.4692" y="239.2988">Query VVN by ID</text></g><g class="message" data-participant-1="Database" data-participant-2="VVNRepo"><polygon fill="#181818" points="989.4692,269.3516,979.4692,273.3516,989.4692,277.3516,985.4692,273.3516" style="stroke:#181818;stroke-width:1;"/><line style="stroke:#181818;stroke-width:1;stroke-dasharray:2,2;" x1="983.4692" x2="1915.3696" y1="273.3516" y2="273.3516"/><text fill="#000000" font-family="sans-serif" font-size="13" lengthAdjust="spacing" textLength="26.603" x="995.4692" y="268.6094">VVN</text></g><g class="message" data-participant-1="VVNRepo" data-participant-2="Service"><polygon fill="#181818" points="658.7466,298.6621,648.7466,302.6621,658.7466,306.6621,654.7466,302.6621" style="stroke:#181818;stroke-width:1;"/><line style="stroke:#181818;stroke-width:1;stroke-dasharray:2,2;" x1="652.7466" x2="977.4692" y1="302.6621" y2="302.6621"/><text fill="#000000" font-family="sans-serif" font-size="13" lengthAdjust="spacing" textLength="26.603" x="664.7466" y="297.9199">VVN</text></g><g class="message" data-participant-1="Service" data-participant-2="DockRepo"><polygon fill="#181818" points="1147.6084,327.9727,1157.6084,331.9727,1147.6084,335.9727,1151.6084,331.9727" style="stroke:#181818;stroke-width:1;"/><line style="stroke:#181818;stroke-width:1;" x1="647.7466" x2="1153.6084" y1="331.9727" y2="331.9727"/><text fill="#000000" font-family="sans-serif" font-size="13" lengthAdjust="spacing" textLength="265.8843" x="654.7466" y="327.2305">BasicDockAttributionAlgorithm(vesselImo)</text></g><g class="message" data-participant-1="DockRepo" data-participant-2="Database"><polygon fill="#181818" points="1904.3696,357.2832,1914.3696,361.2832,1904.3696,365.2832,1908.3696,361.2832" style="stroke:#181818;stroke-width:1;"/><line style="stroke:#181818;stroke-width:1;" x1="1159.6084" x2="1910.3696" y1="361.2832" y2="361.2832"/><text fill="#000000" font-family="sans-serif" font-size="13" lengthAdjust="spacing" textLength="171.8882" x="1166.6084" y="356.541">Query docks for availability</text></g><g class="message" data-participant-1="Database" data-participant-2="DockRepo"><polygon fill="#181818" points="1170.6084,386.5938,1160.6084,390.5938,1170.6084,394.5938,1166.6084,390.5938" style="stroke:#181818;stroke-width:1;"/><line style="stroke:#181818;stroke-width:1;stroke-dasharray:2,2;" x1="1164.6084" x2="1915.3696" y1="390.5938" y2="390.5938"/><text fill="#000000" font-family="sans-serif" font-size="13" lengthAdjust="spacing" textLength="31.9795" x="1176.6084" y="385.8516">Dock</text></g><g class="message" data-participant-1="DockRepo" data-participant-2="Service"><polygon fill="#181818" points="658.7466,415.9043,648.7466,419.9043,658.7466,423.9043,654.7466,419.9043" style="stroke:#181818;stroke-width:1;"/><line style="stroke:#181818;stroke-width:1;stroke-dasharray:2,2;" x1="652.7466" x2="1158.6084" y1="419.9043" y2="419.9043"/><text fill="#000000" font-family="sans-serif" font-size="13" lengthAdjust="spacing" textLength="31.9795" x="664.7466" y="415.1621">Dock</text></g><g class="message" data-participant-1="Service" data-participant-2="VVN"><polygon fill="#181818" points="1506.8965,445.2148,1516.8965,449.2148,1506.8965,453.2148,1510.8965,449.2148" style="stroke:#181818;stroke-width:1;"/><line style="stroke:#181818;stroke-width:1;" x1="647.7466" x2="1512.8965" y1="449.2148" y2="449.2148"/><text fill="#000000" font-family="sans-serif" font-size="13" lengthAdjust="spacing" textLength="181.5874" x="654.7466" y="444.4727">Accept() / UpdateDock(dock)</text></g><path d="M535.2871,464.2148 L597.4258,464.2148 L597.4258,471.5254 L587.4258,481.5254 L535.2871,481.5254 L535.2871,464.2148" fill="#EEEEEE" style="stroke:#000000;stroke-width:1.5;"/><rect fill="none" height="206.1738" style="stroke:#000000;stroke-width:1.5;" width="1507.853" x="535.2871" y="464.2148"/><text fill="#000000" font-family="sans-serif" font-size="13" font-weight="bold" lengthAdjust="spacing" textLength="17.1387" x="550.2871" y="477.7832">alt</text><text fill="#000000" font-family="sans-serif" font-size="11" font-weight="bold" lengthAdjust="spacing" textLength="197.291" x="612.4258" y="476.8496">[If UnloadingCargoManifest exists]</text><g class="message" data-participant-1="Service" data-participant-2="Service"><line style="stroke:#181818;stroke-width:1;" x1="647.7466" x2="689.7466" y1="502.8359" y2="502.8359"/><line style="stroke:#181818;stroke-width:1;" x1="689.7466" x2="689.7466" y1="502.8359" y2="515.8359"/><line style="stroke:#181818;stroke-width:1;" x1="648.7466" x2="689.7466" y1="515.8359" y2="515.8359"/><polygon fill="#181818" points="658.7466,511.8359,648.7466,515.8359,658.7466,519.8359,654.7466,515.8359" style="stroke:#181818;stroke-width:1;"/><text fill="#000000" font-family="sans-serif" font-size="13" lengthAdjust="spacing" textLength="316.7227" x="654.7466" y="498.0938">CreateTasksAsync(UnloadingCargoManifest, dock)</text></g><g class="message" data-participant-1="Service" data-participant-2="TaskRepo"><polygon fill="#181818" points="1268.9058,541.1465,1278.9058,545.1465,1268.9058,549.1465,1272.9058,545.1465" style="stroke:#181818;stroke-width:1;"/><line style="stroke:#181818;stroke-width:1;" x1="647.7466" x2="1274.9058" y1="545.1465" y2="545.1465"/><text fill="#000000" font-family="sans-serif" font-size="13" lengthAdjust="spacing" textLength="180.2607" x="654.7466" y="540.4043">Add + save Unloading Tasks</text></g><g class="message" data-participant-1="TaskRepo" data-participant-2="Database"><polygon fill="#181818" points="1904.3696,570.457,1914.3696,574.457,1904.3696,578.457,1908.3696,574.457" style="stroke:#181818;stroke-width:1;"/><line style="stroke:#181818;stroke-width:1;" x1="1280.9058" x2="1910.3696" y1="574.457" y2="574.457"/><text fill="#000000" font-family="sans-serif" font-size="13" lengthAdjust="spacing" textLength="144.4536" x="1287.9058" y="569.7148">Insert Unloading Tasks</text></g><g class="message" data-participant-1="Database" data-participant-2="TaskRepo"><polygon fill="#181818" points="1291.9058,599.7676,1281.9058,603.7676,1291.9058,607.7676,1287.9058,603.7676" style="stroke:#181818;stroke-width:1;"/><line style="stroke:#181818;stroke-width:1;stroke-dasharray:2,2;" x1="1285.9058" x2="1915.3696" y1="603.7676" y2="603.7676"/><text fill="#000000" font-family="sans-serif" font-size="13" lengthAdjust="spacing" textLength="48.8833" x="1297.9058" y="599.0254">Success</text></g><g class="message" data-participant-1="TaskRepo" data-participant-2="Service"><polygon fill="#181818" points="658.7466,629.0781,648.7466,633.0781,658.7466,637.0781,654.7466,633.0781" style="stroke:#181818;stroke-width:1;"/><line style="stroke:#181818;stroke-width:1;stroke-dasharray:2,2;" x1="652.7466" x2="1279.9058" y1="633.0781" y2="633.0781"/><text fill="#000000" font-family="sans-serif" font-size="13" lengthAdjust="spacing" textLength="82.894" x="664.7466" y="628.3359">Confirmation</text></g><g class="message" data-participant-1="Service" data-participant-2="VVN"><polygon fill="#181818" points="1506.8965,658.3887,1516.8965,662.3887,1506.8965,666.3887,1510.8965,662.3887" style="stroke:#181818;stroke-width:1;"/><line style="stroke:#181818;stroke-width:1;" x1="647.7466" x2="1512.8965" y1="662.3887" y2="662.3887"/><text fill="#000000" font-family="sans-serif" font-size="13" lengthAdjust="spacing" textLength="163.2363" x="654.7466" y="657.6465">SetTasks(unloadingTasks)</text></g><path d="M535.2871,684.3887 L597.4258,684.3887 L597.4258,691.6992 L587.4258,701.6992 L535.2871,701.6992 L535.2871,684.3887" fill="#EEEEEE" style="stroke:#000000;stroke-width:1.5;"/><rect fill="none" height="206.1738" style="stroke:#000000;stroke-width:1.5;" width="1507.853" x="535.2871" y="684.3887"/><text fill="#000000" font-family="sans-serif" font-size="13" font-weight="bold" lengthAdjust="spacing" textLength="17.1387" x="550.2871" y="697.957">alt</text><text fill="#000000" font-family="sans-serif" font-size="11" font-weight="bold" lengthAdjust="spacing" textLength="184.7871" x="612.4258" y="697.0234">[If LoadingCargoManifest exists]</text><g class="message" data-participant-1="Service" data-participant-2="Service"><line style="stroke:#181818;stroke-width:1;" x1="647.7466" x2="689.7466" y1="723.0098" y2="723.0098"/><line style="stroke:#181818;stroke-width:1;" x1="689.7466" x2="689.7466" y1="723.0098" y2="736.0098"/><line style="stroke:#181818;stroke-width:1;" x1="648.7466" x2="689.7466" y1="736.0098" y2="736.0098"/><polygon fill="#181818" points="658.7466,732.0098,648.7466,736.0098,658.7466,740.0098,654.7466,736.0098" style="stroke:#181818;stroke-width:1;"/><text fill="#000000" font-family="sans-serif" font-size="13" lengthAdjust="spacing" textLength="302.8213" x="654.7466" y="718.2676">CreateTasksAsync(LoadingCargoManifest, dock)</text></g><g class="message" data-participant-1="Service" data-participant-2="TaskRepo"><polygon fill="#181818" points="1268.9058,761.3203,1278.9058,765.3203,1268.9058,769.3203,1272.9058,765.3203" style="stroke:#181818;stroke-width:1;"/><line style="stroke:#181818;stroke-width:1;" x1="647.7466" x2="1274.9058" y1="765.3203" y2="765.3203"/><text fill="#000000" font-family="sans-serif" font-size="13" lengthAdjust="spacing" textLength="166.3594" x="654.7466" y="760.5781">Add + save Loading Tasks</text></g><g class="message" data-participant-1="TaskRepo" data-participant-2="Database"><polygon fill="#181818" points="1904.3696,790.6309,1914.3696,794.6309,1904.3696,798.6309,1908.3696,794.6309" style="stroke:#181818;stroke-width:1;"/><line style="stroke:#181818;stroke-width:1;" x1="1280.9058" x2="1910.3696" y1="794.6309" y2="794.6309"/><text fill="#000000" font-family="sans-serif" font-size="13" lengthAdjust="spacing" textLength="130.5522" x="1287.9058" y="789.8887">Insert Loading Tasks</text></g><g class="message" data-participant-1="Database" data-participant-2="TaskRepo"><polygon fill="#181818" points="1291.9058,819.9414,1281.9058,823.9414,1291.9058,827.9414,1287.9058,823.9414" style="stroke:#181818;stroke-width:1;"/><line style="stroke:#181818;stroke-width:1;stroke-dasharray:2,2;" x1="1285.9058" x2="1915.3696" y1="823.9414" y2="823.9414"/><text fill="#000000" font-family="sans-serif" font-size="13" lengthAdjust="spacing" textLength="48.8833" x="1297.9058" y="819.1992">Success</text></g><g class="message" data-participant-1="TaskRepo" data-participant-2="Service"><polygon fill="#181818" points="658.7466,849.252,648.7466,853.252,658.7466,857.252,654.7466,853.252" style="stroke:#181818;stroke-width:1;"/><line style="stroke:#181818;stroke-width:1;stroke-dasharray:2,2;" x1="652.7466" x2="1279.9058" y1="853.252" y2="853.252"/><text fill="#000000" font-family="sans-serif" font-size="13" lengthAdjust="spacing" textLength="82.894" x="664.7466" y="848.5098">Confirmation</text></g><g class="message" data-participant-1="Service" data-participant-2="VVN"><polygon fill="#181818" points="1506.8965,878.5625,1516.8965,882.5625,1506.8965,886.5625,1510.8965,882.5625" style="stroke:#181818;stroke-width:1;"/><line style="stroke:#181818;stroke-width:1;" x1="647.7466" x2="1512.8965" y1="882.5625" y2="882.5625"/><text fill="#000000" font-family="sans-serif" font-size="13" lengthAdjust="spacing" textLength="147.1006" x="654.7466" y="877.8203">SetTasks(loadingTasks)</text></g><g class="message" data-participant-1="Service" data-participant-2="VVNRepo"><polygon fill="#181818" points="966.4692,914.873,976.4692,918.873,966.4692,922.873,970.4692,918.873" style="stroke:#181818;stroke-width:1;"/><line style="stroke:#181818;stroke-width:1;" x1="647.7466" x2="972.4692" y1="918.873" y2="918.873"/><text fill="#000000" font-family="sans-serif" font-size="13" lengthAdjust="spacing" textLength="110.2588" x="654.7466" y="914.1309">Update VVN state</text></g><g class="message" data-participant-1="VVNRepo" data-participant-2="Database"><polygon fill="#181818" points="1904.3696,944.1836,1914.3696,948.1836,1904.3696,952.1836,1908.3696,948.1836" style="stroke:#181818;stroke-width:1;"/><line style="stroke:#181818;stroke-width:1;" x1="978.4692" x2="1910.3696" y1="948.1836" y2="948.1836"/><text fill="#000000" font-family="sans-serif" font-size="13" lengthAdjust="spacing" textLength="120.1929" x="985.4692" y="943.4414">Update VVN record</text></g><g class="message" data-participant-1="Database" data-participant-2="VVNRepo"><polygon fill="#181818" points="989.4692,973.4941,979.4692,977.4941,989.4692,981.4941,985.4692,977.4941" style="stroke:#181818;stroke-width:1;"/><line style="stroke:#181818;stroke-width:1;stroke-dasharray:2,2;" x1="983.4692" x2="1915.3696" y1="977.4941" y2="977.4941"/><text fill="#000000" font-family="sans-serif" font-size="13" lengthAdjust="spacing" textLength="48.8833" x="995.4692" y="972.752">Success</text></g><g class="message" data-participant-1="VVNRepo" data-participant-2="Service"><polygon fill="#181818" points="658.7466,1002.8047,648.7466,1006.8047,658.7466,1010.8047,654.7466,1006.8047" style="stroke:#181818;stroke-width:1;"/><line style="stroke:#181818;stroke-width:1;stroke-dasharray:2,2;" x1="652.7466" x2="977.4692" y1="1006.8047" y2="1006.8047"/><text fill="#000000" font-family="sans-serif" font-size="13" lengthAdjust="spacing" textLength="82.894" x="664.7466" y="1002.0625">Confirmation</text></g><g class="message" data-participant-1="Service" data-participant-2="UoW"><polygon fill="#181818" points="1376.0117,1032.1152,1386.0117,1036.1152,1376.0117,1040.1152,1380.0117,1036.1152" style="stroke:#181818;stroke-width:1;"/><line style="stroke:#181818;stroke-width:1;" x1="647.7466" x2="1382.0117" y1="1036.1152" y2="1036.1152"/><text fill="#000000" font-family="sans-serif" font-size="13" lengthAdjust="spacing" textLength="86.9883" x="654.7466" y="1031.373">CommitAsync</text></g><g class="message" data-participant-1="UoW" data-participant-2="Service"><polygon fill="#181818" points="658.7466,1061.4258,648.7466,1065.4258,658.7466,1069.4258,654.7466,1065.4258" style="stroke:#181818;stroke-width:1;"/><line style="stroke:#181818;stroke-width:1;stroke-dasharray:2,2;" x1="652.7466" x2="1387.0117" y1="1065.4258" y2="1065.4258"/><text fill="#000000" font-family="sans-serif" font-size="13" lengthAdjust="spacing" textLength="48.8833" x="664.7466" y="1060.6836">Success</text></g><g class="message" data-participant-1="Service" data-participant-2="VVNDtO"><polygon fill="#181818" points="1686.6445,1090.7363,1696.6445,1094.7363,1686.6445,1098.7363,1690.6445,1094.7363" style="stroke:#181818;stroke-width:1;"/><line style="stroke:#181818;stroke-width:1;" x1="647.7466" x2="1692.6445" y1="1094.7363" y2="1094.7363"/><text fill="#000000" font-family="sans-serif" font-size="13" lengthAdjust="spacing" textLength="239.2432" x="654.7466" y="1089.9941">CreateVesselVisitNotificationDto(VVN)</text></g><g class="message" data-participant-1="Service" data-participant-2="Controller"><polygon fill="#181818" points="290.1514,1120.0469,280.1514,1124.0469,290.1514,1128.0469,286.1514,1124.0469" style="stroke:#181818;stroke-width:1;"/><line style="stroke:#181818;stroke-width:1;stroke-dasharray:2,2;" x1="284.1514" x2="646.7466" y1="1124.0469" y2="1124.0469"/><text fill="#000000" font-family="sans-serif" font-size="13" lengthAdjust="spacing" textLength="51.3018" x="296.1514" y="1119.3047">VVNDtO</text></g><g class="message" data-participant-1="Controller" data-participant-2="Officer"><polygon fill="#181818" points="91.6387,1149.3574,81.6387,1153.3574,91.6387,1157.3574,87.6387,1153.3574" style="stroke:#181818;stroke-width:1;"/><line style="stroke:#181818;stroke-width:1;stroke-dasharray:2,2;" x1="85.6387" x2="278.1514" y1="1153.3574" y2="1153.3574"/><text fill="#000000" font-family="sans-serif" font-size="13" lengthAdjust="spacing" textLength="106.8882" x="97.6387" y="1148.6152">200 OK, VVNDtO</text></g><rect fill="#EEEEEE" height="3" style="stroke:#EEEEEE;stroke-width:1;" width="2053.1401" x="0" y="1182.0127"/><line style="stroke:#000000;stroke-width:1;" x1="0" x2="2053.1401" y1="1182.0127" y2="1182.0127"/><line style="stroke:#000000;stroke-width:1;" x1="0" x2="2053.1401" y1="1185.0127" y2="1185.0127"/><rect fill="#EEEEEE" height="23.3105" style="stroke:#000000;stroke-width:2;" width="59.0049" x="997.0676" y="1171.3574"/><text fill="#000000" font-family="sans-serif" font-size="13" font-weight="bold" lengthAdjust="spacing" textLength="40.7202" x="1003.0676" y="1187.9258">Reject</text><g class="message" data-participant-1="Officer" data-participant-2="Controller"><polygon fill="#181818" points="267.1514,1221.9785,277.1514,1225.9785,267.1514,1229.9785,271.1514,1225.9785" style="stroke:#181818;stroke-width:1;"/><line style="stroke:#181818;stroke-width:1;" x1="80.6387" x2="273.1514" y1="1225.9785" y2="1225.9785"/><text fill="#000000" font-family="sans-serif" font-size="13" lengthAdjust="spacing" textLength="70.624" x="87.6387" y="1221.2363">PUT /reject</text></g><g class="message" data-participant-1="Controller" data-participant-2="Service"><polygon fill="#181818" points="635.7466,1251.2891,645.7466,1255.2891,635.7466,1259.2891,639.7466,1255.2891" style="stroke:#181818;stroke-width:1;"/><line style="stroke:#181818;stroke-width:1;" x1="279.1514" x2="641.7466" y1="1255.2891" y2="1255.2891"/><text fill="#000000" font-family="sans-serif" font-size="13" lengthAdjust="spacing" textLength="344.5952" x="286.1514" y="1250.5469">MarkAsPendingAsync(RejectVesselVisitNotificationDto)</text></g><g class="message" data-participant-1="Service" data-participant-2="VVNRepo"><polygon fill="#181818" points="966.4692,1280.5996,976.4692,1284.5996,966.4692,1288.5996,970.4692,1284.5996" style="stroke:#181818;stroke-width:1;"/><line style="stroke:#181818;stroke-width:1;" x1="647.7466" x2="972.4692" y1="1284.5996" y2="1284.5996"/><text fill="#000000" font-family="sans-serif" font-size="13" lengthAdjust="spacing" textLength="105.2061" x="654.7466" y="1279.8574">GetByIdAsync(id)</text></g><g class="message" data-participant-1="VVNRepo" data-participant-2="Database"><polygon fill="#181818" points="1904.3696,1309.9102,1914.3696,1313.9102,1904.3696,1317.9102,1908.3696,1313.9102" style="stroke:#181818;stroke-width:1;"/><line style="stroke:#181818;stroke-width:1;" x1="978.4692" x2="1910.3696" y1="1313.9102" y2="1313.9102"/><text fill="#000000" font-family="sans-serif" font-size="13" lengthAdjust="spacing" textLength="104.9204" x="985.4692" y="1309.168">Query VVN by ID</text></g><g class="message" data-participant-1="Database" data-participant-2="VVNRepo"><polygon fill="#181818" points="989.4692,1339.2207,979.4692,1343.2207,989.4692,1347.2207,985.4692,1343.2207" style="stroke:#181818;stroke-width:1;"/><line style="stroke:#181818;stroke-width:1;stroke-dasharray:2,2;" x1="983.4692" x2="1915.3696" y1="1343.2207" y2="1343.2207"/><text fill="#000000" font-family="sans-serif" font-size="13" lengthAdjust="spacing" textLength="26.603" x="995.4692" y="1338.4785">VVN</text></g><g class="message" data-participant-1="VVNRepo" data-participant-2="Service"><polygon fill="#181818" points="658.7466,1368.5313,648.7466,1372.5313,658.7466,1376.5313,654.7466,1372.5313" style="stroke:#181818;stroke-width:1;"/><line style="stroke:#181818;stroke-width:1;stroke-dasharray:2,2;" x1="652.7466" x2="977.4692" y1="1372.5313" y2="1372.5313"/><text fill="#000000" font-family="sans-serif" font-size="13" lengthAdjust="spacing" textLength="26.603" x="664.7466" y="1367.7891">VVN</text></g><g class="message" data-participant-1="Service" data-participant-2="VVN"><polygon fill="#181818" points="1506.8965,1397.8418,1516.8965,1401.8418,1506.8965,1405.8418,1510.8965,1401.8418" style="stroke:#181818;stroke-width:1;"/><line style="stroke:#181818;stroke-width:1;" x1="647.7466" x2="1512.8965" y1="1401.8418" y2="1401.8418"/><text fill="#000000" font-family="sans-serif" font-size="13" lengthAdjust="spacing" textLength="132.7803" x="654.7466" y="1397.0996">MarkPending(reason)</text></g><g class="message" data-participant-1="Service" data-participant-2="VVNRepo"><polygon fill="#181818" points="966.4692,1427.1523,976.4692,1431.1523,966.4692,1435.1523,970.4692,1431.1523" style="stroke:#181818;stroke-width:1;"/><line style="stroke:#181818;stroke-width:1;" x1="647.7466" x2="972.4692" y1="1431.1523" y2="1431.1523"/><text fill="#000000" font-family="sans-serif" font-size="13" lengthAdjust="spacing" textLength="110.2588" x="654.7466" y="1426.4102">Update VVN state</text></g><g class="message" data-participant-1="VVNRepo" data-participant-2="Database"><polygon fill="#181818" points="1904.3696,1456.4629,1914.3696,1460.4629,1904.3696,1464.4629,1908.3696,1460.4629" style="stroke:#181818;stroke-width:1;"/><line style="stroke:#181818;stroke-width:1;" x1="978.4692" x2="1910.3696" y1="1460.4629" y2="1460.4629"/><text fill="#000000" font-family="sans-serif" font-size="13" lengthAdjust="spacing" textLength="120.1929" x="985.4692" y="1455.7207">Update VVN record</text></g><g class="message" data-participant-1="Database" data-participant-2="VVNRepo"><polygon fill="#181818" points="989.4692,1485.7734,979.4692,1489.7734,989.4692,1493.7734,985.4692,1489.7734" style="stroke:#181818;stroke-width:1;"/><line style="stroke:#181818;stroke-width:1;stroke-dasharray:2,2;" x1="983.4692" x2="1915.3696" y1="1489.7734" y2="1489.7734"/><text fill="#000000" font-family="sans-serif" font-size="13" lengthAdjust="spacing" textLength="48.8833" x="995.4692" y="1485.0313">Success</text></g><g class="message" data-participant-1="VVNRepo" data-participant-2="Service"><polygon fill="#181818" points="658.7466,1515.084,648.7466,1519.084,658.7466,1523.084,654.7466,1519.084" style="stroke:#181818;stroke-width:1;"/><line style="stroke:#181818;stroke-width:1;stroke-dasharray:2,2;" x1="652.7466" x2="977.4692" y1="1519.084" y2="1519.084"/><text fill="#000000" font-family="sans-serif" font-size="13" lengthAdjust="spacing" textLength="82.894" x="664.7466" y="1514.3418">Confirmation</text></g><g class="message" data-participant-1="Service" data-participant-2="UoW"><polygon fill="#181818" points="1376.0117,1544.3945,1386.0117,1548.3945,1376.0117,1552.3945,1380.0117,1548.3945" style="stroke:#181818;stroke-width:1;"/><line style="stroke:#181818;stroke-width:1;" x1="647.7466" x2="1382.0117" y1="1548.3945" y2="1548.3945"/><text fill="#000000" font-family="sans-serif" font-size="13" lengthAdjust="spacing" textLength="86.9883" x="654.7466" y="1543.6523">CommitAsync</text></g><g class="message" data-participant-1="UoW" data-participant-2="Service"><polygon fill="#181818" points="658.7466,1573.7051,648.7466,1577.7051,658.7466,1581.7051,654.7466,1577.7051" style="stroke:#181818;stroke-width:1;"/><line style="stroke:#181818;stroke-width:1;stroke-dasharray:2,2;" x1="652.7466" x2="1387.0117" y1="1577.7051" y2="1577.7051"/><text fill="#000000" font-family="sans-serif" font-size="13" lengthAdjust="spacing" textLength="48.8833" x="664.7466" y="1572.9629">Success</text></g><g class="message" data-participant-1="Service" data-participant-2="VVNDtO"><polygon fill="#181818" points="1686.6445,1603.0156,1696.6445,1607.0156,1686.6445,1611.0156,1690.6445,1607.0156" style="stroke:#181818;stroke-width:1;"/><line style="stroke:#181818;stroke-width:1;" x1="647.7466" x2="1692.6445" y1="1607.0156" y2="1607.0156"/><text fill="#000000" font-family="sans-serif" font-size="13" lengthAdjust="spacing" textLength="239.2432" x="654.7466" y="1602.2734">CreateVesselVisitNotificationDto(VVN)</text></g><g class="message" data-participant-1="Service" data-participant-2="Controller"><polygon fill="#181818" points="290.1514,1632.3262,280.1514,1636.3262,290.1514,1640.3262,286.1514,1636.3262" style="stroke:#181818;stroke-width:1;"/><line style="stroke:#181818;stroke-width:1;stroke-dasharray:2,2;" x1="284.1514" x2="646.7466" y1="1636.3262" y2="1636.3262"/><text fill="#000000" font-family="sans-serif" font-size="13" lengthAdjust="spacing" textLength="51.3018" x="296.1514" y="1631.584">VVNDtO</text></g><g class="message" data-participant-1="Controller" data-participant-2="Officer"><polygon fill="#181818" points="91.6387,1661.6367,81.6387,1665.6367,91.6387,1669.6367,87.6387,1665.6367" style="stroke:#181818;stroke-width:1;"/><line style="stroke:#181818;stroke-width:1;stroke-dasharray:2,2;" x1="85.6387" x2="278.1514" y1="1665.6367" y2="1665.6367"/><text fill="#000000" font-family="sans-serif" font-size="13" lengthAdjust="spacing" textLength="106.8882" x="97.6387" y="1660.8945">200 OK, VVNDtO</text></g><!--SRC=[vLHDZzem4BtxLumu9UgkMFM8H2KMf0gLNUYoi6SJEwnB4YFRGOsg_lUEdJWaKH1RjTKUcfFZUMy-teo7HaOg6AoaCZ39pQjKmXImZ6CHSJK0glsPa9tCCqPL0OCjrvedMw65UPH6e9qQ8REfp8oIIL8Hpx-4PyQwlKHSStN268vLdQzHdlXHufLKXMDjju_sfcRDP7JeGFnLZNcckelnLpLcamcpZ5-aEZZxHhvSIyodSmqtCz93PsP963LqHpNtU704Q39WLc7ASgeVGiPZc4GHFneOZmcfsWMtdneDW16iDiymf0ut56puGx2Vf050UAKyOajtsrCsqKKM1NYOIiP3uX48hWH7y6TkfZ8z9jpm-sBEIefW8V4GHFjaH_0rvpX1Q89T0VCPyHQuRJcr0jRyLcxMqiZ3TnKjzrIBoFvFZ55YbrlD9idUJlHh6foShFDKXgJcz6J6qAOXnZT1JrGaT2SIx68xpKPCUspuQsNgR6t9Qcs348QmEMBNkOK5Dcn824qCp6FOP8caJ6JxALLx-K0p4NDjW7yNscW2-3NSdWDE5KT_TePrsOL-FpTGHkluyRDlSsGCFe2c9tvEnTdBu3MofTyyqnoNI1-XfPvdZs2TenQww_DSqiXES2nKwiQ_csyfvveR5oV8VLpt6-BpOxMUYx-Yvk9FjLpydfABTz6nHyNUPryEhsDhWwV-vzv0AHv9nNeV_Bc4dZVVoRwH36vZsoUPfiAu5X5xqtw4td6x1jouTOSlx-S0aOsbrzserUPkBb64-FqxWeztTx3ySkDnTay_yMyyUiEULWvtSJy_K7MOw1Ks1pjL3cVf-N8jbvVtEopjSkHi5LKD0NP2oopyzwC6_yMi_G80]--></g></svg>