<svg xmlns="http://www.w3.org/2000/svg" xmlns:xlink="http://www.w3.org/1999/xlink" contentStyleType="text/css" data-diagram-type="CLASS" height="766px" preserveAspectRatio="none" style="width:996px;height:766px;background:#FFFFFF;" version="1.1" viewBox="0 0 996 766" width="996px" zoomAndPan="magnify"><title>US2.2.2 - Domain Model (Vessel Management)</title><defs/><g><g class="title" data-source-line="12"><text fill="#000000" font-family="sans-serif" font-size="14" font-weight="bold" lengthAdjust="spacing" textLength="333.6211" x="324.1895" y="23.5352">US2.2.2 - Domain Model (Vessel Management)</text></g><!--cluster VC--><g class="cluster" data-entity="VC" data-source-line="14" data-uid="ent0002" id="cluster_VC"><path d="M8.5,43.4883 L116.6191,43.4883 A3.75,3.75 0 0 1 119.1191,45.9883 L126.1191,65.9766 L986.5,65.9766 A2.5,2.5 0 0 1 989,68.4766 L989,757.2383 A2.5,2.5 0 0 1 986.5,759.7383 L8.5,759.7383 A2.5,2.5 0 0 1 6,757.2383 L6,45.9883 A2.5,2.5 0 0 1 8.5,43.4883" fill="none" style="stroke:#000000;stroke-width:1.5;"/><line style="stroke:#000000;stroke-width:1.5;" x1="6" x2="126.1191" y1="65.9766" y2="65.9766"/><text fill="#000000" font-family="sans-serif" font-size="14" font-weight="bold" lengthAdjust="spacing" textLength="107.1191" x="10" y="59.0234">Vessel Context</text></g><!--class Vessel--><g class="entity" data-entity="Vessel" data-source-line="19" data-uid="ent0003" id="entity_Vessel"><rect fill="#F1F1F1" height="157.9063" rx="2.5" ry="2.5" style="stroke:#181818;stroke-width:0.5;" width="216.6816" x="483.66" y="416.8783"/><text fill="#000000" font-family="sans-serif" font-size="14" lengthAdjust="spacing" textLength="43.0732" x="570.4642" y="435.4134">Vessel</text><line style="stroke:#181818;stroke-width:0.5;" x1="484.66" x2="699.3416" y1="443.3666" y2="443.3666"/><rect fill="none" height="6" style="stroke:#595959;stroke-width:1;" width="6" x="491.66" y="454.1107"/><text fill="#000000" font-family="sans-serif" font-size="14" lengthAdjust="spacing" textLength="82.0518" x="503.66" y="460.9017">Id : VesselId</text><rect fill="none" height="6" style="stroke:#595959;stroke-width:1;" width="6" x="491.66" y="470.599"/><text fill="#000000" font-family="sans-serif" font-size="14" lengthAdjust="spacing" textLength="173.5781" x="503.66" y="477.39">ImoNumber : ImoNumber</text><rect fill="none" height="6" style="stroke:#595959;stroke-width:1;" width="6" x="491.66" y="487.0873"/><text fill="#000000" font-family="sans-serif" font-size="14" lengthAdjust="spacing" textLength="91.7998" x="503.66" y="493.8783">Name : string</text><rect fill="none" height="6" style="stroke:#595959;stroke-width:1;" width="6" x="491.66" y="503.5755"/><text fill="#000000" font-family="sans-serif" font-size="14" lengthAdjust="spacing" textLength="96.7354" x="503.66" y="510.3666">Owner : string</text><rect fill="none" height="6" style="stroke:#595959;stroke-width:1;" width="6" x="491.66" y="520.0638"/><text fill="#000000" font-family="sans-serif" font-size="14" lengthAdjust="spacing" textLength="190.6816" x="503.66" y="526.8548">VesselTypeId : VesselTypeId</text><line style="stroke:#181818;stroke-width:1;" x1="484.66" x2="699.3416" y1="533.808" y2="533.808"/><ellipse cx="494.66" cy="547.5521" fill="#A6A6A6" rx="3" ry="3" style="stroke:#545454;stroke-width:1;"/><text fill="#000000" font-family="sans-serif" font-size="14" lengthAdjust="spacing" textLength="133.4307" x="503.66" y="551.3431">UpdateName(name)</text><ellipse cx="494.66" cy="564.0404" fill="#A6A6A6" rx="3" ry="3" style="stroke:#545454;stroke-width:1;"/><text fill="#000000" font-family="sans-serif" font-size="14" lengthAdjust="spacing" textLength="142.6797" x="503.66" y="567.8314">UpdateOwner(owner)</text></g><!--class VesselId--><g class="entity" data-entity="VesselId" data-source-line="30" data-uid="ent0004" id="entity_VesselId"><rect fill="#F1F1F1" height="50.9766" rx="2.5" ry="2.5" style="stroke:#181818;stroke-width:0.5;" width="108.373" x="366.81" y="672.2783"/><text fill="#000000" font-family="sans-serif" font-size="14" lengthAdjust="spacing" textLength="55.918" x="393.0375" y="690.8134">VesselId</text><line style="stroke:#181818;stroke-width:0.5;" x1="367.81" x2="474.183" y1="698.7666" y2="698.7666"/><rect fill="none" height="6" style="stroke:#595959;stroke-width:1;" width="6" x="374.81" y="709.5107"/><text fill="#000000" font-family="sans-serif" font-size="14" lengthAdjust="spacing" textLength="82.373" x="386.81" y="716.3017">Value : Guid</text></g><!--class ImoNumber--><g class="entity" data-entity="ImoNumber" data-source-line="34" data-uid="ent0005" id="entity_ImoNumber"><rect fill="#F1F1F1" height="91.9531" rx="2.5" ry="2.5" style="stroke:#181818;stroke-width:0.5;" width="163.7373" x="510.13" y="651.7883"/><text fill="#000000" font-family="sans-serif" font-size="14" lengthAdjust="spacing" textLength="80.1445" x="551.9264" y="670.3234">ImoNumber</text><line style="stroke:#181818;stroke-width:0.5;" x1="511.13" x2="672.8673" y1="678.2766" y2="678.2766"/><rect fill="none" height="6" style="stroke:#595959;stroke-width:1;" width="6" x="518.13" y="689.0207"/><text fill="#000000" font-family="sans-serif" font-size="14" lengthAdjust="spacing" textLength="90.2754" x="530.13" y="695.8117">Value : string</text><line style="stroke:#181818;stroke-width:1;" x1="511.13" x2="672.8673" y1="702.7648" y2="702.7648"/><ellipse cx="521.13" cy="716.509" fill="#A6A6A6" rx="3" ry="3" style="stroke:#545454;stroke-width:1;"/><text fill="#000000" font-family="sans-serif" font-size="14" lengthAdjust="spacing" textLength="111.5352" x="530.13" y="720.3">ValidateFormat()</text><ellipse cx="521.13" cy="732.9973" fill="#A6A6A6" rx="3" ry="3" style="stroke:#545454;stroke-width:1;"/><text fill="#000000" font-family="sans-serif" font-size="14" lengthAdjust="spacing" textLength="137.7373" x="530.13" y="736.7883">ValidateCheckDigit()</text></g><!--class VesselTypeId--><g class="entity" data-entity="VesselTypeId" data-source-line="41" data-uid="ent0006" id="entity_VesselTypeId"><rect fill="#F1F1F1" height="50.9766" rx="2.5" ry="2.5" style="stroke:#181818;stroke-width:0.5;" width="108.373" x="708.81" y="672.2783"/><text fill="#000000" font-family="sans-serif" font-size="14" lengthAdjust="spacing" textLength="88.6963" x="718.6484" y="690.8134">VesselTypeId</text><line style="stroke:#181818;stroke-width:0.5;" x1="709.81" x2="816.183" y1="698.7666" y2="698.7666"/><rect fill="none" height="6" style="stroke:#595959;stroke-width:1;" width="6" x="716.81" y="709.5107"/><text fill="#000000" font-family="sans-serif" font-size="14" lengthAdjust="spacing" textLength="82.373" x="728.81" y="716.3017">Value : Guid</text></g><!--class VesselDto--><g class="entity" data-entity="VesselDto" data-source-line="48" data-uid="ent0007" id="entity_VesselDto"><rect fill="#F1F1F1" height="116.9297" rx="2.5" ry="2.5" style="stroke:#181818;stroke-width:0.5;" width="159.6494" x="22.18" y="78.4883"/><text fill="#000000" font-family="sans-serif" font-size="14" lengthAdjust="spacing" textLength="67.3955" x="68.307" y="97.0234">VesselDto</text><line style="stroke:#181818;stroke-width:0.5;" x1="23.18" x2="180.8294" y1="104.9766" y2="104.9766"/><ellipse cx="33.18" cy="118.7207" fill="none" rx="3" ry="3" style="stroke:#545454;stroke-width:1;"/><text fill="#000000" font-family="sans-serif" font-size="14" lengthAdjust="spacing" textLength="57.7979" x="42.18" y="122.5117">Id : Guid</text><ellipse cx="33.18" cy="135.209" fill="none" rx="3" ry="3" style="stroke:#545454;stroke-width:1;"/><text fill="#000000" font-family="sans-serif" font-size="14" lengthAdjust="spacing" textLength="133" x="42.18" y="139">ImoNumber : string</text><ellipse cx="33.18" cy="151.6973" fill="none" rx="3" ry="3" style="stroke:#545454;stroke-width:1;"/><text fill="#000000" font-family="sans-serif" font-size="14" lengthAdjust="spacing" textLength="91.7998" x="42.18" y="155.4883">Name : string</text><ellipse cx="33.18" cy="168.1855" fill="none" rx="3" ry="3" style="stroke:#545454;stroke-width:1;"/><text fill="#000000" font-family="sans-serif" font-size="14" lengthAdjust="spacing" textLength="96.7354" x="42.18" y="171.9766">Owner : string</text><ellipse cx="33.18" cy="184.6738" fill="none" rx="3" ry="3" style="stroke:#545454;stroke-width:1;"/><text fill="#000000" font-family="sans-serif" font-size="14" lengthAdjust="spacing" textLength="133.6494" x="42.18" y="188.4648">VesselTypeId : Guid</text></g><!--class CreatingVesselDto--><g class="entity" data-entity="CreatingVesselDto" data-source-line="56" data-uid="ent0008" id="entity_CreatingVesselDto"><rect fill="#F1F1F1" height="100.4414" rx="2.5" ry="2.5" style="stroke:#181818;stroke-width:0.5;" width="159.6494" x="217.18" y="86.7283"/><text fill="#000000" font-family="sans-serif" font-size="14" lengthAdjust="spacing" textLength="125.043" x="234.4832" y="105.2634">CreatingVesselDto</text><line style="stroke:#181818;stroke-width:0.5;" x1="218.18" x2="375.8294" y1="113.2166" y2="113.2166"/><ellipse cx="228.18" cy="126.9607" fill="none" rx="3" ry="3" style="stroke:#545454;stroke-width:1;"/><text fill="#000000" font-family="sans-serif" font-size="14" lengthAdjust="spacing" textLength="133" x="237.18" y="130.7517">ImoNumber : string</text><ellipse cx="228.18" cy="143.449" fill="none" rx="3" ry="3" style="stroke:#545454;stroke-width:1;"/><text fill="#000000" font-family="sans-serif" font-size="14" lengthAdjust="spacing" textLength="91.7998" x="237.18" y="147.24">Name : string</text><ellipse cx="228.18" cy="159.9373" fill="none" rx="3" ry="3" style="stroke:#545454;stroke-width:1;"/><text fill="#000000" font-family="sans-serif" font-size="14" lengthAdjust="spacing" textLength="96.7354" x="237.18" y="163.7283">Owner : string</text><ellipse cx="228.18" cy="176.4255" fill="none" rx="3" ry="3" style="stroke:#545454;stroke-width:1;"/><text fill="#000000" font-family="sans-serif" font-size="14" lengthAdjust="spacing" textLength="133.6494" x="237.18" y="180.2166">VesselTypeId : Guid</text></g><!--class UpdatingVesselDto--><g class="entity" data-entity="UpdatingVesselDto" data-source-line="63" data-uid="ent0009" id="entity_UpdatingVesselDto"><rect fill="#F1F1F1" height="67.4648" rx="2.5" ry="2.5" style="stroke:#181818;stroke-width:0.5;" width="135.1514" x="22.42" y="272.4183"/><text fill="#000000" font-family="sans-serif" font-size="14" lengthAdjust="spacing" textLength="129.1514" x="25.42" y="290.9534">UpdatingVesselDto</text><line style="stroke:#181818;stroke-width:0.5;" x1="23.42" x2="156.5714" y1="298.9066" y2="298.9066"/><ellipse cx="33.42" cy="312.6507" fill="none" rx="3" ry="3" style="stroke:#545454;stroke-width:1;"/><text fill="#000000" font-family="sans-serif" font-size="14" lengthAdjust="spacing" textLength="97.7061" x="42.42" y="316.4417">Name : string?</text><ellipse cx="33.42" cy="329.139" fill="none" rx="3" ry="3" style="stroke:#545454;stroke-width:1;"/><text fill="#000000" font-family="sans-serif" font-size="14" lengthAdjust="spacing" textLength="102.6416" x="42.42" y="332.93">Owner : string?</text></g><!--class IVesselRepository--><g class="entity" data-entity="IVesselRepository" data-source-line="71" data-uid="ent0010" id="entity_IVesselRepository"><rect fill="#F1F1F1" height="34.4883" rx="2.5" ry="2.5" style="stroke:#181818;stroke-width:0.5;" width="125.2324" x="456.38" y="288.8983"/><text fill="#000000" font-family="sans-serif" font-size="14" font-style="italic" lengthAdjust="spacing" textLength="119.2324" x="459.38" y="307.4334">IVesselRepository</text><line style="stroke:#181818;stroke-width:0.5;" x1="457.38" x2="580.6124" y1="315.3866" y2="315.3866"/></g><!--class IVesselService--><g class="entity" data-entity="IVesselService" data-source-line="81" data-uid="ent0011" id="entity_IVesselService"><rect fill="#F1F1F1" height="34.4883" rx="2.5" ry="2.5" style="stroke:#181818;stroke-width:0.5;" width="100.4385" x="872.78" y="288.8983"/><text fill="#000000" font-family="sans-serif" font-size="14" font-style="italic" lengthAdjust="spacing" textLength="94.4385" x="875.78" y="307.4334">IVesselService</text><line style="stroke:#181818;stroke-width:0.5;" x1="873.78" x2="972.2185" y1="315.3866" y2="315.3866"/></g><!--class VesselService--><g class="entity" data-entity="VesselService" data-source-line="92" data-uid="ent0012" id="entity_VesselService"><rect fill="#F1F1F1" height="34.4883" rx="2.5" ry="2.5" style="stroke:#181818;stroke-width:0.5;" width="96.4053" x="578.8" y="119.7083"/><text fill="#000000" font-family="sans-serif" font-size="14" lengthAdjust="spacing" textLength="90.4053" x="581.8" y="138.2434">VesselService</text><line style="stroke:#181818;stroke-width:0.5;" x1="579.8" x2="674.2053" y1="146.1966" y2="146.1966"/></g><!--class VesselFactory--><g class="entity" data-entity="VesselFactory" data-source-line="103" data-uid="ent0013" id="entity_VesselFactory"><rect fill="#F1F1F1" height="34.4883" rx="2.5" ry="2.5" style="stroke:#181818;stroke-width:0.5;" width="98.3604" x="616.82" y="288.8983"/><text fill="#000000" font-family="sans-serif" font-size="14" lengthAdjust="spacing" textLength="92.3604" x="619.82" y="307.4334">VesselFactory</text><line style="stroke:#181818;stroke-width:0.5;" x1="617.82" x2="714.1804" y1="315.3866" y2="315.3866"/></g><!--class VesselController--><g class="entity" data-entity="VesselController" data-source-line="108" data-uid="ent0014" id="entity_VesselController"><rect fill="#F1F1F1" height="34.4883" rx="2.5" ry="2.5" style="stroke:#181818;stroke-width:0.5;" width="117.2344" x="855.38" y="119.7083"/><text fill="#000000" font-family="sans-serif" font-size="14" lengthAdjust="spacing" textLength="111.2344" x="858.38" y="138.2434">VesselController</text><line style="stroke:#181818;stroke-width:0.5;" x1="856.38" x2="971.6144" y1="146.1966" y2="146.1966"/></g><!--class BusinessRuleValidationException--><g class="entity" data-entity="BusinessRuleValidationException" data-source-line="119" data-uid="ent0015" id="entity_BusinessRuleValidationException"><rect fill="#F1F1F1" height="34.4883" rx="2.5" ry="2.5" style="stroke:#181818;stroke-width:0.5;" width="228.6943" x="192.65" y="288.8983"/><text fill="#000000" font-family="sans-serif" font-size="14" lengthAdjust="spacing" textLength="222.6943" x="195.65" y="307.4334">BusinessRuleValidationException</text><line style="stroke:#181818;stroke-width:0.5;" x1="193.65" x2="420.3443" y1="315.3866" y2="315.3866"/></g><!--class IUnitOfWork--><g class="entity" data-entity="IUnitOfWork" data-source-line="120" data-uid="ent0016" id="entity_IUnitOfWork"><rect fill="#F1F1F1" height="34.4883" rx="2.5" ry="2.5" style="stroke:#181818;stroke-width:0.5;" width="88.2158" x="749.89" y="288.8983"/><text fill="#000000" font-family="sans-serif" font-size="14" lengthAdjust="spacing" textLength="82.2158" x="752.89" y="307.4334">IUnitOfWork</text><line style="stroke:#181818;stroke-width:0.5;" x1="750.89" x2="837.1058" y1="315.3866" y2="315.3866"/></g><!--link VesselController to IVesselService--><g class="link" data-entity-1="VesselController" data-entity-2="IVesselService" data-source-line="126" data-uid="lnk17" id="link_VesselController_IVesselService"><path codeLine="126" d="M914.9,154.5883 C916.62,186.6383 920.0679,250.5869 921.7879,282.5769" fill="none" id="VesselController-to-IVesselService" style="stroke:#181818;stroke-width:1;"/><polygon fill="#181818" points="922.11,288.5683,925.621,279.3665,921.8416,283.5755,917.6326,279.796,922.11,288.5683" style="stroke:#181818;stroke-width:1;"/><text fill="#000000" font-family="sans-serif" font-size="13" lengthAdjust="spacing" textLength="28.5645" x="920.57" y="238.9866">uses</text></g><!--link VesselService to IVesselRepository--><g class="link" data-entity-1="VesselService" data-entity-2="IVesselRepository" data-source-line="127" data-uid="lnk18" id="link_VesselService_IVesselRepository"><path codeLine="127" d="M603.34,154.5983 C582.64,170.4383 553.41,196.1483 537,225.4183 C525.83,245.3483 522.1607,265.7655 520.5507,282.6155" fill="none" id="VesselService-to-IVesselRepository" style="stroke:#181818;stroke-width:1;"/><polygon fill="#181818" points="519.98,288.5883,524.8179,280.0095,520.4556,283.611,516.8542,279.2486,519.98,288.5883" style="stroke:#181818;stroke-width:1;"/><text fill="#000000" font-family="sans-serif" font-size="13" lengthAdjust="spacing" textLength="73.8931" x="538" y="238.9866">depends on</text></g><!--link VesselService to IUnitOfWork--><g class="link" data-entity-1="VesselService" data-entity-2="IUnitOfWork" data-source-line="128" data-uid="lnk19" id="link_VesselService_IUnitOfWork"><path codeLine="128" d="M675.51,150.5383 C712.95,162.9783 762.52,186.0183 788,225.4183 C800.21,244.2983 800.1508,265.2593 797.8908,282.4793" fill="none" id="VesselService-to-IUnitOfWork" style="stroke:#181818;stroke-width:1;"/><polygon fill="#181818" points="797.11,288.4283,802.2471,280.0253,797.7606,283.4708,794.3152,278.9843,797.11,288.4283" style="stroke:#181818;stroke-width:1;"/><text fill="#000000" font-family="sans-serif" font-size="13" lengthAdjust="spacing" textLength="54.1646" x="795.95" y="238.9866">commits</text></g><!--link VesselService to VesselFactory--><g class="link" data-entity-1="VesselService" data-entity-2="VesselFactory" data-source-line="129" data-uid="lnk20" id="link_VesselService_VesselFactory"><path codeLine="129" d="M623.31,154.6683 C619.4,175.6583 614.93,212.5583 624,242.4183 C629.26,259.7183 637.2412,271.9622 647.0012,283.8422" fill="none" id="VesselService-to-VesselFactory" style="stroke:#181818;stroke-width:1;"/><polygon fill="#181818" points="650.81,288.4783,648.1876,278.985,647.636,284.6149,642.0061,284.0633,650.81,288.4783" style="stroke:#181818;stroke-width:1;"/><text fill="#000000" font-family="sans-serif" font-size="13" lengthAdjust="spacing" textLength="158.8435" x="625" y="238.9866">converts entities &#8596; DTOs</text></g><!--link VesselFactory to Vessel--><g class="link" data-entity-1="VesselFactory" data-entity-2="Vessel" data-source-line="130" data-uid="lnk21" id="link_VesselFactory_Vessel"><path codeLine="130" d="M661.11,323.8083 C656.22,340.0683 648.25,365.4083 640,386.8783 C636.29,396.5483 634.5187,401.0771 630.2987,410.9971" fill="none" id="VesselFactory-to-Vessel" style="stroke:#181818;stroke-width:1;"/><polygon fill="#181818" points="627.95,416.5183,635.1539,409.8023,629.9073,411.9173,627.7923,406.6707,627.95,416.5183" style="stroke:#181818;stroke-width:1;"/><text fill="#000000" font-family="sans-serif" font-size="13" lengthAdjust="spacing" textLength="108.3354" x="646.54" y="383.4466">creates instances</text></g><!--link Vessel to VesselId--><g class="link" data-entity-1="Vessel" data-entity-2="VesselId" data-source-line="131" data-uid="lnk22" id="link_Vessel_VesselId"><path codeLine="131" d="M524.91,575.2783 C495.34,609.8483 466.5906,643.4591 445.9206,667.6191" fill="none" id="Vessel-to-VesselId" style="stroke:#181818;stroke-width:1;"/><polygon fill="#181818" points="442.02,672.1783,450.9102,667.9399,445.2705,668.379,444.8314,662.7392,442.02,672.1783" style="stroke:#181818;stroke-width:1;"/><text fill="#000000" font-family="sans-serif" font-size="13" lengthAdjust="spacing" textLength="47.5249" x="497.26" y="618.3566">identity</text></g><!--link Vessel to ImoNumber--><g class="link" data-entity-1="Vessel" data-entity-2="ImoNumber" data-source-line="132" data-uid="lnk23" id="link_Vessel_ImoNumber"><path codeLine="132" d="M592,575.2783 C592,601.0983 592,622.9183 592,645.4183" fill="none" id="Vessel-to-ImoNumber" style="stroke:#181818;stroke-width:1;"/><polygon fill="#181818" points="592,651.4183,596,642.4183,592,646.4183,588,642.4183,592,651.4183" style="stroke:#181818;stroke-width:1;"/><text fill="#000000" font-family="sans-serif" font-size="13" lengthAdjust="spacing" textLength="21.874" x="593" y="618.3566">has</text></g><!--link Vessel to VesselTypeId--><g class="link" data-entity-1="Vessel" data-entity-2="VesselTypeId" data-source-line="133" data-uid="lnk24" id="link_Vessel_VesselTypeId"><path codeLine="133" d="M659.09,575.2783 C688.66,609.8483 717.4094,643.4591 738.0794,667.6191" fill="none" id="Vessel-to-VesselTypeId" style="stroke:#181818;stroke-width:1;"/><polygon fill="#181818" points="741.98,672.1783,739.1686,662.7392,738.7295,668.379,733.0898,667.9399,741.98,672.1783" style="stroke:#181818;stroke-width:1;"/><polygon fill="#000000" points="706.0902,617.2431,702.4439,608.4593,697.9773,612.2801,706.0902,617.2431" style="stroke:#000000;stroke-width:1;"/><text fill="#000000" font-family="sans-serif" font-size="13" lengthAdjust="spacing" textLength="65.7427" x="711.84" y="618.3566">references</text></g><!--link IVesselRepository to Vessel--><g class="link" data-entity-1="IVesselRepository" data-entity-2="Vessel" data-source-line="134" data-uid="lnk25" id="link_IVesselRepository_Vessel"><path codeLine="134" d="M510.23,323.6983 C502.75,340.0883 494.34,365.7183 502,386.8783 C505.7,397.0883 507.6283,401.9339 513.5783,411.3639" fill="none" id="IVesselRepository-to-Vessel" style="stroke:#181818;stroke-width:1;"/><polygon fill="#181818" points="516.78,416.4383,515.3603,406.6923,514.1119,412.2097,508.5945,410.9613,516.78,416.4383" style="stroke:#181818;stroke-width:1;"/><text fill="#000000" font-family="sans-serif" font-size="13" lengthAdjust="spacing" textLength="132.4819" x="503" y="383.4466">manages persistence</text></g><!--SRC=[tLVTRjem5BxFKnpjfbJ09kqIQQqej1NJ-YDQkcitFYGMYPtPJbjKxNPFi2VSa-paX-2Gm6WtJTE25CK-Vz_vV7ni3k33gn_l0COgPaB2XU8OmLYmGBCO-Z2xUV-MVj2POY2CHGrCSfWbd5c4EpI6jAVeAytD8NaPfZPKUW0VbGuGPlSiuWgcYciHf6X8OQIanISxW6kbBLmmoGACKLeALNdB0cbcXP9ay1j9UMOXPCAoH68bbHzg5IDOdQ8ZCI7Zwb780EOiCkY5WYF4I6bmKmnyeVq8FSyA6s55IB_EMAT4lyxeqFCIvYze16zAOPdy6s06xaRmx7b0pwuSIuMHqhYAToe9Y20ozxBr8sRCYjhdV2fx-Z3XC2Zd9zoTZzLb6j_JGW_MtuxyaX670w0L8iwS-Qj7cTiq14MCssM2JiXYkDRgLv_TihYoE1r9hyE6A0_LKTcx47xr6hbIB3VREnQb6UppLF2coJhdDflDZ5oif2CoI6TAnyns3bj4en3znLW4OYLkGLkoim_YFQfbV7lrYkeOM-K0w1O5KaKlvvpYsA2bkwKokjigexjP6UrhCz98hK06Mq3-VK1v3Mu5L8jvl3NeyGkNT9WaaV3pdWZlO2Bdcf6ZrBSfDOPFR5bkqLzw4jI0z9pv29C2_nGJPOHLUbbBunpjC8g6PYdzMb7J_CbomWk1u4tHQZrAZLWrL3A62kdcxix5EK-5tDdXbSAPYEnAdjdtW6Bq85VjmPSKzTAr6F8IAsPTSrdRW0qkRb0_21h-ZqJaswWCnsqDp3MpVfWZhh3seD9fwLP_YASTaFv92b_Cqndp6nkhIBgGRsRjogYljDMiwpwxJMWLHRLZQxKIROkmfKwtChk3r1ryxb-Dsmjn5xSdgH6I29Yc4PPdB7N5qoSVa_pAw1phCodirVopqWkFNEniZWTqxunoJoOKYTcjtE2_tp_QR283I0rTqkgJZfxJU0V0CK793H3y5eDr6gJggpWMjirnlUWoJVc0sXh0yiO8FxvzBou7TTMrSMQLBusXxcWiatwLWgEL7uvqCyxBqnMxft78MYoherNZ73Lcxk78Qp9IGnJdLse32MgJ_GKXA-yd]--></g></svg>