<svg xmlns="http://www.w3.org/2000/svg" xmlns:xlink="http://www.w3.org/1999/xlink" contentStyleType="text/css" data-diagram-type="SEQUENCE" height="401px" preserveAspectRatio="none" style="width:442px;height:401px;background:#FFFFFF;" version="1.1" viewBox="0 0 442 401" width="442px" zoomAndPan="magnify"><title>SSD - US 4.1.7: Create VVE (Record Arrival)</title><defs/><g><text fill="#000000" font-family="sans-serif" font-size="14" font-weight="bold" lengthAdjust="spacing" textLength="308.3008" x="67.9543" y="28.5352">SSD - US 4.1.7: Create VVE (Record Arrival)</text><g><title>System .SPA.</title><rect fill="#FFFFFF" height="157.1523" style="stroke:#181818;stroke-width:1;" width="10" x="369.9243" y="151.2871"/></g><rect fill="none" height="135.1523" style="stroke:#000000;stroke-width:1.5;" width="425.2095" x="10" y="166.2871"/><g><title>Logistics Operator</title><rect fill="#000000" fill-opacity="0.00000" height="198.4629" width="8" x="81.2549" y="119.9766"/><line style="stroke:#181818;stroke-width:0.5;stroke-dasharray:5,5;" x1="85" x2="85" y1="119.9766" y2="318.4395"/></g><g><title>System .SPA.</title><rect fill="#000000" fill-opacity="0.00000" height="198.4629" width="8" x="370.9243" y="119.9766"/><line style="stroke:#181818;stroke-width:0.5;stroke-dasharray:5,5;" x1="374.6392" x2="374.6392" y1="119.9766" y2="318.4395"/></g><g class="participant participant-head" data-participant="User"><text fill="#000000" font-family="sans-serif" font-size="14" lengthAdjust="spacing" textLength="124.5098" x="20" y="117.0234">Logistics Operator</text><ellipse cx="85.2549" cy="58.9883" fill="#E2E2F0" rx="16" ry="16" style="stroke:#181818;stroke-width:0.5;"/><path d="M85.2549,78.9883 C89.2549,78.9883 92.2549,78.9883 96.2549,74.9883 C104.2549,74.9883 112.2549,82.9883 112.2549,90.9883 L112.2549,94.9883 C112.2549,98.9883 108.2549,102.9883 104.2549,102.9883 L66.2549,102.9883 C62.2549,102.9883 58.2549,98.9883 58.2549,94.9883 L58.2549,90.9883 C58.2549,82.9883 66.2549,74.9883 74.2549,74.9883 C78.2549,78.9883 81.2549,78.9883 85.2549,78.9883" fill="#E2E2F0" style="stroke:#181818;stroke-width:0.5;"/></g><g class="participant participant-tail" data-participant="User"><text fill="#000000" font-family="sans-serif" font-size="14" lengthAdjust="spacing" textLength="124.5098" x="20" y="330.9746">Logistics Operator</text><ellipse cx="85.2549" cy="350.4277" fill="#E2E2F0" rx="16" ry="16" style="stroke:#181818;stroke-width:0.5;"/><path d="M85.2549,370.4277 C89.2549,370.4277 92.2549,370.4277 96.2549,366.4277 C104.2549,366.4277 112.2549,374.4277 112.2549,382.4277 L112.2549,386.4277 C112.2549,390.4277 108.2549,394.4277 104.2549,394.4277 L66.2549,394.4277 C62.2549,394.4277 58.2549,390.4277 58.2549,386.4277 L58.2549,382.4277 C58.2549,374.4277 66.2549,366.4277 74.2549,366.4277 C78.2549,370.4277 81.2549,370.4277 85.2549,370.4277" fill="#E2E2F0" style="stroke:#181818;stroke-width:0.5;"/></g><g class="participant participant-head" data-participant="System"><rect fill="#E2E2F0" height="30.4883" rx="2.5" ry="2.5" style="stroke:#181818;stroke-width:0.5;" width="100.5703" x="324.6392" y="88.4883"/><text fill="#000000" font-family="sans-serif" font-size="14" lengthAdjust="spacing" textLength="86.5703" x="331.6392" y="109.0234">System (SPA)</text></g><g class="participant participant-tail" data-participant="System"><rect fill="#E2E2F0" height="30.4883" rx="2.5" ry="2.5" style="stroke:#181818;stroke-width:0.5;" width="100.5703" x="324.6392" y="317.4395"/><text fill="#000000" font-family="sans-serif" font-size="14" lengthAdjust="spacing" textLength="86.5703" x="331.6392" y="337.9746">System (SPA)</text></g><g><title>System .SPA.</title><rect fill="#FFFFFF" height="157.1523" style="stroke:#181818;stroke-width:1;" width="10" x="369.9243" y="151.2871"/></g><g class="message" data-participant-1="User" data-participant-2="System"><polygon fill="#181818" points="357.9243,147.2871,367.9243,151.2871,357.9243,155.2871,361.9243,151.2871" style="stroke:#181818;stroke-width:1;"/><line style="stroke:#181818;stroke-width:1;" x1="85.2549" x2="363.9243" y1="151.2871" y2="151.2871"/><text fill="#000000" font-family="sans-serif" font-size="13" font-weight="bold" lengthAdjust="spacing" textLength="8.5757" x="92.2549" y="146.5449">1</text><text fill="#000000" font-family="sans-serif" font-size="13" lengthAdjust="spacing" textLength="253.0938" x="104.8306" y="146.5449">Record Arrival (vvnId, actualArrivalTime)</text></g><path d="M10,166.2871 L72.1387,166.2871 L72.1387,173.5977 L62.1387,183.5977 L10,183.5977 L10,166.2871" fill="#EEEEEE" style="stroke:#000000;stroke-width:1.5;"/><rect fill="none" height="135.1523" style="stroke:#000000;stroke-width:1.5;" width="425.2095" x="10" y="166.2871"/><text fill="#000000" font-family="sans-serif" font-size="13" font-weight="bold" lengthAdjust="spacing" textLength="17.1387" x="25" y="179.8555">alt</text><text fill="#000000" font-family="sans-serif" font-size="11" font-weight="bold" lengthAdjust="spacing" textLength="133.3696" x="87.1387" y="178.9219">[Success (201 Created)]</text><g class="message" data-participant-1="System" data-participant-2="User"><polygon fill="#181818" points="96.2549,200.9082,86.2549,204.9082,96.2549,208.9082,92.2549,204.9082" style="stroke:#181818;stroke-width:1;"/><line style="stroke:#181818;stroke-width:1;stroke-dasharray:2,2;" x1="90.2549" x2="368.9243" y1="204.9082" y2="204.9082"/><text fill="#000000" font-family="sans-serif" font-size="13" font-weight="bold" lengthAdjust="spacing" textLength="8.5757" x="102.2549" y="200.166">2</text><text fill="#000000" font-family="sans-serif" font-size="13" lengthAdjust="spacing" textLength="161.6875" x="114.8306" y="200.166">201 Created (VVE Details)</text></g><line style="stroke:#000000;stroke-width:1;stroke-dasharray:2,2;" x1="10" x2="435.2095" y1="213.9082" y2="213.9082"/><text fill="#000000" font-family="sans-serif" font-size="11" font-weight="bold" lengthAdjust="spacing" textLength="131.3071" x="15" y="224.543">[Validation Error (400)]</text><g class="message" data-participant-1="System" data-participant-2="User"><polygon fill="#181818" points="96.2549,245.1738,86.2549,249.1738,96.2549,253.1738,92.2549,249.1738" style="stroke:#181818;stroke-width:1;"/><line style="stroke:#181818;stroke-width:1;stroke-dasharray:2,2;" x1="90.2549" x2="368.9243" y1="249.1738" y2="249.1738"/><text fill="#000000" font-family="sans-serif" font-size="13" font-weight="bold" lengthAdjust="spacing" textLength="8.5757" x="102.2549" y="244.4316">3</text><text fill="#000000" font-family="sans-serif" font-size="13" lengthAdjust="spacing" textLength="106.1709" x="114.8306" y="244.4316">400 Bad Request</text></g><line style="stroke:#000000;stroke-width:1;stroke-dasharray:2,2;" x1="10" x2="435.2095" y1="258.1738" y2="258.1738"/><text fill="#000000" font-family="sans-serif" font-size="11" font-weight="bold" lengthAdjust="spacing" textLength="118.2339" x="15" y="268.8086">[Unauthorized (401)]</text><g class="message" data-participant-1="System" data-participant-2="User"><polygon fill="#181818" points="96.2549,289.4395,86.2549,293.4395,96.2549,297.4395,92.2549,293.4395" style="stroke:#181818;stroke-width:1;"/><line style="stroke:#181818;stroke-width:1;stroke-dasharray:2,2;" x1="90.2549" x2="368.9243" y1="293.4395" y2="293.4395"/><text fill="#000000" font-family="sans-serif" font-size="13" font-weight="bold" lengthAdjust="spacing" textLength="8.5757" x="102.2549" y="288.6973">4</text><text fill="#000000" font-family="sans-serif" font-size="13" lengthAdjust="spacing" textLength="113.9658" x="114.8306" y="288.6973">401 Unauthorized</text></g><!--SRC=[TP91Rjim44NtFCM7Df40Ex0B0mMyA936NXWecg2giv-AOvSjHRhaq4rocvmb5-j8LO2cGBGGmE7mp-EJyayNJfIe1tKIKoiFda6_ESUU3HM9eVJVE1apRgFw58ykY-ioRawSI6iLA6EVjKTpTCUTA0YgzY4BzwZRswjcRFbRC4QSw8YstM2EVOlLvVBo_HhNYKaOTtTRr5-uYydYAYLt9jyOSu4R77ovZvgJIy_uLHWHHPntZsILwyVp4p9xxbmCiQ3qclGPWR3VcO4DymyJ0DPudO_wV0uxEni45F9JzQlhkHakhGlbUe4dBsXBrt7EgDyjbXEtRGpq6JYp6pe9NNAaZ8a7Nt66ezhIzMu3XkM32umi92MZsWNSfdXC6bgDEHFfNA57-3N-6OLwaBHX8UVpEDSOzbdTaNUMH0rWcv9AgLUBnGlOzdwD3GdXKAGacer-N3W_F-aXnLDfLarcwDo3tfBU0D58V2Ih3lKRP9b6xuF-AjzZSey3tsgnRDuyldpLhEU3lYp_P_eF]--></g></svg>