<svg xmlns="http://www.w3.org/2000/svg" xmlns:xlink="http://www.w3.org/1999/xlink" contentStyleType="text/css" data-diagram-type="SEQUENCE" height="1678px" preserveAspectRatio="none" style="width:1628px;height:1678px;background:#FFFFFF;" version="1.1" viewBox="0 0 1628 1678" width="1628px" zoomAndPan="magnify"><defs/><g><rect fill="none" height="472.5684" style="stroke:#000000;stroke-width:1.5;" width="1601.27" x="10" y="199.4199"/><rect fill="none" height="296.0605" style="stroke:#000000;stroke-width:1.5;" width="1581.27" x="20" y="368.9277"/><rect fill="none" height="472.5684" style="stroke:#000000;stroke-width:1.5;" width="1601.27" x="10" y="830.2305"/><rect fill="none" height="296.0605" style="stroke:#000000;stroke-width:1.5;" width="1581.27" x="20" y="999.7383"/><g><title>Logistics Operator</title><rect fill="#000000" fill-opacity="0.00000" height="1516.1055" width="8" x="91.2549" y="81.4883"/><line style="stroke:#181818;stroke-width:0.5;stroke-dasharray:5,5;" x1="95" x2="95" y1="81.4883" y2="1597.5938"/></g><g><title>UI</title><rect fill="#000000" fill-opacity="0.00000" height="1516.1055" width="8" x="482.9111" y="81.4883"/><line style="stroke:#181818;stroke-width:0.5;stroke-dasharray:5,5;" x1="486.4111" x2="486.4111" y1="81.4883" y2="1597.5938"/></g><g><title>QualificationController</title><rect fill="#000000" fill-opacity="0.00000" height="1516.1055" width="8" x="754.6221" y="81.4883"/><line style="stroke:#181818;stroke-width:0.5;stroke-dasharray:5,5;" x1="758.5127" x2="758.5127" y1="81.4883" y2="1597.5938"/></g><g><title>QualificationAppService</title><rect fill="#000000" fill-opacity="0.00000" height="1516.1055" width="8" x="1019.6108" y="81.4883"/><line style="stroke:#181818;stroke-width:0.5;stroke-dasharray:5,5;" x1="1023.2749" x2="1023.2749" y1="81.4883" y2="1597.5938"/></g><g><title>QualificationRepository</title><rect fill="#000000" fill-opacity="0.00000" height="1516.1055" width="8" x="1411.5122" y="81.4883"/><line style="stroke:#181818;stroke-width:0.5;stroke-dasharray:5,5;" x1="1415.4204" x2="1415.4204" y1="81.4883" y2="1597.5938"/></g><g><title>Audit Log</title><rect fill="#000000" fill-opacity="0.00000" height="1516.1055" width="8" x="1545.437" y="81.4883"/><line style="stroke:#181818;stroke-width:0.5;stroke-dasharray:5,5;" x1="1548.604" x2="1548.604" y1="81.4883" y2="1597.5938"/></g><g class="participant participant-head" data-participant="Operator"><text fill="#000000" font-family="sans-serif" font-size="14" lengthAdjust="spacing" textLength="124.5098" x="30" y="78.5352">Logistics Operator</text><ellipse cx="95.2549" cy="13.5" fill="#E2E2F0" rx="8" ry="8" style="stroke:#181818;stroke-width:0.5;"/><path d="M95.2549,21.5 L95.2549,48.5 M82.2549,29.5 L108.2549,29.5 M95.2549,48.5 L82.2549,63.5 M95.2549,48.5 L108.2549,63.5" fill="none" style="stroke:#181818;stroke-width:0.5;"/></g><g class="participant participant-tail" data-participant="Operator"><text fill="#000000" font-family="sans-serif" font-size="14" lengthAdjust="spacing" textLength="124.5098" x="30" y="1610.1289">Logistics Operator</text><ellipse cx="95.2549" cy="1621.582" fill="#E2E2F0" rx="8" ry="8" style="stroke:#181818;stroke-width:0.5;"/><path d="M95.2549,1629.582 L95.2549,1656.582 M82.2549,1637.582 L108.2549,1637.582 M95.2549,1656.582 L82.2549,1671.582 M95.2549,1656.582 L108.2549,1671.582" fill="none" style="stroke:#181818;stroke-width:0.5;"/></g><g class="participant participant-head" data-participant="UI"><text fill="#000000" font-family="sans-serif" font-size="14" lengthAdjust="spacing" textLength="13.7334" x="477.0444" y="78.5352">UI</text><path d="M466.4111,37 L466.4111,61 M466.4111,49 L483.4111,49" fill="none" style="stroke:#181818;stroke-width:0.5;"/><ellipse cx="495.4111" cy="49" fill="#E2E2F0" rx="12" ry="12" style="stroke:#181818;stroke-width:0.5;"/></g><g class="participant participant-tail" data-participant="UI"><text fill="#000000" font-family="sans-serif" font-size="14" lengthAdjust="spacing" textLength="13.7334" x="477.0444" y="1610.1289">UI</text><path d="M466.4111,1617.082 L466.4111,1641.082 M466.4111,1629.082 L483.4111,1629.082" fill="none" style="stroke:#181818;stroke-width:0.5;"/><ellipse cx="495.4111" cy="1629.082" fill="#E2E2F0" rx="12" ry="12" style="stroke:#181818;stroke-width:0.5;"/></g><g class="participant participant-head" data-participant="Controller"><text fill="#000000" font-family="sans-serif" font-size="14" lengthAdjust="spacing" textLength="154.2188" x="678.5127" y="78.5352">QualificationController</text><path d="M738.1221,37 L738.1221,61 M738.1221,49 L755.1221,49" fill="none" style="stroke:#181818;stroke-width:0.5;"/><ellipse cx="767.1221" cy="49" fill="#E2E2F0" rx="12" ry="12" style="stroke:#181818;stroke-width:0.5;"/></g><g class="participant participant-tail" data-participant="Controller"><text fill="#000000" font-family="sans-serif" font-size="14" lengthAdjust="spacing" textLength="154.2188" x="678.5127" y="1610.1289">QualificationController</text><path d="M738.1221,1617.082 L738.1221,1641.082 M738.1221,1629.082 L755.1221,1629.082" fill="none" style="stroke:#181818;stroke-width:0.5;"/><ellipse cx="767.1221" cy="1629.082" fill="#E2E2F0" rx="12" ry="12" style="stroke:#181818;stroke-width:0.5;"/></g><g class="participant participant-head" data-participant="Service"><text fill="#000000" font-family="sans-serif" font-size="14" lengthAdjust="spacing" textLength="160.6719" x="940.2749" y="78.5352">QualificationAppService</text><ellipse cx="1023.6108" cy="49" fill="#E2E2F0" rx="12" ry="12" style="stroke:#181818;stroke-width:0.5;"/><polygon fill="#181818" points="1019.6108,37,1025.6108,32,1023.6108,37,1025.6108,42,1019.6108,37" style="stroke:#181818;stroke-width:1;"/></g><g class="participant participant-tail" data-participant="Service"><text fill="#000000" font-family="sans-serif" font-size="14" lengthAdjust="spacing" textLength="160.6719" x="940.2749" y="1610.1289">QualificationAppService</text><ellipse cx="1023.6108" cy="1629.082" fill="#E2E2F0" rx="12" ry="12" style="stroke:#181818;stroke-width:0.5;"/><polygon fill="#181818" points="1019.6108,1617.082,1025.6108,1612.082,1023.6108,1617.082,1025.6108,1622.082,1019.6108,1617.082" style="stroke:#181818;stroke-width:1;"/></g><g class="participant participant-head" data-participant="Repository"><text fill="#000000" font-family="sans-serif" font-size="14" lengthAdjust="spacing" textLength="158.1836" x="1333.4204" y="78.5352">QualificationRepository</text><ellipse cx="1415.5122" cy="49" fill="#E2E2F0" rx="12" ry="12" style="stroke:#181818;stroke-width:0.5;"/><line style="stroke:#181818;stroke-width:0.5;" x1="1403.5122" x2="1427.5122" y1="63" y2="63"/></g><g class="participant participant-tail" data-participant="Repository"><text fill="#000000" font-family="sans-serif" font-size="14" lengthAdjust="spacing" textLength="158.1836" x="1333.4204" y="1610.1289">QualificationRepository</text><ellipse cx="1415.5122" cy="1629.082" fill="#E2E2F0" rx="12" ry="12" style="stroke:#181818;stroke-width:0.5;"/><line style="stroke:#181818;stroke-width:0.5;" x1="1403.5122" x2="1427.5122" y1="1643.082" y2="1643.082"/></g><g class="participant participant-head" data-participant="Audit"><rect fill="#E2E2F0" height="30.4883" style="stroke:#181818;stroke-width:0.5;" width="79.666" x="1511.604" y="46"/><rect fill="#E2E2F0" height="30.4883" style="stroke:#181818;stroke-width:0.5;" width="79.666" x="1507.604" y="50"/><text fill="#000000" font-family="sans-serif" font-size="14" lengthAdjust="spacing" textLength="65.666" x="1514.604" y="70.5352">Audit Log</text></g><g class="participant participant-tail" data-participant="Audit"><rect fill="#E2E2F0" height="30.4883" style="stroke:#181818;stroke-width:0.5;" width="79.666" x="1511.604" y="1596.5938"/><rect fill="#E2E2F0" height="30.4883" style="stroke:#181818;stroke-width:0.5;" width="79.666" x="1507.604" y="1600.5938"/><text fill="#000000" font-family="sans-serif" font-size="14" lengthAdjust="spacing" textLength="65.666" x="1514.604" y="1621.1289">Audit Log</text></g><g class="message" data-participant-1="Operator" data-participant-2="UI"><polygon fill="#181818" points="474.9111,108.7988,484.9111,112.7988,474.9111,116.7988,478.9111,112.7988" style="stroke:#181818;stroke-width:1;"/><line style="stroke:#181818;stroke-width:1;" x1="95.2549" x2="480.9111" y1="112.7988" y2="112.7988"/><text fill="#000000" font-family="sans-serif" font-size="13" lengthAdjust="spacing" textLength="301.2534" x="102.2549" y="108.0566">Fill Qualification form (Code, Name) and submit</text></g><g class="message" data-participant-1="UI" data-participant-2="Controller"><polygon fill="#181818" points="746.6221,138.1094,756.6221,142.1094,746.6221,146.1094,750.6221,142.1094" style="stroke:#181818;stroke-width:1;"/><line style="stroke:#181818;stroke-width:1;" x1="486.9111" x2="752.6221" y1="142.1094" y2="142.1094"/><text fill="#000000" font-family="sans-serif" font-size="13" lengthAdjust="spacing" textLength="247.7109" x="493.9111" y="137.3672">RegisterQualification(QualificationDTO)</text></g><g class="message" data-participant-1="Controller" data-participant-2="Controller"><line style="stroke:#181818;stroke-width:1;" x1="758.6221" x2="800.6221" y1="171.4199" y2="171.4199"/><line style="stroke:#181818;stroke-width:1;" x1="800.6221" x2="800.6221" y1="171.4199" y2="184.4199"/><line style="stroke:#181818;stroke-width:1;" x1="759.6221" x2="800.6221" y1="184.4199" y2="184.4199"/><polygon fill="#181818" points="769.6221,180.4199,759.6221,184.4199,769.6221,188.4199,765.6221,184.4199" style="stroke:#181818;stroke-width:1;"/><text fill="#000000" font-family="sans-serif" font-size="13" lengthAdjust="spacing" textLength="215.0015" x="765.6221" y="166.6777">Validate basic fields (Code, Name)</text></g><path d="M10,199.4199 L72.1387,199.4199 L72.1387,206.7305 L62.1387,216.7305 L10,216.7305 L10,199.4199" fill="#EEEEEE" style="stroke:#000000;stroke-width:1.5;"/><rect fill="none" height="472.5684" style="stroke:#000000;stroke-width:1.5;" width="1601.27" x="10" y="199.4199"/><text fill="#000000" font-family="sans-serif" font-size="13" font-weight="bold" lengthAdjust="spacing" textLength="17.1387" x="25" y="212.9883">alt</text><text fill="#000000" font-family="sans-serif" font-size="11" font-weight="bold" lengthAdjust="spacing" textLength="93.5269" x="87.1387" y="212.0547">[Validation fails]</text><g class="message" data-participant-1="Controller" data-participant-2="UI"><polygon fill="#181818" points="497.9111,234.041,487.9111,238.041,497.9111,242.041,493.9111,238.041" style="stroke:#181818;stroke-width:1;"/><line style="stroke:#181818;stroke-width:1;stroke-dasharray:2,2;" x1="491.9111" x2="757.6221" y1="238.041" y2="238.041"/><text fill="#000000" font-family="sans-serif" font-size="13" lengthAdjust="spacing" textLength="174.7954" x="503.9111" y="233.2988">Return ValidationErrorsDTO</text></g><g class="message" data-participant-1="UI" data-participant-2="Operator"><polygon fill="#181818" points="106.2549,263.3516,96.2549,267.3516,106.2549,271.3516,102.2549,267.3516" style="stroke:#181818;stroke-width:1;"/><line style="stroke:#181818;stroke-width:1;stroke-dasharray:2,2;" x1="100.2549" x2="485.9111" y1="267.3516" y2="267.3516"/><text fill="#000000" font-family="sans-serif" font-size="13" lengthAdjust="spacing" textLength="153.5308" x="112.2549" y="262.6094">Display validation errors</text></g><line style="stroke:#000000;stroke-width:1;stroke-dasharray:2,2;" x1="10" x2="1611.27" y1="276.3516" y2="276.3516"/><text fill="#000000" font-family="sans-serif" font-size="11" font-weight="bold" lengthAdjust="spacing" textLength="120.6777" x="15" y="286.9863">[Validation succeeds]</text><g class="message" data-participant-1="Controller" data-participant-2="Service"><polygon fill="#181818" points="1011.6108,307.6172,1021.6108,311.6172,1011.6108,315.6172,1015.6108,311.6172" style="stroke:#181818;stroke-width:1;"/><line style="stroke:#181818;stroke-width:1;" x1="758.6221" x2="1017.6108" y1="311.6172" y2="311.6172"/><text fill="#000000" font-family="sans-serif" font-size="13" lengthAdjust="spacing" textLength="237.1738" x="765.6221" y="306.875">CreateQualification(QualificationDTO)</text></g><g class="message" data-participant-1="Service" data-participant-2="Service"><line style="stroke:#181818;stroke-width:1;" x1="1023.6108" x2="1065.6108" y1="340.9277" y2="340.9277"/><line style="stroke:#181818;stroke-width:1;" x1="1065.6108" x2="1065.6108" y1="340.9277" y2="353.9277"/><line style="stroke:#181818;stroke-width:1;" x1="1024.6108" x2="1065.6108" y1="353.9277" y2="353.9277"/><polygon fill="#181818" points="1034.6108,349.9277,1024.6108,353.9277,1034.6108,357.9277,1030.6108,353.9277" style="stroke:#181818;stroke-width:1;"/><text fill="#000000" font-family="sans-serif" font-size="13" lengthAdjust="spacing" textLength="294.9058" x="1030.6108" y="336.1855">Validate business rules (code uniqueness, etc.)</text></g><path d="M20,368.9277 L82.1387,368.9277 L82.1387,376.2383 L72.1387,386.2383 L20,386.2383 L20,368.9277" fill="#EEEEEE" style="stroke:#000000;stroke-width:1.5;"/><rect fill="none" height="296.0605" style="stroke:#000000;stroke-width:1.5;" width="1581.27" x="20" y="368.9277"/><text fill="#000000" font-family="sans-serif" font-size="13" font-weight="bold" lengthAdjust="spacing" textLength="17.1387" x="35" y="382.4961">alt</text><text fill="#000000" font-family="sans-serif" font-size="11" font-weight="bold" lengthAdjust="spacing" textLength="146.0508" x="97.1387" y="381.5625">[Business validation fails]</text><g class="message" data-participant-1="Service" data-participant-2="Controller"><polygon fill="#181818" points="769.6221,403.5488,759.6221,407.5488,769.6221,411.5488,765.6221,407.5488" style="stroke:#181818;stroke-width:1;"/><line style="stroke:#181818;stroke-width:1;stroke-dasharray:2,2;" x1="763.6221" x2="1022.6108" y1="407.5488" y2="407.5488"/><text fill="#000000" font-family="sans-serif" font-size="13" lengthAdjust="spacing" textLength="233.4033" x="775.6221" y="402.8066">Return Business ValidationErrorsDTO</text></g><g class="message" data-participant-1="Controller" data-participant-2="UI"><polygon fill="#181818" points="497.9111,432.8594,487.9111,436.8594,497.9111,440.8594,493.9111,436.8594" style="stroke:#181818;stroke-width:1;"/><line style="stroke:#181818;stroke-width:1;stroke-dasharray:2,2;" x1="491.9111" x2="757.6221" y1="436.8594" y2="436.8594"/><text fill="#000000" font-family="sans-serif" font-size="13" lengthAdjust="spacing" textLength="233.4033" x="503.9111" y="432.1172">Return Business ValidationErrorsDTO</text></g><g class="message" data-participant-1="UI" data-participant-2="Operator"><polygon fill="#181818" points="106.2549,462.1699,96.2549,466.1699,106.2549,470.1699,102.2549,466.1699" style="stroke:#181818;stroke-width:1;"/><line style="stroke:#181818;stroke-width:1;stroke-dasharray:2,2;" x1="100.2549" x2="485.9111" y1="466.1699" y2="466.1699"/><text fill="#000000" font-family="sans-serif" font-size="13" lengthAdjust="spacing" textLength="212.8433" x="112.2549" y="461.4277">Display business validation errors</text></g><line style="stroke:#000000;stroke-width:1;stroke-dasharray:2,2;" x1="20" x2="1601.27" y1="475.1699" y2="475.1699"/><text fill="#000000" font-family="sans-serif" font-size="11" font-weight="bold" lengthAdjust="spacing" textLength="173.2017" x="25" y="485.8047">[Business validation succeeds]</text><g class="message" data-participant-1="Service" data-participant-2="Repository"><polygon fill="#181818" points="1403.5122,506.4355,1413.5122,510.4355,1403.5122,514.4355,1407.5122,510.4355" style="stroke:#181818;stroke-width:1;"/><line style="stroke:#181818;stroke-width:1;" x1="1023.6108" x2="1409.5122" y1="510.4355" y2="510.4355"/><text fill="#000000" font-family="sans-serif" font-size="13" lengthAdjust="spacing" textLength="151.874" x="1030.6108" y="505.6934">Save Qualification entity</text></g><g class="message" data-participant-1="Repository" data-participant-2="Service"><polygon fill="#181818" points="1034.6108,535.7461,1024.6108,539.7461,1034.6108,543.7461,1030.6108,539.7461" style="stroke:#181818;stroke-width:1;"/><line style="stroke:#181818;stroke-width:1;stroke-dasharray:2,2;" x1="1028.6108" x2="1414.5122" y1="539.7461" y2="539.7461"/><text fill="#000000" font-family="sans-serif" font-size="13" lengthAdjust="spacing" textLength="166.4673" x="1040.6108" y="535.0039">Qualification entity with Id</text></g><g class="message" data-participant-1="Service" data-participant-2="Audit"><polygon fill="#181818" points="1537.437,565.0566,1547.437,569.0566,1537.437,573.0566,1541.437,569.0566" style="stroke:#181818;stroke-width:1;"/><line style="stroke:#181818;stroke-width:1;" x1="1023.6108" x2="1543.437" y1="569.0566" y2="569.0566"/><text fill="#000000" font-family="sans-serif" font-size="13" lengthAdjust="spacing" textLength="116.4668" x="1030.6108" y="564.3145">Log creation event</text></g><g class="message" data-participant-1="Service" data-participant-2="Controller"><polygon fill="#181818" points="769.6221,594.3672,759.6221,598.3672,769.6221,602.3672,765.6221,598.3672" style="stroke:#181818;stroke-width:1;"/><line style="stroke:#181818;stroke-width:1;stroke-dasharray:2,2;" x1="763.6221" x2="1022.6108" y1="598.3672" y2="598.3672"/><text fill="#000000" font-family="sans-serif" font-size="13" lengthAdjust="spacing" textLength="202.7441" x="775.6221" y="593.625">Return QualificationSuccessDTO</text></g><g class="message" data-participant-1="Controller" data-participant-2="UI"><polygon fill="#181818" points="497.9111,623.6777,487.9111,627.6777,497.9111,631.6777,493.9111,627.6777" style="stroke:#181818;stroke-width:1;"/><line style="stroke:#181818;stroke-width:1;stroke-dasharray:2,2;" x1="491.9111" x2="757.6221" y1="627.6777" y2="627.6777"/><text fill="#000000" font-family="sans-serif" font-size="13" lengthAdjust="spacing" textLength="202.7441" x="503.9111" y="622.9355">Return QualificationSuccessDTO</text></g><g class="message" data-participant-1="UI" data-participant-2="Operator"><polygon fill="#181818" points="106.2549,652.9883,96.2549,656.9883,106.2549,660.9883,102.2549,656.9883" style="stroke:#181818;stroke-width:1;"/><line style="stroke:#181818;stroke-width:1;stroke-dasharray:2,2;" x1="100.2549" x2="485.9111" y1="656.9883" y2="656.9883"/><text fill="#000000" font-family="sans-serif" font-size="13" lengthAdjust="spacing" textLength="157.9297" x="112.2549" y="652.2461">Display success message</text></g><rect fill="#EEEEEE" height="3" style="stroke:#EEEEEE;stroke-width:1;" width="1621.27" x="0" y="699.6436"/><line style="stroke:#000000;stroke-width:1;" x1="0" x2="1621.27" y1="699.6436" y2="699.6436"/><line style="stroke:#000000;stroke-width:1;" x1="0" x2="1621.27" y1="702.6436" y2="702.6436"/><rect fill="#EEEEEE" height="23.3105" style="stroke:#000000;stroke-width:2;" width="155.7559" x="732.7571" y="688.9883"/><text fill="#000000" font-family="sans-serif" font-size="13" font-weight="bold" lengthAdjust="spacing" textLength="137.4712" x="738.7571" y="705.5566">Update Qualification</text><g class="message" data-participant-1="Operator" data-participant-2="UI"><polygon fill="#181818" points="474.9111,739.6094,484.9111,743.6094,474.9111,747.6094,478.9111,743.6094" style="stroke:#181818;stroke-width:1;"/><line style="stroke:#181818;stroke-width:1;" x1="95.2549" x2="480.9111" y1="743.6094" y2="743.6094"/><text fill="#000000" font-family="sans-serif" font-size="13" lengthAdjust="spacing" textLength="367.6563" x="102.2549" y="738.8672">Request to update Qualification (Id, new Code, new Name)</text></g><g class="message" data-participant-1="UI" data-participant-2="Controller"><polygon fill="#181818" points="746.6221,768.9199,756.6221,772.9199,746.6221,776.9199,750.6221,772.9199" style="stroke:#181818;stroke-width:1;"/><line style="stroke:#181818;stroke-width:1;" x1="486.9111" x2="752.6221" y1="772.9199" y2="772.9199"/><text fill="#000000" font-family="sans-serif" font-size="13" lengthAdjust="spacing" textLength="240.9888" x="493.9111" y="768.1777">UpdateQualification(QualificationDTO)</text></g><g class="message" data-participant-1="Controller" data-participant-2="Controller"><line style="stroke:#181818;stroke-width:1;" x1="758.6221" x2="800.6221" y1="802.2305" y2="802.2305"/><line style="stroke:#181818;stroke-width:1;" x1="800.6221" x2="800.6221" y1="802.2305" y2="815.2305"/><line style="stroke:#181818;stroke-width:1;" x1="759.6221" x2="800.6221" y1="815.2305" y2="815.2305"/><polygon fill="#181818" points="769.6221,811.2305,759.6221,815.2305,769.6221,819.2305,765.6221,815.2305" style="stroke:#181818;stroke-width:1;"/><text fill="#000000" font-family="sans-serif" font-size="13" lengthAdjust="spacing" textLength="89.1211" x="765.6221" y="797.4883">Validate fields</text></g><path d="M10,830.2305 L72.1387,830.2305 L72.1387,837.541 L62.1387,847.541 L10,847.541 L10,830.2305" fill="#EEEEEE" style="stroke:#000000;stroke-width:1.5;"/><rect fill="none" height="472.5684" style="stroke:#000000;stroke-width:1.5;" width="1601.27" x="10" y="830.2305"/><text fill="#000000" font-family="sans-serif" font-size="13" font-weight="bold" lengthAdjust="spacing" textLength="17.1387" x="25" y="843.7988">alt</text><text fill="#000000" font-family="sans-serif" font-size="11" font-weight="bold" lengthAdjust="spacing" textLength="93.5269" x="87.1387" y="842.8652">[Validation fails]</text><g class="message" data-participant-1="Controller" data-participant-2="UI"><polygon fill="#181818" points="497.9111,864.8516,487.9111,868.8516,497.9111,872.8516,493.9111,868.8516" style="stroke:#181818;stroke-width:1;"/><line style="stroke:#181818;stroke-width:1;stroke-dasharray:2,2;" x1="491.9111" x2="757.6221" y1="868.8516" y2="868.8516"/><text fill="#000000" font-family="sans-serif" font-size="13" lengthAdjust="spacing" textLength="174.7954" x="503.9111" y="864.1094">Return ValidationErrorsDTO</text></g><g class="message" data-participant-1="UI" data-participant-2="Operator"><polygon fill="#181818" points="106.2549,894.1621,96.2549,898.1621,106.2549,902.1621,102.2549,898.1621" style="stroke:#181818;stroke-width:1;"/><line style="stroke:#181818;stroke-width:1;stroke-dasharray:2,2;" x1="100.2549" x2="485.9111" y1="898.1621" y2="898.1621"/><text fill="#000000" font-family="sans-serif" font-size="13" lengthAdjust="spacing" textLength="153.5308" x="112.2549" y="893.4199">Display validation errors</text></g><line style="stroke:#000000;stroke-width:1;stroke-dasharray:2,2;" x1="10" x2="1611.27" y1="907.1621" y2="907.1621"/><text fill="#000000" font-family="sans-serif" font-size="11" font-weight="bold" lengthAdjust="spacing" textLength="120.6777" x="15" y="917.7969">[Validation succeeds]</text><g class="message" data-participant-1="Controller" data-participant-2="Service"><polygon fill="#181818" points="1011.6108,938.4277,1021.6108,942.4277,1011.6108,946.4277,1015.6108,942.4277" style="stroke:#181818;stroke-width:1;"/><line style="stroke:#181818;stroke-width:1;" x1="758.6221" x2="1017.6108" y1="942.4277" y2="942.4277"/><text fill="#000000" font-family="sans-serif" font-size="13" lengthAdjust="spacing" textLength="240.9888" x="765.6221" y="937.6855">UpdateQualification(QualificationDTO)</text></g><g class="message" data-participant-1="Service" data-participant-2="Service"><line style="stroke:#181818;stroke-width:1;" x1="1023.6108" x2="1065.6108" y1="971.7383" y2="971.7383"/><line style="stroke:#181818;stroke-width:1;" x1="1065.6108" x2="1065.6108" y1="971.7383" y2="984.7383"/><line style="stroke:#181818;stroke-width:1;" x1="1024.6108" x2="1065.6108" y1="984.7383" y2="984.7383"/><polygon fill="#181818" points="1034.6108,980.7383,1024.6108,984.7383,1034.6108,988.7383,1030.6108,984.7383" style="stroke:#181818;stroke-width:1;"/><text fill="#000000" font-family="sans-serif" font-size="13" lengthAdjust="spacing" textLength="377.9014" x="1030.6108" y="966.9961">Validate business rules (unique code, validate relationships)</text></g><path d="M20,999.7383 L82.1387,999.7383 L82.1387,1007.0488 L72.1387,1017.0488 L20,1017.0488 L20,999.7383" fill="#EEEEEE" style="stroke:#000000;stroke-width:1.5;"/><rect fill="none" height="296.0605" style="stroke:#000000;stroke-width:1.5;" width="1581.27" x="20" y="999.7383"/><text fill="#000000" font-family="sans-serif" font-size="13" font-weight="bold" lengthAdjust="spacing" textLength="17.1387" x="35" y="1013.3066">alt</text><text fill="#000000" font-family="sans-serif" font-size="11" font-weight="bold" lengthAdjust="spacing" textLength="146.0508" x="97.1387" y="1012.373">[Business validation fails]</text><g class="message" data-participant-1="Service" data-participant-2="Controller"><polygon fill="#181818" points="769.6221,1034.3594,759.6221,1038.3594,769.6221,1042.3594,765.6221,1038.3594" style="stroke:#181818;stroke-width:1;"/><line style="stroke:#181818;stroke-width:1;stroke-dasharray:2,2;" x1="763.6221" x2="1022.6108" y1="1038.3594" y2="1038.3594"/><text fill="#000000" font-family="sans-serif" font-size="13" lengthAdjust="spacing" textLength="233.4033" x="775.6221" y="1033.6172">Return Business ValidationErrorsDTO</text></g><g class="message" data-participant-1="Controller" data-participant-2="UI"><polygon fill="#181818" points="497.9111,1063.6699,487.9111,1067.6699,497.9111,1071.6699,493.9111,1067.6699" style="stroke:#181818;stroke-width:1;"/><line style="stroke:#181818;stroke-width:1;stroke-dasharray:2,2;" x1="491.9111" x2="757.6221" y1="1067.6699" y2="1067.6699"/><text fill="#000000" font-family="sans-serif" font-size="13" lengthAdjust="spacing" textLength="233.4033" x="503.9111" y="1062.9277">Return Business ValidationErrorsDTO</text></g><g class="message" data-participant-1="UI" data-participant-2="Operator"><polygon fill="#181818" points="106.2549,1092.9805,96.2549,1096.9805,106.2549,1100.9805,102.2549,1096.9805" style="stroke:#181818;stroke-width:1;"/><line style="stroke:#181818;stroke-width:1;stroke-dasharray:2,2;" x1="100.2549" x2="485.9111" y1="1096.9805" y2="1096.9805"/><text fill="#000000" font-family="sans-serif" font-size="13" lengthAdjust="spacing" textLength="212.8433" x="112.2549" y="1092.2383">Display business validation errors</text></g><line style="stroke:#000000;stroke-width:1;stroke-dasharray:2,2;" x1="20" x2="1601.27" y1="1105.9805" y2="1105.9805"/><text fill="#000000" font-family="sans-serif" font-size="11" font-weight="bold" lengthAdjust="spacing" textLength="173.2017" x="25" y="1116.6152">[Business validation succeeds]</text><g class="message" data-participant-1="Service" data-participant-2="Repository"><polygon fill="#181818" points="1403.5122,1137.2461,1413.5122,1141.2461,1403.5122,1145.2461,1407.5122,1141.2461" style="stroke:#181818;stroke-width:1;"/><line style="stroke:#181818;stroke-width:1;" x1="1023.6108" x2="1409.5122" y1="1141.2461" y2="1141.2461"/><text fill="#000000" font-family="sans-serif" font-size="13" lengthAdjust="spacing" textLength="168.3779" x="1030.6108" y="1136.5039">Update Qualification entity</text></g><g class="message" data-participant-1="Repository" data-participant-2="Service"><polygon fill="#181818" points="1034.6108,1166.5566,1024.6108,1170.5566,1034.6108,1174.5566,1030.6108,1170.5566" style="stroke:#181818;stroke-width:1;"/><line style="stroke:#181818;stroke-width:1;stroke-dasharray:2,2;" x1="1028.6108" x2="1414.5122" y1="1170.5566" y2="1170.5566"/><text fill="#000000" font-family="sans-serif" font-size="13" lengthAdjust="spacing" textLength="176.5601" x="1040.6108" y="1165.8145">Updated Qualification entity</text></g><g class="message" data-participant-1="Service" data-participant-2="Audit"><polygon fill="#181818" points="1537.437,1195.8672,1547.437,1199.8672,1537.437,1203.8672,1541.437,1199.8672" style="stroke:#181818;stroke-width:1;"/><line style="stroke:#181818;stroke-width:1;" x1="1023.6108" x2="1543.437" y1="1199.8672" y2="1199.8672"/><text fill="#000000" font-family="sans-serif" font-size="13" lengthAdjust="spacing" textLength="109.1099" x="1030.6108" y="1195.125">Log update event</text></g><g class="message" data-participant-1="Service" data-participant-2="Controller"><polygon fill="#181818" points="769.6221,1225.1777,759.6221,1229.1777,769.6221,1233.1777,765.6221,1229.1777" style="stroke:#181818;stroke-width:1;"/><line style="stroke:#181818;stroke-width:1;stroke-dasharray:2,2;" x1="763.6221" x2="1022.6108" y1="1229.1777" y2="1229.1777"/><text fill="#000000" font-family="sans-serif" font-size="13" lengthAdjust="spacing" textLength="202.7441" x="775.6221" y="1224.4355">Return QualificationSuccessDTO</text></g><g class="message" data-participant-1="Controller" data-participant-2="UI"><polygon fill="#181818" points="497.9111,1254.4883,487.9111,1258.4883,497.9111,1262.4883,493.9111,1258.4883" style="stroke:#181818;stroke-width:1;"/><line style="stroke:#181818;stroke-width:1;stroke-dasharray:2,2;" x1="491.9111" x2="757.6221" y1="1258.4883" y2="1258.4883"/><text fill="#000000" font-family="sans-serif" font-size="13" lengthAdjust="spacing" textLength="202.7441" x="503.9111" y="1253.7461">Return QualificationSuccessDTO</text></g><g class="message" data-participant-1="UI" data-participant-2="Operator"><polygon fill="#181818" points="106.2549,1283.7988,96.2549,1287.7988,106.2549,1291.7988,102.2549,1287.7988" style="stroke:#181818;stroke-width:1;"/><line style="stroke:#181818;stroke-width:1;stroke-dasharray:2,2;" x1="100.2549" x2="485.9111" y1="1287.7988" y2="1287.7988"/><text fill="#000000" font-family="sans-serif" font-size="13" lengthAdjust="spacing" textLength="157.9297" x="112.2549" y="1283.0566">Display success message</text></g><rect fill="#EEEEEE" height="3" style="stroke:#EEEEEE;stroke-width:1;" width="1621.27" x="0" y="1330.4541"/><line style="stroke:#000000;stroke-width:1;" x1="0" x2="1621.27" y1="1330.4541" y2="1330.4541"/><line style="stroke:#000000;stroke-width:1;" x1="0" x2="1621.27" y1="1333.4541" y2="1333.4541"/><rect fill="#EEEEEE" height="23.3105" style="stroke:#000000;stroke-width:2;" width="140.1851" x="740.5425" y="1319.7988"/><text fill="#000000" font-family="sans-serif" font-size="13" font-weight="bold" lengthAdjust="spacing" textLength="121.9004" x="746.5425" y="1336.3672">List Qualifications</text><g class="message" data-participant-1="Operator" data-participant-2="UI"><polygon fill="#181818" points="474.9111,1370.4199,484.9111,1374.4199,474.9111,1378.4199,478.9111,1374.4199" style="stroke:#181818;stroke-width:1;"/><line style="stroke:#181818;stroke-width:1;" x1="95.2549" x2="480.9111" y1="1374.4199" y2="1374.4199"/><text fill="#000000" font-family="sans-serif" font-size="13" lengthAdjust="spacing" textLength="318.0938" x="102.2549" y="1369.6777">Request list of Qualifications (filter by code/name)</text></g><g class="message" data-participant-1="UI" data-participant-2="Controller"><polygon fill="#181818" points="746.6221,1399.7305,756.6221,1403.7305,746.6221,1407.7305,750.6221,1403.7305" style="stroke:#181818;stroke-width:1;"/><line style="stroke:#181818;stroke-width:1;" x1="486.9111" x2="752.6221" y1="1403.7305" y2="1403.7305"/><text fill="#000000" font-family="sans-serif" font-size="13" lengthAdjust="spacing" textLength="174.9478" x="493.9111" y="1398.9883">ListQualifications(filterDTO)</text></g><g class="message" data-participant-1="Controller" data-participant-2="Service"><polygon fill="#181818" points="1011.6108,1429.041,1021.6108,1433.041,1011.6108,1437.041,1015.6108,1433.041" style="stroke:#181818;stroke-width:1;"/><line style="stroke:#181818;stroke-width:1;" x1="758.6221" x2="1017.6108" y1="1433.041" y2="1433.041"/><text fill="#000000" font-family="sans-serif" font-size="13" lengthAdjust="spacing" textLength="174.9478" x="765.6221" y="1428.2988">ListQualifications(filterDTO)</text></g><g class="message" data-participant-1="Service" data-participant-2="Repository"><polygon fill="#181818" points="1403.5122,1458.3516,1413.5122,1462.3516,1403.5122,1466.3516,1407.5122,1462.3516" style="stroke:#181818;stroke-width:1;"/><line style="stroke:#181818;stroke-width:1;" x1="1023.6108" x2="1409.5122" y1="1462.3516" y2="1462.3516"/><text fill="#000000" font-family="sans-serif" font-size="13" lengthAdjust="spacing" textLength="199.4497" x="1030.6108" y="1457.6094">Query Qualifications with filters</text></g><g class="message" data-participant-1="Repository" data-participant-2="Service"><polygon fill="#181818" points="1034.6108,1487.6621,1024.6108,1491.6621,1034.6108,1495.6621,1030.6108,1491.6621" style="stroke:#181818;stroke-width:1;"/><line style="stroke:#181818;stroke-width:1;stroke-dasharray:2,2;" x1="1028.6108" x2="1414.5122" y1="1491.6621" y2="1491.6621"/><text fill="#000000" font-family="sans-serif" font-size="13" lengthAdjust="spacing" textLength="150.814" x="1040.6108" y="1486.9199">List&lt;QualificationDTO&gt;</text></g><g class="message" data-participant-1="Service" data-participant-2="Controller"><polygon fill="#181818" points="769.6221,1516.9727,759.6221,1520.9727,769.6221,1524.9727,765.6221,1520.9727" style="stroke:#181818;stroke-width:1;"/><line style="stroke:#181818;stroke-width:1;stroke-dasharray:2,2;" x1="763.6221" x2="1022.6108" y1="1520.9727" y2="1520.9727"/><text fill="#000000" font-family="sans-serif" font-size="13" lengthAdjust="spacing" textLength="150.814" x="775.6221" y="1516.2305">List&lt;QualificationDTO&gt;</text></g><g class="message" data-participant-1="Controller" data-participant-2="UI"><polygon fill="#181818" points="497.9111,1546.2832,487.9111,1550.2832,497.9111,1554.2832,493.9111,1550.2832" style="stroke:#181818;stroke-width:1;"/><line style="stroke:#181818;stroke-width:1;stroke-dasharray:2,2;" x1="491.9111" x2="757.6221" y1="1550.2832" y2="1550.2832"/><text fill="#000000" font-family="sans-serif" font-size="13" lengthAdjust="spacing" textLength="150.814" x="503.9111" y="1545.541">List&lt;QualificationDTO&gt;</text></g><g class="message" data-participant-1="UI" data-participant-2="Operator"><polygon fill="#181818" points="106.2549,1575.5938,96.2549,1579.5938,106.2549,1583.5938,102.2549,1579.5938" style="stroke:#181818;stroke-width:1;"/><line style="stroke:#181818;stroke-width:1;stroke-dasharray:2,2;" x1="100.2549" x2="485.9111" y1="1579.5938" y2="1579.5938"/><text fill="#000000" font-family="sans-serif" font-size="13" lengthAdjust="spacing" textLength="174.7637" x="112.2549" y="1574.8516">Display list of qualifications</text></g><!--SRC=[xLRVRzem47xtNt7YYKfqUqS3gQERX5IjAeoz6-TeBPaazOzK_FSxsuJWD85Ksikc8G5n-BuxttU-Zt1X2msZX-9P6Yk5WSSIDQTx8-3DWcqBbsTS7s2qMOPVDikpUq-EAxcJWbjPv8iYjxfG2cE8Pib4l6pXxyfoZRgI0WF-UCqmjzAsOw-mB8oa3Hq2jbbIR4eXFCR0wCvbqWBL551XnLXT2zpEQVSmXUzIAKZ2mwxGUnWlYWmdy8FlyGPude5nspr5819Hcteen0gzRAYJAEDaTV_pyOQTaTeXVX4sunPXouqKi9EeCfFiWN5bQrZO99VACA3NUTYwgXLQf_Cp_3Uj2sre6u7YYo3eIOmft4jJAdw0gic0WS9G6JnFR9mGYDdxtFEwQnHkeP6gkIQ8Zr1p4deZXpCoHsD0EuKaY211mENorQ6_FG6qubCCvFNvMiEhBg6ITE-R61GxHUYJxehYW_Zzycyx2ZZsmHD3BxgAJ9hIahMP3qgqvXMsZdkSiHFp37wRDAMB1M_Ili0owyeRvs_g9n24Fm-1LX5nS3UIb6jVendQY6lK_XwO28OzVV1dZCBd6VDlDfl1fWn7CvLZDklmbXNIEJKMR06kYpHUPXF8yGtYdFkhEEiT9XEp_WcBYURoT_d9iEe_xYVHIa04_QiQfL65eEP5bkQ_kmntbyxH6EelaPnTPlVuot6y_W5tUQ17YJIykMmkoXEANPiptab5poImFOJJ_JdlCnQVCEKUgHs6qZJhCgllV3mvfE_MJiDVI2GRrdiwVC8lxP6VizuUz-2xUje3xUzXBVbhKWZx3G00]--></g></svg>