<svg xmlns="http://www.w3.org/2000/svg" xmlns:xlink="http://www.w3.org/1999/xlink" contentStyleType="text/css" data-diagram-type="SEQUENCE" height="1467px" preserveAspectRatio="none" style="width:897px;height:1467px;background:#FFFFFF;" version="1.1" viewBox="0 0 897 1467" width="897px" zoomAndPan="magnify"><title>System Sequence Diagram - Record and Manage Complementary Tasks (US4.1.15)</title><defs/><g><text fill="#000000" font-family="sans-serif" font-size="14" font-weight="bold" lengthAdjust="spacing" textLength="652.3467" x="118.4771" y="27.9951">System Sequence Diagram - Record and Manage Complementary Tasks (US4.1.15)</text><rect fill="none" height="178.7344" style="stroke:#000000;stroke-width:1.5;" width="870.3008" x="10" y="301.3906"/><rect fill="none" height="279.1328" style="stroke:#000000;stroke-width:1.5;" width="870.3008" x="10" y="623.6563"/><rect fill="none" height="105.3359" style="stroke:#000000;stroke-width:1.5;" width="631.4517" x="10" y="1264.25"/><g class="participant-lifeline" data-entity-uid="part1" data-qualified-name="Operator" id="part1-lifeline"><g><title>Logistics Operator</title><rect fill="#000000" fill-opacity="0.00000" height="1267.9922" width="8" x="82.9604" y="118.5938"/><line style="stroke:#181818;stroke-width:0.5;stroke-dasharray:5,5;" x1="86" x2="86" y1="118.5938" y2="1386.5859"/></g></g><g class="participant-lifeline" data-entity-uid="part2" data-qualified-name="System" id="part2-lifeline"><g><title>Complementary Task API</title><rect fill="#000000" fill-opacity="0.00000" height="1267.9922" width="8" x="536.3604" y="118.5938"/><line style="stroke:#181818;stroke-width:0.5;stroke-dasharray:5,5;" x1="540.269" x2="540.269" y1="118.5938" y2="1386.5859"/></g></g><g class="participant-lifeline" data-entity-uid="part3" data-qualified-name="CTRepo" id="part3-lifeline"><g><title>CTRepo</title><rect fill="#000000" fill-opacity="0.00000" height="1267.9922" width="8" x="832.2407" y="118.5938"/><line style="stroke:#181818;stroke-width:0.5;stroke-dasharray:5,5;" x1="836.1807" x2="836.1807" y1="118.5938" y2="1386.5859"/></g></g><g class="participant participant-head" data-entity-uid="part1" data-qualified-name="Operator" id="part1-head"><text fill="#000000" font-family="sans-serif" font-size="14" lengthAdjust="spacing" textLength="127.9209" x="20" y="115.292">Logistics Operator</text><ellipse cx="86.9604" cy="50.7969" fill="#E3E3E3" rx="8" ry="8" style="stroke:#181818;stroke-width:0.5;"/><path d="M86.9604,58.7969 L86.9604,85.7969 M73.9604,66.7969 L99.9604,66.7969 M86.9604,85.7969 L73.9604,100.7969 M86.9604,85.7969 L99.9604,100.7969" fill="none" style="stroke:#181818;stroke-width:0.5;"/></g><g class="participant participant-tail" data-entity-uid="part1" data-qualified-name="Operator" id="part1-tail"><text fill="#000000" font-family="sans-serif" font-size="14" lengthAdjust="spacing" textLength="127.9209" x="20" y="1398.5811">Logistics Operator</text><ellipse cx="86.9604" cy="1410.3828" fill="#E3E3E3" rx="8" ry="8" style="stroke:#181818;stroke-width:0.5;"/><path d="M86.9604,1418.3828 L86.9604,1445.3828 M73.9604,1426.3828 L99.9604,1426.3828 M86.9604,1445.3828 L73.9604,1460.3828 M86.9604,1445.3828 L99.9604,1460.3828" fill="none" style="stroke:#181818;stroke-width:0.5;"/></g><g class="participant participant-head" data-entity-uid="part2" data-qualified-name="System" id="part2-head"><text fill="#000000" font-family="sans-serif" font-size="14" lengthAdjust="spacing" textLength="176.1826" x="449.269" y="115.292">Complementary Task API</text><path d="M519.8604,74.2969 L519.8604,98.2969 M519.8604,86.2969 L536.8604,86.2969" fill="none" style="stroke:#181818;stroke-width:0.5;"/><ellipse cx="548.8604" cy="86.2969" fill="#E3E3E3" rx="12" ry="12" style="stroke:#181818;stroke-width:0.5;"/></g><g class="participant participant-tail" data-entity-uid="part2" data-qualified-name="System" id="part2-tail"><text fill="#000000" font-family="sans-serif" font-size="14" lengthAdjust="spacing" textLength="176.1826" x="449.269" y="1398.5811">Complementary Task API</text><path d="M519.8604,1405.8828 L519.8604,1429.8828 M519.8604,1417.8828 L536.8604,1417.8828" fill="none" style="stroke:#181818;stroke-width:0.5;"/><ellipse cx="548.8604" cy="1417.8828" fill="#E3E3E3" rx="12" ry="12" style="stroke:#181818;stroke-width:0.5;"/></g><g class="participant participant-head" data-entity-uid="part3" data-qualified-name="CTRepo" id="part3-head"><rect fill="#E3E3E3" height="30.2969" rx="2.5" ry="2.5" style="stroke:#181818;stroke-width:0.5;" width="68.1201" x="802.1807" y="87.2969"/><text fill="#000000" font-family="sans-serif" font-size="14" lengthAdjust="spacing" textLength="54.1201" x="809.1807" y="107.292">CTRepo</text></g><g class="participant participant-tail" data-entity-uid="part3" data-qualified-name="CTRepo" id="part3-tail"><rect fill="#E3E3E3" height="30.2969" rx="2.5" ry="2.5" style="stroke:#181818;stroke-width:0.5;" width="68.1201" x="802.1807" y="1385.5859"/><text fill="#000000" font-family="sans-serif" font-size="14" lengthAdjust="spacing" textLength="54.1201" x="809.1807" y="1405.5811">CTRepo</text></g><rect fill="#EEEEEE" height="3" style="stroke:#EEEEEE;stroke-width:1;" width="890.3008" x="0" y="149.1602"/><line style="stroke:#000000;stroke-width:1;" x1="0" x2="890.3008" y1="149.1602" y2="149.1602"/><line style="stroke:#000000;stroke-width:1;" x1="0" x2="890.3008" y1="152.1602" y2="152.1602"/><rect fill="#EEEEEE" height="23.1328" style="stroke:#000000;stroke-width:2;" width="239.5576" x="325.3716" y="138.5938"/><text fill="#000000" font-family="sans-serif" font-size="13" font-weight="bold" lengthAdjust="spacing" textLength="221.0317" x="331.3716" y="154.6606">Create a Complementary Task</text><g class="message" data-entity-1="part1" data-entity-2="part2" id="msg1"><polygon fill="#181818" points="528.3604,222.125,538.3604,226.125,528.3604,230.125,532.3604,226.125" style="stroke:#181818;stroke-width:1;"/><line style="stroke:#181818;stroke-width:1;" x1="86.9604" x2="534.3604" y1="226.125" y2="226.125"/><text fill="#000000" font-family="sans-serif" font-size="13" lengthAdjust="spacing" textLength="208.4443" x="93.9604" y="205.9263">POST /api/complementary-tasks</text><text fill="#000000" font-family="sans-serif" font-size="13" lengthAdjust="spacing" textLength="403.7871" x="93.9604" y="221.0591">Body: {code, category, staff, vve, status, timeStart, timeEnd}</text></g><path d="M545,176.7266 L545,246.7266 L804,246.7266 L804,186.7266 L794,176.7266 L545,176.7266" fill="#FAFAFA" style="stroke:#181818;stroke-width:0.5;"/><path d="M794,176.7266 L794,186.7266 L804,186.7266 L794,176.7266" fill="#FAFAFA" style="stroke:#181818;stroke-width:0.5;"/><text fill="#000000" font-family="sans-serif" font-size="13" lengthAdjust="spacing" textLength="61.6294" x="551" y="193.7935">Requires:</text><text fill="#000000" font-family="sans-serif" font-size="13" lengthAdjust="spacing" textLength="169.1396" x="551" y="208.9263">- Category must be active</text><text fill="#000000" font-family="sans-serif" font-size="13" lengthAdjust="spacing" textLength="238.0308" x="551" y="224.0591">- timeEnd &gt;= timeStart (if provided)</text><text fill="#000000" font-family="sans-serif" font-size="13" lengthAdjust="spacing" textLength="154.0386" x="551" y="239.1919">- Linked VVE must exist</text><g class="message" data-entity-1="part2" data-entity-2="part2" id="msg3"><line style="stroke:#181818;stroke-width:1;" x1="540.3604" x2="582.3604" y1="273.3906" y2="273.3906"/><line style="stroke:#181818;stroke-width:1;" x1="582.3604" x2="582.3604" y1="273.3906" y2="286.3906"/><line style="stroke:#181818;stroke-width:1;" x1="541.3604" x2="582.3604" y1="286.3906" y2="286.3906"/><polygon fill="#181818" points="551.3604,282.3906,541.3604,286.3906,551.3604,290.3906,547.3604,286.3906" style="stroke:#181818;stroke-width:1;"/><text fill="#000000" font-family="sans-serif" font-size="13" lengthAdjust="spacing" textLength="118.3076" x="547.3604" y="268.3247">Validate task data</text></g><path d="M10,301.3906 L74.4429,301.3906 L74.4429,308.5234 L64.4429,318.5234 L10,318.5234 L10,301.3906" fill="#EEEEEE" style="stroke:#000000;stroke-width:1.5;"/><rect fill="none" height="178.7344" style="stroke:#000000;stroke-width:1.5;" width="870.3008" x="10" y="301.3906"/><text fill="#000000" font-family="sans-serif" font-size="13" font-weight="bold" lengthAdjust="spacing" textLength="19.4429" x="25" y="314.4575">alt</text><text fill="#000000" font-family="sans-serif" font-size="11" font-weight="bold" lengthAdjust="spacing" textLength="103.3721" x="89.4429" y="313.6011">[Validation fails]</text><g class="message" data-entity-1="part2" data-entity-2="part1" id="msg4"><polygon fill="#181818" points="97.9604,350.7891,87.9604,354.7891,97.9604,358.7891,93.9604,354.7891" style="stroke:#181818;stroke-width:1;"/><line style="stroke:#181818;stroke-width:1;stroke-dasharray:2,2;" x1="91.9604" x2="539.3604" y1="354.7891" y2="354.7891"/><text fill="#000000" font-family="sans-serif" font-size="13" lengthAdjust="spacing" textLength="111.6045" x="103.9604" y="334.5903">400 Bad Request</text><text fill="#000000" font-family="sans-serif" font-size="13" lengthAdjust="spacing" textLength="238.0879" x="103.9604" y="349.7231">Body: {message: "Validation error"}</text></g><line style="stroke:#000000;stroke-width:1;stroke-dasharray:2,2;" x1="10" x2="880.3008" y1="363.7891" y2="363.7891"/><text fill="#000000" font-family="sans-serif" font-size="11" font-weight="bold" lengthAdjust="spacing" textLength="119.4746" x="15" y="373.9995">[Validation passes]</text><g class="message" data-entity-1="part2" data-entity-2="part3" id="msg5"><polygon fill="#181818" points="824.2407,394.7266,834.2407,398.7266,824.2407,402.7266,828.2407,398.7266" style="stroke:#181818;stroke-width:1;"/><line style="stroke:#181818;stroke-width:1;" x1="540.3604" x2="830.2407" y1="398.7266" y2="398.7266"/><text fill="#000000" font-family="sans-serif" font-size="13" lengthAdjust="spacing" textLength="205.9434" x="547.3604" y="393.6606">Save new Complementary Task</text></g><g class="message" data-entity-1="part3" data-entity-2="part2" id="msg6"><polygon fill="#181818" points="551.3604,423.8594,541.3604,427.8594,551.3604,431.8594,547.3604,427.8594" style="stroke:#181818;stroke-width:1;"/><line style="stroke:#181818;stroke-width:1;stroke-dasharray:2,2;" x1="545.3604" x2="835.2407" y1="427.8594" y2="427.8594"/><text fill="#000000" font-family="sans-serif" font-size="13" lengthAdjust="spacing" textLength="135.897" x="557.3604" y="422.7935">Persisted Task entity</text></g><g class="message" data-entity-1="part2" data-entity-2="part1" id="msg7"><polygon fill="#181818" points="97.9604,468.125,87.9604,472.125,97.9604,476.125,93.9604,472.125" style="stroke:#181818;stroke-width:1;"/><line style="stroke:#181818;stroke-width:1;stroke-dasharray:2,2;" x1="91.9604" x2="539.3604" y1="472.125" y2="472.125"/><text fill="#000000" font-family="sans-serif" font-size="13" lengthAdjust="spacing" textLength="80.6787" x="103.9604" y="451.9263">201 Created</text><text fill="#000000" font-family="sans-serif" font-size="13" lengthAdjust="spacing" textLength="103.854" x="103.9604" y="467.0591">Body: Task DTO</text></g><rect fill="#EEEEEE" height="3" style="stroke:#EEEEEE;stroke-width:1;" width="890.3008" x="0" y="507.6914"/><line style="stroke:#000000;stroke-width:1;" x1="0" x2="890.3008" y1="507.6914" y2="507.6914"/><line style="stroke:#000000;stroke-width:1;" x1="0" x2="890.3008" y1="510.6914" y2="510.6914"/><rect fill="#EEEEEE" height="23.1328" style="stroke:#000000;stroke-width:2;" width="243.9565" x="323.1721" y="497.125"/><text fill="#000000" font-family="sans-serif" font-size="13" font-weight="bold" lengthAdjust="spacing" textLength="225.4307" x="329.1721" y="513.1919">Update a Complementary Task</text><g class="message" data-entity-1="part1" data-entity-2="part2" id="msg8"><polygon fill="#181818" points="528.3604,562.5234,538.3604,566.5234,528.3604,570.5234,532.3604,566.5234" style="stroke:#181818;stroke-width:1;"/><line style="stroke:#181818;stroke-width:1;" x1="86.9604" x2="534.3604" y1="566.5234" y2="566.5234"/><text fill="#000000" font-family="sans-serif" font-size="13" lengthAdjust="spacing" textLength="259.8477" x="93.9604" y="546.3247">PUT /api/complementary-tasks/{taskId}</text><text fill="#000000" font-family="sans-serif" font-size="13" lengthAdjust="spacing" textLength="278.7573" x="93.9604" y="561.4575">Body: {fieldsToUpdate, reasonForChange}</text></g><g class="message" data-entity-1="part2" data-entity-2="part2" id="msg9"><line style="stroke:#181818;stroke-width:1;" x1="540.3604" x2="582.3604" y1="595.6563" y2="595.6563"/><line style="stroke:#181818;stroke-width:1;" x1="582.3604" x2="582.3604" y1="595.6563" y2="608.6563"/><line style="stroke:#181818;stroke-width:1;" x1="541.3604" x2="582.3604" y1="608.6563" y2="608.6563"/><polygon fill="#181818" points="551.3604,604.6563,541.3604,608.6563,551.3604,612.6563,547.3604,608.6563" style="stroke:#181818;stroke-width:1;"/><text fill="#000000" font-family="sans-serif" font-size="13" lengthAdjust="spacing" textLength="103.3335" x="547.3604" y="590.5903">Validate update</text></g><path d="M10,623.6563 L74.4429,623.6563 L74.4429,630.7891 L64.4429,640.7891 L10,640.7891 L10,623.6563" fill="#EEEEEE" style="stroke:#000000;stroke-width:1.5;"/><rect fill="none" height="279.1328" style="stroke:#000000;stroke-width:1.5;" width="870.3008" x="10" y="623.6563"/><text fill="#000000" font-family="sans-serif" font-size="13" font-weight="bold" lengthAdjust="spacing" textLength="19.4429" x="25" y="636.7231">alt</text><text fill="#000000" font-family="sans-serif" font-size="11" font-weight="bold" lengthAdjust="spacing" textLength="103.3721" x="89.4429" y="635.8667">[Validation fails]</text><g class="message" data-entity-1="part2" data-entity-2="part1" id="msg10"><polygon fill="#181818" points="97.9604,673.0547,87.9604,677.0547,97.9604,681.0547,93.9604,677.0547" style="stroke:#181818;stroke-width:1;"/><line style="stroke:#181818;stroke-width:1;stroke-dasharray:2,2;" x1="91.9604" x2="539.3604" y1="677.0547" y2="677.0547"/><text fill="#000000" font-family="sans-serif" font-size="13" lengthAdjust="spacing" textLength="111.6045" x="103.9604" y="656.856">400 Bad Request</text><text fill="#000000" font-family="sans-serif" font-size="13" lengthAdjust="spacing" textLength="238.0879" x="103.9604" y="671.9888">Body: {message: "Validation error"}</text></g><line style="stroke:#000000;stroke-width:1;stroke-dasharray:2,2;" x1="10" x2="880.3008" y1="686.0547" y2="686.0547"/><text fill="#000000" font-family="sans-serif" font-size="11" font-weight="bold" lengthAdjust="spacing" textLength="119.4746" x="15" y="696.2651">[Validation passes]</text><g class="message" data-entity-1="part2" data-entity-2="part3" id="msg11"><polygon fill="#181818" points="824.2407,716.9922,834.2407,720.9922,824.2407,724.9922,828.2407,720.9922" style="stroke:#181818;stroke-width:1;"/><line style="stroke:#181818;stroke-width:1;" x1="540.3604" x2="830.2407" y1="720.9922" y2="720.9922"/><text fill="#000000" font-family="sans-serif" font-size="13" lengthAdjust="spacing" textLength="105.5107" x="547.3604" y="715.9263">Fetch task by ID</text></g><g class="message" data-entity-1="part3" data-entity-2="part2" id="msg12"><polygon fill="#181818" points="551.3604,746.125,541.3604,750.125,551.3604,754.125,547.3604,750.125" style="stroke:#181818;stroke-width:1;"/><line style="stroke:#181818;stroke-width:1;stroke-dasharray:2,2;" x1="545.3604" x2="835.2407" y1="750.125" y2="750.125"/><text fill="#000000" font-family="sans-serif" font-size="13" lengthAdjust="spacing" textLength="72.0776" x="557.3604" y="745.0591">Task entity</text></g><g class="message" data-entity-1="part2" data-entity-2="part2" id="msg13"><line style="stroke:#181818;stroke-width:1;" x1="540.3604" x2="582.3604" y1="779.2578" y2="779.2578"/><line style="stroke:#181818;stroke-width:1;" x1="582.3604" x2="582.3604" y1="779.2578" y2="792.2578"/><line style="stroke:#181818;stroke-width:1;" x1="541.3604" x2="582.3604" y1="792.2578" y2="792.2578"/><polygon fill="#181818" points="551.3604,788.2578,541.3604,792.2578,551.3604,796.2578,547.3604,792.2578" style="stroke:#181818;stroke-width:1;"/><text fill="#000000" font-family="sans-serif" font-size="13" lengthAdjust="spacing" textLength="208.73" x="547.3604" y="774.1919">Apply updates, update audit log</text></g><g class="message" data-entity-1="part2" data-entity-2="part3" id="msg14"><polygon fill="#181818" points="824.2407,817.3906,834.2407,821.3906,824.2407,825.3906,828.2407,821.3906" style="stroke:#181818;stroke-width:1;"/><line style="stroke:#181818;stroke-width:1;" x1="540.3604" x2="830.2407" y1="821.3906" y2="821.3906"/><text fill="#000000" font-family="sans-serif" font-size="13" lengthAdjust="spacing" textLength="121.5957" x="547.3604" y="816.3247">Save updated task</text></g><g class="message" data-entity-1="part3" data-entity-2="part2" id="msg15"><polygon fill="#181818" points="551.3604,846.5234,541.3604,850.5234,551.3604,854.5234,547.3604,850.5234" style="stroke:#181818;stroke-width:1;"/><line style="stroke:#181818;stroke-width:1;stroke-dasharray:2,2;" x1="545.3604" x2="835.2407" y1="850.5234" y2="850.5234"/><text fill="#000000" font-family="sans-serif" font-size="13" lengthAdjust="spacing" textLength="135.897" x="557.3604" y="845.4575">Persisted Task entity</text></g><g class="message" data-entity-1="part2" data-entity-2="part1" id="msg16"><polygon fill="#181818" points="97.9604,890.7891,87.9604,894.7891,97.9604,898.7891,93.9604,894.7891" style="stroke:#181818;stroke-width:1;"/><line style="stroke:#181818;stroke-width:1;stroke-dasharray:2,2;" x1="91.9604" x2="539.3604" y1="894.7891" y2="894.7891"/><text fill="#000000" font-family="sans-serif" font-size="13" lengthAdjust="spacing" textLength="47.7026" x="103.9604" y="874.5903">200 OK</text><text fill="#000000" font-family="sans-serif" font-size="13" lengthAdjust="spacing" textLength="163.3188" x="103.9604" y="889.7231">Body: Updated Task DTO</text></g><rect fill="#EEEEEE" height="3" style="stroke:#EEEEEE;stroke-width:1;" width="890.3008" x="0" y="930.3555"/><line style="stroke:#000000;stroke-width:1;" x1="0" x2="890.3008" y1="930.3555" y2="930.3555"/><line style="stroke:#000000;stroke-width:1;" x1="0" x2="890.3008" y1="933.3555" y2="933.3555"/><rect fill="#EEEEEE" height="23.1328" style="stroke:#000000;stroke-width:2;" width="238.8975" x="325.7017" y="919.7891"/><text fill="#000000" font-family="sans-serif" font-size="13" font-weight="bold" lengthAdjust="spacing" textLength="220.3716" x="331.7017" y="935.856">Delete a Complementary Task</text><g class="message" data-entity-1="part1" data-entity-2="part2" id="msg17"><polygon fill="#181818" points="528.3604,970.0547,538.3604,974.0547,528.3604,978.0547,532.3604,974.0547" style="stroke:#181818;stroke-width:1;"/><line style="stroke:#181818;stroke-width:1;" x1="86.9604" x2="534.3604" y1="974.0547" y2="974.0547"/><text fill="#000000" font-family="sans-serif" font-size="13" lengthAdjust="spacing" textLength="429.3999" x="93.9604" y="968.9888">DELETE /api/complementary-tasks/{taskId}?reasonForChange=...</text></g><g class="message" data-entity-1="part2" data-entity-2="part3" id="msg18"><polygon fill="#181818" points="824.2407,999.1875,834.2407,1003.1875,824.2407,1007.1875,828.2407,1003.1875" style="stroke:#181818;stroke-width:1;"/><line style="stroke:#181818;stroke-width:1;" x1="540.3604" x2="830.2407" y1="1003.1875" y2="1003.1875"/><text fill="#000000" font-family="sans-serif" font-size="13" lengthAdjust="spacing" textLength="105.5107" x="547.3604" y="998.1216">Fetch task by ID</text></g><g class="message" data-entity-1="part3" data-entity-2="part2" id="msg19"><polygon fill="#181818" points="551.3604,1028.3203,541.3604,1032.3203,551.3604,1036.3203,547.3604,1032.3203" style="stroke:#181818;stroke-width:1;"/><line style="stroke:#181818;stroke-width:1;stroke-dasharray:2,2;" x1="545.3604" x2="835.2407" y1="1032.3203" y2="1032.3203"/><text fill="#000000" font-family="sans-serif" font-size="13" lengthAdjust="spacing" textLength="72.0776" x="557.3604" y="1027.2544">Task entity</text></g><g class="message" data-entity-1="part2" data-entity-2="part2" id="msg20"><line style="stroke:#181818;stroke-width:1;" x1="540.3604" x2="582.3604" y1="1061.4531" y2="1061.4531"/><line style="stroke:#181818;stroke-width:1;" x1="582.3604" x2="582.3604" y1="1061.4531" y2="1074.4531"/><line style="stroke:#181818;stroke-width:1;" x1="541.3604" x2="582.3604" y1="1074.4531" y2="1074.4531"/><polygon fill="#181818" points="551.3604,1070.4531,541.3604,1074.4531,551.3604,1078.4531,547.3604,1074.4531" style="stroke:#181818;stroke-width:1;"/><text fill="#000000" font-family="sans-serif" font-size="13" lengthAdjust="spacing" textLength="281.8804" x="547.3604" y="1056.3872">Mark as deleted / remove, update audit log</text></g><g class="message" data-entity-1="part2" data-entity-2="part3" id="msg21"><polygon fill="#181818" points="824.2407,1099.5859,834.2407,1103.5859,824.2407,1107.5859,828.2407,1103.5859" style="stroke:#181818;stroke-width:1;"/><line style="stroke:#181818;stroke-width:1;" x1="540.3604" x2="830.2407" y1="1103.5859" y2="1103.5859"/><text fill="#000000" font-family="sans-serif" font-size="13" lengthAdjust="spacing" textLength="88.8037" x="547.3604" y="1098.52">Save deletion</text></g><g class="message" data-entity-1="part3" data-entity-2="part2" id="msg22"><polygon fill="#181818" points="551.3604,1128.7188,541.3604,1132.7188,551.3604,1136.7188,547.3604,1132.7188" style="stroke:#181818;stroke-width:1;"/><line style="stroke:#181818;stroke-width:1;stroke-dasharray:2,2;" x1="545.3604" x2="835.2407" y1="1132.7188" y2="1132.7188"/><text fill="#000000" font-family="sans-serif" font-size="13" lengthAdjust="spacing" textLength="108.3608" x="557.3604" y="1127.6528">Confirm deletion</text></g><g class="message" data-entity-1="part2" data-entity-2="part1" id="msg23"><polygon fill="#181818" points="97.9604,1172.9844,87.9604,1176.9844,97.9604,1180.9844,93.9604,1176.9844" style="stroke:#181818;stroke-width:1;"/><line style="stroke:#181818;stroke-width:1;stroke-dasharray:2,2;" x1="91.9604" x2="539.3604" y1="1176.9844" y2="1176.9844"/><text fill="#000000" font-family="sans-serif" font-size="13" lengthAdjust="spacing" textLength="47.7026" x="103.9604" y="1156.7856">200 OK</text><text fill="#000000" font-family="sans-serif" font-size="13" lengthAdjust="spacing" textLength="158.9517" x="103.9604" y="1171.9185">Body: Deleted Task DTO</text></g><rect fill="#EEEEEE" height="3" style="stroke:#EEEEEE;stroke-width:1;" width="890.3008" x="0" y="1205.5508"/><line style="stroke:#000000;stroke-width:1;" x1="0" x2="890.3008" y1="1205.5508" y2="1205.5508"/><line style="stroke:#000000;stroke-width:1;" x1="0" x2="890.3008" y1="1208.5508" y2="1208.5508"/><rect fill="#EEEEEE" height="23.1328" style="stroke:#000000;stroke-width:2;" width="128.7339" x="380.7834" y="1194.9844"/><text fill="#000000" font-family="sans-serif" font-size="13" font-weight="bold" lengthAdjust="spacing" textLength="110.208" x="386.7834" y="1211.0513">View Audit Log</text><g class="message" data-entity-1="part1" data-entity-2="part2" id="msg24"><polygon fill="#181818" points="528.3604,1245.25,538.3604,1249.25,528.3604,1253.25,532.3604,1249.25" style="stroke:#181818;stroke-width:1;"/><line style="stroke:#181818;stroke-width:1;" x1="86.9604" x2="534.3604" y1="1249.25" y2="1249.25"/><text fill="#000000" font-family="sans-serif" font-size="13" lengthAdjust="spacing" textLength="298.3271" x="93.9604" y="1244.1841">GET /api/complementary-tasks/{taskId}/audit</text></g><path d="M10,1264.25 L74.4429,1264.25 L74.4429,1271.3828 L64.4429,1281.3828 L10,1281.3828 L10,1264.25" fill="#EEEEEE" style="stroke:#000000;stroke-width:1.5;"/><rect fill="none" height="105.3359" style="stroke:#000000;stroke-width:1.5;" width="631.4517" x="10" y="1264.25"/><text fill="#000000" font-family="sans-serif" font-size="13" font-weight="bold" lengthAdjust="spacing" textLength="19.4429" x="25" y="1277.3169">alt</text><text fill="#000000" font-family="sans-serif" font-size="11" font-weight="bold" lengthAdjust="spacing" textLength="83.0103" x="89.4429" y="1276.4604">[Audit found]</text><g class="message" data-entity-1="part2" data-entity-2="part1" id="msg25"><polygon fill="#181818" points="97.9604,1313.6484,87.9604,1317.6484,97.9604,1321.6484,93.9604,1317.6484" style="stroke:#181818;stroke-width:1;"/><line style="stroke:#181818;stroke-width:1;stroke-dasharray:2,2;" x1="91.9604" x2="539.3604" y1="1317.6484" y2="1317.6484"/><text fill="#000000" font-family="sans-serif" font-size="13" lengthAdjust="spacing" textLength="47.7026" x="103.9604" y="1297.4497">200 OK</text><text fill="#000000" font-family="sans-serif" font-size="13" lengthAdjust="spacing" textLength="158.0313" x="103.9604" y="1312.5825">Body: Task audit entries</text></g><line style="stroke:#000000;stroke-width:1;stroke-dasharray:2,2;" x1="10" x2="641.4517" y1="1326.6484" y2="1326.6484"/><text fill="#000000" font-family="sans-serif" font-size="11" font-weight="bold" lengthAdjust="spacing" textLength="103.0283" x="15" y="1336.8589">[Task not found]</text><g class="message" data-entity-1="part2" data-entity-2="part1" id="msg26"><polygon fill="#181818" points="97.9604,1357.5859,87.9604,1361.5859,97.9604,1365.5859,93.9604,1361.5859" style="stroke:#181818;stroke-width:1;"/><line style="stroke:#181818;stroke-width:1;stroke-dasharray:2,2;" x1="91.9604" x2="539.3604" y1="1361.5859" y2="1361.5859"/><text fill="#000000" font-family="sans-serif" font-size="13" lengthAdjust="spacing" textLength="96.0146" x="103.9604" y="1356.52">404 Not Found</text></g><!--SRC=[pLNBRjim4BppAnO-9O2VXNinu1I9xHH1aphmwzGB8wvamXAfafHJ8V2_TqN9ZblRYGFqq9CeQdTsTsP8sPLKAJSyWKGh7IoDJX2SoP3PtHUxv48_InL1o6EBp4aN8qnpwp21AVxCK0K8GycZ8he14moq4S2LW0UkU8Gmq4aQOuBASPF3ZDkLXOlvjDliD3kVBndZWTC6QlSwajR9mC8uHSDfhmRyzOKzwKo90g5s20ZNZtS-kkoBiNuV1WQvG-17waE_pxQuqBZQJjE3n_5q1YsUobQmdzHmHTC_r8qMUGzU0Ysm3W6XHzhaTR2EXs4TrclqQvVPEZYPu9HoNRaSAR5XIbC_HaPBnoP4d3HeUwm1Wme8aimwUAAM0oVNI5-gJBZgl-B1XGmXDNej1OfB2hgNQeK25ejH2O2_Y4Q6b5RKOwmQRd_C1O-bACWfvW9QSSPZjzsMMf7MChOCjYaDojuHreDkkmqtN40n1Lgt8oP1Qqdn7jJseD0OadB3aDopNoBbrk9-ZIiOp2QOQYemvMi4XSz7jAE4AgpnXt9eBCrDH7Y1AK6w_EG0dzgToXzYsxnF6yx61NFUF_DKVDm_yzFsQRqKZpknsT4LIeo5dUcoKXse8QlLhJQ39LSHRjwKBlD9_vbkj-Y2PUcgfnpkXYV4EYxHNi1rciPvDI8TfgoI8XFIGQoZDqnJXWhVmp-oIXl6txPKpIlu0xSCCSQFkcKukX_DHkyRvijVnkWtcqrs3lllSN-4-GTkLiL5Almy0bhaoaGNDzk12ASayAdabAFb1rg5qYIlGUUmFgoQsR5UCBwGT3zS-sxert6IvA-ZCuvaoq_b3rE961O_cpCzuRigQI5m8-bm-3FZz-aEVWUis-x2TugwzL7afzy0]--></g></svg>