<svg xmlns="http://www.w3.org/2000/svg" xmlns:xlink="http://www.w3.org/1999/xlink" contentStyleType="text/css" data-diagram-type="SEQUENCE" height="1492px" preserveAspectRatio="none" style="width:478px;height:1492px;background:#FFFFFF;" version="1.1" viewBox="0 0 478 1492" width="478px" zoomAndPan="magnify"><defs/><g><g><title>Client</title><rect fill="#000000" fill-opacity="0.00000" height="1330.2168" width="8" x="23.7524" y="81.4883"/><line style="stroke:#181818;stroke-width:0.5;stroke-dasharray:5,5;" x1="27" x2="27" y1="81.4883" y2="1411.7051"/></g><g><title>Staff Members Management API</title><rect fill="#000000" fill-opacity="0.00000" height="1330.2168" width="8" x="351.7671" y="81.4883"/><line style="stroke:#181818;stroke-width:0.5;stroke-dasharray:5,5;" x1="355.0361" x2="355.0361" y1="81.4883" y2="1411.7051"/></g><g class="participant participant-head" data-participant="Client"><text fill="#000000" font-family="sans-serif" font-size="14" lengthAdjust="spacing" textLength="39.5049" x="5" y="78.5352">Client</text><ellipse cx="27.7524" cy="13.5" fill="#E2E2F0" rx="8" ry="8" style="stroke:#181818;stroke-width:0.5;"/><path d="M27.7524,21.5 L27.7524,48.5 M14.7524,29.5 L40.7524,29.5 M27.7524,48.5 L14.7524,63.5 M27.7524,48.5 L40.7524,63.5" fill="none" style="stroke:#181818;stroke-width:0.5;"/></g><g class="participant participant-tail" data-participant="Client"><text fill="#000000" font-family="sans-serif" font-size="14" lengthAdjust="spacing" textLength="39.5049" x="5" y="1424.2402">Client</text><ellipse cx="27.7524" cy="1435.6934" fill="#E2E2F0" rx="8" ry="8" style="stroke:#181818;stroke-width:0.5;"/><path d="M27.7524,1443.6934 L27.7524,1470.6934 M14.7524,1451.6934 L40.7524,1451.6934 M27.7524,1470.6934 L14.7524,1485.6934 M27.7524,1470.6934 L40.7524,1485.6934" fill="none" style="stroke:#181818;stroke-width:0.5;"/></g><g class="participant participant-head" data-participant="System"><text fill="#000000" font-family="sans-serif" font-size="14" lengthAdjust="spacing" textLength="215.4619" x="245.0361" y="78.5352">Staff Members Management API</text><path d="M335.2671,37 L335.2671,61 M335.2671,49 L352.2671,49" fill="none" style="stroke:#181818;stroke-width:0.5;"/><ellipse cx="364.2671" cy="49" fill="#E2E2F0" rx="12" ry="12" style="stroke:#181818;stroke-width:0.5;"/></g><g class="participant participant-tail" data-participant="System"><text fill="#000000" font-family="sans-serif" font-size="14" lengthAdjust="spacing" textLength="215.4619" x="245.0361" y="1424.2402">Staff Members Management API</text><path d="M335.2671,1431.1934 L335.2671,1455.1934 M335.2671,1443.1934 L352.2671,1443.1934" fill="none" style="stroke:#181818;stroke-width:0.5;"/><ellipse cx="364.2671" cy="1443.1934" fill="#E2E2F0" rx="12" ry="12" style="stroke:#181818;stroke-width:0.5;"/></g><rect fill="#EEEEEE" height="3" style="stroke:#EEEEEE;stroke-width:1;" width="471.498" x="0" y="112.1436"/><line style="stroke:#000000;stroke-width:1;" x1="0" x2="471.498" y1="112.1436" y2="112.1436"/><line style="stroke:#000000;stroke-width:1;" x1="0" x2="471.498" y1="115.1436" y2="115.1436"/><rect fill="#EEEEEE" height="23.3105" style="stroke:#000000;stroke-width:2;" width="164.376" x="153.561" y="101.4883"/><text fill="#000000" font-family="sans-serif" font-size="13" font-weight="bold" lengthAdjust="spacing" textLength="146.0913" x="159.561" y="118.0566">Get All Staff Members</text><g class="message" data-participant-1="Client" data-participant-2="System"><polygon fill="#181818" points="343.7671,152.1094,353.7671,156.1094,343.7671,160.1094,347.7671,156.1094" style="stroke:#181818;stroke-width:1;"/><line style="stroke:#181818;stroke-width:1;" x1="27.7524" x2="349.7671" y1="156.1094" y2="156.1094"/><text fill="#000000" font-family="sans-serif" font-size="13" lengthAdjust="spacing" textLength="148.6431" x="34.7524" y="151.3672">GET /api/staffmembers</text></g><g class="message" data-participant-1="System" data-participant-2="Client"><polygon fill="#181818" points="38.7524,196.7305,28.7524,200.7305,38.7524,204.7305,34.7524,200.7305" style="stroke:#181818;stroke-width:1;"/><line style="stroke:#181818;stroke-width:1;stroke-dasharray:2,2;" x1="32.7524" x2="354.7671" y1="200.7305" y2="200.7305"/><text fill="#000000" font-family="sans-serif" font-size="13" lengthAdjust="spacing" textLength="47.3599" x="44.7524" y="180.6777">200 OK</text><text fill="#000000" font-family="sans-serif" font-size="13" lengthAdjust="spacing" textLength="145.355" x="44.7524" y="195.9883">List&lt;StaffMemberDto&gt;</text></g><rect fill="#EEEEEE" height="3" style="stroke:#EEEEEE;stroke-width:1;" width="471.498" x="0" y="229.3857"/><line style="stroke:#000000;stroke-width:1;" x1="0" x2="471.498" y1="229.3857" y2="229.3857"/><line style="stroke:#000000;stroke-width:1;" x1="0" x2="471.498" y1="232.3857" y2="232.3857"/><rect fill="#EEEEEE" height="23.3105" style="stroke:#000000;stroke-width:2;" width="173.6689" x="148.9146" y="218.7305"/><text fill="#000000" font-family="sans-serif" font-size="13" font-weight="bold" lengthAdjust="spacing" textLength="155.3843" x="154.9146" y="235.2988">Get Staff Member By ID</text><g class="message" data-participant-1="Client" data-participant-2="System"><polygon fill="#181818" points="343.7671,269.3516,353.7671,273.3516,343.7671,277.3516,347.7671,273.3516" style="stroke:#181818;stroke-width:1;"/><line style="stroke:#181818;stroke-width:1;" x1="27.7524" x2="349.7671" y1="273.3516" y2="273.3516"/><text fill="#000000" font-family="sans-serif" font-size="13" lengthAdjust="spacing" textLength="175.8555" x="34.7524" y="268.6094">GET /api/staffmembers/{id}</text></g><g class="message" data-participant-1="System" data-participant-2="Client"><polygon fill="#181818" points="38.7524,329.2832,28.7524,333.2832,38.7524,337.2832,34.7524,333.2832" style="stroke:#181818;stroke-width:1;"/><line style="stroke:#181818;stroke-width:1;stroke-dasharray:2,2;" x1="32.7524" x2="354.7671" y1="333.2832" y2="333.2832"/><text fill="#000000" font-family="sans-serif" font-size="13" lengthAdjust="spacing" textLength="47.3599" x="44.7524" y="297.9199">200 OK</text><text fill="#000000" font-family="sans-serif" font-size="13" lengthAdjust="spacing" textLength="102.5083" x="44.7524" y="313.2305">StaffMemberDto</text><text fill="#000000" font-family="sans-serif" font-size="13" lengthAdjust="spacing" textLength="117.0444" x="44.7524" y="328.541">OR 404 Not Found</text></g><rect fill="#EEEEEE" height="3" style="stroke:#EEEEEE;stroke-width:1;" width="471.498" x="0" y="361.9385"/><line style="stroke:#000000;stroke-width:1;" x1="0" x2="471.498" y1="361.9385" y2="361.9385"/><line style="stroke:#000000;stroke-width:1;" x1="0" x2="471.498" y1="364.9385" y2="364.9385"/><rect fill="#EEEEEE" height="23.3105" style="stroke:#000000;stroke-width:2;" width="297.6895" x="86.9043" y="351.2832"/><text fill="#000000" font-family="sans-serif" font-size="13" font-weight="bold" lengthAdjust="spacing" textLength="279.4048" x="92.9043" y="367.8516">Get Staff Members By Qualification Codes</text><g class="message" data-participant-1="Client" data-participant-2="System"><polygon fill="#181818" points="343.7671,417.2148,353.7671,421.2148,343.7671,425.2148,347.7671,421.2148" style="stroke:#181818;stroke-width:1;"/><line style="stroke:#181818;stroke-width:1;" x1="27.7524" x2="349.7671" y1="421.2148" y2="421.2148"/><text fill="#000000" font-family="sans-serif" font-size="13" lengthAdjust="spacing" textLength="262.5771" x="34.7524" y="401.1621">GET /api/staffmembers/by-qualifications</text><text fill="#000000" font-family="sans-serif" font-size="13" lengthAdjust="spacing" textLength="122.459" x="34.7524" y="416.4727">Body: CodesListDto</text></g><g class="message" data-participant-1="System" data-participant-2="Client"><polygon fill="#181818" points="38.7524,461.8359,28.7524,465.8359,38.7524,469.8359,34.7524,465.8359" style="stroke:#181818;stroke-width:1;"/><line style="stroke:#181818;stroke-width:1;stroke-dasharray:2,2;" x1="32.7524" x2="354.7671" y1="465.8359" y2="465.8359"/><text fill="#000000" font-family="sans-serif" font-size="13" lengthAdjust="spacing" textLength="47.3599" x="44.7524" y="445.7832">200 OK</text><text fill="#000000" font-family="sans-serif" font-size="13" lengthAdjust="spacing" textLength="145.355" x="44.7524" y="461.0938">List&lt;StaffMemberDto&gt;</text></g><rect fill="#EEEEEE" height="3" style="stroke:#EEEEEE;stroke-width:1;" width="471.498" x="0" y="494.4912"/><line style="stroke:#000000;stroke-width:1;" x1="0" x2="471.498" y1="494.4912" y2="494.4912"/><line style="stroke:#000000;stroke-width:1;" x1="0" x2="471.498" y1="497.4912" y2="497.4912"/><rect fill="#EEEEEE" height="23.3105" style="stroke:#000000;stroke-width:2;" width="337.2925" x="67.1028" y="483.8359"/><text fill="#000000" font-family="sans-serif" font-size="13" font-weight="bold" lengthAdjust="spacing" textLength="319.0078" x="73.1028" y="500.4043">Get Staff Members By Exact Qualification Codes</text><g class="message" data-participant-1="Client" data-participant-2="System"><polygon fill="#181818" points="343.7671,549.7676,353.7671,553.7676,343.7671,557.7676,347.7671,553.7676" style="stroke:#181818;stroke-width:1;"/><line style="stroke:#181818;stroke-width:1;" x1="27.7524" x2="349.7671" y1="553.7676" y2="553.7676"/><text fill="#000000" font-family="sans-serif" font-size="13" lengthAdjust="spacing" textLength="304.0146" x="34.7524" y="533.7148">GET /api/staffmembers/by-exact-qualifications</text><text fill="#000000" font-family="sans-serif" font-size="13" lengthAdjust="spacing" textLength="122.459" x="34.7524" y="549.0254">Body: CodesListDto</text></g><g class="message" data-participant-1="System" data-participant-2="Client"><polygon fill="#181818" points="38.7524,594.3887,28.7524,598.3887,38.7524,602.3887,34.7524,598.3887" style="stroke:#181818;stroke-width:1;"/><line style="stroke:#181818;stroke-width:1;stroke-dasharray:2,2;" x1="32.7524" x2="354.7671" y1="598.3887" y2="598.3887"/><text fill="#000000" font-family="sans-serif" font-size="13" lengthAdjust="spacing" textLength="47.3599" x="44.7524" y="578.3359">200 OK</text><text fill="#000000" font-family="sans-serif" font-size="13" lengthAdjust="spacing" textLength="145.355" x="44.7524" y="593.6465">List&lt;StaffMemberDto&gt;</text></g><rect fill="#EEEEEE" height="3" style="stroke:#EEEEEE;stroke-width:1;" width="471.498" x="0" y="627.0439"/><line style="stroke:#000000;stroke-width:1;" x1="0" x2="471.498" y1="627.0439" y2="627.0439"/><line style="stroke:#000000;stroke-width:1;" x1="0" x2="471.498" y1="630.0439" y2="630.0439"/><rect fill="#EEEEEE" height="23.3105" style="stroke:#000000;stroke-width:2;" width="317.856" x="76.821" y="616.3887"/><text fill="#000000" font-family="sans-serif" font-size="13" font-weight="bold" lengthAdjust="spacing" textLength="299.5713" x="82.821" y="632.957">Get Staff Member By Mecanographic Number</text><g class="message" data-participant-1="Client" data-participant-2="System"><polygon fill="#181818" points="343.7671,667.0098,353.7671,671.0098,343.7671,675.0098,347.7671,671.0098" style="stroke:#181818;stroke-width:1;"/><line style="stroke:#181818;stroke-width:1;" x1="27.7524" x2="349.7671" y1="671.0098" y2="671.0098"/><text fill="#000000" font-family="sans-serif" font-size="13" lengthAdjust="spacing" textLength="222.8091" x="34.7524" y="666.2676">GET /api/staffmembers/mec/{mec}</text></g><g class="message" data-participant-1="System" data-participant-2="Client"><polygon fill="#181818" points="38.7524,726.9414,28.7524,730.9414,38.7524,734.9414,34.7524,730.9414" style="stroke:#181818;stroke-width:1;"/><line style="stroke:#181818;stroke-width:1;stroke-dasharray:2,2;" x1="32.7524" x2="354.7671" y1="730.9414" y2="730.9414"/><text fill="#000000" font-family="sans-serif" font-size="13" lengthAdjust="spacing" textLength="47.3599" x="44.7524" y="695.5781">200 OK</text><text fill="#000000" font-family="sans-serif" font-size="13" lengthAdjust="spacing" textLength="102.5083" x="44.7524" y="710.8887">StaffMemberDto</text><text fill="#000000" font-family="sans-serif" font-size="13" lengthAdjust="spacing" textLength="117.0444" x="44.7524" y="726.1992">OR 404 Not Found</text></g><rect fill="#EEEEEE" height="3" style="stroke:#EEEEEE;stroke-width:1;" width="471.498" x="0" y="759.5967"/><line style="stroke:#000000;stroke-width:1;" x1="0" x2="471.498" y1="759.5967" y2="759.5967"/><line style="stroke:#000000;stroke-width:1;" x1="0" x2="471.498" y1="762.5967" y2="762.5967"/><rect fill="#EEEEEE" height="23.3105" style="stroke:#000000;stroke-width:2;" width="204.2583" x="133.6199" y="748.9414"/><text fill="#000000" font-family="sans-serif" font-size="13" font-weight="bold" lengthAdjust="spacing" textLength="185.9736" x="139.6199" y="765.5098">Get Staff Members By Name</text><g class="message" data-participant-1="Client" data-participant-2="System"><polygon fill="#181818" points="343.7671,799.5625,353.7671,803.5625,343.7671,807.5625,347.7671,803.5625" style="stroke:#181818;stroke-width:1;"/><line style="stroke:#181818;stroke-width:1;" x1="27.7524" x2="349.7671" y1="803.5625" y2="803.5625"/><text fill="#000000" font-family="sans-serif" font-size="13" lengthAdjust="spacing" textLength="239.9858" x="34.7524" y="798.8203">GET /api/staffmembers/name/{name}</text></g><g class="message" data-participant-1="System" data-participant-2="Client"><polygon fill="#181818" points="38.7524,859.4941,28.7524,863.4941,38.7524,867.4941,34.7524,863.4941" style="stroke:#181818;stroke-width:1;"/><line style="stroke:#181818;stroke-width:1;stroke-dasharray:2,2;" x1="32.7524" x2="354.7671" y1="863.4941" y2="863.4941"/><text fill="#000000" font-family="sans-serif" font-size="13" lengthAdjust="spacing" textLength="47.3599" x="44.7524" y="828.1309">200 OK</text><text fill="#000000" font-family="sans-serif" font-size="13" lengthAdjust="spacing" textLength="145.355" x="44.7524" y="843.4414">List&lt;StaffMemberDto&gt;</text><text fill="#000000" font-family="sans-serif" font-size="13" lengthAdjust="spacing" textLength="117.0444" x="44.7524" y="858.752">OR 404 Not Found</text></g><rect fill="#EEEEEE" height="3" style="stroke:#EEEEEE;stroke-width:1;" width="471.498" x="0" y="892.1494"/><line style="stroke:#000000;stroke-width:1;" x1="0" x2="471.498" y1="892.1494" y2="892.1494"/><line style="stroke:#000000;stroke-width:1;" x1="0" x2="471.498" y1="895.1494" y2="895.1494"/><rect fill="#EEEEEE" height="23.3105" style="stroke:#000000;stroke-width:2;" width="207.8955" x="131.8013" y="881.4941"/><text fill="#000000" font-family="sans-serif" font-size="13" font-weight="bold" lengthAdjust="spacing" textLength="189.6108" x="137.8013" y="898.0625">Get Staff Members By Status</text><g class="message" data-participant-1="Client" data-participant-2="System"><polygon fill="#181818" points="343.7671,932.1152,353.7671,936.1152,343.7671,940.1152,347.7671,936.1152" style="stroke:#181818;stroke-width:1;"/><line style="stroke:#181818;stroke-width:1;" x1="27.7524" x2="349.7671" y1="936.1152" y2="936.1152"/><text fill="#000000" font-family="sans-serif" font-size="13" lengthAdjust="spacing" textLength="247.1841" x="34.7524" y="931.373">GET /api/staffmembers/status/{status}</text></g><g class="message" data-participant-1="System" data-participant-2="Client"><polygon fill="#181818" points="38.7524,976.7363,28.7524,980.7363,38.7524,984.7363,34.7524,980.7363" style="stroke:#181818;stroke-width:1;"/><line style="stroke:#181818;stroke-width:1;stroke-dasharray:2,2;" x1="32.7524" x2="354.7671" y1="980.7363" y2="980.7363"/><text fill="#000000" font-family="sans-serif" font-size="13" lengthAdjust="spacing" textLength="47.3599" x="44.7524" y="960.6836">200 OK</text><text fill="#000000" font-family="sans-serif" font-size="13" lengthAdjust="spacing" textLength="145.355" x="44.7524" y="975.9941">List&lt;StaffMemberDto&gt;</text></g><rect fill="#EEEEEE" height="3" style="stroke:#EEEEEE;stroke-width:1;" width="471.498" x="0" y="1009.3916"/><line style="stroke:#000000;stroke-width:1;" x1="0" x2="471.498" y1="1009.3916" y2="1009.3916"/><line style="stroke:#000000;stroke-width:1;" x1="0" x2="471.498" y1="1012.3916" y2="1012.3916"/><rect fill="#EEEEEE" height="23.3105" style="stroke:#000000;stroke-width:2;" width="155.4512" x="158.0234" y="998.7363"/><text fill="#000000" font-family="sans-serif" font-size="13" font-weight="bold" lengthAdjust="spacing" textLength="137.1665" x="164.0234" y="1015.3047">Create Staff Member</text><g class="message" data-participant-1="Client" data-participant-2="System"><polygon fill="#181818" points="343.7671,1064.668,353.7671,1068.668,343.7671,1072.668,347.7671,1068.668" style="stroke:#181818;stroke-width:1;"/><line style="stroke:#181818;stroke-width:1;" x1="27.7524" x2="349.7671" y1="1068.668" y2="1068.668"/><text fill="#000000" font-family="sans-serif" font-size="13" lengthAdjust="spacing" textLength="156.4888" x="34.7524" y="1048.6152">POST /api/staffmembers</text><text fill="#000000" font-family="sans-serif" font-size="13" lengthAdjust="spacing" textLength="194.7017" x="34.7524" y="1063.9258">Body: CreatingStaffMemberDto</text></g><g class="message" data-participant-1="System" data-participant-2="Client"><polygon fill="#181818" points="38.7524,1109.2891,28.7524,1113.2891,38.7524,1117.2891,34.7524,1113.2891" style="stroke:#181818;stroke-width:1;"/><line style="stroke:#181818;stroke-width:1;stroke-dasharray:2,2;" x1="32.7524" x2="354.7671" y1="1113.2891" y2="1113.2891"/><text fill="#000000" font-family="sans-serif" font-size="13" lengthAdjust="spacing" textLength="77.7969" x="44.7524" y="1093.2363">201 Created</text><text fill="#000000" font-family="sans-serif" font-size="13" lengthAdjust="spacing" textLength="102.5083" x="44.7524" y="1108.5469">StaffMemberDto</text></g><rect fill="#EEEEEE" height="3" style="stroke:#EEEEEE;stroke-width:1;" width="471.498" x="0" y="1141.9443"/><line style="stroke:#000000;stroke-width:1;" x1="0" x2="471.498" y1="1141.9443" y2="1141.9443"/><line style="stroke:#000000;stroke-width:1;" x1="0" x2="471.498" y1="1144.9443" y2="1144.9443"/><rect fill="#EEEEEE" height="23.3105" style="stroke:#000000;stroke-width:2;" width="159.4629" x="156.0176" y="1131.2891"/><text fill="#000000" font-family="sans-serif" font-size="13" font-weight="bold" lengthAdjust="spacing" textLength="141.1782" x="162.0176" y="1147.8574">Update Staff Member</text><g class="message" data-participant-1="Client" data-participant-2="System"><polygon fill="#181818" points="343.7671,1197.2207,353.7671,1201.2207,343.7671,1205.2207,347.7671,1201.2207" style="stroke:#181818;stroke-width:1;"/><line style="stroke:#181818;stroke-width:1;" x1="27.7524" x2="349.7671" y1="1201.2207" y2="1201.2207"/><text fill="#000000" font-family="sans-serif" font-size="13" lengthAdjust="spacing" textLength="205.7466" x="34.7524" y="1181.168">PUT /api/staffmembers/update/</text><text fill="#000000" font-family="sans-serif" font-size="13" lengthAdjust="spacing" textLength="185.8276" x="34.7524" y="1196.4785">Body: UpdateStaffMemberDto</text></g><g class="message" data-participant-1="System" data-participant-2="Client"><polygon fill="#181818" points="38.7524,1257.1523,28.7524,1261.1523,38.7524,1265.1523,34.7524,1261.1523" style="stroke:#181818;stroke-width:1;"/><line style="stroke:#181818;stroke-width:1;stroke-dasharray:2,2;" x1="32.7524" x2="354.7671" y1="1261.1523" y2="1261.1523"/><text fill="#000000" font-family="sans-serif" font-size="13" lengthAdjust="spacing" textLength="47.3599" x="44.7524" y="1225.7891">200 OK</text><text fill="#000000" font-family="sans-serif" font-size="13" lengthAdjust="spacing" textLength="102.5083" x="44.7524" y="1241.0996">StaffMemberDto</text><text fill="#000000" font-family="sans-serif" font-size="13" lengthAdjust="spacing" textLength="117.0444" x="44.7524" y="1256.4102">OR 404 Not Found</text></g><rect fill="#EEEEEE" height="3" style="stroke:#EEEEEE;stroke-width:1;" width="471.498" x="0" y="1289.8076"/><line style="stroke:#000000;stroke-width:1;" x1="0" x2="471.498" y1="1289.8076" y2="1289.8076"/><line style="stroke:#000000;stroke-width:1;" x1="0" x2="471.498" y1="1292.8076" y2="1292.8076"/><rect fill="#EEEEEE" height="23.3105" style="stroke:#000000;stroke-width:2;" width="204.1821" x="133.658" y="1279.1523"/><text fill="#000000" font-family="sans-serif" font-size="13" font-weight="bold" lengthAdjust="spacing" textLength="185.8975" x="139.658" y="1295.7207">Toggle Staff Member Status</text><g class="message" data-participant-1="Client" data-participant-2="System"><polygon fill="#181818" points="343.7671,1329.7734,353.7671,1333.7734,343.7671,1337.7734,347.7671,1333.7734" style="stroke:#181818;stroke-width:1;"/><line style="stroke:#181818;stroke-width:1;" x1="27.7524" x2="349.7671" y1="1333.7734" y2="1333.7734"/><text fill="#000000" font-family="sans-serif" font-size="13" lengthAdjust="spacing" textLength="236.5835" x="34.7524" y="1329.0313">PUT /api/staffmembers/toggle/{mec}</text></g><g class="message" data-participant-1="System" data-participant-2="Client"><polygon fill="#181818" points="38.7524,1389.7051,28.7524,1393.7051,38.7524,1397.7051,34.7524,1393.7051" style="stroke:#181818;stroke-width:1;"/><line style="stroke:#181818;stroke-width:1;stroke-dasharray:2,2;" x1="32.7524" x2="354.7671" y1="1393.7051" y2="1393.7051"/><text fill="#000000" font-family="sans-serif" font-size="13" lengthAdjust="spacing" textLength="47.3599" x="44.7524" y="1358.3418">200 OK</text><text fill="#000000" font-family="sans-serif" font-size="13" lengthAdjust="spacing" textLength="102.5083" x="44.7524" y="1373.6523">StaffMemberDto</text><text fill="#000000" font-family="sans-serif" font-size="13" lengthAdjust="spacing" textLength="117.0444" x="44.7524" y="1388.9629">OR 404 Not Found</text></g><!--SRC=[lP9TQy8m58Rl-oiEtalSy4fMOLOdilcngNVUn3PsWJPnJGehnV- -V7HYfHCpt6xIafpplW_lEJYKF8DMa532P0km0FlhRNdE8fmLq5fAlDl1bAHRaWcOOePZageIU5nCJCUo49AadkVxC2RgEacWtkFxdbM5Th-gXXwCHoj0U4-HqCMfhVMgvxQgh7fwSD_fmFnvmrwea0z6sYeF9UyVRKyjOL30PEZYYqeQ7IwQrtqtRFu6tKuNPbp2aywg4KHeajSS9tH7GomfPn3mY3X5WhP5- -DKGcpOW4T5pqhfK1JGRO8plADF7CfRK1Cjz6_i6drAGinudE7zEmrXbfjx5-gKXAXKnr_jmWodn0c8gGPKwlFW79CBcBgGkTk4XMb1fVqUVZV582DOaleWco4MysK3nN6Vj0vbSTtZ1wQxoZOw7wL1Mk-ZQv7MJRdafXzzarcvgxWSjcl5upWvWxmumsPMQMHkiV9V]--></g></svg>