<svg xmlns="http://www.w3.org/2000/svg" xmlns:xlink="http://www.w3.org/1999/xlink" contentStyleType="text/css" data-diagram-type="CLASS" height="488px" preserveAspectRatio="none" style="width:836px;height:488px;background:#FFFFFF;" version="1.1" viewBox="0 0 836 488" width="836px" zoomAndPan="magnify"><title>US 4.1.13 - Incident Management (Domain Excerpt)</title><defs/><g><g class="title" data-source-line="3"><text fill="#000000" font-family="sans-serif" font-size="14" font-weight="bold" lengthAdjust="spacing" textLength="369.0518" x="226.8457" y="23.5352">US 4.1.13 - Incident Management (Domain Excerpt)</text></g><!--class Incident--><g class="entity" data-entity="Incident" data-source-line="5" data-uid="ent0002" id="entity_Incident"><rect fill="#F1F1F1" height="229.3711" rx="2.5" ry="2.5" style="stroke:#181818;stroke-width:0.5;" width="292.1709" x="7" y="44.4883"/><ellipse cx="121.5977" cy="60.4883" fill="#C2C2C2" rx="11" ry="11" style="stroke:#181818;stroke-width:1;"/><path d="M124.5708,66.1313 Q123.9897,66.4302 123.3506,66.5796 Q122.7114,66.729 122.0059,66.729 Q119.499,66.729 118.1792,65.0771 Q116.8594,63.4253 116.8594,60.3042 Q116.8594,57.1748 118.1792,55.5229 Q119.499,53.8711 122.0059,53.8711 Q122.7114,53.8711 123.3589,54.0205 Q124.0063,54.1699 124.5708,54.4688 L124.5708,57.1914 Q123.9399,56.6104 123.3464,56.3406 Q122.7529,56.0708 122.1221,56.0708 Q120.7773,56.0708 120.0925,57.1375 Q119.4077,58.2041 119.4077,60.3042 Q119.4077,62.396 120.0925,63.4626 Q120.7773,64.5293 122.1221,64.5293 Q122.7529,64.5293 123.3464,64.2595 Q123.9399,63.9897 124.5708,63.4087 Z " fill="#000000"/><text fill="#000000" font-family="sans-serif" font-size="14" lengthAdjust="spacing" textLength="54.4756" x="142.0977" y="65.7793">Incident</text><line style="stroke:#181818;stroke-width:0.5;" x1="8" x2="298.1709" y1="76.4883" y2="76.4883"/><ellipse cx="18" cy="90.2324" fill="none" rx="3" ry="3" style="stroke:#545454;stroke-width:1;"/><text fill="#000000" font-family="sans-serif" font-size="14" lengthAdjust="spacing" textLength="116.1631" x="27" y="94.0234">incidentId: String</text><ellipse cx="18" cy="106.7207" fill="none" rx="3" ry="3" style="stroke:#545454;stroke-width:1;"/><text fill="#000000" font-family="sans-serif" font-size="14" lengthAdjust="spacing" textLength="170.9941" x="27" y="110.5117">incidentTypeCode: String</text><ellipse cx="18" cy="123.209" fill="none" rx="3" ry="3" style="stroke:#545454;stroke-width:1;"/><text fill="#000000" font-family="sans-serif" font-size="14" lengthAdjust="spacing" textLength="138.7217" x="27" y="127">startTime: DateTime</text><ellipse cx="18" cy="139.6973" fill="none" rx="3" ry="3" style="stroke:#545454;stroke-width:1;"/><text fill="#000000" font-family="sans-serif" font-size="14" lengthAdjust="spacing" textLength="173.0518" x="27" y="143.4883">endTime: DateTime [0..1]</text><ellipse cx="18" cy="156.1855" fill="none" rx="3" ry="3" style="stroke:#545454;stroke-width:1;"/><text fill="#000000" font-family="sans-serif" font-size="14" lengthAdjust="spacing" textLength="213.8896" x="27" y="159.9766">durationMinutes: long [derived]</text><ellipse cx="18" cy="172.6738" fill="none" rx="3" ry="3" style="stroke:#545454;stroke-width:1;"/><text fill="#000000" font-family="sans-serif" font-size="14" lengthAdjust="spacing" textLength="113.8799" x="27" y="176.4648">severity: Severity</text><ellipse cx="18" cy="189.1621" fill="none" rx="3" ry="3" style="stroke:#545454;stroke-width:1;"/><text fill="#000000" font-family="sans-serif" font-size="14" lengthAdjust="spacing" textLength="124.9063" x="27" y="192.9531">description: String</text><ellipse cx="18" cy="205.6504" fill="none" rx="3" ry="3" style="stroke:#545454;stroke-width:1;"/><text fill="#000000" font-family="sans-serif" font-size="14" lengthAdjust="spacing" textLength="157.6846" x="27" y="209.4414">createdByUserId: String</text><ellipse cx="18" cy="222.1387" fill="none" rx="3" ry="3" style="stroke:#545454;stroke-width:1;"/><text fill="#000000" font-family="sans-serif" font-size="14" lengthAdjust="spacing" textLength="175.5195" x="27" y="225.9297">impactMode: ImpactMode</text><ellipse cx="18" cy="238.627" fill="none" rx="3" ry="3" style="stroke:#545454;stroke-width:1;"/><text fill="#000000" font-family="sans-serif" font-size="14" lengthAdjust="spacing" textLength="266.1709" x="27" y="242.418">upcomingWindowStart: DateTime [0..1]</text><ellipse cx="18" cy="255.1152" fill="none" rx="3" ry="3" style="stroke:#545454;stroke-width:1;"/><text fill="#000000" font-family="sans-serif" font-size="14" lengthAdjust="spacing" textLength="259.7861" x="27" y="258.9063">upcomingWindowEnd: DateTime [0..1]</text><line style="stroke:#181818;stroke-width:0.5;" x1="8" x2="298.1709" y1="265.8594" y2="265.8594"/></g><!--class IncidentType--><g class="entity" data-entity="IncidentType" data-source-line="19" data-uid="ent0003" id="entity_IncidentType"><rect fill="#F1F1F1" height="130.4414" rx="2.5" ry="2.5" style="stroke:#181818;stroke-width:0.5;" width="193.8223" x="56.17" y="350.8583"/><ellipse cx="105.2042" cy="366.8583" fill="#C2C2C2" rx="11" ry="11" style="stroke:#181818;stroke-width:1;"/><path d="M108.1773,372.5013 Q107.5963,372.8002 106.9571,372.9496 Q106.3179,373.099 105.6124,373.099 Q103.1055,373.099 101.7857,371.4471 Q100.4659,369.7953 100.4659,366.6742 Q100.4659,363.5448 101.7857,361.8929 Q103.1055,360.2411 105.6124,360.2411 Q106.3179,360.2411 106.9654,360.3905 Q107.6129,360.5399 108.1773,360.8388 L108.1773,363.5614 Q107.5465,362.9804 106.953,362.7106 Q106.3595,362.4408 105.7286,362.4408 Q104.3839,362.4408 103.6991,363.5075 Q103.0142,364.5741 103.0142,366.6742 Q103.0142,368.766 103.6991,369.8326 Q104.3839,370.8993 105.7286,370.8993 Q106.3595,370.8993 106.953,370.6295 Q107.5465,370.3597 108.1773,369.7787 Z " fill="#000000"/><text fill="#000000" font-family="sans-serif" font-size="14" lengthAdjust="spacing" textLength="87.2539" x="125.7042" y="372.1493">IncidentType</text><line style="stroke:#181818;stroke-width:0.5;" x1="57.17" x2="248.9923" y1="382.8583" y2="382.8583"/><ellipse cx="67.17" cy="396.6024" fill="none" rx="3" ry="3" style="stroke:#545454;stroke-width:1;"/><text fill="#000000" font-family="sans-serif" font-size="14" lengthAdjust="spacing" textLength="81.2109" x="76.17" y="400.3934">code: String</text><ellipse cx="67.17" cy="413.0907" fill="none" rx="3" ry="3" style="stroke:#545454;stroke-width:1;"/><text fill="#000000" font-family="sans-serif" font-size="14" lengthAdjust="spacing" textLength="86.1191" x="76.17" y="416.8817">name: String</text><ellipse cx="67.17" cy="429.579" fill="none" rx="3" ry="3" style="stroke:#545454;stroke-width:1;"/><text fill="#000000" font-family="sans-serif" font-size="14" lengthAdjust="spacing" textLength="124.9063" x="76.17" y="433.37">description: String</text><ellipse cx="67.17" cy="446.0673" fill="none" rx="3" ry="3" style="stroke:#545454;stroke-width:1;"/><text fill="#000000" font-family="sans-serif" font-size="14" lengthAdjust="spacing" textLength="113.8799" x="76.17" y="449.8583">severity: Severity</text><ellipse cx="67.17" cy="462.5555" fill="none" rx="3" ry="3" style="stroke:#545454;stroke-width:1;"/><text fill="#000000" font-family="sans-serif" font-size="14" lengthAdjust="spacing" textLength="167.8223" x="76.17" y="466.3466">parentCode: String [0..1]</text><line style="stroke:#181818;stroke-width:0.5;" x1="57.17" x2="248.9923" y1="473.2997" y2="473.2997"/></g><!--class VVE--><g class="entity" data-entity="VVE" data-source-line="27" data-uid="ent0004" id="entity_VVE"><rect fill="#F1F1F1" height="146.9297" rx="2.5" ry="2.5" style="stroke:#181818;stroke-width:0.5;" width="226.0332" x="334.07" y="85.7083"/><ellipse cx="429.8893" cy="101.7083" fill="#C2C2C2" rx="11" ry="11" style="stroke:#181818;stroke-width:1;"/><path d="M432.8625,107.3513 Q432.2814,107.6502 431.6423,107.7996 Q431.0031,107.949 430.2975,107.949 Q427.7907,107.949 426.4709,106.2971 Q425.1511,104.6453 425.1511,101.5242 Q425.1511,98.3948 426.4709,96.7429 Q427.7907,95.0911 430.2975,95.0911 Q431.0031,95.0911 431.6506,95.2405 Q432.298,95.3899 432.8625,95.6888 L432.8625,98.4114 Q432.2316,97.8304 431.6381,97.5606 Q431.0446,97.2908 430.4138,97.2908 Q429.069,97.2908 428.3842,98.3575 Q427.6994,99.4241 427.6994,101.5242 Q427.6994,103.616 428.3842,104.6826 Q429.069,105.7493 430.4138,105.7493 Q431.0446,105.7493 431.6381,105.4795 Q432.2316,105.2097 432.8625,104.6287 Z " fill="#000000"/><text fill="#000000" font-family="sans-serif" font-size="14" lengthAdjust="spacing" textLength="25.8945" x="450.3893" y="106.9993">VVE</text><line style="stroke:#181818;stroke-width:0.5;" x1="335.07" x2="559.1032" y1="117.7083" y2="117.7083"/><ellipse cx="345.07" cy="131.4524" fill="none" rx="3" ry="3" style="stroke:#545454;stroke-width:1;"/><text fill="#000000" font-family="sans-serif" font-size="14" lengthAdjust="spacing" textLength="83.9658" x="354.07" y="135.2434">vveId: String</text><ellipse cx="345.07" cy="147.9407" fill="none" rx="3" ry="3" style="stroke:#545454;stroke-width:1;"/><text fill="#000000" font-family="sans-serif" font-size="14" lengthAdjust="spacing" textLength="102.8398" x="354.07" y="151.7317">vesselId: String</text><ellipse cx="345.07" cy="164.429" fill="none" rx="3" ry="3" style="stroke:#545454;stroke-width:1;"/><text fill="#000000" font-family="sans-serif" font-size="14" lengthAdjust="spacing" textLength="200.0332" x="354.07" y="168.22">plannedStart: DateTime [0..1]</text><ellipse cx="345.07" cy="180.9173" fill="none" rx="3" ry="3" style="stroke:#545454;stroke-width:1;"/><text fill="#000000" font-family="sans-serif" font-size="14" lengthAdjust="spacing" textLength="193.6484" x="354.07" y="184.7083">plannedEnd: DateTime [0..1]</text><ellipse cx="345.07" cy="197.4055" fill="none" rx="3" ry="3" style="stroke:#545454;stroke-width:1;"/><text fill="#000000" font-family="sans-serif" font-size="14" lengthAdjust="spacing" textLength="186.0605" x="354.07" y="201.1966">actualStart: DateTime [0..1]</text><ellipse cx="345.07" cy="213.8938" fill="none" rx="3" ry="3" style="stroke:#545454;stroke-width:1;"/><text fill="#000000" font-family="sans-serif" font-size="14" lengthAdjust="spacing" textLength="179.6758" x="354.07" y="217.6848">actualEnd: DateTime [0..1]</text><line style="stroke:#181818;stroke-width:0.5;" x1="335.07" x2="559.1032" y1="224.638" y2="224.638"/></g><!--class IncidentAffectedVVE--><g class="entity" data-entity="IncidentAffectedVVE" data-source-line="36" data-uid="ent0005" id="entity_IncidentAffectedVVE"><rect fill="#F1F1F1" height="113.9531" rx="2.5" ry="2.5" style="stroke:#181818;stroke-width:0.5;" width="231.9121" x="308.13" y="359.0983"/><ellipse cx="351.3763" cy="375.0983" fill="#C2C2C2" rx="11" ry="11" style="stroke:#181818;stroke-width:1;"/><path d="M354.3494,380.7413 Q353.7684,381.0402 353.1292,381.1896 Q352.4901,381.339 351.7845,381.339 Q349.2777,381.339 347.9578,379.6871 Q346.638,378.0353 346.638,374.9142 Q346.638,371.7848 347.9578,370.1329 Q349.2777,368.4811 351.7845,368.4811 Q352.4901,368.4811 353.1375,368.6305 Q353.785,368.7799 354.3494,369.0788 L354.3494,371.8014 Q353.7186,371.2204 353.1251,370.9506 Q352.5316,370.6808 351.9007,370.6808 Q350.556,370.6808 349.8712,371.7475 Q349.1863,372.8141 349.1863,374.9142 Q349.1863,377.006 349.8712,378.0726 Q350.556,379.1393 351.9007,379.1393 Q352.5316,379.1393 353.1251,378.8695 Q353.7186,378.5997 354.3494,378.0187 Z " fill="#000000"/><text fill="#000000" font-family="sans-serif" font-size="14" lengthAdjust="spacing" textLength="137.1426" x="371.6532" y="380.3893">IncidentAffectedVVE</text><line style="stroke:#181818;stroke-width:0.5;" x1="309.13" x2="539.0421" y1="391.0983" y2="391.0983"/><ellipse cx="319.13" cy="404.8424" fill="none" rx="3" ry="3" style="stroke:#545454;stroke-width:1;"/><text fill="#000000" font-family="sans-serif" font-size="14" lengthAdjust="spacing" textLength="116.1631" x="328.13" y="408.6334">incidentId: String</text><ellipse cx="319.13" cy="421.3307" fill="none" rx="3" ry="3" style="stroke:#545454;stroke-width:1;"/><text fill="#000000" font-family="sans-serif" font-size="14" lengthAdjust="spacing" textLength="83.9658" x="328.13" y="425.1217">vveId: String</text><ellipse cx="319.13" cy="437.819" fill="none" rx="3" ry="3" style="stroke:#545454;stroke-width:1;"/><text fill="#000000" font-family="sans-serif" font-size="14" lengthAdjust="spacing" textLength="187.2842" x="328.13" y="441.61">attachedAt: DateTime [0..1]</text><ellipse cx="319.13" cy="454.3073" fill="none" rx="3" ry="3" style="stroke:#545454;stroke-width:1;"/><text fill="#000000" font-family="sans-serif" font-size="14" lengthAdjust="spacing" textLength="205.9121" x="328.13" y="458.0983">attachedByUserId: String [0..1]</text><line style="stroke:#181818;stroke-width:0.5;" x1="309.13" x2="539.0421" y1="465.0514" y2="465.0514"/></g><!--class Severity--><g class="entity" data-entity="Severity" data-source-line="43" data-uid="ent0006" id="entity_Severity"><rect fill="#F1F1F1" height="97.4648" rx="2.5" ry="2.5" style="stroke:#181818;stroke-width:0.5;" width="84.7119" x="594.73" y="110.4383"/><ellipse cx="609.73" cy="126.4383" fill="#ABABAB" rx="11" ry="11" style="stroke:#181818;stroke-width:1;"/><path d="M613.8443,132.4383 L606.1245,132.4383 L606.1245,120.0452 L613.8443,120.0452 L613.8443,122.2034 L608.5733,122.2034 L608.5733,124.8763 L613.3462,124.8763 L613.3462,127.0345 L608.5733,127.0345 L608.5733,130.2801 L613.8443,130.2801 Z " fill="#000000"/><text fill="#000000" font-family="sans-serif" font-size="14" lengthAdjust="spacing" textLength="52.7119" x="623.73" y="131.7293">Severity</text><line style="stroke:#181818;stroke-width:0.5;" x1="595.73" x2="678.4419" y1="142.4383" y2="142.4383"/><text fill="#000000" font-family="sans-serif" font-size="14" lengthAdjust="spacing" textLength="39.1221" x="600.73" y="159.9734">Minor</text><text fill="#000000" font-family="sans-serif" font-size="14" lengthAdjust="spacing" textLength="38.377" x="600.73" y="176.4617">Major</text><text fill="#000000" font-family="sans-serif" font-size="14" lengthAdjust="spacing" textLength="47.6943" x="600.73" y="192.95">Critical</text><line style="stroke:#181818;stroke-width:0.5;" x1="595.73" x2="678.4419" y1="199.9031" y2="199.9031"/></g><!--class ImpactMode--><g class="entity" data-entity="ImpactMode" data-source-line="49" data-uid="ent0007" id="entity_ImpactMode"><rect fill="#F1F1F1" height="97.4648" rx="2.5" ry="2.5" style="stroke:#181818;stroke-width:0.5;" width="115.3232" x="714.42" y="110.4383"/><ellipse cx="729.42" cy="126.4383" fill="#ABABAB" rx="11" ry="11" style="stroke:#181818;stroke-width:1;"/><path d="M733.5343,132.4383 L725.8145,132.4383 L725.8145,120.0452 L733.5343,120.0452 L733.5343,122.2034 L728.2633,122.2034 L728.2633,124.8763 L733.0362,124.8763 L733.0362,127.0345 L728.2633,127.0345 L728.2633,130.2801 L733.5343,130.2801 Z " fill="#000000"/><text fill="#000000" font-family="sans-serif" font-size="14" lengthAdjust="spacing" textLength="83.3232" x="743.42" y="131.7293">ImpactMode</text><line style="stroke:#181818;stroke-width:0.5;" x1="715.42" x2="828.7432" y1="142.4383" y2="142.4383"/><text fill="#000000" font-family="sans-serif" font-size="14" lengthAdjust="spacing" textLength="98.2939" x="720.42" y="159.9734">ALL_ONGOING</text><text fill="#000000" font-family="sans-serif" font-size="14" lengthAdjust="spacing" textLength="98.2461" x="720.42" y="176.4617">SPECIFIC_VVES</text><text fill="#000000" font-family="sans-serif" font-size="14" lengthAdjust="spacing" textLength="74.5527" x="720.42" y="192.95">UPCOMING</text><line style="stroke:#181818;stroke-width:0.5;" x1="715.42" x2="828.7432" y1="199.9031" y2="199.9031"/></g><!--link Incident to IncidentType--><g class="link" data-entity-1="Incident" data-entity-2="IncidentType" data-source-line="55" data-uid="lnk8" id="link_Incident_IncidentType"><path codeLine="55" d="M153.09,274.2083 C153.09,300.3183 153.09,321.1883 153.09,344.3783" fill="none" id="Incident-to-IncidentType" style="stroke:#181818;stroke-width:1;"/><polygon fill="#181818" points="153.09,350.3783,157.09,341.3783,153.09,345.3783,149.09,341.3783,153.09,350.3783" style="stroke:#181818;stroke-width:1;"/><text fill="#000000" font-family="sans-serif" font-size="13" lengthAdjust="spacing" textLength="76.4893" x="154.09" y="317.4266">classified as</text><text fill="#000000" font-family="sans-serif" font-size="13" lengthAdjust="spacing" textLength="22.7119" x="130.4417" y="294.253">0..*</text><text fill="#000000" font-family="sans-serif" font-size="13" lengthAdjust="spacing" textLength="8.2202" x="144.6655" y="339.9573">1</text></g><!--reverse link Incident to IncidentAffectedVVE--><g class="link" data-entity-1="Incident" data-entity-2="IncidentAffectedVVE" data-source-line="56" data-uid="lnk9" id="link_Incident_IncidentAffectedVVE"><path codeLine="56" d="M283.061,282.4299 C314.201,311.7199 337.62,333.7483 364.12,358.6783" fill="none" id="Incident-backto-IncidentAffectedVVE" style="stroke:#181818;stroke-width:1;"/><polygon fill="none" points="274.32,274.2083,275.9499,281.2328,283.061,282.4299,281.431,275.4055,274.32,274.2083" style="stroke:#181818;stroke-width:1;"/><text fill="#000000" font-family="sans-serif" font-size="13" lengthAdjust="spacing" textLength="42.1294" x="321.83" y="317.4266">affects</text><text fill="#000000" font-family="sans-serif" font-size="13" lengthAdjust="spacing" textLength="8.2202" x="273.4707" y="294.253">1</text><text fill="#000000" font-family="sans-serif" font-size="13" lengthAdjust="spacing" textLength="22.7119" x="333.5144" y="348.3563">0..*</text></g><!--reverse link VVE to IncidentAffectedVVE--><g class="link" data-entity-1="VVE" data-entity-2="IncidentAffectedVVE" data-source-line="57" data-uid="lnk10" id="link_VVE_IncidentAffectedVVE"><path codeLine="57" d="M439.449,244.8295 C435.829,284.8495 432.5,321.8183 429.16,358.8883" fill="none" id="VVE-backto-IncidentAffectedVVE" style="stroke:#181818;stroke-width:1;"/><polygon fill="none" points="440.53,232.8783,436.0057,238.4935,439.449,244.8295,443.9732,239.2142,440.53,232.8783" style="stroke:#181818;stroke-width:1;"/><text fill="#000000" font-family="sans-serif" font-size="13" lengthAdjust="spacing" textLength="77.2891" x="434.53" y="317.4266">impacted by</text><text fill="#000000" font-family="sans-serif" font-size="13" lengthAdjust="spacing" textLength="8.2202" x="431.5343" y="253.2013">1</text><text fill="#000000" font-family="sans-serif" font-size="13" lengthAdjust="spacing" textLength="22.7119" x="406.4463" y="348.1886">0..*</text></g><!--SRC=[ZLDDRzim3BtxLn0vxGCE5cod70QaRbOOQ9e2Rjf3CHIin3JQBCcGv6p1iFy-oibSEt60dYJoFPfyJxJ_gKo53ZLeQwpOEAi9WgifyItYDoZjBsLUO8sbfoIeK1Ai2lWodemddo65t0WboGHOeC4Nql7wxj9gL0RclmMvAhnF4b6Yzw_SFmd0HtM8SZc58ZXkqitUxIhAhAGkvWEwSASq9oynKBp5D1dPJyBZf_5uyZrYidOOb3KBPUf0VWgbPJ6FafpQacmedhOSXHrtEjoQGlB2gIhMTaSGZhY9lDYjFBcZoNM58YoQcVFs7f6w4bOpwq4PThE8AWQ7xVFcHfwo_Xvx6NtQ-ocEt3AeU_4PHSFo-Vdvuzq7E9dW_dw-RxpTKj-9BNbFPJzNbMWCoVFY3uH1rGopdJMMvylt-DiycwtN9FWLMmN3gtYY2qD0iI4vEpF20JvUZiuSP6hT-jpqviMqBfxuepapHfJ0icM_hbB3drrVForlhfRvpHL7nUqyox_bsHDBAJXUtMRBHOIukltRHjp-mmZIz2kC9gF-vaoXiKQj5Kb0tobYfatJ_yL3raq1cyWdCNfJmVuVuLRFk-GV]--></g></svg>