<svg xmlns="http://www.w3.org/2000/svg" xmlns:xlink="http://www.w3.org/1999/xlink" contentStyleType="text/css" data-diagram-type="CLASS" height="618px" preserveAspectRatio="none" style="width:1075px;height:618px;background:#FFFFFF;" version="1.1" viewBox="0 0 1075 618" width="1075px" zoomAndPan="magnify"><title>Domain Model - Complementary Task Management (US4.1.15)</title><defs/><g><g class="title" data-source-line="3"><text fill="#000000" font-family="sans-serif" font-size="14" font-weight="bold" lengthAdjust="spacing" textLength="491.5176" x="285.1262" y="22.9951">Domain Model - Complementary Task Management (US4.1.15)</text></g><!--class ComplementaryTask--><g class="entity" data-qualified-name="ComplementaryTask" data-source-line="8" id="ent0002"><rect fill="#F1F1F1" height="219.2344" rx="2.5" ry="2.5" style="stroke:#181818;stroke-width:0.5;" width="177.1338" x="204.37" y="177.8669"/><ellipse cx="219.37" cy="197.9997" fill="#C2C2C2" rx="11" ry="11" style="stroke:#181818;stroke-width:1;"/><path d="M222.3388,203.6403 Q221.7606,203.9372 221.12,204.0778 Q220.4794,204.2341 219.7763,204.2341 Q217.2763,204.2341 215.9481,202.5934 Q214.6356,200.9372 214.6356,197.8122 Q214.6356,194.6872 215.9481,193.0309 Q217.2763,191.3747 219.7763,191.3747 Q220.4794,191.3747 221.12,191.5309 Q221.7763,191.6872 222.3388,191.9841 L222.3388,194.7028 Q221.7138,194.1247 221.12,193.8591 Q220.5263,193.5778 219.9013,193.5778 Q218.5575,193.5778 217.87,194.6559 Q217.1825,195.7184 217.1825,197.8122 Q217.1825,199.9059 217.87,200.9841 Q218.5575,202.0466 219.9013,202.0466 Q220.5263,202.0466 221.12,201.7809 Q221.7138,201.4997 222.3388,200.9216 L222.3388,203.6403 Z " fill="#000000"/><text fill="#000000" font-family="sans-serif" font-size="12" font-style="italic" lengthAdjust="spacing" textLength="105.2285" x="253.3226" y="194.0055">&#171;AggregateRoot&#187;</text><text fill="#000000" font-family="sans-serif" font-size="14" lengthAdjust="spacing" textLength="145.1338" x="233.37" y="209.8307">ComplementaryTask</text><line style="stroke:#181818;stroke-width:0.5;" x1="205.37" x2="380.5038" y1="218.1325" y2="218.1325"/><g data-visibility-modifier="PUBLIC_FIELD"><ellipse cx="215.37" cy="231.7809" fill="none" rx="3" ry="3" style="stroke:#545454;stroke-width:1;"/></g><text fill="#000000" font-family="sans-serif" font-size="14" lengthAdjust="spacing" textLength="62.1318" x="224.37" y="235.1276">id: string</text><g data-visibility-modifier="PUBLIC_FIELD"><ellipse cx="215.37" cy="248.0778" fill="none" rx="3" ry="3" style="stroke:#545454;stroke-width:1;"/></g><text fill="#000000" font-family="sans-serif" font-size="14" lengthAdjust="spacing" textLength="83.1182" x="224.37" y="251.4245">code: string</text><g data-visibility-modifier="PUBLIC_FIELD"><ellipse cx="215.37" cy="264.3747" fill="none" rx="3" ry="3" style="stroke:#545454;stroke-width:1;"/></g><text fill="#000000" font-family="sans-serif" font-size="14" lengthAdjust="spacing" textLength="111.2275" x="224.37" y="267.7214">category: string</text><g data-visibility-modifier="PUBLIC_FIELD"><ellipse cx="215.37" cy="280.6716" fill="none" rx="3" ry="3" style="stroke:#545454;stroke-width:1;"/></g><text fill="#000000" font-family="sans-serif" font-size="14" lengthAdjust="spacing" textLength="80.5752" x="224.37" y="284.0182">staff: string</text><g data-visibility-modifier="PUBLIC_FIELD"><ellipse cx="215.37" cy="296.9684" fill="none" rx="3" ry="3" style="stroke:#545454;stroke-width:1;"/></g><text fill="#000000" font-family="sans-serif" font-size="14" lengthAdjust="spacing" textLength="74.5391" x="224.37" y="300.3151">vve: string</text><g data-visibility-modifier="PUBLIC_FIELD"><ellipse cx="215.37" cy="313.2653" fill="none" rx="3" ry="3" style="stroke:#545454;stroke-width:1;"/></g><text fill="#000000" font-family="sans-serif" font-size="14" lengthAdjust="spacing" textLength="92.374" x="224.37" y="316.612">status: string</text><g data-visibility-modifier="PUBLIC_FIELD"><ellipse cx="215.37" cy="329.5622" fill="none" rx="3" ry="3" style="stroke:#545454;stroke-width:1;"/></g><text fill="#000000" font-family="sans-serif" font-size="14" lengthAdjust="spacing" textLength="108.459" x="224.37" y="332.9089">timeStart: Date</text><g data-visibility-modifier="PUBLIC_FIELD"><ellipse cx="215.37" cy="345.8591" fill="none" rx="3" ry="3" style="stroke:#545454;stroke-width:1;"/></g><text fill="#000000" font-family="sans-serif" font-size="14" lengthAdjust="spacing" textLength="100.8643" x="224.37" y="349.2057">timeEnd: Date</text><g data-visibility-modifier="PUBLIC_FIELD"><ellipse cx="215.37" cy="362.1559" fill="none" rx="3" ry="3" style="stroke:#545454;stroke-width:1;"/></g><text fill="#000000" font-family="sans-serif" font-size="14" lengthAdjust="spacing" textLength="111.3301" x="224.37" y="365.5026">createdAt: Date</text><g data-visibility-modifier="PUBLIC_FIELD"><ellipse cx="215.37" cy="378.4528" fill="none" rx="3" ry="3" style="stroke:#545454;stroke-width:1;"/></g><text fill="#000000" font-family="sans-serif" font-size="14" lengthAdjust="spacing" textLength="95.4912" x="224.37" y="381.7995">author: string</text><line style="stroke:#181818;stroke-width:0.5;" x1="205.37" x2="380.5038" y1="389.1012" y2="389.1012"/></g><!--class ComplementaryTaskChangeLog--><g class="entity" data-qualified-name="ComplementaryTaskChangeLog" data-source-line="21" id="ent0003"><rect fill="#F1F1F1" height="137.75" rx="2.5" ry="2.5" style="stroke:#181818;stroke-width:0.5;" width="255.9863" x="382.94" y="474.0969"/><ellipse cx="397.94" cy="494.2297" fill="#C2C2C2" rx="11" ry="11" style="stroke:#181818;stroke-width:1;"/><path d="M400.9088,499.8703 Q400.3306,500.1672 399.69,500.3078 Q399.0494,500.4641 398.3463,500.4641 Q395.8463,500.4641 394.5181,498.8234 Q393.2056,497.1672 393.2056,494.0422 Q393.2056,490.9172 394.5181,489.2609 Q395.8463,487.6047 398.3463,487.6047 Q399.0494,487.6047 399.69,487.7609 Q400.3463,487.9172 400.9088,488.2141 L400.9088,490.9328 Q400.2838,490.3547 399.69,490.0891 Q399.0963,489.8078 398.4713,489.8078 Q397.1275,489.8078 396.44,490.8859 Q395.7525,491.9484 395.7525,494.0422 Q395.7525,496.1359 396.44,497.2141 Q397.1275,498.2766 398.4713,498.2766 Q399.0963,498.2766 399.69,498.0109 Q400.2838,497.7297 400.9088,497.1516 L400.9088,499.8703 Z " fill="#000000"/><text fill="#000000" font-family="sans-serif" font-size="12" font-style="italic" lengthAdjust="spacing" textLength="49.7168" x="499.0748" y="490.2355">&#171;Entity&#187;</text><text fill="#000000" font-family="sans-serif" font-size="14" lengthAdjust="spacing" textLength="223.9863" x="411.94" y="506.0607">ComplementaryTaskChangeLog</text><line style="stroke:#181818;stroke-width:0.5;" x1="383.94" x2="637.9263" y1="514.3625" y2="514.3625"/><g data-visibility-modifier="PUBLIC_FIELD"><ellipse cx="393.94" cy="528.0109" fill="none" rx="3" ry="3" style="stroke:#545454;stroke-width:1;"/></g><text fill="#000000" font-family="sans-serif" font-size="14" lengthAdjust="spacing" textLength="83.7129" x="402.94" y="531.3576">logId: string</text><g data-visibility-modifier="PUBLIC_FIELD"><ellipse cx="393.94" cy="544.3078" fill="none" rx="3" ry="3" style="stroke:#545454;stroke-width:1;"/></g><text fill="#000000" font-family="sans-serif" font-size="14" lengthAdjust="spacing" textLength="118.1045" x="402.94" y="547.6545">changedAt: Date</text><g data-visibility-modifier="PUBLIC_FIELD"><ellipse cx="393.94" cy="560.6047" fill="none" rx="3" ry="3" style="stroke:#545454;stroke-width:1;"/></g><text fill="#000000" font-family="sans-serif" font-size="14" lengthAdjust="spacing" textLength="95.4912" x="402.94" y="563.9514">author: string</text><g data-visibility-modifier="PUBLIC_FIELD"><ellipse cx="393.94" cy="576.9016" fill="none" rx="3" ry="3" style="stroke:#545454;stroke-width:1;"/></g><text fill="#000000" font-family="sans-serif" font-size="14" lengthAdjust="spacing" textLength="173.0107" x="402.94" y="580.2482">reasonForChange: string</text><g data-visibility-modifier="PUBLIC_FIELD"><ellipse cx="393.94" cy="593.1984" fill="none" rx="3" ry="3" style="stroke:#545454;stroke-width:1;"/></g><text fill="#000000" font-family="sans-serif" font-size="14" lengthAdjust="spacing" textLength="139.6445" x="402.94" y="596.5451">diffSummary: string</text><line style="stroke:#181818;stroke-width:0.5;" x1="383.94" x2="637.9263" y1="603.8469" y2="603.8469"/></g><!--class ComplementaryTaskCategory--><g class="entity" data-qualified-name="ComplementaryTaskCategory" data-source-line="32" id="ent0004"><rect fill="#F1F1F1" height="121.4531" rx="2.5" ry="2.5" style="stroke:#181818;stroke-width:0.5;" width="241.084" x="791.4" y="482.2469"/><ellipse cx="806.4" cy="502.3797" fill="#C2C2C2" rx="11" ry="11" style="stroke:#181818;stroke-width:1;"/><path d="M809.3688,508.0203 Q808.7906,508.3172 808.15,508.4578 Q807.5094,508.6141 806.8063,508.6141 Q804.3063,508.6141 802.9781,506.9734 Q801.6656,505.3172 801.6656,502.1922 Q801.6656,499.0672 802.9781,497.4109 Q804.3063,495.7547 806.8063,495.7547 Q807.5094,495.7547 808.15,495.9109 Q808.8063,496.0672 809.3688,496.3641 L809.3688,499.0828 Q808.7438,498.5047 808.15,498.2391 Q807.5563,497.9578 806.9313,497.9578 Q805.5875,497.9578 804.9,499.0359 Q804.2125,500.0984 804.2125,502.1922 Q804.2125,504.2859 804.9,505.3641 Q805.5875,506.4266 806.9313,506.4266 Q807.5563,506.4266 808.15,506.1609 Q808.7438,505.8797 809.3688,505.3016 L809.3688,508.0203 Z " fill="#000000"/><text fill="#000000" font-family="sans-serif" font-size="12" font-style="italic" lengthAdjust="spacing" textLength="49.7168" x="900.0836" y="498.3855">&#171;Entity&#187;</text><text fill="#000000" font-family="sans-serif" font-size="14" lengthAdjust="spacing" textLength="209.084" x="820.4" y="514.2107">ComplementaryTaskCategory</text><line style="stroke:#181818;stroke-width:0.5;" x1="792.4" x2="1031.484" y1="522.5125" y2="522.5125"/><g data-visibility-modifier="PUBLIC_FIELD"><ellipse cx="802.4" cy="536.1609" fill="none" rx="3" ry="3" style="stroke:#545454;stroke-width:1;"/></g><text fill="#000000" font-family="sans-serif" font-size="14" lengthAdjust="spacing" textLength="62.1318" x="811.4" y="539.5076">id: string</text><g data-visibility-modifier="PUBLIC_FIELD"><ellipse cx="802.4" cy="552.4578" fill="none" rx="3" ry="3" style="stroke:#545454;stroke-width:1;"/></g><text fill="#000000" font-family="sans-serif" font-size="14" lengthAdjust="spacing" textLength="83.1182" x="811.4" y="555.8045">code: string</text><g data-visibility-modifier="PUBLIC_FIELD"><ellipse cx="802.4" cy="568.7547" fill="none" rx="3" ry="3" style="stroke:#545454;stroke-width:1;"/></g><text fill="#000000" font-family="sans-serif" font-size="14" lengthAdjust="spacing" textLength="89.0586" x="811.4" y="572.1014">name: string</text><g data-visibility-modifier="PUBLIC_FIELD"><ellipse cx="802.4" cy="585.0516" fill="none" rx="3" ry="3" style="stroke:#545454;stroke-width:1;"/></g><text fill="#000000" font-family="sans-serif" font-size="14" lengthAdjust="spacing" textLength="119.875" x="811.4" y="588.3982">isActive: boolean</text><line style="stroke:#181818;stroke-width:0.5;" x1="792.4" x2="1031.484" y1="595.7" y2="595.7"/></g><!--class StaffMember--><g class="entity" data-qualified-name="StaffMember" data-source-line="39" id="ent0005"><rect fill="#F1F1F1" height="105.1563" rx="2.5" ry="2.5" style="stroke:#181818;stroke-width:0.5;" width="145.875" x="7" y="490.3969"/><ellipse cx="32.5645" cy="510.5297" fill="#C2C2C2" rx="11" ry="11" style="stroke:#181818;stroke-width:1;"/><path d="M35.5332,516.1703 Q34.9551,516.4672 34.3145,516.6078 Q33.6738,516.7641 32.9707,516.7641 Q30.4707,516.7641 29.1426,515.1234 Q27.8301,513.4672 27.8301,510.3422 Q27.8301,507.2172 29.1426,505.5609 Q30.4707,503.9047 32.9707,503.9047 Q33.6738,503.9047 34.3145,504.0609 Q34.9707,504.2172 35.5332,504.5141 L35.5332,507.2328 Q34.9082,506.6547 34.3145,506.3891 Q33.7207,506.1078 33.0957,506.1078 Q31.752,506.1078 31.0645,507.1859 Q30.377,508.2484 30.377,510.3422 Q30.377,512.4359 31.0645,513.5141 Q31.752,514.5766 33.0957,514.5766 Q33.7207,514.5766 34.3145,514.3109 Q34.9082,514.0297 35.5332,513.4516 L35.5332,516.1703 Z " fill="#000000"/><text fill="#000000" font-family="sans-serif" font-size="12" font-style="italic" lengthAdjust="spacing" textLength="49.7168" x="69.2529" y="506.5355">&#171;Entity&#187;</text><text fill="#000000" font-family="sans-serif" font-size="14" lengthAdjust="spacing" textLength="90.3984" x="48.9121" y="522.3607">StaffMember</text><line style="stroke:#181818;stroke-width:0.5;" x1="8" x2="151.875" y1="530.6625" y2="530.6625"/><g data-visibility-modifier="PUBLIC_FIELD"><ellipse cx="18" cy="544.3109" fill="none" rx="3" ry="3" style="stroke:#545454;stroke-width:1;"/></g><text fill="#000000" font-family="sans-serif" font-size="14" lengthAdjust="spacing" textLength="93.5908" x="27" y="547.6576">staffId: string</text><g data-visibility-modifier="PUBLIC_FIELD"><ellipse cx="18" cy="560.6078" fill="none" rx="3" ry="3" style="stroke:#545454;stroke-width:1;"/></g><text fill="#000000" font-family="sans-serif" font-size="14" lengthAdjust="spacing" textLength="89.0586" x="27" y="563.9545">name: string</text><g data-visibility-modifier="PUBLIC_FIELD"><ellipse cx="18" cy="576.9047" fill="none" rx="3" ry="3" style="stroke:#545454;stroke-width:1;"/></g><text fill="#000000" font-family="sans-serif" font-size="14" lengthAdjust="spacing" textLength="119.875" x="27" y="580.2514">isActive: boolean</text><line style="stroke:#181818;stroke-width:0.5;" x1="8" x2="151.875" y1="587.5531" y2="587.5531"/></g><!--class VVE--><g class="entity" data-qualified-name="VVE" data-source-line="45" id="ent0006"><rect fill="#F1F1F1" height="105.1563" rx="2.5" ry="2.5" style="stroke:#181818;stroke-width:0.5;" width="160.6475" x="187.61" y="490.3969"/><ellipse cx="240.8253" cy="510.5297" fill="#C2C2C2" rx="11" ry="11" style="stroke:#181818;stroke-width:1;"/><path d="M243.7941,516.1703 Q243.216,516.4672 242.5753,516.6078 Q241.9347,516.7641 241.2316,516.7641 Q238.7316,516.7641 237.4035,515.1234 Q236.091,513.4672 236.091,510.3422 Q236.091,507.2172 237.4035,505.5609 Q238.7316,503.9047 241.2316,503.9047 Q241.9347,503.9047 242.5753,504.0609 Q243.2316,504.2172 243.7941,504.5141 L243.7941,507.2328 Q243.1691,506.6547 242.5753,506.3891 Q241.9816,506.1078 241.3566,506.1078 Q240.0128,506.1078 239.3253,507.1859 Q238.6378,508.2484 238.6378,510.3422 Q238.6378,512.4359 239.3253,513.5141 Q240.0128,514.5766 241.3566,514.5766 Q241.9816,514.5766 242.5753,514.3109 Q243.1691,514.0297 243.7941,513.4516 L243.7941,516.1703 Z " fill="#000000"/><text fill="#000000" font-family="sans-serif" font-size="12" font-style="italic" lengthAdjust="spacing" textLength="49.7168" x="259.3253" y="506.5355">&#171;Entity&#187;</text><text fill="#000000" font-family="sans-serif" font-size="14" lengthAdjust="spacing" textLength="28" x="270.1837" y="522.3607">VVE</text><line style="stroke:#181818;stroke-width:0.5;" x1="188.61" x2="347.2575" y1="530.6625" y2="530.6625"/><g data-visibility-modifier="PUBLIC_FIELD"><ellipse cx="198.61" cy="544.3109" fill="none" rx="3" ry="3" style="stroke:#545454;stroke-width:1;"/></g><text fill="#000000" font-family="sans-serif" font-size="14" lengthAdjust="spacing" textLength="87.5547" x="207.61" y="547.6576">vveId: string</text><g data-visibility-modifier="PUBLIC_FIELD"><ellipse cx="198.61" cy="560.6078" fill="none" rx="3" ry="3" style="stroke:#545454;stroke-width:1;"/></g><text fill="#000000" font-family="sans-serif" font-size="14" lengthAdjust="spacing" textLength="134.6475" x="207.61" y="563.9545">vesselName: string</text><g data-visibility-modifier="PUBLIC_FIELD"><ellipse cx="198.61" cy="576.9047" fill="none" rx="3" ry="3" style="stroke:#545454;stroke-width:1;"/></g><text fill="#000000" font-family="sans-serif" font-size="14" lengthAdjust="spacing" textLength="92.374" x="207.61" y="580.2514">status: string</text><line style="stroke:#181818;stroke-width:0.5;" x1="188.61" x2="347.2575" y1="587.5531" y2="587.5531"/></g><!--class ComplementaryTaskScheduler--><g class="entity" data-qualified-name="ComplementaryTaskScheduler" data-source-line="54" id="ent0007"><rect fill="#F1F1F1" height="72.5625" rx="2.5" ry="2.5" style="stroke:#181818;stroke-width:0.5;" width="425.5811" x="9.15" y="44.2969"/><ellipse cx="110.0792" cy="64.4297" fill="#C2C2C2" rx="11" ry="11" style="stroke:#181818;stroke-width:1;"/><path d="M113.0479,70.0703 Q112.4698,70.3672 111.8292,70.5078 Q111.1886,70.6641 110.4854,70.6641 Q107.9854,70.6641 106.6573,69.0234 Q105.3448,67.3672 105.3448,64.2422 Q105.3448,61.1172 106.6573,59.4609 Q107.9854,57.8047 110.4854,57.8047 Q111.1886,57.8047 111.8292,57.9609 Q112.4854,58.1172 113.0479,58.4141 L113.0479,61.1328 Q112.4229,60.5547 111.8292,60.2891 Q111.2354,60.0078 110.6104,60.0078 Q109.2667,60.0078 108.5792,61.0859 Q107.8917,62.1484 107.8917,64.2422 Q107.8917,66.3359 108.5792,67.4141 Q109.2667,68.4766 110.6104,68.4766 Q111.2354,68.4766 111.8292,68.2109 Q112.4229,67.9297 113.0479,67.3516 L113.0479,70.0703 Z " fill="#000000"/><text fill="#000000" font-family="sans-serif" font-size="12" font-style="italic" lengthAdjust="spacing" textLength="105.5977" x="185.3917" y="60.4355">&#171;DomainService&#187;</text><text fill="#000000" font-family="sans-serif" font-size="14" lengthAdjust="spacing" textLength="215.2227" x="130.5792" y="76.2607">ComplementaryTaskScheduler</text><line style="stroke:#181818;stroke-width:0.5;" x1="10.15" x2="433.7311" y1="84.5625" y2="84.5625"/><line style="stroke:#181818;stroke-width:0.5;" x1="10.15" x2="433.7311" y1="92.5625" y2="92.5625"/><g data-visibility-modifier="PUBLIC_METHOD"><ellipse cx="20.15" cy="106.2109" fill="#A6A6A6" rx="3" ry="3" style="stroke:#545454;stroke-width:1;"/></g><text fill="#000000" font-family="sans-serif" font-size="14" lengthAdjust="spacing" textLength="399.5811" x="29.15" y="109.5576">validate(task: ComplementaryTask): ConflictOrWarning[]</text></g><g class="entity" data-qualified-name="GMN16" data-source-line="75" id="ent0017"><path d="M416.87,237.0769 L416.87,283.4769 L381.88,287.4769 L416.87,291.4769 L416.87,337.8738 A0,0 0 0 0 416.87,337.8738 L974.996,337.8738 A0,0 0 0 0 974.996,337.8738 L974.996,247.0769 L964.996,237.0769 L416.87,237.0769 A0,0 0 0 0 416.87,237.0769" fill="#FAFAFA" style="stroke:#181818;stroke-width:0.5;"/><path d="M964.996,237.0769 L964.996,247.0769 L974.996,247.0769 L964.996,237.0769" fill="#FAFAFA" style="stroke:#181818;stroke-width:0.5;"/><text fill="#000000" font-family="sans-serif" font-size="13" lengthAdjust="spacing" textLength="141.1084" x="422.87" y="254.1438">Aggregate invariants:</text><text fill="#000000" font-family="sans-serif" font-size="13" lengthAdjust="spacing" textLength="231.1055" x="422.87" y="269.2766">- category must exist and be active</text><text fill="#000000" font-family="sans-serif" font-size="13" lengthAdjust="spacing" textLength="238.0308" x="422.87" y="284.4094">- timeEnd &gt;= timeStart (if provided)</text><text fill="#000000" font-family="sans-serif" font-size="13" lengthAdjust="spacing" textLength="164.6646" x="422.87" y="299.5422">- status progression valid</text><text fill="#000000" font-family="sans-serif" font-size="13" lengthAdjust="spacing" textLength="123.3921" x="422.87" y="314.675">Audit requirement:</text><text fill="#000000" font-family="sans-serif" font-size="13" lengthAdjust="spacing" textLength="537.126" x="422.87" y="329.8078">- every create/update/delete appends ChangeLog(changedAt, author, reason, diff)</text></g><g class="entity" data-qualified-name="GMN19" data-source-line="84" id="ent0020"><path d="M469.31,45.3169 L469.31,76.5769 L435.18,80.5769 L469.31,84.5769 L469.31,115.8481 A0,0 0 0 0 469.31,115.8481 L1004.5654,115.8481 A0,0 0 0 0 1004.5654,115.8481 L1004.5654,55.3169 L994.5654,45.3169 L469.31,45.3169 A0,0 0 0 0 469.31,45.3169" fill="#FAFAFA" style="stroke:#181818;stroke-width:0.5;"/><path d="M994.5654,45.3169 L994.5654,55.3169 L1004.5654,55.3169 L994.5654,45.3169" fill="#FAFAFA" style="stroke:#181818;stroke-width:0.5;"/><text fill="#000000" font-family="sans-serif" font-size="13" lengthAdjust="spacing" textLength="161.0845" x="475.31" y="62.3838">Cross-aggregate checks:</text><text fill="#000000" font-family="sans-serif" font-size="13" lengthAdjust="spacing" textLength="248.0283" x="475.31" y="77.5166">- staff availability (no double-booking)</text><text fill="#000000" font-family="sans-serif" font-size="13" lengthAdjust="spacing" textLength="514.2554" x="475.31" y="92.6494">- tasks that suspend cargo operations must not overlap with critical operations</text><text fill="#000000" font-family="sans-serif" font-size="13" lengthAdjust="spacing" textLength="167.21" x="475.31" y="107.7822">- category must be active</text></g><!--reverse link ComplementaryTask to ComplementaryTaskChangeLog--><g class="link" data-entity-1="ent0002" data-entity-2="ent0003" data-link-type="composition" data-source-line="61" id="lnk8"><path codeLine="61" d="M389.745,401.0446 C413.415,428.5646 430.55,448.4969 452.15,473.6169" fill="none" id="ComplementaryTask-backto-ComplementaryTaskChangeLog" style="stroke:#181818;stroke-width:1;"/><polygon fill="#181818" points="381.92,391.9469,382.7999,399.1041,389.745,401.0446,388.8651,393.8874,381.92,391.9469" style="stroke:#181818;stroke-width:1;"/><text fill="#000000" font-family="sans-serif" font-size="13" lengthAdjust="spacing" textLength="61.6421" x="421.94" y="440.1638">auditTrail</text><text fill="#000000" font-family="sans-serif" font-size="13" lengthAdjust="spacing" textLength="8.271" x="389.6314" y="413.2912">1</text><text fill="#000000" font-family="sans-serif" font-size="13" lengthAdjust="spacing" textLength="23.0356" x="422.2333" y="463.1249">0..*</text></g><!--link ComplementaryTask to ComplementaryTaskCategory--><g class="link" data-entity-1="ent0002" data-entity-2="ent0004" data-link-type="dependency" data-source-line="62" id="lnk9"><path codeLine="62" d="M381.95,385.7269 C387.49,389.8369 393.16,393.6669 398.94,397.0969 C416.16,407.3369 639.2377,468.5019 785.3977,507.9919" fill="none" id="ComplementaryTask-to-ComplementaryTaskCategory" style="stroke:#181818;stroke-width:1;"/><polygon fill="#181818" points="791.19,509.5569,783.5449,503.3479,786.3631,508.2527,781.4582,511.0709,791.19,509.5569" style="stroke:#181818;stroke-width:1;"/><text fill="#000000" font-family="sans-serif" font-size="13" lengthAdjust="spacing" textLength="117.2476" x="547.94" y="440.1638">assignedCategory</text><text fill="#000000" font-family="sans-serif" font-size="13" lengthAdjust="spacing" textLength="8.271" x="389.3728" y="390.0301">1</text><text fill="#000000" font-family="sans-serif" font-size="13" lengthAdjust="spacing" textLength="8.271" x="775.2068" y="504.0068">1</text></g><!--link ComplementaryTask to StaffMember--><g class="link" data-entity-1="ent0002" data-entity-2="ent0005" data-link-type="dependency" data-source-line="63" id="lnk10"><path codeLine="63" d="M204.15,394.1469 C176.3,427.2969 150.6393,457.8228 127.3693,485.5228" fill="none" id="ComplementaryTask-to-StaffMember" style="stroke:#181818;stroke-width:1;"/><polygon fill="#181818" points="123.51,490.1169,132.3617,485.7987,126.7261,486.2885,126.2363,480.6529,123.51,490.1169" style="stroke:#181818;stroke-width:1;"/><text fill="#000000" font-family="sans-serif" font-size="13" lengthAdjust="spacing" textLength="88.334" x="173.94" y="440.1638">assignedStaff</text><text fill="#000000" font-family="sans-serif" font-size="13" lengthAdjust="spacing" textLength="8.271" x="188.1878" y="399.7413">1</text><text fill="#000000" font-family="sans-serif" font-size="13" lengthAdjust="spacing" textLength="8.271" x="120.5976" y="479.4589">1</text></g><!--link ComplementaryTask to VVE--><g class="link" data-entity-1="ent0002" data-entity-2="ent0006" data-link-type="dependency" data-source-line="64" id="lnk11"><path codeLine="64" d="M303.45,397.2069 C303.34,412.9969 302.34,429.0069 299.94,444.0969 C297.52,459.2769 294.978,469.6051 290.198,484.1951" fill="none" id="ComplementaryTask-to-VVE" style="stroke:#181818;stroke-width:1;"/><polygon fill="#181818" points="288.33,489.8969,294.9332,482.5895,289.8867,485.1454,287.3309,480.0988,288.33,489.8969" style="stroke:#181818;stroke-width:1;"/><text fill="#000000" font-family="sans-serif" font-size="13" lengthAdjust="spacing" textLength="66.9741" x="302.94" y="440.1638">belongsTo</text><text fill="#000000" font-family="sans-serif" font-size="13" lengthAdjust="spacing" textLength="8.271" x="295.8967" y="417.1541">1</text><text fill="#000000" font-family="sans-serif" font-size="13" lengthAdjust="spacing" textLength="8.271" x="282.4481" y="479.2107">1</text></g><!--link ComplementaryTaskScheduler to ComplementaryTask--><g class="link" data-entity-1="ent0007" data-entity-2="ent0002" data-link-type="dependency" data-source-line="66" id="lnk12"><path codeLine="66" d="M234.3,117.2669 C240.22,134.3569 245.6943,150.158 253.2743,172.018" fill="none" id="ComplementaryTaskScheduler-to-ComplementaryTask" style="stroke:#181818;stroke-width:1;stroke-dasharray:7,7;"/><polygon fill="#181818" points="255.24,177.6869,256.0707,167.8731,253.6019,172.9628,248.5122,170.494,255.24,177.6869" style="stroke:#181818;stroke-width:1;"/></g><!--link ComplementaryTaskScheduler to StaffMember--><g class="link" data-entity-1="ent0007" data-entity-2="ent0005" data-link-type="dependency" data-source-line="67" id="lnk13"><path codeLine="67" d="M186.94,117.1669 C172.08,134.2169 155.92,155.7369 145.94,177.8669 C98.92,282.0969 85.7002,411.4254 81.8102,484.2054" fill="none" id="ComplementaryTaskScheduler-to-StaffMember" style="stroke:#181818;stroke-width:1;stroke-dasharray:7,7;"/><polygon fill="#181818" points="81.49,490.1969,85.9647,481.4232,81.7569,485.204,77.9761,480.9962,81.49,490.1969" style="stroke:#181818;stroke-width:1;"/></g><!--link ComplementaryTaskScheduler to ComplementaryTaskCategory--><g class="link" data-entity-1="ent0007" data-entity-2="ent0004" data-link-type="dependency" data-source-line="68" id="lnk14"><path codeLine="68" d="M435.23,114.5969 C440.85,115.3769 446.43,116.1269 451.94,116.8669 C571.87,132.8169 912.32,87.6469 992.94,177.8669 C1068.77,262.7269 1005.4668,397.5745 956.3368,476.9845" fill="none" id="ComplementaryTaskScheduler-to-ComplementaryTaskCategory" style="stroke:#181818;stroke-width:1;stroke-dasharray:7,7;"/><polygon fill="#181818" points="953.18,482.0869,961.3168,476.5378,955.8107,477.8349,954.5136,472.3287,953.18,482.0869" style="stroke:#181818;stroke-width:1;"/></g><!--link ComplementaryTaskScheduler to VVE--><g class="link" data-entity-1="ent0007" data-entity-2="ent0006" data-link-type="dependency" data-source-line="69" id="lnk15"><path codeLine="69" d="M205.58,117.2969 C177.46,184.0669 127.17,331.2469 172.94,444.0969 C179.79,460.9969 187.0418,472.1667 199.5318,485.7067" fill="none" id="ComplementaryTaskScheduler-to-VVE" style="stroke:#181818;stroke-width:1;stroke-dasharray:7,7;"/><polygon fill="#181818" points="203.6,490.1169,200.4378,480.7895,200.2098,486.4417,194.5576,486.2137,203.6,490.1169" style="stroke:#181818;stroke-width:1;"/></g><!--SRC=[dLPBJzj04BxxLuouD6b9A59xYI1I5AXKgL29K7geUfZOOtl5UiVTNOUYYl_UMPiu3da9SaZisNbzyytCnjqhKwB50Wes7EUM2m9lAufSU-9oJFX1cGnIr8uYhxmckE02bO4hJaZ30APSb9eACXxj8zoYkuShD9ZL8kZzc7qQdWvFF_UZw1sSx_h8sIJBB6NeQRJkCdZSQnfhT6xJ1ixEMfStp7uyXdyHm0ULZC1vAwZ2Momerjv5EsFxs9KvZsdQ5ImMzEBSLwuhyQgWcIJYHt0X3fUYIvEi1B4bUKec7HsiVCwsTVGKxS8spT5az8qp0NbfX9R79JhDsTTrWBNglZ0YaLGScozi6yVTeqIbwQmg2kpKvEaGbxEgBDdwq3aKqbFataBXz9cC3PJxEJHOhBqhDucz2fpDcJMXMLLs5gYzec9ETYD8JVjwCL_X-UxkSiEZzCswlmKvH_hwXTSN_NImsiy3wSWkL4pGYoqxDy1byqESKtpl-czXO2QsIQNhwZHXPasK5X9gbKYGdXVjBPFR3pAJQXNxx_OdMYE8Vlq-ZEc6D7h5nkMgtDyxcuD_T7e4xmS3EFeu7Bu_sZSz8y0gKVxMej8x70q6u_ftTtEA4-TKPYXPYWwuwZRTohYM7h0CJIMzHffDvcuvYlOGDXoEjopI0mQTr5xjUpVwTKC1SOZzQ_Rau0IKMQ1LQBo37fUX7r3lxsCZbc1LbdlWT0l-zahe-1v50rZkVIWgvu7-Alb6aqYj0UiH5vtd5GxZSsWNFFHK2gNbXKeewOjICxn19864MZPGpqWq2Pq6blvKojOfXR2q88dPN0KdLHacwKIkLPByi2p993AJosxjjQly69eLVWpDuZw6iANxaUX3A41qg0mj8T5qwwuODK3I570Xeu5pfMMDGSym95pDDGratydVX2mW3fFlmEVemLKk92tLj1a3bsIR8MwgAaa12s2D9JmedmjkkHfYr1tD3IfM12pH_GS0]--></g></svg>