<svg xmlns="http://www.w3.org/2000/svg" xmlns:xlink="http://www.w3.org/1999/xlink" contentStyleType="text/css" data-diagram-type="CLASS" height="751px" preserveAspectRatio="none" style="width:634px;height:751px;background:#FFFFFF;" version="1.1" viewBox="0 0 634 751" width="634px" zoomAndPan="magnify"><title>Domain Model - Resource Allocation Query (US4.1.6)</title><defs/><g><g class="title" data-source-line="3"><text fill="#000000" font-family="sans-serif" font-size="14" font-weight="bold" lengthAdjust="spacing" textLength="416.2266" x="102.2193" y="22.9951">Domain Model - Resource Allocation Query (US4.1.6)</text></g><!--class OperationPlan--><g class="entity" data-qualified-name="OperationPlan" data-source-line="8" id="ent0002"><rect fill="#F1F1F1" height="105.1563" rx="2.5" ry="2.5" style="stroke:#181818;stroke-width:0.5;" width="153.1074" x="183" y="44.2969"/><ellipse cx="206.9455" cy="64.4297" fill="#C2C2C2" rx="11" ry="11" style="stroke:#181818;stroke-width:1;"/><path d="M209.9143,70.0703 Q209.3361,70.3672 208.6955,70.5078 Q208.0549,70.6641 207.3518,70.6641 Q204.8518,70.6641 203.5236,69.0234 Q202.2111,67.3672 202.2111,64.2422 Q202.2111,61.1172 203.5236,59.4609 Q204.8518,57.8047 207.3518,57.8047 Q208.0549,57.8047 208.6955,57.9609 Q209.3518,58.1172 209.9143,58.4141 L209.9143,61.1328 Q209.2893,60.5547 208.6955,60.2891 Q208.1018,60.0078 207.4768,60.0078 Q206.133,60.0078 205.4455,61.0859 Q204.758,62.1484 204.758,64.2422 Q204.758,66.3359 205.4455,67.4141 Q206.133,68.4766 207.4768,68.4766 Q208.1018,68.4766 208.6955,68.2109 Q209.2893,67.9297 209.9143,67.3516 L209.9143,70.0703 Z " fill="#000000"/><text fill="#000000" font-family="sans-serif" font-size="12" font-style="italic" lengthAdjust="spacing" textLength="105.2285" x="220.9334" y="60.4355">&#171;AggregateRoot&#187;</text><text fill="#000000" font-family="sans-serif" font-size="14" lengthAdjust="spacing" textLength="99.4561" x="223.8196" y="76.2607">OperationPlan</text><line style="stroke:#181818;stroke-width:0.5;" x1="184" x2="335.1074" y1="84.5625" y2="84.5625"/><g data-visibility-modifier="PUBLIC_FIELD"><ellipse cx="194" cy="98.2109" fill="none" rx="3" ry="3" style="stroke:#545454;stroke-width:1;"/></g><text fill="#000000" font-family="sans-serif" font-size="14" lengthAdjust="spacing" textLength="127.1074" x="203" y="101.5576">id: UniqueEntityID</text><g data-visibility-modifier="PUBLIC_FIELD"><ellipse cx="194" cy="114.5078" fill="none" rx="3" ry="3" style="stroke:#545454;stroke-width:1;"/></g><text fill="#000000" font-family="sans-serif" font-size="14" lengthAdjust="spacing" textLength="92.374" x="203" y="117.8545">status: string</text><g data-visibility-modifier="PUBLIC_FIELD"><ellipse cx="194" cy="130.8047" fill="none" rx="3" ry="3" style="stroke:#545454;stroke-width:1;"/></g><text fill="#000000" font-family="sans-serif" font-size="14" lengthAdjust="spacing" textLength="106.3193" x="203" y="134.1514">planDate: Date</text><line style="stroke:#181818;stroke-width:0.5;" x1="184" x2="335.1074" y1="141.4531" y2="141.4531"/></g><!--class Operation--><g class="entity" data-qualified-name="Operation" data-source-line="14" id="ent0003"><rect fill="#F1F1F1" height="170.3438" rx="2.5" ry="2.5" style="stroke:#181818;stroke-width:0.5;" width="210.9053" x="154.1" y="226.4569"/><ellipse cx="220.4667" cy="246.5897" fill="#C2C2C2" rx="11" ry="11" style="stroke:#181818;stroke-width:1;"/><path d="M223.4354,252.2303 Q222.8573,252.5272 222.2167,252.6678 Q221.5761,252.8241 220.8729,252.8241 Q218.3729,252.8241 217.0448,251.1834 Q215.7323,249.5272 215.7323,246.4022 Q215.7323,243.2772 217.0448,241.6209 Q218.3729,239.9647 220.8729,239.9647 Q221.5761,239.9647 222.2167,240.1209 Q222.8729,240.2772 223.4354,240.5741 L223.4354,243.2928 Q222.8104,242.7147 222.2167,242.4491 Q221.6229,242.1678 220.9979,242.1678 Q219.6542,242.1678 218.9667,243.2459 Q218.2792,244.3084 218.2792,246.4022 Q218.2792,248.4959 218.9667,249.5741 Q219.6542,250.6366 220.9979,250.6366 Q221.6229,250.6366 222.2167,250.3709 Q222.8104,250.0897 223.4354,249.5116 L223.4354,252.2303 Z " fill="#000000"/><text fill="#000000" font-family="sans-serif" font-size="12" font-style="italic" lengthAdjust="spacing" textLength="49.7168" x="250.9442" y="242.5955">&#171;Entity&#187;</text><text fill="#000000" font-family="sans-serif" font-size="14" lengthAdjust="spacing" textLength="69.6719" x="240.9667" y="258.4207">Operation</text><line style="stroke:#181818;stroke-width:0.5;" x1="155.1" x2="364.0053" y1="266.7225" y2="266.7225"/><g data-visibility-modifier="PUBLIC_FIELD"><ellipse cx="165.1" cy="280.3709" fill="none" rx="3" ry="3" style="stroke:#545454;stroke-width:1;"/></g><text fill="#000000" font-family="sans-serif" font-size="14" lengthAdjust="spacing" textLength="129.5889" x="174.1" y="283.7176">operationId: string</text><g data-visibility-modifier="PUBLIC_FIELD"><ellipse cx="165.1" cy="296.6678" fill="none" rx="3" ry="3" style="stroke:#545454;stroke-width:1;"/></g><text fill="#000000" font-family="sans-serif" font-size="14" lengthAdjust="spacing" textLength="87.8145" x="174.1" y="300.0145">vvnId: string</text><g data-visibility-modifier="PUBLIC_FIELD"><ellipse cx="165.1" cy="312.9647" fill="none" rx="3" ry="3" style="stroke:#545454;stroke-width:1;"/></g><text fill="#000000" font-family="sans-serif" font-size="14" lengthAdjust="spacing" textLength="82.6123" x="174.1" y="316.3114">dock: string</text><g data-visibility-modifier="PUBLIC_FIELD"><ellipse cx="165.1" cy="329.2616" fill="none" rx="3" ry="3" style="stroke:#545454;stroke-width:1;"/></g><text fill="#000000" font-family="sans-serif" font-size="14" lengthAdjust="spacing" textLength="131.1064" x="174.1" y="332.6082">startTime: number</text><g data-visibility-modifier="PUBLIC_FIELD"><ellipse cx="165.1" cy="345.5584" fill="none" rx="3" ry="3" style="stroke:#545454;stroke-width:1;"/></g><text fill="#000000" font-family="sans-serif" font-size="14" lengthAdjust="spacing" textLength="124.8721" x="174.1" y="348.9051">endTime: number</text><g data-visibility-modifier="PUBLIC_FIELD"><ellipse cx="165.1" cy="361.8553" fill="none" rx="3" ry="3" style="stroke:#545454;stroke-width:1;"/></g><text fill="#000000" font-family="sans-serif" font-size="14" lengthAdjust="spacing" textLength="184.9053" x="174.1" y="365.202">physicalResourceId: string</text><g data-visibility-modifier="PUBLIC_FIELD"><ellipse cx="165.1" cy="378.1522" fill="none" rx="3" ry="3" style="stroke:#545454;stroke-width:1;"/></g><text fill="#000000" font-family="sans-serif" font-size="14" lengthAdjust="spacing" textLength="179.9424" x="174.1" y="381.4989">craneCountUsed: number</text><line style="stroke:#181818;stroke-width:0.5;" x1="155.1" x2="364.0053" y1="388.8006" y2="388.8006"/></g><!--class StaffAssignment--><g class="entity" data-qualified-name="StaffAssignment" data-source-line="24" id="ent0004"><rect fill="#F1F1F1" height="105.1563" rx="2.5" ry="2.5" style="stroke:#181818;stroke-width:0.5;" width="157.1064" x="7" y="473.7969"/><ellipse cx="26.4398" cy="493.9297" fill="#C2C2C2" rx="11" ry="11" style="stroke:#181818;stroke-width:1;"/><path d="M29.4085,499.5703 Q28.8304,499.8672 28.1898,500.0078 Q27.5492,500.1641 26.846,500.1641 Q24.346,500.1641 23.0179,498.5234 Q21.7054,496.8672 21.7054,493.7422 Q21.7054,490.6172 23.0179,488.9609 Q24.346,487.3047 26.846,487.3047 Q27.5492,487.3047 28.1898,487.4609 Q28.846,487.6172 29.4085,487.9141 L29.4085,490.6328 Q28.7835,490.0547 28.1898,489.7891 Q27.596,489.5078 26.971,489.5078 Q25.6273,489.5078 24.9398,490.5859 Q24.2523,491.6484 24.2523,493.7422 Q24.2523,495.8359 24.9398,496.9141 Q25.6273,497.9766 26.971,497.9766 Q27.596,497.9766 28.1898,497.7109 Q28.7835,497.4297 29.4085,496.8516 L29.4085,499.5703 Z " fill="#000000"/><text fill="#000000" font-family="sans-serif" font-size="12" font-style="italic" lengthAdjust="spacing" textLength="87.6504" x="55.2213" y="489.9355">&#171;ValueObject&#187;</text><text fill="#000000" font-family="sans-serif" font-size="14" lengthAdjust="spacing" textLength="115.2402" x="41.4264" y="505.7607">StaffAssignment</text><line style="stroke:#181818;stroke-width:0.5;" x1="8" x2="163.1064" y1="514.0625" y2="514.0625"/><g data-visibility-modifier="PUBLIC_FIELD"><ellipse cx="18" cy="527.7109" fill="none" rx="3" ry="3" style="stroke:#545454;stroke-width:1;"/></g><text fill="#000000" font-family="sans-serif" font-size="14" lengthAdjust="spacing" textLength="93.5908" x="27" y="531.0576">staffId: string</text><g data-visibility-modifier="PUBLIC_FIELD"><ellipse cx="18" cy="544.0078" fill="none" rx="3" ry="3" style="stroke:#545454;stroke-width:1;"/></g><text fill="#000000" font-family="sans-serif" font-size="14" lengthAdjust="spacing" textLength="131.1064" x="27" y="547.3545">startTime: number</text><g data-visibility-modifier="PUBLIC_FIELD"><ellipse cx="18" cy="560.3047" fill="none" rx="3" ry="3" style="stroke:#545454;stroke-width:1;"/></g><text fill="#000000" font-family="sans-serif" font-size="14" lengthAdjust="spacing" textLength="124.8721" x="27" y="563.6514">endTime: number</text><line style="stroke:#181818;stroke-width:0.5;" x1="8" x2="163.1064" y1="570.9531" y2="570.9531"/></g><!--class Dock--><g class="entity" data-qualified-name="Dock" data-source-line="33" id="ent0005"><rect fill="#F1F1F1" height="88.8594" rx="2.5" ry="2.5" style="stroke:#181818;stroke-width:0.5;" width="121.6279" x="198.74" y="481.9469"/><ellipse cx="233.5" cy="502.0797" fill="#C2C2C2" rx="11" ry="11" style="stroke:#181818;stroke-width:1;"/><path d="M236.4688,507.7203 Q235.8906,508.0172 235.25,508.1578 Q234.6094,508.3141 233.9063,508.3141 Q231.4063,508.3141 230.0781,506.6734 Q228.7656,505.0172 228.7656,501.8922 Q228.7656,498.7672 230.0781,497.1109 Q231.4063,495.4547 233.9063,495.4547 Q234.6094,495.4547 235.25,495.6109 Q235.9063,495.7672 236.4688,496.0641 L236.4688,498.7828 Q235.8438,498.2047 235.25,497.9391 Q234.6563,497.6578 234.0313,497.6578 Q232.6875,497.6578 232,498.7359 Q231.3125,499.7984 231.3125,501.8922 Q231.3125,503.9859 232,505.0641 Q232.6875,506.1266 234.0313,506.1266 Q234.6563,506.1266 235.25,505.8609 Q235.8438,505.5797 236.4688,505.0016 L236.4688,507.7203 Z " fill="#000000"/><text fill="#000000" font-family="sans-serif" font-size="12" font-style="italic" lengthAdjust="spacing" textLength="49.7168" x="249.8911" y="498.0855">&#171;Entity&#187;</text><text fill="#000000" font-family="sans-serif" font-size="14" lengthAdjust="spacing" textLength="35.1504" x="257.1743" y="513.9107">Dock</text><line style="stroke:#181818;stroke-width:0.5;" x1="199.74" x2="319.3679" y1="522.2125" y2="522.2125"/><g data-visibility-modifier="PUBLIC_FIELD"><ellipse cx="209.74" cy="535.8609" fill="none" rx="3" ry="3" style="stroke:#545454;stroke-width:1;"/></g><text fill="#000000" font-family="sans-serif" font-size="14" lengthAdjust="spacing" textLength="95.6279" x="218.74" y="539.2076">dockId: string</text><g data-visibility-modifier="PUBLIC_FIELD"><ellipse cx="209.74" cy="552.1578" fill="none" rx="3" ry="3" style="stroke:#545454;stroke-width:1;"/></g><text fill="#000000" font-family="sans-serif" font-size="14" lengthAdjust="spacing" textLength="89.0586" x="218.74" y="555.5045">name: string</text><line style="stroke:#181818;stroke-width:0.5;" x1="199.74" x2="319.3679" y1="562.8063" y2="562.8063"/></g><!--class PhysicalResource--><g class="entity" data-qualified-name="PhysicalResource" data-source-line="38" id="ent0006"><rect fill="#F1F1F1" height="105.1563" rx="2.5" ry="2.5" style="stroke:#181818;stroke-width:0.5;" width="154.0898" x="355.51" y="473.7969"/><ellipse cx="370.51" cy="493.9297" fill="#C2C2C2" rx="11" ry="11" style="stroke:#181818;stroke-width:1;"/><path d="M373.4788,499.5703 Q372.9006,499.8672 372.26,500.0078 Q371.6194,500.1641 370.9163,500.1641 Q368.4163,500.1641 367.0881,498.5234 Q365.7756,496.8672 365.7756,493.7422 Q365.7756,490.6172 367.0881,488.9609 Q368.4163,487.3047 370.9163,487.3047 Q371.6194,487.3047 372.26,487.4609 Q372.9163,487.6172 373.4788,487.9141 L373.4788,490.6328 Q372.8538,490.0547 372.26,489.7891 Q371.6663,489.5078 371.0413,489.5078 Q369.6975,489.5078 369.01,490.5859 Q368.3225,491.6484 368.3225,493.7422 Q368.3225,495.8359 369.01,496.9141 Q369.6975,497.9766 371.0413,497.9766 Q371.6663,497.9766 372.26,497.7109 Q372.8538,497.4297 373.4788,496.8516 L373.4788,499.5703 Z " fill="#000000"/><text fill="#000000" font-family="sans-serif" font-size="12" font-style="italic" lengthAdjust="spacing" textLength="49.7168" x="420.6965" y="489.9355">&#171;Entity&#187;</text><text fill="#000000" font-family="sans-serif" font-size="14" lengthAdjust="spacing" textLength="122.0898" x="384.51" y="505.7607">PhysicalResource</text><line style="stroke:#181818;stroke-width:0.5;" x1="356.51" x2="508.5998" y1="514.0625" y2="514.0625"/><g data-visibility-modifier="PUBLIC_FIELD"><ellipse cx="366.51" cy="527.7109" fill="none" rx="3" ry="3" style="stroke:#545454;stroke-width:1;"/></g><text fill="#000000" font-family="sans-serif" font-size="14" lengthAdjust="spacing" textLength="123.5391" x="375.51" y="531.0576">resourceId: string</text><g data-visibility-modifier="PUBLIC_FIELD"><ellipse cx="366.51" cy="544.0078" fill="none" rx="3" ry="3" style="stroke:#545454;stroke-width:1;"/></g><text fill="#000000" font-family="sans-serif" font-size="14" lengthAdjust="spacing" textLength="89.0586" x="375.51" y="547.3545">name: string</text><g data-visibility-modifier="PUBLIC_FIELD"><ellipse cx="366.51" cy="560.3047" fill="none" rx="3" ry="3" style="stroke:#545454;stroke-width:1;"/></g><text fill="#000000" font-family="sans-serif" font-size="14" lengthAdjust="spacing" textLength="80.6299" x="375.51" y="563.6514">type: string</text><line style="stroke:#181818;stroke-width:0.5;" x1="356.51" x2="508.5998" y1="570.9531" y2="570.9531"/></g><!--class StaffMember--><g class="entity" data-qualified-name="StaffMember" data-source-line="44" id="ent0007"><rect fill="#F1F1F1" height="88.8594" rx="2.5" ry="2.5" style="stroke:#181818;stroke-width:0.5;" width="122.3984" x="24.35" y="655.9569"/><ellipse cx="39.35" cy="676.0897" fill="#C2C2C2" rx="11" ry="11" style="stroke:#181818;stroke-width:1;"/><path d="M42.3188,681.7303 Q41.7406,682.0272 41.1,682.1678 Q40.4594,682.3241 39.7563,682.3241 Q37.2563,682.3241 35.9281,680.6834 Q34.6156,679.0272 34.6156,675.9022 Q34.6156,672.7772 35.9281,671.1209 Q37.2563,669.4647 39.7563,669.4647 Q40.4594,669.4647 41.1,669.6209 Q41.7563,669.7772 42.3188,670.0741 L42.3188,672.7928 Q41.6938,672.2147 41.1,671.9491 Q40.5063,671.6678 39.8813,671.6678 Q38.5375,671.6678 37.85,672.7459 Q37.1625,673.8084 37.1625,675.9022 Q37.1625,677.9959 37.85,679.0741 Q38.5375,680.1366 39.8813,680.1366 Q40.5063,680.1366 41.1,679.8709 Q41.6938,679.5897 42.3188,679.0116 L42.3188,681.7303 Z " fill="#000000"/><text fill="#000000" font-family="sans-serif" font-size="12" font-style="italic" lengthAdjust="spacing" textLength="49.7168" x="73.6908" y="672.0955">&#171;Entity&#187;</text><text fill="#000000" font-family="sans-serif" font-size="14" lengthAdjust="spacing" textLength="90.3984" x="53.35" y="687.9207">StaffMember</text><line style="stroke:#181818;stroke-width:0.5;" x1="25.35" x2="145.7484" y1="696.2225" y2="696.2225"/><g data-visibility-modifier="PUBLIC_FIELD"><ellipse cx="35.35" cy="709.8709" fill="none" rx="3" ry="3" style="stroke:#545454;stroke-width:1;"/></g><text fill="#000000" font-family="sans-serif" font-size="14" lengthAdjust="spacing" textLength="93.5908" x="44.35" y="713.2176">staffId: string</text><g data-visibility-modifier="PUBLIC_FIELD"><ellipse cx="35.35" cy="726.1678" fill="none" rx="3" ry="3" style="stroke:#545454;stroke-width:1;"/></g><text fill="#000000" font-family="sans-serif" font-size="14" lengthAdjust="spacing" textLength="89.0586" x="44.35" y="729.5145">name: string</text><line style="stroke:#181818;stroke-width:0.5;" x1="25.35" x2="145.7484" y1="736.8163" y2="736.8163"/></g><g class="entity" data-qualified-name="GMN13" data-source-line="63" id="ent0014"><path d="M371.44,54.0469 L371.44,92.8769 L336.43,96.8769 L371.44,100.8769 L371.44,139.7109 A0,0 0 0 0 371.44,139.7109 L627.6651,139.7109 A0,0 0 0 0 627.6651,139.7109 L627.6651,64.0469 L617.6651,54.0469 L371.44,54.0469 A0,0 0 0 0 371.44,54.0469" fill="#FAFAFA" style="stroke:#181818;stroke-width:0.5;"/><path d="M617.6651,54.0469 L617.6651,64.0469 L627.6651,64.0469 L617.6651,54.0469" fill="#FAFAFA" style="stroke:#181818;stroke-width:0.5;"/><text fill="#000000" font-family="sans-serif" font-size="13" lengthAdjust="spacing" textLength="181.4287" x="377.44" y="71.1138">Only SAVED OperationPlans</text><text fill="#000000" font-family="sans-serif" font-size="13" lengthAdjust="spacing" textLength="179.8418" x="377.44" y="86.2466">are included in aggregation</text><text fill="#000000" font-family="sans-serif" font-size="13" lengthAdjust="spacing" textLength="235.2251" x="377.44" y="101.3794">Derived metrics like craneBusyTime</text><text fill="#000000" font-family="sans-serif" font-size="13" lengthAdjust="spacing" textLength="213.3638" x="377.44" y="116.5122">and totalPlanTime are computed</text><text fill="#000000" font-family="sans-serif" font-size="13" lengthAdjust="spacing" textLength="70.2241" x="377.44" y="131.645">for queries</text></g><!--reverse link OperationPlan to Operation--><g class="link" data-entity-1="ent0002" data-entity-2="ent0003" data-link-type="composition" data-source-line="52" id="lnk8"><path codeLine="52" d="M259.55,161.9269 C259.55,184.8069 259.55,200.2669 259.55,225.9669" fill="none" id="OperationPlan-backto-Operation" style="stroke:#181818;stroke-width:1;"/><polygon fill="#181818" points="259.55,149.9269,255.55,155.9269,259.55,161.9269,263.55,155.9269,259.55,149.9269" style="stroke:#181818;stroke-width:1;"/><text fill="#000000" font-family="sans-serif" font-size="13" lengthAdjust="spacing" textLength="69.1895" x="260.55" y="192.5238">operations</text><text fill="#000000" font-family="sans-serif" font-size="13" lengthAdjust="spacing" textLength="8.271" x="251.0786" y="169.3816">1</text><text fill="#000000" font-family="sans-serif" font-size="13" lengthAdjust="spacing" textLength="23.0356" x="235.5989" y="215.3243">0..*</text></g><!--reverse link Operation to StaffAssignment--><g class="link" data-entity-1="ent0003" data-entity-2="ent0004" data-link-type="composition" data-source-line="53" id="lnk9"><path codeLine="53" d="M154.5439,406.0525 C145.5839,415.6125 145.21,416.7669 137.55,426.7969 C126.69,441.0269 116.89,457.8469 108.8,473.5169" fill="none" id="Operation-backto-StaffAssignment" style="stroke:#181818;stroke-width:1;"/><polygon fill="#181818" points="162.75,397.2969,155.7284,398.9393,154.5439,406.0525,161.5655,404.41,162.75,397.2969" style="stroke:#181818;stroke-width:1;"/><text fill="#000000" font-family="sans-serif" font-size="13" lengthAdjust="spacing" textLength="112.3027" x="138.55" y="439.8638">staffAssignments</text><text fill="#000000" font-family="sans-serif" font-size="13" lengthAdjust="spacing" textLength="8.271" x="146.7281" y="416.7934">1</text><text fill="#000000" font-family="sans-serif" font-size="13" lengthAdjust="spacing" textLength="23.0356" x="87.3073" y="462.8589">0..*</text></g><!--link Operation to Dock--><g class="link" data-entity-1="ent0003" data-entity-2="ent0005" data-link-type="dependency" data-source-line="55" id="lnk10"><path codeLine="55" d="M259.55,397.0169 C259.55,426.0269 259.55,451.3069 259.55,475.7269" fill="none" id="Operation-to-Dock" style="stroke:#181818;stroke-width:1;"/><polygon fill="#181818" points="259.55,481.7269,263.55,472.7269,259.55,476.7269,255.55,472.7269,259.55,481.7269" style="stroke:#181818;stroke-width:1;"/><polygon fill="#000000" points="264.55,440.3633,267.4889,431.3182,261.6111,431.3182,264.55,440.3633" style="stroke:#000000;stroke-width:1;"/><text fill="#000000" font-family="sans-serif" font-size="13" lengthAdjust="spacing" textLength="29.7832" x="273.55" y="439.8638">uses</text><text fill="#000000" font-family="sans-serif" font-size="13" lengthAdjust="spacing" textLength="23.0356" x="235.5989" y="416.7816">0..*</text><text fill="#000000" font-family="sans-serif" font-size="13" lengthAdjust="spacing" textLength="8.271" x="250.9576" y="470.8185">1</text></g><!--link Operation to PhysicalResource--><g class="link" data-entity-1="ent0003" data-entity-2="ent0006" data-link-type="dependency" data-source-line="56" id="lnk11"><path codeLine="56" d="M328.18,397.0169 C349.21,422.8869 367.9447,445.9216 386.6547,468.9316" fill="none" id="Operation-to-PhysicalResource" style="stroke:#181818;stroke-width:1;"/><polygon fill="#181818" points="390.44,473.5869,387.8655,464.0804,387.2856,469.7075,381.6585,469.1275,390.44,473.5869" style="stroke:#181818;stroke-width:1;"/><polygon fill="#000000" points="368.7044,439.2427,365.2783,430.3707,360.7178,434.0789,368.7044,439.2427" style="stroke:#000000;stroke-width:1;"/><text fill="#000000" font-family="sans-serif" font-size="13" lengthAdjust="spacing" textLength="57.8652" x="374.55" y="439.8638">assigned</text><text fill="#000000" font-family="sans-serif" font-size="13" lengthAdjust="spacing" textLength="23.0356" x="309.9123" y="416.7816">0..*</text><text fill="#000000" font-family="sans-serif" font-size="13" lengthAdjust="spacing" textLength="8.271" x="376.2615" y="462.5615">1</text></g><!--link StaffAssignment to StaffMember--><g class="link" data-entity-1="ent0004" data-entity-2="ent0007" data-link-type="dependency" data-source-line="57" id="lnk12"><path codeLine="57" d="M85.55,579.4569 C85.55,603.7769 85.55,626.4169 85.55,649.6069" fill="none" id="StaffAssignment-to-StaffMember" style="stroke:#181818;stroke-width:1;"/><polygon fill="#181818" points="85.55,655.6069,89.55,646.6069,85.55,650.6069,81.55,646.6069,85.55,655.6069" style="stroke:#181818;stroke-width:1;"/><polygon fill="#000000" points="90.55,622.5233,93.4889,613.4782,87.6111,613.4782,90.55,622.5233" style="stroke:#000000;stroke-width:1;"/><text fill="#000000" font-family="sans-serif" font-size="13" lengthAdjust="spacing" textLength="48.3882" x="99.55" y="622.0238">assigns</text><text fill="#000000" font-family="sans-serif" font-size="13" lengthAdjust="spacing" textLength="23.0356" x="61.1502" y="598.9153">0..*</text><text fill="#000000" font-family="sans-serif" font-size="13" lengthAdjust="spacing" textLength="8.271" x="76.9825" y="645.0049">1</text></g><!--SRC=[ZLHDRzim3BthLn2vRElWO0M67OmkG3Rtq4ENhcbwLoN6rY9BdYXbC8R-zqbkuyLEsjG70-B7uzCZATeeqt37QwYjiQ9ojaRmBY2ZtaCLb_QFCYMikIPaNdcDKDYQAmFNLgA636wHR702OQwr5TmhQ-1dGDV2-zNoy_Hy-kK3O-_WwqjVzCtBqc79FUQmQD1r63UQcrVJXEP4mtYukEYXRgtrindyPG0VbSnXPTJlW9Sctg6zAfALFFU1SY3luXMJfOaOHKSZ_TaZ6nU91PuGTiXsvxcI-q3RxSWWhTZidsDjv-zK7KkPK3-WIqOqScnggfQKu7edyX1LE6xmkmt6hmXbdzVpNdg-Ni-9L6bgD3wol-SwuEBX5ufU74f1GzmtiNiyrTL-C319ff3UqCuYwdGWSX9lID3mHEJvt5_tPYJM0P0xgk80B9vzsnm1xxIyndJr0zmZ4euPdf9ATrD4bMfUbsauxvFp2Pnb6Km-JQTdaxqvpQ6VJFgVCuuVpqSYFB0Gsqz-IigoMOVJjIg7G4WmUpdie2avy0uVPKmRCnWbxuk-oqlLJiZvm_eJqsPY13XLLXxiUlJeB8nkOJc_loo63cBS8IWZT92HV7m2-VDZ4mDOWKvjexd6s7D1eDK6eLlGRu7Qj3cC6mdUUguJMh900XIsRe97oTRMGNoYNDgKk6oGEFu3]--></g></svg>