<svg xmlns="http://www.w3.org/2000/svg" xmlns:xlink="http://www.w3.org/1999/xlink" contentStyleType="text/css" data-diagram-type="CLASS" height="751px" preserveAspectRatio="none" style="width:580px;height:751px;background:#FFFFFF;" version="1.1" viewBox="0 0 580 751" width="580px" zoomAndPan="magnify"><title>Domain Model - Resource Allocation Query (US4.1.6)</title><defs/><g><g class="title" data-source-line="3"><text fill="#000000" font-family="sans-serif" font-size="14" font-weight="bold" lengthAdjust="spacing" textLength="416.2266" x="75.2711" y="22.9951">Domain Model - Resource Allocation Query (US4.1.6)</text></g><!--class OperationPlan--><g class="entity" data-qualified-name="OperationPlan" data-source-line="8" id="ent0002"><rect fill="#F1F1F1" height="105.1563" rx="2.5" ry="2.5" style="stroke:#181818;stroke-width:0.5;" width="153.1074" x="183" y="44.2969"/><ellipse cx="206.9455" cy="64.4297" fill="#C2C2C2" rx="11" ry="11" style="stroke:#181818;stroke-width:1;"/><path d="M209.9143,70.0703 Q209.3361,70.3672 208.6955,70.5078 Q208.0549,70.6641 207.3518,70.6641 Q204.8518,70.6641 203.5236,69.0234 Q202.2111,67.3672 202.2111,64.2422 Q202.2111,61.1172 203.5236,59.4609 Q204.8518,57.8047 207.3518,57.8047 Q208.0549,57.8047 208.6955,57.9609 Q209.3518,58.1172 209.9143,58.4141 L209.9143,61.1328 Q209.2893,60.5547 208.6955,60.2891 Q208.1018,60.0078 207.4768,60.0078 Q206.133,60.0078 205.4455,61.0859 Q204.758,62.1484 204.758,64.2422 Q204.758,66.3359 205.4455,67.4141 Q206.133,68.4766 207.4768,68.4766 Q208.1018,68.4766 208.6955,68.2109 Q209.2893,67.9297 209.9143,67.3516 L209.9143,70.0703 Z " fill="#000000"/><text fill="#000000" font-family="sans-serif" font-size="12" font-style="italic" lengthAdjust="spacing" textLength="105.2285" x="220.9334" y="60.4355">&#171;AggregateRoot&#187;</text><text fill="#000000" font-family="sans-serif" font-size="14" lengthAdjust="spacing" textLength="99.4561" x="223.8196" y="76.2607">OperationPlan</text><line style="stroke:#181818;stroke-width:0.5;" x1="184" x2="335.1074" y1="84.5625" y2="84.5625"/><g data-visibility-modifier="PUBLIC_FIELD"><ellipse cx="194" cy="98.2109" fill="none" rx="3" ry="3" style="stroke:#545454;stroke-width:1;"/></g><text fill="#000000" font-family="sans-serif" font-size="14" lengthAdjust="spacing" textLength="127.1074" x="203" y="101.5576">id: UniqueEntityID</text><g data-visibility-modifier="PUBLIC_FIELD"><ellipse cx="194" cy="114.5078" fill="none" rx="3" ry="3" style="stroke:#545454;stroke-width:1;"/></g><text fill="#000000" font-family="sans-serif" font-size="14" lengthAdjust="spacing" textLength="92.374" x="203" y="117.8545">status: string</text><g data-visibility-modifier="PUBLIC_FIELD"><ellipse cx="194" cy="130.8047" fill="none" rx="3" ry="3" style="stroke:#545454;stroke-width:1;"/></g><text fill="#000000" font-family="sans-serif" font-size="14" lengthAdjust="spacing" textLength="106.3193" x="203" y="134.1514">planDate: Date</text><line style="stroke:#181818;stroke-width:0.5;" x1="184" x2="335.1074" y1="141.4531" y2="141.4531"/></g><!--class Operation--><g class="entity" data-qualified-name="Operation" data-source-line="14" id="ent0003"><rect fill="#F1F1F1" height="170.3438" rx="2.5" ry="2.5" style="stroke:#181818;stroke-width:0.5;" width="205.9424" x="156.58" y="226.4569"/><ellipse cx="220.4653" cy="246.5897" fill="#C2C2C2" rx="11" ry="11" style="stroke:#181818;stroke-width:1;"/><path d="M223.434,252.2303 Q222.8559,252.5272 222.2153,252.6678 Q221.5746,252.8241 220.8715,252.8241 Q218.3715,252.8241 217.0434,251.1834 Q215.7309,249.5272 215.7309,246.4022 Q215.7309,243.2772 217.0434,241.6209 Q218.3715,239.9647 220.8715,239.9647 Q221.5746,239.9647 222.2153,240.1209 Q222.8715,240.2772 223.434,240.5741 L223.434,243.2928 Q222.809,242.7147 222.2153,242.4491 Q221.6215,242.1678 220.9965,242.1678 Q219.6528,242.1678 218.9653,243.2459 Q218.2778,244.3084 218.2778,246.4022 Q218.2778,248.4959 218.9653,249.5741 Q219.6528,250.6366 220.9965,250.6366 Q221.6215,250.6366 222.2153,250.3709 Q222.809,250.0897 223.434,249.5116 L223.434,252.2303 Z " fill="#000000"/><text fill="#000000" font-family="sans-serif" font-size="12" font-style="italic" lengthAdjust="spacing" textLength="49.7168" x="250.9428" y="242.5955">&#171;Entity&#187;</text><text fill="#000000" font-family="sans-serif" font-size="14" lengthAdjust="spacing" textLength="69.6719" x="240.9653" y="258.4207">Operation</text><line style="stroke:#181818;stroke-width:0.5;" x1="157.58" x2="361.5224" y1="266.7225" y2="266.7225"/><g data-visibility-modifier="PUBLIC_FIELD"><ellipse cx="167.58" cy="280.3709" fill="none" rx="3" ry="3" style="stroke:#545454;stroke-width:1;"/></g><text fill="#000000" font-family="sans-serif" font-size="14" lengthAdjust="spacing" textLength="129.5889" x="176.58" y="283.7176">operationId: string</text><g data-visibility-modifier="PUBLIC_FIELD"><ellipse cx="167.58" cy="296.6678" fill="none" rx="3" ry="3" style="stroke:#545454;stroke-width:1;"/></g><text fill="#000000" font-family="sans-serif" font-size="14" lengthAdjust="spacing" textLength="87.8145" x="176.58" y="300.0145">vvnId: string</text><g data-visibility-modifier="PUBLIC_FIELD"><ellipse cx="167.58" cy="312.9647" fill="none" rx="3" ry="3" style="stroke:#545454;stroke-width:1;"/></g><text fill="#000000" font-family="sans-serif" font-size="14" lengthAdjust="spacing" textLength="82.6123" x="176.58" y="316.3114">dock: string</text><g data-visibility-modifier="PUBLIC_FIELD"><ellipse cx="167.58" cy="329.2616" fill="none" rx="3" ry="3" style="stroke:#545454;stroke-width:1;"/></g><text fill="#000000" font-family="sans-serif" font-size="14" lengthAdjust="spacing" textLength="131.1064" x="176.58" y="332.6082">startTime: number</text><g data-visibility-modifier="PUBLIC_FIELD"><ellipse cx="167.58" cy="345.5584" fill="none" rx="3" ry="3" style="stroke:#545454;stroke-width:1;"/></g><text fill="#000000" font-family="sans-serif" font-size="14" lengthAdjust="spacing" textLength="124.8721" x="176.58" y="348.9051">endTime: number</text><g data-visibility-modifier="PUBLIC_FIELD"><ellipse cx="167.58" cy="361.8553" fill="none" rx="3" ry="3" style="stroke:#545454;stroke-width:1;"/></g><text fill="#000000" font-family="sans-serif" font-size="14" lengthAdjust="spacing" textLength="88.874" x="176.58" y="365.202">crane: string</text><g data-visibility-modifier="PUBLIC_FIELD"><ellipse cx="167.58" cy="378.1522" fill="none" rx="3" ry="3" style="stroke:#545454;stroke-width:1;"/></g><text fill="#000000" font-family="sans-serif" font-size="14" lengthAdjust="spacing" textLength="179.9424" x="176.58" y="381.4989">craneCountUsed: number</text><line style="stroke:#181818;stroke-width:0.5;" x1="157.58" x2="361.5224" y1="388.8006" y2="388.8006"/></g><!--class StaffAssignment--><g class="entity" data-qualified-name="StaffAssignment" data-source-line="24" id="ent0004"><rect fill="#F1F1F1" height="105.1563" rx="2.5" ry="2.5" style="stroke:#181818;stroke-width:0.5;" width="157.1064" x="7" y="473.7969"/><ellipse cx="26.4398" cy="493.9297" fill="#C2C2C2" rx="11" ry="11" style="stroke:#181818;stroke-width:1;"/><path d="M29.4085,499.5703 Q28.8304,499.8672 28.1898,500.0078 Q27.5492,500.1641 26.846,500.1641 Q24.346,500.1641 23.0179,498.5234 Q21.7054,496.8672 21.7054,493.7422 Q21.7054,490.6172 23.0179,488.9609 Q24.346,487.3047 26.846,487.3047 Q27.5492,487.3047 28.1898,487.4609 Q28.846,487.6172 29.4085,487.9141 L29.4085,490.6328 Q28.7835,490.0547 28.1898,489.7891 Q27.596,489.5078 26.971,489.5078 Q25.6273,489.5078 24.9398,490.5859 Q24.2523,491.6484 24.2523,493.7422 Q24.2523,495.8359 24.9398,496.9141 Q25.6273,497.9766 26.971,497.9766 Q27.596,497.9766 28.1898,497.7109 Q28.7835,497.4297 29.4085,496.8516 L29.4085,499.5703 Z " fill="#000000"/><text fill="#000000" font-family="sans-serif" font-size="12" font-style="italic" lengthAdjust="spacing" textLength="87.6504" x="55.2213" y="489.9355">&#171;ValueObject&#187;</text><text fill="#000000" font-family="sans-serif" font-size="14" lengthAdjust="spacing" textLength="115.2402" x="41.4264" y="505.7607">StaffAssignment</text><line style="stroke:#181818;stroke-width:0.5;" x1="8" x2="163.1064" y1="514.0625" y2="514.0625"/><g data-visibility-modifier="PUBLIC_FIELD"><ellipse cx="18" cy="527.7109" fill="none" rx="3" ry="3" style="stroke:#545454;stroke-width:1;"/></g><text fill="#000000" font-family="sans-serif" font-size="14" lengthAdjust="spacing" textLength="93.5908" x="27" y="531.0576">staffId: string</text><g data-visibility-modifier="PUBLIC_FIELD"><ellipse cx="18" cy="544.0078" fill="none" rx="3" ry="3" style="stroke:#545454;stroke-width:1;"/></g><text fill="#000000" font-family="sans-serif" font-size="14" lengthAdjust="spacing" textLength="131.1064" x="27" y="547.3545">startTime: number</text><g data-visibility-modifier="PUBLIC_FIELD"><ellipse cx="18" cy="560.3047" fill="none" rx="3" ry="3" style="stroke:#545454;stroke-width:1;"/></g><text fill="#000000" font-family="sans-serif" font-size="14" lengthAdjust="spacing" textLength="124.8721" x="27" y="563.6514">endTime: number</text><line style="stroke:#181818;stroke-width:0.5;" x1="8" x2="163.1064" y1="570.9531" y2="570.9531"/></g><!--class Dock--><g class="entity" data-qualified-name="Dock" data-source-line="33" id="ent0005"><rect fill="#F1F1F1" height="88.8594" rx="2.5" ry="2.5" style="stroke:#181818;stroke-width:0.5;" width="121.6279" x="198.74" y="481.9469"/><ellipse cx="233.5" cy="502.0797" fill="#C2C2C2" rx="11" ry="11" style="stroke:#181818;stroke-width:1;"/><path d="M236.4688,507.7203 Q235.8906,508.0172 235.25,508.1578 Q234.6094,508.3141 233.9063,508.3141 Q231.4063,508.3141 230.0781,506.6734 Q228.7656,505.0172 228.7656,501.8922 Q228.7656,498.7672 230.0781,497.1109 Q231.4063,495.4547 233.9063,495.4547 Q234.6094,495.4547 235.25,495.6109 Q235.9063,495.7672 236.4688,496.0641 L236.4688,498.7828 Q235.8438,498.2047 235.25,497.9391 Q234.6563,497.6578 234.0313,497.6578 Q232.6875,497.6578 232,498.7359 Q231.3125,499.7984 231.3125,501.8922 Q231.3125,503.9859 232,505.0641 Q232.6875,506.1266 234.0313,506.1266 Q234.6563,506.1266 235.25,505.8609 Q235.8438,505.5797 236.4688,505.0016 L236.4688,507.7203 Z " fill="#000000"/><text fill="#000000" font-family="sans-serif" font-size="12" font-style="italic" lengthAdjust="spacing" textLength="49.7168" x="249.8911" y="498.0855">&#171;Entity&#187;</text><text fill="#000000" font-family="sans-serif" font-size="14" lengthAdjust="spacing" textLength="35.1504" x="257.1743" y="513.9107">Dock</text><line style="stroke:#181818;stroke-width:0.5;" x1="199.74" x2="319.3679" y1="522.2125" y2="522.2125"/><g data-visibility-modifier="PUBLIC_FIELD"><ellipse cx="209.74" cy="535.8609" fill="none" rx="3" ry="3" style="stroke:#545454;stroke-width:1;"/></g><text fill="#000000" font-family="sans-serif" font-size="14" lengthAdjust="spacing" textLength="95.6279" x="218.74" y="539.2076">dockId: string</text><g data-visibility-modifier="PUBLIC_FIELD"><ellipse cx="209.74" cy="552.1578" fill="none" rx="3" ry="3" style="stroke:#545454;stroke-width:1;"/></g><text fill="#000000" font-family="sans-serif" font-size="14" lengthAdjust="spacing" textLength="89.0586" x="218.74" y="555.5045">name: string</text><line style="stroke:#181818;stroke-width:0.5;" x1="199.74" x2="319.3679" y1="562.8063" y2="562.8063"/></g><!--class Crane--><g class="entity" data-qualified-name="Crane" data-source-line="38" id="ent0006"><rect fill="#F1F1F1" height="105.1563" rx="2.5" ry="2.5" style="stroke:#181818;stroke-width:0.5;" width="127.8896" x="355.61" y="473.7969"/><ellipse cx="393.1878" cy="493.9297" fill="#C2C2C2" rx="11" ry="11" style="stroke:#181818;stroke-width:1;"/><path d="M396.1565,499.5703 Q395.5784,499.8672 394.9378,500.0078 Q394.2972,500.1641 393.594,500.1641 Q391.094,500.1641 389.7659,498.5234 Q388.4534,496.8672 388.4534,493.7422 Q388.4534,490.6172 389.7659,488.9609 Q391.094,487.3047 393.594,487.3047 Q394.2972,487.3047 394.9378,487.4609 Q395.594,487.6172 396.1565,487.9141 L396.1565,490.6328 Q395.5315,490.0547 394.9378,489.7891 Q394.344,489.5078 393.719,489.5078 Q392.3753,489.5078 391.6878,490.5859 Q391.0003,491.6484 391.0003,493.7422 Q391.0003,495.8359 391.6878,496.9141 Q392.3753,497.9766 393.719,497.9766 Q394.344,497.9766 394.9378,497.7109 Q395.5315,497.4297 396.1565,496.8516 L396.1565,499.5703 Z " fill="#000000"/><text fill="#000000" font-family="sans-serif" font-size="12" font-style="italic" lengthAdjust="spacing" textLength="49.7168" x="410.2051" y="489.9355">&#171;Entity&#187;</text><text fill="#000000" font-family="sans-serif" font-size="14" lengthAdjust="spacing" textLength="41.5967" x="414.2651" y="505.7607">Crane</text><line style="stroke:#181818;stroke-width:0.5;" x1="356.61" x2="482.4996" y1="514.0625" y2="514.0625"/><g data-visibility-modifier="PUBLIC_FIELD"><ellipse cx="366.61" cy="527.7109" fill="none" rx="3" ry="3" style="stroke:#545454;stroke-width:1;"/></g><text fill="#000000" font-family="sans-serif" font-size="14" lengthAdjust="spacing" textLength="101.8896" x="375.61" y="531.0576">craneId: string</text><g data-visibility-modifier="PUBLIC_FIELD"><ellipse cx="366.61" cy="544.0078" fill="none" rx="3" ry="3" style="stroke:#545454;stroke-width:1;"/></g><text fill="#000000" font-family="sans-serif" font-size="14" lengthAdjust="spacing" textLength="95.6279" x="375.61" y="547.3545">dockId: string</text><g data-visibility-modifier="PUBLIC_FIELD"><ellipse cx="366.61" cy="560.3047" fill="none" rx="3" ry="3" style="stroke:#545454;stroke-width:1;"/></g><text fill="#000000" font-family="sans-serif" font-size="14" lengthAdjust="spacing" textLength="89.0586" x="375.61" y="563.6514">name: string</text><line style="stroke:#181818;stroke-width:0.5;" x1="356.61" x2="482.4996" y1="570.9531" y2="570.9531"/></g><!--class StaffMember--><g class="entity" data-qualified-name="StaffMember" data-source-line="44" id="ent0007"><rect fill="#F1F1F1" height="88.8594" rx="2.5" ry="2.5" style="stroke:#181818;stroke-width:0.5;" width="122.3984" x="24.35" y="655.9569"/><ellipse cx="39.35" cy="676.0897" fill="#C2C2C2" rx="11" ry="11" style="stroke:#181818;stroke-width:1;"/><path d="M42.3188,681.7303 Q41.7406,682.0272 41.1,682.1678 Q40.4594,682.3241 39.7563,682.3241 Q37.2563,682.3241 35.9281,680.6834 Q34.6156,679.0272 34.6156,675.9022 Q34.6156,672.7772 35.9281,671.1209 Q37.2563,669.4647 39.7563,669.4647 Q40.4594,669.4647 41.1,669.6209 Q41.7563,669.7772 42.3188,670.0741 L42.3188,672.7928 Q41.6938,672.2147 41.1,671.9491 Q40.5063,671.6678 39.8813,671.6678 Q38.5375,671.6678 37.85,672.7459 Q37.1625,673.8084 37.1625,675.9022 Q37.1625,677.9959 37.85,679.0741 Q38.5375,680.1366 39.8813,680.1366 Q40.5063,680.1366 41.1,679.8709 Q41.6938,679.5897 42.3188,679.0116 L42.3188,681.7303 Z " fill="#000000"/><text fill="#000000" font-family="sans-serif" font-size="12" font-style="italic" lengthAdjust="spacing" textLength="49.7168" x="73.6908" y="672.0955">&#171;Entity&#187;</text><text fill="#000000" font-family="sans-serif" font-size="14" lengthAdjust="spacing" textLength="90.3984" x="53.35" y="687.9207">StaffMember</text><line style="stroke:#181818;stroke-width:0.5;" x1="25.35" x2="145.7484" y1="696.2225" y2="696.2225"/><g data-visibility-modifier="PUBLIC_FIELD"><ellipse cx="35.35" cy="709.8709" fill="none" rx="3" ry="3" style="stroke:#545454;stroke-width:1;"/></g><text fill="#000000" font-family="sans-serif" font-size="14" lengthAdjust="spacing" textLength="93.5908" x="44.35" y="713.2176">staffId: string</text><g data-visibility-modifier="PUBLIC_FIELD"><ellipse cx="35.35" cy="726.1678" fill="none" rx="3" ry="3" style="stroke:#545454;stroke-width:1;"/></g><text fill="#000000" font-family="sans-serif" font-size="14" lengthAdjust="spacing" textLength="89.0586" x="44.35" y="729.5145">name: string</text><line style="stroke:#181818;stroke-width:0.5;" x1="25.35" x2="145.7484" y1="736.8163" y2="736.8163"/></g><g class="entity" data-qualified-name="GMN13" data-source-line="63" id="ent0014"><path d="M371.34,76.7469 L371.34,92.8769 L336.52,96.8769 L371.34,100.8769 L371.34,117.0125 A0,0 0 0 0 371.34,117.0125 L573.7687,117.0125 A0,0 0 0 0 573.7687,117.0125 L573.7687,86.7469 L563.7687,76.7469 L371.34,76.7469 A0,0 0 0 0 371.34,76.7469" fill="#FAFAFA" style="stroke:#181818;stroke-width:0.5;"/><path d="M563.7687,76.7469 L563.7687,86.7469 L573.7687,86.7469 L563.7687,76.7469" fill="#FAFAFA" style="stroke:#181818;stroke-width:0.5;"/><text fill="#000000" font-family="sans-serif" font-size="13" lengthAdjust="spacing" textLength="181.4287" x="377.34" y="93.8138">Only SAVED OperationPlans</text><text fill="#000000" font-family="sans-serif" font-size="13" lengthAdjust="spacing" textLength="179.8418" x="377.34" y="108.9466">are included in aggregation</text></g><!--reverse link OperationPlan to Operation--><g class="link" data-entity-1="ent0002" data-entity-2="ent0003" data-link-type="composition" data-source-line="52" id="lnk8"><path codeLine="52" d="M259.55,161.9269 C259.55,184.8069 259.55,200.2669 259.55,225.9669" fill="none" id="OperationPlan-backto-Operation" style="stroke:#181818;stroke-width:1;"/><polygon fill="#181818" points="259.55,149.9269,255.55,155.9269,259.55,161.9269,263.55,155.9269,259.55,149.9269" style="stroke:#181818;stroke-width:1;"/><text fill="#000000" font-family="sans-serif" font-size="13" lengthAdjust="spacing" textLength="69.1895" x="260.55" y="192.5238">operations</text><text fill="#000000" font-family="sans-serif" font-size="13" lengthAdjust="spacing" textLength="8.271" x="251.0786" y="169.3816">1</text><text fill="#000000" font-family="sans-serif" font-size="13" lengthAdjust="spacing" textLength="23.0356" x="235.599" y="215.3243">0..*</text></g><!--reverse link Operation to StaffAssignment--><g class="link" data-entity-1="ent0003" data-entity-2="ent0004" data-link-type="composition" data-source-line="53" id="lnk9"><path codeLine="53" d="M154.5439,406.0525 C145.5839,415.6125 145.21,416.7669 137.55,426.7969 C126.69,441.0269 116.89,457.8469 108.8,473.5169" fill="none" id="Operation-backto-StaffAssignment" style="stroke:#181818;stroke-width:1;"/><polygon fill="#181818" points="162.75,397.2969,155.7284,398.9393,154.5439,406.0525,161.5655,404.41,162.75,397.2969" style="stroke:#181818;stroke-width:1;"/><text fill="#000000" font-family="sans-serif" font-size="13" lengthAdjust="spacing" textLength="112.3027" x="138.55" y="439.8638">staffAssignments</text><text fill="#000000" font-family="sans-serif" font-size="13" lengthAdjust="spacing" textLength="8.271" x="146.7282" y="416.7934">1</text><text fill="#000000" font-family="sans-serif" font-size="13" lengthAdjust="spacing" textLength="23.0356" x="87.3073" y="462.8589">0..*</text></g><!--link Operation to Dock--><g class="link" data-entity-1="ent0003" data-entity-2="ent0005" data-link-type="dependency" data-source-line="55" id="lnk10"><path codeLine="55" d="M259.55,397.0169 C259.55,426.0269 259.55,451.3069 259.55,475.7269" fill="none" id="Operation-to-Dock" style="stroke:#181818;stroke-width:1;"/><polygon fill="#181818" points="259.55,481.7269,263.55,472.7269,259.55,476.7269,255.55,472.7269,259.55,481.7269" style="stroke:#181818;stroke-width:1;"/><polygon fill="#000000" points="264.55,440.3633,267.4889,431.3182,261.6111,431.3182,264.55,440.3633" style="stroke:#000000;stroke-width:1;"/><text fill="#000000" font-family="sans-serif" font-size="13" lengthAdjust="spacing" textLength="29.7832" x="273.55" y="439.8638">uses</text><text fill="#000000" font-family="sans-serif" font-size="13" lengthAdjust="spacing" textLength="23.0356" x="235.599" y="416.7816">0..*</text><text fill="#000000" font-family="sans-serif" font-size="13" lengthAdjust="spacing" textLength="8.271" x="250.9576" y="470.8185">1</text></g><!--link Operation to Crane--><g class="link" data-entity-1="ent0003" data-entity-2="ent0006" data-link-type="dependency" data-source-line="56" id="lnk11"><path codeLine="56" d="M323.02,397.0169 C342.48,422.8869 359.6943,445.7811 376.9943,468.7911" fill="none" id="Operation-to-Crane" style="stroke:#181818;stroke-width:1;"/><polygon fill="#181818" points="380.6,473.5869,378.3887,463.9895,377.5953,469.5904,371.9943,468.797,380.6,473.5869" style="stroke:#181818;stroke-width:1;"/><polygon fill="#000000" points="361.5551,439.3594,358.4677,430.364,353.7699,433.8967,361.5551,439.3594" style="stroke:#000000;stroke-width:1;"/><text fill="#000000" font-family="sans-serif" font-size="13" lengthAdjust="spacing" textLength="57.8652" x="367.55" y="439.8638">assigned</text><text fill="#000000" font-family="sans-serif" font-size="13" lengthAdjust="spacing" textLength="23.0356" x="304.3251" y="416.7816">0..*</text><text fill="#000000" font-family="sans-serif" font-size="13" lengthAdjust="spacing" textLength="23.0356" x="350.8225" y="462.5615">0..*</text></g><!--link StaffAssignment to StaffMember--><g class="link" data-entity-1="ent0004" data-entity-2="ent0007" data-link-type="dependency" data-source-line="57" id="lnk12"><path codeLine="57" d="M85.55,579.4569 C85.55,603.7769 85.55,626.4169 85.55,649.6069" fill="none" id="StaffAssignment-to-StaffMember" style="stroke:#181818;stroke-width:1;"/><polygon fill="#181818" points="85.55,655.6069,89.55,646.6069,85.55,650.6069,81.55,646.6069,85.55,655.6069" style="stroke:#181818;stroke-width:1;"/><polygon fill="#000000" points="90.55,622.5233,93.4889,613.4782,87.6111,613.4782,90.55,622.5233" style="stroke:#000000;stroke-width:1;"/><text fill="#000000" font-family="sans-serif" font-size="13" lengthAdjust="spacing" textLength="48.3882" x="99.55" y="622.0238">assigns</text><text fill="#000000" font-family="sans-serif" font-size="13" lengthAdjust="spacing" textLength="23.0356" x="61.1502" y="598.9153">0..*</text><text fill="#000000" font-family="sans-serif" font-size="13" lengthAdjust="spacing" textLength="8.271" x="76.9825" y="645.0049">1</text></g><!--SRC=[ZLJ1Rjim3BthAuXSrhLmi0B33aOR8AXxwA7BrYozgnRZQ9MbL9Gw14F_VPBIkBQoDl4XSAZ7nyT7MlGezPfRta9hjAbNrhG8pdfar9tGYWlpH-e6bbmHCYUTGgXCowM6MoDGGG5tICRR6c6gbAcvaqR3Juzs0oUB-TVn-VZRPyO-mULxJpYRDet5XZiiORP6cpX-AAu_JAiL9nhYuUAYexepnaqcy9S1d4bHmaBB9u_NElImkQbYb1ntdaeWPqEBCR8E75MI4N_P2ykBX09RXXspsPtSY3xHytCM4AP-xFyFjQtx9TjGIlls0MqCeXPvgBPSOpyn1QwCrsv1A3fe9tNk-78v9PADRb6x8FYUAu-pXzzOTtvG10q57YNevT0Wkrt0w994EcA2LR1cpzVerr2WvksR4LsxLz6ElUnaqlu0ZY5C_jrYR7UFzZ-svII7x55fMMWbrnzRCrphqVa8Jei2Hb_6uzDHRnrBw1QGtd9oVBuJKV0WGgoVl4qgYadYIUCfmHCIJDw1RL-tioY19ruK0PvNphZxPk_oOfK3Ddutxi1cwO00AvkL0xFCxfIPLXkOJ- -lg-41CMuHfAwL5q5ykE7uwrqI02ny2X1P_m40]--></g></svg>