<svg xmlns="http://www.w3.org/2000/svg" xmlns:xlink="http://www.w3.org/1999/xlink" contentStyleType="text/css" data-diagram-type="SEQUENCE" height="1012px" preserveAspectRatio="none" style="width:1315px;height:1012px;background:#FFFFFF;" version="1.1" viewBox="0 0 1315 1012" width="1315px" zoomAndPan="magnify"><defs/><g><g><title>Port Authority Officer</title><rect fill="#000000" fill-opacity="0.00000" height="850.0742" width="8" x="76.6387" y="81.4883"/><line style="stroke:#181818;stroke-width:0.5;stroke-dasharray:5,5;" x1="80" x2="80" y1="81.4883" y2="931.5625"/></g><g><title>UI . API</title><rect fill="#000000" fill-opacity="0.00000" height="850.0742" width="8" x="622.4604" y="81.4883"/><line style="stroke:#181818;stroke-width:0.5;stroke-dasharray:5,5;" x1="625.7778" x2="625.7778" y1="81.4883" y2="931.5625"/></g><g><title>VesselTypeAppService</title><rect fill="#000000" fill-opacity="0.00000" height="850.0742" width="8" x="801.9146" y="81.4883"/><line style="stroke:#181818;stroke-width:0.5;stroke-dasharray:5,5;" x1="805.6816" x2="805.6816" y1="81.4883" y2="931.5625"/></g><g><title>VesselTypeRepository</title><rect fill="#000000" fill-opacity="0.00000" height="850.0742" width="8" x="1076.835" y="81.4883"/><line style="stroke:#181818;stroke-width:0.5;stroke-dasharray:5,5;" x1="1079.8462" x2="1079.8462" y1="81.4883" y2="931.5625"/></g><g><title>Audit Log</title><rect fill="#000000" fill-opacity="0.00000" height="850.0742" width="8" x="1257.6377" y="81.4883"/><line style="stroke:#181818;stroke-width:0.5;stroke-dasharray:5,5;" x1="1260.8047" x2="1260.8047" y1="81.4883" y2="931.5625"/></g><g class="participant participant-head" data-participant="Officer"><text fill="#000000" font-family="sans-serif" font-size="14" lengthAdjust="spacing" textLength="145.2773" x="5" y="78.5352">Port Authority Officer</text><ellipse cx="80.6387" cy="13.5" fill="#E2E2F0" rx="8" ry="8" style="stroke:#181818;stroke-width:0.5;"/><path d="M80.6387,21.5 L80.6387,48.5 M67.6387,29.5 L93.6387,29.5 M80.6387,48.5 L67.6387,63.5 M80.6387,48.5 L93.6387,63.5" fill="none" style="stroke:#181818;stroke-width:0.5;"/></g><g class="participant participant-tail" data-participant="Officer"><text fill="#000000" font-family="sans-serif" font-size="14" lengthAdjust="spacing" textLength="145.2773" x="5" y="944.0977">Port Authority Officer</text><ellipse cx="80.6387" cy="955.5508" fill="#E2E2F0" rx="8" ry="8" style="stroke:#181818;stroke-width:0.5;"/><path d="M80.6387,963.5508 L80.6387,990.5508 M67.6387,971.5508 L93.6387,971.5508 M80.6387,990.5508 L67.6387,1005.5508 M80.6387,990.5508 L93.6387,1005.5508" fill="none" style="stroke:#181818;stroke-width:0.5;"/></g><g class="participant participant-head" data-participant="UI"><text fill="#000000" font-family="sans-serif" font-size="14" lengthAdjust="spacing" textLength="51.3652" x="597.7778" y="78.5352">UI / API</text><path d="M605.9604,37 L605.9604,61 M605.9604,49 L622.9604,49" fill="none" style="stroke:#181818;stroke-width:0.5;"/><ellipse cx="634.9604" cy="49" fill="#E2E2F0" rx="12" ry="12" style="stroke:#181818;stroke-width:0.5;"/></g><g class="participant participant-tail" data-participant="UI"><text fill="#000000" font-family="sans-serif" font-size="14" lengthAdjust="spacing" textLength="51.3652" x="597.7778" y="944.0977">UI / API</text><path d="M605.9604,951.0508 L605.9604,975.0508 M605.9604,963.0508 L622.9604,963.0508" fill="none" style="stroke:#181818;stroke-width:0.5;"/><ellipse cx="634.9604" cy="963.0508" fill="#E2E2F0" rx="12" ry="12" style="stroke:#181818;stroke-width:0.5;"/></g><g class="participant participant-head" data-participant="App"><text fill="#000000" font-family="sans-serif" font-size="14" lengthAdjust="spacing" textLength="150.4658" x="727.6816" y="78.5352">VesselTypeAppService</text><ellipse cx="805.9146" cy="49" fill="#E2E2F0" rx="12" ry="12" style="stroke:#181818;stroke-width:0.5;"/><polygon fill="#181818" points="801.9146,37,807.9146,32,805.9146,37,807.9146,42,801.9146,37" style="stroke:#181818;stroke-width:1;"/></g><g class="participant participant-tail" data-participant="App"><text fill="#000000" font-family="sans-serif" font-size="14" lengthAdjust="spacing" textLength="150.4658" x="727.6816" y="944.0977">VesselTypeAppService</text><ellipse cx="805.9146" cy="963.0508" fill="#E2E2F0" rx="12" ry="12" style="stroke:#181818;stroke-width:0.5;"/><polygon fill="#181818" points="801.9146,951.0508,807.9146,946.0508,805.9146,951.0508,807.9146,956.0508,801.9146,951.0508" style="stroke:#181818;stroke-width:1;"/></g><g class="participant participant-head" data-participant="Repo"><text fill="#000000" font-family="sans-serif" font-size="14" lengthAdjust="spacing" textLength="147.9775" x="1003.8462" y="78.5352">VesselTypeRepository</text><ellipse cx="1080.835" cy="49" fill="#E2E2F0" rx="12" ry="12" style="stroke:#181818;stroke-width:0.5;"/><line style="stroke:#181818;stroke-width:0.5;" x1="1068.835" x2="1092.835" y1="63" y2="63"/></g><g class="participant participant-tail" data-participant="Repo"><text fill="#000000" font-family="sans-serif" font-size="14" lengthAdjust="spacing" textLength="147.9775" x="1003.8462" y="944.0977">VesselTypeRepository</text><ellipse cx="1080.835" cy="963.0508" fill="#E2E2F0" rx="12" ry="12" style="stroke:#181818;stroke-width:0.5;"/><line style="stroke:#181818;stroke-width:0.5;" x1="1068.835" x2="1092.835" y1="977.0508" y2="977.0508"/></g><g class="participant participant-head" data-participant="Audit"><rect fill="#E2E2F0" height="30.4883" style="stroke:#181818;stroke-width:0.5;" width="79.666" x="1223.8047" y="46"/><rect fill="#E2E2F0" height="30.4883" style="stroke:#181818;stroke-width:0.5;" width="79.666" x="1219.8047" y="50"/><text fill="#000000" font-family="sans-serif" font-size="14" lengthAdjust="spacing" textLength="65.666" x="1226.8047" y="70.5352">Audit Log</text></g><g class="participant participant-tail" data-participant="Audit"><rect fill="#E2E2F0" height="30.4883" style="stroke:#181818;stroke-width:0.5;" width="79.666" x="1223.8047" y="930.5625"/><rect fill="#E2E2F0" height="30.4883" style="stroke:#181818;stroke-width:0.5;" width="79.666" x="1219.8047" y="934.5625"/><text fill="#000000" font-family="sans-serif" font-size="14" lengthAdjust="spacing" textLength="65.666" x="1226.8047" y="955.0977">Audit Log</text></g><rect fill="#EEEEEE" height="3" style="stroke:#EEEEEE;stroke-width:1;" width="1308.4707" x="0" y="112.1436"/><line style="stroke:#000000;stroke-width:1;" x1="0" x2="1308.4707" y1="112.1436" y2="112.1436"/><line style="stroke:#000000;stroke-width:1;" x1="0" x2="1308.4707" y1="115.1436" y2="115.1436"/><rect fill="#EEEEEE" height="23.3105" style="stroke:#000000;stroke-width:2;" width="61.6011" x="623.4348" y="101.4883"/><text fill="#000000" font-family="sans-serif" font-size="13" font-weight="bold" lengthAdjust="spacing" textLength="43.3164" x="629.4348" y="118.0566">Create</text><g class="message" data-participant-1="Officer" data-participant-2="UI"><polygon fill="#181818" points="614.4604,152.1094,624.4604,156.1094,614.4604,160.1094,618.4604,156.1094" style="stroke:#181818;stroke-width:1;"/><line style="stroke:#181818;stroke-width:1;" x1="80.6387" x2="620.4604" y1="156.1094" y2="156.1094"/><text fill="#000000" font-family="sans-serif" font-size="13" lengthAdjust="spacing" textLength="521.8218" x="87.6387" y="151.3672">Submit CreateVesselType(name, desc, capacityTEU, maxRows, maxBays, maxTiers)</text></g><g class="message" data-participant-1="UI" data-participant-2="App"><polygon fill="#181818" points="793.9146,181.4199,803.9146,185.4199,793.9146,189.4199,797.9146,185.4199" style="stroke:#181818;stroke-width:1;"/><line style="stroke:#181818;stroke-width:1;" x1="626.4604" x2="799.9146" y1="185.4199" y2="185.4199"/><text fill="#000000" font-family="sans-serif" font-size="13" lengthAdjust="spacing" textLength="146.707" x="633.4604" y="180.6777">CreateVesselType(cmd)</text></g><g class="message" data-participant-1="App" data-participant-2="Repo"><polygon fill="#181818" points="1068.835,210.7305,1078.835,214.7305,1068.835,218.7305,1072.835,214.7305" style="stroke:#181818;stroke-width:1;"/><line style="stroke:#181818;stroke-width:1;" x1="805.9146" x2="1074.835" y1="214.7305" y2="214.7305"/><text fill="#000000" font-family="sans-serif" font-size="13" lengthAdjust="spacing" textLength="151.8677" x="812.9146" y="209.9883">isNameAvailable(name)?</text></g><g class="message" data-participant-1="Repo" data-participant-2="App"><polygon fill="#181818" points="816.9146,240.041,806.9146,244.041,816.9146,248.041,812.9146,244.041" style="stroke:#181818;stroke-width:1;"/><line style="stroke:#181818;stroke-width:1;stroke-dasharray:2,2;" x1="810.9146" x2="1079.835" y1="244.041" y2="244.041"/><text fill="#000000" font-family="sans-serif" font-size="13" lengthAdjust="spacing" textLength="61.896" x="822.9146" y="239.2988">true/false</text></g><g class="message" data-participant-1="App" data-participant-2="App"><line style="stroke:#181818;stroke-width:1;" x1="805.9146" x2="847.9146" y1="273.3516" y2="273.3516"/><line style="stroke:#181818;stroke-width:1;" x1="847.9146" x2="847.9146" y1="273.3516" y2="286.3516"/><line style="stroke:#181818;stroke-width:1;" x1="806.9146" x2="847.9146" y1="286.3516" y2="286.3516"/><polygon fill="#181818" points="816.9146,282.3516,806.9146,286.3516,816.9146,290.3516,812.9146,286.3516" style="stroke:#181818;stroke-width:1;"/><text fill="#000000" font-family="sans-serif" font-size="13" lengthAdjust="spacing" textLength="195.895" x="812.9146" y="268.6094">validate &gt;0 and constraints &gt;0</text></g><g class="message" data-participant-1="App" data-participant-2="Repo"><polygon fill="#181818" points="1068.835,311.6621,1078.835,315.6621,1068.835,319.6621,1072.835,315.6621" style="stroke:#181818;stroke-width:1;"/><line style="stroke:#181818;stroke-width:1;" x1="805.9146" x2="1074.835" y1="315.6621" y2="315.6621"/><text fill="#000000" font-family="sans-serif" font-size="13" lengthAdjust="spacing" textLength="106.666" x="812.9146" y="310.9199">save(VesselType)</text></g><g class="message" data-participant-1="Repo" data-participant-2="App"><polygon fill="#181818" points="816.9146,340.9727,806.9146,344.9727,816.9146,348.9727,812.9146,344.9727" style="stroke:#181818;stroke-width:1;"/><line style="stroke:#181818;stroke-width:1;stroke-dasharray:2,2;" x1="810.9146" x2="1079.835" y1="344.9727" y2="344.9727"/><text fill="#000000" font-family="sans-serif" font-size="13" lengthAdjust="spacing" textLength="107.9419" x="822.9146" y="340.2305">VesselType(id,&#8230;)</text></g><g class="message" data-participant-1="App" data-participant-2="Audit"><polygon fill="#181818" points="1249.6377,370.2832,1259.6377,374.2832,1249.6377,378.2832,1253.6377,374.2832" style="stroke:#181818;stroke-width:1;"/><line style="stroke:#181818;stroke-width:1;" x1="805.9146" x2="1255.6377" y1="374.2832" y2="374.2832"/><text fill="#000000" font-family="sans-serif" font-size="13" lengthAdjust="spacing" textLength="430.0537" x="812.9146" y="369.541">log(CREATE, officerId, vesselTypeId, timestamp, outcome=SUCCESS)</text></g><g class="message" data-participant-1="App" data-participant-2="UI"><polygon fill="#181818" points="637.4604,399.5938,627.4604,403.5938,637.4604,407.5938,633.4604,403.5938" style="stroke:#181818;stroke-width:1;"/><line style="stroke:#181818;stroke-width:1;stroke-dasharray:2,2;" x1="631.4604" x2="804.9146" y1="403.5938" y2="403.5938"/><text fill="#000000" font-family="sans-serif" font-size="13" lengthAdjust="spacing" textLength="155.4541" x="643.4604" y="398.8516">success(VesselTypeDTO)</text></g><rect fill="#EEEEEE" height="3" style="stroke:#EEEEEE;stroke-width:1;" width="1308.4707" x="0" y="432.249"/><line style="stroke:#000000;stroke-width:1;" x1="0" x2="1308.4707" y1="432.249" y2="432.249"/><line style="stroke:#000000;stroke-width:1;" x1="0" x2="1308.4707" y1="435.249" y2="435.249"/><rect fill="#EEEEEE" height="23.3105" style="stroke:#000000;stroke-width:2;" width="65.6128" x="621.429" y="421.5938"/><text fill="#000000" font-family="sans-serif" font-size="13" font-weight="bold" lengthAdjust="spacing" textLength="47.3281" x="627.429" y="438.1621">Update</text><g class="message" data-participant-1="Officer" data-participant-2="UI"><polygon fill="#181818" points="614.4604,472.2148,624.4604,476.2148,614.4604,480.2148,618.4604,476.2148" style="stroke:#181818;stroke-width:1;"/><line style="stroke:#181818;stroke-width:1;" x1="80.6387" x2="620.4604" y1="476.2148" y2="476.2148"/><text fill="#000000" font-family="sans-serif" font-size="13" lengthAdjust="spacing" textLength="239.1797" x="87.6387" y="471.4727">Submit UpdateVesselType(id, fields&#8230;)</text></g><g class="message" data-participant-1="UI" data-participant-2="App"><polygon fill="#181818" points="793.9146,501.5254,803.9146,505.5254,793.9146,509.5254,797.9146,505.5254" style="stroke:#181818;stroke-width:1;"/><line style="stroke:#181818;stroke-width:1;" x1="626.4604" x2="799.9146" y1="505.5254" y2="505.5254"/><text fill="#000000" font-family="sans-serif" font-size="13" lengthAdjust="spacing" textLength="150.522" x="633.4604" y="500.7832">UpdateVesselType(cmd)</text></g><g class="message" data-participant-1="App" data-participant-2="Repo"><polygon fill="#181818" points="1068.835,530.8359,1078.835,534.8359,1068.835,538.8359,1072.835,534.8359" style="stroke:#181818;stroke-width:1;"/><line style="stroke:#181818;stroke-width:1;" x1="805.9146" x2="1074.835" y1="534.8359" y2="534.8359"/><text fill="#000000" font-family="sans-serif" font-size="13" lengthAdjust="spacing" textLength="71.3794" x="812.9146" y="530.0938">findById(id)</text></g><g class="message" data-participant-1="Repo" data-participant-2="App"><polygon fill="#181818" points="816.9146,560.1465,806.9146,564.1465,816.9146,568.1465,812.9146,564.1465" style="stroke:#181818;stroke-width:1;"/><line style="stroke:#181818;stroke-width:1;stroke-dasharray:2,2;" x1="810.9146" x2="1079.835" y1="564.1465" y2="564.1465"/><text fill="#000000" font-family="sans-serif" font-size="13" lengthAdjust="spacing" textLength="70.4336" x="822.9146" y="559.4043">VesselType</text></g><g class="message" data-participant-1="App" data-participant-2="App"><line style="stroke:#181818;stroke-width:1;" x1="805.9146" x2="847.9146" y1="593.457" y2="593.457"/><line style="stroke:#181818;stroke-width:1;" x1="847.9146" x2="847.9146" y1="593.457" y2="606.457"/><line style="stroke:#181818;stroke-width:1;" x1="806.9146" x2="847.9146" y1="606.457" y2="606.457"/><polygon fill="#181818" points="816.9146,602.457,806.9146,606.457,816.9146,610.457,812.9146,606.457" style="stroke:#181818;stroke-width:1;"/><text fill="#000000" font-family="sans-serif" font-size="13" lengthAdjust="spacing" textLength="260.9204" x="812.9146" y="588.7148">validate; enforce unique name if changed</text></g><g class="message" data-participant-1="App" data-participant-2="Repo"><polygon fill="#181818" points="1068.835,631.7676,1078.835,635.7676,1068.835,639.7676,1072.835,635.7676" style="stroke:#181818;stroke-width:1;"/><line style="stroke:#181818;stroke-width:1;" x1="805.9146" x2="1074.835" y1="635.7676" y2="635.7676"/><text fill="#000000" font-family="sans-serif" font-size="13" lengthAdjust="spacing" textLength="88.1309" x="812.9146" y="631.0254">save(updated)</text></g><g class="message" data-participant-1="Repo" data-participant-2="App"><polygon fill="#181818" points="816.9146,661.0781,806.9146,665.0781,816.9146,669.0781,812.9146,665.0781" style="stroke:#181818;stroke-width:1;"/><line style="stroke:#181818;stroke-width:1;stroke-dasharray:2,2;" x1="810.9146" x2="1079.835" y1="665.0781" y2="665.0781"/><text fill="#000000" font-family="sans-serif" font-size="13" lengthAdjust="spacing" textLength="70.4336" x="822.9146" y="660.3359">VesselType</text></g><g class="message" data-participant-1="App" data-participant-2="Audit"><polygon fill="#181818" points="1249.6377,690.3887,1259.6377,694.3887,1249.6377,698.3887,1253.6377,694.3887" style="stroke:#181818;stroke-width:1;"/><line style="stroke:#181818;stroke-width:1;" x1="805.9146" x2="1255.6377" y1="694.3887" y2="694.3887"/><text fill="#000000" font-family="sans-serif" font-size="13" lengthAdjust="spacing" textLength="431.7231" x="812.9146" y="689.6465">log(UPDATE, officerId, vesselTypeId, timestamp, outcome=SUCCESS)</text></g><g class="message" data-participant-1="App" data-participant-2="UI"><polygon fill="#181818" points="637.4604,719.6992,627.4604,723.6992,637.4604,727.6992,633.4604,723.6992" style="stroke:#181818;stroke-width:1;"/><line style="stroke:#181818;stroke-width:1;stroke-dasharray:2,2;" x1="631.4604" x2="804.9146" y1="723.6992" y2="723.6992"/><text fill="#000000" font-family="sans-serif" font-size="13" lengthAdjust="spacing" textLength="155.4541" x="643.4604" y="718.957">success(VesselTypeDTO)</text></g><rect fill="#EEEEEE" height="3" style="stroke:#EEEEEE;stroke-width:1;" width="1308.4707" x="0" y="752.3545"/><line style="stroke:#000000;stroke-width:1;" x1="0" x2="1308.4707" y1="752.3545" y2="752.3545"/><line style="stroke:#000000;stroke-width:1;" x1="0" x2="1308.4707" y1="755.3545" y2="755.3545"/><rect fill="#EEEEEE" height="23.3105" style="stroke:#000000;stroke-width:2;" width="62.3374" x="623.0667" y="741.6992"/><text fill="#000000" font-family="sans-serif" font-size="13" font-weight="bold" lengthAdjust="spacing" textLength="44.0527" x="629.0667" y="758.2676">Search</text><g class="message" data-participant-1="Officer" data-participant-2="UI"><polygon fill="#181818" points="614.4604,792.3203,624.4604,796.3203,614.4604,800.3203,618.4604,796.3203" style="stroke:#181818;stroke-width:1;"/><line style="stroke:#181818;stroke-width:1;" x1="80.6387" x2="620.4604" y1="796.3203" y2="796.3203"/><text fill="#000000" font-family="sans-serif" font-size="13" lengthAdjust="spacing" textLength="188.2842" x="87.6387" y="791.5781">searchBy(name?, description?)</text></g><g class="message" data-participant-1="UI" data-participant-2="App"><polygon fill="#181818" points="793.9146,821.6309,803.9146,825.6309,793.9146,829.6309,797.9146,825.6309" style="stroke:#181818;stroke-width:1;"/><line style="stroke:#181818;stroke-width:1;" x1="626.4604" x2="799.9146" y1="825.6309" y2="825.6309"/><text fill="#000000" font-family="sans-serif" font-size="13" lengthAdjust="spacing" textLength="85.1538" x="633.4604" y="820.8887">search(query)</text></g><g class="message" data-participant-1="App" data-participant-2="Repo"><polygon fill="#181818" points="1068.835,850.9414,1078.835,854.9414,1068.835,858.9414,1072.835,854.9414" style="stroke:#181818;stroke-width:1;"/><line style="stroke:#181818;stroke-width:1;" x1="805.9146" x2="1074.835" y1="854.9414" y2="854.9414"/><text fill="#000000" font-family="sans-serif" font-size="13" lengthAdjust="spacing" textLength="223.2026" x="812.9146" y="850.1992">searchByNameOrDescription(query)</text></g><g class="message" data-participant-1="Repo" data-participant-2="App"><polygon fill="#181818" points="816.9146,880.252,806.9146,884.252,816.9146,888.252,812.9146,884.252" style="stroke:#181818;stroke-width:1;"/><line style="stroke:#181818;stroke-width:1;stroke-dasharray:2,2;" x1="810.9146" x2="1079.835" y1="884.252" y2="884.252"/><text fill="#000000" font-family="sans-serif" font-size="13" lengthAdjust="spacing" textLength="113.2803" x="822.9146" y="879.5098">List&lt;VesselType&gt;</text></g><g class="message" data-participant-1="App" data-participant-2="UI"><polygon fill="#181818" points="637.4604,909.5625,627.4604,913.5625,637.4604,917.5625,633.4604,913.5625" style="stroke:#181818;stroke-width:1;"/><line style="stroke:#181818;stroke-width:1;stroke-dasharray:2,2;" x1="631.4604" x2="804.9146" y1="913.5625" y2="913.5625"/><text fill="#000000" font-family="sans-serif" font-size="13" lengthAdjust="spacing" textLength="76.6733" x="643.4604" y="908.8203">PagedResult</text></g><!--SRC=[jLDDZzem4BtdLumu4IchxNbRGE7ZWBGgY93UZJq1IuwT-YDjRlqr_M7z9Pqa2mGMhNhfRSRpvitp6vjnRooCjiPwI8C_6Ijz0vkYa1pj29Wxnz7112sORM2Kh-4PqkswA-VhY1ljhL4m-eREeTet5QPLbQ6jgR43KHgXzYtr0BJ3oZX9yviErAR4fHHoBursC4g3a1vUpR4dQRCecanWOP5vXCaaUXC7JrCI0Y-GXKD9BJtWEcciMOa927Gy0SugnadAVfKdKBAVE_F3TS6SDNsmbsXT714ZyP9s8dx7o4iHHssD8AromaZtbSQaDPEA7LG_D9v5NVNfmkHjmEU2AOVdzlwyPagAzbhJJy2q07BLUSkazewExaOvLkFugYQ-7p8GAaNovzVlYzRUqnTGvZXUx5RfVfM0wLrSYmJgIsERULcYywoi21CyDoLEidonM6NP6z_PTnSufyw1fEL-4tVBoYlnyR9wmArYA2GguJhXmpMympvOGo6rc3ThGJmV-FBO_C-0kZ2M8mGjlmU4TeSW2-0dfeye7gqXT9h-QTR0-tox_F_UPyWiFptotdMLUTCzqbd_DQoiseytkxMyHux93DlSMtrcQT_znYwl76VudIMlqlalLvtJsuji6JcyGnUK_mi0]--></g></svg>