<svg xmlns="http://www.w3.org/2000/svg" xmlns:xlink="http://www.w3.org/1999/xlink" contentStyleType="text/css" data-diagram-type="CLASS" height="633px" preserveAspectRatio="none" style="width:1753px;height:633px;background:#FFFFFF;" version="1.1" viewBox="0 0 1753 633" width="1753px" zoomAndPan="magnify"><title>Class Diagram - US4.1.15 Complementary Task</title><defs/><g><g class="title" data-source-line="3"><text fill="#000000" font-family="sans-serif" font-size="14" font-weight="bold" lengthAdjust="spacing" textLength="370.9043" x="684.1843" y="22.9951">Class Diagram - US4.1.15 Complementary Task</text></g><!--class ComplementaryTaskController--><g class="entity" data-qualified-name="ComplementaryTaskController" data-source-line="5" id="ent0002"><rect fill="#F1F1F1" height="137.75" rx="2.5" ry="2.5" style="stroke:#181818;stroke-width:0.5;" width="417.5352" x="600.36" y="85.0369"/><ellipse cx="697.7243" cy="105.1697" fill="#C2C2C2" rx="11" ry="11" style="stroke:#181818;stroke-width:1;"/><path d="M700.693,110.8103 Q700.1149,111.1072 699.4743,111.2478 Q698.8336,111.4041 698.1305,111.4041 Q695.6305,111.4041 694.3024,109.7634 Q692.9899,108.1072 692.9899,104.9822 Q692.9899,101.8572 694.3024,100.2009 Q695.6305,98.5447 698.1305,98.5447 Q698.8336,98.5447 699.4743,98.7009 Q700.1305,98.8572 700.693,99.1541 L700.693,101.8728 Q700.068,101.2947 699.4743,101.0291 Q698.8805,100.7478 698.2555,100.7478 Q696.9118,100.7478 696.2243,101.8259 Q695.5368,102.8884 695.5368,104.9822 Q695.5368,107.0759 696.2243,108.1541 Q696.9118,109.2166 698.2555,109.2166 Q698.8805,109.2166 699.4743,108.9509 Q700.068,108.6697 700.693,108.0916 L700.693,110.8103 Z " fill="#000000"/><text fill="#000000" font-family="sans-serif" font-size="12" font-style="italic" lengthAdjust="spacing" textLength="73.9746" x="788.3903" y="101.1755">&#171;Controller&#187;</text><text fill="#000000" font-family="sans-serif" font-size="14" lengthAdjust="spacing" textLength="214.3066" x="718.2243" y="117.0007">ComplementaryTaskController</text><line style="stroke:#181818;stroke-width:0.5;" x1="601.36" x2="1016.8952" y1="125.3025" y2="125.3025"/><line style="stroke:#181818;stroke-width:0.5;" x1="601.36" x2="1016.8952" y1="133.3025" y2="133.3025"/><g data-visibility-modifier="PUBLIC_METHOD"><ellipse cx="611.36" cy="146.9509" fill="#A6A6A6" rx="3" ry="3" style="stroke:#545454;stroke-width:1;"/></g><text fill="#000000" font-family="sans-serif" font-size="14" lengthAdjust="spacing" textLength="211.3057" x="620.36" y="150.2976">listTasks(filter): HttpResponse</text><g data-visibility-modifier="PUBLIC_METHOD"><ellipse cx="611.36" cy="163.2478" fill="#A6A6A6" rx="3" ry="3" style="stroke:#545454;stroke-width:1;"/></g><text fill="#000000" font-family="sans-serif" font-size="14" lengthAdjust="spacing" textLength="218.5723" x="620.36" y="166.5945">createTask(dto): HttpResponse</text><g data-visibility-modifier="PUBLIC_METHOD"><ellipse cx="611.36" cy="179.5447" fill="#A6A6A6" rx="3" ry="3" style="stroke:#545454;stroke-width:1;"/></g><text fill="#000000" font-family="sans-serif" font-size="14" lengthAdjust="spacing" textLength="265.8154" x="620.36" y="182.8914">updateTask(code, dto): HttpResponse</text><g data-visibility-modifier="PUBLIC_METHOD"><ellipse cx="611.36" cy="195.8416" fill="#A6A6A6" rx="3" ry="3" style="stroke:#545454;stroke-width:1;"/></g><text fill="#000000" font-family="sans-serif" font-size="14" lengthAdjust="spacing" textLength="391.5352" x="620.36" y="199.1882">fixCategory(code, newCategory, reason): HttpResponse</text><g data-visibility-modifier="PUBLIC_METHOD"><ellipse cx="611.36" cy="212.1384" fill="#A6A6A6" rx="3" ry="3" style="stroke:#545454;stroke-width:1;"/></g><text fill="#000000" font-family="sans-serif" font-size="14" lengthAdjust="spacing" textLength="211.8184" x="620.36" y="215.4851">getAudit(code): HttpResponse</text></g><!--class ComplementaryTaskService--><g class="entity" data-qualified-name="ComplementaryTaskService" data-source-line="13" id="ent0003"><rect fill="#F1F1F1" height="137.75" rx="2.5" ry="2.5" style="stroke:#181818;stroke-width:0.5;" width="380.6143" x="618.82" y="323.5269"/><ellipse cx="706.4396" cy="343.6597" fill="#C2C2C2" rx="11" ry="11" style="stroke:#181818;stroke-width:1;"/><path d="M709.4084,349.3003 Q708.8303,349.5972 708.1896,349.7378 Q707.549,349.8941 706.8459,349.8941 Q704.3459,349.8941 703.0178,348.2534 Q701.7053,346.5972 701.7053,343.4722 Q701.7053,340.3472 703.0178,338.6909 Q704.3459,337.0347 706.8459,337.0347 Q707.549,337.0347 708.1896,337.1909 Q708.8459,337.3472 709.4084,337.6441 L709.4084,340.3628 Q708.7834,339.7847 708.1896,339.5191 Q707.5959,339.2378 706.9709,339.2378 Q705.6271,339.2378 704.9396,340.3159 Q704.2521,341.3784 704.2521,343.4722 Q704.2521,345.5659 704.9396,346.6441 Q705.6271,347.7066 706.9709,347.7066 Q707.5959,347.7066 708.1896,347.4409 Q708.7834,347.1597 709.4084,346.5816 L709.4084,349.3003 Z " fill="#000000"/><text fill="#000000" font-family="sans-serif" font-size="12" font-style="italic" lengthAdjust="spacing" textLength="126.082" x="762.3361" y="339.6655">&#171;ApplicationService&#187;</text><text fill="#000000" font-family="sans-serif" font-size="14" lengthAdjust="spacing" textLength="196.875" x="726.9396" y="355.4907">ComplementaryTaskService</text><line style="stroke:#181818;stroke-width:0.5;" x1="619.82" x2="998.4343" y1="363.7925" y2="363.7925"/><line style="stroke:#181818;stroke-width:0.5;" x1="619.82" x2="998.4343" y1="371.7925" y2="371.7925"/><g data-visibility-modifier="PUBLIC_METHOD"><ellipse cx="629.82" cy="385.4409" fill="#A6A6A6" rx="3" ry="3" style="stroke:#545454;stroke-width:1;"/></g><text fill="#000000" font-family="sans-serif" font-size="14" lengthAdjust="spacing" textLength="186.8535" x="638.82" y="388.7876">listTasks(filter): TaskDTO[]</text><g data-visibility-modifier="PUBLIC_METHOD"><ellipse cx="629.82" cy="401.7378" fill="#A6A6A6" rx="3" ry="3" style="stroke:#545454;stroke-width:1;"/></g><text fill="#000000" font-family="sans-serif" font-size="14" lengthAdjust="spacing" textLength="238.2324" x="638.82" y="405.0845">createTask(dto, author): TaskDTO</text><g data-visibility-modifier="PUBLIC_METHOD"><ellipse cx="629.82" cy="418.0347" fill="#A6A6A6" rx="3" ry="3" style="stroke:#545454;stroke-width:1;"/></g><text fill="#000000" font-family="sans-serif" font-size="14" lengthAdjust="spacing" textLength="285.4756" x="638.82" y="421.3814">updateTask(code, dto, author): TaskDTO</text><g data-visibility-modifier="PUBLIC_METHOD"><ellipse cx="629.82" cy="434.3316" fill="#A6A6A6" rx="3" ry="3" style="stroke:#545454;stroke-width:1;"/></g><text fill="#000000" font-family="sans-serif" font-size="14" lengthAdjust="spacing" textLength="354.6143" x="638.82" y="437.6782">fixCategory(code, newCategory, author): TaskDTO</text><g data-visibility-modifier="PUBLIC_METHOD"><ellipse cx="629.82" cy="450.6284" fill="#A6A6A6" rx="3" ry="3" style="stroke:#545454;stroke-width:1;"/></g><text fill="#000000" font-family="sans-serif" font-size="14" lengthAdjust="spacing" textLength="228.7988" x="638.82" y="453.9751">getAudit(code): AuditEntryDTO[]</text></g><!--class ComplementaryTaskRepo--><g class="entity" data-qualified-name="ComplementaryTaskRepo" data-source-line="21" id="ent0004"><rect fill="#F1F1F1" height="88.8594" rx="2.5" ry="2.5" style="stroke:#181818;stroke-width:0.5;" width="292.2598" x="7" y="529.4269"/><ellipse cx="58.4165" cy="549.5597" fill="#C2C2C2" rx="11" ry="11" style="stroke:#181818;stroke-width:1;"/><path d="M61.3853,555.2003 Q60.8071,555.4972 60.1665,555.6378 Q59.5259,555.7941 58.8228,555.7941 Q56.3228,555.7941 54.9946,554.1534 Q53.6821,552.4972 53.6821,549.3722 Q53.6821,546.2472 54.9946,544.5909 Q56.3228,542.9347 58.8228,542.9347 Q59.5259,542.9347 60.1665,543.0909 Q60.8228,543.2472 61.3853,543.5441 L61.3853,546.2628 Q60.7603,545.6847 60.1665,545.4191 Q59.5728,545.1378 58.9478,545.1378 Q57.604,545.1378 56.9165,546.2159 Q56.229,547.2784 56.229,549.3722 Q56.229,551.4659 56.9165,552.5441 Q57.604,553.6066 58.9478,553.6066 Q59.5728,553.6066 60.1665,553.3409 Q60.7603,553.0597 61.3853,552.4816 L61.3853,555.2003 Z " fill="#000000"/><text fill="#000000" font-family="sans-serif" font-size="12" font-style="italic" lengthAdjust="spacing" textLength="79.0313" x="129.8643" y="545.5655">&#171;Repository&#187;</text><text fill="#000000" font-family="sans-serif" font-size="14" lengthAdjust="spacing" textLength="180.9268" x="78.9165" y="561.3907">ComplementaryTaskRepo</text><line style="stroke:#181818;stroke-width:0.5;" x1="8" x2="298.2598" y1="569.6925" y2="569.6925"/><line style="stroke:#181818;stroke-width:0.5;" x1="8" x2="298.2598" y1="577.6925" y2="577.6925"/><g data-visibility-modifier="PUBLIC_METHOD"><ellipse cx="18" cy="591.3409" fill="#A6A6A6" rx="3" ry="3" style="stroke:#545454;stroke-width:1;"/></g><text fill="#000000" font-family="sans-serif" font-size="14" lengthAdjust="spacing" textLength="235.293" x="27" y="594.6876">find(filter): ComplementaryTask[]</text><g data-visibility-modifier="PUBLIC_METHOD"><ellipse cx="18" cy="607.6378" fill="#A6A6A6" rx="3" ry="3" style="stroke:#545454;stroke-width:1;"/></g><text fill="#000000" font-family="sans-serif" font-size="14" lengthAdjust="spacing" textLength="266.2598" x="27" y="610.9845">save(task: ComplementaryTask): void</text></g><!--class ComplementaryTaskAuditRepo--><g class="entity" data-qualified-name="ComplementaryTaskAuditRepo" data-source-line="26" id="ent0005"><rect fill="#F1F1F1" height="88.8594" rx="2.5" ry="2.5" style="stroke:#181818;stroke-width:0.5;" width="427.6045" x="334.33" y="529.4269"/><ellipse cx="435.061" cy="549.5597" fill="#C2C2C2" rx="11" ry="11" style="stroke:#181818;stroke-width:1;"/><path d="M438.0297,555.2003 Q437.4516,555.4972 436.811,555.6378 Q436.1703,555.7941 435.4672,555.7941 Q432.9672,555.7941 431.6391,554.1534 Q430.3266,552.4972 430.3266,549.3722 Q430.3266,546.2472 431.6391,544.5909 Q432.9672,542.9347 435.4672,542.9347 Q436.1703,542.9347 436.811,543.0909 Q437.4672,543.2472 438.0297,543.5441 L438.0297,546.2628 Q437.4047,545.6847 436.811,545.4191 Q436.2172,545.1378 435.5922,545.1378 Q434.2485,545.1378 433.561,546.2159 Q432.8735,547.2784 432.8735,549.3722 Q432.8735,551.4659 433.561,552.5441 Q434.2485,553.6066 435.5922,553.6066 Q436.2172,553.6066 436.811,553.3409 Q437.4047,553.0597 438.0297,552.4816 L438.0297,555.2003 Z " fill="#000000"/><text fill="#000000" font-family="sans-serif" font-size="12" font-style="italic" lengthAdjust="spacing" textLength="79.0313" x="524.8666" y="545.5655">&#171;Repository&#187;</text><text fill="#000000" font-family="sans-serif" font-size="14" lengthAdjust="spacing" textLength="217.6426" x="455.561" y="561.3907">ComplementaryTaskAuditRepo</text><line style="stroke:#181818;stroke-width:0.5;" x1="335.33" x2="760.9345" y1="569.6925" y2="569.6925"/><line style="stroke:#181818;stroke-width:0.5;" x1="335.33" x2="760.9345" y1="577.6925" y2="577.6925"/><g data-visibility-modifier="PUBLIC_METHOD"><ellipse cx="345.33" cy="591.3409" fill="#A6A6A6" rx="3" ry="3" style="stroke:#545454;stroke-width:1;"/></g><text fill="#000000" font-family="sans-serif" font-size="14" lengthAdjust="spacing" textLength="372.6133" x="354.33" y="594.6876">append(entry: ComplementaryTaskChangeLog): void</text><g data-visibility-modifier="PUBLIC_METHOD"><ellipse cx="345.33" cy="607.6378" fill="#A6A6A6" rx="3" ry="3" style="stroke:#545454;stroke-width:1;"/></g><text fill="#000000" font-family="sans-serif" font-size="14" lengthAdjust="spacing" textLength="401.6045" x="354.33" y="610.9845">findByTaskCode(code): ComplementaryTaskChangeLog[]</text></g><!--class ComplementaryTaskScheduler--><g class="entity" data-qualified-name="ComplementaryTaskScheduler" data-source-line="31" id="ent0006"><rect fill="#F1F1F1" height="105.1563" rx="2.5" ry="2.5" style="stroke:#181818;stroke-width:0.5;" width="547.6299" x="797.31" y="521.2769"/><ellipse cx="959.2636" cy="541.4097" fill="#C2C2C2" rx="11" ry="11" style="stroke:#181818;stroke-width:1;"/><path d="M962.2324,547.0503 Q961.6542,547.3472 961.0136,547.4878 Q960.373,547.6441 959.6699,547.6441 Q957.1699,547.6441 955.8417,546.0034 Q954.5292,544.3472 954.5292,541.2222 Q954.5292,538.0972 955.8417,536.4409 Q957.1699,534.7847 959.6699,534.7847 Q960.373,534.7847 961.0136,534.9409 Q961.6699,535.0972 962.2324,535.3941 L962.2324,538.1128 Q961.6074,537.5347 961.0136,537.2691 Q960.4199,536.9878 959.7949,536.9878 Q958.4511,536.9878 957.7636,538.0659 Q957.0761,539.1284 957.0761,541.2222 Q957.0761,543.3159 957.7636,544.3941 Q958.4511,545.4566 959.7949,545.4566 Q960.4199,545.4566 961.0136,545.1909 Q961.6074,544.9097 962.2324,544.3316 L962.2324,547.0503 Z " fill="#000000"/><text fill="#000000" font-family="sans-serif" font-size="12" font-style="italic" lengthAdjust="spacing" textLength="105.5977" x="1034.5761" y="537.4155">&#171;DomainService&#187;</text><text fill="#000000" font-family="sans-serif" font-size="14" lengthAdjust="spacing" textLength="215.2227" x="979.7636" y="553.2407">ComplementaryTaskScheduler</text><line style="stroke:#181818;stroke-width:0.5;" x1="798.31" x2="1343.9399" y1="561.5425" y2="561.5425"/><line style="stroke:#181818;stroke-width:0.5;" x1="798.31" x2="1343.9399" y1="569.5425" y2="569.5425"/><g data-visibility-modifier="PUBLIC_METHOD"><ellipse cx="808.31" cy="583.1909" fill="#A6A6A6" rx="3" ry="3" style="stroke:#545454;stroke-width:1;"/></g><text fill="#000000" font-family="sans-serif" font-size="14" lengthAdjust="spacing" textLength="369.2842" x="817.31" y="586.5376">checkConflicts(task: ComplementaryTask): Conflict[]</text><g data-visibility-modifier="PUBLIC_METHOD"><ellipse cx="808.31" cy="599.4878" fill="#A6A6A6" rx="3" ry="3" style="stroke:#545454;stroke-width:1;"/></g><text fill="#000000" font-family="sans-serif" font-size="14" lengthAdjust="spacing" textLength="521.6299" x="817.31" y="602.8345">markOngoingImpact(tasks: ComplementaryTask[]): ComplementaryTask[]</text><g data-visibility-modifier="PUBLIC_METHOD"><ellipse cx="808.31" cy="615.7847" fill="#A6A6A6" rx="3" ry="3" style="stroke:#545454;stroke-width:1;"/></g><text fill="#000000" font-family="sans-serif" font-size="14" lengthAdjust="spacing" textLength="275.584" x="817.31" y="619.1314">validateCategoryActive(category): bool</text></g><!--class ComplementaryTaskMap--><g class="entity" data-qualified-name="ComplementaryTaskMap" data-source-line="37" id="ent0007"><rect fill="#F1F1F1" height="88.8594" rx="2.5" ry="2.5" style="stroke:#181818;stroke-width:0.5;" width="366.293" x="1379.98" y="529.4269"/><ellipse cx="1471.5371" cy="549.5597" fill="#C2C2C2" rx="11" ry="11" style="stroke:#181818;stroke-width:1;"/><path d="M1474.5059,555.2003 Q1473.9278,555.4972 1473.2871,555.6378 Q1472.6465,555.7941 1471.9434,555.7941 Q1469.4434,555.7941 1468.1153,554.1534 Q1466.8028,552.4972 1466.8028,549.3722 Q1466.8028,546.2472 1468.1153,544.5909 Q1469.4434,542.9347 1471.9434,542.9347 Q1472.6465,542.9347 1473.2871,543.0909 Q1473.9434,543.2472 1474.5059,543.5441 L1474.5059,546.2628 Q1473.8809,545.6847 1473.2871,545.4191 Q1472.6934,545.1378 1472.0684,545.1378 Q1470.7246,545.1378 1470.0371,546.2159 Q1469.3496,547.2784 1469.3496,549.3722 Q1469.3496,551.4659 1470.0371,552.5441 Q1470.7246,553.6066 1472.0684,553.6066 Q1472.6934,553.6066 1473.2871,553.3409 Q1473.8809,553.0597 1474.5059,552.4816 L1474.5059,555.2003 Z " fill="#000000"/><text fill="#000000" font-family="sans-serif" font-size="12" font-style="italic" lengthAdjust="spacing" textLength="59.9414" x="1549.4058" y="545.5655">&#171;Mapper&#187;</text><text fill="#000000" font-family="sans-serif" font-size="14" lengthAdjust="spacing" textLength="174.6787" x="1492.0371" y="561.3907">ComplementaryTaskMap</text><line style="stroke:#181818;stroke-width:0.5;" x1="1380.98" x2="1745.273" y1="569.6925" y2="569.6925"/><line style="stroke:#181818;stroke-width:0.5;" x1="1380.98" x2="1745.273" y1="577.6925" y2="577.6925"/><g data-visibility-modifier="PUBLIC_METHOD"><ellipse cx="1390.98" cy="591.3409" fill="#A6A6A6" rx="3" ry="3" style="stroke:#545454;stroke-width:1;"/></g><text fill="#000000" font-family="sans-serif" font-size="14" lengthAdjust="spacing" textLength="311.1514" x="1399.98" y="594.6876">toDTO(task: ComplementaryTask): TaskDTO</text><g data-visibility-modifier="PUBLIC_METHOD"><ellipse cx="1390.98" cy="607.6378" fill="#A6A6A6" rx="3" ry="3" style="stroke:#545454;stroke-width:1;"/></g><text fill="#000000" font-family="sans-serif" font-size="14" lengthAdjust="spacing" textLength="340.293" x="1399.98" y="610.9845">toDTO(tasks: ComplementaryTask[]): TaskDTO[]</text></g><!--class ComplementaryTask--><g class="entity" data-qualified-name="ComplementaryTask" data-source-line="42" id="ent0008"><rect fill="#F1F1F1" height="219.2344" rx="2.5" ry="2.5" style="stroke:#181818;stroke-width:0.5;" width="331.0469" x="1052.61" y="44.2969"/><ellipse cx="1141.3165" cy="64.4297" fill="#C2C2C2" rx="11" ry="11" style="stroke:#181818;stroke-width:1;"/><path d="M1144.2853,70.0703 Q1143.7072,70.3672 1143.0665,70.5078 Q1142.4259,70.6641 1141.7228,70.6641 Q1139.2228,70.6641 1137.8947,69.0234 Q1136.5822,67.3672 1136.5822,64.2422 Q1136.5822,61.1172 1137.8947,59.4609 Q1139.2228,57.8047 1141.7228,57.8047 Q1142.4259,57.8047 1143.0665,57.9609 Q1143.7228,58.1172 1144.2853,58.4141 L1144.2853,61.1328 Q1143.6603,60.5547 1143.0665,60.2891 Q1142.4728,60.0078 1141.8478,60.0078 Q1140.504,60.0078 1139.8165,61.0859 Q1139.129,62.1484 1139.129,64.2422 Q1139.129,66.3359 1139.8165,67.4141 Q1140.504,68.4766 1141.8478,68.4766 Q1142.4728,68.4766 1143.0665,68.2109 Q1143.6603,67.9297 1144.2853,67.3516 L1144.2853,70.0703 Z " fill="#000000"/><text fill="#000000" font-family="sans-serif" font-size="12" font-style="italic" lengthAdjust="spacing" textLength="105.2285" x="1181.7692" y="60.4355">&#171;AggregateRoot&#187;</text><text fill="#000000" font-family="sans-serif" font-size="14" lengthAdjust="spacing" textLength="145.1338" x="1161.8165" y="76.2607">ComplementaryTask</text><line style="stroke:#181818;stroke-width:0.5;" x1="1053.61" x2="1382.6569" y1="84.5625" y2="84.5625"/><g data-visibility-modifier="PUBLIC_FIELD"><ellipse cx="1063.61" cy="98.2109" fill="none" rx="3" ry="3" style="stroke:#545454;stroke-width:1;"/></g><text fill="#000000" font-family="sans-serif" font-size="14" lengthAdjust="spacing" textLength="62.1318" x="1072.61" y="101.5576">id: string</text><g data-visibility-modifier="PUBLIC_FIELD"><ellipse cx="1063.61" cy="114.5078" fill="none" rx="3" ry="3" style="stroke:#545454;stroke-width:1;"/></g><text fill="#000000" font-family="sans-serif" font-size="14" lengthAdjust="spacing" textLength="83.1182" x="1072.61" y="117.8545">code: string</text><g data-visibility-modifier="PUBLIC_FIELD"><ellipse cx="1063.61" cy="130.8047" fill="none" rx="3" ry="3" style="stroke:#545454;stroke-width:1;"/></g><text fill="#000000" font-family="sans-serif" font-size="14" lengthAdjust="spacing" textLength="111.2275" x="1072.61" y="134.1514">category: string</text><g data-visibility-modifier="PUBLIC_FIELD"><ellipse cx="1063.61" cy="147.1016" fill="none" rx="3" ry="3" style="stroke:#545454;stroke-width:1;"/></g><text fill="#000000" font-family="sans-serif" font-size="14" lengthAdjust="spacing" textLength="80.5752" x="1072.61" y="150.4482">staff: string</text><g data-visibility-modifier="PUBLIC_FIELD"><ellipse cx="1063.61" cy="163.3984" fill="none" rx="3" ry="3" style="stroke:#545454;stroke-width:1;"/></g><text fill="#000000" font-family="sans-serif" font-size="14" lengthAdjust="spacing" textLength="74.5391" x="1072.61" y="166.7451">vve: string</text><g data-visibility-modifier="PUBLIC_FIELD"><ellipse cx="1063.61" cy="179.6953" fill="none" rx="3" ry="3" style="stroke:#545454;stroke-width:1;"/></g><text fill="#000000" font-family="sans-serif" font-size="14" lengthAdjust="spacing" textLength="92.374" x="1072.61" y="183.042">status: string</text><g data-visibility-modifier="PUBLIC_FIELD"><ellipse cx="1063.61" cy="195.9922" fill="none" rx="3" ry="3" style="stroke:#545454;stroke-width:1;"/></g><text fill="#000000" font-family="sans-serif" font-size="14" lengthAdjust="spacing" textLength="108.459" x="1072.61" y="199.3389">timeStart: Date</text><g data-visibility-modifier="PUBLIC_FIELD"><ellipse cx="1063.61" cy="212.2891" fill="none" rx="3" ry="3" style="stroke:#545454;stroke-width:1;"/></g><text fill="#000000" font-family="sans-serif" font-size="14" lengthAdjust="spacing" textLength="108.2949" x="1072.61" y="215.6357">timeEnd?: Date</text><g data-visibility-modifier="PUBLIC_FIELD"><ellipse cx="1063.61" cy="228.5859" fill="none" rx="3" ry="3" style="stroke:#545454;stroke-width:1;"/></g><text fill="#000000" font-family="sans-serif" font-size="14" lengthAdjust="spacing" textLength="305.0469" x="1072.61" y="231.9326">auditLog: ComplementaryTaskChangeLog[]</text><line style="stroke:#181818;stroke-width:0.5;" x1="1053.61" x2="1382.6569" y1="239.2344" y2="239.2344"/><g data-visibility-modifier="PUBLIC_METHOD"><ellipse cx="1063.61" cy="252.8828" fill="#A6A6A6" rx="3" ry="3" style="stroke:#545454;stroke-width:1;"/></g><text fill="#000000" font-family="sans-serif" font-size="14" lengthAdjust="spacing" textLength="150.2676" x="1072.61" y="256.2295">applyPatch(dto): void</text></g><!--class ComplementaryTaskChangeLog--><g class="entity" data-qualified-name="ComplementaryTaskChangeLog" data-source-line="55" id="ent0009"><rect fill="#F1F1F1" height="137.75" rx="2.5" ry="2.5" style="stroke:#181818;stroke-width:0.5;" width="255.9863" x="1090.14" y="323.5269"/><ellipse cx="1105.14" cy="343.6597" fill="#C2C2C2" rx="11" ry="11" style="stroke:#181818;stroke-width:1;"/><path d="M1108.1088,349.3003 Q1107.5306,349.5972 1106.89,349.7378 Q1106.2494,349.8941 1105.5463,349.8941 Q1103.0463,349.8941 1101.7181,348.2534 Q1100.4056,346.5972 1100.4056,343.4722 Q1100.4056,340.3472 1101.7181,338.6909 Q1103.0463,337.0347 1105.5463,337.0347 Q1106.2494,337.0347 1106.89,337.1909 Q1107.5463,337.3472 1108.1088,337.6441 L1108.1088,340.3628 Q1107.4838,339.7847 1106.89,339.5191 Q1106.2963,339.2378 1105.6713,339.2378 Q1104.3275,339.2378 1103.64,340.3159 Q1102.9525,341.3784 1102.9525,343.4722 Q1102.9525,345.5659 1103.64,346.6441 Q1104.3275,347.7066 1105.6713,347.7066 Q1106.2963,347.7066 1106.89,347.4409 Q1107.4838,347.1597 1108.1088,346.5816 L1108.1088,349.3003 Z " fill="#000000"/><text fill="#000000" font-family="sans-serif" font-size="12" font-style="italic" lengthAdjust="spacing" textLength="49.7168" x="1206.2748" y="339.6655">&#171;Entity&#187;</text><text fill="#000000" font-family="sans-serif" font-size="14" lengthAdjust="spacing" textLength="223.9863" x="1119.14" y="355.4907">ComplementaryTaskChangeLog</text><line style="stroke:#181818;stroke-width:0.5;" x1="1091.14" x2="1345.1263" y1="363.7925" y2="363.7925"/><g data-visibility-modifier="PUBLIC_FIELD"><ellipse cx="1101.14" cy="377.4409" fill="none" rx="3" ry="3" style="stroke:#545454;stroke-width:1;"/></g><text fill="#000000" font-family="sans-serif" font-size="14" lengthAdjust="spacing" textLength="83.7129" x="1110.14" y="380.7876">logId: string</text><g data-visibility-modifier="PUBLIC_FIELD"><ellipse cx="1101.14" cy="393.7378" fill="none" rx="3" ry="3" style="stroke:#545454;stroke-width:1;"/></g><text fill="#000000" font-family="sans-serif" font-size="14" lengthAdjust="spacing" textLength="118.1045" x="1110.14" y="397.0845">changedAt: Date</text><g data-visibility-modifier="PUBLIC_FIELD"><ellipse cx="1101.14" cy="410.0347" fill="none" rx="3" ry="3" style="stroke:#545454;stroke-width:1;"/></g><text fill="#000000" font-family="sans-serif" font-size="14" lengthAdjust="spacing" textLength="95.4912" x="1110.14" y="413.3814">author: string</text><g data-visibility-modifier="PUBLIC_FIELD"><ellipse cx="1101.14" cy="426.3316" fill="none" rx="3" ry="3" style="stroke:#545454;stroke-width:1;"/></g><text fill="#000000" font-family="sans-serif" font-size="14" lengthAdjust="spacing" textLength="173.0107" x="1110.14" y="429.6782">reasonForChange: string</text><g data-visibility-modifier="PUBLIC_FIELD"><ellipse cx="1101.14" cy="442.6284" fill="none" rx="3" ry="3" style="stroke:#545454;stroke-width:1;"/></g><text fill="#000000" font-family="sans-serif" font-size="14" lengthAdjust="spacing" textLength="139.6445" x="1110.14" y="445.9751">diffSummary: string</text><line style="stroke:#181818;stroke-width:0.5;" x1="1091.14" x2="1345.1263" y1="453.2769" y2="453.2769"/></g><!--link ComplementaryTaskController to ComplementaryTaskService--><g class="link" data-entity-1="ent0002" data-entity-2="ent0003" data-link-type="dependency" data-source-line="63" id="lnk10"><path codeLine="63" d="M809.13,222.9969 C809.13,254.5169 809.13,285.8769 809.13,317.3869" fill="none" id="ComplementaryTaskController-to-ComplementaryTaskService" style="stroke:#181818;stroke-width:1;"/><polygon fill="#181818" points="809.13,323.3869,813.13,314.3869,809.13,318.3869,805.13,314.3869,809.13,323.3869" style="stroke:#181818;stroke-width:1;"/></g><!--link ComplementaryTaskService to ComplementaryTaskRepo--><g class="link" data-entity-1="ent0003" data-entity-2="ent0004" data-link-type="dependency" data-source-line="64" id="lnk11"><path codeLine="64" d="M618.4,440.5969 C526.96,463.8269 416.06,492.8869 317.13,521.2769 C308.52,523.7469 305.427,524.6228 296.527,527.2928" fill="none" id="ComplementaryTaskService-to-ComplementaryTaskRepo" style="stroke:#181818;stroke-width:1;"/><polygon fill="#181818" points="290.78,529.0169,300.5498,530.262,295.5691,527.5801,298.251,522.5994,290.78,529.0169" style="stroke:#181818;stroke-width:1;"/></g><!--link ComplementaryTaskService to ComplementaryTaskAuditRepo--><g class="link" data-entity-1="ent0003" data-entity-2="ent0005" data-link-type="dependency" data-source-line="65" id="lnk12"><path codeLine="65" d="M709.71,461.7569 C676.87,484.3469 646.174,505.4473 616.754,525.6773" fill="none" id="ComplementaryTaskService-to-ComplementaryTaskAuditRepo" style="stroke:#181818;stroke-width:1;"/><polygon fill="#181818" points="611.81,529.0769,621.4923,527.2734,615.93,526.2439,616.9595,520.6815,611.81,529.0769" style="stroke:#181818;stroke-width:1;"/></g><!--link ComplementaryTaskService to ComplementaryTaskScheduler--><g class="link" data-entity-1="ent0003" data-entity-2="ent0006" data-link-type="dependency" data-source-line="66" id="lnk13"><path codeLine="66" d="M908.93,461.7569 C937.56,481.3769 963.3605,499.0353 990.3005,517.4953" fill="none" id="ComplementaryTaskService-to-ComplementaryTaskScheduler" style="stroke:#181818;stroke-width:1;"/><polygon fill="#181818" points="995.25,520.8869,990.0868,512.4999,991.1254,518.0606,985.5647,519.0992,995.25,520.8869" style="stroke:#181818;stroke-width:1;"/></g><!--link ComplementaryTaskService to ComplementaryTaskMap--><g class="link" data-entity-1="ent0003" data-entity-2="ent0007" data-link-type="dependency" data-source-line="67" id="lnk14"><path codeLine="67" d="M999.93,443.5869 C1024.52,449.7269 1049.39,455.7669 1073.13,461.2769 C1200.91,490.9569 1234.34,491.6369 1362.13,521.2769 C1372.66,523.7269 1377.6498,524.8794 1388.5498,527.5294" fill="none" id="ComplementaryTaskService-to-ComplementaryTaskMap" style="stroke:#181818;stroke-width:1;"/><polygon fill="#181818" points="1394.38,528.9469,1386.5797,522.934,1389.5215,527.7657,1384.6898,530.7075,1394.38,528.9469" style="stroke:#181818;stroke-width:1;"/></g><!--reverse link ComplementaryTask to ComplementaryTaskChangeLog--><g class="link" data-entity-1="ent0008" data-entity-2="ent0009" data-link-type="composition" data-source-line="69" id="lnk15"><path codeLine="69" d="M1218.13,275.8169 C1218.13,296.0569 1218.13,304.6769 1218.13,323.2569" fill="none" id="ComplementaryTask-backto-ComplementaryTaskChangeLog" style="stroke:#181818;stroke-width:1;"/><polygon fill="#181818" points="1218.13,263.8169,1214.13,269.8169,1218.13,275.8169,1222.13,269.8169,1218.13,263.8169" style="stroke:#181818;stroke-width:1;"/><text fill="#000000" font-family="sans-serif" font-size="13" lengthAdjust="spacing" textLength="8.271" x="1209.8701" y="283.7762">1</text><text fill="#000000" font-family="sans-serif" font-size="13" lengthAdjust="spacing" textLength="23.0356" x="1193.9456" y="312.4266">0..*</text></g><!--SRC=[bLLDRzim3BtdLmWvPLqIhC1sAOeCMT9X1LPqQDhJi8DcqOvGMJGaEbqmxB-FyaVifBQ3dWAIZzPxrAFYdxNDf9EfID5Yj7MOWY2NmyWVAduh5RvecuXO6WyZqcH0h8pqNgorJ09c9fus7-UNyyjFOeLfPY05IzBjnQFqpwDHL82FAg6mGaiEZG4dhg-ROB4GVqT2l3VQKu3vIQmDWNjt9RuHPG_WCxHCX26H0qaGG1D5s078CrK38bGm5TsmMFzPCIv1jwzm5bxgp5JmAHvjHry2jCoLfgBfjFwlL_W6t4v7mAgNMMPq94cZhP83waEuVhp_-UkrzAcGEMsnXUfJtuqyCu2kbbFjHN33bxWlEVRBVu0CMNluyPhuW5fphArgvBxgAuLxkOC9STY1uAuTQZLmTi6obu3CCc0A45HqV7wrbJQ1xvZKvrISlrHsLb0FexzrS3ARQ0igBnTYZQdKfwxWUXJs9cRNa1yOGuqfPvPAztnl4-Gjlaqp6L7HwJjdt3_vdJGw6AhsnJ8YpNSHLI4t_aOq0_BkPCR2xiAK3rjEo7OP4D9oN0FjPTwiI3-Bi7P9uY1XtW-8L3FHwafuSZoZOj9yaKTnfRATyoJZk9tOxU2aJhblPqYdi64YT2NM_C4wTMFLvoOZWqVPAcTiLFhLx7z8YhRL-tV6_OTsdW6lggQ3ymqcjyVw2wXQKfjNU0NQeF9X_8gk_72xf7GSR_AKdTUCZ8aD_GdCPelUjtBK-uXsTeNLVcFBuMLuOzzXPz_OnslGCGunlXoBYzbCZ3_CvnVZWIly3m00]--></g></svg>