<svg xmlns="http://www.w3.org/2000/svg" xmlns:xlink="http://www.w3.org/1999/xlink" contentStyleType="text/css" data-diagram-type="SEQUENCE" height="1564px" preserveAspectRatio="none" style="width:2271px;height:1564px;background:#FFFFFF;" version="1.1" viewBox="0 0 2271 1564" width="2271px" zoomAndPan="magnify"><title>Sequence Diagram - Manage Complementary Task (US4.1.15) - Full</title><defs/><g><text fill="#000000" font-family="sans-serif" font-size="14" font-weight="bold" lengthAdjust="spacing" textLength="531.207" x="866.3782" y="27.9951">Sequence Diagram - Manage Complementary Task (US4.1.15) - Full</text><rect fill="none" height="486.8672" style="stroke:#000000;stroke-width:1.5;" width="1971.3438" x="283.6196" y="614.7188"/><rect fill="none" height="324.3984" style="stroke:#000000;stroke-width:1.5;" width="1951.3438" x="293.6196" y="770.1875"/><g class="participant-lifeline" data-entity-uid="part1" data-qualified-name="Operator" id="part1-lifeline"><g><title>Logistics Operator</title><rect fill="#000000" fill-opacity="0.00000" height="1364.7188" width="8" x="67.9604" y="118.5938"/><line style="stroke:#181818;stroke-width:0.5;stroke-dasharray:5,5;" x1="71" x2="71" y1="118.5938" y2="1483.3125"/></g></g><g class="participant-lifeline" data-entity-uid="part2" data-qualified-name="SPA" id="part2-lifeline"><g><title>SPA</title><rect fill="#000000" fill-opacity="0.00000" height="1364.7188" width="8" x="324.1196" y="118.5938"/><line style="stroke:#181818;stroke-width:0.5;stroke-dasharray:5,5;" x1="327.6196" x2="327.6196" y1="118.5938" y2="1483.3125"/></g></g><g class="participant-lifeline" data-entity-uid="part3" data-qualified-name="Ctrl" id="part3-lifeline"><g><title>ComplementaryTaskController</title><rect fill="#000000" fill-opacity="0.00000" height="1364.7188" width="8" x="700.5034" y="118.5938"/><line style="stroke:#181818;stroke-width:0.5;stroke-dasharray:5,5;" x1="704.3501" x2="704.3501" y1="118.5938" y2="1483.3125"/></g></g><g class="participant-lifeline" data-entity-uid="part4" data-qualified-name="App" id="part4-lifeline"><g><title>ComplementaryTaskService</title><rect fill="#000000" fill-opacity="0.00000" height="1364.7188" width="8" x="1016.1782" y="118.5938"/><line style="stroke:#181818;stroke-width:0.5;stroke-dasharray:5,5;" x1="1019.7407" x2="1019.7407" y1="118.5938" y2="1483.3125"/></g></g><g class="participant-lifeline" data-entity-uid="part5" data-qualified-name="Repo" id="part5-lifeline"><g><title>ComplementaryTaskRepo</title><rect fill="#000000" fill-opacity="0.00000" height="1364.7188" width="8" x="1221.0791" y="118.5938"/><line style="stroke:#181818;stroke-width:0.5;stroke-dasharray:5,5;" x1="1224.6157" x2="1224.6157" y1="118.5938" y2="1483.3125"/></g></g><g class="participant-lifeline" data-entity-uid="part6" data-qualified-name="CatRepo" id="part6-lifeline"><g><title>ComplementaryTaskCategoryRepo</title><rect fill="#000000" fill-opacity="0.00000" height="1364.7188" width="8" x="1449.981" y="118.5938"/><line style="stroke:#181818;stroke-width:0.5;stroke-dasharray:5,5;" x1="1453.5425" x2="1453.5425" y1="118.5938" y2="1483.3125"/></g></g><g class="participant-lifeline" data-entity-uid="part7" data-qualified-name="Scheduler" id="part7-lifeline"><g><title>ComplementaryTaskScheduler</title><rect fill="#000000" fill-opacity="0.00000" height="1364.7188" width="8" x="1696.0308" y="118.5938"/><line style="stroke:#181818;stroke-width:0.5;stroke-dasharray:5,5;" x1="1699.4194" x2="1699.4194" y1="118.5938" y2="1483.3125"/></g></g><g class="participant-lifeline" data-entity-uid="part8" data-qualified-name="AuditRepo" id="part8-lifeline"><g><title>ComplementaryTaskAuditRepo</title><rect fill="#000000" fill-opacity="0.00000" height="1364.7188" width="8" x="1928.4634" y="118.5938"/><line style="stroke:#181818;stroke-width:0.5;stroke-dasharray:5,5;" x1="1931.6421" x2="1931.6421" y1="118.5938" y2="1483.3125"/></g></g><g class="participant-lifeline" data-entity-uid="part9" data-qualified-name="Map" id="part9-lifeline"><g><title>ComplementaryTaskMap</title><rect fill="#000000" fill-opacity="0.00000" height="1364.7188" width="8" x="2140.624" y="118.5938"/><line style="stroke:#181818;stroke-width:0.5;stroke-dasharray:5,5;" x1="2144.2847" x2="2144.2847" y1="118.5938" y2="1483.3125"/></g></g><g class="participant participant-head" data-entity-uid="part1" data-qualified-name="Operator" id="part1-head"><text fill="#000000" font-family="sans-serif" font-size="14" lengthAdjust="spacing" textLength="127.9209" x="5" y="115.292">Logistics Operator</text><ellipse cx="71.9604" cy="50.7969" fill="#E3E3E3" rx="8" ry="8" style="stroke:#181818;stroke-width:0.5;"/><path d="M71.9604,58.7969 L71.9604,85.7969 M58.9604,66.7969 L84.9604,66.7969 M71.9604,85.7969 L58.9604,100.7969 M71.9604,85.7969 L84.9604,100.7969" fill="none" style="stroke:#181818;stroke-width:0.5;"/></g><g class="participant participant-tail" data-entity-uid="part1" data-qualified-name="Operator" id="part1-tail"><text fill="#000000" font-family="sans-serif" font-size="14" lengthAdjust="spacing" textLength="127.9209" x="5" y="1495.3076">Logistics Operator</text><ellipse cx="71.9604" cy="1507.1094" fill="#E3E3E3" rx="8" ry="8" style="stroke:#181818;stroke-width:0.5;"/><path d="M71.9604,1515.1094 L71.9604,1542.1094 M58.9604,1523.1094 L84.9604,1523.1094 M71.9604,1542.1094 L58.9604,1557.1094 M71.9604,1542.1094 L84.9604,1557.1094" fill="none" style="stroke:#181818;stroke-width:0.5;"/></g><g class="participant participant-head" data-entity-uid="part2" data-qualified-name="SPA" id="part2-head"><text fill="#000000" font-family="sans-serif" font-size="14" lengthAdjust="spacing" textLength="26.9063" x="311.6665" y="115.292">SPA</text><path d="M307.6196,74.2969 L307.6196,98.2969 M307.6196,86.2969 L324.6196,86.2969" fill="none" style="stroke:#181818;stroke-width:0.5;"/><ellipse cx="336.6196" cy="86.2969" fill="#E3E3E3" rx="12" ry="12" style="stroke:#181818;stroke-width:0.5;"/></g><g class="participant participant-tail" data-entity-uid="part2" data-qualified-name="SPA" id="part2-tail"><text fill="#000000" font-family="sans-serif" font-size="14" lengthAdjust="spacing" textLength="26.9063" x="311.6665" y="1495.3076">SPA</text><path d="M307.6196,1502.6094 L307.6196,1526.6094 M307.6196,1514.6094 L324.6196,1514.6094" fill="none" style="stroke:#181818;stroke-width:0.5;"/><ellipse cx="336.6196" cy="1514.6094" fill="#E3E3E3" rx="12" ry="12" style="stroke:#181818;stroke-width:0.5;"/></g><g class="participant participant-head" data-entity-uid="part3" data-qualified-name="Ctrl" id="part3-head"><text fill="#000000" font-family="sans-serif" font-size="14" lengthAdjust="spacing" textLength="214.3066" x="594.3501" y="115.292">ComplementaryTaskController</text><ellipse cx="704.5034" cy="86.2969" fill="#E3E3E3" rx="12" ry="12" style="stroke:#181818;stroke-width:0.5;"/><polygon fill="#181818" points="700.5034,74.2969,706.5034,69.2969,704.5034,74.2969,706.5034,79.2969,700.5034,74.2969" style="stroke:#181818;stroke-width:1;"/></g><g class="participant participant-tail" data-entity-uid="part3" data-qualified-name="Ctrl" id="part3-tail"><text fill="#000000" font-family="sans-serif" font-size="14" lengthAdjust="spacing" textLength="214.3066" x="594.3501" y="1495.3076">ComplementaryTaskController</text><ellipse cx="704.5034" cy="1514.6094" fill="#E3E3E3" rx="12" ry="12" style="stroke:#181818;stroke-width:0.5;"/><polygon fill="#181818" points="700.5034,1502.6094,706.5034,1497.6094,704.5034,1502.6094,706.5034,1507.6094,700.5034,1502.6094" style="stroke:#181818;stroke-width:1;"/></g><g class="participant participant-head" data-entity-uid="part4" data-qualified-name="App" id="part4-head"><text fill="#000000" font-family="sans-serif" font-size="14" lengthAdjust="spacing" textLength="196.875" x="918.7407" y="115.292">ComplementaryTaskService</text><ellipse cx="1020.1782" cy="86.2969" fill="#E3E3E3" rx="12" ry="12" style="stroke:#181818;stroke-width:0.5;"/><polygon fill="#181818" points="1016.1782,74.2969,1022.1782,69.2969,1020.1782,74.2969,1022.1782,79.2969,1016.1782,74.2969" style="stroke:#181818;stroke-width:1;"/></g><g class="participant participant-tail" data-entity-uid="part4" data-qualified-name="App" id="part4-tail"><text fill="#000000" font-family="sans-serif" font-size="14" lengthAdjust="spacing" textLength="196.875" x="918.7407" y="1495.3076">ComplementaryTaskService</text><ellipse cx="1020.1782" cy="1514.6094" fill="#E3E3E3" rx="12" ry="12" style="stroke:#181818;stroke-width:0.5;"/><polygon fill="#181818" points="1016.1782,1502.6094,1022.1782,1497.6094,1020.1782,1502.6094,1022.1782,1507.6094,1016.1782,1502.6094" style="stroke:#181818;stroke-width:1;"/></g><g class="participant participant-head" data-entity-uid="part5" data-qualified-name="Repo" id="part5-head"><text fill="#000000" font-family="sans-serif" font-size="14" lengthAdjust="spacing" textLength="180.9268" x="1131.6157" y="115.292">ComplementaryTaskRepo</text><ellipse cx="1225.0791" cy="86.2969" fill="#E3E3E3" rx="12" ry="12" style="stroke:#181818;stroke-width:0.5;"/><line style="stroke:#181818;stroke-width:0.5;" x1="1213.0791" x2="1237.0791" y1="100.2969" y2="100.2969"/></g><g class="participant participant-tail" data-entity-uid="part5" data-qualified-name="Repo" id="part5-tail"><text fill="#000000" font-family="sans-serif" font-size="14" lengthAdjust="spacing" textLength="180.9268" x="1131.6157" y="1495.3076">ComplementaryTaskRepo</text><ellipse cx="1225.0791" cy="1514.6094" fill="#E3E3E3" rx="12" ry="12" style="stroke:#181818;stroke-width:0.5;"/><line style="stroke:#181818;stroke-width:0.5;" x1="1213.0791" x2="1237.0791" y1="1528.6094" y2="1528.6094"/></g><g class="participant participant-head" data-entity-uid="part6" data-qualified-name="CatRepo" id="part6-head"><text fill="#000000" font-family="sans-serif" font-size="14" lengthAdjust="spacing" textLength="244.877" x="1328.5425" y="115.292">ComplementaryTaskCategoryRepo</text><ellipse cx="1453.981" cy="86.2969" fill="#E3E3E3" rx="12" ry="12" style="stroke:#181818;stroke-width:0.5;"/><line style="stroke:#181818;stroke-width:0.5;" x1="1441.981" x2="1465.981" y1="100.2969" y2="100.2969"/></g><g class="participant participant-tail" data-entity-uid="part6" data-qualified-name="CatRepo" id="part6-tail"><text fill="#000000" font-family="sans-serif" font-size="14" lengthAdjust="spacing" textLength="244.877" x="1328.5425" y="1495.3076">ComplementaryTaskCategoryRepo</text><ellipse cx="1453.981" cy="1514.6094" fill="#E3E3E3" rx="12" ry="12" style="stroke:#181818;stroke-width:0.5;"/><line style="stroke:#181818;stroke-width:0.5;" x1="1441.981" x2="1465.981" y1="1528.6094" y2="1528.6094"/></g><g class="participant participant-head" data-entity-uid="part7" data-qualified-name="Scheduler" id="part7-head"><text fill="#000000" font-family="sans-serif" font-size="14" lengthAdjust="spacing" textLength="215.2227" x="1589.4194" y="115.292">ComplementaryTaskScheduler</text><ellipse cx="1700.0308" cy="86.2969" fill="#E3E3E3" rx="12" ry="12" style="stroke:#181818;stroke-width:0.5;"/><polygon fill="#181818" points="1696.0308,74.2969,1702.0308,69.2969,1700.0308,74.2969,1702.0308,79.2969,1696.0308,74.2969" style="stroke:#181818;stroke-width:1;"/></g><g class="participant participant-tail" data-entity-uid="part7" data-qualified-name="Scheduler" id="part7-tail"><text fill="#000000" font-family="sans-serif" font-size="14" lengthAdjust="spacing" textLength="215.2227" x="1589.4194" y="1495.3076">ComplementaryTaskScheduler</text><ellipse cx="1700.0308" cy="1514.6094" fill="#E3E3E3" rx="12" ry="12" style="stroke:#181818;stroke-width:0.5;"/><polygon fill="#181818" points="1696.0308,1502.6094,1702.0308,1497.6094,1700.0308,1502.6094,1702.0308,1507.6094,1696.0308,1502.6094" style="stroke:#181818;stroke-width:1;"/></g><g class="participant participant-head" data-entity-uid="part8" data-qualified-name="AuditRepo" id="part8-head"><text fill="#000000" font-family="sans-serif" font-size="14" lengthAdjust="spacing" textLength="217.6426" x="1820.6421" y="115.292">ComplementaryTaskAuditRepo</text><ellipse cx="1932.4634" cy="86.2969" fill="#E3E3E3" rx="12" ry="12" style="stroke:#181818;stroke-width:0.5;"/><line style="stroke:#181818;stroke-width:0.5;" x1="1920.4634" x2="1944.4634" y1="100.2969" y2="100.2969"/></g><g class="participant participant-tail" data-entity-uid="part8" data-qualified-name="AuditRepo" id="part8-tail"><text fill="#000000" font-family="sans-serif" font-size="14" lengthAdjust="spacing" textLength="217.6426" x="1820.6421" y="1495.3076">ComplementaryTaskAuditRepo</text><ellipse cx="1932.4634" cy="1514.6094" fill="#E3E3E3" rx="12" ry="12" style="stroke:#181818;stroke-width:0.5;"/><line style="stroke:#181818;stroke-width:0.5;" x1="1920.4634" x2="1944.4634" y1="1528.6094" y2="1528.6094"/></g><g class="participant participant-head" data-entity-uid="part9" data-qualified-name="Map" id="part9-head"><text fill="#000000" font-family="sans-serif" font-size="14" lengthAdjust="spacing" textLength="174.6787" x="2054.2847" y="115.292">ComplementaryTaskMap</text><ellipse cx="2144.624" cy="86.2969" fill="#E3E3E3" rx="12" ry="12" style="stroke:#181818;stroke-width:0.5;"/><polygon fill="#181818" points="2140.624,74.2969,2146.624,69.2969,2144.624,74.2969,2146.624,79.2969,2140.624,74.2969" style="stroke:#181818;stroke-width:1;"/></g><g class="participant participant-tail" data-entity-uid="part9" data-qualified-name="Map" id="part9-tail"><text fill="#000000" font-family="sans-serif" font-size="14" lengthAdjust="spacing" textLength="174.6787" x="2054.2847" y="1495.3076">ComplementaryTaskMap</text><ellipse cx="2144.624" cy="1514.6094" fill="#E3E3E3" rx="12" ry="12" style="stroke:#181818;stroke-width:0.5;"/><polygon fill="#181818" points="2140.624,1502.6094,2146.624,1497.6094,2144.624,1502.6094,2146.624,1507.6094,2140.624,1502.6094" style="stroke:#181818;stroke-width:1;"/></g><rect fill="#EEEEEE" height="3" style="stroke:#EEEEEE;stroke-width:1;" width="2264.9634" x="0" y="149.1602"/><line style="stroke:#000000;stroke-width:1;" x1="0" x2="2264.9634" y1="149.1602" y2="149.1602"/><line style="stroke:#000000;stroke-width:1;" x1="0" x2="2264.9634" y1="152.1602" y2="152.1602"/><rect fill="#EEEEEE" height="23.1328" style="stroke:#000000;stroke-width:2;" width="117.105" x="1073.9292" y="138.5938"/><text fill="#000000" font-family="sans-serif" font-size="13" font-weight="bold" lengthAdjust="spacing" textLength="98.5791" x="1079.9292" y="154.6606">Load task list</text><g class="message" data-entity-1="part1" data-entity-2="part2" id="msg1"><polygon fill="#181818" points="316.1196,188.8594,326.1196,192.8594,316.1196,196.8594,320.1196,192.8594" style="stroke:#181818;stroke-width:1;"/><line style="stroke:#181818;stroke-width:1;" x1="71.9604" x2="322.1196" y1="192.8594" y2="192.8594"/><text fill="#000000" font-family="sans-serif" font-size="13" lengthAdjust="spacing" textLength="232.1592" x="78.9604" y="187.7935">Open Complementary Tasks screen</text></g><g class="message" data-entity-1="part2" data-entity-2="part3" id="msg2"><polygon fill="#181818" points="692.5034,217.9922,702.5034,221.9922,692.5034,225.9922,696.5034,221.9922" style="stroke:#181818;stroke-width:1;"/><line style="stroke:#181818;stroke-width:1;" x1="328.1196" x2="698.5034" y1="221.9922" y2="221.9922"/><text fill="#000000" font-family="sans-serif" font-size="13" lengthAdjust="spacing" textLength="200.4082" x="335.1196" y="216.9263">GET /api/complementary-tasks</text></g><g class="message" data-entity-1="part3" data-entity-2="part4" id="msg3"><polygon fill="#181818" points="1008.1782,247.125,1018.1782,251.125,1008.1782,255.125,1012.1782,251.125" style="stroke:#181818;stroke-width:1;"/><line style="stroke:#181818;stroke-width:1;" x1="704.5034" x2="1014.1782" y1="251.125" y2="251.125"/><text fill="#000000" font-family="sans-serif" font-size="13" lengthAdjust="spacing" textLength="84.5889" x="711.5034" y="246.0591">getAllTasks()</text></g><g class="message" data-entity-1="part4" data-entity-2="part5" id="msg4"><polygon fill="#181818" points="1213.0791,276.2578,1223.0791,280.2578,1213.0791,284.2578,1217.0791,280.2578" style="stroke:#181818;stroke-width:1;"/><line style="stroke:#181818;stroke-width:1;" x1="1020.1782" x2="1219.0791" y1="280.2578" y2="280.2578"/><text fill="#000000" font-family="sans-serif" font-size="13" lengthAdjust="spacing" textLength="50.9399" x="1027.1782" y="275.1919">findAll()</text></g><g class="message" data-entity-1="part5" data-entity-2="part4" id="msg5"><polygon fill="#181818" points="1031.1782,305.3906,1021.1782,309.3906,1031.1782,313.3906,1027.1782,309.3906" style="stroke:#181818;stroke-width:1;"/><line style="stroke:#181818;stroke-width:1;stroke-dasharray:2,2;" x1="1025.1782" x2="1224.0791" y1="309.3906" y2="309.3906"/><text fill="#000000" font-family="sans-serif" font-size="13" lengthAdjust="spacing" textLength="144.9106" x="1037.1782" y="304.3247">ComplementaryTask[]</text></g><g class="message" data-entity-1="part4" data-entity-2="part9" id="msg6"><polygon fill="#181818" points="2132.624,334.5234,2142.624,338.5234,2132.624,342.5234,2136.624,338.5234" style="stroke:#181818;stroke-width:1;"/><line style="stroke:#181818;stroke-width:1;" x1="1020.1782" x2="2138.624" y1="338.5234" y2="338.5234"/><text fill="#000000" font-family="sans-serif" font-size="13" lengthAdjust="spacing" textLength="85.5156" x="1027.1782" y="333.4575">toDTO(tasks)</text></g><g class="message" data-entity-1="part9" data-entity-2="part4" id="msg7"><polygon fill="#181818" points="1031.1782,363.6563,1021.1782,367.6563,1031.1782,371.6563,1027.1782,367.6563" style="stroke:#181818;stroke-width:1;"/><line style="stroke:#181818;stroke-width:1;stroke-dasharray:2,2;" x1="1025.1782" x2="2143.624" y1="367.6563" y2="367.6563"/><text fill="#000000" font-family="sans-serif" font-size="13" lengthAdjust="spacing" textLength="173.0942" x="1037.1782" y="362.5903">ComplementaryTaskDTO[]</text></g><g class="message" data-entity-1="part4" data-entity-2="part3" id="msg8"><polygon fill="#181818" points="715.5034,407.9219,705.5034,411.9219,715.5034,415.9219,711.5034,411.9219" style="stroke:#181818;stroke-width:1;"/><line style="stroke:#181818;stroke-width:1;stroke-dasharray:2,2;" x1="709.5034" x2="1019.1782" y1="411.9219" y2="411.9219"/><text fill="#000000" font-family="sans-serif" font-size="13" lengthAdjust="spacing" textLength="47.7026" x="721.5034" y="391.7231">200 OK</text><text fill="#000000" font-family="sans-serif" font-size="13" lengthAdjust="spacing" textLength="214.4238" x="721.5034" y="406.856">Body: ComplementaryTaskDTO[]</text></g><g class="message" data-entity-1="part3" data-entity-2="part2" id="msg9"><polygon fill="#181818" points="339.1196,437.0547,329.1196,441.0547,339.1196,445.0547,335.1196,441.0547" style="stroke:#181818;stroke-width:1;"/><line style="stroke:#181818;stroke-width:1;stroke-dasharray:2,2;" x1="333.1196" x2="703.5034" y1="441.0547" y2="441.0547"/><text fill="#000000" font-family="sans-serif" font-size="13" lengthAdjust="spacing" textLength="86.1885" x="345.1196" y="435.9888">Display tasks</text></g><rect fill="#EEEEEE" height="3" style="stroke:#EEEEEE;stroke-width:1;" width="2264.9634" x="0" y="469.6211"/><line style="stroke:#000000;stroke-width:1;" x1="0" x2="2264.9634" y1="469.6211" y2="469.6211"/><line style="stroke:#000000;stroke-width:1;" x1="0" x2="2264.9634" y1="472.6211" y2="472.6211"/><rect fill="#EEEEEE" height="23.1328" style="stroke:#000000;stroke-width:2;" width="183.0127" x="1040.9753" y="459.0547"/><text fill="#000000" font-family="sans-serif" font-size="13" font-weight="bold" lengthAdjust="spacing" textLength="164.4868" x="1046.9753" y="475.1216">Create or Update Task</text><g class="message" data-entity-1="part1" data-entity-2="part2" id="msg10"><polygon fill="#181818" points="316.1196,509.3203,326.1196,513.3203,316.1196,517.3203,320.1196,513.3203" style="stroke:#181818;stroke-width:1;"/><line style="stroke:#181818;stroke-width:1;" x1="71.9604" x2="322.1196" y1="513.3203" y2="513.3203"/><text fill="#000000" font-family="sans-serif" font-size="13" lengthAdjust="spacing" textLength="116.416" x="78.9604" y="508.2544">Fill form + reason</text></g><g class="message" data-entity-1="part2" data-entity-2="part3" id="msg11"><polygon fill="#181818" points="692.5034,553.5859,702.5034,557.5859,692.5034,561.5859,696.5034,557.5859" style="stroke:#181818;stroke-width:1;"/><line style="stroke:#181818;stroke-width:1;" x1="328.1196" x2="698.5034" y1="557.5859" y2="557.5859"/><text fill="#000000" font-family="sans-serif" font-size="13" lengthAdjust="spacing" textLength="208.4443" x="335.1196" y="537.3872">POST /api/complementary-tasks</text><text fill="#000000" font-family="sans-serif" font-size="13" lengthAdjust="spacing" textLength="132.1265" x="335.1196" y="552.52">Body: task + reason</text></g><g class="message" data-entity-1="part3" data-entity-2="part3" id="msg12"><line style="stroke:#181818;stroke-width:1;" x1="704.5034" x2="746.5034" y1="586.7188" y2="586.7188"/><line style="stroke:#181818;stroke-width:1;" x1="746.5034" x2="746.5034" y1="586.7188" y2="599.7188"/><line style="stroke:#181818;stroke-width:1;" x1="705.5034" x2="746.5034" y1="599.7188" y2="599.7188"/><polygon fill="#181818" points="715.5034,595.7188,705.5034,599.7188,715.5034,603.7188,711.5034,599.7188" style="stroke:#181818;stroke-width:1;"/><text fill="#000000" font-family="sans-serif" font-size="13" lengthAdjust="spacing" textLength="84.5127" x="711.5034" y="581.6528">validate DTO</text></g><path d="M283.6196,614.7188 L348.0625,614.7188 L348.0625,621.8516 L338.0625,631.8516 L283.6196,631.8516 L283.6196,614.7188" fill="#EEEEEE" style="stroke:#000000;stroke-width:1.5;"/><rect fill="none" height="486.8672" style="stroke:#000000;stroke-width:1.5;" width="1971.3438" x="283.6196" y="614.7188"/><text fill="#000000" font-family="sans-serif" font-size="13" font-weight="bold" lengthAdjust="spacing" textLength="19.4429" x="298.6196" y="627.7856">alt</text><text fill="#000000" font-family="sans-serif" font-size="11" font-weight="bold" lengthAdjust="spacing" textLength="51.9868" x="363.0625" y="626.9292">[Invalid]</text><g class="message" data-entity-1="part3" data-entity-2="part2" id="msg13"><polygon fill="#181818" points="339.1196,648.9844,329.1196,652.9844,339.1196,656.9844,335.1196,652.9844" style="stroke:#181818;stroke-width:1;"/><line style="stroke:#181818;stroke-width:1;stroke-dasharray:2,2;" x1="333.1196" x2="703.5034" y1="652.9844" y2="652.9844"/><text fill="#000000" font-family="sans-serif" font-size="13" lengthAdjust="spacing" textLength="111.6045" x="345.1196" y="647.9185">400 Bad Request</text></g><line style="stroke:#000000;stroke-width:1;stroke-dasharray:2,2;" x1="283.6196" x2="2254.9634" y1="661.9844" y2="661.9844"/><text fill="#000000" font-family="sans-serif" font-size="11" font-weight="bold" lengthAdjust="spacing" textLength="41.4058" x="288.6196" y="672.1948">[Valid]</text><g class="message" data-entity-1="part3" data-entity-2="part4" id="msg14"><polygon fill="#181818" points="1008.1782,692.9219,1018.1782,696.9219,1008.1782,700.9219,1012.1782,696.9219" style="stroke:#181818;stroke-width:1;"/><line style="stroke:#181818;stroke-width:1;" x1="704.5034" x2="1014.1782" y1="696.9219" y2="696.9219"/><text fill="#000000" font-family="sans-serif" font-size="13" lengthAdjust="spacing" textLength="251.2148" x="711.5034" y="691.856">createOrUpdateTask(taskDTO, author)</text></g><g class="message" data-entity-1="part4" data-entity-2="part6" id="msg15"><polygon fill="#181818" points="1441.981,722.0547,1451.981,726.0547,1441.981,730.0547,1445.981,726.0547" style="stroke:#181818;stroke-width:1;"/><line style="stroke:#181818;stroke-width:1;" x1="1020.1782" x2="1447.981" y1="726.0547" y2="726.0547"/><text fill="#000000" font-family="sans-serif" font-size="13" lengthAdjust="spacing" textLength="192.7402" x="1027.1782" y="720.9888">findById(taskDTO.categoryId)</text></g><g class="message" data-entity-1="part4" data-entity-2="part7" id="msg16"><polygon fill="#181818" points="1688.0308,751.1875,1698.0308,755.1875,1688.0308,759.1875,1692.0308,755.1875" style="stroke:#181818;stroke-width:1;"/><line style="stroke:#181818;stroke-width:1;" x1="1020.1782" x2="1694.0308" y1="755.1875" y2="755.1875"/><text fill="#000000" font-family="sans-serif" font-size="13" lengthAdjust="spacing" textLength="159.8403" x="1027.1782" y="750.1216">checkConflicts(taskDTO)</text></g><path d="M293.6196,770.1875 L358.0625,770.1875 L358.0625,777.3203 L348.0625,787.3203 L293.6196,787.3203 L293.6196,770.1875" fill="#EEEEEE" style="stroke:#000000;stroke-width:1.5;"/><rect fill="none" height="324.3984" style="stroke:#000000;stroke-width:1.5;" width="1951.3438" x="293.6196" y="770.1875"/><text fill="#000000" font-family="sans-serif" font-size="13" font-weight="bold" lengthAdjust="spacing" textLength="19.4429" x="308.6196" y="783.2544">alt</text><text fill="#000000" font-family="sans-serif" font-size="11" font-weight="bold" lengthAdjust="spacing" textLength="123.1646" x="373.0625" y="782.3979">[Conflicts detected]</text><g class="message" data-entity-1="part7" data-entity-2="part4" id="msg17"><polygon fill="#181818" points="1031.1782,804.4531,1021.1782,808.4531,1031.1782,812.4531,1027.1782,808.4531" style="stroke:#181818;stroke-width:1;"/><line style="stroke:#181818;stroke-width:1;stroke-dasharray:2,2;" x1="1025.1782" x2="1699.0308" y1="808.4531" y2="808.4531"/><text fill="#000000" font-family="sans-serif" font-size="13" lengthAdjust="spacing" textLength="64.3018" x="1037.1782" y="803.3872">conflicts[]</text></g><g class="message" data-entity-1="part4" data-entity-2="part3" id="msg18"><polygon fill="#181818" points="715.5034,848.7188,705.5034,852.7188,715.5034,856.7188,711.5034,852.7188" style="stroke:#181818;stroke-width:1;"/><line style="stroke:#181818;stroke-width:1;stroke-dasharray:2,2;" x1="709.5034" x2="1019.1782" y1="852.7188" y2="852.7188"/><text fill="#000000" font-family="sans-serif" font-size="13" lengthAdjust="spacing" textLength="78.2603" x="721.5034" y="832.52">409 Conflict</text><text fill="#000000" font-family="sans-serif" font-size="13" lengthAdjust="spacing" textLength="105.6313" x="721.5034" y="847.6528">Body: conflicts[]</text></g><g class="message" data-entity-1="part3" data-entity-2="part2" id="msg19"><polygon fill="#181818" points="339.1196,877.8516,329.1196,881.8516,339.1196,885.8516,335.1196,881.8516" style="stroke:#181818;stroke-width:1;"/><line style="stroke:#181818;stroke-width:1;stroke-dasharray:2,2;" x1="333.1196" x2="703.5034" y1="881.8516" y2="881.8516"/><text fill="#000000" font-family="sans-serif" font-size="13" lengthAdjust="spacing" textLength="86.5947" x="345.1196" y="876.7856">Show conflict</text></g><line style="stroke:#000000;stroke-width:1;stroke-dasharray:2,2;" x1="293.6196" x2="2244.9634" y1="890.8516" y2="890.8516"/><text fill="#000000" font-family="sans-serif" font-size="11" font-weight="bold" lengthAdjust="spacing" textLength="83.209" x="298.6196" y="901.062">[No conflicts]</text><g class="message" data-entity-1="part4" data-entity-2="part5" id="msg20"><polygon fill="#181818" points="1213.0791,921.7891,1223.0791,925.7891,1213.0791,929.7891,1217.0791,925.7891" style="stroke:#181818;stroke-width:1;"/><line style="stroke:#181818;stroke-width:1;" x1="1020.1782" x2="1219.0791" y1="925.7891" y2="925.7891"/><text fill="#000000" font-family="sans-serif" font-size="13" lengthAdjust="spacing" textLength="67.939" x="1027.1782" y="920.7231">save(task)</text></g><g class="message" data-entity-1="part4" data-entity-2="part8" id="msg21"><polygon fill="#181818" points="1920.4634,950.9219,1930.4634,954.9219,1920.4634,958.9219,1924.4634,954.9219" style="stroke:#181818;stroke-width:1;"/><line style="stroke:#181818;stroke-width:1;" x1="1020.1782" x2="1926.4634" y1="954.9219" y2="954.9219"/><text fill="#000000" font-family="sans-serif" font-size="13" lengthAdjust="spacing" textLength="309.8291" x="1027.1782" y="949.856">append(taskId, author, reason, diff, changedAt)</text></g><g class="message" data-entity-1="part4" data-entity-2="part9" id="msg22"><polygon fill="#181818" points="2132.624,980.0547,2142.624,984.0547,2132.624,988.0547,2136.624,984.0547" style="stroke:#181818;stroke-width:1;"/><line style="stroke:#181818;stroke-width:1;" x1="1020.1782" x2="2138.624" y1="984.0547" y2="984.0547"/><text fill="#000000" font-family="sans-serif" font-size="13" lengthAdjust="spacing" textLength="78.7427" x="1027.1782" y="978.9888">toDTO(task)</text></g><g class="message" data-entity-1="part9" data-entity-2="part4" id="msg23"><polygon fill="#181818" points="1031.1782,1009.1875,1021.1782,1013.1875,1031.1782,1017.1875,1027.1782,1013.1875" style="stroke:#181818;stroke-width:1;"/><line style="stroke:#181818;stroke-width:1;stroke-dasharray:2,2;" x1="1025.1782" x2="2143.624" y1="1013.1875" y2="1013.1875"/><text fill="#000000" font-family="sans-serif" font-size="13" lengthAdjust="spacing" textLength="162.9507" x="1037.1782" y="1008.1216">ComplementaryTaskDTO</text></g><g class="message" data-entity-1="part4" data-entity-2="part3" id="msg24"><polygon fill="#181818" points="715.5034,1053.4531,705.5034,1057.4531,715.5034,1061.4531,711.5034,1057.4531" style="stroke:#181818;stroke-width:1;"/><line style="stroke:#181818;stroke-width:1;stroke-dasharray:2,2;" x1="709.5034" x2="1019.1782" y1="1057.4531" y2="1057.4531"/><text fill="#000000" font-family="sans-serif" font-size="13" lengthAdjust="spacing" textLength="47.7026" x="721.5034" y="1037.2544">200 OK</text><text fill="#000000" font-family="sans-serif" font-size="13" lengthAdjust="spacing" textLength="204.2803" x="721.5034" y="1052.3872">Body: ComplementaryTaskDTO</text></g><g class="message" data-entity-1="part3" data-entity-2="part2" id="msg25"><polygon fill="#181818" points="339.1196,1082.5859,329.1196,1086.5859,339.1196,1090.5859,335.1196,1086.5859" style="stroke:#181818;stroke-width:1;"/><line style="stroke:#181818;stroke-width:1;stroke-dasharray:2,2;" x1="333.1196" x2="703.5034" y1="1086.5859" y2="1086.5859"/><text fill="#000000" font-family="sans-serif" font-size="13" lengthAdjust="spacing" textLength="124.7632" x="345.1196" y="1081.52">Show updated task</text></g><rect fill="#EEEEEE" height="3" style="stroke:#EEEEEE;stroke-width:1;" width="2264.9634" x="0" y="1129.1523"/><line style="stroke:#000000;stroke-width:1;" x1="0" x2="2264.9634" y1="1129.1523" y2="1129.1523"/><line style="stroke:#000000;stroke-width:1;" x1="0" x2="2264.9634" y1="1132.1523" y2="1132.1523"/><rect fill="#EEEEEE" height="23.1328" style="stroke:#000000;stroke-width:2;" width="111.2397" x="1076.8618" y="1118.5859"/><text fill="#000000" font-family="sans-serif" font-size="13" font-weight="bold" lengthAdjust="spacing" textLength="92.7139" x="1082.8618" y="1134.6528">Fix Category</text><g class="message" data-entity-1="part1" data-entity-2="part2" id="msg26"><polygon fill="#181818" points="316.1196,1168.8516,326.1196,1172.8516,316.1196,1176.8516,320.1196,1172.8516" style="stroke:#181818;stroke-width:1;"/><line style="stroke:#181818;stroke-width:1;" x1="71.9604" x2="322.1196" y1="1172.8516" y2="1172.8516"/><text fill="#000000" font-family="sans-serif" font-size="13" lengthAdjust="spacing" textLength="196.1235" x="78.9604" y="1167.7856">Select new category + reason</text></g><g class="message" data-entity-1="part2" data-entity-2="part3" id="msg27"><polygon fill="#181818" points="692.5034,1213.1172,702.5034,1217.1172,692.5034,1221.1172,696.5034,1217.1172" style="stroke:#181818;stroke-width:1;"/><line style="stroke:#181818;stroke-width:1;" x1="328.1196" x2="698.5034" y1="1217.1172" y2="1217.1172"/><text fill="#000000" font-family="sans-serif" font-size="13" lengthAdjust="spacing" textLength="352.3838" x="335.1196" y="1196.9185">PATCH /api/complementary-tasks/{code}/fix-category</text><text fill="#000000" font-family="sans-serif" font-size="13" lengthAdjust="spacing" textLength="196.6631" x="335.1196" y="1212.0513">Body: {newCategory, reason}</text></g><g class="message" data-entity-1="part3" data-entity-2="part4" id="msg28"><polygon fill="#181818" points="1008.1782,1242.25,1018.1782,1246.25,1008.1782,1250.25,1012.1782,1246.25" style="stroke:#181818;stroke-width:1;"/><line style="stroke:#181818;stroke-width:1;" x1="704.5034" x2="1014.1782" y1="1246.25" y2="1246.25"/><text fill="#000000" font-family="sans-serif" font-size="13" lengthAdjust="spacing" textLength="291.6748" x="711.5034" y="1241.1841">fixCategory(taskCode, newCategory, author)</text></g><g class="message" data-entity-1="part4" data-entity-2="part6" id="msg29"><polygon fill="#181818" points="1441.981,1271.3828,1451.981,1275.3828,1441.981,1279.3828,1445.981,1275.3828" style="stroke:#181818;stroke-width:1;"/><line style="stroke:#181818;stroke-width:1;" x1="1020.1782" x2="1447.981" y1="1275.3828" y2="1275.3828"/><text fill="#000000" font-family="sans-serif" font-size="13" lengthAdjust="spacing" textLength="142.5811" x="1027.1782" y="1270.3169">validate newCategory</text></g><g class="message" data-entity-1="part4" data-entity-2="part5" id="msg30"><polygon fill="#181818" points="1213.0791,1300.5156,1223.0791,1304.5156,1213.0791,1308.5156,1217.0791,1304.5156" style="stroke:#181818;stroke-width:1;"/><line style="stroke:#181818;stroke-width:1;" x1="1020.1782" x2="1219.0791" y1="1304.5156" y2="1304.5156"/><text fill="#000000" font-family="sans-serif" font-size="13" lengthAdjust="spacing" textLength="138.8867" x="1027.1782" y="1299.4497">update task category</text></g><g class="message" data-entity-1="part4" data-entity-2="part8" id="msg31"><polygon fill="#181818" points="1920.4634,1329.6484,1930.4634,1333.6484,1920.4634,1337.6484,1924.4634,1333.6484" style="stroke:#181818;stroke-width:1;"/><line style="stroke:#181818;stroke-width:1;" x1="1020.1782" x2="1926.4634" y1="1333.6484" y2="1333.6484"/><text fill="#000000" font-family="sans-serif" font-size="13" lengthAdjust="spacing" textLength="309.8291" x="1027.1782" y="1328.5825">append(taskId, author, reason, diff, changedAt)</text></g><g class="message" data-entity-1="part4" data-entity-2="part9" id="msg32"><polygon fill="#181818" points="2132.624,1358.7813,2142.624,1362.7813,2132.624,1366.7813,2136.624,1362.7813" style="stroke:#181818;stroke-width:1;"/><line style="stroke:#181818;stroke-width:1;" x1="1020.1782" x2="2138.624" y1="1362.7813" y2="1362.7813"/><text fill="#000000" font-family="sans-serif" font-size="13" lengthAdjust="spacing" textLength="78.7427" x="1027.1782" y="1357.7153">toDTO(task)</text></g><g class="message" data-entity-1="part9" data-entity-2="part4" id="msg33"><polygon fill="#181818" points="1031.1782,1387.9141,1021.1782,1391.9141,1031.1782,1395.9141,1027.1782,1391.9141" style="stroke:#181818;stroke-width:1;"/><line style="stroke:#181818;stroke-width:1;stroke-dasharray:2,2;" x1="1025.1782" x2="2143.624" y1="1391.9141" y2="1391.9141"/><text fill="#000000" font-family="sans-serif" font-size="13" lengthAdjust="spacing" textLength="162.9507" x="1037.1782" y="1386.8481">ComplementaryTaskDTO</text></g><g class="message" data-entity-1="part4" data-entity-2="part3" id="msg34"><polygon fill="#181818" points="715.5034,1432.1797,705.5034,1436.1797,715.5034,1440.1797,711.5034,1436.1797" style="stroke:#181818;stroke-width:1;"/><line style="stroke:#181818;stroke-width:1;stroke-dasharray:2,2;" x1="709.5034" x2="1019.1782" y1="1436.1797" y2="1436.1797"/><text fill="#000000" font-family="sans-serif" font-size="13" lengthAdjust="spacing" textLength="47.7026" x="721.5034" y="1415.981">200 OK</text><text fill="#000000" font-family="sans-serif" font-size="13" lengthAdjust="spacing" textLength="204.2803" x="721.5034" y="1431.1138">Body: ComplementaryTaskDTO</text></g><g class="message" data-entity-1="part3" data-entity-2="part2" id="msg35"><polygon fill="#181818" points="339.1196,1461.3125,329.1196,1465.3125,339.1196,1469.3125,335.1196,1465.3125" style="stroke:#181818;stroke-width:1;"/><line style="stroke:#181818;stroke-width:1;stroke-dasharray:2,2;" x1="333.1196" x2="703.5034" y1="1465.3125" y2="1465.3125"/><text fill="#000000" font-family="sans-serif" font-size="13" lengthAdjust="spacing" textLength="154.8511" x="345.1196" y="1460.2466">Show updated category</text></g><!--SRC=[fLJ1RXen4BtxAqOv1HL2KgM7Lg8I8KsBcfGea5xQ7bnx02l6tgwzIL2KV-_OYnVOiBHL3sXPpviPlpVprjqfa_6SBs1XZHNpt2uGV5uWSrN4pRcq3yhCOCgrG-QLrmXZ_5MW4GZdYiy2h0DNtF0Pmi0kCeqBD9xdIvXmTmU7j-FJevEZapSjWbqKMZF6XRSv75pQcN9U2GUZ37DEPmV0ro_ifosC37KEnjVz6A8d4zRut6eusEeLMWtAYCQopi3dUWzwZFcz4XYX_InZ555-kGDuWvcDgF2d6JRW7cSsNrPmEeWPUwuWvYYBTD_ghRb7lv3ALmsgjpqjhdWMiVHahDU3Iyib-30NJTf3hyUItD1v7_I5Ts40PiSa7JYH8neMK0GE-XBwuuS9T7cckc8penDwE1OnX2M12Jf3tzSwrZfiiN16eK20ObDb90NfF1vqggGNbBxzIAb4YW3Udaz6Xx5VYuMZFRc4JEbh1g-FZs7q-RivitBPc5CogJGwLoxJV0abpQ3i84VQ020XRpCP_iNjtodmXT8QfZPVm2kWB6VhcbwFnisYfel6ALO5ajAh2lTSgtWBkZtZsiFGn2C6K6DoIkpFQ2bkWgcTPqW-XwzRs2IdY1H7UKamy8koKuisyCBFRTwYdDLmLkk_6ktPSYWJ-4Yih3AK6_Xg_KEZEOfWvwbMmhkK5y21IXK0YHw5nt1Js2YmNW2He3J1WAbD_lJuRLKjoLfFgSardjk72aE0ADSNkqvRzwbss_5xZ2HQcy7AleJW6Nck56WeavZjrMpR8DLqsYPLk9cXxFkjCdKJbC4_-s2N7dzsGgCaHTo9yjiIP36IXLzmneLwXFHrt6s8CMgQ8nWaQHEmoHhzoU1JepUwJy9AVEvErMCdLKfqdgXykaQIzhdsXQAy18bY3gXQ6xOIqwA_MFFASXlmsaUk5AbqhgX1_cST6bVXBzRWtrTWt_WJgzy0]--></g></svg>