<svg xmlns="http://www.w3.org/2000/svg" xmlns:xlink="http://www.w3.org/1999/xlink" contentStyleType="text/css" data-diagram-type="SEQUENCE" height="823px" preserveAspectRatio="none" style="width:1709px;height:823px;background:#FFFFFF;" version="1.1" viewBox="0 0 1709 823" width="1709px" zoomAndPan="magnify"><defs/><g><g><title>Port Authority Officer</title><rect fill="#000000" fill-opacity="0.00000" height="660.9219" width="8" x="78.3921" y="81.2969"/><line style="stroke:#181818;stroke-width:0.5;stroke-dasharray:5,5;" x1="82" x2="82" y1="81.2969" y2="742.2188"/></g><g><title>API .ShippingAgentOrganizationController.</title><rect fill="#000000" fill-opacity="0.00000" height="660.9219" width="8" x="400.897" y="81.2969"/><line style="stroke:#181818;stroke-width:0.5;stroke-dasharray:5,5;" x1="404.4189" x2="404.4189" y1="81.2969" y2="742.2188"/></g><g><title>ShippingAgentOrganizationService</title><rect fill="#000000" fill-opacity="0.00000" height="660.9219" width="8" x="688.376" y="81.2969"/><line style="stroke:#181818;stroke-width:0.5;stroke-dasharray:5,5;" x1="692.375" x2="692.375" y1="81.2969" y2="742.2188"/></g><g><title>ShippingAgentOrganizationRepository</title><rect fill="#000000" fill-opacity="0.00000" height="660.9219" width="8" x="976.6416" y="81.2969"/><line style="stroke:#181818;stroke-width:0.5;stroke-dasharray:5,5;" x1="979.9751" x2="979.9751" y1="81.2969" y2="742.2188"/></g><g><title>UnitOfWork</title><rect fill="#000000" fill-opacity="0.00000" height="660.9219" width="8" x="1166.6675" y="81.2969"/><line style="stroke:#181818;stroke-width:0.5;stroke-dasharray:5,5;" x1="1170.3081" x2="1170.3081" y1="81.2969" y2="742.2188"/></g><g><title>ShippingAgentOrganizationFactory</title><rect fill="#000000" fill-opacity="0.00000" height="660.9219" width="8" x="1345.3696" y="81.2969"/><line style="stroke:#181818;stroke-width:0.5;stroke-dasharray:5,5;" x1="1349.0269" x2="1349.0269" y1="81.2969" y2="742.2188"/></g><g><title>Audit.Logs .ILogger.Serilog.</title><rect fill="#000000" fill-opacity="0.00000" height="660.9219" width="8" x="1587.3091" y="81.2969"/><line style="stroke:#181818;stroke-width:0.5;stroke-dasharray:5,5;" x1="1590.7124" x2="1590.7124" y1="81.2969" y2="742.2188"/></g><g class="participant participant-head" data-participant="Officer"><text fill="#000000" font-family="sans-serif" font-size="14" lengthAdjust="spacing" textLength="148.7842" x="5" y="77.9951">Port Authority Officer</text><ellipse cx="82.3921" cy="13.5" fill="#E2E2F0" rx="8" ry="8" style="stroke:#181818;stroke-width:0.5;"/><path d="M82.3921,21.5 L82.3921,48.5 M69.3921,29.5 L95.3921,29.5 M82.3921,48.5 L69.3921,63.5 M82.3921,48.5 L95.3921,63.5" fill="none" style="stroke:#181818;stroke-width:0.5;"/></g><g class="participant participant-tail" data-participant="Officer"><text fill="#000000" font-family="sans-serif" font-size="14" lengthAdjust="spacing" textLength="148.7842" x="5" y="754.2139">Port Authority Officer</text><ellipse cx="82.3921" cy="766.0156" fill="#E2E2F0" rx="8" ry="8" style="stroke:#181818;stroke-width:0.5;"/><path d="M82.3921,774.0156 L82.3921,801.0156 M69.3921,782.0156 L95.3921,782.0156 M82.3921,801.0156 L69.3921,816.0156 M82.3921,801.0156 L95.3921,816.0156" fill="none" style="stroke:#181818;stroke-width:0.5;"/></g><g class="participant participant-head" data-participant="Controller"><text fill="#000000" font-family="sans-serif" font-size="14" lengthAdjust="spacing" textLength="298.9561" x="252.4189" y="77.9951">API (ShippingAgentOrganizationController)</text><path d="M384.397,37 L384.397,61 M384.397,49 L401.397,49" fill="none" style="stroke:#181818;stroke-width:0.5;"/><ellipse cx="413.397" cy="49" fill="#E2E2F0" rx="12" ry="12" style="stroke:#181818;stroke-width:0.5;"/></g><g class="participant participant-tail" data-participant="Controller"><text fill="#000000" font-family="sans-serif" font-size="14" lengthAdjust="spacing" textLength="298.9561" x="252.4189" y="754.2139">API (ShippingAgentOrganizationController)</text><path d="M384.397,761.5156 L384.397,785.5156 M384.397,773.5156 L401.397,773.5156" fill="none" style="stroke:#181818;stroke-width:0.5;"/><ellipse cx="413.397" cy="773.5156" fill="#E2E2F0" rx="12" ry="12" style="stroke:#181818;stroke-width:0.5;"/></g><g class="participant participant-head" data-participant="Service"><text fill="#000000" font-family="sans-serif" font-size="14" lengthAdjust="spacing" textLength="244.002" x="567.375" y="77.9951">ShippingAgentOrganizationService</text><ellipse cx="692.376" cy="49" fill="#E2E2F0" rx="12" ry="12" style="stroke:#181818;stroke-width:0.5;"/><polygon fill="#181818" points="688.376,37,694.376,32,692.376,37,694.376,42,688.376,37" style="stroke:#181818;stroke-width:1;"/></g><g class="participant participant-tail" data-participant="Service"><text fill="#000000" font-family="sans-serif" font-size="14" lengthAdjust="spacing" textLength="244.002" x="567.375" y="754.2139">ShippingAgentOrganizationService</text><ellipse cx="692.376" cy="773.5156" fill="#E2E2F0" rx="12" ry="12" style="stroke:#181818;stroke-width:0.5;"/><polygon fill="#181818" points="688.376,761.5156,694.376,756.5156,692.376,761.5156,694.376,766.5156,688.376,761.5156" style="stroke:#181818;stroke-width:1;"/></g><g class="participant participant-head" data-participant="Repo"><text fill="#000000" font-family="sans-serif" font-size="14" lengthAdjust="spacing" textLength="267.333" x="843.9751" y="77.9951">ShippingAgentOrganizationRepository</text><ellipse cx="980.6416" cy="49" fill="#E2E2F0" rx="12" ry="12" style="stroke:#181818;stroke-width:0.5;"/><line style="stroke:#181818;stroke-width:0.5;" x1="968.6416" x2="992.6416" y1="63" y2="63"/></g><g class="participant participant-tail" data-participant="Repo"><text fill="#000000" font-family="sans-serif" font-size="14" lengthAdjust="spacing" textLength="267.333" x="843.9751" y="754.2139">ShippingAgentOrganizationRepository</text><ellipse cx="980.6416" cy="773.5156" fill="#E2E2F0" rx="12" ry="12" style="stroke:#181818;stroke-width:0.5;"/><line style="stroke:#181818;stroke-width:0.5;" x1="968.6416" x2="992.6416" y1="787.5156" y2="787.5156"/></g><g class="participant participant-head" data-participant="UoW"><text fill="#000000" font-family="sans-serif" font-size="14" lengthAdjust="spacing" textLength="80.7188" x="1127.3081" y="77.9951">UnitOfWork</text><ellipse cx="1170.6675" cy="49" fill="#E2E2F0" rx="12" ry="12" style="stroke:#181818;stroke-width:0.5;"/><line style="stroke:#181818;stroke-width:0.5;" x1="1158.6675" x2="1182.6675" y1="63" y2="63"/></g><g class="participant participant-tail" data-participant="UoW"><text fill="#000000" font-family="sans-serif" font-size="14" lengthAdjust="spacing" textLength="80.7188" x="1127.3081" y="754.2139">UnitOfWork</text><ellipse cx="1170.6675" cy="773.5156" fill="#E2E2F0" rx="12" ry="12" style="stroke:#181818;stroke-width:0.5;"/><line style="stroke:#181818;stroke-width:0.5;" x1="1158.6675" x2="1182.6675" y1="787.5156" y2="787.5156"/></g><g class="participant participant-head" data-participant="Factory"><text fill="#000000" font-family="sans-serif" font-size="14" lengthAdjust="spacing" textLength="244.6855" x="1224.0269" y="77.9951">ShippingAgentOrganizationFactory</text><ellipse cx="1349.3696" cy="49" fill="#E2E2F0" rx="12" ry="12" style="stroke:#181818;stroke-width:0.5;"/><polygon fill="#181818" points="1345.3696,37,1351.3696,32,1349.3696,37,1351.3696,42,1345.3696,37" style="stroke:#181818;stroke-width:1;"/></g><g class="participant participant-tail" data-participant="Factory"><text fill="#000000" font-family="sans-serif" font-size="14" lengthAdjust="spacing" textLength="244.6855" x="1224.0269" y="754.2139">ShippingAgentOrganizationFactory</text><ellipse cx="1349.3696" cy="773.5156" fill="#E2E2F0" rx="12" ry="12" style="stroke:#181818;stroke-width:0.5;"/><polygon fill="#181818" points="1345.3696,761.5156,1351.3696,756.5156,1349.3696,761.5156,1351.3696,766.5156,1345.3696,761.5156" style="stroke:#181818;stroke-width:1;"/></g><g class="participant participant-head" data-participant="Log"><rect fill="#E2E2F0" height="30.2969" style="stroke:#181818;stroke-width:0.5;" width="209.1934" x="1488.7124" y="46"/><rect fill="#E2E2F0" height="30.2969" style="stroke:#181818;stroke-width:0.5;" width="209.1934" x="1484.7124" y="50"/><text fill="#000000" font-family="sans-serif" font-size="14" lengthAdjust="spacing" textLength="195.1934" x="1491.7124" y="69.9951">Audit/Logs (ILogger/Serilog)</text></g><g class="participant participant-tail" data-participant="Log"><rect fill="#E2E2F0" height="30.2969" style="stroke:#181818;stroke-width:0.5;" width="209.1934" x="1488.7124" y="741.2188"/><rect fill="#E2E2F0" height="30.2969" style="stroke:#181818;stroke-width:0.5;" width="209.1934" x="1484.7124" y="745.2188"/><text fill="#000000" font-family="sans-serif" font-size="14" lengthAdjust="spacing" textLength="195.1934" x="1491.7124" y="765.2139">Audit/Logs (ILogger/Serilog)</text></g><rect fill="#EEEEEE" height="3" style="stroke:#EEEEEE;stroke-width:1;" width="1702.9058" x="0" y="111.8633"/><line style="stroke:#000000;stroke-width:1;" x1="0" x2="1702.9058" y1="111.8633" y2="111.8633"/><line style="stroke:#000000;stroke-width:1;" x1="0" x2="1702.9058" y1="114.8633" y2="114.8633"/><rect fill="#EEEEEE" height="23.1328" style="stroke:#000000;stroke-width:2;" width="67.0981" x="817.9038" y="101.2969"/><text fill="#000000" font-family="sans-serif" font-size="13" font-weight="bold" lengthAdjust="spacing" textLength="48.5723" x="823.9038" y="117.3638">Create</text><g class="message" data-participant-1="Officer" data-participant-2="Controller"><polygon fill="#181818" points="392.897,166.6953,402.897,170.6953,392.897,174.6953,396.897,170.6953" style="stroke:#181818;stroke-width:1;"/><line style="stroke:#181818;stroke-width:1;" x1="82.3921" x2="398.897" y1="170.6953" y2="170.6953"/><text fill="#000000" font-family="sans-serif" font-size="13" lengthAdjust="spacing" textLength="245.5146" x="89.3921" y="150.4966">POST /api/ShippingAgentOrganization</text><text fill="#000000" font-family="sans-serif" font-size="13" lengthAdjust="spacing" textLength="298.5049" x="89.3921" y="165.6294">Body: CreatingShippingAgentOrganizationDto</text></g><g class="message" data-participant-1="Controller" data-participant-2="Service"><polygon fill="#181818" points="680.376,195.8281,690.376,199.8281,680.376,203.8281,684.376,199.8281" style="stroke:#181818;stroke-width:1;"/><line style="stroke:#181818;stroke-width:1;" x1="404.897" x2="686.376" y1="199.8281" y2="199.8281"/><text fill="#000000" font-family="sans-serif" font-size="13" lengthAdjust="spacing" textLength="113.6738" x="411.897" y="194.7622">CreateAsync(dto)</text></g><g class="message" data-participant-1="Service" data-participant-2="Repo"><polygon fill="#181818" points="968.6416,224.9609,978.6416,228.9609,968.6416,232.9609,972.6416,228.9609" style="stroke:#181818;stroke-width:1;"/><line style="stroke:#181818;stroke-width:1;" x1="692.376" x2="974.6416" y1="228.9609" y2="228.9609"/><text fill="#000000" font-family="sans-serif" font-size="13" lengthAdjust="spacing" textLength="190.8105" x="699.376" y="223.895">GetByNameAsync(dto.Name)</text></g><g class="message" data-participant-1="Repo" data-participant-2="Service"><polygon fill="#181818" points="703.376,254.0938,693.376,258.0938,703.376,262.0938,699.376,258.0938" style="stroke:#181818;stroke-width:1;"/><line style="stroke:#181818;stroke-width:1;stroke-dasharray:2,2;" x1="697.376" x2="979.6416" y1="258.0938" y2="258.0938"/><text fill="#000000" font-family="sans-serif" font-size="13" lengthAdjust="spacing" textLength="23.7021" x="709.376" y="253.0278">null</text></g><g class="message" data-participant-1="Controller" data-participant-2="Service"><polygon fill="#181818" points="680.376,283.2266,690.376,287.2266,680.376,291.2266,684.376,287.2266" style="stroke:#181818;stroke-width:1;"/><line style="stroke:#181818;stroke-width:1;" x1="404.897" x2="686.376" y1="287.2266" y2="287.2266"/><text fill="#000000" font-family="sans-serif" font-size="13" lengthAdjust="spacing" textLength="113.6738" x="411.897" y="282.1606">CreateAsync(dto)</text></g><g class="message" data-participant-1="Service" data-participant-2="Repo"><polygon fill="#181818" points="968.6416,312.3594,978.6416,316.3594,968.6416,320.3594,972.6416,316.3594" style="stroke:#181818;stroke-width:1;"/><line style="stroke:#181818;stroke-width:1;" x1="692.376" x2="974.6416" y1="316.3594" y2="316.3594"/><text fill="#000000" font-family="sans-serif" font-size="13" lengthAdjust="spacing" textLength="264.2656" x="699.376" y="311.2935">GetByTaxNumberAsync(dto.Taxnumber)</text></g><g class="message" data-participant-1="Repo" data-participant-2="Service"><polygon fill="#181818" points="703.376,341.4922,693.376,345.4922,703.376,349.4922,699.376,345.4922" style="stroke:#181818;stroke-width:1;"/><line style="stroke:#181818;stroke-width:1;stroke-dasharray:2,2;" x1="697.376" x2="979.6416" y1="345.4922" y2="345.4922"/><text fill="#000000" font-family="sans-serif" font-size="13" lengthAdjust="spacing" textLength="23.7021" x="709.376" y="340.4263">null</text></g><g class="message" data-participant-1="Controller" data-participant-2="Service"><polygon fill="#181818" points="680.376,370.625,690.376,374.625,680.376,378.625,684.376,374.625" style="stroke:#181818;stroke-width:1;"/><line style="stroke:#181818;stroke-width:1;" x1="404.897" x2="686.376" y1="374.625" y2="374.625"/><text fill="#000000" font-family="sans-serif" font-size="13" lengthAdjust="spacing" textLength="113.6738" x="411.897" y="369.5591">CreateAsync(dto)</text></g><g class="message" data-participant-1="Service" data-participant-2="Repo"><polygon fill="#181818" points="968.6416,399.7578,978.6416,403.7578,968.6416,407.7578,972.6416,403.7578" style="stroke:#181818;stroke-width:1;"/><line style="stroke:#181818;stroke-width:1;" x1="692.376" x2="974.6416" y1="403.7578" y2="403.7578"/><text fill="#000000" font-family="sans-serif" font-size="13" lengthAdjust="spacing" textLength="260.9521" x="699.376" y="398.6919">GetByLegalNameAsync(dto.LegalName)</text></g><g class="message" data-participant-1="Repo" data-participant-2="Service"><polygon fill="#181818" points="703.376,428.8906,693.376,432.8906,703.376,436.8906,699.376,432.8906" style="stroke:#181818;stroke-width:1;"/><line style="stroke:#181818;stroke-width:1;stroke-dasharray:2,2;" x1="697.376" x2="979.6416" y1="432.8906" y2="432.8906"/><text fill="#000000" font-family="sans-serif" font-size="13" lengthAdjust="spacing" textLength="23.7021" x="709.376" y="427.8247">null</text></g><g class="message" data-participant-1="Service" data-participant-2="Factory"><polygon fill="#181818" points="1337.3696,458.0234,1347.3696,462.0234,1337.3696,466.0234,1341.3696,462.0234" style="stroke:#181818;stroke-width:1;"/><line style="stroke:#181818;stroke-width:1;" x1="692.376" x2="1343.3696" y1="462.0234" y2="462.0234"/><text fill="#000000" font-family="sans-serif" font-size="13" lengthAdjust="spacing" textLength="112.8804" x="699.376" y="456.9575">CreateEntity(dto)</text></g><g class="message" data-participant-1="Factory" data-participant-2="Service"><polygon fill="#181818" points="703.376,487.1563,693.376,491.1563,703.376,495.1563,699.376,491.1563" style="stroke:#181818;stroke-width:1;"/><line style="stroke:#181818;stroke-width:1;stroke-dasharray:2,2;" x1="697.376" x2="1348.3696" y1="491.1563" y2="491.1563"/><text fill="#000000" font-family="sans-serif" font-size="13" lengthAdjust="spacing" textLength="230.5405" x="709.376" y="486.0903">ShippingAgentOrganization (entity)</text></g><g class="message" data-participant-1="Service" data-participant-2="Repo"><polygon fill="#181818" points="968.6416,516.2891,978.6416,520.2891,968.6416,524.2891,972.6416,520.2891" style="stroke:#181818;stroke-width:1;"/><line style="stroke:#181818;stroke-width:1;" x1="692.376" x2="974.6416" y1="520.2891" y2="520.2891"/><text fill="#000000" font-family="sans-serif" font-size="13" lengthAdjust="spacing" textLength="112.0234" x="699.376" y="515.2231">AddAsync(entity)</text></g><g class="message" data-participant-1="Repo" data-participant-2="Service"><polygon fill="#181818" points="703.376,545.4219,693.376,549.4219,703.376,553.4219,699.376,549.4219" style="stroke:#181818;stroke-width:1;"/><line style="stroke:#181818;stroke-width:1;stroke-dasharray:2,2;" x1="697.376" x2="979.6416" y1="549.4219" y2="549.4219"/><text fill="#000000" font-family="sans-serif" font-size="13" lengthAdjust="spacing" textLength="102.1846" x="709.376" y="544.356">Entity persisted</text></g><g class="message" data-participant-1="Service" data-participant-2="UoW"><polygon fill="#181818" points="1158.6675,574.5547,1168.6675,578.5547,1158.6675,582.5547,1162.6675,578.5547" style="stroke:#181818;stroke-width:1;"/><line style="stroke:#181818;stroke-width:1;" x1="692.376" x2="1164.6675" y1="578.5547" y2="578.5547"/><text fill="#000000" font-family="sans-serif" font-size="13" lengthAdjust="spacing" textLength="99.9565" x="699.376" y="573.4888">CommitAsync()</text></g><g class="message" data-participant-1="UoW" data-participant-2="Service"><polygon fill="#181818" points="703.376,603.6875,693.376,607.6875,703.376,611.6875,699.376,607.6875" style="stroke:#181818;stroke-width:1;"/><line style="stroke:#181818;stroke-width:1;stroke-dasharray:2,2;" x1="697.376" x2="1169.6675" y1="607.6875" y2="607.6875"/><text fill="#000000" font-family="sans-serif" font-size="13" lengthAdjust="spacing" textLength="150.8965" x="709.376" y="602.6216">Transaction committed</text></g><g class="message" data-participant-1="Service" data-participant-2="Factory"><polygon fill="#181818" points="1337.3696,632.8203,1347.3696,636.8203,1337.3696,640.8203,1341.3696,636.8203" style="stroke:#181818;stroke-width:1;"/><line style="stroke:#181818;stroke-width:1;" x1="692.376" x2="1343.3696" y1="636.8203" y2="636.8203"/><text fill="#000000" font-family="sans-serif" font-size="13" lengthAdjust="spacing" textLength="292.9507" x="699.376" y="631.7544">CreateDtoShippingAgentOrganization(entity)</text></g><g class="message" data-participant-1="Factory" data-participant-2="Service"><polygon fill="#181818" points="703.376,661.9531,693.376,665.9531,703.376,669.9531,699.376,665.9531" style="stroke:#181818;stroke-width:1;"/><line style="stroke:#181818;stroke-width:1;stroke-dasharray:2,2;" x1="697.376" x2="1348.3696" y1="665.9531" y2="665.9531"/><text fill="#000000" font-family="sans-serif" font-size="13" lengthAdjust="spacing" textLength="201.5889" x="709.376" y="660.8872">ShippingAgentOrganizationDto</text></g><g class="message" data-participant-1="Service" data-participant-2="Controller"><polygon fill="#181818" points="415.897,691.0859,405.897,695.0859,415.897,699.0859,411.897,695.0859" style="stroke:#181818;stroke-width:1;"/><line style="stroke:#181818;stroke-width:1;stroke-dasharray:2,2;" x1="409.897" x2="691.376" y1="695.0859" y2="695.0859"/><text fill="#000000" font-family="sans-serif" font-size="13" lengthAdjust="spacing" textLength="201.5889" x="421.897" y="690.02">ShippingAgentOrganizationDto</text></g><g class="message" data-participant-1="Controller" data-participant-2="Officer"><polygon fill="#181818" points="93.3921,720.2188,83.3921,724.2188,93.3921,728.2188,89.3921,724.2188" style="stroke:#181818;stroke-width:1;"/><line style="stroke:#181818;stroke-width:1;stroke-dasharray:2,2;" x1="87.3921" x2="403.897" y1="724.2188" y2="724.2188"/><text fill="#000000" font-family="sans-serif" font-size="13" lengthAdjust="spacing" textLength="296.5435" x="99.3921" y="719.1528">201 Created (ShippingAgentOrganizationDto)</text></g><!--SRC=[jLHBRzim3BxhLn2vr3uasGBi4Y03t7OREhHDKIVhPHV5ObnXjkH9yb3lru-M7t62kkXMB9T89By7QTfdiFhd7pk367-Mg1A4IybJmtEOmZPUp1Qp3n1S6EGEWIi1Drpn5E4RMeiPRAe2RKZeg7IFsYpXgpQKtUvu9ZJSQs5aMgAbWWkj73wv9TnfurgM79KZcG4Nt6XHPaZrR-Y5ySHf0nElr1YJheBrVYyJD1FWjZkpdIwLuAQ2INHt1K7yA8j2gZHAoTdQf5p9tzn9hMhtHcSPcj3Z3tUMD4UOZ89ZDBz8pGFRCwEIsjCuw1uBRINrKNbSVUr1MoNTUl-WpG-Vs-g7LxZuxAVIiBLdGb4BIPsrD85II3U_rgc5u8h-KZHpiYipdJPDKuonrGhQRQ19jsE4wSV1H82UyJhUm9mNSZvgvxiwrw9QDcHKC5fuwJGRa9DKEqDemHZPIYM1S3faNOggwebHoHTqvzKjpmzLi_eMCf-V7j6fCilOcyKs_Ecsp7Te3eeKKZxq7sMlCUNPSQDzw0NP0Lkx5Rtc9xzkZMYNEwOOVMWGDBlwdDj8YCPYL_ACjqOQ2ZHMMeTYI4FhNblKUIvTGnIoEdRCi35SMUvt6n9VUq9psYtjsMWxlTM_74EzkxtawKloweqdOFUYBM7nxdrhMBpmlIAAy0y0]--></g></svg>