<?xml version="1.0" encoding="UTF-8" standalone="no"?><svg xmlns="http://www.w3.org/2000/svg" xmlns:xlink="http://www.w3.org/1999/xlink" contentStyleType="text/css" height="1668px" preserveAspectRatio="none" style="width:510px;height:1668px;background:#FFFFFF;" version="1.1" viewBox="0 0 510 1668" width="510px" zoomAndPan="magnify"><defs/><g><text fill="#000000" font-family="Times" font-size="14" font-weight="bold" lengthAdjust="spacing" textLength="163" x="166.5" y="24.9659">Main Use Case Diagram</text><!--cluster actors--><g id="cluster_actors"><rect fill="none" height="558" rx="2.5" ry="2.5" style="stroke:#000000;stroke-width:1.0;" width="157" x="7" y="356.0679"/><text fill="#000000" font-family="Times" font-size="10" font-weight="bold" lengthAdjust="spacing" textLength="72" x="15" y="368.7579">System Actors</text></g><!--cluster usecases--><g id="cluster_usecases"><rect fill="none" height="1322" rx="2.5" ry="2.5" style="stroke:#000000;stroke-width:1.0;" width="316" x="188" y="47.0679"/><text fill="#000000" font-family="Times" font-size="10" font-weight="bold" lengthAdjust="spacing" textLength="52" x="320" y="59.7579">Backoffice</text></g><!--cluster showmng--><g id="cluster_showmng"><rect fill="none" height="366" rx="2.5" ry="2.5" style="stroke:#000000;stroke-width:1.0;" width="268" x="212" y="328.0679"/><text fill="#000000" font-family="Times" font-size="10" font-weight="bold" lengthAdjust="spacing" textLength="92" x="300" y="340.7579">Show Managment</text></g><!--cluster drnmng--><g id="cluster_drnmng"><rect fill="none" height="454" rx="2.5" ry="2.5" style="stroke:#000000;stroke-width:1.0;" width="222" x="235" y="718.0679"/><text fill="#000000" font-family="Times" font-size="10" font-weight="bold" lengthAdjust="spacing" textLength="95" x="298.5" y="730.7579">Drone Managment</text></g><!--cluster drncfig--><g id="cluster_drncfig"><rect fill="none" height="149" rx="2.5" ry="2.5" style="stroke:#000000;stroke-width:1.0;" width="177" x="257.5" y="1196.0679"/><text fill="#000000" font-family="Times" font-size="10" font-weight="bold" lengthAdjust="spacing" textLength="104" x="294" y="1208.7579">Drone Configuration</text></g><!--cluster usecase--><g id="cluster_usecase"><rect fill="none" height="269" rx="2.5" ry="2.5" style="stroke:#000000;stroke-width:1.0;" width="171" x="260.5" y="1393.0679"/><text fill="#000000" font-family="Times" font-size="10" font-weight="bold" lengthAdjust="spacing" textLength="68" x="312" y="1405.7579">Show Testing</text></g><!--entity ADM--><g id="elem_ADM"><ellipse cx="85" cy="396.5679" fill="#F1F1F1" rx="8" ry="8" style="stroke:#181818;stroke-width:0.5;"/><path d="M85,404.5679 L85,431.5679 M72,412.5679 L98,412.5679 M85,431.5679 L72,446.5679 M85,431.5679 L98,446.5679 " fill="none" style="stroke:#181818;stroke-width:0.5;"/><text fill="#000000" font-family="Times" font-size="10" lengthAdjust="spacing" textLength="30" x="70" y="458.7579">Admin</text></g><!--entity CRMM--><g id="elem_CRMM"><ellipse cx="85" cy="505.5679" fill="#F1F1F1" rx="8" ry="8" style="stroke:#181818;stroke-width:0.5;"/><path d="M85,513.5679 L85,540.5679 M72,521.5679 L98,521.5679 M85,540.5679 L72,555.5679 M85,540.5679 L98,555.5679 " fill="none" style="stroke:#181818;stroke-width:0.5;"/><text fill="#000000" font-family="Times" font-size="10" lengthAdjust="spacing" textLength="67" x="51.5" y="567.7579">CRM Manager</text></g><!--entity CRMCLTR--><g id="elem_CRMCLTR"><ellipse cx="85" cy="614.5679" fill="#F1F1F1" rx="8" ry="8" style="stroke:#181818;stroke-width:0.5;"/><path d="M85,622.5679 L85,649.5679 M72,630.5679 L98,630.5679 M85,649.5679 L72,664.5679 M85,649.5679 L98,664.5679 " fill="none" style="stroke:#181818;stroke-width:0.5;"/><text fill="#000000" font-family="Times" font-size="10" lengthAdjust="spacing" textLength="84" x="43" y="676.7579">CRM Collaborator</text></g><!--entity showdsg--><g id="elem_showdsg"><ellipse cx="85" cy="723.5679" fill="#F1F1F1" rx="8" ry="8" style="stroke:#181818;stroke-width:0.5;"/><path d="M85,731.5679 L85,758.5679 M72,739.5679 L98,739.5679 M85,758.5679 L72,773.5679 M85,758.5679 L98,773.5679 " fill="none" style="stroke:#181818;stroke-width:0.5;"/><text fill="#000000" font-family="Times" font-size="10" lengthAdjust="spacing" textLength="71" x="49.5" y="785.7579">Show Designer</text></g><!--entity drntch--><g id="elem_drntch"><ellipse cx="85" cy="832.5679" fill="#F1F1F1" rx="8" ry="8" style="stroke:#181818;stroke-width:0.5;"/><path d="M85,840.5679 L85,867.5679 M72,848.5679 L98,848.5679 M85,867.5679 L72,882.5679 M85,867.5679 L98,882.5679 " fill="none" style="stroke:#181818;stroke-width:0.5;"/><text fill="#000000" font-family="Times" font-size="10" lengthAdjust="spacing" textLength="55" x="57.5" y="894.7579">Drone Tech</text></g><g id="elem_mngusr"><ellipse cx="345.7697" cy="93.1219" fill="#F1F1F1" rx="55.7697" ry="13.5539" style="stroke:#181818;stroke-width:0.5;"/><text fill="#000000" font-family="Times" font-size="10" lengthAdjust="spacing" textLength="68" x="308.7697" y="95.7168">Manage users</text></g><g id="elem_mngppt"><ellipse cx="345.958" cy="228.8595" fill="#F1F1F1" rx="84.458" ry="19.2916" style="stroke:#181818;stroke-width:0.5;"/><text fill="#000000" font-family="Times" font-size="10" lengthAdjust="spacing" textLength="136" x="277.958" y="230.7395">Manage proposal templates</text></g><g id="elem_ccstts"><ellipse cx="346.1126" cy="158.0904" fill="#F1F1F1" rx="68.1126" ry="16.0225" style="stroke:#181818;stroke-width:0.5;"/><text fill="#000000" font-family="Times" font-size="10" lengthAdjust="spacing" textLength="99" x="296.6126" y="159.9704">Change client status</text></g><g id="elem_mngc"><ellipse cx="345.937" cy="298.0553" fill="#F1F1F1" rx="57.937" ry="13.9874" style="stroke:#181818;stroke-width:0.5;"/><text fill="#000000" font-family="Times" font-size="10" lengthAdjust="spacing" textLength="74" x="307.0062" y="300.423">Manage clients</text></g><g id="elem_sdlshw"><ellipse cx="346.2433" cy="375.0166" fill="#F1F1F1" rx="60.2433" ry="14.4487" style="stroke:#181818;stroke-width:0.5;"/><text fill="#000000" font-family="Times" font-size="10" lengthAdjust="spacing" textLength="80" x="305.5397" y="377.0867">Schedule a show</text></g><g id="elem_gsppstc"><ellipse cx="346.1495" cy="451.0978" fill="#F1F1F1" rx="118.1495" ry="26.0299" style="stroke:#181818;stroke-width:0.5;"/><text fill="#000000" font-family="Times" font-size="10" lengthAdjust="spacing" textLength="208" x="242.1495" y="452.9778">Generate show proposal and send to client</text></g><g id="elem_cfgsdl"><ellipse cx="346.2426" cy="531.3164" fill="#F1F1F1" rx="81.7426" ry="18.7485" style="stroke:#181818;stroke-width:0.5;"/><text fill="#000000" font-family="Times" font-size="10" lengthAdjust="spacing" textLength="130" x="281.2426" y="533.1964">Configure show's drone list</text></g><g id="elem_subsreq"><ellipse cx="345.967" cy="601.2613" fill="#F1F1F1" rx="68.967" ry="16.1934" style="stroke:#181818;stroke-width:0.5;"/><text fill="#000000" font-family="Times" font-size="10" lengthAdjust="spacing" textLength="101" x="295.467" y="603.1413">Submit show request</text></g><g id="elem_cf"><ellipse cx="346.0479" cy="665.2775" fill="#F1F1F1" rx="54.0479" ry="13.2096" style="stroke:#181818;stroke-width:0.5;"/><text fill="#000000" font-family="Times" font-size="10" lengthAdjust="spacing" textLength="63" x="311.5479" y="667.8725">Create figure</text></g><g id="elem_ldi"><ellipse cx="345.8389" cy="765.8357" fill="#F1F1F1" rx="66.8389" ry="15.7678" style="stroke:#181818;stroke-width:0.5;"/><text fill="#000000" font-family="Times" font-size="10" lengthAdjust="spacing" textLength="96" x="297.8389" y="767.7157">List drone inventory</text></g><g id="elem_ldmh"><ellipse cx="346.1024" cy="1135.2884" fill="#F1F1F1" rx="94.1024" ry="21.2205" style="stroke:#181818;stroke-width:0.5;"/><text fill="#000000" font-family="Times" font-size="10" lengthAdjust="spacing" textLength="157" x="267.6024" y="1137.1684">List drone's maintenance history</text></g><g id="elem_rdfm"><ellipse cx="346.0307" cy="838.9741" fill="#F1F1F1" rx="95.0307" ry="21.4061" style="stroke:#181818;stroke-width:0.5;"/><text fill="#000000" font-family="Times" font-size="10" lengthAdjust="spacing" textLength="159" x="266.5307" y="840.8541">Receive drone from maintenance</text></g><g id="elem_sdfm"><ellipse cx="345.958" cy="914.8595" fill="#F1F1F1" rx="84.458" ry="19.2916" style="stroke:#181818;stroke-width:0.5;"/><text fill="#000000" font-family="Times" font-size="10" lengthAdjust="spacing" textLength="136" x="277.958" y="916.7395">Send drone for maintenance</text></g><g id="elem_rdfi"><ellipse cx="346.1926" cy="989.9064" fill="#F1F1F1" rx="87.1926" ry="19.8385" style="stroke:#181818;stroke-width:0.5;"/><text fill="#000000" font-family="Times" font-size="10" lengthAdjust="spacing" textLength="142" x="275.1926" y="991.7864">Remove drone from inventory</text></g><g id="elem_adddti"><ellipse cx="345.8599" cy="1062.0399" fill="#F1F1F1" rx="72.8599" ry="16.972" style="stroke:#181818;stroke-width:0.5;"/><text fill="#000000" font-family="Times" font-size="10" lengthAdjust="spacing" textLength="110" x="290.8599" y="1063.9199">Add drone to inventory</text></g><g id="elem_cdmdl"><ellipse cx="345.7624" cy="1243.9204" fill="#F1F1F1" rx="67.2624" ry="15.8525" style="stroke:#181818;stroke-width:0.5;"/><text fill="#000000" font-family="Times" font-size="10" lengthAdjust="spacing" textLength="97" x="297.2624" y="1245.8004">Create Drone model</text></g><g id="elem_cdlng"><ellipse cx="345.9237" cy="1311.9527" fill="#F1F1F1" rx="72.4237" ry="16.8847" style="stroke:#181818;stroke-width:0.5;"/><text fill="#000000" font-family="Times" font-size="10" lengthAdjust="spacing" textLength="109" x="291.4237" y="1313.8327">Config drone language</text></g><g id="elem_gfcd"><ellipse cx="345.8958" cy="1561.8471" fill="#F1F1F1" rx="69.3958" ry="16.2792" style="stroke:#181818;stroke-width:0.5;"/><text fill="#000000" font-family="Times" font-size="10" lengthAdjust="spacing" textLength="102" x="294.8958" y="1563.7271">Generate figure code</text></g><g id="elem_gscd"><ellipse cx="346.1126" cy="1630.0904" fill="#F1F1F1" rx="68.1126" ry="16.0225" style="stroke:#181818;stroke-width:0.5;"/><text fill="#000000" font-family="Times" font-size="10" lengthAdjust="spacing" textLength="99" x="296.6126" y="1631.9704">Generate show code</text></g><g id="elem_tstfigure"><ellipse cx="346.2309" cy="1438.3" fill="#F1F1F1" rx="48.7309" ry="12.7321" style="stroke:#181818;stroke-width:0.5;"/><text fill="#000000" font-family="Times" font-size="10" lengthAdjust="spacing" textLength="52" x="317.2309" y="1440.895">Test figure</text></g><g id="elem_tstshw"><ellipse cx="345.9982" cy="1498.2801" fill="#F1F1F1" rx="46.4982" ry="12.7122" style="stroke:#181818;stroke-width:0.5;"/><text fill="#000000" font-family="Times" font-size="10" lengthAdjust="spacing" textLength="49" x="318.4982" y="1500.8751">Test show</text></g><!--link ADM to mngusr--><g id="link_ADM_mngusr"><path d="M86.07,387.8779 C88.33,323.7779 102.79,192.7379 180,124.0679 C208.75,98.4979 251.72,91.0579 286.61,89.8479 " fill="none" id="ADM-to-mngusr" style="stroke:#181818;stroke-width:1.0;"/><polygon fill="#181818" points="291.69,89.7079,282.5899,85.9413,286.6917,89.8368,282.7961,93.9386,291.69,89.7079" style="stroke:#181818;stroke-width:1.0;"/></g><!--link CRMM to mngppt--><g id="link_CRMM_mngppt"><path d="M118.81,522.1479 C137.88,513.3579 160.38,499.3779 172,479.0679 C183.76,458.5079 164.85,284.2779 180,266.0679 C198.72,243.5579 227.9,232.9779 256.54,228.4379 " fill="none" id="CRMM-to-mngppt" style="stroke:#181818;stroke-width:1.0;"/><polygon fill="#181818" points="261.51,227.7079,252.0315,225.0324,256.5611,228.421,253.1725,232.9506,261.51,227.7079" style="stroke:#181818;stroke-width:1.0;"/></g><!--link CRMM to ccstts--><g id="link_CRMM_ccstts"><path d="M118.88,522.1879 C137.98,513.4179 160.48,499.4279 172,479.0679 C187.71,451.2979 159.5,216.5179 180,192.0679 C202.83,164.8379 241.16,155.7979 275.13,153.8079 " fill="none" id="CRMM-to-ccstts" style="stroke:#181818;stroke-width:1.0;"/><polygon fill="#181818" points="280.54,153.5479,271.356,149.9905,275.5459,153.7912,271.7453,157.9811,280.54,153.5479" style="stroke:#181818;stroke-width:1.0;"/></g><!--link CRMM to mngc--><g id="link_CRMM_mngc"><path d="M118.65,522.0579 C137.67,513.2379 160.16,499.2479 172,479.0679 C187.21,453.1479 161.13,367.4579 180,344.0679 C204.39,313.8479 246.83,302.4879 282.55,298.6179 " fill="none" id="CRMM-to-mngc" style="stroke:#181818;stroke-width:1.0;"/><polygon fill="#181818" points="287.77,298.0979,278.4237,294.992,282.7937,298.5841,279.2016,302.9541,287.77,298.0979" style="stroke:#181818;stroke-width:1.0;"/></g><!--link CRMCLTR to mngc--><g id="link_CRMCLTR_mngc"><path d="M127.25,627.0479 C144.18,618.2279 162.1,605.4779 172,588.0679 C185.41,564.4879 163.24,365.3979 180,344.0679 C204.07,313.4179 246.74,302.0979 282.66,298.3379 " fill="none" id="CRMCLTR-to-mngc" style="stroke:#181818;stroke-width:1.0;"/><polygon fill="#181818" points="287.9,297.8379,278.5626,294.7054,282.9223,298.3099,279.3178,302.6697,287.9,297.8379" style="stroke:#181818;stroke-width:1.0;"/></g><!--link CRMCLTR to sdlshw--><g id="link_CRMCLTR_sdlshw"><path d="M127.16,626.9979 C144.07,618.1679 162,605.4179 172,588.0679 C182.05,570.6279 166.85,422.3079 180,407.0679 C205.34,377.6879 248.87,370.1979 284.85,369.7779 " fill="none" id="CRMCLTR-to-sdlshw" style="stroke:#181818;stroke-width:1.0;"/><polygon fill="#181818" points="290.11,369.7679,281.0986,365.7936,285.11,369.7822,281.1215,373.7936,290.11,369.7679" style="stroke:#181818;stroke-width:1.0;"/></g><!--link CRMCLTR to gsppstc--><g id="link_CRMCLTR_gsppstc"><path d="M127.27,626.5579 C143.99,617.7079 161.73,605.0579 172,588.0679 C182.73,570.3179 166.67,510.9579 180,495.0679 C193.17,479.3679 211.27,468.9379 230.66,462.0679 " fill="none" id="CRMCLTR-to-gsppstc" style="stroke:#181818;stroke-width:1.0;"/><polygon fill="#181818" points="235.62,460.4079,225.8136,459.4946,230.8823,462.0062,228.3708,467.0749,235.62,460.4079" style="stroke:#181818;stroke-width:1.0;"/></g><!--link CRMCLTR to cfgsdl--><g id="link_CRMCLTR_cfgsdl"><path d="M127.33,623.8079 C143.05,614.7979 160.03,602.7779 172,588.0679 C178.3,580.3179 172.43,573.5879 180,567.0679 C201.96,548.1579 231.57,538.4879 259.63,533.7379 " fill="none" id="CRMCLTR-to-cfgsdl" style="stroke:#181818;stroke-width:1.0;"/><polygon fill="#181818" points="264.85,532.8979,255.3336,530.3604,259.912,533.6829,256.5896,538.2612,264.85,532.8979" style="stroke:#181818;stroke-width:1.0;"/></g><!--link CRMCLTR to subsreq--><g id="link_CRMCLTR_subsreq"><path d="M127.04,636.4079 C169.15,629.5879 235.17,618.8779 283.53,611.0379 " fill="none" id="CRMCLTR-to-subsreq" style="stroke:#181818;stroke-width:1.0;"/><polygon fill="#181818" points="288.74,610.1879,279.2154,607.6816,283.8046,610.989,280.4972,615.5782,288.74,610.1879" style="stroke:#181818;stroke-width:1.0;"/></g><!--link CRMCLTR to cf--><g id="link_CRMCLTR_cf"><path d="M127.04,646.5579 C170.94,650.2879 240.83,656.2179 289.59,660.3579 " fill="none" id="CRMCLTR-to-cf" style="stroke:#181818;stroke-width:1.0;"/><polygon fill="#181818" points="294.83,660.8079,286.2056,656.0518,289.8484,660.3797,285.5205,664.0224,294.83,660.8079" style="stroke:#181818;stroke-width:1.0;"/></g><!--link showdsg to cf--><g id="link_showdsg_cf"><path d="M120.66,740.4279 C169.7,723.9479 258.91,693.9879 308.79,677.2279 " fill="none" id="showdsg-to-cf" style="stroke:#181818;stroke-width:1.0;"/><polygon fill="#181818" points="313.78,675.5579,303.9761,674.6181,309.038,677.1433,306.5128,682.2053,313.78,675.5579" style="stroke:#181818;stroke-width:1.0;"/></g><!--link drntch to ldi--><g id="link_drntch_ldi"><path d="M112.68,844.7179 C129.84,834.0379 152.48,819.5979 172,806.0679 C175.65,803.5379 175.95,801.8979 180,800.0679 C210.88,786.1579 247.58,777.8679 278.53,772.9679 " fill="none" id="drntch-to-ldi" style="stroke:#181818;stroke-width:1.0;"/><polygon fill="#181818" points="283.84,772.1579,274.3381,769.5668,278.8976,772.915,275.5494,777.4745,283.84,772.1579" style="stroke:#181818;stroke-width:1.0;"/></g><!--link drntch to ldmh--><g id="link_drntch_ldmh"><path d="M90.22,898.1279 C98.2,950.2879 120.41,1044.7279 180,1096.0679 C199.55,1112.9079 225.05,1122.7879 250.15,1128.4979 " fill="none" id="drntch-to-ldmh" style="stroke:#181818;stroke-width:1.0;"/><polygon fill="#181818" points="255.16,1129.5879,247.2095,1123.7751,250.2731,1128.5305,245.5176,1131.5941,255.16,1129.5879" style="stroke:#181818;stroke-width:1.0;"/></g><!--link drntch to rdfm--><g id="link_drntch_rdfm"><path d="M112.74,858.7979 C145.42,856.0179 202.45,851.1779 251.83,846.9779 " fill="none" id="drntch-to-rdfm" style="stroke:#181818;stroke-width:1.0;"/><polygon fill="#181818" points="256.88,846.5479,247.5705,843.3334,251.8984,846.9761,248.2556,851.304,256.88,846.5479" style="stroke:#181818;stroke-width:1.0;"/></g><!--link drntch to sdfm--><g id="link_drntch_sdfm"><path d="M112.74,866.6479 C151.31,874.6879 223.8,889.7979 277.58,901.0079 " fill="none" id="drntch-to-sdfm" style="stroke:#181818;stroke-width:1.0;"/><polygon fill="#181818" points="282.73,902.0879,274.7437,896.3243,277.8366,901.0607,273.1002,904.1537,282.73,902.0879" style="stroke:#181818;stroke-width:1.0;"/></g><!--link drntch to rdfi--><g id="link_drntch_rdfi"><path d="M112.65,894.8079 C129.85,914.3679 153.86,937.8579 180,952.0679 C205.17,965.7479 235.08,974.5179 262.48,980.1279 " fill="none" id="drntch-to-rdfi" style="stroke:#181818;stroke-width:1.0;"/><polygon fill="#181818" points="267.56,981.1479,259.5065,975.4786,262.6549,980.1783,257.9552,983.3267,267.56,981.1479" style="stroke:#181818;stroke-width:1.0;"/></g><!--link drntch to adddti--><g id="link_drntch_adddti"><path d="M96.96,898.2379 C110.25,936.5879 136.45,995.1679 180,1027.0679 C205.34,1045.6379 238.43,1054.7879 268.31,1059.1579 " fill="none" id="drntch-to-adddti" style="stroke:#181818;stroke-width:1.0;"/><polygon fill="#181818" points="273.46,1059.8679,265.093,1054.6724,268.5072,1059.1828,263.9968,1062.597,273.46,1059.8679" style="stroke:#181818;stroke-width:1.0;"/></g><!--link CRMCLTR to ldi--><g id="link_CRMCLTR_ldi"><path d="M127.25,666.4379 C143.52,675.3979 162.48,685.5179 180,694.0679 C222.56,714.8479 272.55,736.2579 306.26,750.2679 " fill="none" id="CRMCLTR-to-ldi" style="stroke:#181818;stroke-width:1.0;"/><polygon fill="#181818" points="311.12,752.2779,304.332,745.1419,306.4996,750.367,301.2745,752.5346,311.12,752.2779" style="stroke:#181818;stroke-width:1.0;"/></g><!--link drntch to cdmdl--><g id="link_drntch_cdmdl"><path d="M87.45,898.2079 C91.84,961.8879 109.47,1092.6879 180,1172.0679 C208.2,1203.7979 252.92,1222.1279 288.69,1232.3479 " fill="none" id="drntch-to-cdmdl" style="stroke:#181818;stroke-width:1.0;"/><polygon fill="#181818" points="293.9,1233.7879,286.2884,1227.5379,289.0802,1232.4578,284.1602,1235.2496,293.9,1233.7879" style="stroke:#181818;stroke-width:1.0;"/></g><!--link drntch to cdlng--><g id="link_drntch_cdlng"><path d="M89.34,898.3479 C98.34,990.2079 126.11,1223.8879 180,1277.0679 C203.15,1299.9079 237.26,1309.5179 268.48,1313.0779 " fill="none" id="drntch-to-cdlng" style="stroke:#181818;stroke-width:1.0;"/><polygon fill="#181818" points="273.46,1313.5979,264.9319,1308.6714,268.4879,1313.0708,264.0885,1316.6268,273.46,1313.5979" style="stroke:#181818;stroke-width:1.0;"/></g><!--link drntch to gfcd--><g id="link_drntch_gfcd"><path d="M85.84,898.0879 C86.07,1024.4479 93.56,1435.9879 180,1528.0679 C203.37,1552.9679 239.74,1562.2279 272.4,1564.9279 " fill="none" id="drntch-to-gfcd" style="stroke:#181818;stroke-width:1.0;"/><polygon fill="#181818" points="277.61,1565.3079,268.932,1560.6503,272.6238,1564.9365,268.3377,1568.6282,277.61,1565.3079" style="stroke:#181818;stroke-width:1.0;"/></g><!--link drntch to gscd--><g id="link_drntch_gscd"><path d="M88.26,898.4779 C97.21,1040.9479 132.02,1544.2879 180,1596.0679 C203.68,1621.6279 241.05,1630.7579 274.25,1633.2179 " fill="none" id="drntch-to-gscd" style="stroke:#181818;stroke-width:1.0;"/><polygon fill="#181818" points="279.53,1633.5579,270.8117,1628.9764,274.5408,1633.2301,270.2871,1636.9592,279.53,1633.5579" style="stroke:#181818;stroke-width:1.0;"/></g><!--link drntch to tstfigure--><g id="link_drntch_tstfigure"><path d="M89.18,898.1179 C98.42,998.4779 127.94,1272.8579 180,1345.0679 C211.2,1388.3379 269.11,1414.1079 307.35,1427.1879 " fill="none" id="drntch-to-tstfigure" style="stroke:#181818;stroke-width:1.0;"/><polygon fill="#181818" points="312.38,1428.8779,305.1308,1422.2109,307.6423,1427.2797,302.5736,1429.7912,312.38,1428.8779" style="stroke:#181818;stroke-width:1.0;"/></g><!--link drntch to tstshw--><g id="link_drntch_tstshw"><path d="M86.33,898.1179 C88.19,1017.0779 100.38,1386.3379 180,1468.0679 C210.01,1498.8779 260.34,1504.1179 297.53,1503.0379 " fill="none" id="drntch-to-tstshw" style="stroke:#181818;stroke-width:1.0;"/><polygon fill="#181818" points="302.92,1502.8379,293.7777,1499.1747,297.9234,1503.0235,294.0747,1507.1692,302.92,1502.8379" style="stroke:#181818;stroke-width:1.0;"/></g><!--SRC=[ZLNDRjmW4Bxp56WlEKLgNw3IPbVjfUbXDtq05iOs2WQNmOdIQD-zOsDxmSiczS4ICzytFnymuBEsdV2YDKu-W-8AAj6RyDtPy4kqm9zq2yZmDkge_mB_-eNTBHZUEkjauntHW-_XmkQTaC-YXcDuCy0zo21iRI3bOYEKUzMsvfKm22mXB_XtnkbxS5w1tpdZF3yP2ipEZ0KTAFAZq9R_Hk0xGR-z5ZNn6JDG1HuSzxfk0bTw2AYTPMo9p3V7DmpGygqCpYClVnika8k8YBMC2xxPgbRRqRlTFwQEtU6HYhBKkX_TjBxoKoT6d9mNP9b1kvzFXnHtRDmhtmFgsawHa2mAwnIqzyxIne5iHeJoDiY6iK4UblNwGAAvgj8IHc2F84alZ2rDAxw9TGzhZoEkjNMFlWZglEiS2iD9myw800kZwqBEs3LK1N1fDDZ0COZGHx2K608MmqVm4bEo4KLQy_lxRsbTWxwpRSwys984AKwEblGe36AFcLlAkgXDqAXGLk5HDg1weeaH5D7AOFDwZVq1j7iapeYyQ2QiuWZqeoCQEnsZrDXr6EHrc9spbQvx7-FS3JizRBpH68coggc2GgdzgTKX9lVmfuS9Z_q9QLr8v66eDYQRGhC5DXtJNCQrOoL5wbhtb_fMBMGHLzNcjCKytO_KV6RhdOut9jzgkZRPJcUA_2ID9xcrVI6AysyZooZz6OCsggNv5C0AAu4tvBYmswPCFu04_G9JpefcQnfa97jLjMNoSJXK4vC6n9g8Dua7Q5sUDE-MKjveTwlcZ7IOSv9GIeMSDdznL8rxjHQo25cfLS1SYLB0u7zWhZejO3veB3sSSsVdyYcSRxKOdgRv94eolT-yc97OEWKctaxLbkvzZ3nF2KhQqqoT2CRMhD1I7Ybpp8ppyAwif-OJpHHwmzDdvVs3EJYDCKaTn95NIVNPsBo0iGGUAaWdLi0GLpUWoz0cO3gfafwpgb8xbktNANFdaERC_W40]--></g></svg>