<svg xmlns="http://www.w3.org/2000/svg" xmlns:xlink="http://www.w3.org/1999/xlink" contentStyleType="text/css" data-diagram-type="SEQUENCE" height="901px" preserveAspectRatio="none" style="width:547px;height:901px;background:#FFFFFF;" version="1.1" viewBox="0 0 547 901" width="547px" zoomAndPan="magnify"><defs/><g><g><title>Shipping Agent Representative</title><rect fill="#000000" fill-opacity="0.00000" height="738.7637" width="8" x="108.125" y="81.4883"/><line style="stroke:#181818;stroke-width:0.5;stroke-dasharray:5,5;" x1="112" x2="112" y1="81.4883" y2="820.252"/></g><g><title>VVN Management API</title><rect fill="#000000" fill-opacity="0.00000" height="738.7637" width="8" x="455.0747" y="81.4883"/><line style="stroke:#181818;stroke-width:0.5;stroke-dasharray:5,5;" x1="458.8379" x2="458.8379" y1="81.4883" y2="820.252"/></g><g class="participant participant-head" data-participant="Agent"><text fill="#000000" font-family="sans-serif" font-size="14" lengthAdjust="spacing" textLength="208.25" x="5" y="78.5352">Shipping Agent Representative</text><ellipse cx="112.125" cy="13.5" fill="#E2E2F0" rx="8" ry="8" style="stroke:#181818;stroke-width:0.5;"/><path d="M112.125,21.5 L112.125,48.5 M99.125,29.5 L125.125,29.5 M112.125,48.5 L99.125,63.5 M112.125,48.5 L125.125,63.5" fill="none" style="stroke:#181818;stroke-width:0.5;"/></g><g class="participant participant-tail" data-participant="Agent"><text fill="#000000" font-family="sans-serif" font-size="14" lengthAdjust="spacing" textLength="208.25" x="5" y="832.7871">Shipping Agent Representative</text><ellipse cx="112.125" cy="844.2402" fill="#E2E2F0" rx="8" ry="8" style="stroke:#181818;stroke-width:0.5;"/><path d="M112.125,852.2402 L112.125,879.2402 M99.125,860.2402 L125.125,860.2402 M112.125,879.2402 L99.125,894.2402 M112.125,879.2402 L125.125,894.2402" fill="none" style="stroke:#181818;stroke-width:0.5;"/></g><g class="participant participant-head" data-participant="System"><text fill="#000000" font-family="sans-serif" font-size="14" lengthAdjust="spacing" textLength="146.4736" x="382.8379" y="78.5352">VVN Management API</text><path d="M438.5747,37 L438.5747,61 M438.5747,49 L455.5747,49" fill="none" style="stroke:#181818;stroke-width:0.5;"/><ellipse cx="467.5747" cy="49" fill="#E2E2F0" rx="12" ry="12" style="stroke:#181818;stroke-width:0.5;"/></g><g class="participant participant-tail" data-participant="System"><text fill="#000000" font-family="sans-serif" font-size="14" lengthAdjust="spacing" textLength="146.4736" x="382.8379" y="832.7871">VVN Management API</text><path d="M438.5747,839.7402 L438.5747,863.7402 M438.5747,851.7402 L455.5747,851.7402" fill="none" style="stroke:#181818;stroke-width:0.5;"/><ellipse cx="467.5747" cy="851.7402" fill="#E2E2F0" rx="12" ry="12" style="stroke:#181818;stroke-width:0.5;"/></g><rect fill="#EEEEEE" height="3" style="stroke:#EEEEEE;stroke-width:1;" width="540.3115" x="0" y="112.1436"/><line style="stroke:#000000;stroke-width:1;" x1="0" x2="540.3115" y1="112.1436" y2="112.1436"/><line style="stroke:#000000;stroke-width:1;" x1="0" x2="540.3115" y1="115.1436" y2="115.1436"/><rect fill="#EEEEEE" height="23.3105" style="stroke:#000000;stroke-width:2;" width="112.5347" x="213.8884" y="101.4883"/><text fill="#000000" font-family="sans-serif" font-size="13" font-weight="bold" lengthAdjust="spacing" textLength="94.25" x="219.8884" y="118.0566">View All VVNs</text><g class="message" data-participant-1="Agent" data-participant-2="System"><polygon fill="#181818" points="447.0747,152.1094,457.0747,156.1094,447.0747,160.1094,451.0747,156.1094" style="stroke:#181818;stroke-width:1;"/><line style="stroke:#181818;stroke-width:1;" x1="112.125" x2="453.0747" y1="156.1094" y2="156.1094"/><text fill="#000000" font-family="sans-serif" font-size="13" lengthAdjust="spacing" textLength="83.0527" x="119.125" y="151.3672">GET /api/vvn</text></g><g class="message" data-participant-1="System" data-participant-2="Agent"><polygon fill="#181818" points="123.125,196.7305,113.125,200.7305,123.125,204.7305,119.125,200.7305" style="stroke:#181818;stroke-width:1;"/><line style="stroke:#181818;stroke-width:1;stroke-dasharray:2,2;" x1="117.125" x2="458.0747" y1="200.7305" y2="200.7305"/><text fill="#000000" font-family="sans-serif" font-size="13" lengthAdjust="spacing" textLength="47.3599" x="129.125" y="180.6777">200 OK</text><text fill="#000000" font-family="sans-serif" font-size="13" lengthAdjust="spacing" textLength="231.0293" x="129.125" y="195.9883">Body: [VesselVisitNotificationDto, ...]</text></g><rect fill="#EEEEEE" height="3" style="stroke:#EEEEEE;stroke-width:1;" width="540.3115" x="0" y="229.3857"/><line style="stroke:#000000;stroke-width:1;" x1="0" x2="540.3115" y1="229.3857" y2="229.3857"/><line style="stroke:#000000;stroke-width:1;" x1="0" x2="540.3115" y1="232.3857" y2="232.3857"/><rect fill="#EEEEEE" height="23.3105" style="stroke:#000000;stroke-width:2;" width="121.0088" x="209.6514" y="218.7305"/><text fill="#000000" font-family="sans-serif" font-size="13" font-weight="bold" lengthAdjust="spacing" textLength="102.7241" x="215.6514" y="235.2988">Filter by Vessel</text><g class="message" data-participant-1="Agent" data-participant-2="System"><polygon fill="#181818" points="447.0747,269.3516,457.0747,273.3516,447.0747,277.3516,451.0747,273.3516" style="stroke:#181818;stroke-width:1;"/><line style="stroke:#181818;stroke-width:1;" x1="112.125" x2="453.0747" y1="273.3516" y2="273.3516"/><text fill="#000000" font-family="sans-serif" font-size="13" lengthAdjust="spacing" textLength="219.6797" x="119.125" y="268.6094">GET /api/vvn?vessel=IMO1234567</text></g><g class="message" data-participant-1="System" data-participant-2="Agent"><polygon fill="#181818" points="123.125,313.9727,113.125,317.9727,123.125,321.9727,119.125,317.9727" style="stroke:#181818;stroke-width:1;"/><line style="stroke:#181818;stroke-width:1;stroke-dasharray:2,2;" x1="117.125" x2="458.0747" y1="317.9727" y2="317.9727"/><text fill="#000000" font-family="sans-serif" font-size="13" lengthAdjust="spacing" textLength="47.3599" x="129.125" y="297.9199">200 OK</text><text fill="#000000" font-family="sans-serif" font-size="13" lengthAdjust="spacing" textLength="194.1875" x="129.125" y="313.2305">Body: [VVN for selected vessel]</text></g><rect fill="#EEEEEE" height="3" style="stroke:#EEEEEE;stroke-width:1;" width="540.3115" x="0" y="346.6279"/><line style="stroke:#000000;stroke-width:1;" x1="0" x2="540.3115" y1="346.6279" y2="346.6279"/><line style="stroke:#000000;stroke-width:1;" x1="0" x2="540.3115" y1="349.6279" y2="349.6279"/><rect fill="#EEEEEE" height="23.3105" style="stroke:#000000;stroke-width:2;" width="119.2568" x="210.5273" y="335.9727"/><text fill="#000000" font-family="sans-serif" font-size="13" font-weight="bold" lengthAdjust="spacing" textLength="100.9722" x="216.5273" y="352.541">Filter by Status</text><g class="message" data-participant-1="Agent" data-participant-2="System"><polygon fill="#181818" points="447.0747,386.5938,457.0747,390.5938,447.0747,394.5938,451.0747,390.5938" style="stroke:#181818;stroke-width:1;"/><line style="stroke:#181818;stroke-width:1;" x1="112.125" x2="453.0747" y1="390.5938" y2="390.5938"/><text fill="#000000" font-family="sans-serif" font-size="13" lengthAdjust="spacing" textLength="195.0952" x="119.125" y="385.8516">GET /api/vvn?status=Accepted</text></g><g class="message" data-participant-1="System" data-participant-2="Agent"><polygon fill="#181818" points="123.125,431.2148,113.125,435.2148,123.125,439.2148,119.125,435.2148" style="stroke:#181818;stroke-width:1;"/><line style="stroke:#181818;stroke-width:1;stroke-dasharray:2,2;" x1="117.125" x2="458.0747" y1="435.2148" y2="435.2148"/><text fill="#000000" font-family="sans-serif" font-size="13" lengthAdjust="spacing" textLength="47.3599" x="129.125" y="415.1621">200 OK</text><text fill="#000000" font-family="sans-serif" font-size="13" lengthAdjust="spacing" textLength="142.4604" x="129.125" y="430.4727">Body: [Accepted VVNs]</text></g><rect fill="#EEEEEE" height="3" style="stroke:#EEEEEE;stroke-width:1;" width="540.3115" x="0" y="463.8701"/><line style="stroke:#000000;stroke-width:1;" x1="0" x2="540.3115" y1="463.8701" y2="463.8701"/><line style="stroke:#000000;stroke-width:1;" x1="0" x2="540.3115" y1="466.8701" y2="466.8701"/><rect fill="#EEEEEE" height="23.3105" style="stroke:#000000;stroke-width:2;" width="177.7314" x="181.29" y="453.2148"/><text fill="#000000" font-family="sans-serif" font-size="13" font-weight="bold" lengthAdjust="spacing" textLength="159.4468" x="187.29" y="469.7832">Filter by Representative</text><g class="message" data-participant-1="Agent" data-participant-2="System"><polygon fill="#181818" points="447.0747,503.8359,457.0747,507.8359,447.0747,511.8359,451.0747,507.8359" style="stroke:#181818;stroke-width:1;"/><line style="stroke:#181818;stroke-width:1;" x1="112.125" x2="453.0747" y1="507.8359" y2="507.8359"/><text fill="#000000" font-family="sans-serif" font-size="13" lengthAdjust="spacing" textLength="241.8774" x="119.125" y="503.0938">GET /api/vvn?representative=JohnDoe</text></g><g class="message" data-participant-1="System" data-participant-2="Agent"><polygon fill="#181818" points="123.125,548.457,113.125,552.457,123.125,556.457,119.125,552.457" style="stroke:#181818;stroke-width:1;"/><line style="stroke:#181818;stroke-width:1;stroke-dasharray:2,2;" x1="117.125" x2="458.0747" y1="552.457" y2="552.457"/><text fill="#000000" font-family="sans-serif" font-size="13" lengthAdjust="spacing" textLength="47.3599" x="129.125" y="532.4043">200 OK</text><text fill="#000000" font-family="sans-serif" font-size="13" lengthAdjust="spacing" textLength="193.4258" x="129.125" y="547.7148">Body: [VVNs by representative]</text></g><rect fill="#EEEEEE" height="3" style="stroke:#EEEEEE;stroke-width:1;" width="540.3115" x="0" y="581.1123"/><line style="stroke:#000000;stroke-width:1;" x1="0" x2="540.3115" y1="581.1123" y2="581.1123"/><line style="stroke:#000000;stroke-width:1;" x1="0" x2="540.3115" y1="584.1123" y2="584.1123"/><rect fill="#EEEEEE" height="23.3105" style="stroke:#000000;stroke-width:2;" width="154.2261" x="193.0427" y="570.457"/><text fill="#000000" font-family="sans-serif" font-size="13" font-weight="bold" lengthAdjust="spacing" textLength="135.9414" x="199.0427" y="587.0254">Filter by Date Range</text><g class="message" data-participant-1="Agent" data-participant-2="System"><polygon fill="#181818" points="447.0747,621.0781,457.0747,625.0781,447.0747,629.0781,451.0747,625.0781" style="stroke:#181818;stroke-width:1;"/><line style="stroke:#181818;stroke-width:1;" x1="112.125" x2="453.0747" y1="625.0781" y2="625.0781"/><text fill="#000000" font-family="sans-serif" font-size="13" lengthAdjust="spacing" textLength="322.9497" x="119.125" y="620.3359">GET /api/vvn?from=2025-01-01&amp;to=2025-12-31</text></g><g class="message" data-participant-1="System" data-participant-2="Agent"><polygon fill="#181818" points="123.125,665.6992,113.125,669.6992,123.125,673.6992,119.125,669.6992" style="stroke:#181818;stroke-width:1;"/><line style="stroke:#181818;stroke-width:1;stroke-dasharray:2,2;" x1="117.125" x2="458.0747" y1="669.6992" y2="669.6992"/><text fill="#000000" font-family="sans-serif" font-size="13" lengthAdjust="spacing" textLength="47.3599" x="129.125" y="649.6465">200 OK</text><text fill="#000000" font-family="sans-serif" font-size="13" lengthAdjust="spacing" textLength="167.8955" x="129.125" y="664.957">Body: [VVNs in date range]</text></g><rect fill="#EEEEEE" height="3" style="stroke:#EEEEEE;stroke-width:1;" width="540.3115" x="0" y="698.3545"/><line style="stroke:#000000;stroke-width:1;" x1="0" x2="540.3115" y1="698.3545" y2="698.3545"/><line style="stroke:#000000;stroke-width:1;" x1="0" x2="540.3115" y1="701.3545" y2="701.3545"/><rect fill="#EEEEEE" height="23.3105" style="stroke:#000000;stroke-width:2;" width="189.4238" x="175.4438" y="687.6992"/><text fill="#000000" font-family="sans-serif" font-size="13" font-weight="bold" lengthAdjust="spacing" textLength="171.1392" x="181.4438" y="704.2676">View Specific VVN Details</text><g class="message" data-participant-1="Agent" data-participant-2="System"><polygon fill="#181818" points="447.0747,738.3203,457.0747,742.3203,447.0747,746.3203,451.0747,742.3203" style="stroke:#181818;stroke-width:1;"/><line style="stroke:#181818;stroke-width:1;" x1="112.125" x2="453.0747" y1="742.3203" y2="742.3203"/><text fill="#000000" font-family="sans-serif" font-size="13" lengthAdjust="spacing" textLength="110.2651" x="119.125" y="737.5781">GET /api/vvn/{id}</text></g><g class="message" data-participant-1="System" data-participant-2="Agent"><polygon fill="#181818" points="123.125,798.252,113.125,802.252,123.125,806.252,119.125,802.252" style="stroke:#181818;stroke-width:1;"/><line style="stroke:#181818;stroke-width:1;stroke-dasharray:2,2;" x1="117.125" x2="458.0747" y1="802.252" y2="802.252"/><text fill="#000000" font-family="sans-serif" font-size="13" lengthAdjust="spacing" textLength="47.3599" x="129.125" y="766.8887">200 OK</text><text fill="#000000" font-family="sans-serif" font-size="13" lengthAdjust="spacing" textLength="202.0078" x="129.125" y="782.1992">Body: VesselVisitNotificationDto</text><text fill="#000000" font-family="sans-serif" font-size="13" lengthAdjust="spacing" textLength="229.9058" x="129.125" y="797.5098">(Status, Dock, RejectionReason, etc.)</text></g><!--SRC=[ZL9TIyCm57tlhxZiGHJQhksSmg2EIbMcR9DL-kBsaBLtNRHBIXChHVplfkr4Df05yf2FS-yvEVUGHF8IUj6M5WLb6GGPCWaBB4eKQaSahR07H7GFnff_i9IKDVJYU0PJmaY6kwOYU9wqiAWM4dU6uViGK_o48Cz1GGNulj7rjcxs81Z1mzqBz4b1-rN5ZFsjfG0TSWIUuy3yQSbkULgFu3L68J2FgQ1onYNTq4JfuooKt0JRjbSjxJtD9PQmhg63dsOULotGdqpdhZUu75vTwsXH_zyewrGX9X9Jw9eSQuYKXHyQln-B5kW7IOA5QgUXu1VQ-dlCUpX13VxoeC1_v5iMSjGpGZICXmsEzOH48Ym8otIqR4g-ypt76rgEgzQPvDt9zQo1gok9CaWRqh8XNVqbCYemQQBJs0OXIa9pZVdqlsZwVPhw_uGksNcN1HD2dhoRQa9lAZZgSO54S6O2oiI- -040]--></g></svg>