<svg xmlns="http://www.w3.org/2000/svg" xmlns:xlink="http://www.w3.org/1999/xlink" contentStyleType="text/css" data-diagram-type="CLASS" height="1094px" preserveAspectRatio="none" style="width:840px;height:1094px;background:#FFFFFF;" version="1.1" viewBox="0 0 840 1094" width="840px" zoomAndPan="magnify"><title>Class Diagram - US4.1.11 Complete Vessel Visit Execution</title><defs/><g><g class="title" data-source-line="3"><text fill="#000000" font-family="sans-serif" font-size="14" font-weight="bold" lengthAdjust="spacing" textLength="458.1582" x="184.4053" y="22.9951">Class Diagram - US4.1.11 Complete Vessel Visit Execution</text></g><!--class UpdateVVEToCompletedController--><g class="entity" data-qualified-name="UpdateVVEToCompletedController" data-source-line="5" id="ent0002"><rect fill="#F1F1F1" height="72.5625" rx="2.5" ry="2.5" style="stroke:#181818;stroke-width:0.5;" width="540.5547" x="255.04" y="44.2969"/><ellipse cx="400.3925" cy="64.4297" fill="#C2C2C2" rx="11" ry="11" style="stroke:#181818;stroke-width:1;"/><path d="M403.3613,70.0703 Q402.7832,70.3672 402.1425,70.5078 Q401.5019,70.6641 400.7988,70.6641 Q398.2988,70.6641 396.9707,69.0234 Q395.6582,67.3672 395.6582,64.2422 Q395.6582,61.1172 396.9707,59.4609 Q398.2988,57.8047 400.7988,57.8047 Q401.5019,57.8047 402.1425,57.9609 Q402.7988,58.1172 403.3613,58.4141 L403.3613,61.1328 Q402.7363,60.5547 402.1425,60.2891 Q401.5488,60.0078 400.9238,60.0078 Q399.58,60.0078 398.8925,61.0859 Q398.205,62.1484 398.205,64.2422 Q398.205,66.3359 398.8925,67.4141 Q399.58,68.4766 400.9238,68.4766 Q401.5488,68.4766 402.1425,68.2109 Q402.7363,67.9297 403.3613,67.3516 L403.3613,70.0703 Z " fill="#000000"/><text fill="#000000" font-family="sans-serif" font-size="12" font-style="italic" lengthAdjust="spacing" textLength="73.9746" x="504.58" y="60.4355">&#171;Controller&#187;</text><text fill="#000000" font-family="sans-serif" font-size="14" lengthAdjust="spacing" textLength="241.3496" x="420.8925" y="76.2607">UpdateVVEToCompletedController</text><line style="stroke:#181818;stroke-width:0.5;" x1="256.04" x2="794.5947" y1="84.5625" y2="84.5625"/><line style="stroke:#181818;stroke-width:0.5;" x1="256.04" x2="794.5947" y1="92.5625" y2="92.5625"/><g data-visibility-modifier="PUBLIC_METHOD"><ellipse cx="266.04" cy="106.2109" fill="#A6A6A6" rx="3" ry="3" style="stroke:#545454;stroke-width:1;"/></g><text fill="#000000" font-family="sans-serif" font-size="14" lengthAdjust="spacing" textLength="514.5547" x="275.04" y="109.5576">execute(req: Request, res: Response, next: NextFunction): HttpResponse</text></g><!--class VesselVisitExecutionService--><g class="entity" data-qualified-name="VesselVisitExecutionService" data-source-line="9" id="ent0003"><rect fill="#F1F1F1" height="154.0469" rx="2.5" ry="2.5" style="stroke:#181818;stroke-width:0.5;" width="282.8809" x="383.88" y="176.8569"/><ellipse cx="423.4441" cy="196.9897" fill="#C2C2C2" rx="11" ry="11" style="stroke:#181818;stroke-width:1;"/><path d="M426.4129,202.6303 Q425.8347,202.9272 425.1941,203.0678 Q424.5535,203.2241 423.8504,203.2241 Q421.3504,203.2241 420.0222,201.5834 Q418.7097,199.9272 418.7097,196.8022 Q418.7097,193.6772 420.0222,192.0209 Q421.3504,190.3647 423.8504,190.3647 Q424.5535,190.3647 425.1941,190.5209 Q425.8504,190.6772 426.4129,190.9741 L426.4129,193.6928 Q425.7879,193.1147 425.1941,192.8491 Q424.6004,192.5678 423.9754,192.5678 Q422.6316,192.5678 421.9441,193.6459 Q421.2566,194.7084 421.2566,196.8022 Q421.2566,198.8959 421.9441,199.9741 Q422.6316,201.0366 423.9754,201.0366 Q424.6004,201.0366 425.1941,200.7709 Q425.7879,200.4897 426.4129,199.9116 L426.4129,202.6303 Z " fill="#000000"/><text fill="#000000" font-family="sans-serif" font-size="12" font-style="italic" lengthAdjust="spacing" textLength="126.082" x="478.0088" y="192.9955">&#171;ApplicationService&#187;</text><text fill="#000000" font-family="sans-serif" font-size="14" lengthAdjust="spacing" textLength="196.2939" x="442.9028" y="208.8207">VesselVisitExecutionService</text><line style="stroke:#181818;stroke-width:0.5;" x1="384.88" x2="665.7609" y1="217.1225" y2="217.1225"/><text fill="#000000" font-family="sans-serif" font-size="14" lengthAdjust="spacing" textLength="227.7734" x="389.88" y="234.1176">code: VesselVisitExecutionCode,</text><text fill="#000000" font-family="sans-serif" font-size="14" lengthAdjust="spacing" textLength="182.335" x="389.88" y="250.4145">actualUnBerthTime: Date,</text><text fill="#000000" font-family="sans-serif" font-size="14" lengthAdjust="spacing" textLength="195.0225" x="389.88" y="266.7114">actualLeavePortTime: Date,</text><text fill="#000000" font-family="sans-serif" font-size="14" lengthAdjust="spacing" textLength="143.2813" x="389.88" y="283.0082">updaterEmail: string</text><line style="stroke:#181818;stroke-width:0.5;" x1="384.88" x2="665.7609" y1="290.31" y2="290.31"/><g data-visibility-modifier="PUBLIC_METHOD"><ellipse cx="394.88" cy="303.9584" fill="#A6A6A6" rx="3" ry="3" style="stroke:#545454;stroke-width:1;"/></g><text fill="#000000" font-family="sans-serif" font-size="14" lengthAdjust="spacing" textLength="144.9424" x="403.88" y="307.3051">setCompletedAsync(</text><text fill="#000000" font-family="sans-serif" font-size="14" lengthAdjust="spacing" textLength="256.8809" x="403.88" y="323.602">): Result&lt;VesselVisitExecutionDTO&gt;</text></g><!--class VesselVisitExecutionRepo--><g class="entity" data-qualified-name="VesselVisitExecutionRepo" data-source-line="18" id="ent0004"><rect fill="#F1F1F1" height="88.8594" rx="2.5" ry="2.5" style="stroke:#181818;stroke-width:0.5;" width="494.2754" x="81.18" y="423.5069"/><ellipse cx="233.8948" cy="443.6397" fill="#C2C2C2" rx="11" ry="11" style="stroke:#181818;stroke-width:1;"/><path d="M236.8636,449.2803 Q236.2855,449.5772 235.6448,449.7178 Q235.0042,449.8741 234.3011,449.8741 Q231.8011,449.8741 230.473,448.2334 Q229.1605,446.5772 229.1605,443.4522 Q229.1605,440.3272 230.473,438.6709 Q231.8011,437.0147 234.3011,437.0147 Q235.0042,437.0147 235.6448,437.1709 Q236.3011,437.3272 236.8636,437.6241 L236.8636,440.3428 Q236.2386,439.7647 235.6448,439.4991 Q235.0511,439.2178 234.4261,439.2178 Q233.0823,439.2178 232.3948,440.2959 Q231.7073,441.3584 231.7073,443.4522 Q231.7073,445.5459 232.3948,446.6241 Q233.0823,447.6866 234.4261,447.6866 Q235.0511,447.6866 235.6448,447.4209 Q236.2386,447.1397 236.8636,446.5616 L236.8636,449.2803 Z " fill="#000000"/><text fill="#000000" font-family="sans-serif" font-size="12" font-style="italic" lengthAdjust="spacing" textLength="79.0313" x="305.0521" y="439.6455">&#171;Repository&#187;</text><text fill="#000000" font-family="sans-serif" font-size="14" lengthAdjust="spacing" textLength="180.3457" x="254.3948" y="455.4707">VesselVisitExecutionRepo</text><line style="stroke:#181818;stroke-width:0.5;" x1="82.18" x2="574.4554" y1="463.7725" y2="463.7725"/><line style="stroke:#181818;stroke-width:0.5;" x1="82.18" x2="574.4554" y1="471.7725" y2="471.7725"/><g data-visibility-modifier="PUBLIC_METHOD"><ellipse cx="92.18" cy="485.4209" fill="#A6A6A6" rx="3" ry="3" style="stroke:#545454;stroke-width:1;"/></g><text fill="#000000" font-family="sans-serif" font-size="14" lengthAdjust="spacing" textLength="468.2754" x="101.18" y="488.7676">findByCode(code: VesselVisitExecutionCode): VesselVisitExecution</text><g data-visibility-modifier="PUBLIC_METHOD"><ellipse cx="92.18" cy="501.7178" fill="#A6A6A6" rx="3" ry="3" style="stroke:#545454;stroke-width:1;"/></g><text fill="#000000" font-family="sans-serif" font-size="14" lengthAdjust="spacing" textLength="376.3184" x="101.18" y="505.0645">save(vve: VesselVisitExecution): VesselVisitExecution</text></g><!--class VesselVisitExecution--><g class="entity" data-qualified-name="VesselVisitExecution" data-source-line="23" id="ent0005"><rect fill="#F1F1F1" height="268.125" rx="2.5" ry="2.5" style="stroke:#181818;stroke-width:0.5;" width="249.3232" x="203.66" y="604.9569"/><ellipse cx="251.7953" cy="625.0897" fill="#C2C2C2" rx="11" ry="11" style="stroke:#181818;stroke-width:1;"/><path d="M254.764,630.7303 Q254.1859,631.0272 253.5453,631.1678 Q252.9046,631.3241 252.2015,631.3241 Q249.7015,631.3241 248.3734,629.6834 Q247.0609,628.0272 247.0609,624.9022 Q247.0609,621.7772 248.3734,620.1209 Q249.7015,618.4647 252.2015,618.4647 Q252.9046,618.4647 253.5453,618.6209 Q254.2015,618.7772 254.764,619.0741 L254.764,621.7928 Q254.139,621.2147 253.5453,620.9491 Q252.9515,620.6678 252.3265,620.6678 Q250.9828,620.6678 250.2953,621.7459 Q249.6078,622.8084 249.6078,624.9022 Q249.6078,626.9959 250.2953,628.0741 Q250.9828,629.1366 252.3265,629.1366 Q252.9515,629.1366 253.5453,628.8709 Q254.139,628.5897 254.764,628.0116 L254.764,630.7303 Z " fill="#000000"/><text fill="#000000" font-family="sans-serif" font-size="12" font-style="italic" lengthAdjust="spacing" textLength="105.2285" x="291.9574" y="621.0955">&#171;AggregateRoot&#187;</text><text fill="#000000" font-family="sans-serif" font-size="14" lengthAdjust="spacing" textLength="144.5527" x="272.2953" y="636.9207">VesselVisitExecution</text><line style="stroke:#181818;stroke-width:0.5;" x1="204.66" x2="451.9832" y1="645.2225" y2="645.2225"/><g data-visibility-modifier="PUBLIC_FIELD"><ellipse cx="214.66" cy="658.8709" fill="none" rx="3" ry="3" style="stroke:#545454;stroke-width:1;"/></g><text fill="#000000" font-family="sans-serif" font-size="14" lengthAdjust="spacing" textLength="179.5117" x="223.66" y="662.2176">id: VesselVisitExecutionId</text><g data-visibility-modifier="PUBLIC_FIELD"><ellipse cx="214.66" cy="675.1678" fill="none" rx="3" ry="3" style="stroke:#545454;stroke-width:1;"/></g><text fill="#000000" font-family="sans-serif" font-size="14" lengthAdjust="spacing" textLength="223.3232" x="223.66" y="678.5145">code: VesselVisitExecutionCode</text><g data-visibility-modifier="PUBLIC_FIELD"><ellipse cx="214.66" cy="691.4647" fill="none" rx="3" ry="3" style="stroke:#545454;stroke-width:1;"/></g><text fill="#000000" font-family="sans-serif" font-size="14" lengthAdjust="spacing" textLength="87.8145" x="223.66" y="694.8114">vvnId: string</text><g data-visibility-modifier="PUBLIC_FIELD"><ellipse cx="214.66" cy="707.7616" fill="none" rx="3" ry="3" style="stroke:#545454;stroke-width:1;"/></g><text fill="#000000" font-family="sans-serif" font-size="14" lengthAdjust="spacing" textLength="92.374" x="223.66" y="711.1082">status: string</text><g data-visibility-modifier="PUBLIC_FIELD"><ellipse cx="214.66" cy="724.0584" fill="none" rx="3" ry="3" style="stroke:#545454;stroke-width:1;"/></g><text fill="#000000" font-family="sans-serif" font-size="14" lengthAdjust="spacing" textLength="166.1611" x="223.66" y="727.4051">actualArrivalTime: Date</text><g data-visibility-modifier="PUBLIC_FIELD"><ellipse cx="214.66" cy="740.3553" fill="none" rx="3" ry="3" style="stroke:#545454;stroke-width:1;"/></g><text fill="#000000" font-family="sans-serif" font-size="14" lengthAdjust="spacing" textLength="177.8848" x="223.66" y="743.702">actualUnBerthTime: Date</text><g data-visibility-modifier="PUBLIC_FIELD"><ellipse cx="214.66" cy="756.6522" fill="none" rx="3" ry="3" style="stroke:#545454;stroke-width:1;"/></g><text fill="#000000" font-family="sans-serif" font-size="14" lengthAdjust="spacing" textLength="190.5723" x="223.66" y="759.9989">actualLeavePortTime: Date</text><g data-visibility-modifier="PUBLIC_FIELD"><ellipse cx="214.66" cy="772.9491" fill="none" rx="3" ry="3" style="stroke:#545454;stroke-width:1;"/></g><text fill="#000000" font-family="sans-serif" font-size="14" lengthAdjust="spacing" textLength="115.9102" x="223.66" y="776.2957">updatedAt: Date</text><text fill="#000000" font-family="sans-serif" font-size="14" lengthAdjust="spacing" textLength="182.335" x="223.66" y="792.5926">actualUnBerthTime: Date,</text><text fill="#000000" font-family="sans-serif" font-size="14" lengthAdjust="spacing" textLength="195.0225" x="223.66" y="808.8895">actualLeavePortTime: Date,</text><text fill="#000000" font-family="sans-serif" font-size="14" lengthAdjust="spacing" textLength="143.2813" x="223.66" y="825.1864">updaterEmail: string</text><line style="stroke:#181818;stroke-width:0.5;" x1="204.66" x2="451.9832" y1="832.4881" y2="832.4881"/><g data-visibility-modifier="PUBLIC_METHOD"><ellipse cx="214.66" cy="846.1366" fill="#A6A6A6" rx="3" ry="3" style="stroke:#545454;stroke-width:1;"/></g><text fill="#000000" font-family="sans-serif" font-size="14" lengthAdjust="spacing" textLength="103.2158" x="223.66" y="849.4832">setCompleted(</text><text fill="#000000" font-family="sans-serif" font-size="14" lengthAdjust="spacing" textLength="5.4619" x="223.66" y="865.7801">)</text></g><!--class ExecutedOperation--><g class="entity" data-qualified-name="ExecutedOperation" data-source-line="39" id="ent0006"><rect fill="#F1F1F1" height="154.0469" rx="2.5" ry="2.5" style="stroke:#181818;stroke-width:0.5;" width="214.6445" x="7" y="933.0769"/><ellipse cx="43.451" cy="953.2097" fill="#C2C2C2" rx="11" ry="11" style="stroke:#181818;stroke-width:1;"/><path d="M46.4198,958.8503 Q45.8417,959.1472 45.201,959.2878 Q44.5604,959.4441 43.8573,959.4441 Q41.3573,959.4441 40.0292,957.8034 Q38.7167,956.1472 38.7167,953.0222 Q38.7167,949.8972 40.0292,948.2409 Q41.3573,946.5847 43.8573,946.5847 Q44.5604,946.5847 45.201,946.7409 Q45.8573,946.8972 46.4198,947.1941 L46.4198,949.9128 Q45.7948,949.3347 45.201,949.0691 Q44.6073,948.7878 43.9823,948.7878 Q42.6385,948.7878 41.951,949.8659 Q41.2635,950.9284 41.2635,953.0222 Q41.2635,955.1159 41.951,956.1941 Q42.6385,957.2566 43.9823,957.2566 Q44.6073,957.2566 45.201,956.9909 Q45.7948,956.7097 46.4198,956.1316 L46.4198,958.8503 Z " fill="#000000"/><text fill="#000000" font-family="sans-serif" font-size="12" font-style="italic" lengthAdjust="spacing" textLength="49.7168" x="104.8473" y="949.2155">&#171;Entity&#187;</text><text fill="#000000" font-family="sans-serif" font-size="14" lengthAdjust="spacing" textLength="134.9756" x="62.2179" y="965.0407">ExecutedOperation</text><line style="stroke:#181818;stroke-width:0.5;" x1="8" x2="220.6445" y1="973.3425" y2="973.3425"/><g data-visibility-modifier="PUBLIC_FIELD"><ellipse cx="18" cy="986.9909" fill="none" rx="3" ry="3" style="stroke:#545454;stroke-width:1;"/></g><text fill="#000000" font-family="sans-serif" font-size="14" lengthAdjust="spacing" textLength="188.6445" x="27" y="990.3376">plannedOperationId: string</text><g data-visibility-modifier="PUBLIC_FIELD"><ellipse cx="18" cy="1003.2878" fill="none" rx="3" ry="3" style="stroke:#545454;stroke-width:1;"/></g><text fill="#000000" font-family="sans-serif" font-size="14" lengthAdjust="spacing" textLength="119.9365" x="27" y="1006.6345">actualStart: Date</text><g data-visibility-modifier="PUBLIC_FIELD"><ellipse cx="18" cy="1019.5847" fill="none" rx="3" ry="3" style="stroke:#545454;stroke-width:1;"/></g><text fill="#000000" font-family="sans-serif" font-size="14" lengthAdjust="spacing" textLength="112.3418" x="27" y="1022.9314">actualEnd: Date</text><g data-visibility-modifier="PUBLIC_FIELD"><ellipse cx="18" cy="1035.8816" fill="none" rx="3" ry="3" style="stroke:#545454;stroke-width:1;"/></g><text fill="#000000" font-family="sans-serif" font-size="14" lengthAdjust="spacing" textLength="92.374" x="27" y="1039.2282">status: string</text><g data-visibility-modifier="PUBLIC_FIELD"><ellipse cx="18" cy="1052.1784" fill="none" rx="3" ry="3" style="stroke:#545454;stroke-width:1;"/></g><text fill="#000000" font-family="sans-serif" font-size="14" lengthAdjust="spacing" textLength="125.46" x="27" y="1055.5251">updatedBy: string</text><g data-visibility-modifier="PUBLIC_FIELD"><ellipse cx="18" cy="1068.4753" fill="none" rx="3" ry="3" style="stroke:#545454;stroke-width:1;"/></g><text fill="#000000" font-family="sans-serif" font-size="14" lengthAdjust="spacing" textLength="115.9102" x="27" y="1071.822">updatedAt: Date</text><line style="stroke:#181818;stroke-width:0.5;" x1="8" x2="220.6445" y1="1079.1238" y2="1079.1238"/></g><!--class AuditEntry--><g class="entity" data-qualified-name="AuditEntry" data-source-line="48" id="ent0007"><rect fill="#F1F1F1" height="105.1563" rx="2.5" ry="2.5" style="stroke:#181818;stroke-width:0.5;" width="144.1455" x="256.25" y="957.5269"/><ellipse cx="284.0728" cy="977.6597" fill="#C2C2C2" rx="11" ry="11" style="stroke:#181818;stroke-width:1;"/><path d="M287.0416,983.3003 Q286.4634,983.5972 285.8228,983.7378 Q285.1822,983.8941 284.4791,983.8941 Q281.9791,983.8941 280.6509,982.2534 Q279.3384,980.5972 279.3384,977.4722 Q279.3384,974.3472 280.6509,972.6909 Q281.9791,971.0347 284.4791,971.0347 Q285.1822,971.0347 285.8228,971.1909 Q286.4791,971.3472 287.0416,971.6441 L287.0416,974.3628 Q286.4166,973.7847 285.8228,973.5191 Q285.2291,973.2378 284.6041,973.2378 Q283.2603,973.2378 282.5728,974.3159 Q281.8853,975.3784 281.8853,977.4722 Q281.8853,979.5659 282.5728,980.6441 Q283.2603,981.7066 284.6041,981.7066 Q285.2291,981.7066 285.8228,981.4409 Q286.4166,981.1597 287.0416,980.5816 L287.0416,983.3003 Z " fill="#000000"/><text fill="#000000" font-family="sans-serif" font-size="12" font-style="italic" lengthAdjust="spacing" textLength="87.6504" x="298.9223" y="973.6655">&#171;ValueObject&#187;</text><text fill="#000000" font-family="sans-serif" font-size="14" lengthAdjust="spacing" textLength="73.9648" x="305.7651" y="989.4907">AuditEntry</text><line style="stroke:#181818;stroke-width:0.5;" x1="257.25" x2="399.3955" y1="997.7925" y2="997.7925"/><g data-visibility-modifier="PUBLIC_FIELD"><ellipse cx="267.25" cy="1011.4409" fill="none" rx="3" ry="3" style="stroke:#545454;stroke-width:1;"/></g><text fill="#000000" font-family="sans-serif" font-size="14" lengthAdjust="spacing" textLength="118.1455" x="276.25" y="1014.7876">timestamp: Date</text><g data-visibility-modifier="PUBLIC_FIELD"><ellipse cx="267.25" cy="1027.7378" fill="none" rx="3" ry="3" style="stroke:#545454;stroke-width:1;"/></g><text fill="#000000" font-family="sans-serif" font-size="14" lengthAdjust="spacing" textLength="79.8916" x="276.25" y="1031.0845">user: string</text><g data-visibility-modifier="PUBLIC_FIELD"><ellipse cx="267.25" cy="1044.0347" fill="none" rx="3" ry="3" style="stroke:#545454;stroke-width:1;"/></g><text fill="#000000" font-family="sans-serif" font-size="14" lengthAdjust="spacing" textLength="92.4492" x="276.25" y="1047.3814">action: string</text><line style="stroke:#181818;stroke-width:0.5;" x1="257.25" x2="399.3955" y1="1054.6831" y2="1054.6831"/></g><!--class VesselVisitExecutionCode--><g class="entity" data-qualified-name="VesselVisitExecutionCode" data-source-line="54" id="ent0008"><rect fill="#F1F1F1" height="72.5625" rx="2.5" ry="2.5" style="stroke:#181818;stroke-width:0.5;" width="212.3936" x="435.13" y="973.8269"/><ellipse cx="450.13" cy="993.9597" fill="#C2C2C2" rx="11" ry="11" style="stroke:#181818;stroke-width:1;"/><path d="M453.0988,999.6003 Q452.5206,999.8972 451.88,1000.0378 Q451.2394,1000.1941 450.5363,1000.1941 Q448.0363,1000.1941 446.7081,998.5534 Q445.3956,996.8972 445.3956,993.7722 Q445.3956,990.6472 446.7081,988.9909 Q448.0363,987.3347 450.5363,987.3347 Q451.2394,987.3347 451.88,987.4909 Q452.5363,987.6472 453.0988,987.9441 L453.0988,990.6628 Q452.4738,990.0847 451.88,989.8191 Q451.2863,989.5378 450.6613,989.5378 Q449.3175,989.5378 448.63,990.6159 Q447.9425,991.6784 447.9425,993.7722 Q447.9425,995.8659 448.63,996.9441 Q449.3175,998.0066 450.6613,998.0066 Q451.2863,998.0066 451.88,997.7409 Q452.4738,997.4597 453.0988,996.8816 L453.0988,999.6003 Z " fill="#000000"/><text fill="#000000" font-family="sans-serif" font-size="12" font-style="italic" lengthAdjust="spacing" textLength="87.6504" x="510.5016" y="989.9655">&#171;ValueObject&#187;</text><text fill="#000000" font-family="sans-serif" font-size="14" lengthAdjust="spacing" textLength="180.3936" x="464.13" y="1005.7907">VesselVisitExecutionCode</text><line style="stroke:#181818;stroke-width:0.5;" x1="436.13" x2="646.5236" y1="1014.0925" y2="1014.0925"/><g data-visibility-modifier="PUBLIC_FIELD"><ellipse cx="446.13" cy="1027.7409" fill="none" rx="3" ry="3" style="stroke:#545454;stroke-width:1;"/></g><text fill="#000000" font-family="sans-serif" font-size="14" lengthAdjust="spacing" textLength="87.5957" x="455.13" y="1031.0876">value: string</text><line style="stroke:#181818;stroke-width:0.5;" x1="436.13" x2="646.5236" y1="1038.3894" y2="1038.3894"/></g><!--class VesselVisitExecutionDTO--><g class="entity" data-qualified-name="VesselVisitExecutionDTO" data-source-line="58" id="ent0009"><rect fill="#F1F1F1" height="154.0469" rx="2.5" ry="2.5" style="stroke:#181818;stroke-width:0.5;" width="223.2988" x="610.67" y="390.9069"/><ellipse cx="633.0475" cy="411.0397" fill="#C2C2C2" rx="11" ry="11" style="stroke:#181818;stroke-width:1;"/><path d="M636.0163,416.6803 Q635.4382,416.9772 634.7975,417.1178 Q634.1569,417.2741 633.4538,417.2741 Q630.9538,417.2741 629.6257,415.6334 Q628.3132,413.9772 628.3132,410.8522 Q628.3132,407.7272 629.6257,406.0709 Q630.9538,404.4147 633.4538,404.4147 Q634.1569,404.4147 634.7975,404.5709 Q635.4538,404.7272 636.0163,405.0241 L636.0163,407.7428 Q635.3913,407.1647 634.7975,406.8991 Q634.2038,406.6178 633.5788,406.6178 Q632.235,406.6178 631.5475,407.6959 Q630.86,408.7584 630.86,410.8522 Q630.86,412.9459 631.5475,414.0241 Q632.235,415.0866 633.5788,415.0866 Q634.2038,415.0866 634.7975,414.8209 Q635.3913,414.5397 636.0163,413.9616 L636.0163,416.6803 Z " fill="#000000"/><text fill="#000000" font-family="sans-serif" font-size="12" font-style="italic" lengthAdjust="spacing" textLength="40.6992" x="715.7895" y="407.0455">&#171;DTO&#187;</text><text fill="#000000" font-family="sans-serif" font-size="14" lengthAdjust="spacing" textLength="174.9043" x="648.687" y="422.8707">VesselVisitExecutionDTO</text><line style="stroke:#181818;stroke-width:0.5;" x1="611.67" x2="832.9688" y1="431.1725" y2="431.1725"/><g data-visibility-modifier="PUBLIC_FIELD"><ellipse cx="621.67" cy="444.8209" fill="none" rx="3" ry="3" style="stroke:#545454;stroke-width:1;"/></g><text fill="#000000" font-family="sans-serif" font-size="14" lengthAdjust="spacing" textLength="62.1318" x="630.67" y="448.1676">id: string</text><g data-visibility-modifier="PUBLIC_FIELD"><ellipse cx="621.67" cy="461.1178" fill="none" rx="3" ry="3" style="stroke:#545454;stroke-width:1;"/></g><text fill="#000000" font-family="sans-serif" font-size="14" lengthAdjust="spacing" textLength="83.1182" x="630.67" y="464.4645">code: string</text><g data-visibility-modifier="PUBLIC_FIELD"><ellipse cx="621.67" cy="477.4147" fill="none" rx="3" ry="3" style="stroke:#545454;stroke-width:1;"/></g><text fill="#000000" font-family="sans-serif" font-size="14" lengthAdjust="spacing" textLength="92.374" x="630.67" y="480.7614">status: string</text><g data-visibility-modifier="PUBLIC_FIELD"><ellipse cx="621.67" cy="493.7116" fill="none" rx="3" ry="3" style="stroke:#545454;stroke-width:1;"/></g><text fill="#000000" font-family="sans-serif" font-size="14" lengthAdjust="spacing" textLength="184.6113" x="630.67" y="497.0582">actualUnBerthTime: string</text><g data-visibility-modifier="PUBLIC_FIELD"><ellipse cx="621.67" cy="510.0084" fill="none" rx="3" ry="3" style="stroke:#545454;stroke-width:1;"/></g><text fill="#000000" font-family="sans-serif" font-size="14" lengthAdjust="spacing" textLength="197.2988" x="630.67" y="513.3551">actualLeavePortTime: string</text><g data-visibility-modifier="PUBLIC_FIELD"><ellipse cx="621.67" cy="526.3053" fill="none" rx="3" ry="3" style="stroke:#545454;stroke-width:1;"/></g><text fill="#000000" font-family="sans-serif" font-size="14" lengthAdjust="spacing" textLength="122.6367" x="630.67" y="529.652">updatedAt: string</text><line style="stroke:#181818;stroke-width:0.5;" x1="611.67" x2="832.9688" y1="536.9537" y2="536.9537"/></g><!--link UpdateVVEToCompletedController to VesselVisitExecutionService--><g class="link" data-entity-1="ent0002" data-entity-2="ent0003" data-link-type="dependency" data-source-line="67" id="lnk10"><path codeLine="67" d="M525.32,117.0769 C525.32,134.3269 525.32,149.7569 525.32,170.4669" fill="none" id="UpdateVVEToCompletedController-to-VesselVisitExecutionService" style="stroke:#181818;stroke-width:1;"/><polygon fill="#181818" points="525.32,176.4669,529.32,167.4669,525.32,171.4669,521.32,167.4669,525.32,176.4669" style="stroke:#181818;stroke-width:1;"/></g><!--link VesselVisitExecutionService to VesselVisitExecutionRepo--><g class="link" data-entity-1="ent0003" data-entity-2="ent0004" data-link-type="dependency" data-source-line="68" id="lnk11"><path codeLine="68" d="M454.48,331.1369 C425.8,362.0069 397.7939,392.1512 373.1639,418.6612" fill="none" id="VesselVisitExecutionService-to-VesselVisitExecutionRepo" style="stroke:#181818;stroke-width:1;"/><polygon fill="#181818" points="369.08,423.0569,378.1363,419.186,372.4833,419.3938,372.2754,413.7408,369.08,423.0569" style="stroke:#181818;stroke-width:1;"/></g><!--link VesselVisitExecutionRepo to VesselVisitExecution--><g class="link" data-entity-1="ent0004" data-entity-2="ent0005" data-link-type="dependency" data-source-line="70" id="lnk12"><path codeLine="70" d="M328.32,512.7669 C328.32,538.0769 328.32,565.4169 328.32,598.6569" fill="none" id="VesselVisitExecutionRepo-to-VesselVisitExecution" style="stroke:#181818;stroke-width:1;"/><polygon fill="#181818" points="328.32,604.6569,332.32,595.6569,328.32,599.6569,324.32,595.6569,328.32,604.6569" style="stroke:#181818;stroke-width:1;"/></g><!--link VesselVisitExecution to VesselVisitExecutionCode--><g class="link" data-entity-1="ent0005" data-entity-2="ent0008" data-link-type="dependency" data-source-line="71" id="lnk13"><path codeLine="71" d="M433.89,873.3769 C463.18,910.3769 488.8352,942.803 509.4552,968.843" fill="none" id="VesselVisitExecution-to-VesselVisitExecutionCode" style="stroke:#181818;stroke-width:1;"/><polygon fill="#181818" points="513.18,973.5469,510.7287,964.0079,510.076,969.627,504.457,968.9743,513.18,973.5469" style="stroke:#181818;stroke-width:1;"/></g><!--reverse link VesselVisitExecution to ExecutedOperation--><g class="link" data-entity-1="ent0005" data-entity-2="ent0006" data-link-type="composition" data-source-line="73" id="lnk14"><path codeLine="73" d="M214.7918,882.7698 C198.6118,903.1198 189.86,914.1169 175.1,932.6769" fill="none" id="VesselVisitExecution-backto-ExecutedOperation" style="stroke:#181818;stroke-width:1;"/><polygon fill="#181818" points="222.26,873.3769,215.395,875.5839,214.7918,882.7698,221.6569,880.5627,222.26,873.3769" style="stroke:#181818;stroke-width:1;"/><text fill="#000000" font-family="sans-serif" font-size="13" lengthAdjust="spacing" textLength="8.271" x="208.2484" y="893.2052">1</text><text fill="#000000" font-family="sans-serif" font-size="13" lengthAdjust="spacing" textLength="23.0356" x="156.6444" y="921.921">0..*</text></g><!--reverse link VesselVisitExecution to AuditEntry--><g class="link" data-entity-1="ent0005" data-entity-2="ent0007" data-link-type="composition" data-source-line="74" id="lnk15"><path codeLine="74" d="M328.32,885.3769 C328.32,915.2469 328.32,933.1869 328.32,957.3269" fill="none" id="VesselVisitExecution-backto-AuditEntry" style="stroke:#181818;stroke-width:1;"/><polygon fill="#181818" points="328.32,873.3769,324.32,879.3769,328.32,885.3769,332.32,879.3769,328.32,873.3769" style="stroke:#181818;stroke-width:1;"/><text fill="#000000" font-family="sans-serif" font-size="13" lengthAdjust="spacing" textLength="8.271" x="320.1086" y="893.2052">1</text><text fill="#000000" font-family="sans-serif" font-size="13" lengthAdjust="spacing" textLength="23.0356" x="303.7767" y="946.3028">0..*</text></g><!--link VesselVisitExecutionService to VesselVisitExecutionDTO--><g class="link" data-entity-1="ent0003" data-entity-2="ent0009" data-link-type="dependency" data-source-line="76" id="lnk16"><path codeLine="76" d="M596.17,331.1369 C614.15,350.4969 629.3746,366.8926 647.3646,386.2426" fill="none" id="VesselVisitExecutionService-to-VesselVisitExecutionDTO" style="stroke:#181818;stroke-width:1;"/><polygon fill="#181818" points="651.45,390.6369,648.2514,381.3219,648.0455,386.975,642.3924,386.7691,651.45,390.6369" style="stroke:#181818;stroke-width:1;"/></g><!--SRC=[jLJRZjem47tFLunuWbr0HUeJGaXSKhLILIfkxzva5jmwTjQUf8kg_dljP7DPIBAhIdq1PIxsEMUEn_paCcQQHH0fgOApLX42wGGzKsRCcONg5vSdU6J2e4US1C9AC6DWpTd9rOpWiFiudemd4rYfA1P824Sq1WKSkU44_ZC62N4bFI_8EWzno0YFHt-lYevmfIHf9GHgcCsgZ_aSVdi0zvYTWNsDJrFOubE2XeQWqRWl4ojfS0WIdsaAt-plfqG6xiR153uJnKM9zwU0a0FCy9NmTgXJ7g2zVn77WWUi5Ynm6AGIyi9SPD2tKO10XJXjF7HbCyEiXWMKC76GIzHqtlF8Dgoj3FNaLsGfVbUQhjD9ffZs8yR550nfEnAR66Ji4q6pfglN-ysyc_4MOsNfkZyRLlfIq7paCbnU7FP-DxL1SogJodBffsbBSrjZ9rutcjD9uycAiLMA2hWyR3xjI-YotGnSHPhQqfgkzuOO9QOUoGUqq9gdJ5JZgL8tWwrI3MDroNoeuOAgKDrU_V_ccahaN0aCDp5gzgAmB-qhBvqG2oPbhU2rJZc07J5DrwHz6TPutUZvGdvvQGYMYfGu5qbensQNmiK2F3AHuERX1mQb0SWojtT4SKrTW_eAgeLVHZfzvdpHV57gGkyxn3u_UuPxX3MNLdXoLxvjkLUZlqvUZRvHoGhh6tjtD9ftxKMlQsUszRhLudcjkwUjhR6ZjJfxniqjlKaFxaOZw7qOZ-zwjtv_LrVbFk-VHB0U-0i0]--></g></svg>