<svg xmlns="http://www.w3.org/2000/svg" xmlns:xlink="http://www.w3.org/1999/xlink" contentStyleType="text/css" data-diagram-type="SEQUENCE" height="994px" preserveAspectRatio="none" style="width:1659px;height:994px;background:#FFFFFF;" version="1.1" viewBox="0 0 1659 994" width="1659px" zoomAndPan="magnify"><title>Sequence Diagram - Complete Vessel Visit Execution (US4.1.11)</title><defs/><g><text fill="#000000" font-family="sans-serif" font-size="14" font-weight="bold" lengthAdjust="spacing" textLength="506.5908" x="572.6812" y="27.9951">Sequence Diagram - Complete Vessel Visit Execution (US4.1.11)</text><rect fill="none" height="602.8125" style="stroke:#000000;stroke-width:1.5;" width="1451.0024" x="191.9507" y="294.2578"/><rect fill="none" height="425.2109" style="stroke:#000000;stroke-width:1.5;" width="1431.0024" x="201.9507" y="464.8594"/><rect fill="none" height="276.7422" style="stroke:#000000;stroke-width:1.5;" width="1411.0024" x="211.9507" y="606.3281"/><g class="participant-lifeline" data-entity-uid="part1" data-qualified-name="Operator" id="part1-lifeline"><g><title>Logistics Operator</title><rect fill="#000000" fill-opacity="0.00000" height="795.4766" width="8" x="67.9604" y="118.5938"/><line style="stroke:#181818;stroke-width:0.5;stroke-dasharray:5,5;" x1="71" x2="71" y1="118.5938" y2="914.0703"/></g></g><g class="participant-lifeline" data-entity-uid="part2" data-qualified-name="SPA" id="part2-lifeline"><g><title>SPA</title><rect fill="#000000" fill-opacity="0.00000" height="795.4766" width="8" x="242.4507" y="118.5938"/><line style="stroke:#181818;stroke-width:0.5;stroke-dasharray:5,5;" x1="245.9507" x2="245.9507" y1="118.5938" y2="914.0703"/></g></g><g class="participant-lifeline" data-entity-uid="part3" data-qualified-name="Ctrl" id="part3-lifeline"><g><title>UpdateVVEToCompletedController</title><rect fill="#000000" fill-opacity="0.00000" height="795.4766" width="8" x="643.311" y="118.5938"/><line style="stroke:#181818;stroke-width:0.5;stroke-dasharray:5,5;" x1="646.6362" x2="646.6362" y1="118.5938" y2="914.0703"/></g></g><g class="participant-lifeline" data-entity-uid="part4" data-qualified-name="App" id="part4-lifeline"><g><title>VesselVisitExecutionService</title><rect fill="#000000" fill-opacity="0.00000" height="795.4766" width="8" x="1127.6748" y="118.5938"/><line style="stroke:#181818;stroke-width:0.5;stroke-dasharray:5,5;" x1="1131.5278" x2="1131.5278" y1="118.5938" y2="914.0703"/></g></g><g class="participant-lifeline" data-entity-uid="part5" data-qualified-name="Repo" id="part5-lifeline"><g><title>VesselVisitExecutionRepo</title><rect fill="#000000" fill-opacity="0.00000" height="795.4766" width="8" x="1331.9946" y="118.5938"/><line style="stroke:#181818;stroke-width:0.5;stroke-dasharray:5,5;" x1="1335.8218" x2="1335.8218" y1="118.5938" y2="914.0703"/></g></g><g class="participant-lifeline" data-entity-uid="part6" data-qualified-name="VVE" id="part6-lifeline"><g><title>VesselVisitExecution</title><rect fill="#000000" fill-opacity="0.00000" height="795.4766" width="8" x="1533.6768" y="118.5938"/><line style="stroke:#181818;stroke-width:0.5;stroke-dasharray:5,5;" x1="1537.4004" x2="1537.4004" y1="118.5938" y2="914.0703"/></g></g><g class="participant participant-head" data-entity-uid="part1" data-qualified-name="Operator" id="part1-head"><text fill="#000000" font-family="sans-serif" font-size="14" lengthAdjust="spacing" textLength="127.9209" x="5" y="115.292">Logistics Operator</text><ellipse cx="71.9604" cy="50.7969" fill="#E3E3E3" rx="8" ry="8" style="stroke:#181818;stroke-width:0.5;"/><path d="M71.9604,58.7969 L71.9604,85.7969 M58.9604,66.7969 L84.9604,66.7969 M71.9604,85.7969 L58.9604,100.7969 M71.9604,85.7969 L84.9604,100.7969" fill="none" style="stroke:#181818;stroke-width:0.5;"/></g><g class="participant participant-tail" data-entity-uid="part1" data-qualified-name="Operator" id="part1-tail"><text fill="#000000" font-family="sans-serif" font-size="14" lengthAdjust="spacing" textLength="127.9209" x="5" y="926.0654">Logistics Operator</text><ellipse cx="71.9604" cy="937.8672" fill="#E3E3E3" rx="8" ry="8" style="stroke:#181818;stroke-width:0.5;"/><path d="M71.9604,945.8672 L71.9604,972.8672 M58.9604,953.8672 L84.9604,953.8672 M71.9604,972.8672 L58.9604,987.8672 M71.9604,972.8672 L84.9604,987.8672" fill="none" style="stroke:#181818;stroke-width:0.5;"/></g><g class="participant participant-head" data-entity-uid="part2" data-qualified-name="SPA" id="part2-head"><text fill="#000000" font-family="sans-serif" font-size="14" lengthAdjust="spacing" textLength="26.9063" x="229.9976" y="115.292">SPA</text><path d="M225.9507,74.2969 L225.9507,98.2969 M225.9507,86.2969 L242.9507,86.2969" fill="none" style="stroke:#181818;stroke-width:0.5;"/><ellipse cx="254.9507" cy="86.2969" fill="#E3E3E3" rx="12" ry="12" style="stroke:#181818;stroke-width:0.5;"/></g><g class="participant participant-tail" data-entity-uid="part2" data-qualified-name="SPA" id="part2-tail"><text fill="#000000" font-family="sans-serif" font-size="14" lengthAdjust="spacing" textLength="26.9063" x="229.9976" y="926.0654">SPA</text><path d="M225.9507,933.3672 L225.9507,957.3672 M225.9507,945.3672 L242.9507,945.3672" fill="none" style="stroke:#181818;stroke-width:0.5;"/><ellipse cx="254.9507" cy="945.3672" fill="#E3E3E3" rx="12" ry="12" style="stroke:#181818;stroke-width:0.5;"/></g><g class="participant participant-head" data-entity-uid="part3" data-qualified-name="Ctrl" id="part3-head"><text fill="#000000" font-family="sans-serif" font-size="14" lengthAdjust="spacing" textLength="241.3496" x="523.6362" y="115.292">UpdateVVEToCompletedController</text><ellipse cx="647.311" cy="86.2969" fill="#E3E3E3" rx="12" ry="12" style="stroke:#181818;stroke-width:0.5;"/><polygon fill="#181818" points="643.311,74.2969,649.311,69.2969,647.311,74.2969,649.311,79.2969,643.311,74.2969" style="stroke:#181818;stroke-width:1;"/></g><g class="participant participant-tail" data-entity-uid="part3" data-qualified-name="Ctrl" id="part3-tail"><text fill="#000000" font-family="sans-serif" font-size="14" lengthAdjust="spacing" textLength="241.3496" x="523.6362" y="926.0654">UpdateVVEToCompletedController</text><ellipse cx="647.311" cy="945.3672" fill="#E3E3E3" rx="12" ry="12" style="stroke:#181818;stroke-width:0.5;"/><polygon fill="#181818" points="643.311,933.3672,649.311,928.3672,647.311,933.3672,649.311,938.3672,643.311,933.3672" style="stroke:#181818;stroke-width:1;"/></g><g class="participant participant-head" data-entity-uid="part4" data-qualified-name="App" id="part4-head"><text fill="#000000" font-family="sans-serif" font-size="14" lengthAdjust="spacing" textLength="196.2939" x="1030.5278" y="115.292">VesselVisitExecutionService</text><ellipse cx="1131.6748" cy="86.2969" fill="#E3E3E3" rx="12" ry="12" style="stroke:#181818;stroke-width:0.5;"/><polygon fill="#181818" points="1127.6748,74.2969,1133.6748,69.2969,1131.6748,74.2969,1133.6748,79.2969,1127.6748,74.2969" style="stroke:#181818;stroke-width:1;"/></g><g class="participant participant-tail" data-entity-uid="part4" data-qualified-name="App" id="part4-tail"><text fill="#000000" font-family="sans-serif" font-size="14" lengthAdjust="spacing" textLength="196.2939" x="1030.5278" y="926.0654">VesselVisitExecutionService</text><ellipse cx="1131.6748" cy="945.3672" fill="#E3E3E3" rx="12" ry="12" style="stroke:#181818;stroke-width:0.5;"/><polygon fill="#181818" points="1127.6748,933.3672,1133.6748,928.3672,1131.6748,933.3672,1133.6748,938.3672,1127.6748,933.3672" style="stroke:#181818;stroke-width:1;"/></g><g class="participant participant-head" data-entity-uid="part5" data-qualified-name="Repo" id="part5-head"><text fill="#000000" font-family="sans-serif" font-size="14" lengthAdjust="spacing" textLength="180.3457" x="1242.8218" y="115.292">VesselVisitExecutionRepo</text><ellipse cx="1335.9946" cy="86.2969" fill="#E3E3E3" rx="12" ry="12" style="stroke:#181818;stroke-width:0.5;"/><line style="stroke:#181818;stroke-width:0.5;" x1="1323.9946" x2="1347.9946" y1="100.2969" y2="100.2969"/></g><g class="participant participant-tail" data-entity-uid="part5" data-qualified-name="Repo" id="part5-tail"><text fill="#000000" font-family="sans-serif" font-size="14" lengthAdjust="spacing" textLength="180.3457" x="1242.8218" y="926.0654">VesselVisitExecutionRepo</text><ellipse cx="1335.9946" cy="945.3672" fill="#E3E3E3" rx="12" ry="12" style="stroke:#181818;stroke-width:0.5;"/><line style="stroke:#181818;stroke-width:0.5;" x1="1323.9946" x2="1347.9946" y1="959.3672" y2="959.3672"/></g><g class="participant participant-head" data-entity-uid="part6" data-qualified-name="VVE" id="part6-head"><text fill="#000000" font-family="sans-serif" font-size="14" lengthAdjust="spacing" textLength="144.5527" x="1462.4004" y="115.292">VesselVisitExecution</text><ellipse cx="1537.6768" cy="86.2969" fill="#E3E3E3" rx="12" ry="12" style="stroke:#181818;stroke-width:0.5;"/><line style="stroke:#181818;stroke-width:0.5;" x1="1525.6768" x2="1549.6768" y1="100.2969" y2="100.2969"/></g><g class="participant participant-tail" data-entity-uid="part6" data-qualified-name="VVE" id="part6-tail"><text fill="#000000" font-family="sans-serif" font-size="14" lengthAdjust="spacing" textLength="144.5527" x="1462.4004" y="926.0654">VesselVisitExecution</text><ellipse cx="1537.6768" cy="945.3672" fill="#E3E3E3" rx="12" ry="12" style="stroke:#181818;stroke-width:0.5;"/><line style="stroke:#181818;stroke-width:0.5;" x1="1525.6768" x2="1549.6768" y1="959.3672" y2="959.3672"/></g><rect fill="#EEEEEE" height="3" style="stroke:#EEEEEE;stroke-width:1;" width="1652.9531" x="0" y="149.1602"/><line style="stroke:#000000;stroke-width:1;" x1="0" x2="1652.9531" y1="149.1602" y2="149.1602"/><line style="stroke:#000000;stroke-width:1;" x1="0" x2="1652.9531" y1="152.1602" y2="152.1602"/><rect fill="#EEEEEE" height="23.1328" style="stroke:#000000;stroke-width:2;" width="254.1826" x="699.3853" y="138.5938"/><text fill="#000000" font-family="sans-serif" font-size="13" font-weight="bold" lengthAdjust="spacing" textLength="235.6567" x="705.3853" y="154.6606">Complete Vessel Visit Execution</text><g class="message" data-entity-1="part1" data-entity-2="part2" id="msg1"><polygon fill="#181818" points="234.4507,188.8594,244.4507,192.8594,234.4507,196.8594,238.4507,192.8594" style="stroke:#181818;stroke-width:1;"/><line style="stroke:#181818;stroke-width:1;" x1="71.9604" x2="240.4507" y1="192.8594" y2="192.8594"/><text fill="#000000" font-family="sans-serif" font-size="13" lengthAdjust="spacing" textLength="150.4902" x="78.9604" y="187.7935">Select &#8220;Complete VVE&#8221;</text></g><g class="message" data-entity-1="part2" data-entity-2="part3" id="msg2"><polygon fill="#181818" points="635.311,233.125,645.311,237.125,635.311,241.125,639.311,237.125" style="stroke:#181818;stroke-width:1;"/><line style="stroke:#181818;stroke-width:1;" x1="246.4507" x2="641.311" y1="237.125" y2="237.125"/><text fill="#000000" font-family="sans-serif" font-size="13" lengthAdjust="spacing" textLength="198.7769" x="253.4507" y="216.9263">PUT /api/vve/{code}/complete</text><text fill="#000000" font-family="sans-serif" font-size="13" lengthAdjust="spacing" textLength="376.8604" x="253.4507" y="232.0591">(actualUnBerthTime, actualLeavePortTime, updaterEmail)</text></g><g class="message" data-entity-1="part3" data-entity-2="part3" id="msg3"><line style="stroke:#181818;stroke-width:1;" x1="647.311" x2="689.311" y1="266.2578" y2="266.2578"/><line style="stroke:#181818;stroke-width:1;" x1="689.311" x2="689.311" y1="266.2578" y2="279.2578"/><line style="stroke:#181818;stroke-width:1;" x1="648.311" x2="689.311" y1="279.2578" y2="279.2578"/><polygon fill="#181818" points="658.311,275.2578,648.311,279.2578,658.311,283.2578,654.311,279.2578" style="stroke:#181818;stroke-width:1;"/><text fill="#000000" font-family="sans-serif" font-size="13" lengthAdjust="spacing" textLength="260.4189" x="654.311" y="261.1919">validate request body (presence, types)</text></g><path d="M191.9507,294.2578 L256.3936,294.2578 L256.3936,301.3906 L246.3936,311.3906 L191.9507,311.3906 L191.9507,294.2578" fill="#EEEEEE" style="stroke:#000000;stroke-width:1.5;"/><rect fill="none" height="602.8125" style="stroke:#000000;stroke-width:1.5;" width="1451.0024" x="191.9507" y="294.2578"/><text fill="#000000" font-family="sans-serif" font-size="13" font-weight="bold" lengthAdjust="spacing" textLength="19.4429" x="206.9507" y="307.3247">alt</text><text fill="#000000" font-family="sans-serif" font-size="11" font-weight="bold" lengthAdjust="spacing" textLength="173.8569" x="271.3936" y="306.4683">[Invalid request (syntactic)]</text><g class="message" data-entity-1="part3" data-entity-2="part2" id="msg4"><polygon fill="#181818" points="257.4507,343.6563,247.4507,347.6563,257.4507,351.6563,253.4507,347.6563" style="stroke:#181818;stroke-width:1;"/><line style="stroke:#181818;stroke-width:1;stroke-dasharray:2,2;" x1="251.4507" x2="646.311" y1="347.6563" y2="347.6563"/><text fill="#000000" font-family="sans-serif" font-size="13" lengthAdjust="spacing" textLength="111.6045" x="263.4507" y="327.4575">400 Bad Request</text><text fill="#000000" font-family="sans-serif" font-size="13" lengthAdjust="spacing" textLength="177.0107" x="263.4507" y="342.5903">ProblemDetails (validation)</text></g><line style="stroke:#000000;stroke-width:1;stroke-dasharray:2,2;" x1="191.9507" x2="1642.9531" y1="356.6563" y2="356.6563"/><text fill="#000000" font-family="sans-serif" font-size="11" font-weight="bold" lengthAdjust="spacing" textLength="93.0918" x="196.9507" y="366.8667">[Valid request]</text><g class="message" data-entity-1="part3" data-entity-2="part4" id="msg5"><polygon fill="#181818" points="1119.6748,387.5938,1129.6748,391.5938,1119.6748,395.5938,1123.6748,391.5938" style="stroke:#181818;stroke-width:1;"/><line style="stroke:#181818;stroke-width:1;" x1="647.311" x2="1125.6748" y1="391.5938" y2="391.5938"/><text fill="#000000" font-family="sans-serif" font-size="13" lengthAdjust="spacing" textLength="460.3638" x="654.311" y="386.5278">setCompletedAsync(code, unberthTime, leavePortTime, updaterEmail)</text></g><g class="message" data-entity-1="part4" data-entity-2="part5" id="msg6"><polygon fill="#181818" points="1323.9946,416.7266,1333.9946,420.7266,1323.9946,424.7266,1327.9946,420.7266" style="stroke:#181818;stroke-width:1;"/><line style="stroke:#181818;stroke-width:1;" x1="1131.6748" x2="1329.9946" y1="420.7266" y2="420.7266"/><text fill="#000000" font-family="sans-serif" font-size="13" lengthAdjust="spacing" textLength="116.0669" x="1138.6748" y="415.6606">findByCode(code)</text></g><g class="message" data-entity-1="part5" data-entity-2="part4" id="msg7"><polygon fill="#181818" points="1142.6748,445.8594,1132.6748,449.8594,1142.6748,453.8594,1138.6748,449.8594" style="stroke:#181818;stroke-width:1;"/><line style="stroke:#181818;stroke-width:1;stroke-dasharray:2,2;" x1="1136.6748" x2="1334.9946" y1="449.8594" y2="449.8594"/><text fill="#000000" font-family="sans-serif" font-size="13" lengthAdjust="spacing" textLength="134.2275" x="1148.6748" y="444.7935">VesselVisitExecution</text></g><path d="M201.9507,464.8594 L266.3936,464.8594 L266.3936,471.9922 L256.3936,481.9922 L201.9507,481.9922 L201.9507,464.8594" fill="#EEEEEE" style="stroke:#000000;stroke-width:1.5;"/><rect fill="none" height="425.2109" style="stroke:#000000;stroke-width:1.5;" width="1431.0024" x="201.9507" y="464.8594"/><text fill="#000000" font-family="sans-serif" font-size="13" font-weight="bold" lengthAdjust="spacing" textLength="19.4429" x="216.9507" y="477.9263">alt</text><text fill="#000000" font-family="sans-serif" font-size="11" font-weight="bold" lengthAdjust="spacing" textLength="98.7798" x="281.3936" y="477.0698">[VVE not found]</text><g class="message" data-entity-1="part4" data-entity-2="part3" id="msg8"><polygon fill="#181818" points="658.311,499.125,648.311,503.125,658.311,507.125,654.311,503.125" style="stroke:#181818;stroke-width:1;"/><line style="stroke:#181818;stroke-width:1;stroke-dasharray:2,2;" x1="652.311" x2="1130.6748" y1="503.125" y2="503.125"/><text fill="#000000" font-family="sans-serif" font-size="13" lengthAdjust="spacing" textLength="137.7314" x="664.311" y="498.0591">Result.fail(NotFound)</text></g><g class="message" data-entity-1="part3" data-entity-2="part2" id="msg9"><polygon fill="#181818" points="257.4507,543.3906,247.4507,547.3906,257.4507,551.3906,253.4507,547.3906" style="stroke:#181818;stroke-width:1;"/><line style="stroke:#181818;stroke-width:1;stroke-dasharray:2,2;" x1="251.4507" x2="646.311" y1="547.3906" y2="547.3906"/><text fill="#000000" font-family="sans-serif" font-size="13" lengthAdjust="spacing" textLength="111.6045" x="263.4507" y="527.1919">400 Bad Request</text><text fill="#000000" font-family="sans-serif" font-size="13" lengthAdjust="spacing" textLength="98.7314" x="263.4507" y="542.3247">ProblemDetails</text></g><line style="stroke:#000000;stroke-width:1;stroke-dasharray:2,2;" x1="201.9507" x2="1632.9531" y1="556.3906" y2="556.3906"/><text fill="#000000" font-family="sans-serif" font-size="11" font-weight="bold" lengthAdjust="spacing" textLength="74.3037" x="206.9507" y="566.6011">[VVE found]</text><g class="message" data-entity-1="part4" data-entity-2="part6" id="msg10"><polygon fill="#181818" points="1525.6768,587.3281,1535.6768,591.3281,1525.6768,595.3281,1529.6768,591.3281" style="stroke:#181818;stroke-width:1;"/><line style="stroke:#181818;stroke-width:1;" x1="1131.6748" x2="1531.6768" y1="591.3281" y2="591.3281"/><text fill="#000000" font-family="sans-serif" font-size="13" lengthAdjust="spacing" textLength="382.002" x="1138.6748" y="586.2622">setCompleted(unberthTime, leavePortTime, updaterEmail)</text></g><path d="M211.9507,606.3281 L276.3936,606.3281 L276.3936,613.4609 L266.3936,623.4609 L211.9507,623.4609 L211.9507,606.3281" fill="#EEEEEE" style="stroke:#000000;stroke-width:1.5;"/><rect fill="none" height="276.7422" style="stroke:#000000;stroke-width:1.5;" width="1411.0024" x="211.9507" y="606.3281"/><text fill="#000000" font-family="sans-serif" font-size="13" font-weight="bold" lengthAdjust="spacing" textLength="19.4429" x="226.9507" y="619.395">alt</text><text fill="#000000" font-family="sans-serif" font-size="11" font-weight="bold" lengthAdjust="spacing" textLength="146.2012" x="291.3936" y="618.5386">[Business rule violation</text><text fill="#000000" font-family="sans-serif" font-size="11" font-weight="bold" lengthAdjust="spacing" textLength="285.7368" x="291.3936" y="631.3433">(not all operations completed / invalid times)]</text><g class="message" data-entity-1="part6" data-entity-2="part4" id="msg11"><polygon fill="#181818" points="1142.6748,651.2031,1132.6748,655.2031,1142.6748,659.2031,1138.6748,655.2031" style="stroke:#181818;stroke-width:1;"/><line style="stroke:#181818;stroke-width:1;stroke-dasharray:2,2;" x1="1136.6748" x2="1536.6768" y1="655.2031" y2="655.2031"/><text fill="#000000" font-family="sans-serif" font-size="13" lengthAdjust="spacing" textLength="130.8188" x="1148.6748" y="650.1372">throws DomainError</text></g><g class="message" data-entity-1="part4" data-entity-2="part3" id="msg12"><polygon fill="#181818" points="658.311,680.3359,648.311,684.3359,658.311,688.3359,654.311,684.3359" style="stroke:#181818;stroke-width:1;"/><line style="stroke:#181818;stroke-width:1;stroke-dasharray:2,2;" x1="652.311" x2="1130.6748" y1="684.3359" y2="684.3359"/><text fill="#000000" font-family="sans-serif" font-size="13" lengthAdjust="spacing" textLength="193.2036" x="664.311" y="679.27">Result.fail(BusinessRuleError)</text></g><g class="message" data-entity-1="part3" data-entity-2="part2" id="msg13"><polygon fill="#181818" points="257.4507,724.6016,247.4507,728.6016,257.4507,732.6016,253.4507,728.6016" style="stroke:#181818;stroke-width:1;"/><line style="stroke:#181818;stroke-width:1;stroke-dasharray:2,2;" x1="251.4507" x2="646.311" y1="728.6016" y2="728.6016"/><text fill="#000000" font-family="sans-serif" font-size="13" lengthAdjust="spacing" textLength="111.6045" x="263.4507" y="708.4028">400 Bad Request</text><text fill="#000000" font-family="sans-serif" font-size="13" lengthAdjust="spacing" textLength="98.7314" x="263.4507" y="723.5356">ProblemDetails</text></g><line style="stroke:#000000;stroke-width:1;stroke-dasharray:2,2;" x1="211.9507" x2="1622.9531" y1="737.6016" y2="737.6016"/><text fill="#000000" font-family="sans-serif" font-size="11" font-weight="bold" lengthAdjust="spacing" textLength="114.5063" x="216.9507" y="747.812">[Completion valid]</text><g class="message" data-entity-1="part4" data-entity-2="part5" id="msg14"><polygon fill="#181818" points="1323.9946,768.5391,1333.9946,772.5391,1323.9946,776.5391,1327.9946,772.5391" style="stroke:#181818;stroke-width:1;"/><line style="stroke:#181818;stroke-width:1;" x1="1131.6748" x2="1329.9946" y1="772.5391" y2="772.5391"/><text fill="#000000" font-family="sans-serif" font-size="13" lengthAdjust="spacing" textLength="66.5742" x="1138.6748" y="767.4731">save(VVE)</text></g><g class="message" data-entity-1="part5" data-entity-2="part4" id="msg15"><polygon fill="#181818" points="1142.6748,797.6719,1132.6748,801.6719,1142.6748,805.6719,1138.6748,801.6719" style="stroke:#181818;stroke-width:1;"/><line style="stroke:#181818;stroke-width:1;stroke-dasharray:2,2;" x1="1136.6748" x2="1334.9946" y1="801.6719" y2="801.6719"/><text fill="#000000" font-family="sans-serif" font-size="13" lengthAdjust="spacing" textLength="90.2319" x="1148.6748" y="796.606">persisted VVE</text></g><g class="message" data-entity-1="part4" data-entity-2="part3" id="msg16"><polygon fill="#181818" points="658.311,826.8047,648.311,830.8047,658.311,834.8047,654.311,830.8047" style="stroke:#181818;stroke-width:1;"/><line style="stroke:#181818;stroke-width:1;stroke-dasharray:2,2;" x1="652.311" x2="1130.6748" y1="830.8047" y2="830.8047"/><text fill="#000000" font-family="sans-serif" font-size="13" lengthAdjust="spacing" textLength="232.9209" x="664.311" y="825.7388">Result.ok(VesselVisitExecutionDTO)</text></g><g class="message" data-entity-1="part3" data-entity-2="part2" id="msg17"><polygon fill="#181818" points="257.4507,871.0703,247.4507,875.0703,257.4507,879.0703,253.4507,875.0703" style="stroke:#181818;stroke-width:1;"/><line style="stroke:#181818;stroke-width:1;stroke-dasharray:2,2;" x1="251.4507" x2="646.311" y1="875.0703" y2="875.0703"/><text fill="#000000" font-family="sans-serif" font-size="13" lengthAdjust="spacing" textLength="47.7026" x="263.4507" y="854.8716">200 OK</text><text fill="#000000" font-family="sans-serif" font-size="13" lengthAdjust="spacing" textLength="203.7407" x="263.4507" y="870.0044">Body: VesselVisitExecutionDTO</text></g><!--SRC=[bLJRRXen47ttLunuMgGGGfMdIaGAbqfLeuAuFUN5x0x1YjVUshEagAgK3sb_Bb_IiHTsquXIvG5OxECpSyuShtzKff1Evf1ROzEjipa2kHA5htVyLcRsIPa7s4ZjKP0YZJ37RoMQ566av4E0TM1eyq8Z8QpGUzImKbuHZBzZMfAo1fBb_FgoTzdhjOMGALa7hJlxe3ofrCEaG2TvhGMo-IFMjZIPT7jepQUtSOj_HMeDEQkXjImoIRXQZHVsM3mRLfiQAweXETqSg3gBZTLzpT7jL8eHVLiK0Wqht9_6ph2m4HWUpY8ZYZiJej__hpFzlZXAXivDq0WVsM6DAS7Byw_c-6hyylnRX7s61McCcouNq9M5wkvssFsHsWn_TjF3YNkJiDEbr4ipG4VRXShn0ggbEvGxd5f7rM8PlNJZN2hD0uhaJP6Tr2hiWmjpzmHhc-qXAHpwa88Be7s1FWnM4tms4LvZ4xytn4LLsXPGCNPgcTTNLp2G6JiQmVTcwknQOpv2uauy98VIx5DR80SGLg_9QyARC3pcyqXr5cwvS9e4IrYVMJSEwBFQ8L8nOvWoKswKoGRx8TD4hY0YxdJgegSI47Y26pmqC9PW4xBCQmVsnjiP-bBJvOQB9ryjVGguTWI-poe-Kld31TyKkucBVvkJlCkHIikWzCgmLd0blmDsokeu68vPK2Yr1Xjpp6iUZY7Ce0lg40bYTb-9WzXJuo7ns-V9myXoJJDsZgz_1JjZrx6V6RSJZnoft-tSmRk3E-5InePVjr3dmRDL2JT_BFOc3Eo0vxSQwuxt_vm8-vYSYiveCVc7a0yiPFBbtWpu-fsE7P-jvCJvXs_-_040]--></g></svg>