<svg xmlns="http://www.w3.org/2000/svg" xmlns:xlink="http://www.w3.org/1999/xlink" contentStyleType="text/css" data-diagram-type="SEQUENCE" height="462px" preserveAspectRatio="none" style="width:705px;height:462px;background:#FFFFFF;" version="1.1" viewBox="0 0 705 462" width="705px" zoomAndPan="magnify"><defs/><g><g><title>Port Authority Officer</title><rect fill="#000000" fill-opacity="0.00000" height="300.416" width="8" x="76.6387" y="81.4883"/><line style="stroke:#181818;stroke-width:0.5;stroke-dasharray:5,5;" x1="80" x2="80" y1="81.4883" y2="381.9043"/></g><g><title>Vessel Visit Notification Management API</title><rect fill="#000000" fill-opacity="0.00000" height="300.416" width="8" x="547.0947" y="81.4883"/><line style="stroke:#181818;stroke-width:0.5;stroke-dasharray:5,5;" x1="550.9595" x2="550.9595" y1="81.4883" y2="381.9043"/></g><g class="participant participant-head" data-participant="Officer"><text fill="#000000" font-family="sans-serif" font-size="14" lengthAdjust="spacing" textLength="145.2773" x="5" y="78.5352">Port Authority Officer</text><ellipse cx="80.6387" cy="13.5" fill="#E2E2F0" rx="8" ry="8" style="stroke:#181818;stroke-width:0.5;"/><path d="M80.6387,21.5 L80.6387,48.5 M67.6387,29.5 L93.6387,29.5 M80.6387,48.5 L67.6387,63.5 M80.6387,48.5 L93.6387,63.5" fill="none" style="stroke:#181818;stroke-width:0.5;"/></g><g class="participant participant-tail" data-participant="Officer"><text fill="#000000" font-family="sans-serif" font-size="14" lengthAdjust="spacing" textLength="145.2773" x="5" y="394.4395">Port Authority Officer</text><ellipse cx="80.6387" cy="405.8926" fill="#E2E2F0" rx="8" ry="8" style="stroke:#181818;stroke-width:0.5;"/><path d="M80.6387,413.8926 L80.6387,440.8926 M67.6387,421.8926 L93.6387,421.8926 M80.6387,440.8926 L67.6387,455.8926 M80.6387,440.8926 L93.6387,455.8926" fill="none" style="stroke:#181818;stroke-width:0.5;"/></g><g class="participant participant-head" data-participant="System"><text fill="#000000" font-family="sans-serif" font-size="14" lengthAdjust="spacing" textLength="278.2705" x="408.9595" y="78.5352">Vessel Visit Notification Management API</text><path d="M530.5947,37 L530.5947,61 M530.5947,49 L547.5947,49" fill="none" style="stroke:#181818;stroke-width:0.5;"/><ellipse cx="559.5947" cy="49" fill="#E2E2F0" rx="12" ry="12" style="stroke:#181818;stroke-width:0.5;"/></g><g class="participant participant-tail" data-participant="System"><text fill="#000000" font-family="sans-serif" font-size="14" lengthAdjust="spacing" textLength="278.2705" x="408.9595" y="394.4395">Vessel Visit Notification Management API</text><path d="M530.5947,401.3926 L530.5947,425.3926 M530.5947,413.3926 L547.5947,413.3926" fill="none" style="stroke:#181818;stroke-width:0.5;"/><ellipse cx="559.5947" cy="413.3926" fill="#E2E2F0" rx="12" ry="12" style="stroke:#181818;stroke-width:0.5;"/></g><rect fill="#EEEEEE" height="3" style="stroke:#EEEEEE;stroke-width:1;" width="698.23" x="0" y="112.1436"/><line style="stroke:#000000;stroke-width:1;" x1="0" x2="698.23" y1="112.1436" y2="112.1436"/><line style="stroke:#000000;stroke-width:1;" x1="0" x2="698.23" y1="115.1436" y2="115.1436"/><rect fill="#EEEEEE" height="23.3105" style="stroke:#000000;stroke-width:2;" width="239.1895" x="229.5203" y="101.4883"/><text fill="#000000" font-family="sans-serif" font-size="13" font-weight="bold" lengthAdjust="spacing" textLength="220.9048" x="235.5203" y="118.0566">Approve Vessel Visit Notification</text><g class="message" data-participant-1="Officer" data-participant-2="System"><polygon fill="#181818" points="539.0947,152.1094,549.0947,156.1094,539.0947,160.1094,543.0947,156.1094" style="stroke:#181818;stroke-width:1;"/><line style="stroke:#181818;stroke-width:1;" x1="80.6387" x2="545.0947" y1="156.1094" y2="156.1094"/><text fill="#000000" font-family="sans-serif" font-size="13" lengthAdjust="spacing" textLength="290.5322" x="87.6387" y="151.3672">PUT /api/vesselvisitnotification/accept/id/{id}</text></g><g class="message" data-participant-1="System" data-participant-2="Officer"><polygon fill="#181818" points="91.6387,212.041,81.6387,216.041,91.6387,220.041,87.6387,216.041" style="stroke:#181818;stroke-width:1;"/><line style="stroke:#181818;stroke-width:1;stroke-dasharray:2,2;" x1="85.6387" x2="550.0947" y1="216.041" y2="216.041"/><text fill="#000000" font-family="sans-serif" font-size="13" lengthAdjust="spacing" textLength="47.3599" x="97.6387" y="180.6777">200 OK</text><text fill="#000000" font-family="sans-serif" font-size="13" lengthAdjust="spacing" textLength="202.0078" x="97.6387" y="195.9883">Body: VesselVisitNotificationDto</text><text fill="#000000" font-family="sans-serif" font-size="13" lengthAdjust="spacing" textLength="446.4561" x="97.6387" y="211.2988">(status="Accepted", assignedDockId, processedBy, processedAt, tasks)</text></g><rect fill="#EEEEEE" height="3" style="stroke:#EEEEEE;stroke-width:1;" width="698.23" x="0" y="244.6963"/><line style="stroke:#000000;stroke-width:1;" x1="0" x2="698.23" y1="244.6963" y2="244.6963"/><line style="stroke:#000000;stroke-width:1;" x1="0" x2="698.23" y1="247.6963" y2="247.6963"/><rect fill="#EEEEEE" height="23.3105" style="stroke:#000000;stroke-width:2;" width="223.5679" x="237.3311" y="234.041"/><text fill="#000000" font-family="sans-serif" font-size="13" font-weight="bold" lengthAdjust="spacing" textLength="205.2832" x="243.3311" y="250.6094">Reject Vessel Visit Notification</text><g class="message" data-participant-1="Officer" data-participant-2="System"><polygon fill="#181818" points="539.0947,299.9727,549.0947,303.9727,539.0947,307.9727,543.0947,303.9727" style="stroke:#181818;stroke-width:1;"/><line style="stroke:#181818;stroke-width:1;" x1="80.6387" x2="545.0947" y1="303.9727" y2="303.9727"/><text fill="#000000" font-family="sans-serif" font-size="13" lengthAdjust="spacing" textLength="245.8765" x="87.6387" y="283.9199">PUT /api/vesselvisitnotification/reject/</text><text fill="#000000" font-family="sans-serif" font-size="13" lengthAdjust="spacing" textLength="240.189" x="87.6387" y="299.2305">Body: RejectVesselVisitNotificationDto</text></g><g class="message" data-participant-1="System" data-participant-2="Officer"><polygon fill="#181818" points="91.6387,359.9043,81.6387,363.9043,91.6387,367.9043,87.6387,363.9043" style="stroke:#181818;stroke-width:1;"/><line style="stroke:#181818;stroke-width:1;stroke-dasharray:2,2;" x1="85.6387" x2="550.0947" y1="363.9043" y2="363.9043"/><text fill="#000000" font-family="sans-serif" font-size="13" lengthAdjust="spacing" textLength="47.3599" x="97.6387" y="328.541">200 OK</text><text fill="#000000" font-family="sans-serif" font-size="13" lengthAdjust="spacing" textLength="202.0078" x="97.6387" y="343.8516">Body: VesselVisitNotificationDto</text><text fill="#000000" font-family="sans-serif" font-size="13" lengthAdjust="spacing" textLength="401.6606" x="97.6387" y="359.1621">(status="Rejected", rejectionReason, processedBy, processedAt)</text></g><!--SRC=[jP0zQyCm48Pt_Oh3KmCE2XqDBZXa2QMDITjCMLJfagff92ET3QBqlrUHRV3YhTqakEVz4fAiWwosZg1gwSCwJG5sfvEMw38GVdopTziQ9Lo0x83UunSSjDS4pvPqF12ahO4dOSGPhsYYMBrD-4lmX5V6oXAgfd6sGvZdov8DTh1y650ee7vx1IuQpRj4TZVGJ3WkfCI6k5RyMwiVDe3Bg37A5N2_Mi7kyMZMLeLYo90YJ1Dio1xDdIT1hI-pAicYolBOnEkpGRMnyh9LESGcyYQXrc7ogIW74lxY5wdm7ZzHqZ_qTKcOZsLwd_bAVpP8RvG6wIF4YpqARyty8Wls2m00]--></g></svg>