<svg xmlns="http://www.w3.org/2000/svg" xmlns:xlink="http://www.w3.org/1999/xlink" contentStyleType="text/css" data-diagram-type="SEQUENCE" height="977px" preserveAspectRatio="none" style="width:561px;height:977px;background:#FFFFFF;" version="1.1" viewBox="0 0 561 977" width="561px" zoomAndPan="magnify"><defs/><g><g><title>Port Authority Officer</title><rect fill="#000000" fill-opacity="0.00000" height="815.3164" width="8" x="76.6387" y="81.4883"/><line style="stroke:#181818;stroke-width:0.5;stroke-dasharray:5,5;" x1="80" x2="80" y1="81.4883" y2="896.8047"/></g><g><title>System</title><rect fill="#000000" fill-opacity="0.00000" height="815.3164" width="8" x="518.4224" y="81.4883"/><line style="stroke:#181818;stroke-width:0.5;stroke-dasharray:5,5;" x1="522.3735" x2="522.3735" y1="81.4883" y2="896.8047"/></g><g class="participant participant-head" data-participant="Officer"><text fill="#000000" font-family="sans-serif" font-size="14" lengthAdjust="spacing" textLength="145.2773" x="5" y="78.5352">Port Authority Officer</text><ellipse cx="80.6387" cy="13.5" fill="#E2E2F0" rx="8" ry="8" style="stroke:#181818;stroke-width:0.5;"/><path d="M80.6387,21.5 L80.6387,48.5 M67.6387,29.5 L93.6387,29.5 M80.6387,48.5 L67.6387,63.5 M80.6387,48.5 L93.6387,63.5" fill="none" style="stroke:#181818;stroke-width:0.5;"/></g><g class="participant participant-tail" data-participant="Officer"><text fill="#000000" font-family="sans-serif" font-size="14" lengthAdjust="spacing" textLength="145.2773" x="5" y="909.3398">Port Authority Officer</text><ellipse cx="80.6387" cy="920.793" fill="#E2E2F0" rx="8" ry="8" style="stroke:#181818;stroke-width:0.5;"/><path d="M80.6387,928.793 L80.6387,955.793 M67.6387,936.793 L93.6387,936.793 M80.6387,955.793 L67.6387,970.793 M80.6387,955.793 L93.6387,970.793" fill="none" style="stroke:#181818;stroke-width:0.5;"/></g><g class="participant participant-head" data-participant="System"><text fill="#000000" font-family="sans-serif" font-size="14" lengthAdjust="spacing" textLength="48.0977" x="495.3735" y="78.5352">System</text><path d="M501.9224,37 L501.9224,61 M501.9224,49 L518.9224,49" fill="none" style="stroke:#181818;stroke-width:0.5;"/><ellipse cx="530.9224" cy="49" fill="#E2E2F0" rx="12" ry="12" style="stroke:#181818;stroke-width:0.5;"/></g><g class="participant participant-tail" data-participant="System"><text fill="#000000" font-family="sans-serif" font-size="14" lengthAdjust="spacing" textLength="48.0977" x="495.3735" y="909.3398">System</text><path d="M501.9224,916.293 L501.9224,940.293 M501.9224,928.293 L518.9224,928.293" fill="none" style="stroke:#181818;stroke-width:0.5;"/><ellipse cx="530.9224" cy="928.293" fill="#E2E2F0" rx="12" ry="12" style="stroke:#181818;stroke-width:0.5;"/></g><rect fill="#EEEEEE" height="3" style="stroke:#EEEEEE;stroke-width:1;" width="554.4712" x="0" y="112.1436"/><line style="stroke:#000000;stroke-width:1;" x1="0" x2="554.4712" y1="112.1436" y2="112.1436"/><line style="stroke:#000000;stroke-width:1;" x1="0" x2="554.4712" y1="115.1436" y2="115.1436"/><rect fill="#EEEEEE" height="23.3105" style="stroke:#000000;stroke-width:2;" width="163.8745" x="195.2983" y="101.4883"/><text fill="#000000" font-family="sans-serif" font-size="13" font-weight="bold" lengthAdjust="spacing" textLength="145.5898" x="201.2983" y="118.0566">Register Storage Area</text><g class="message" data-participant-1="Officer" data-participant-2="System"><polygon fill="#181818" points="510.4224,167.4199,520.4224,171.4199,510.4224,175.4199,514.4224,171.4199" style="stroke:#181818;stroke-width:1;"/><line style="stroke:#181818;stroke-width:1;" x1="80.6387" x2="516.4224" y1="171.4199" y2="171.4199"/><text fill="#000000" font-family="sans-serif" font-size="13" lengthAdjust="spacing" textLength="150.2427" x="87.6387" y="151.3672">POST /api/storageareas</text><text fill="#000000" font-family="sans-serif" font-size="13" lengthAdjust="spacing" textLength="417.7837" x="87.6387" y="166.6777">(CreatingStorageAreaDto: name, type, bays, rows, tiers, distances)</text></g><g class="message" data-participant-1="System" data-participant-2="Officer"><polygon fill="#181818" points="91.6387,212.041,81.6387,216.041,91.6387,220.041,87.6387,216.041" style="stroke:#181818;stroke-width:1;"/><line style="stroke:#181818;stroke-width:1;stroke-dasharray:2,2;" x1="85.6387" x2="521.4224" y1="216.041" y2="216.041"/><text fill="#000000" font-family="sans-serif" font-size="13" lengthAdjust="spacing" textLength="77.7969" x="97.6387" y="195.9883">201 Created</text><text fill="#000000" font-family="sans-serif" font-size="13" lengthAdjust="spacing" textLength="400.9878" x="97.6387" y="211.2988">(StorageAreaDto with Id, capacity, occupancy, docks, distances)</text></g><rect fill="#EEEEEE" height="3" style="stroke:#EEEEEE;stroke-width:1;" width="554.4712" x="0" y="244.6963"/><line style="stroke:#000000;stroke-width:1;" x1="0" x2="554.4712" y1="244.6963" y2="244.6963"/><line style="stroke:#000000;stroke-width:1;" x1="0" x2="554.4712" y1="247.6963" y2="247.6963"/><rect fill="#EEEEEE" height="23.3105" style="stroke:#000000;stroke-width:2;" width="155.667" x="199.4021" y="234.041"/><text fill="#000000" font-family="sans-serif" font-size="13" font-weight="bold" lengthAdjust="spacing" textLength="137.3823" x="205.4021" y="250.6094">Update Storage Area</text><g class="message" data-participant-1="Officer" data-participant-2="System"><polygon fill="#181818" points="510.4224,299.9727,520.4224,303.9727,510.4224,307.9727,514.4224,303.9727" style="stroke:#181818;stroke-width:1;"/><line style="stroke:#181818;stroke-width:1;" x1="80.6387" x2="516.4224" y1="303.9727" y2="303.9727"/><text fill="#000000" font-family="sans-serif" font-size="13" lengthAdjust="spacing" textLength="219.1021" x="87.6387" y="283.9199">PUT/PATCH /api/storageareas/{id}</text><text fill="#000000" font-family="sans-serif" font-size="13" lengthAdjust="spacing" textLength="415.1431" x="87.6387" y="299.2305">(UpdateStorageAreaDto: description?, type?, capacity?, distances?)</text></g><g class="message" data-participant-1="System" data-participant-2="Officer"><polygon fill="#181818" points="91.6387,344.5938,81.6387,348.5938,91.6387,352.5938,87.6387,348.5938" style="stroke:#181818;stroke-width:1;"/><line style="stroke:#181818;stroke-width:1;stroke-dasharray:2,2;" x1="85.6387" x2="521.4224" y1="348.5938" y2="348.5938"/><text fill="#000000" font-family="sans-serif" font-size="13" lengthAdjust="spacing" textLength="47.3599" x="97.6387" y="328.541">200 OK</text><text fill="#000000" font-family="sans-serif" font-size="13" lengthAdjust="spacing" textLength="164.3979" x="97.6387" y="343.8516">(Updated StorageAreaDto)</text></g><rect fill="#EEEEEE" height="3" style="stroke:#EEEEEE;stroke-width:1;" width="554.4712" x="0" y="377.249"/><line style="stroke:#000000;stroke-width:1;" x1="0" x2="554.4712" y1="377.249" y2="377.249"/><line style="stroke:#000000;stroke-width:1;" x1="0" x2="554.4712" y1="380.249" y2="380.249"/><rect fill="#EEEEEE" height="23.3105" style="stroke:#000000;stroke-width:2;" width="156.0415" x="199.2148" y="366.5938"/><text fill="#000000" font-family="sans-serif" font-size="13" font-weight="bold" lengthAdjust="spacing" textLength="137.7568" x="205.2148" y="383.1621">Query Storage Areas</text><g class="message" data-participant-1="Officer" data-participant-2="System"><polygon fill="#181818" points="510.4224,417.2148,520.4224,421.2148,510.4224,425.2148,514.4224,421.2148" style="stroke:#181818;stroke-width:1;"/><line style="stroke:#181818;stroke-width:1;" x1="80.6387" x2="516.4224" y1="421.2148" y2="421.2148"/><text fill="#000000" font-family="sans-serif" font-size="13" lengthAdjust="spacing" textLength="169.6094" x="87.6387" y="416.4727">GET /api/storageareas/{id}</text></g><g class="message" data-participant-1="System" data-participant-2="Officer"><polygon fill="#181818" points="91.6387,461.8359,81.6387,465.8359,91.6387,469.8359,87.6387,465.8359" style="stroke:#181818;stroke-width:1;"/><line style="stroke:#181818;stroke-width:1;stroke-dasharray:2,2;" x1="85.6387" x2="521.4224" y1="465.8359" y2="465.8359"/><text fill="#000000" font-family="sans-serif" font-size="13" lengthAdjust="spacing" textLength="47.3599" x="97.6387" y="445.7832">200 OK</text><text fill="#000000" font-family="sans-serif" font-size="13" lengthAdjust="spacing" textLength="107.4468" x="97.6387" y="461.0938">(StorageAreaDto)</text></g><g class="message" data-participant-1="Officer" data-participant-2="System"><polygon fill="#181818" points="510.4224,491.1465,520.4224,495.1465,510.4224,499.1465,514.4224,495.1465" style="stroke:#181818;stroke-width:1;"/><line style="stroke:#181818;stroke-width:1;" x1="80.6387" x2="516.4224" y1="495.1465" y2="495.1465"/><text fill="#000000" font-family="sans-serif" font-size="13" lengthAdjust="spacing" textLength="235.9233" x="87.6387" y="490.4043">GET /api/storageareas?name={name}</text></g><g class="message" data-participant-1="System" data-participant-2="Officer"><polygon fill="#181818" points="91.6387,535.7676,81.6387,539.7676,91.6387,543.7676,87.6387,539.7676" style="stroke:#181818;stroke-width:1;"/><line style="stroke:#181818;stroke-width:1;stroke-dasharray:2,2;" x1="85.6387" x2="521.4224" y1="539.7676" y2="539.7676"/><text fill="#000000" font-family="sans-serif" font-size="13" lengthAdjust="spacing" textLength="47.3599" x="97.6387" y="519.7148">200 OK</text><text fill="#000000" font-family="sans-serif" font-size="13" lengthAdjust="spacing" textLength="107.4468" x="97.6387" y="535.0254">(StorageAreaDto)</text></g><g class="message" data-participant-1="Officer" data-participant-2="System"><polygon fill="#181818" points="510.4224,565.0781,520.4224,569.0781,510.4224,573.0781,514.4224,569.0781" style="stroke:#181818;stroke-width:1;"/><line style="stroke:#181818;stroke-width:1;" x1="80.6387" x2="516.4224" y1="569.0781" y2="569.0781"/><text fill="#000000" font-family="sans-serif" font-size="13" lengthAdjust="spacing" textLength="349.4702" x="87.6387" y="564.3359">GET /api/storageareas/distances?name={name}|id={id}</text></g><g class="message" data-participant-1="System" data-participant-2="Officer"><polygon fill="#181818" points="91.6387,609.6992,81.6387,613.6992,91.6387,617.6992,87.6387,613.6992" style="stroke:#181818;stroke-width:1;"/><line style="stroke:#181818;stroke-width:1;stroke-dasharray:2,2;" x1="85.6387" x2="521.4224" y1="613.6992" y2="613.6992"/><text fill="#000000" font-family="sans-serif" font-size="13" lengthAdjust="spacing" textLength="47.3599" x="97.6387" y="593.6465">200 OK</text><text fill="#000000" font-family="sans-serif" font-size="13" lengthAdjust="spacing" textLength="236.4058" x="97.6387" y="608.957">(List&lt;StorageAreaDockDistanceDto&gt;)</text></g><rect fill="#EEEEEE" height="3" style="stroke:#EEEEEE;stroke-width:1;" width="554.4712" x="0" y="642.3545"/><line style="stroke:#000000;stroke-width:1;" x1="0" x2="554.4712" y1="642.3545" y2="642.3545"/><line style="stroke:#000000;stroke-width:1;" x1="0" x2="554.4712" y1="645.3545" y2="645.3545"/><rect fill="#EEEEEE" height="23.3105" style="stroke:#000000;stroke-width:2;" width="127.0454" x="213.7129" y="631.6992"/><text fill="#000000" font-family="sans-serif" font-size="13" font-weight="bold" lengthAdjust="spacing" textLength="108.7607" x="219.7129" y="648.2676">Validation Rules</text><g class="message" data-participant-1="Officer" data-participant-2="System"><polygon fill="#181818" points="510.4224,682.3203,520.4224,686.3203,510.4224,690.3203,514.4224,686.3203" style="stroke:#181818;stroke-width:1;"/><line style="stroke:#181818;stroke-width:1;" x1="80.6387" x2="516.4224" y1="686.3203" y2="686.3203"/><text fill="#000000" font-family="sans-serif" font-size="13" lengthAdjust="spacing" textLength="303.4878" x="87.6387" y="681.5781">Register/Update with occupancy &gt; maxCapacity</text></g><g class="message" data-participant-1="System" data-participant-2="Officer"><polygon fill="#181818" points="91.6387,726.9414,81.6387,730.9414,91.6387,734.9414,87.6387,730.9414" style="stroke:#181818;stroke-width:1;"/><line style="stroke:#181818;stroke-width:1;stroke-dasharray:2,2;" x1="85.6387" x2="521.4224" y1="730.9414" y2="730.9414"/><text fill="#000000" font-family="sans-serif" font-size="13" lengthAdjust="spacing" textLength="106.1709" x="97.6387" y="710.8887">400 Bad Request</text><text fill="#000000" font-family="sans-serif" font-size="13" lengthAdjust="spacing" textLength="215.2427" x="97.6387" y="726.1992">(BusinessRuleValidationException)</text></g><g class="message" data-participant-1="Officer" data-participant-2="System"><polygon fill="#181818" points="510.4224,756.252,520.4224,760.252,510.4224,764.252,514.4224,760.252" style="stroke:#181818;stroke-width:1;"/><line style="stroke:#181818;stroke-width:1;" x1="80.6387" x2="516.4224" y1="760.252" y2="760.252"/><text fill="#000000" font-family="sans-serif" font-size="13" lengthAdjust="spacing" textLength="192.6577" x="87.6387" y="755.5098">Register with duplicated Name</text></g><g class="message" data-participant-1="System" data-participant-2="Officer"><polygon fill="#181818" points="91.6387,800.873,81.6387,804.873,91.6387,808.873,87.6387,804.873" style="stroke:#181818;stroke-width:1;"/><line style="stroke:#181818;stroke-width:1;stroke-dasharray:2,2;" x1="85.6387" x2="521.4224" y1="804.873" y2="804.873"/><text fill="#000000" font-family="sans-serif" font-size="13" lengthAdjust="spacing" textLength="77.6382" x="97.6387" y="784.8203">409 Conflict</text><text fill="#000000" font-family="sans-serif" font-size="13" lengthAdjust="spacing" textLength="215.2427" x="97.6387" y="800.1309">(BusinessRuleValidationException)</text></g><g class="message" data-participant-1="Officer" data-participant-2="System"><polygon fill="#181818" points="510.4224,830.1836,520.4224,834.1836,510.4224,838.1836,514.4224,834.1836" style="stroke:#181818;stroke-width:1;"/><line style="stroke:#181818;stroke-width:1;" x1="80.6387" x2="516.4224" y1="834.1836" y2="834.1836"/><text fill="#000000" font-family="sans-serif" font-size="13" lengthAdjust="spacing" textLength="184.2598" x="87.6387" y="829.4414">Reference non-existing Dock</text></g><g class="message" data-participant-1="System" data-participant-2="Officer"><polygon fill="#181818" points="91.6387,874.8047,81.6387,878.8047,91.6387,882.8047,87.6387,878.8047" style="stroke:#181818;stroke-width:1;"/><line style="stroke:#181818;stroke-width:1;stroke-dasharray:2,2;" x1="85.6387" x2="521.4224" y1="878.8047" y2="878.8047"/><text fill="#000000" font-family="sans-serif" font-size="13" lengthAdjust="spacing" textLength="106.1709" x="97.6387" y="858.752">400 Bad Request</text><text fill="#000000" font-family="sans-serif" font-size="13" lengthAdjust="spacing" textLength="215.2427" x="97.6387" y="874.0625">(BusinessRuleValidationException)</text></g><!--SRC=[jLJ9JiCm4BtdAqOzWTGgWBXGaKRT10X42osSk1XxsbgqTh0TjH7mxqoMRfI8Ii35TfJ9MsQUmxZJ1YfzRHmqOpVHHhe4UgEHv6WgmEpox3thM0bc4gWC4kjmbhtCZvuN172FOqaF1WQ4oCO8JOCCWi0h0A3MACgX3ltUO0W-YwHlysf6nVP97RHfTrAD2v0Ke-Dq7HIROHLS4j7wp19R1QFdj3g9XZP1r4nnj8TUmL4ZkYLp7KwEZY63Ha4as-0mbsu2Lw8Ad4MCa_ygQCxZY03fA3H_sMP8tJv4Wi3sy_emzFlDOVjorx3_9iK72ShHldeMQBcHaPDQXRdtSAqnt90Kbhe-Wjxr2b_0DaFkv2v66kgc4LlcvA8xBF7m0_yExzxeOJhuu2rT_u_4NtToW-vTYc0FRpVqxVacD-MbK-2HZaRUvKSsbJG36YNSnrCiRV7o5lb5mB9ihj883PYnHRk8mFV2JabOYmb2UetHEbBOYgrKQ6rAlDRHNN3CibNIgTLzpYI8E9fAdeNebffJHdq6RQr6LFaRtX4QfEQ1qgg62n91_mD8s_fNXZy1]--></g></svg>