<svg xmlns="http://www.w3.org/2000/svg" xmlns:xlink="http://www.w3.org/1999/xlink" contentStyleType="text/css" data-diagram-type="SEQUENCE" height="590px" preserveAspectRatio="none" style="width:709px;height:590px;background:#FFFFFF;" version="1.1" viewBox="0 0 709 590" width="709px" zoomAndPan="magnify"><defs/><g><g><title>Port Authority Officer</title><rect fill="#000000" fill-opacity="0.00000" height="427.7266" width="8" x="76.6387" y="81.4883"/><line style="stroke:#181818;stroke-width:0.5;stroke-dasharray:5,5;" x1="80" x2="80" y1="81.4883" y2="509.2148"/></g><g><title>System</title><rect fill="#000000" fill-opacity="0.00000" height="427.7266" width="8" x="666.7671" y="81.4883"/><line style="stroke:#181818;stroke-width:0.5;stroke-dasharray:5,5;" x1="670.7183" x2="670.7183" y1="81.4883" y2="509.2148"/></g><g class="participant participant-head" data-participant="Officer"><text fill="#000000" font-family="sans-serif" font-size="14" lengthAdjust="spacing" textLength="145.2773" x="5" y="78.5352">Port Authority Officer</text><ellipse cx="80.6387" cy="13.5" fill="#E2E2F0" rx="8" ry="8" style="stroke:#181818;stroke-width:0.5;"/><path d="M80.6387,21.5 L80.6387,48.5 M67.6387,29.5 L93.6387,29.5 M80.6387,48.5 L67.6387,63.5 M80.6387,48.5 L93.6387,63.5" fill="none" style="stroke:#181818;stroke-width:0.5;"/></g><g class="participant participant-tail" data-participant="Officer"><text fill="#000000" font-family="sans-serif" font-size="14" lengthAdjust="spacing" textLength="145.2773" x="5" y="521.75">Port Authority Officer</text><ellipse cx="80.6387" cy="533.2031" fill="#E2E2F0" rx="8" ry="8" style="stroke:#181818;stroke-width:0.5;"/><path d="M80.6387,541.2031 L80.6387,568.2031 M67.6387,549.2031 L93.6387,549.2031 M80.6387,568.2031 L67.6387,583.2031 M80.6387,568.2031 L93.6387,583.2031" fill="none" style="stroke:#181818;stroke-width:0.5;"/></g><g class="participant participant-head" data-participant="System"><text fill="#000000" font-family="sans-serif" font-size="14" lengthAdjust="spacing" textLength="48.0977" x="643.7183" y="78.5352">System</text><path d="M650.2671,37 L650.2671,61 M650.2671,49 L667.2671,49" fill="none" style="stroke:#181818;stroke-width:0.5;"/><ellipse cx="679.2671" cy="49" fill="#E2E2F0" rx="12" ry="12" style="stroke:#181818;stroke-width:0.5;"/></g><g class="participant participant-tail" data-participant="System"><text fill="#000000" font-family="sans-serif" font-size="14" lengthAdjust="spacing" textLength="48.0977" x="643.7183" y="521.75">System</text><path d="M650.2671,528.7031 L650.2671,552.7031 M650.2671,540.7031 L667.2671,540.7031" fill="none" style="stroke:#181818;stroke-width:0.5;"/><ellipse cx="679.2671" cy="540.7031" fill="#E2E2F0" rx="12" ry="12" style="stroke:#181818;stroke-width:0.5;"/></g><rect fill="#EEEEEE" height="3" style="stroke:#EEEEEE;stroke-width:1;" width="702.8159" x="0" y="112.1436"/><line style="stroke:#000000;stroke-width:1;" x1="0" x2="702.8159" y1="112.1436" y2="112.1436"/><line style="stroke:#000000;stroke-width:1;" x1="0" x2="702.8159" y1="115.1436" y2="115.1436"/><rect fill="#EEEEEE" height="23.3105" style="stroke:#000000;stroke-width:2;" width="163.8745" x="269.4707" y="101.4883"/><text fill="#000000" font-family="sans-serif" font-size="13" font-weight="bold" lengthAdjust="spacing" textLength="145.5898" x="275.4707" y="118.0566">Register Storage Area</text><g class="message" data-participant-1="Officer" data-participant-2="System"><polygon fill="#181818" points="658.7671,152.1094,668.7671,156.1094,658.7671,160.1094,662.7671,156.1094" style="stroke:#181818;stroke-width:1;"/><line style="stroke:#181818;stroke-width:1;" x1="80.6387" x2="664.7671" y1="156.1094" y2="156.1094"/><text fill="#000000" font-family="sans-serif" font-size="13" lengthAdjust="spacing" textLength="535.2598" x="87.6387" y="151.3672">Submit new StorageArea(type, location, maxCapacity, occupancy, docks?, distances?)</text></g><g class="message" data-participant-1="System" data-participant-2="Officer"><polygon fill="#181818" points="91.6387,181.4199,81.6387,185.4199,91.6387,189.4199,87.6387,185.4199" style="stroke:#181818;stroke-width:1;"/><line style="stroke:#181818;stroke-width:1;stroke-dasharray:2,2;" x1="85.6387" x2="669.7671" y1="185.4199" y2="185.4199"/><text fill="#000000" font-family="sans-serif" font-size="13" lengthAdjust="spacing" textLength="241.3125" x="97.6387" y="180.6777">Confirmation (StorageAreaDto with Id)</text></g><rect fill="#EEEEEE" height="3" style="stroke:#EEEEEE;stroke-width:1;" width="702.8159" x="0" y="214.0752"/><line style="stroke:#000000;stroke-width:1;" x1="0" x2="702.8159" y1="214.0752" y2="214.0752"/><line style="stroke:#000000;stroke-width:1;" x1="0" x2="702.8159" y1="217.0752" y2="217.0752"/><rect fill="#EEEEEE" height="23.3105" style="stroke:#000000;stroke-width:2;" width="155.667" x="273.5745" y="203.4199"/><text fill="#000000" font-family="sans-serif" font-size="13" font-weight="bold" lengthAdjust="spacing" textLength="137.3823" x="279.5745" y="219.9883">Update Storage Area</text><g class="message" data-participant-1="Officer" data-participant-2="System"><polygon fill="#181818" points="658.7671,254.041,668.7671,258.041,658.7671,262.041,662.7671,258.041" style="stroke:#181818;stroke-width:1;"/><line style="stroke:#181818;stroke-width:1;" x1="80.6387" x2="664.7671" y1="258.041" y2="258.041"/><text fill="#000000" font-family="sans-serif" font-size="13" lengthAdjust="spacing" textLength="566.1284" x="87.6387" y="253.2988">Submit update StorageArea(id, type?, location?, capacity?, occupancy?, docks?, distances?)</text></g><g class="message" data-participant-1="System" data-participant-2="Officer"><polygon fill="#181818" points="91.6387,283.3516,81.6387,287.3516,91.6387,291.3516,87.6387,287.3516" style="stroke:#181818;stroke-width:1;"/><line style="stroke:#181818;stroke-width:1;stroke-dasharray:2,2;" x1="85.6387" x2="669.7671" y1="287.3516" y2="287.3516"/><text fill="#000000" font-family="sans-serif" font-size="13" lengthAdjust="spacing" textLength="251.4053" x="97.6387" y="282.6094">Confirmation (Updated StorageAreaDto)</text></g><rect fill="#EEEEEE" height="3" style="stroke:#EEEEEE;stroke-width:1;" width="702.8159" x="0" y="316.0068"/><line style="stroke:#000000;stroke-width:1;" x1="0" x2="702.8159" y1="316.0068" y2="316.0068"/><line style="stroke:#000000;stroke-width:1;" x1="0" x2="702.8159" y1="319.0068" y2="319.0068"/><rect fill="#EEEEEE" height="23.3105" style="stroke:#000000;stroke-width:2;" width="86.0586" x="308.3787" y="305.3516"/><text fill="#000000" font-family="sans-serif" font-size="13" font-weight="bold" lengthAdjust="spacing" textLength="67.7739" x="314.3787" y="321.9199">Validation</text><g class="message" data-participant-1="Officer" data-participant-2="System"><polygon fill="#181818" points="658.7671,355.9727,668.7671,359.9727,658.7671,363.9727,662.7671,359.9727" style="stroke:#181818;stroke-width:1;"/><line style="stroke:#181818;stroke-width:1;" x1="80.6387" x2="664.7671" y1="359.9727" y2="359.9727"/><text fill="#000000" font-family="sans-serif" font-size="13" lengthAdjust="spacing" textLength="325.2539" x="87.6387" y="355.2305">Attempt register/update with occupancy &gt; capacity</text></g><g class="message" data-participant-1="System" data-participant-2="Officer"><polygon fill="#181818" points="91.6387,385.2832,81.6387,389.2832,91.6387,393.2832,87.6387,389.2832" style="stroke:#181818;stroke-width:1;"/><line style="stroke:#181818;stroke-width:1;stroke-dasharray:2,2;" x1="85.6387" x2="669.7671" y1="389.2832" y2="389.2832"/><text fill="#000000" font-family="sans-serif" font-size="13" lengthAdjust="spacing" textLength="250.3452" x="97.6387" y="384.541">Error (BusinessRuleValidationException)</text></g><rect fill="#EEEEEE" height="3" style="stroke:#EEEEEE;stroke-width:1;" width="702.8159" x="0" y="417.9385"/><line style="stroke:#000000;stroke-width:1;" x1="0" x2="702.8159" y1="417.9385" y2="417.9385"/><line style="stroke:#000000;stroke-width:1;" x1="0" x2="702.8159" y1="420.9385" y2="420.9385"/><rect fill="#EEEEEE" height="23.3105" style="stroke:#000000;stroke-width:2;" width="58.6367" x="322.0896" y="407.2832"/><text fill="#000000" font-family="sans-serif" font-size="13" font-weight="bold" lengthAdjust="spacing" textLength="40.3521" x="328.0896" y="423.8516">Query</text><g class="message" data-participant-1="Officer" data-participant-2="System"><polygon fill="#181818" points="658.7671,457.9043,668.7671,461.9043,658.7671,465.9043,662.7671,461.9043" style="stroke:#181818;stroke-width:1;"/><line style="stroke:#181818;stroke-width:1;" x1="80.6387" x2="664.7671" y1="461.9043" y2="461.9043"/><text fill="#000000" font-family="sans-serif" font-size="13" lengthAdjust="spacing" textLength="213.9604" x="87.6387" y="457.1621">Request details of StorageArea(id)</text></g><g class="message" data-participant-1="System" data-participant-2="Officer"><polygon fill="#181818" points="91.6387,487.2148,81.6387,491.2148,91.6387,495.2148,87.6387,491.2148" style="stroke:#181818;stroke-width:1;"/><line style="stroke:#181818;stroke-width:1;stroke-dasharray:2,2;" x1="85.6387" x2="669.7671" y1="491.2148" y2="491.2148"/><text fill="#000000" font-family="sans-serif" font-size="13" lengthAdjust="spacing" textLength="98.9917" x="97.6387" y="486.4727">StorageAreaDto</text></g><!--SRC=[dPBDRi8m48JlVeeH9v22UaSA4QKSUceBQk_6te3L94xjjI1lNvE4drJbq9uyiJSxtwmj5Lk7qQjrZ4NWlNM66xpakL7aHf3-hCNMXafBrs2qQJnJsHvsKWYHfbZJpiGlXqriANU4XIE9D1Lz1qpdVJrcs8HjQHWL7Sxbf-enDpKbAAoIR6oLe9J7fQobYb09h5AXbfMAKblrwREuHiUuGpwRYBxtDDgS7MTOsYethcpRONnZzSGM1yDxFEj9Y_zUQydq5_Wm-AFbDph1AKDs3H6bwYDaDncoVuVeG3M6OReG7x8mkgkxmxxWkDOCrz_MGv-YdSM53lCBzEz8A-VYkna_1cygyduT2hfwhuwAwfFeeDu2nMTpXsTDNu4yGnDBKtZO_CT0xynac5vy0m00]--></g></svg>