<?xml version="1.0" encoding="UTF-8" standalone="no"?><svg xmlns="http://www.w3.org/2000/svg" xmlns:xlink="http://www.w3.org/1999/xlink" contentStyleType="text/css" height="857px" preserveAspectRatio="none" style="width:861px;height:857px;background:#FFFFFF;" version="1.1" viewBox="0 0 861 857" width="861px" zoomAndPan="magnify"><defs/><g><rect fill="#FFFFFF" height="672.6397" style="stroke:#181818;stroke-width:1.0;" width="10" x="14" y="88.62"/><rect fill="#FFFFFF" height="66.24" style="stroke:#181818;stroke-width:1.0;" width="10" x="212" y="108.24"/><rect fill="#FFFFFF" height="27.62" style="stroke:#181818;stroke-width:1.0;" width="10" x="212" y="202.0999"/><rect fill="#FFFFFF" height="503.9198" style="stroke:#181818;stroke-width:1.0;" width="10" x="212" y="257.3399"/><rect fill="#FFFFFF" height="448.6798" style="stroke:#181818;stroke-width:1.0;" width="10" x="366" y="284.9599"/><rect fill="#FFFFFF" height="149.0999" style="stroke:#181818;stroke-width:1.0;" width="10" x="371" y="320.5799"/><rect fill="#FFFFFF" height="27.62" style="stroke:#181818;stroke-width:1.0;" width="10" x="473" y="353.1999"/><rect fill="#FFFFFF" height="27.62" style="stroke:#181818;stroke-width:1.0;" width="10" x="586" y="408.4398"/><rect fill="#FFFFFF" height="201.7199" style="stroke:#181818;stroke-width:1.0;" width="10" x="681.5" y="504.2998"/><rect fill="#FFFFFF" height="79.24" style="stroke:#181818;stroke-width:1.0;" width="10" x="686.5" y="592.1598"/><rect fill="#FFFFFF" height="38.62" style="stroke:#181818;stroke-width:1.0;" width="10" x="691.5" y="632.7798"/><line style="stroke:#181818;stroke-width:0.5;stroke-dasharray:5.0,5.0;" x1="19" x2="19" y1="78.62" y2="779.2597"/><line style="stroke:#181818;stroke-width:0.5;stroke-dasharray:5.0,5.0;" x1="216.5" x2="216.5" y1="78.62" y2="779.2597"/><line style="stroke:#181818;stroke-width:0.5;stroke-dasharray:5.0,5.0;" x1="370.5" x2="370.5" y1="145.55" y2="779.2597"/><line style="stroke:#181818;stroke-width:0.5;stroke-dasharray:5.0,5.0;" x1="477.5" x2="477.5" y1="78.62" y2="779.2597"/><line style="stroke:#181818;stroke-width:0.5;stroke-dasharray:5.0,5.0;" x1="590.5" x2="590.5" y1="78.62" y2="779.2597"/><line style="stroke:#181818;stroke-width:0.5;stroke-dasharray:5.0,5.0;" x1="686.5" x2="686.5" y1="78.62" y2="779.2597"/><line style="stroke:#181818;stroke-width:0.5;stroke-dasharray:5.0,5.0;" x1="832" x2="832" y1="548.4198" y2="779.2597"/><text fill="#000000" font-family="Times" font-size="10" lengthAdjust="spacing" textLength="22" x="5" y="75.69">User</text><ellipse cx="19" cy="13.5" fill="#E3E3E3" rx="8" ry="8" style="stroke:#181818;stroke-width:0.5;"/><path d="M19,21.5 L19,48.5 M6,29.5 L32,29.5 M19,48.5 L6,63.5 M19,48.5 L32,63.5 " fill="none" style="stroke:#181818;stroke-width:0.5;"/><text fill="#000000" font-family="Times" font-size="10" lengthAdjust="spacing" textLength="22" x="5" y="788.9497">User</text><ellipse cx="19" cy="800.3797" fill="#E3E3E3" rx="8" ry="8" style="stroke:#181818;stroke-width:0.5;"/><path d="M19,808.3797 L19,835.3797 M6,816.3797 L32,816.3797 M19,835.3797 L6,850.3797 M19,835.3797 L32,850.3797 " fill="none" style="stroke:#181818;stroke-width:0.5;"/><rect fill="#E3E3E3" height="27.62" rx="2.5" ry="2.5" style="stroke:#181818;stroke-width:0.5;" width="27" x="203.5" y="50"/><text fill="#000000" font-family="Times" font-size="10" lengthAdjust="spacing" textLength="13" x="210.5" y="67.69">:UI</text><rect fill="#E3E3E3" height="27.62" rx="2.5" ry="2.5" style="stroke:#181818;stroke-width:0.5;" width="27" x="203.5" y="778.2597"/><text fill="#000000" font-family="Times" font-size="10" lengthAdjust="spacing" textLength="13" x="210.5" y="795.9497">:UI</text><rect fill="#E3E3E3" height="27.62" rx="2.5" ry="2.5" style="stroke:#181818;stroke-width:0.5;" width="65" x="338.5" y="778.2597"/><text fill="#000000" font-family="Times" font-size="10" lengthAdjust="spacing" textLength="51" x="345.5" y="795.9497">:Controller</text><rect fill="#E3E3E3" height="27.62" rx="2.5" ry="2.5" style="stroke:#181818;stroke-width:0.5;" width="103" x="426.5" y="50"/><text fill="#000000" font-family="Times" font-size="10" lengthAdjust="spacing" textLength="89" x="433.5" y="67.69">:RepositoryFactory</text><rect fill="#E3E3E3" height="27.62" rx="2.5" ry="2.5" style="stroke:#181818;stroke-width:0.5;" width="103" x="426.5" y="778.2597"/><text fill="#000000" font-family="Times" font-size="10" lengthAdjust="spacing" textLength="89" x="433.5" y="795.9497">:RepositoryFactory</text><rect fill="#E3E3E3" height="41.24" rx="2.5" ry="2.5" style="stroke:#181818;stroke-width:0.5;" width="103" x="539.5" y="36.38"/><text fill="#000000" font-family="Times" font-size="10" lengthAdjust="spacing" textLength="33" x="574.5" y="54.07">factory</text><text fill="#000000" font-family="Times" font-size="10" lengthAdjust="spacing" textLength="89" x="546.5" y="67.69">:RepositoryFactory</text><rect fill="#E3E3E3" height="41.24" rx="2.5" ry="2.5" style="stroke:#181818;stroke-width:0.5;" width="103" x="539.5" y="778.2597"/><text fill="#000000" font-family="Times" font-size="10" lengthAdjust="spacing" textLength="33" x="574.5" y="795.9497">factory</text><text fill="#000000" font-family="Times" font-size="10" lengthAdjust="spacing" textLength="89" x="546.5" y="809.5697">:RepositoryFactory</text><rect fill="#E3E3E3" height="41.24" rx="2.5" ry="2.5" style="stroke:#181818;stroke-width:0.5;" width="68" x="652.5" y="36.38"/><text fill="#000000" font-family="Times" font-size="10" lengthAdjust="spacing" textLength="49" x="662" y="54.07">repository</text><text fill="#000000" font-family="Times" font-size="10" lengthAdjust="spacing" textLength="54" x="659.5" y="67.69">:Repository</text><rect fill="#E3E3E3" height="41.24" rx="2.5" ry="2.5" style="stroke:#181818;stroke-width:0.5;" width="68" x="652.5" y="778.2597"/><text fill="#000000" font-family="Times" font-size="10" lengthAdjust="spacing" textLength="49" x="662" y="795.9497">repository</text><text fill="#000000" font-family="Times" font-size="10" lengthAdjust="spacing" textLength="54" x="659.5" y="809.5697">:Repository</text><rect fill="#E3E3E3" height="41.24" rx="2.5" ry="2.5" style="stroke:#181818;stroke-width:0.5;" width="45" x="810" y="778.2597"/><text fill="#000000" font-family="Times" font-size="10" lengthAdjust="spacing" textLength="28" x="818.5" y="795.9497">entity</text><text fill="#000000" font-family="Times" font-size="10" lengthAdjust="spacing" textLength="31" x="817" y="809.5697">:Entity</text><rect fill="#FFFFFF" height="672.6397" style="stroke:#181818;stroke-width:1.0;" width="10" x="14" y="88.62"/><rect fill="#FFFFFF" height="66.24" style="stroke:#181818;stroke-width:1.0;" width="10" x="212" y="108.24"/><rect fill="#FFFFFF" height="27.62" style="stroke:#181818;stroke-width:1.0;" width="10" x="212" y="202.0999"/><rect fill="#FFFFFF" height="503.9198" style="stroke:#181818;stroke-width:1.0;" width="10" x="212" y="257.3399"/><rect fill="#FFFFFF" height="448.6798" style="stroke:#181818;stroke-width:1.0;" width="10" x="366" y="284.9599"/><rect fill="#FFFFFF" height="149.0999" style="stroke:#181818;stroke-width:1.0;" width="10" x="371" y="320.5799"/><rect fill="#FFFFFF" height="27.62" style="stroke:#181818;stroke-width:1.0;" width="10" x="473" y="353.1999"/><rect fill="#FFFFFF" height="27.62" style="stroke:#181818;stroke-width:1.0;" width="10" x="586" y="408.4398"/><rect fill="#FFFFFF" height="201.7199" style="stroke:#181818;stroke-width:1.0;" width="10" x="681.5" y="504.2998"/><rect fill="#FFFFFF" height="79.24" style="stroke:#181818;stroke-width:1.0;" width="10" x="686.5" y="592.1598"/><rect fill="#FFFFFF" height="38.62" style="stroke:#181818;stroke-width:1.0;" width="10" x="691.5" y="632.7798"/><polygon fill="#181818" points="200,104.24,210,108.24,200,112.24,204,108.24" style="stroke:#181818;stroke-width:1.0;"/><line style="stroke:#181818;stroke-width:1.0;" x1="24" x2="206" y1="108.24" y2="108.24"/><text fill="#000000" font-family="Times" font-size="10" font-weight="bold" lengthAdjust="spacing" textLength="6" x="31" y="103.31">1</text><text fill="#000000" font-family="Times" font-size="10" lengthAdjust="spacing" textLength="159" x="41" y="103.31">requests to register a new entity</text><polygon fill="#181818" points="326.5,131.86,336.5,135.86,326.5,139.86,330.5,135.86" style="stroke:#181818;stroke-width:1.0;"/><line style="stroke:#181818;stroke-width:1.0;" x1="222" x2="332.5" y1="135.86" y2="135.86"/><text fill="#000000" font-family="Times" font-size="10" font-weight="bold" lengthAdjust="spacing" textLength="6" x="229" y="130.93">2</text><text fill="#000000" font-family="Times" font-size="10" lengthAdjust="spacing" textLength="31" x="239" y="130.93">create</text><rect fill="#E3E3E3" height="27.62" rx="2.5" ry="2.5" style="stroke:#181818;stroke-width:0.5;" width="65" x="338.5" y="116.24"/><text fill="#000000" font-family="Times" font-size="10" lengthAdjust="spacing" textLength="51" x="345.5" y="133.93">:Controller</text><polygon fill="#181818" points="35,170.4799,25,174.4799,35,178.4799,31,174.4799" style="stroke:#181818;stroke-width:1.0;"/><line style="stroke:#181818;stroke-width:1.0;stroke-dasharray:2.0,2.0;" x1="29" x2="216" y1="174.4799" y2="174.4799"/><text fill="#000000" font-family="Times" font-size="10" font-weight="bold" lengthAdjust="spacing" textLength="6" x="41" y="169.55">3</text><text fill="#000000" font-family="Times" font-size="10" lengthAdjust="spacing" textLength="114" x="51" y="169.55">request data (attribute)</text><polygon fill="#181818" points="200,198.0999,210,202.0999,200,206.0999,204,202.0999" style="stroke:#181818;stroke-width:1.0;"/><line style="stroke:#181818;stroke-width:1.0;" x1="24" x2="206" y1="202.0999" y2="202.0999"/><text fill="#000000" font-family="Times" font-size="10" font-weight="bold" lengthAdjust="spacing" textLength="6" x="31" y="197.1699">4</text><text fill="#000000" font-family="Times" font-size="10" lengthAdjust="spacing" textLength="118" x="41" y="197.1699">provides data (attribute)</text><polygon fill="#181818" points="35,225.7199,25,229.7199,35,233.7199,31,229.7199" style="stroke:#181818;stroke-width:1.0;"/><line style="stroke:#181818;stroke-width:1.0;stroke-dasharray:2.0,2.0;" x1="29" x2="216" y1="229.7199" y2="229.7199"/><text fill="#000000" font-family="Times" font-size="10" font-weight="bold" lengthAdjust="spacing" textLength="6" x="41" y="224.7899">5</text><text fill="#000000" font-family="Times" font-size="10" lengthAdjust="spacing" textLength="130" x="51" y="224.7899">show data for confirmation</text><polygon fill="#181818" points="200,253.3399,210,257.3399,200,261.3399,204,257.3399" style="stroke:#181818;stroke-width:1.0;"/><line style="stroke:#181818;stroke-width:1.0;" x1="24" x2="206" y1="257.3399" y2="257.3399"/><text fill="#000000" font-family="Times" font-size="10" font-weight="bold" lengthAdjust="spacing" textLength="6" x="31" y="252.4099">6</text><text fill="#000000" font-family="Times" font-size="10" lengthAdjust="spacing" textLength="66" x="41" y="252.4099">confirms data</text><polygon fill="#181818" points="354,280.9599,364,284.9599,354,288.9599,358,284.9599" style="stroke:#181818;stroke-width:1.0;"/><line style="stroke:#181818;stroke-width:1.0;" x1="222" x2="360" y1="284.9599" y2="284.9599"/><text fill="#000000" font-family="Times" font-size="10" font-weight="bold" lengthAdjust="spacing" textLength="6" x="229" y="280.0299">7</text><text fill="#000000" font-family="Times" font-size="10" lengthAdjust="spacing" textLength="115" x="239" y="280.0299">registerEntity(attribute)</text><line style="stroke:#181818;stroke-width:1.0;" x1="376" x2="423" y1="307.5799" y2="307.5799"/><line style="stroke:#181818;stroke-width:1.0;" x1="423" x2="423" y1="307.5799" y2="320.5799"/><line style="stroke:#181818;stroke-width:1.0;" x1="382" x2="423" y1="320.5799" y2="320.5799"/><polygon fill="#181818" points="392,316.5799,382,320.5799,392,324.5799,388,320.5799" style="stroke:#181818;stroke-width:1.0;"/><text fill="#000000" font-family="Times" font-size="10" font-weight="bold" lengthAdjust="spacing" textLength="6" x="388" y="302.6499">8</text><text fill="#000000" font-family="Times" font-size="10" lengthAdjust="spacing" textLength="73" x="398" y="302.6499">getRepository()</text><polygon fill="#181818" points="461,349.1999,471,353.1999,461,357.1999,465,353.1999" style="stroke:#181818;stroke-width:1.0;"/><line style="stroke:#181818;stroke-width:1.0;" x1="381" x2="467" y1="353.1999" y2="353.1999"/><text fill="#000000" font-family="Times" font-size="10" font-weight="bold" lengthAdjust="spacing" textLength="6" x="388" y="348.2699">9</text><text fill="#000000" font-family="Times" font-size="10" lengthAdjust="spacing" textLength="63" x="398" y="348.2699">getInstance()</text><polygon fill="#181818" points="392,376.8199,382,380.8199,392,384.8199,388,380.8199" style="stroke:#181818;stroke-width:1.0;"/><line style="stroke:#181818;stroke-width:1.0;stroke-dasharray:2.0,2.0;" x1="386" x2="477" y1="380.8199" y2="380.8199"/><text fill="#000000" font-family="Times" font-size="10" font-weight="bold" lengthAdjust="spacing" textLength="12" x="398" y="375.8899">10</text><text fill="#000000" font-family="Times" font-size="10" lengthAdjust="spacing" textLength="33" x="414" y="375.8899">factory</text><polygon fill="#181818" points="574,404.4398,584,408.4398,574,412.4398,578,408.4398" style="stroke:#181818;stroke-width:1.0;"/><line style="stroke:#181818;stroke-width:1.0;" x1="381" x2="580" y1="408.4398" y2="408.4398"/><text fill="#000000" font-family="Times" font-size="10" font-weight="bold" lengthAdjust="spacing" textLength="12" x="388" y="403.5099">11</text><text fill="#000000" font-family="Times" font-size="10" lengthAdjust="spacing" textLength="73" x="404" y="403.5099">getRepository()</text><polygon fill="#181818" points="392,432.0598,382,436.0598,392,440.0598,388,436.0598" style="stroke:#181818;stroke-width:1.0;"/><line style="stroke:#181818;stroke-width:1.0;stroke-dasharray:2.0,2.0;" x1="386" x2="590" y1="436.0598" y2="436.0598"/><text fill="#000000" font-family="Times" font-size="10" font-weight="bold" lengthAdjust="spacing" textLength="12" x="398" y="431.1298">12</text><text fill="#000000" font-family="Times" font-size="10" lengthAdjust="spacing" textLength="49" x="414" y="431.1298">repository</text><line style="stroke:#181818;stroke-width:1.0;stroke-dasharray:2.0,2.0;" x1="381" x2="423" y1="468.6798" y2="468.6798"/><line style="stroke:#181818;stroke-width:1.0;stroke-dasharray:2.0,2.0;" x1="423" x2="423" y1="468.6798" y2="481.6798"/><line style="stroke:#181818;stroke-width:1.0;stroke-dasharray:2.0,2.0;" x1="376" x2="423" y1="481.6798" y2="481.6798"/><polygon fill="#181818" points="386,477.6798,376,481.6798,386,485.6798,382,481.6798" style="stroke:#181818;stroke-width:1.0;"/><text fill="#000000" font-family="Times" font-size="10" font-weight="bold" lengthAdjust="spacing" textLength="12" x="388" y="463.7498">13</text><text fill="#000000" font-family="Times" font-size="10" lengthAdjust="spacing" textLength="49" x="404" y="463.7498">repository</text><polygon fill="#181818" points="669.5,500.2998,679.5,504.2998,669.5,508.2998,673.5,504.2998" style="stroke:#181818;stroke-width:1.0;"/><line style="stroke:#181818;stroke-width:1.0;" x1="376" x2="675.5" y1="504.2998" y2="504.2998"/><text fill="#000000" font-family="Times" font-size="10" font-weight="bold" lengthAdjust="spacing" textLength="12" x="383" y="499.3698">14</text><text fill="#000000" font-family="Times" font-size="10" lengthAdjust="spacing" textLength="115" x="399" y="499.3698">registerEntity(attribute)</text><polygon fill="#181818" points="798,527.9198,808,531.9198,798,535.9198,802,531.9198" style="stroke:#181818;stroke-width:1.0;"/><line style="stroke:#181818;stroke-width:1.0;" x1="691.5" x2="804" y1="531.9198" y2="531.9198"/><text fill="#000000" font-family="Times" font-size="10" font-weight="bold" lengthAdjust="spacing" textLength="12" x="698.5" y="526.9898">15</text><text fill="#000000" font-family="Times" font-size="10" lengthAdjust="spacing" textLength="31" x="714.5" y="526.9898">create</text><rect fill="#E3E3E3" height="41.24" rx="2.5" ry="2.5" style="stroke:#181818;stroke-width:0.5;" width="45" x="810" y="512.2998"/><text fill="#000000" font-family="Times" font-size="10" lengthAdjust="spacing" textLength="28" x="818.5" y="529.9898">entity</text><text fill="#000000" font-family="Times" font-size="10" lengthAdjust="spacing" textLength="31" x="817" y="543.6098">:Entity</text><line style="stroke:#181818;stroke-width:1.0;" x1="691.5" x2="738.5" y1="579.1598" y2="579.1598"/><line style="stroke:#181818;stroke-width:1.0;" x1="738.5" x2="738.5" y1="579.1598" y2="592.1598"/><line style="stroke:#181818;stroke-width:1.0;" x1="697.5" x2="738.5" y1="592.1598" y2="592.1598"/><polygon fill="#181818" points="707.5,588.1598,697.5,592.1598,707.5,596.1598,703.5,592.1598" style="stroke:#181818;stroke-width:1.0;"/><text fill="#000000" font-family="Times" font-size="10" font-weight="bold" lengthAdjust="spacing" textLength="12" x="703.5" y="574.2298">16</text><text fill="#000000" font-family="Times" font-size="10" lengthAdjust="spacing" textLength="80" x="719.5" y="574.2298">addEntity(entity)</text><line style="stroke:#181818;stroke-width:1.0;" x1="696.5" x2="743.5" y1="619.7798" y2="619.7798"/><line style="stroke:#181818;stroke-width:1.0;" x1="743.5" x2="743.5" y1="619.7798" y2="632.7798"/><line style="stroke:#181818;stroke-width:1.0;" x1="702.5" x2="743.5" y1="632.7798" y2="632.7798"/><polygon fill="#181818" points="712.5,628.7798,702.5,632.7798,712.5,636.7798,708.5,632.7798" style="stroke:#181818;stroke-width:1.0;"/><text fill="#000000" font-family="Times" font-size="10" font-weight="bold" lengthAdjust="spacing" textLength="12" x="708.5" y="614.8498">17</text><text fill="#000000" font-family="Times" font-size="10" lengthAdjust="spacing" textLength="101" x="724.5" y="614.8498">validateEntity(entity)</text><line style="stroke:#181818;stroke-width:1.0;stroke-dasharray:2.0,2.0;" x1="701.5" x2="743.5" y1="670.3997" y2="670.3997"/><line style="stroke:#181818;stroke-width:1.0;stroke-dasharray:2.0,2.0;" x1="743.5" x2="743.5" y1="670.3997" y2="683.3997"/><line style="stroke:#181818;stroke-width:1.0;stroke-dasharray:2.0,2.0;" x1="696.5" x2="743.5" y1="683.3997" y2="683.3997"/><polygon fill="#181818" points="706.5,679.3997,696.5,683.3997,706.5,687.3997,702.5,683.3997" style="stroke:#181818;stroke-width:1.0;"/><text fill="#000000" font-family="Times" font-size="10" font-weight="bold" lengthAdjust="spacing" textLength="12" x="708.5" y="665.4698">18</text><text fill="#000000" font-family="Times" font-size="10" lengthAdjust="spacing" textLength="3" x="724.5" y="665.4698"> </text><polygon fill="#181818" points="387,702.0197,377,706.0197,387,710.0197,383,706.0197" style="stroke:#181818;stroke-width:1.0;"/><line style="stroke:#181818;stroke-width:1.0;stroke-dasharray:2.0,2.0;" x1="381" x2="685.5" y1="706.0197" y2="706.0197"/><text fill="#000000" font-family="Times" font-size="10" font-weight="bold" lengthAdjust="spacing" textLength="12" x="393" y="701.0897">19</text><text fill="#000000" font-family="Times" font-size="10" lengthAdjust="spacing" textLength="28" x="409" y="701.0897">entity</text><polygon fill="#181818" points="233,729.6397,223,733.6397,233,737.6397,229,733.6397" style="stroke:#181818;stroke-width:1.0;"/><line style="stroke:#181818;stroke-width:1.0;stroke-dasharray:2.0,2.0;" x1="227" x2="370" y1="733.6397" y2="733.6397"/><text fill="#000000" font-family="Times" font-size="10" font-weight="bold" lengthAdjust="spacing" textLength="12" x="239" y="728.7097">20</text><text fill="#000000" font-family="Times" font-size="10" lengthAdjust="spacing" textLength="28" x="255" y="728.7097">entity</text><polygon fill="#181818" points="30,757.2597,20,761.2597,30,765.2597,26,761.2597" style="stroke:#181818;stroke-width:1.0;"/><line style="stroke:#181818;stroke-width:1.0;stroke-dasharray:2.0,2.0;" x1="24" x2="216" y1="761.2597" y2="761.2597"/><text fill="#000000" font-family="Times" font-size="10" font-weight="bold" lengthAdjust="spacing" textLength="12" x="36" y="756.3297">21</text><text fill="#000000" font-family="Times" font-size="10" lengthAdjust="spacing" textLength="116" x="52" y="756.3297">shows success message</text><!--SRC=[ZLLVY-8m47_lfnXysbqGxbxtuM0H1U5m3wqF2mT7DXqrs2PUaYhUfxynYJRjfjeyHVFxCvcPJCrUo0FJh2eLtsC11MvONTgPadR1AeHSL6WoquzQYNy8txyr4AYKL7od5R6jhZ4wEJ2-PrjSsNE9e95R9hTb330xLgYJa5lOiD9Wbh7QAbbNdwXfpwtIC5eRr2DW1juc-Vio8w8LN1oOj31wNS_TqNhU-Nz2aMfLbe4woPS_EuWb7fGHv72UEQEp0ywSoKSRk_60t_8-wSzyiShV5fDfcwrld9Q0OowdlzxRQ9HMs0jowZOEDLtay_p39KGScSMGYGnekIsCVr0Au9Lo_BT6OmrOHVkjC1OrC91u0Y_iIJSXoXk4HNnIkIJgvOMKk4O2PArZElTsDoCec6NmnApLuhEs-Epm1SO6YJ0FMXr5WIPDxuikiZSxTVBa3RK8Lt8ZTCMiK79O087X0nYG4dTZdqvVbsxCBGdNRH0j9z58RT4sVV3qt8BsYyH2eUEyrbmQUbWSEqejjMjVGs9TnSPDXA7Zly2Zn5uL7yLuUnKFBfuAjtbHT-9k3CPnjQus0-xGsFHSvg5kfEdgbgp-vR4FQgHMAjo8w8Rbf4ZIJuRaW-r2WpihYc3i1yAT8YIT4v97LWfwH_X0TvXsenyCagWetqbCzpphjGXr3TDniCQjBzmuwR1xko4nnGoOcdCq1kYxQ-XZcHfWqKy_-ly3]--></g></svg>