<?xml version="1.0" encoding="UTF-8" standalone="no"?><svg xmlns="http://www.w3.org/2000/svg" xmlns:xlink="http://www.w3.org/1999/xlink" contentStyleType="text/css" height="418px" preserveAspectRatio="none" style="width:554px;height:418px;background:#FFFFFF;" version="1.1" viewBox="0 0 554 418" width="554px" zoomAndPan="magnify"><defs/><g><!--class Entity--><g id="elem_Entity"><rect codeLine="6" fill="#F1F1F1" height="84.86" id="Entity" rx="2.5" ry="2.5" style="stroke:#181818;stroke-width:0.5;" width="146" x="186" y="327"/><ellipse cx="241.25" cy="341" fill="#ADD1B2" rx="9" ry="9" style="stroke:#181818;stroke-width:1.0;"/><path d="M242.5313,344.2969 Q242.1875,344.4688 241.8125,344.5469 Q241.4375,344.6406 241.0156,344.6406 Q239.5469,344.6406 238.7656,343.6719 Q238,342.7031 238,340.8594 Q238,339.0156 238.7656,338.0469 Q239.5469,337.0781 241.0156,337.0781 Q241.4375,337.0781 241.8125,337.1719 Q242.2031,337.25 242.5313,337.4219 L242.5313,339.0313 Q242.1563,338.6875 241.7969,338.5313 Q241.4531,338.375 241.0938,338.375 Q240.2969,338.375 239.8906,339 Q239.4844,339.625 239.4844,340.8594 Q239.4844,342.0938 239.8906,342.7188 Q240.2969,343.3438 241.0938,343.3438 Q241.4531,343.3438 241.7969,343.1875 Q242.1563,343.0313 242.5313,342.6875 L242.5313,344.2969 Z " fill="#000000"/><text fill="#000000" font-family="Times" font-size="10" lengthAdjust="spacing" textLength="28" x="258.75" y="344.88">Entity</text><line style="stroke:#181818;stroke-width:0.5;" x1="187" x2="331" y1="355" y2="355"/><text fill="#000000" font-family="Times" font-size="10" lengthAdjust="spacing" textLength="77" x="192" y="369.69">-String attribute</text><line style="stroke:#181818;stroke-width:0.5;" x1="187" x2="331" y1="376.62" y2="376.62"/><text fill="#000000" font-family="Times" font-size="10" lengthAdjust="spacing" textLength="83" x="192" y="391.31">+Entity(attribute)</text><text fill="#000000" font-family="Times" font-size="10" lengthAdjust="spacing" textLength="134" x="192" y="404.93">-validateAttribute(attribute)</text></g><!--class Repository--><g id="elem_Repository"><rect codeLine="12" fill="#F1F1F1" height="84.86" id="Repository" rx="2.5" ry="2.5" style="stroke:#181818;stroke-width:0.5;" width="133" x="192.5" y="167"/><ellipse cx="229.8" cy="181" fill="#ADD1B2" rx="9" ry="9" style="stroke:#181818;stroke-width:1.0;"/><path d="M231.0813,184.2969 Q230.7375,184.4688 230.3625,184.5469 Q229.9875,184.6406 229.5656,184.6406 Q228.0969,184.6406 227.3156,183.6719 Q226.55,182.7031 226.55,180.8594 Q226.55,179.0156 227.3156,178.0469 Q228.0969,177.0781 229.5656,177.0781 Q229.9875,177.0781 230.3625,177.1719 Q230.7531,177.25 231.0813,177.4219 L231.0813,179.0313 Q230.7063,178.6875 230.3469,178.5313 Q230.0031,178.375 229.6438,178.375 Q228.8469,178.375 228.4406,179 Q228.0344,179.625 228.0344,180.8594 Q228.0344,182.0938 228.4406,182.7188 Q228.8469,183.3438 229.6438,183.3438 Q230.0031,183.3438 230.3469,183.1875 Q230.7063,183.0313 231.0813,182.6875 L231.0813,184.2969 Z " fill="#000000"/><text fill="#000000" font-family="Times" font-size="10" lengthAdjust="spacing" textLength="51" x="247.2" y="184.88">Repository</text><line style="stroke:#181818;stroke-width:0.5;" x1="193.5" x2="324.5" y1="195" y2="195"/><line style="stroke:#181818;stroke-width:0.5;" x1="193.5" x2="324.5" y1="203" y2="203"/><text fill="#000000" font-family="Times" font-size="10" lengthAdjust="spacing" textLength="121" x="198.5" y="217.69">+registerEntity(attribute)</text><text fill="#000000" font-family="Times" font-size="10" lengthAdjust="spacing" textLength="83" x="198.5" y="231.31">-addEntity(entity)</text><text fill="#000000" font-family="Times" font-size="10" lengthAdjust="spacing" textLength="104" x="198.5" y="244.93">-validateEntity(entity)</text></g><!--class RepositoryFactory--><g id="elem_RepositoryFactory"><rect codeLine="18" fill="#F1F1F1" height="84.86" id="RepositoryFactory" rx="2.5" ry="2.5" style="stroke:#181818;stroke-width:0.5;" width="176" x="283" y="7"/><ellipse cx="324.25" cy="21" fill="#ADD1B2" rx="9" ry="9" style="stroke:#181818;stroke-width:1.0;"/><path d="M325.5313,24.2969 Q325.1875,24.4688 324.8125,24.5469 Q324.4375,24.6406 324.0156,24.6406 Q322.5469,24.6406 321.7656,23.6719 Q321,22.7031 321,20.8594 Q321,19.0156 321.7656,18.0469 Q322.5469,17.0781 324.0156,17.0781 Q324.4375,17.0781 324.8125,17.1719 Q325.2031,17.25 325.5313,17.4219 L325.5313,19.0313 Q325.1563,18.6875 324.7969,18.5313 Q324.4531,18.375 324.0938,18.375 Q323.2969,18.375 322.8906,19 Q322.4844,19.625 322.4844,20.8594 Q322.4844,22.0938 322.8906,22.7188 Q323.2969,23.3438 324.0938,23.3438 Q324.4531,23.3438 324.7969,23.1875 Q325.1563,23.0313 325.5313,22.6875 L325.5313,24.2969 Z " fill="#000000"/><text fill="#000000" font-family="Times" font-size="10" lengthAdjust="spacing" textLength="86" x="341.75" y="24.88">RepositoryFactory</text><line style="stroke:#181818;stroke-width:0.5;" x1="284" x2="458" y1="35" y2="35"/><line style="stroke:#181818;stroke-width:0.5;" x1="284" x2="458" y1="43" y2="43"/><text fill="#000000" font-family="Times" font-size="10" lengthAdjust="spacing" textLength="95" x="289" y="57.69">-RepositoryFactory()</text><text fill="#000000" font-family="Times" font-size="10" lengthAdjust="spacing" textLength="164" x="289" y="71.31">+getInstance() : RepositoryFactory</text><text fill="#000000" font-family="Times" font-size="10" lengthAdjust="spacing" textLength="79" x="289" y="84.93">+getRepository()</text></g><!--class Controller--><g id="elem_Controller"><rect codeLine="24" fill="#F1F1F1" height="71.24" id="Controller" rx="2.5" ry="2.5" style="stroke:#181818;stroke-width:0.5;" width="133" x="80.5" y="14"/><ellipse cx="119.25" cy="28" fill="#ADD1B2" rx="9" ry="9" style="stroke:#181818;stroke-width:1.0;"/><path d="M120.5313,31.2969 Q120.1875,31.4688 119.8125,31.5469 Q119.4375,31.6406 119.0156,31.6406 Q117.5469,31.6406 116.7656,30.6719 Q116,29.7031 116,27.8594 Q116,26.0156 116.7656,25.0469 Q117.5469,24.0781 119.0156,24.0781 Q119.4375,24.0781 119.8125,24.1719 Q120.2031,24.25 120.5313,24.4219 L120.5313,26.0313 Q120.1563,25.6875 119.7969,25.5313 Q119.4531,25.375 119.0938,25.375 Q118.2969,25.375 117.8906,26 Q117.4844,26.625 117.4844,27.8594 Q117.4844,29.0938 117.8906,29.7188 Q118.2969,30.3438 119.0938,30.3438 Q119.4531,30.3438 119.7969,30.1875 Q120.1563,30.0313 120.5313,29.6875 L120.5313,31.2969 Z " fill="#000000"/><text fill="#000000" font-family="Times" font-size="10" lengthAdjust="spacing" textLength="48" x="136.75" y="31.88">Controller</text><line style="stroke:#181818;stroke-width:0.5;" x1="81.5" x2="212.5" y1="42" y2="42"/><line style="stroke:#181818;stroke-width:0.5;" x1="81.5" x2="212.5" y1="50" y2="50"/><text fill="#000000" font-family="Times" font-size="10" lengthAdjust="spacing" textLength="109" x="86.5" y="64.69">+Controller(repository)</text><text fill="#000000" font-family="Times" font-size="10" lengthAdjust="spacing" textLength="121" x="86.5" y="78.31">+registerEntity(attribute)</text></g><!--class UI--><g id="elem_UI"><rect codeLine="29" fill="#F1F1F1" height="44" id="UI" rx="2.5" ry="2.5" style="stroke:#181818;stroke-width:0.5;" width="38" x="7" y="27.5"/><ellipse cx="20" cy="41.5" fill="#ADD1B2" rx="9" ry="9" style="stroke:#181818;stroke-width:1.0;"/><path d="M21.2813,44.7969 Q20.9375,44.9688 20.5625,45.0469 Q20.1875,45.1406 19.7656,45.1406 Q18.2969,45.1406 17.5156,44.1719 Q16.75,43.2031 16.75,41.3594 Q16.75,39.5156 17.5156,38.5469 Q18.2969,37.5781 19.7656,37.5781 Q20.1875,37.5781 20.5625,37.6719 Q20.9531,37.75 21.2813,37.9219 L21.2813,39.5313 Q20.9063,39.1875 20.5469,39.0313 Q20.2031,38.875 19.8438,38.875 Q19.0469,38.875 18.6406,39.5 Q18.2344,40.125 18.2344,41.3594 Q18.2344,42.5938 18.6406,43.2188 Q19.0469,43.8438 19.8438,43.8438 Q20.2031,43.8438 20.5469,43.6875 Q20.9063,43.5313 21.2813,43.1875 L21.2813,44.7969 Z " fill="#000000"/><text fill="#000000" font-family="Times" font-size="10" lengthAdjust="spacing" textLength="10" x="32" y="45.38">UI</text><line style="stroke:#181818;stroke-width:0.5;" x1="8" x2="44" y1="55.5" y2="55.5"/><line style="stroke:#181818;stroke-width:0.5;" x1="8" x2="44" y1="63.5" y2="63.5"/></g><!--link UI to Controller--><g id="link_UI_Controller"><path codeLine="32" d="M45.22,49.5 C55.61,49.5 66.33,49.5 66.33,49.5 C66.33,49.5 70.09,49.5 75.3,49.5 " fill="none" id="UI-to-Controller" style="stroke:#181818;stroke-width:1.0;stroke-dasharray:7.0,7.0;"/><polygon fill="#181818" points="80.44,49.5,71.44,45.5,75.44,49.5,71.44,53.5,80.44,49.5" style="stroke:#181818;stroke-width:1.0;"/></g><!--link Controller to RepositoryFactory--><g id="link_Controller_RepositoryFactory"><path codeLine="34" d="M213.6,49.5 C233.66,49.5 256.05,49.5 277.52,49.5 " fill="none" id="Controller-to-RepositoryFactory" style="stroke:#181818;stroke-width:1.0;stroke-dasharray:7.0,7.0;"/><polygon fill="#181818" points="282.66,49.5,273.66,45.5,277.66,49.5,273.66,53.5,282.66,49.5" style="stroke:#181818;stroke-width:1.0;"/><text fill="#000000" font-family="Times" font-size="10" lengthAdjust="spacing" textLength="33" x="231.75" y="43.19">factory</text></g><!--link RepositoryFactory to Repository--><g id="link_RepositoryFactory_Repository"><path codeLine="35" d="M341.57,92.01 C326.14,113.79 307.19,140.51 291.35,162.87 " fill="none" id="RepositoryFactory-to-Repository" style="stroke:#181818;stroke-width:1.0;"/><polygon fill="#181818" points="288.42,166.99,296.8877,161.9603,291.3113,162.9107,290.3609,157.3343,288.42,166.99" style="stroke:#181818;stroke-width:1.0;"/><text fill="#000000" font-family="Times" font-size="10" lengthAdjust="spacing" textLength="6" x="287.1261" y="156.0178">1</text></g><!--link RepositoryFactory to RepositoryFactory--><g id="link_RepositoryFactory_RepositoryFactory"><path codeLine="36" d="M459.18,34.85 C479.27,36.14 494,41.02 494,49.5 C494,57.25 481.69,61.99 464.23,63.74 " fill="none" id="RepositoryFactory-to-RepositoryFactory" style="stroke:#181818;stroke-width:1.0;"/><polygon fill="#181818" points="459.18,64.15,468.4711,67.4174,464.164,63.7501,467.8313,59.4431,459.18,64.15" style="stroke:#181818;stroke-width:1.0;"/><text fill="#000000" font-family="Times" font-size="10" lengthAdjust="spacing" textLength="41" x="500" y="53.69">instance</text></g><!--link Controller to Repository--><g id="link_Controller_Repository"><path codeLine="38" d="M171.58,85.17 C187.71,107.93 208.98,137.94 226.51,162.66 " fill="none" id="Controller-to-Repository" style="stroke:#181818;stroke-width:1.0;stroke-dasharray:7.0,7.0;"/><polygon fill="#181818" points="229.51,166.89,227.5466,157.2388,226.6092,162.8175,221.0306,161.8801,229.51,166.89" style="stroke:#181818;stroke-width:1.0;"/><text fill="#000000" font-family="Times" font-size="10" lengthAdjust="spacing" textLength="49" x="208" y="133.69">repository</text></g><!--link Repository to Entity--><g id="link_Repository_Entity"><path codeLine="40" d="M259,252.01 C259,273.43 259,299.63 259,321.75 " fill="none" id="Repository-to-Entity" style="stroke:#181818;stroke-width:1.0;"/><polygon fill="#181818" points="259,326.99,263,317.99,259,321.99,255,317.99,259,326.99" style="stroke:#181818;stroke-width:1.0;"/><text fill="#000000" font-family="Times" font-size="10" lengthAdjust="spacing" textLength="38" x="260" y="293.69">register</text><text fill="#000000" font-family="Times" font-size="10" lengthAdjust="spacing" textLength="6" x="252.4656" y="316.0178">1</text></g><!--SRC=[XL91JiCm4Bpx5QkU4bMfsciEbH2YKYySA3nWSRR1gcj7zXOK47_7XDHncrJaOdbdTcPdOtzGfa67HstbWIgeQ8ydpHjh-16F1C_gI5xuswoT-YHOBGSAD2WFMDEEMqtWI3AQMbD2y6zOsGzbQjYZzYcYbI5k6uB6wlRtac1Ie_Ttp4wzdfYsqfhEUYb4Xy23OSKjV0a8Nm6xG0mEU6xeolEUbSLotjFVKQiAcQ91Ila-UpnHOxrYwyu-yn2mLfx9tHB6gkeXwevhmojmmcg3Cd4inaYMzxFKn5lZmxubPJcKO-R06w0iCRqFFzHPhSd5V4CfSx4d_pTyb7pP1gbm2-TYdQW9aPW5P9ot3C_ZR-enLXHhcArcITSKQLfLzIkwdE1YXC0Qmef4EXhthwsCAn0_]--></g></svg>