<svg xmlns="http://www.w3.org/2000/svg" xmlns:xlink="http://www.w3.org/1999/xlink" contentStyleType="text/css" data-diagram-type="CLASS" height="1018px" preserveAspectRatio="none" style="width:846px;height:1018px;background:#FFFFFF;" version="1.1" viewBox="0 0 846 1018" width="846px" zoomAndPan="magnify"><title>US2.2.1 - Domain Model (Vessel Type Management)</title><defs/><g><g class="title" data-source-line="11"><text fill="#000000" font-family="sans-serif" font-size="14" font-weight="bold" lengthAdjust="spacing" textLength="373.5361" x="229.4819" y="23.5352">US2.2.1 - Domain Model (Vessel Type Management)</text></g><!--cluster VTC--><g class="cluster" data-entity="VTC" data-source-line="13" data-uid="ent0002" id="cluster_VTC"><path d="M8.5,43.4883 L156.5342,43.4883 A3.75,3.75 0 0 1 159.0342,45.9883 L166.0342,65.9766 L658.5,65.9766 A2.5,2.5 0 0 1 661,68.4766 L661,1009.1283 A2.5,2.5 0 0 1 658.5,1011.6283 L8.5,1011.6283 A2.5,2.5 0 0 1 6,1009.1283 L6,45.9883 A2.5,2.5 0 0 1 8.5,43.4883" fill="none" style="stroke:#000000;stroke-width:1.5;"/><line style="stroke:#000000;stroke-width:1.5;" x1="6" x2="166.0342" y1="65.9766" y2="65.9766"/><text fill="#000000" font-family="sans-serif" font-size="14" font-weight="bold" lengthAdjust="spacing" textLength="147.0342" x="10" y="59.0234">Vessel Type Context</text></g><!--class VesselType--><g class="entity" data-entity="VesselType" data-source-line="18" data-uid="ent0003" id="entity_VesselType"><rect fill="#F1F1F1" height="240.3477" rx="2.5" ry="2.5" style="stroke:#181818;stroke-width:0.5;" width="371.1875" x="257.41" y="627.3083"/><text fill="#000000" font-family="sans-serif" font-size="14" lengthAdjust="spacing" textLength="75.8516" x="405.078" y="645.8434">VesselType</text><line style="stroke:#181818;stroke-width:0.5;" x1="258.41" x2="627.5975" y1="653.7966" y2="653.7966"/><rect fill="none" height="6" style="stroke:#595959;stroke-width:1;" width="6" x="265.41" y="664.5407"/><text fill="#000000" font-family="sans-serif" font-size="14" lengthAdjust="spacing" textLength="91.7998" x="277.41" y="671.3317">Name : string</text><rect fill="none" height="6" style="stroke:#595959;stroke-width:1;" width="6" x="265.41" y="681.029"/><text fill="#000000" font-family="sans-serif" font-size="14" lengthAdjust="spacing" textLength="130.6074" x="277.41" y="687.82">Description : string</text><rect fill="none" height="6" style="stroke:#595959;stroke-width:1;" width="6" x="265.41" y="697.5173"/><text fill="#000000" font-family="sans-serif" font-size="14" lengthAdjust="spacing" textLength="89.8721" x="277.41" y="704.3083">MaxBays : int</text><rect fill="none" height="6" style="stroke:#595959;stroke-width:1;" width="6" x="265.41" y="714.0055"/><text fill="#000000" font-family="sans-serif" font-size="14" lengthAdjust="spacing" textLength="95.0127" x="277.41" y="720.7966">MaxRows : int</text><rect fill="none" height="6" style="stroke:#595959;stroke-width:1;" width="6" x="265.41" y="730.4938"/><text fill="#000000" font-family="sans-serif" font-size="14" lengthAdjust="spacing" textLength="93.2012" x="277.41" y="737.2848">MaxTiers : int</text><rect fill="none" height="6" style="stroke:#595959;stroke-width:1;" width="6" x="265.41" y="746.9821"/><text fill="#000000" font-family="sans-serif" font-size="14" lengthAdjust="spacing" textLength="101.7803" x="277.41" y="753.7731">Capacity : float</text><line style="stroke:#181818;stroke-width:1;" x1="258.41" x2="627.5975" y1="760.7263" y2="760.7263"/><ellipse cx="268.41" cy="774.4704" fill="#A6A6A6" rx="3" ry="3" style="stroke:#545454;stroke-width:1;"/><text fill="#000000" font-family="sans-serif" font-size="14" lengthAdjust="spacing" textLength="136.6641" x="277.41" y="778.2614">ChangeName(name)</text><ellipse cx="268.41" cy="790.9587" fill="#A6A6A6" rx="3" ry="3" style="stroke:#545454;stroke-width:1;"/><text fill="#000000" font-family="sans-serif" font-size="14" lengthAdjust="spacing" textLength="214.2588" x="277.41" y="794.7497">ChangeDescription(description)</text><ellipse cx="268.41" cy="807.447" fill="#A6A6A6" rx="3" ry="3" style="stroke:#545454;stroke-width:1;"/><text fill="#000000" font-family="sans-serif" font-size="14" lengthAdjust="spacing" textLength="345.1875" x="277.41" y="811.238">ChangeDimensions(maxBays, maxRows, maxTiers)</text><ellipse cx="268.41" cy="823.9352" fill="#A6A6A6" rx="3" ry="3" style="stroke:#545454;stroke-width:1;"/><text fill="#000000" font-family="sans-serif" font-size="14" lengthAdjust="spacing" textLength="150.0352" x="277.41" y="827.7263">ChangeMaxBays(bays)</text><ellipse cx="268.41" cy="840.4235" fill="#A6A6A6" rx="3" ry="3" style="stroke:#545454;stroke-width:1;"/><text fill="#000000" font-family="sans-serif" font-size="14" lengthAdjust="spacing" textLength="156.4336" x="277.41" y="844.2145">ChangeMaxRows(rows)</text><ellipse cx="268.41" cy="856.9118" fill="#A6A6A6" rx="3" ry="3" style="stroke:#545454;stroke-width:1;"/><text fill="#000000" font-family="sans-serif" font-size="14" lengthAdjust="spacing" textLength="152.3184" x="277.41" y="860.7028">ChangeMaxTiers(tiers)</text></g><!--class VesselTypeId--><g class="entity" data-entity="VesselTypeId" data-source-line="34" data-uid="ent0004" id="entity_VesselTypeId"><rect fill="#F1F1F1" height="50.9766" rx="2.5" ry="2.5" style="stroke:#181818;stroke-width:0.5;" width="108.373" x="388.81" y="944.6483"/><text fill="#000000" font-family="sans-serif" font-size="14" lengthAdjust="spacing" textLength="88.6963" x="398.6484" y="963.1834">VesselTypeId</text><line style="stroke:#181818;stroke-width:0.5;" x1="389.81" x2="496.183" y1="971.1366" y2="971.1366"/><rect fill="none" height="6" style="stroke:#595959;stroke-width:1;" width="6" x="396.81" y="981.8807"/><text fill="#000000" font-family="sans-serif" font-size="14" lengthAdjust="spacing" textLength="82.373" x="408.81" y="988.6717">Value : Guid</text></g><!--class VesselTypeDto--><g class="entity" data-entity="VesselTypeDto" data-source-line="41" data-uid="ent0005" id="entity_VesselTypeDto"><rect fill="#F1F1F1" height="149.9063" rx="2.5" ry="2.5" style="stroke:#181818;stroke-width:0.5;" width="156.6074" x="24.7" y="78.4883"/><text fill="#000000" font-family="sans-serif" font-size="14" lengthAdjust="spacing" textLength="100.1738" x="52.9168" y="97.0234">VesselTypeDto</text><line style="stroke:#181818;stroke-width:0.5;" x1="25.7" x2="180.3074" y1="104.9766" y2="104.9766"/><ellipse cx="35.7" cy="118.7207" fill="none" rx="3" ry="3" style="stroke:#545454;stroke-width:1;"/><text fill="#000000" font-family="sans-serif" font-size="14" lengthAdjust="spacing" textLength="57.7979" x="44.7" y="122.5117">Id : Guid</text><ellipse cx="35.7" cy="135.209" fill="none" rx="3" ry="3" style="stroke:#545454;stroke-width:1;"/><text fill="#000000" font-family="sans-serif" font-size="14" lengthAdjust="spacing" textLength="91.7998" x="44.7" y="139">Name : string</text><ellipse cx="35.7" cy="151.6973" fill="none" rx="3" ry="3" style="stroke:#545454;stroke-width:1;"/><text fill="#000000" font-family="sans-serif" font-size="14" lengthAdjust="spacing" textLength="130.6074" x="44.7" y="155.4883">Description : string</text><ellipse cx="35.7" cy="168.1855" fill="none" rx="3" ry="3" style="stroke:#545454;stroke-width:1;"/><text fill="#000000" font-family="sans-serif" font-size="14" lengthAdjust="spacing" textLength="89.8721" x="44.7" y="171.9766">MaxBays : int</text><ellipse cx="35.7" cy="184.6738" fill="none" rx="3" ry="3" style="stroke:#545454;stroke-width:1;"/><text fill="#000000" font-family="sans-serif" font-size="14" lengthAdjust="spacing" textLength="95.0127" x="44.7" y="188.4648">MaxRows : int</text><ellipse cx="35.7" cy="201.1621" fill="none" rx="3" ry="3" style="stroke:#545454;stroke-width:1;"/><text fill="#000000" font-family="sans-serif" font-size="14" lengthAdjust="spacing" textLength="93.2012" x="44.7" y="204.9531">MaxTiers : int</text><ellipse cx="35.7" cy="217.6504" fill="none" rx="3" ry="3" style="stroke:#545454;stroke-width:1;"/><text fill="#000000" font-family="sans-serif" font-size="14" lengthAdjust="spacing" textLength="101.7803" x="44.7" y="221.4414">Capacity : float</text></g><!--class CreatingVesselTypeDto--><g class="entity" data-entity="CreatingVesselTypeDto" data-source-line="51" data-uid="ent0006" id="entity_CreatingVesselTypeDto"><rect fill="#F1F1F1" height="116.9297" rx="2.5" ry="2.5" style="stroke:#181818;stroke-width:0.5;" width="163.8213" x="216.09" y="94.9783"/><text fill="#000000" font-family="sans-serif" font-size="14" lengthAdjust="spacing" textLength="157.8213" x="219.09" y="113.5134">CreatingVesselTypeDto</text><line style="stroke:#181818;stroke-width:0.5;" x1="217.09" x2="378.9113" y1="121.4666" y2="121.4666"/><ellipse cx="227.09" cy="135.2107" fill="none" rx="3" ry="3" style="stroke:#545454;stroke-width:1;"/><text fill="#000000" font-family="sans-serif" font-size="14" lengthAdjust="spacing" textLength="91.7998" x="236.09" y="139.0017">Name : string</text><ellipse cx="227.09" cy="151.699" fill="none" rx="3" ry="3" style="stroke:#545454;stroke-width:1;"/><text fill="#000000" font-family="sans-serif" font-size="14" lengthAdjust="spacing" textLength="130.6074" x="236.09" y="155.49">Description : string</text><ellipse cx="227.09" cy="168.1873" fill="none" rx="3" ry="3" style="stroke:#545454;stroke-width:1;"/><text fill="#000000" font-family="sans-serif" font-size="14" lengthAdjust="spacing" textLength="89.8721" x="236.09" y="171.9783">MaxBays : int</text><ellipse cx="227.09" cy="184.6755" fill="none" rx="3" ry="3" style="stroke:#545454;stroke-width:1;"/><text fill="#000000" font-family="sans-serif" font-size="14" lengthAdjust="spacing" textLength="95.0127" x="236.09" y="188.4666">MaxRows : int</text><ellipse cx="227.09" cy="201.1638" fill="none" rx="3" ry="3" style="stroke:#545454;stroke-width:1;"/><text fill="#000000" font-family="sans-serif" font-size="14" lengthAdjust="spacing" textLength="93.2012" x="236.09" y="204.9548">MaxTiers : int</text></g><!--class UpdateVesselTypeDto--><g class="entity" data-entity="UpdateVesselTypeDto" data-source-line="59" data-uid="ent0007" id="entity_UpdateVesselTypeDto"><rect fill="#F1F1F1" height="116.9297" rx="2.5" ry="2.5" style="stroke:#181818;stroke-width:0.5;" width="162.5137" x="21.74" y="305.3983"/><text fill="#000000" font-family="sans-serif" font-size="14" lengthAdjust="spacing" textLength="148.2646" x="28.8645" y="323.9334">UpdateVesselTypeDto</text><line style="stroke:#181818;stroke-width:0.5;" x1="22.74" x2="183.2537" y1="331.8866" y2="331.8866"/><ellipse cx="32.74" cy="345.6307" fill="none" rx="3" ry="3" style="stroke:#545454;stroke-width:1;"/><text fill="#000000" font-family="sans-serif" font-size="14" lengthAdjust="spacing" textLength="97.7061" x="41.74" y="349.4217">Name : string?</text><ellipse cx="32.74" cy="362.119" fill="none" rx="3" ry="3" style="stroke:#545454;stroke-width:1;"/><text fill="#000000" font-family="sans-serif" font-size="14" lengthAdjust="spacing" textLength="136.5137" x="41.74" y="365.91">Description : string?</text><ellipse cx="32.74" cy="378.6073" fill="none" rx="3" ry="3" style="stroke:#545454;stroke-width:1;"/><text fill="#000000" font-family="sans-serif" font-size="14" lengthAdjust="spacing" textLength="95.7783" x="41.74" y="382.3983">MaxBays : int?</text><ellipse cx="32.74" cy="395.0955" fill="none" rx="3" ry="3" style="stroke:#545454;stroke-width:1;"/><text fill="#000000" font-family="sans-serif" font-size="14" lengthAdjust="spacing" textLength="100.9189" x="41.74" y="398.8866">MaxRows : int?</text><ellipse cx="32.74" cy="411.5838" fill="none" rx="3" ry="3" style="stroke:#545454;stroke-width:1;"/><text fill="#000000" font-family="sans-serif" font-size="14" lengthAdjust="spacing" textLength="99.1074" x="41.74" y="415.3748">MaxTiers : int?</text></g><!--class VesselTypeFactory--><g class="entity" data-entity="VesselTypeFactory" data-source-line="70" data-uid="ent0008" id="entity_VesselTypeFactory"><rect fill="#F1F1F1" height="34.4883" rx="2.5" ry="2.5" style="stroke:#181818;stroke-width:0.5;" width="131.1387" x="22.43" y="507.5683"/><text fill="#000000" font-family="sans-serif" font-size="14" lengthAdjust="spacing" textLength="125.1387" x="25.43" y="526.1034">VesselTypeFactory</text><line style="stroke:#181818;stroke-width:0.5;" x1="23.43" x2="152.5687" y1="534.0566" y2="534.0566"/></g><!--class VesselTypeMappers--><g class="entity" data-entity="VesselTypeMappers" data-source-line="74" data-uid="ent0009" id="entity_VesselTypeMappers"><rect fill="#F1F1F1" height="34.4883" rx="2.5" ry="2.5" style="stroke:#181818;stroke-width:0.5;" width="139.9297" x="189.04" y="507.5683"/><text fill="#000000" font-family="sans-serif" font-size="14" lengthAdjust="spacing" textLength="133.9297" x="192.04" y="526.1034">VesselTypeMappers</text><line style="stroke:#181818;stroke-width:0.5;" x1="190.04" x2="327.9697" y1="534.0566" y2="534.0566"/></g><!--class IVesselTypeRepository--><g class="entity" data-entity="IVesselTypeRepository" data-source-line="81" data-uid="ent0010" id="entity_IVesselTypeRepository"><rect fill="#F1F1F1" height="34.4883" rx="2.5" ry="2.5" style="stroke:#181818;stroke-width:0.5;" width="158.0107" x="363.99" y="507.5683"/><text fill="#000000" font-family="sans-serif" font-size="14" font-style="italic" lengthAdjust="spacing" textLength="152.0107" x="366.99" y="526.1034">IVesselTypeRepository</text><line style="stroke:#181818;stroke-width:0.5;" x1="364.99" x2="521.0007" y1="534.0566" y2="534.0566"/></g><!--class VesselTypeService--><g class="entity" data-entity="VesselTypeService" data-source-line="93" data-uid="ent0011" id="entity_VesselTypeService"><rect fill="#F1F1F1" height="34.4883" rx="2.5" ry="2.5" style="stroke:#181818;stroke-width:0.5;" width="129.1836" x="483.41" y="346.6183"/><text fill="#000000" font-family="sans-serif" font-size="14" lengthAdjust="spacing" textLength="123.1836" x="486.41" y="365.1534">VesselTypeService</text><line style="stroke:#181818;stroke-width:0.5;" x1="484.41" x2="611.5936" y1="373.1066" y2="373.1066"/></g><!--class VesselTypeController--><g class="entity" data-entity="VesselTypeController" data-source-line="106" data-uid="ent0012" id="entity_VesselTypeController"><rect fill="#F1F1F1" height="34.4883" rx="2.5" ry="2.5" style="stroke:#181818;stroke-width:0.5;" width="150.0127" x="472.99" y="136.1983"/><text fill="#000000" font-family="sans-serif" font-size="14" lengthAdjust="spacing" textLength="144.0127" x="475.99" y="154.7334">VesselTypeController</text><line style="stroke:#181818;stroke-width:0.5;" x1="473.99" x2="622.0027" y1="162.6866" y2="162.6866"/></g><!--class BusinessRuleValidationException--><g class="entity" data-entity="BusinessRuleValidationException" data-source-line="119" data-uid="ent0013" id="entity_BusinessRuleValidationException"><rect fill="#F1F1F1" height="34.4883" rx="2.5" ry="2.5" style="stroke:#181818;stroke-width:0.5;" width="228.6943" x="219.65" y="346.6183"/><text fill="#000000" font-family="sans-serif" font-size="14" lengthAdjust="spacing" textLength="222.6943" x="222.65" y="365.1534">BusinessRuleValidationException</text><line style="stroke:#181818;stroke-width:0.5;" x1="220.65" x2="447.3443" y1="373.1066" y2="373.1066"/></g><!--class IUnitOfWork--><g class="entity" data-entity="IUnitOfWork" data-source-line="120" data-uid="ent0014" id="entity_IUnitOfWork"><rect fill="#F1F1F1" height="34.4883" rx="2.5" ry="2.5" style="stroke:#181818;stroke-width:0.5;" width="88.2158" x="556.89" y="507.5683"/><text fill="#000000" font-family="sans-serif" font-size="14" lengthAdjust="spacing" textLength="82.2158" x="559.89" y="526.1034">IUnitOfWork</text><line style="stroke:#181818;stroke-width:0.5;" x1="557.89" x2="644.1058" y1="534.0566" y2="534.0566"/></g><!--class Vessel--><g class="entity" data-entity="Vessel" data-source-line="139" data-uid="ent0023" id="entity_Vessel"><rect fill="#F1F1F1" height="50.9766" rx="2.5" ry="2.5" style="stroke:#181818;stroke-width:0.5;" width="159" x="680.5" y="499.3283"/><text fill="#000000" font-family="sans-serif" font-size="14" lengthAdjust="spacing" textLength="43.0732" x="738.4634" y="517.8634">Vessel</text><line style="stroke:#181818;stroke-width:0.5;" x1="681.5" x2="838.5" y1="525.8166" y2="525.8166"/><rect fill="none" height="6" style="stroke:#595959;stroke-width:1;" width="6" x="688.5" y="536.5607"/><text fill="#000000" font-family="sans-serif" font-size="14" lengthAdjust="spacing" textLength="133" x="700.5" y="543.3517">ImoNumber : string</text></g><!--link VesselTypeController to VesselTypeService--><g class="link" data-entity-1="VesselTypeController" data-entity-2="VesselTypeService" data-source-line="127" data-uid="lnk15" id="link_VesselTypeController_VesselTypeService"><path codeLine="127" d="M548,171.1483 C548,210.2683 548,301.4583 548,340.3683" fill="none" id="VesselTypeController-to-VesselTypeService" style="stroke:#181818;stroke-width:1;"/><polygon fill="#181818" points="548,346.3683,552,337.3683,548,341.3683,544,337.3683,548,346.3683" style="stroke:#181818;stroke-width:1;"/><text fill="#000000" font-family="sans-serif" font-size="13" lengthAdjust="spacing" textLength="28.5645" x="549" y="271.9666">uses</text></g><!--link VesselTypeService to IVesselTypeRepository--><g class="link" data-entity-1="VesselTypeService" data-entity-2="IVesselTypeRepository" data-source-line="128" data-uid="lnk16" id="link_VesselTypeService_IVesselTypeRepository"><path codeLine="128" d="M536.96,381.5683 C516.74,412.1783 477.3073,471.8821 457.1973,502.3221" fill="none" id="VesselTypeService-to-IVesselTypeRepository" style="stroke:#181818;stroke-width:1;"/><polygon fill="#181818" points="453.89,507.3283,462.1884,502.0239,456.6461,503.1565,455.5135,497.6142,453.89,507.3283" style="stroke:#181818;stroke-width:1;"/><text fill="#000000" font-family="sans-serif" font-size="13" lengthAdjust="spacing" textLength="73.8931" x="490.21" y="465.8966">depends on</text></g><!--link VesselTypeService to IUnitOfWork--><g class="link" data-entity-1="VesselTypeService" data-entity-2="IUnitOfWork" data-source-line="129" data-uid="lnk17" id="link_VesselTypeService_IUnitOfWork"><path codeLine="129" d="M553.57,381.5683 C563.78,412.1783 583.4521,471.1964 593.6021,501.6364" fill="none" id="VesselTypeService-to-IUnitOfWork" style="stroke:#181818;stroke-width:1;"/><polygon fill="#181818" points="595.5,507.3283,596.4477,497.5251,593.9184,502.585,588.8585,500.0557,595.5,507.3283" style="stroke:#181818;stroke-width:1;"/><text fill="#000000" font-family="sans-serif" font-size="13" lengthAdjust="spacing" textLength="54.1646" x="583.34" y="465.8966">commits</text></g><!--link VesselTypeService to VesselTypeFactory--><g class="link" data-entity-1="VesselTypeService" data-entity-2="VesselTypeFactory" data-source-line="130" data-uid="lnk18" id="link_VesselTypeService_VesselTypeFactory"><path codeLine="130" d="M530.01,381.5083 C514.34,394.9383 490.38,413.0783 466,422.3283 C356,464.0383 314.11,413.6583 203,452.3283 C166.81,464.9183 134.8311,486.794 112.9311,503.684" fill="none" id="VesselTypeService-to-VesselTypeFactory" style="stroke:#181818;stroke-width:1;"/><polygon fill="#181818" points="108.18,507.3483,117.7495,505.0194,112.1393,504.2947,112.8639,498.6845,108.18,507.3483" style="stroke:#181818;stroke-width:1;"/><text fill="#000000" font-family="sans-serif" font-size="13" lengthAdjust="spacing" textLength="95.6655" x="204" y="465.8966">creates entities</text></g><!--link VesselTypeService to VesselTypeMappers--><g class="link" data-entity-1="VesselTypeService" data-entity-2="VesselTypeMappers" data-source-line="131" data-uid="lnk19" id="link_VesselTypeService_VesselTypeMappers"><path codeLine="131" d="M529.1,381.3783 C513.27,394.3683 489.54,411.9583 466,422.3283 C409.75,447.1083 384.93,422.8483 331,452.3283 C306.12,465.9283 287.7512,485.9759 274.8112,502.4859" fill="none" id="VesselTypeService-to-VesselTypeMappers" style="stroke:#181818;stroke-width:1;"/><polygon fill="#181818" points="271.11,507.2083,279.8101,502.5922,274.1944,503.273,273.5136,497.6572,271.11,507.2083" style="stroke:#181818;stroke-width:1;"/><text fill="#000000" font-family="sans-serif" font-size="13" lengthAdjust="spacing" textLength="139.4768" x="332" y="465.8966">maps entities &#8596; DTOs</text></g><!--link VesselTypeFactory to VesselType--><g class="link" data-entity-1="VesselTypeFactory" data-entity-2="VesselType" data-source-line="132" data-uid="lnk20" id="link_VesselTypeFactory_VesselType"><path codeLine="132" d="M114.68,542.3983 C146.05,561.8983 195.8642,592.8608 251.9142,627.7008" fill="none" id="VesselTypeFactory-to-VesselType" style="stroke:#181818;stroke-width:1;"/><polygon fill="#181818" points="257.01,630.8683,251.478,622.7199,252.7635,628.2287,247.2547,629.5143,257.01,630.8683" style="stroke:#181818;stroke-width:1;"/><text fill="#000000" font-family="sans-serif" font-size="13" lengthAdjust="spacing" textLength="73.0933" x="203.83" y="593.8766">instantiates</text></g><!--link VesselType to VesselTypeId--><g class="link" data-entity-1="VesselType" data-entity-2="VesselTypeId" data-source-line="133" data-uid="lnk21" id="link_VesselType_VesselTypeId"><path codeLine="133" d="M443,867.8483 C443,896.8983 443,919.0983 443,938.3283" fill="none" id="VesselType-to-VesselTypeId" style="stroke:#181818;stroke-width:1;"/><polygon fill="#181818" points="443,944.3283,447,935.3283,443,939.3283,439,935.3283,443,944.3283" style="stroke:#181818;stroke-width:1;"/><text fill="#000000" font-family="sans-serif" font-size="13" lengthAdjust="spacing" textLength="78.9204" x="444" y="911.2166">identified by</text></g><!--link IVesselTypeRepository to VesselType--><g class="link" data-entity-1="IVesselTypeRepository" data-entity-2="VesselType" data-source-line="134" data-uid="lnk22" id="link_IVesselTypeRepository_VesselType"><path codeLine="134" d="M443,542.3983 C443,561.1483 443,587.4183 443,620.8383" fill="none" id="IVesselTypeRepository-to-VesselType" style="stroke:#181818;stroke-width:1;"/><polygon fill="#181818" points="443,626.8383,447,617.8383,443,621.8383,439,617.8383,443,626.8383" style="stroke:#181818;stroke-width:1;"/><text fill="#000000" font-family="sans-serif" font-size="13" lengthAdjust="spacing" textLength="132.4819" x="444" y="593.8766">manages persistence</text></g><!--link Vessel to VesselType--><g class="link" data-entity-1="Vessel" data-entity-2="VesselType" data-source-line="142" data-uid="lnk24" id="link_Vessel_VesselType"><path codeLine="142" d="M724.25,550.6983 C696.64,569.9183 661.1649,594.6211 619.5349,623.5911" fill="none" id="Vessel-to-VesselType" style="stroke:#181818;stroke-width:1;"/><polygon fill="#181818" points="614.61,627.0183,624.2821,625.1608,618.7141,624.1623,619.7125,618.5943,614.61,627.0183" style="stroke:#181818;stroke-width:1;"/><polygon fill="#000000" points="675.8763,591.8201,684.979,589.0646,681.6209,584.2405,675.8763,591.8201" style="stroke:#000000;stroke-width:1;"/><text fill="#000000" font-family="sans-serif" font-size="13" lengthAdjust="spacing" textLength="65.7427" x="688.98" y="593.8766">references</text></g><!--SRC=[nLVDafiu4Bxp55qv9BWypjREqLKR5xPnGjP_1NYsSjH0srOD85QID-DAvRfFi4-uJv8678C7y7WyXt2WGDrgVVtfKqjw1tzS_HZlO2nYnXEOYH0Z67EsaIo67goys_Utxty7SoIHQGIMX31Z2TiWtA5IvEllKrGTYc3jz5R8FdmMagohUnQ50bmHIhxPeIA7aKWqFke-B8NKXoWn9fg6gSI2CQvvmZKN2VLvHKw6Uk19oh8yOf68O2j5ZA3b3YiMjMMX-CgJ3QnPfD3OyX0XHieaLCLFm6KGeQ6vZl18H- -KBxEAlqoiOnWf2nuoijvKFGv4l06cuCuVmJV307hEPNjmiEU-ut-vp3k8c587PlDXl-NDsTE3EICk-g2qfDmhxMDKWUHfndwJUSOUXsoloCGJVThkYg-DxJv7MJUC6373zPuCwqYmYgbt_Ep2QCkI3MPOpOHUdPgf0jSCo-y6HquJeiYapBZ8uGRY0dJ-aQEiTplaQzxJgz6Q1J0blHgjULHJbx6_6urJuuGdatF7ebqsEnztFAnskq0WOyktm7UjkJUnNLWCFziZtmDpx2yE25uicx4M5N1T8AmLP4LRivgwvzNKRL5JjqLDtJOrTPlLTC9rNhvezFQyVbqE9q1NQKXrzaAOWsTm3jg03jgG3bgX3bwen8aryXVk5tWBCskvj5tlElbDMA25t9zmKEn5GwPuK3gQeHPd5zcCfMcMJJqISLo9GuMRfDHvORgklLnuJfRnPJs8KPHh5Y0uvTWkfaBnMhuVKLjHPAbz4fYTq_RXtWaB0mzhfamhXV5fzSpD5SKKNYqLTC8Zmbe6ke6AumtylKEvh_fRuG7ITKnwjdldZ6mgMlaM-vkLfX4FM2xiATkZlBAGUIZ_uG6-bjbZTaUz_Nh6YwBn4orvFraA5x0-MinzTp6TqgvXEaTjleRlx9GZHHIXRA2yYUqs2J_BPKvZfxQidyvGmMg5q5OchoNH-sIvzfYud2qNSpghlQZc3NUA9yIUkukGJW0yp2LlFmQO9rdnT5PqFbwi_nBomI1mP-DdbMbg-SvYxdrobjvvPwDnzdgz3mtBg0yxHSVwkY5pRwvfVM8znIHKGEcqT2nJ8_T0n37NROFKDmdgaS-yWhpqS7o-wyzTeK-dmBJi1___-nzafoQZFiffW7ntL9fHnspaYlyJn_pWH3SASbnp3E5-RpJJL8iVvpSA1HbGhZGc0JuxwvELlt9jc3hpFy4ihYstvKMhl6DrpWUgBkh3Ckw14ulvBhudQHmFHDyFUTV1IroZp20h-63y0000]--></g></svg>