<svg xmlns="http://www.w3.org/2000/svg" xmlns:xlink="http://www.w3.org/1999/xlink" contentStyleType="text/css" data-diagram-type="CLASS" height="886px" preserveAspectRatio="none" style="width:763px;height:886px;background:#FFFFFF;" version="1.1" viewBox="0 0 763 886" width="763px" zoomAndPan="magnify"><title>US2.2.1 - Domain Model (Vessel Type Management)</title><defs/><g><g class="title" data-source-line="12"><text fill="#000000" font-family="sans-serif" font-size="14" font-weight="bold" lengthAdjust="spacing" textLength="373.5361" x="187.9819" y="23.5352">US2.2.1 - Domain Model (Vessel Type Management)</text></g><!--cluster VTC--><g class="cluster" data-entity="VTC" data-source-line="14" data-uid="ent0002" id="cluster_VTC"><path d="M8.5,43.4883 L156.5342,43.4883 A3.75,3.75 0 0 1 159.0342,45.9883 L166.0342,65.9766 L575.5,65.9766 A2.5,2.5 0 0 1 578,68.4766 L578,877.2183 A2.5,2.5 0 0 1 575.5,879.7183 L8.5,879.7183 A2.5,2.5 0 0 1 6,877.2183 L6,45.9883 A2.5,2.5 0 0 1 8.5,43.4883" fill="none" style="stroke:#000000;stroke-width:1.5;"/><line style="stroke:#000000;stroke-width:1.5;" x1="6" x2="166.0342" y1="65.9766" y2="65.9766"/><text fill="#000000" font-family="sans-serif" font-size="14" font-weight="bold" lengthAdjust="spacing" textLength="147.0342" x="10" y="59.0234">Vessel Type Context</text></g><!--class VesselType--><g class="entity" data-entity="VesselType" data-source-line="16" data-uid="ent0003" id="entity_VesselType"><rect fill="#F1F1F1" height="190.8828" rx="2.5" ry="2.5" style="stroke:#181818;stroke-width:0.5;" width="371.1875" x="174.41" y="544.8583"/><text fill="#000000" font-family="sans-serif" font-size="14" lengthAdjust="spacing" textLength="75.8516" x="322.078" y="563.3934">VesselType</text><line style="stroke:#181818;stroke-width:0.5;" x1="175.41" x2="544.5975" y1="571.3466" y2="571.3466"/><rect fill="none" height="6" style="stroke:#595959;stroke-width:1;" width="6" x="182.41" y="582.0907"/><text fill="#000000" font-family="sans-serif" font-size="14" lengthAdjust="spacing" textLength="91.7998" x="194.41" y="588.8817">Name : string</text><rect fill="none" height="6" style="stroke:#595959;stroke-width:1;" width="6" x="182.41" y="598.579"/><text fill="#000000" font-family="sans-serif" font-size="14" lengthAdjust="spacing" textLength="130.6074" x="194.41" y="605.37">Description : string</text><rect fill="none" height="6" style="stroke:#595959;stroke-width:1;" width="6" x="182.41" y="615.0673"/><text fill="#000000" font-family="sans-serif" font-size="14" lengthAdjust="spacing" textLength="89.8721" x="194.41" y="621.8583">MaxBays : int</text><rect fill="none" height="6" style="stroke:#595959;stroke-width:1;" width="6" x="182.41" y="631.5555"/><text fill="#000000" font-family="sans-serif" font-size="14" lengthAdjust="spacing" textLength="95.0127" x="194.41" y="638.3466">MaxRows : int</text><rect fill="none" height="6" style="stroke:#595959;stroke-width:1;" width="6" x="182.41" y="648.0438"/><text fill="#000000" font-family="sans-serif" font-size="14" lengthAdjust="spacing" textLength="93.2012" x="194.41" y="654.8348">MaxTiers : int</text><rect fill="none" height="6" style="stroke:#595959;stroke-width:1;" width="6" x="182.41" y="664.5321"/><text fill="#000000" font-family="sans-serif" font-size="14" lengthAdjust="spacing" textLength="101.7803" x="194.41" y="671.3231">Capacity : float</text><line style="stroke:#181818;stroke-width:1;" x1="175.41" x2="544.5975" y1="678.2763" y2="678.2763"/><ellipse cx="185.41" cy="692.0204" fill="#A6A6A6" rx="3" ry="3" style="stroke:#545454;stroke-width:1;"/><text fill="#000000" font-family="sans-serif" font-size="14" lengthAdjust="spacing" textLength="136.6641" x="194.41" y="695.8114">ChangeName(name)</text><ellipse cx="185.41" cy="708.5087" fill="#A6A6A6" rx="3" ry="3" style="stroke:#545454;stroke-width:1;"/><text fill="#000000" font-family="sans-serif" font-size="14" lengthAdjust="spacing" textLength="214.2588" x="194.41" y="712.2997">ChangeDescription(description)</text><ellipse cx="185.41" cy="724.997" fill="#A6A6A6" rx="3" ry="3" style="stroke:#545454;stroke-width:1;"/><text fill="#000000" font-family="sans-serif" font-size="14" lengthAdjust="spacing" textLength="345.1875" x="194.41" y="728.788">ChangeDimensions(maxBays, maxRows, maxTiers)</text></g><!--class VesselTypeId--><g class="entity" data-entity="VesselTypeId" data-source-line="29" data-uid="ent0004" id="entity_VesselTypeId"><rect fill="#F1F1F1" height="50.9766" rx="2.5" ry="2.5" style="stroke:#181818;stroke-width:0.5;" width="108.373" x="305.81" y="812.7383"/><text fill="#000000" font-family="sans-serif" font-size="14" lengthAdjust="spacing" textLength="88.6963" x="315.6484" y="831.2734">VesselTypeId</text><line style="stroke:#181818;stroke-width:0.5;" x1="306.81" x2="413.183" y1="839.2266" y2="839.2266"/><rect fill="none" height="6" style="stroke:#595959;stroke-width:1;" width="6" x="313.81" y="849.9707"/><text fill="#000000" font-family="sans-serif" font-size="14" lengthAdjust="spacing" textLength="82.373" x="325.81" y="856.7617">Value : Guid</text></g><!--class VesselTypeDto--><g class="entity" data-entity="VesselTypeDto" data-source-line="33" data-uid="ent0005" id="entity_VesselTypeDto"><rect fill="#F1F1F1" height="149.9063" rx="2.5" ry="2.5" style="stroke:#181818;stroke-width:0.5;" width="156.6074" x="21.7" y="78.4883"/><text fill="#000000" font-family="sans-serif" font-size="14" lengthAdjust="spacing" textLength="100.1738" x="49.9168" y="97.0234">VesselTypeDto</text><line style="stroke:#181818;stroke-width:0.5;" x1="22.7" x2="177.3074" y1="104.9766" y2="104.9766"/><ellipse cx="32.7" cy="118.7207" fill="none" rx="3" ry="3" style="stroke:#545454;stroke-width:1;"/><text fill="#000000" font-family="sans-serif" font-size="14" lengthAdjust="spacing" textLength="57.7979" x="41.7" y="122.5117">Id : Guid</text><ellipse cx="32.7" cy="135.209" fill="none" rx="3" ry="3" style="stroke:#545454;stroke-width:1;"/><text fill="#000000" font-family="sans-serif" font-size="14" lengthAdjust="spacing" textLength="91.7998" x="41.7" y="139">Name : string</text><ellipse cx="32.7" cy="151.6973" fill="none" rx="3" ry="3" style="stroke:#545454;stroke-width:1;"/><text fill="#000000" font-family="sans-serif" font-size="14" lengthAdjust="spacing" textLength="130.6074" x="41.7" y="155.4883">Description : string</text><ellipse cx="32.7" cy="168.1855" fill="none" rx="3" ry="3" style="stroke:#545454;stroke-width:1;"/><text fill="#000000" font-family="sans-serif" font-size="14" lengthAdjust="spacing" textLength="89.8721" x="41.7" y="171.9766">MaxBays : int</text><ellipse cx="32.7" cy="184.6738" fill="none" rx="3" ry="3" style="stroke:#545454;stroke-width:1;"/><text fill="#000000" font-family="sans-serif" font-size="14" lengthAdjust="spacing" textLength="95.0127" x="41.7" y="188.4648">MaxRows : int</text><ellipse cx="32.7" cy="201.1621" fill="none" rx="3" ry="3" style="stroke:#545454;stroke-width:1;"/><text fill="#000000" font-family="sans-serif" font-size="14" lengthAdjust="spacing" textLength="93.2012" x="41.7" y="204.9531">MaxTiers : int</text><ellipse cx="32.7" cy="217.6504" fill="none" rx="3" ry="3" style="stroke:#545454;stroke-width:1;"/><text fill="#000000" font-family="sans-serif" font-size="14" lengthAdjust="spacing" textLength="101.7803" x="41.7" y="221.4414">Capacity : float</text></g><!--class CreatingVesselTypeDto--><g class="entity" data-entity="CreatingVesselTypeDto" data-source-line="43" data-uid="ent0006" id="entity_CreatingVesselTypeDto"><rect fill="#F1F1F1" height="116.9297" rx="2.5" ry="2.5" style="stroke:#181818;stroke-width:0.5;" width="163.8213" x="213.09" y="94.9783"/><text fill="#000000" font-family="sans-serif" font-size="14" lengthAdjust="spacing" textLength="157.8213" x="216.09" y="113.5134">CreatingVesselTypeDto</text><line style="stroke:#181818;stroke-width:0.5;" x1="214.09" x2="375.9113" y1="121.4666" y2="121.4666"/><ellipse cx="224.09" cy="135.2107" fill="none" rx="3" ry="3" style="stroke:#545454;stroke-width:1;"/><text fill="#000000" font-family="sans-serif" font-size="14" lengthAdjust="spacing" textLength="91.7998" x="233.09" y="139.0017">Name : string</text><ellipse cx="224.09" cy="151.699" fill="none" rx="3" ry="3" style="stroke:#545454;stroke-width:1;"/><text fill="#000000" font-family="sans-serif" font-size="14" lengthAdjust="spacing" textLength="130.6074" x="233.09" y="155.49">Description : string</text><ellipse cx="224.09" cy="168.1873" fill="none" rx="3" ry="3" style="stroke:#545454;stroke-width:1;"/><text fill="#000000" font-family="sans-serif" font-size="14" lengthAdjust="spacing" textLength="89.8721" x="233.09" y="171.9783">MaxBays : int</text><ellipse cx="224.09" cy="184.6755" fill="none" rx="3" ry="3" style="stroke:#545454;stroke-width:1;"/><text fill="#000000" font-family="sans-serif" font-size="14" lengthAdjust="spacing" textLength="95.0127" x="233.09" y="188.4666">MaxRows : int</text><ellipse cx="224.09" cy="201.1638" fill="none" rx="3" ry="3" style="stroke:#545454;stroke-width:1;"/><text fill="#000000" font-family="sans-serif" font-size="14" lengthAdjust="spacing" textLength="93.2012" x="233.09" y="204.9548">MaxTiers : int</text></g><!--class VesselTypeFactory--><g class="entity" data-entity="VesselTypeFactory" data-source-line="51" data-uid="ent0007" id="entity_VesselTypeFactory"><rect fill="#F1F1F1" height="34.4883" rx="2.5" ry="2.5" style="stroke:#181818;stroke-width:0.5;" width="131.1387" x="114.43" y="425.1283"/><text fill="#000000" font-family="sans-serif" font-size="14" lengthAdjust="spacing" textLength="125.1387" x="117.43" y="443.6634">VesselTypeFactory</text><line style="stroke:#181818;stroke-width:0.5;" x1="115.43" x2="244.5687" y1="451.6166" y2="451.6166"/></g><!--class IVesselTypeRepository--><g class="entity" data-entity="IVesselTypeRepository" data-source-line="56" data-uid="ent0008" id="entity_IVesselTypeRepository"><rect fill="#F1F1F1" height="34.4883" rx="2.5" ry="2.5" style="stroke:#181818;stroke-width:0.5;" width="158.0107" x="280.99" y="425.1283"/><text fill="#000000" font-family="sans-serif" font-size="14" font-style="italic" lengthAdjust="spacing" textLength="152.0107" x="283.99" y="443.6634">IVesselTypeRepository</text><line style="stroke:#181818;stroke-width:0.5;" x1="281.99" x2="438.0007" y1="451.6166" y2="451.6166"/></g><!--class VesselTypeService--><g class="entity" data-entity="VesselTypeService" data-source-line="65" data-uid="ent0009" id="entity_VesselTypeService"><rect fill="#F1F1F1" height="34.4883" rx="2.5" ry="2.5" style="stroke:#181818;stroke-width:0.5;" width="129.1836" x="372.41" y="305.3983"/><text fill="#000000" font-family="sans-serif" font-size="14" lengthAdjust="spacing" textLength="123.1836" x="375.41" y="323.9334">VesselTypeService</text><line style="stroke:#181818;stroke-width:0.5;" x1="373.41" x2="500.5936" y1="331.8866" y2="331.8866"/></g><!--class VesselTypeController--><g class="entity" data-entity="VesselTypeController" data-source-line="75" data-uid="ent0010" id="entity_VesselTypeController"><rect fill="#F1F1F1" height="34.4883" rx="2.5" ry="2.5" style="stroke:#181818;stroke-width:0.5;" width="150.0127" x="411.99" y="136.1983"/><text fill="#000000" font-family="sans-serif" font-size="14" lengthAdjust="spacing" textLength="144.0127" x="414.99" y="154.7334">VesselTypeController</text><line style="stroke:#181818;stroke-width:0.5;" x1="412.99" x2="561.0027" y1="162.6866" y2="162.6866"/></g><!--class BusinessRuleValidationException--><g class="entity" data-entity="BusinessRuleValidationException" data-source-line="85" data-uid="ent0011" id="entity_BusinessRuleValidationException"><rect fill="#F1F1F1" height="34.4883" rx="2.5" ry="2.5" style="stroke:#181818;stroke-width:0.5;" width="228.6943" x="21.65" y="305.3983"/><text fill="#000000" font-family="sans-serif" font-size="14" lengthAdjust="spacing" textLength="222.6943" x="24.65" y="323.9334">BusinessRuleValidationException</text><line style="stroke:#181818;stroke-width:0.5;" x1="22.65" x2="249.3443" y1="331.8866" y2="331.8866"/></g><!--class IUnitOfWork--><g class="entity" data-entity="IUnitOfWork" data-source-line="86" data-uid="ent0012" id="entity_IUnitOfWork"><rect fill="#F1F1F1" height="34.4883" rx="2.5" ry="2.5" style="stroke:#181818;stroke-width:0.5;" width="88.2158" x="473.89" y="425.1283"/><text fill="#000000" font-family="sans-serif" font-size="14" lengthAdjust="spacing" textLength="82.2158" x="476.89" y="443.6634">IUnitOfWork</text><line style="stroke:#181818;stroke-width:0.5;" x1="474.89" x2="561.1058" y1="451.6166" y2="451.6166"/></g><!--class Vessel--><g class="entity" data-entity="Vessel" data-source-line="102" data-uid="ent0020" id="entity_Vessel"><rect fill="#F1F1F1" height="50.9766" rx="2.5" ry="2.5" style="stroke:#181818;stroke-width:0.5;" width="159" x="597.5" y="416.8783"/><text fill="#000000" font-family="sans-serif" font-size="14" lengthAdjust="spacing" textLength="43.0732" x="655.4634" y="435.4134">Vessel</text><line style="stroke:#181818;stroke-width:0.5;" x1="598.5" x2="755.5" y1="443.3666" y2="443.3666"/><rect fill="none" height="6" style="stroke:#595959;stroke-width:1;" width="6" x="605.5" y="454.1107"/><text fill="#000000" font-family="sans-serif" font-size="14" lengthAdjust="spacing" textLength="133" x="617.5" y="460.9017">ImoNumber : string</text></g><!--link VesselTypeController to VesselTypeService--><g class="link" data-entity-1="VesselTypeController" data-entity-2="VesselTypeService" data-source-line="93" data-uid="lnk13" id="link_VesselTypeController_VesselTypeService"><path codeLine="93" d="M482.02,171.0883 C472.44,203.1283 453.238,267.3195 443.678,299.3095" fill="none" id="VesselTypeController-to-VesselTypeService" style="stroke:#181818;stroke-width:1;"/><polygon fill="#181818" points="441.96,305.0583,448.3695,297.5804,443.3917,300.2676,440.7045,295.2898,441.96,305.0583" style="stroke:#181818;stroke-width:1;"/><text fill="#000000" font-family="sans-serif" font-size="13" lengthAdjust="spacing" textLength="28.5645" x="455.6" y="271.9666">uses</text></g><!--link VesselTypeService to IVesselTypeRepository--><g class="link" data-entity-1="VesselTypeService" data-entity-2="IVesselTypeRepository" data-source-line="94" data-uid="lnk14" id="link_VesselTypeService_IVesselTypeRepository"><path codeLine="94" d="M414.09,340.3083 C404.35,348.3483 393.53,358.6683 386,369.8783 C374.58,386.8783 368.9296,403.681 365.0896,418.881" fill="none" id="VesselTypeService-to-IVesselTypeRepository" style="stroke:#181818;stroke-width:1;"/><polygon fill="#181818" points="363.62,424.6983,369.7026,416.9522,364.8447,419.8506,361.9463,414.9927,363.62,424.6983" style="stroke:#181818;stroke-width:1;"/><text fill="#000000" font-family="sans-serif" font-size="13" lengthAdjust="spacing" textLength="73.8931" x="387" y="383.4466">depends on</text></g><!--link VesselTypeService to IUnitOfWork--><g class="link" data-entity-1="VesselTypeService" data-entity-2="IUnitOfWork" data-source-line="95" data-uid="lnk15" id="link_VesselTypeService_IUnitOfWork"><path codeLine="95" d="M448.43,340.2583 C463.87,362.6983 487.8208,397.494 503.2208,419.894" fill="none" id="VesselTypeService-to-IUnitOfWork" style="stroke:#181818;stroke-width:1;"/><polygon fill="#181818" points="506.62,424.8383,504.8174,415.1558,503.7874,420.7181,498.2251,419.688,506.62,424.8383" style="stroke:#181818;stroke-width:1;"/><text fill="#000000" font-family="sans-serif" font-size="13" lengthAdjust="spacing" textLength="54.1646" x="480.93" y="383.4466">commits</text></g><!--link VesselTypeService to VesselTypeFactory--><g class="link" data-entity-1="VesselTypeService" data-entity-2="VesselTypeFactory" data-source-line="96" data-uid="lnk16" id="link_VesselTypeService_VesselTypeFactory"><path codeLine="96" d="M372.03,329.9483 C313.62,336.8283 233.4,349.6283 209,369.8783 C192.41,383.6583 186.3038,402.4788 183.2538,418.9288" fill="none" id="VesselTypeService-to-VesselTypeFactory" style="stroke:#181818;stroke-width:1;"/><polygon fill="#181818" points="182.16,424.8283,187.7337,416.7083,183.0715,419.9121,179.8678,415.2499,182.16,424.8283" style="stroke:#181818;stroke-width:1;"/><text fill="#000000" font-family="sans-serif" font-size="13" lengthAdjust="spacing" textLength="158.8435" x="210" y="383.4466">converts entities &#8596; DTOs</text></g><!--link VesselTypeFactory to VesselType--><g class="link" data-entity-1="VesselTypeFactory" data-entity-2="VesselType" data-source-line="97" data-uid="lnk17" id="link_VesselTypeFactory_VesselType"><path codeLine="97" d="M194.08,460.0183 C206.51,474.6283 225.22,496.3583 242,514.8583 C250.8,524.5583 255.9672,530.2209 265.2772,540.2009" fill="none" id="VesselTypeFactory-to-VesselType" style="stroke:#181818;stroke-width:1;"/><polygon fill="#181818" points="269.37,544.5883,266.1557,535.2787,265.9593,540.9322,260.3059,540.7358,269.37,544.5883" style="stroke:#181818;stroke-width:1;"/><text fill="#000000" font-family="sans-serif" font-size="13" lengthAdjust="spacing" textLength="108.3354" x="243" y="511.4266">creates instances</text></g><!--link VesselType to VesselTypeId--><g class="link" data-entity-1="VesselType" data-entity-2="VesselTypeId" data-source-line="98" data-uid="lnk18" id="link_VesselType_VesselTypeId"><path codeLine="98" d="M360,736.1083 C360,764.2383 360,786.7183 360,806.2583" fill="none" id="VesselType-to-VesselTypeId" style="stroke:#181818;stroke-width:1;"/><polygon fill="#181818" points="360,812.2583,364,803.2583,360,807.2583,356,803.2583,360,812.2583" style="stroke:#181818;stroke-width:1;"/><text fill="#000000" font-family="sans-serif" font-size="13" lengthAdjust="spacing" textLength="47.5249" x="361" y="779.3066">identity</text></g><!--link IVesselTypeRepository to VesselType--><g class="link" data-entity-1="IVesselTypeRepository" data-entity-2="VesselType" data-source-line="99" data-uid="lnk19" id="link_IVesselTypeRepository_VesselType"><path codeLine="99" d="M360,460.0783 C360,479.2283 360,506.1983 360,538.6683" fill="none" id="IVesselTypeRepository-to-VesselType" style="stroke:#181818;stroke-width:1;"/><polygon fill="#181818" points="360,544.6683,364,535.6683,360,539.6683,356,535.6683,360,544.6683" style="stroke:#181818;stroke-width:1;"/><text fill="#000000" font-family="sans-serif" font-size="13" lengthAdjust="spacing" textLength="132.4819" x="361" y="511.4266">manages persistence</text></g><!--link Vessel to VesselType--><g class="link" data-entity-1="Vessel" data-entity-2="VesselType" data-source-line="105" data-uid="lnk21" id="link_Vessel_VesselType"><path codeLine="105" d="M636.85,468.1883 C605.28,487.6983 564.2539,513.0539 518.6739,541.2239" fill="none" id="Vessel-to-VesselType" style="stroke:#181818;stroke-width:1;"/><polygon fill="#181818" points="513.57,544.3783,523.3288,543.0493,517.8233,541.7496,519.1229,536.2441,513.57,544.3783" style="stroke:#181818;stroke-width:1;"/><polygon fill="#000000" points="584.0767,509.1422,593.316,506.887,590.2259,501.8869,584.0767,509.1422" style="stroke:#000000;stroke-width:1;"/><text fill="#000000" font-family="sans-serif" font-size="13" lengthAdjust="spacing" textLength="65.7427" x="597.33" y="511.4266">references</text></g><!--SRC=[nLR9Rjim4BthAmQvH8RZ0CtHG0DuQG8No08dJi-CEBQ9IAJAeP8OGQxzWdvXlwGZoGjbIIxG7AA38NFUBEyDX-8nVFtl9pY6iKc4qd1b9COmLc9XHG8zcDsTdPwTVe5mP54u1A4bN0aj5WWFICJO-rMArE48WymjZUt3TsFPEdiKiJGmDTAgHOR4W97H3bzT7swDTUie2Mh7QRnOCCQvqiefezdd0vm2Ub8w5JcFn6WJBQr949pDqBFGKaZpelG2vY8c39PA8YJ8J2ILVo9benY3m2aNurQFNbMmq2UmOzO9WbH4JxbQHpvYhSGH28A7-n6y1G7m4yM2QAr5WNihblEd1zU2g-y3ESlLUkjZfCYgDDUhoNmbNeTYHMnIsbNNf-QbSVrUeQqRHeAfABTYmpmsmZFrjgzT62s5Nc1UQwZvfrCpUUM6SlVU05Ii8B69mgJaS099MNJnKbHPkhqtopUH5G4VH9pb2bvcIXvo6plZ-NM1mtXEvLfpCxg7cz5jQKQtfHdTjcPqcvjHuLFCAsTlv_Lv75g4ln2HCtPLAR8yTeQ2LBG3XjAPJWt4_3m8Jn_hKzaVd1xjN4G8anrmYgaXLSjxYMuGnmDQwIZiLDU7guai3KhMJBcefN5_-nTcJziIrJ825ohcMdU1Ji03di3F3EtAnm_akgG6sliotw5zLX5-bEusvLupFbE6MIfv8sogPVIcj1OfydFOcZX6sw16an1jBVydpO9XVS_kYrSIzhYsaZp0RvYHqinnciN8XvvYE5VmxJN2eXGFEPdnX_Pc_iFOfu137FhSid6ASH69bYgbm-2WKUDUxxnX7_OX8xuVr0qvl7bI-wnDYbeIC9qMnnqrXaScIPHhIr8_Wd8F_OpM4HGJfP3Wpw_VCBw_yODiuDKWkNVHNU8ZXvpGKONU7hhulF15enZSe9blBNvIN348KZvO5Jda57dxRWsHUkHhoZnpcKMmE4UR6s7Ebv_DBQjC1M5vbpdh1FvOh0UX1vF4N6V98xTj-n5uNxEerxDDH70U_0K0]--></g></svg>