<svg xmlns="http://www.w3.org/2000/svg" xmlns:xlink="http://www.w3.org/1999/xlink" contentStyleType="text/css" data-diagram-type="SEQUENCE" height="977px" preserveAspectRatio="none" style="width:409px;height:977px;background:#FFFFFF;" version="1.1" viewBox="0 0 409 977" width="409px" zoomAndPan="magnify"><defs/><g><g><title>Client</title><rect fill="#000000" fill-opacity="0.00000" height="815.3164" width="8" x="23.7524" y="81.4883"/><line style="stroke:#181818;stroke-width:0.5;stroke-dasharray:5,5;" x1="27" x2="27" y1="81.4883" y2="896.8047"/></g><g><title>Qualifications Management API</title><rect fill="#000000" fill-opacity="0.00000" height="815.3164" width="8" x="285.2437" y="81.4883"/><line style="stroke:#181818;stroke-width:0.5;stroke-dasharray:5,5;" x1="288.7344" x2="288.7344" y1="81.4883" y2="896.8047"/></g><g class="participant participant-head" data-participant="Client"><text fill="#000000" font-family="sans-serif" font-size="14" lengthAdjust="spacing" textLength="39.5049" x="5" y="78.5352">Client</text><ellipse cx="27.7524" cy="13.5" fill="#E2E2F0" rx="8" ry="8" style="stroke:#181818;stroke-width:0.5;"/><path d="M27.7524,21.5 L27.7524,48.5 M14.7524,29.5 L40.7524,29.5 M27.7524,48.5 L14.7524,63.5 M27.7524,48.5 L40.7524,63.5" fill="none" style="stroke:#181818;stroke-width:0.5;"/></g><g class="participant participant-tail" data-participant="Client"><text fill="#000000" font-family="sans-serif" font-size="14" lengthAdjust="spacing" textLength="39.5049" x="5" y="909.3398">Client</text><ellipse cx="27.7524" cy="920.793" fill="#E2E2F0" rx="8" ry="8" style="stroke:#181818;stroke-width:0.5;"/><path d="M27.7524,928.793 L27.7524,955.793 M14.7524,936.793 L40.7524,936.793 M27.7524,955.793 L14.7524,970.793 M27.7524,955.793 L40.7524,970.793" fill="none" style="stroke:#181818;stroke-width:0.5;"/></g><g class="participant participant-head" data-participant="System"><text fill="#000000" font-family="sans-serif" font-size="14" lengthAdjust="spacing" textLength="211.0186" x="180.7344" y="78.5352">Qualifications Management API</text><path d="M268.7437,37 L268.7437,61 M268.7437,49 L285.7437,49" fill="none" style="stroke:#181818;stroke-width:0.5;"/><ellipse cx="297.7437" cy="49" fill="#E2E2F0" rx="12" ry="12" style="stroke:#181818;stroke-width:0.5;"/></g><g class="participant participant-tail" data-participant="System"><text fill="#000000" font-family="sans-serif" font-size="14" lengthAdjust="spacing" textLength="211.0186" x="180.7344" y="909.3398">Qualifications Management API</text><path d="M268.7437,916.293 L268.7437,940.293 M268.7437,928.293 L285.7437,928.293" fill="none" style="stroke:#181818;stroke-width:0.5;"/><ellipse cx="297.7437" cy="928.293" fill="#E2E2F0" rx="12" ry="12" style="stroke:#181818;stroke-width:0.5;"/></g><rect fill="#EEEEEE" height="3" style="stroke:#EEEEEE;stroke-width:1;" width="402.7529" x="0" y="112.1436"/><line style="stroke:#000000;stroke-width:1;" x1="0" x2="402.7529" y1="112.1436" y2="112.1436"/><line style="stroke:#000000;stroke-width:1;" x1="0" x2="402.7529" y1="115.1436" y2="115.1436"/><rect fill="#EEEEEE" height="23.3105" style="stroke:#000000;stroke-width:2;" width="160.6689" x="121.042" y="101.4883"/><text fill="#000000" font-family="sans-serif" font-size="13" font-weight="bold" lengthAdjust="spacing" textLength="142.3843" x="127.042" y="118.0566">Get All Qualifications</text><g class="message" data-participant-1="Client" data-participant-2="System"><polygon fill="#181818" points="277.2437,152.1094,287.2437,156.1094,277.2437,160.1094,281.2437,156.1094" style="stroke:#181818;stroke-width:1;"/><line style="stroke:#181818;stroke-width:1;" x1="27.7524" x2="283.2437" y1="156.1094" y2="156.1094"/><text fill="#000000" font-family="sans-serif" font-size="13" lengthAdjust="spacing" textLength="146.1484" x="34.7524" y="151.3672">GET /api/qualifications</text></g><g class="message" data-participant-1="System" data-participant-2="Client"><polygon fill="#181818" points="38.7524,196.7305,28.7524,200.7305,38.7524,204.7305,34.7524,200.7305" style="stroke:#181818;stroke-width:1;"/><line style="stroke:#181818;stroke-width:1;stroke-dasharray:2,2;" x1="32.7524" x2="288.2437" y1="200.7305" y2="200.7305"/><text fill="#000000" font-family="sans-serif" font-size="13" lengthAdjust="spacing" textLength="47.3599" x="44.7524" y="180.6777">200 OK</text><text fill="#000000" font-family="sans-serif" font-size="13" lengthAdjust="spacing" textLength="145.3423" x="44.7524" y="195.9883">List&lt;QualificationDto&gt;</text></g><rect fill="#EEEEEE" height="3" style="stroke:#EEEEEE;stroke-width:1;" width="402.7529" x="0" y="229.3857"/><line style="stroke:#000000;stroke-width:1;" x1="0" x2="402.7529" y1="229.3857" y2="229.3857"/><line style="stroke:#000000;stroke-width:1;" x1="0" x2="402.7529" y1="232.3857" y2="232.3857"/><rect fill="#EEEEEE" height="23.3105" style="stroke:#000000;stroke-width:2;" width="169.9619" x="116.3955" y="218.7305"/><text fill="#000000" font-family="sans-serif" font-size="13" font-weight="bold" lengthAdjust="spacing" textLength="151.6772" x="122.3955" y="235.2988">Get Qualification By ID</text><g class="message" data-participant-1="Client" data-participant-2="System"><polygon fill="#181818" points="277.2437,269.3516,287.2437,273.3516,277.2437,277.3516,281.2437,273.3516" style="stroke:#181818;stroke-width:1;"/><line style="stroke:#181818;stroke-width:1;" x1="27.7524" x2="283.2437" y1="273.3516" y2="273.3516"/><text fill="#000000" font-family="sans-serif" font-size="13" lengthAdjust="spacing" textLength="173.3608" x="34.7524" y="268.6094">GET /api/qualifications/{id}</text></g><g class="message" data-participant-1="System" data-participant-2="Client"><polygon fill="#181818" points="38.7524,329.2832,28.7524,333.2832,38.7524,337.2832,34.7524,333.2832" style="stroke:#181818;stroke-width:1;"/><line style="stroke:#181818;stroke-width:1;stroke-dasharray:2,2;" x1="32.7524" x2="288.2437" y1="333.2832" y2="333.2832"/><text fill="#000000" font-family="sans-serif" font-size="13" lengthAdjust="spacing" textLength="47.3599" x="44.7524" y="297.9199">200 OK</text><text fill="#000000" font-family="sans-serif" font-size="13" lengthAdjust="spacing" textLength="102.4956" x="44.7524" y="313.2305">QualificationDto</text><text fill="#000000" font-family="sans-serif" font-size="13" lengthAdjust="spacing" textLength="117.0444" x="44.7524" y="328.541">OR 404 Not Found</text></g><rect fill="#EEEEEE" height="3" style="stroke:#EEEEEE;stroke-width:1;" width="402.7529" x="0" y="361.9385"/><line style="stroke:#000000;stroke-width:1;" x1="0" x2="402.7529" y1="361.9385" y2="361.9385"/><line style="stroke:#000000;stroke-width:1;" x1="0" x2="402.7529" y1="364.9385" y2="364.9385"/><rect fill="#EEEEEE" height="23.3105" style="stroke:#000000;stroke-width:2;" width="189.1382" x="106.8074" y="351.2832"/><text fill="#000000" font-family="sans-serif" font-size="13" font-weight="bold" lengthAdjust="spacing" textLength="170.8535" x="112.8074" y="367.8516">Get Qualification By Code</text><g class="message" data-participant-1="Client" data-participant-2="System"><polygon fill="#181818" points="277.2437,401.9043,287.2437,405.9043,277.2437,409.9043,281.2437,405.9043" style="stroke:#181818;stroke-width:1;"/><line style="stroke:#181818;stroke-width:1;" x1="27.7524" x2="283.2437" y1="405.9043" y2="405.9043"/><text fill="#000000" font-family="sans-serif" font-size="13" lengthAdjust="spacing" textLength="228.376" x="34.7524" y="401.1621">GET /api/qualifications/code/{code}</text></g><g class="message" data-participant-1="System" data-participant-2="Client"><polygon fill="#181818" points="38.7524,461.8359,28.7524,465.8359,38.7524,469.8359,34.7524,465.8359" style="stroke:#181818;stroke-width:1;"/><line style="stroke:#181818;stroke-width:1;stroke-dasharray:2,2;" x1="32.7524" x2="288.2437" y1="465.8359" y2="465.8359"/><text fill="#000000" font-family="sans-serif" font-size="13" lengthAdjust="spacing" textLength="47.3599" x="44.7524" y="430.4727">200 OK</text><text fill="#000000" font-family="sans-serif" font-size="13" lengthAdjust="spacing" textLength="102.4956" x="44.7524" y="445.7832">QualificationDto</text><text fill="#000000" font-family="sans-serif" font-size="13" lengthAdjust="spacing" textLength="117.0444" x="44.7524" y="461.0938">OR 404 Not Found</text></g><rect fill="#EEEEEE" height="3" style="stroke:#EEEEEE;stroke-width:1;" width="402.7529" x="0" y="494.4912"/><line style="stroke:#000000;stroke-width:1;" x1="0" x2="402.7529" y1="494.4912" y2="494.4912"/><line style="stroke:#000000;stroke-width:1;" x1="0" x2="402.7529" y1="497.4912" y2="497.4912"/><rect fill="#EEEEEE" height="23.3105" style="stroke:#000000;stroke-width:2;" width="193.2007" x="104.7761" y="483.8359"/><text fill="#000000" font-family="sans-serif" font-size="13" font-weight="bold" lengthAdjust="spacing" textLength="174.916" x="110.7761" y="500.4043">Get Qualification By Name</text><g class="message" data-participant-1="Client" data-participant-2="System"><polygon fill="#181818" points="277.2437,534.457,287.2437,538.457,277.2437,542.457,281.2437,538.457" style="stroke:#181818;stroke-width:1;"/><line style="stroke:#181818;stroke-width:1;" x1="27.7524" x2="283.2437" y1="538.457" y2="538.457"/><text fill="#000000" font-family="sans-serif" font-size="13" lengthAdjust="spacing" textLength="237.4912" x="34.7524" y="533.7148">GET /api/qualifications/name/{name}</text></g><g class="message" data-participant-1="System" data-participant-2="Client"><polygon fill="#181818" points="38.7524,594.3887,28.7524,598.3887,38.7524,602.3887,34.7524,598.3887" style="stroke:#181818;stroke-width:1;"/><line style="stroke:#181818;stroke-width:1;stroke-dasharray:2,2;" x1="32.7524" x2="288.2437" y1="598.3887" y2="598.3887"/><text fill="#000000" font-family="sans-serif" font-size="13" lengthAdjust="spacing" textLength="47.3599" x="44.7524" y="563.0254">200 OK</text><text fill="#000000" font-family="sans-serif" font-size="13" lengthAdjust="spacing" textLength="102.4956" x="44.7524" y="578.3359">QualificationDto</text><text fill="#000000" font-family="sans-serif" font-size="13" lengthAdjust="spacing" textLength="117.0444" x="44.7524" y="593.6465">OR 404 Not Found</text></g><rect fill="#EEEEEE" height="3" style="stroke:#EEEEEE;stroke-width:1;" width="402.7529" x="0" y="627.0439"/><line style="stroke:#000000;stroke-width:1;" x1="0" x2="402.7529" y1="627.0439" y2="627.0439"/><line style="stroke:#000000;stroke-width:1;" x1="0" x2="402.7529" y1="630.0439" y2="630.0439"/><rect fill="#EEEEEE" height="23.3105" style="stroke:#000000;stroke-width:2;" width="151.7441" x="125.5044" y="616.3887"/><text fill="#000000" font-family="sans-serif" font-size="13" font-weight="bold" lengthAdjust="spacing" textLength="133.4595" x="131.5044" y="632.957">Create Qualification</text><g class="message" data-participant-1="Client" data-participant-2="System"><polygon fill="#181818" points="277.2437,682.3203,287.2437,686.3203,277.2437,690.3203,281.2437,686.3203" style="stroke:#181818;stroke-width:1;"/><line style="stroke:#181818;stroke-width:1;" x1="27.7524" x2="283.2437" y1="686.3203" y2="686.3203"/><text fill="#000000" font-family="sans-serif" font-size="13" lengthAdjust="spacing" textLength="153.9941" x="34.7524" y="666.2676">POST /api/qualifications</text><text fill="#000000" font-family="sans-serif" font-size="13" lengthAdjust="spacing" textLength="194.689" x="34.7524" y="681.5781">Body: CreatingQualificationDto</text></g><g class="message" data-participant-1="System" data-participant-2="Client"><polygon fill="#181818" points="38.7524,726.9414,28.7524,730.9414,38.7524,734.9414,34.7524,730.9414" style="stroke:#181818;stroke-width:1;"/><line style="stroke:#181818;stroke-width:1;stroke-dasharray:2,2;" x1="32.7524" x2="288.2437" y1="730.9414" y2="730.9414"/><text fill="#000000" font-family="sans-serif" font-size="13" lengthAdjust="spacing" textLength="77.7969" x="44.7524" y="710.8887">201 Created</text><text fill="#000000" font-family="sans-serif" font-size="13" lengthAdjust="spacing" textLength="102.4956" x="44.7524" y="726.1992">QualificationDto</text></g><rect fill="#EEEEEE" height="3" style="stroke:#EEEEEE;stroke-width:1;" width="402.7529" x="0" y="759.5967"/><line style="stroke:#000000;stroke-width:1;" x1="0" x2="402.7529" y1="759.5967" y2="759.5967"/><line style="stroke:#000000;stroke-width:1;" x1="0" x2="402.7529" y1="762.5967" y2="762.5967"/><rect fill="#EEEEEE" height="23.3105" style="stroke:#000000;stroke-width:2;" width="155.7559" x="123.4985" y="748.9414"/><text fill="#000000" font-family="sans-serif" font-size="13" font-weight="bold" lengthAdjust="spacing" textLength="137.4712" x="129.4985" y="765.5098">Update Qualification</text><g class="message" data-participant-1="Client" data-participant-2="System"><polygon fill="#181818" points="277.2437,814.873,287.2437,818.873,277.2437,822.873,281.2437,818.873" style="stroke:#181818;stroke-width:1;"/><line style="stroke:#181818;stroke-width:1;" x1="27.7524" x2="283.2437" y1="818.873" y2="818.873"/><text fill="#000000" font-family="sans-serif" font-size="13" lengthAdjust="spacing" textLength="191.623" x="34.7524" y="798.8203">PATCH /api/qualifications/{id}</text><text fill="#000000" font-family="sans-serif" font-size="13" lengthAdjust="spacing" textLength="194.689" x="34.7524" y="814.1309">Body: CreatingQualificationDto</text></g><g class="message" data-participant-1="System" data-participant-2="Client"><polygon fill="#181818" points="38.7524,874.8047,28.7524,878.8047,38.7524,882.8047,34.7524,878.8047" style="stroke:#181818;stroke-width:1;"/><line style="stroke:#181818;stroke-width:1;stroke-dasharray:2,2;" x1="32.7524" x2="288.2437" y1="878.8047" y2="878.8047"/><text fill="#000000" font-family="sans-serif" font-size="13" lengthAdjust="spacing" textLength="47.3599" x="44.7524" y="843.4414">200 OK</text><text fill="#000000" font-family="sans-serif" font-size="13" lengthAdjust="spacing" textLength="102.4956" x="44.7524" y="858.752">QualificationDto</text><text fill="#000000" font-family="sans-serif" font-size="13" lengthAdjust="spacing" textLength="117.0444" x="44.7524" y="874.0625">OR 404 Not Found</text></g><!--SRC=[jPBDJi9058NtVOeJzcGgOTLO4YYAHAKekElcsXd99EqCjiEYQNntfzAOj593ZMpkOkRyVBcv51kT8KYaKCPvrGV5AIimU3fG8jzaJ4PgbUEH5Er4QZMOhfS3K8vDaHkHEexlOo7iSvAWPV9zvvYBuQIMmyFYPWj6UydU6sgd5WojjdPv6Bakmlj8FSZSN3VIvqPFlhiRFvWLMCxxbRDIyezV2ThbaGgVCNR7M6c3ssfjtJI1vg8dJsmjhApcvR1MbFR5KjR2och-2rQG2JAYHNQQQ1rkJY95QgPvuHsZfDgrcpimh-fk_fFrY-nbpyyccsw3kywZ-YFVsMly1000]--></g></svg>