<?xml version="1.0" encoding="UTF-8" standalone="no"?><svg xmlns="http://www.w3.org/2000/svg" xmlns:xlink="http://www.w3.org/1999/xlink" contentStyleType="text/css" height="498px" preserveAspectRatio="none" style="width:643px;height:498px;background:#FFFFFF;" version="1.1" viewBox="0 0 643 498" width="643px" zoomAndPan="magnify"><defs/><g><rect fill="#FFFFFF" height="384.8199" style="stroke:#181818;stroke-width:1.0;" width="10" x="232" y="57.24"/><rect fill="#FFFFFF" height="32.62" style="stroke:#181818;stroke-width:1.0;" width="10" x="237" y="300.8199"/><rect fill="#FFFFFF" height="27.62" style="stroke:#181818;stroke-width:1.0;" width="10" x="357" y="104.4799"/><rect fill="#FFFFFF" height="27.62" style="stroke:#181818;stroke-width:1.0;" width="10" x="472.5" y="159.7199"/><rect fill="#FFFFFF" height="27.62" style="stroke:#181818;stroke-width:1.0;" width="10" x="578.5" y="214.9599"/><rect fill="none" height="177.4799" style="stroke:#000000;stroke-width:1.5;" width="625" x="11" y="257.5799"/><line style="stroke:#181818;stroke-width:0.5;stroke-dasharray:5.0,5.0;" x1="237" x2="237" y1="47.24" y2="452.0598"/><line style="stroke:#181818;stroke-width:0.5;stroke-dasharray:5.0,5.0;" x1="362" x2="362" y1="47.24" y2="452.0598"/><line style="stroke:#181818;stroke-width:0.5;stroke-dasharray:5.0,5.0;" x1="477" x2="477" y1="47.24" y2="452.0598"/><line style="stroke:#181818;stroke-width:0.5;stroke-dasharray:5.0,5.0;" x1="583" x2="583" y1="47.24" y2="452.0598"/><rect fill="#E3E3E3" height="27.62" rx="2.5" ry="2.5" style="stroke:#181818;stroke-width:0.5;" width="126" x="174" y="18.62"/><text fill="#000000" font-family="Times" font-size="10" lengthAdjust="spacing" textLength="112" x="181" y="36.31">:{NameOfUC}Controller</text><rect fill="#E3E3E3" height="27.62" rx="2.5" ry="2.5" style="stroke:#181818;stroke-width:0.5;" width="126" x="174" y="451.0598"/><text fill="#000000" font-family="Times" font-size="10" lengthAdjust="spacing" textLength="112" x="181" y="468.7498">:{NameOfUC}Controller</text><rect fill="#E3E3E3" height="27.62" rx="2.5" ry="2.5" style="stroke:#181818;stroke-width:0.5;" width="104" x="310" y="18.62"/><text fill="#000000" font-family="Times" font-size="10" lengthAdjust="spacing" textLength="90" x="317" y="36.31">ApplicationSession</text><rect fill="#E3E3E3" height="27.62" rx="2.5" ry="2.5" style="stroke:#181818;stroke-width:0.5;" width="104" x="310" y="451.0598"/><text fill="#000000" font-family="Times" font-size="10" lengthAdjust="spacing" textLength="90" x="317" y="468.7498">ApplicationSession</text><rect fill="#E3E3E3" height="41.24" rx="2.5" ry="2.5" style="stroke:#181818;stroke-width:0.5;" width="107" x="424" y="5"/><text fill="#000000" font-family="Times" font-size="10" lengthAdjust="spacing" textLength="54" x="450.5" y="22.69">appSession</text><text fill="#000000" font-family="Times" font-size="10" lengthAdjust="spacing" textLength="93" x="431" y="36.31">:ApplicationSession</text><rect fill="#E3E3E3" height="41.24" rx="2.5" ry="2.5" style="stroke:#181818;stroke-width:0.5;" width="107" x="424" y="451.0598"/><text fill="#000000" font-family="Times" font-size="10" lengthAdjust="spacing" textLength="54" x="450.5" y="468.7498">appSession</text><text fill="#000000" font-family="Times" font-size="10" lengthAdjust="spacing" textLength="93" x="431" y="482.3698">:ApplicationSession</text><rect fill="#E3E3E3" height="41.24" rx="2.5" ry="2.5" style="stroke:#181818;stroke-width:0.5;" width="85" x="541" y="5"/><text fill="#000000" font-family="Times" font-size="10" lengthAdjust="spacing" textLength="71" x="548" y="22.69">currentSession</text><text fill="#000000" font-family="Times" font-size="10" lengthAdjust="spacing" textLength="61" x="553" y="36.31">:UserSession</text><rect fill="#E3E3E3" height="41.24" rx="2.5" ry="2.5" style="stroke:#181818;stroke-width:0.5;" width="85" x="541" y="451.0598"/><text fill="#000000" font-family="Times" font-size="10" lengthAdjust="spacing" textLength="71" x="548" y="468.7498">currentSession</text><text fill="#000000" font-family="Times" font-size="10" lengthAdjust="spacing" textLength="61" x="553" y="482.3698">:UserSession</text><rect fill="#FFFFFF" height="384.8199" style="stroke:#181818;stroke-width:1.0;" width="10" x="232" y="57.24"/><rect fill="#FFFFFF" height="32.62" style="stroke:#181818;stroke-width:1.0;" width="10" x="237" y="300.8199"/><rect fill="#FFFFFF" height="27.62" style="stroke:#181818;stroke-width:1.0;" width="10" x="357" y="104.4799"/><rect fill="#FFFFFF" height="27.62" style="stroke:#181818;stroke-width:1.0;" width="10" x="472.5" y="159.7199"/><rect fill="#FFFFFF" height="27.62" style="stroke:#181818;stroke-width:1.0;" width="10" x="578.5" y="214.9599"/><ellipse cx="7.5" cy="76.11" fill="none" rx="4" ry="4" style="stroke:#181818;stroke-width:1.5;"/><polygon fill="#181818" points="220,72.86,230,76.86,220,80.86,224,76.86" style="stroke:#181818;stroke-width:1.0;"/><line style="stroke:#181818;stroke-width:1.0;" x1="12" x2="226" y1="76.86" y2="76.86"/><text fill="#000000" font-family="Times" font-size="10" font-weight="bold" lengthAdjust="spacing" textLength="6" x="15" y="71.93">1</text><text fill="#000000" font-family="Times" font-size="10" lengthAdjust="spacing" textLength="37" x="25" y="71.93">create()</text><polygon fill="#181818" points="345,100.4799,355,104.4799,345,108.4799,349,104.4799" style="stroke:#181818;stroke-width:1.0;"/><line style="stroke:#181818;stroke-width:1.0;" x1="242" x2="351" y1="104.4799" y2="104.4799"/><text fill="#000000" font-family="Times" font-size="10" font-weight="bold" lengthAdjust="spacing" textLength="6" x="249" y="99.55">2</text><text fill="#000000" font-family="Times" font-size="10" lengthAdjust="spacing" textLength="63" x="259" y="99.55">getinstance()</text><polygon fill="#181818" points="253,128.0999,243,132.0999,253,136.0999,249,132.0999" style="stroke:#181818;stroke-width:1.0;"/><line style="stroke:#181818;stroke-width:1.0;stroke-dasharray:2.0,2.0;" x1="247" x2="361" y1="132.0999" y2="132.0999"/><text fill="#000000" font-family="Times" font-size="10" font-weight="bold" lengthAdjust="spacing" textLength="6" x="259" y="127.1699">3</text><text fill="#000000" font-family="Times" font-size="10" lengthAdjust="spacing" textLength="54" x="269" y="127.1699">appSession</text><polygon fill="#181818" points="460.5,155.7199,470.5,159.7199,460.5,163.7199,464.5,159.7199" style="stroke:#181818;stroke-width:1.0;"/><line style="stroke:#181818;stroke-width:1.0;" x1="242" x2="466.5" y1="159.7199" y2="159.7199"/><text fill="#000000" font-family="Times" font-size="10" font-weight="bold" lengthAdjust="spacing" textLength="6" x="249" y="154.7899">4</text><text fill="#000000" font-family="Times" font-size="10" lengthAdjust="spacing" textLength="94" x="259" y="154.7899">getCurrentSession()</text><polygon fill="#181818" points="253,183.3399,243,187.3399,253,191.3399,249,187.3399" style="stroke:#181818;stroke-width:1.0;"/><line style="stroke:#181818;stroke-width:1.0;stroke-dasharray:2.0,2.0;" x1="247" x2="476.5" y1="187.3399" y2="187.3399"/><text fill="#000000" font-family="Times" font-size="10" font-weight="bold" lengthAdjust="spacing" textLength="6" x="259" y="182.4099">5</text><text fill="#000000" font-family="Times" font-size="10" lengthAdjust="spacing" textLength="71" x="269" y="182.4099">currentSession</text><polygon fill="#181818" points="566.5,210.9599,576.5,214.9599,566.5,218.9599,570.5,214.9599" style="stroke:#181818;stroke-width:1.0;"/><line style="stroke:#181818;stroke-width:1.0;" x1="242" x2="572.5" y1="214.9599" y2="214.9599"/><text fill="#000000" font-family="Times" font-size="10" font-weight="bold" lengthAdjust="spacing" textLength="6" x="249" y="210.0299">6</text><text fill="#000000" font-family="Times" font-size="10" lengthAdjust="spacing" textLength="154" x="259" y="210.0299">isLoggedInWithRole(USER_ROLE)</text><polygon fill="#181818" points="253,238.5799,243,242.5799,253,246.5799,249,242.5799" style="stroke:#181818;stroke-width:1.0;"/><line style="stroke:#181818;stroke-width:1.0;stroke-dasharray:2.0,2.0;" x1="247" x2="582.5" y1="242.5799" y2="242.5799"/><text fill="#000000" font-family="Times" font-size="10" font-weight="bold" lengthAdjust="spacing" textLength="6" x="259" y="237.6499">7</text><text fill="#000000" font-family="Times" font-size="10" lengthAdjust="spacing" textLength="35" x="269" y="237.6499">answer</text><path d="M11,257.5799 L69,257.5799 L69,263.1999 L59,273.1999 L11,273.1999 L11,257.5799 " fill="#EEEEEE" style="stroke:#000000;stroke-width:1.5;"/><rect fill="none" height="177.4799" style="stroke:#000000;stroke-width:1.5;" width="625" x="11" y="257.5799"/><text fill="#000000" font-family="Times" font-size="10" font-weight="bold" lengthAdjust="spacing" textLength="13" x="26" y="269.2699">alt</text><text fill="#000000" font-family="Times" font-size="10" font-weight="bold" lengthAdjust="spacing" textLength="78" x="84" y="270.2699">[answer = true]</text><line style="stroke:#181818;stroke-width:1.0;" x1="242" x2="289" y1="287.8199" y2="287.8199"/><line style="stroke:#181818;stroke-width:1.0;" x1="289" x2="289" y1="287.8199" y2="300.8199"/><line style="stroke:#181818;stroke-width:1.0;" x1="248" x2="289" y1="300.8199" y2="300.8199"/><polygon fill="#181818" points="258,296.8199,248,300.8199,258,304.8199,254,300.8199" style="stroke:#181818;stroke-width:1.0;"/><text fill="#000000" font-family="Times" font-size="10" font-weight="bold" lengthAdjust="spacing" textLength="6" x="254" y="282.8899">8</text><text fill="#000000" font-family="Times" font-size="10" lengthAdjust="spacing" textLength="84" x="264" y="282.8899">doesOtherThing()</text><ellipse cx="7.5" cy="332.6898" fill="none" rx="4" ry="4" style="stroke:#181818;stroke-width:1.5;"/><polygon fill="#181818" points="24.5,329.4398,14.5,333.4398,24.5,337.4398,20.5,333.4398" style="stroke:#181818;stroke-width:1.0;"/><line style="stroke:#181818;stroke-width:1.0;stroke-dasharray:2.0,2.0;" x1="22.5" x2="231" y1="333.4398" y2="333.4398"/><text fill="#000000" font-family="Times" font-size="10" font-weight="bold" lengthAdjust="spacing" textLength="6" x="25" y="328.5099">9</text><text fill="#000000" font-family="Times" font-size="10" lengthAdjust="spacing" textLength="11" x="35" y="328.5099">ok</text><polygon fill="#FFFFFF" points="571.5,343.4398,581.5,347.4398,571.5,351.4398,575.5,347.4398" style="stroke:#FFFFFF;stroke-width:1.0;"/><line style="stroke:#FFFFFF;stroke-width:1.0;" x1="242" x2="577.5" y1="347.4398" y2="347.4398"/><line style="stroke:#000000;stroke-width:1.0;stroke-dasharray:2.0,2.0;" x1="11" x2="636" y1="356.4398" y2="356.4398"/><ellipse cx="7.5" cy="401.3098" fill="none" rx="4" ry="4" style="stroke:#181818;stroke-width:1.5;"/><polygon fill="#181818" points="24.5,398.0598,14.5,402.0598,24.5,406.0598,20.5,402.0598" style="stroke:#181818;stroke-width:1.0;"/><line style="stroke:#181818;stroke-width:1.0;stroke-dasharray:2.0,2.0;" x1="22.5" x2="231" y1="402.0598" y2="402.0598"/><text fill="#000000" font-family="Times" font-size="10" font-weight="bold" lengthAdjust="spacing" textLength="12" x="25" y="397.1298">10</text><text fill="#000000" font-family="Times" font-size="10" lengthAdjust="spacing" textLength="189" x="41" y="397.1298">illegalStateException("Not Authorized")</text><!--SRC=[XPHFYzim4CNl_XGYFJHx26oleLq89Wk6a2nsGWzfMRJon1QHDKOQDzis_UwL_oIMKuVgOcEzz_oRiSRsA7N93IyKYYEaB8K3hnGzewOrBu1jPG4siFTLYVm5xDDZBs45QXIvGUScKu6tKt9nv1aaz5C1Co28wqpv0flp54zIP-p0bOKWu1MXheetC47mCPSfi0CYlU5xu0maXIov9ZQP_wvXDuTT-2TqJ0QL0ZDXtB9m6w-6saLPAYauITG9MEikZN3nyf8iaoJQhCEXdfTbf_kcv_yrHqEpg8m1rwHhmCw2yPtXBkwShbX1yWSdQA7tE7jgxjYS2GFk-VGXO6urpzoUH-ma6P3KrdLKrBf6UCtpQsFTyjsp_arzjOqoXT6GEnnHon4EYkweHtAY4PZ8XnbsxpvGD0JgU-eof5rXba4QwQ-IyXWLJ7V9CdwDDwlb3PdtBIvWNfJV96rFxaJUyFYViibLr2dPbtOIhgaNq3OkHR0Roi5iStVqktuDoUe3mRorny-psSMFn-kUZ-Dx-ZbYbh2y8Tb_EEMIuFlJM0iygm5R5MqPK8_dHN8-duDHCkdcCECg8GUqV1TGreCpdQoHsAAY78txUQIJXt-2GATr-uBWjfw_]--></g></svg>