<svg xmlns="http://www.w3.org/2000/svg" xmlns:xlink="http://www.w3.org/1999/xlink" contentStyleType="text/css" data-diagram-type="SEQUENCE" height="1067px" preserveAspectRatio="none" style="width:740px;height:1067px;background:#FFFFFF;" version="1.1" viewBox="0 0 740 1067" width="740px" zoomAndPan="magnify"><title>SSD - Record and Manage Incidents (US 4.1.13)</title><defs/><g><text fill="#000000" font-family="sans-serif" font-size="14" font-weight="bold" lengthAdjust="spacing" textLength="339.3838" x="196.3955" y="28.5352">SSD - Record and Manage Incidents (US 4.1.13)</text><g><title>Logistics Operator</title><rect fill="#000000" fill-opacity="0.00000" height="867.6953" width="8" x="66.2549" y="118.9766"/><line style="stroke:#181818;stroke-width:0.5;stroke-dasharray:5,5;" x1="70" x2="70" y1="118.9766" y2="986.6719"/></g><g><title>SPA</title><rect fill="#000000" fill-opacity="0.00000" height="867.6953" width="8" x="343.4565" y="118.9766"/><line style="stroke:#181818;stroke-width:0.5;stroke-dasharray:5,5;" x1="346.9565" x2="346.9565" y1="118.9766" y2="986.6719"/></g><g><title>Incidents REST API</title><rect fill="#000000" fill-opacity="0.00000" height="867.6953" width="8" x="600.168" y="118.9766"/><line style="stroke:#181818;stroke-width:0.5;stroke-dasharray:5,5;" x1="603.8003" x2="603.8003" y1="118.9766" y2="986.6719"/></g><g class="participant participant-head" data-participant="LO"><text fill="#000000" font-family="sans-serif" font-size="14" lengthAdjust="spacing" textLength="124.5098" x="5" y="116.0234">Logistics Operator</text><ellipse cx="70.2549" cy="50.9883" fill="#E2E2F0" rx="8" ry="8" style="stroke:#181818;stroke-width:0.5;"/><path d="M70.2549,58.9883 L70.2549,85.9883 M57.2549,66.9883 L83.2549,66.9883 M70.2549,85.9883 L57.2549,100.9883 M70.2549,85.9883 L83.2549,100.9883" fill="none" style="stroke:#181818;stroke-width:0.5;"/></g><g class="participant participant-tail" data-participant="LO"><text fill="#000000" font-family="sans-serif" font-size="14" lengthAdjust="spacing" textLength="124.5098" x="5" y="999.207">Logistics Operator</text><ellipse cx="70.2549" cy="1010.6602" fill="#E2E2F0" rx="8" ry="8" style="stroke:#181818;stroke-width:0.5;"/><path d="M70.2549,1018.6602 L70.2549,1045.6602 M57.2549,1026.6602 L83.2549,1026.6602 M70.2549,1045.6602 L57.2549,1060.6602 M70.2549,1045.6602 L83.2549,1060.6602" fill="none" style="stroke:#181818;stroke-width:0.5;"/></g><g class="participant participant-head" data-participant="SPA"><text fill="#000000" font-family="sans-serif" font-size="14" lengthAdjust="spacing" textLength="24.9375" x="331.9878" y="116.0234">SPA</text><path d="M326.9565,74.4883 L326.9565,98.4883 M326.9565,86.4883 L343.9565,86.4883" fill="none" style="stroke:#181818;stroke-width:0.5;"/><ellipse cx="355.9565" cy="86.4883" fill="#E2E2F0" rx="12" ry="12" style="stroke:#181818;stroke-width:0.5;"/></g><g class="participant participant-tail" data-participant="SPA"><text fill="#000000" font-family="sans-serif" font-size="14" lengthAdjust="spacing" textLength="24.9375" x="331.9878" y="999.207">SPA</text><path d="M326.9565,1006.1602 L326.9565,1030.1602 M326.9565,1018.1602 L343.9565,1018.1602" fill="none" style="stroke:#181818;stroke-width:0.5;"/><ellipse cx="355.9565" cy="1018.1602" fill="#E2E2F0" rx="12" ry="12" style="stroke:#181818;stroke-width:0.5;"/></g><g class="participant participant-head" data-participant="API"><text fill="#000000" font-family="sans-serif" font-size="14" lengthAdjust="spacing" textLength="124.7354" x="538.8003" y="116.0234">Incidents REST API</text><path d="M583.668,74.4883 L583.668,98.4883 M583.668,86.4883 L600.668,86.4883" fill="none" style="stroke:#181818;stroke-width:0.5;"/><ellipse cx="612.668" cy="86.4883" fill="#E2E2F0" rx="12" ry="12" style="stroke:#181818;stroke-width:0.5;"/></g><g class="participant participant-tail" data-participant="API"><text fill="#000000" font-family="sans-serif" font-size="14" lengthAdjust="spacing" textLength="124.7354" x="538.8003" y="999.207">Incidents REST API</text><path d="M583.668,1006.1602 L583.668,1030.1602 M583.668,1018.1602 L600.668,1018.1602" fill="none" style="stroke:#181818;stroke-width:0.5;"/><ellipse cx="612.668" cy="1018.1602" fill="#E2E2F0" rx="12" ry="12" style="stroke:#181818;stroke-width:0.5;"/></g><rect fill="#EEEEEE" height="3" style="stroke:#EEEEEE;stroke-width:1;" width="733.1748" x="0" y="149.6318"/><line style="stroke:#000000;stroke-width:1;" x1="0" x2="733.1748" y1="149.6318" y2="149.6318"/><line style="stroke:#000000;stroke-width:1;" x1="0" x2="733.1748" y1="152.6318" y2="152.6318"/><rect fill="#EEEEEE" height="23.3105" style="stroke:#000000;stroke-width:2;" width="119.917" x="306.6289" y="138.9766"/><text fill="#000000" font-family="sans-serif" font-size="13" font-weight="bold" lengthAdjust="spacing" textLength="101.6323" x="312.6289" y="155.5449">Create Incident</text><g class="message" data-participant-1="LO" data-participant-2="SPA"><polygon fill="#181818" points="335.4565,204.9082,345.4565,208.9082,335.4565,212.9082,339.4565,208.9082" style="stroke:#181818;stroke-width:1;"/><line style="stroke:#181818;stroke-width:1;" x1="70.2549" x2="341.4565" y1="208.9082" y2="208.9082"/><text fill="#000000" font-family="sans-serif" font-size="13" lengthAdjust="spacing" textLength="118.7646" x="77.2549" y="188.8555">Enter incident data</text><text fill="#000000" font-family="sans-serif" font-size="13" lengthAdjust="spacing" textLength="253.2017" x="77.2549" y="204.166">(type, start, severity, scope, description)</text></g><g class="message" data-participant-1="SPA" data-participant-2="API"><polygon fill="#181818" points="592.168,234.2188,602.168,238.2188,592.168,242.2188,596.168,238.2188" style="stroke:#181818;stroke-width:1;"/><line style="stroke:#181818;stroke-width:1;" x1="347.4565" x2="598.168" y1="238.2188" y2="238.2188"/><text fill="#000000" font-family="sans-serif" font-size="13" lengthAdjust="spacing" textLength="232.7114" x="354.4565" y="233.4766">POST /incidents (CreateIncidentDTO)</text></g><g class="message" data-participant-1="API" data-participant-2="SPA"><polygon fill="#181818" points="358.4565,263.5293,348.4565,267.5293,358.4565,271.5293,354.4565,267.5293" style="stroke:#181818;stroke-width:1;"/><line style="stroke:#181818;stroke-width:1;stroke-dasharray:2,2;" x1="352.4565" x2="603.168" y1="267.5293" y2="267.5293"/><text fill="#000000" font-family="sans-serif" font-size="13" lengthAdjust="spacing" textLength="169.0063" x="364.4565" y="262.7871">201 Created (IncidentDTO)</text></g><g class="message" data-participant-1="SPA" data-participant-2="LO"><polygon fill="#181818" points="81.2549,292.8398,71.2549,296.8398,81.2549,300.8398,77.2549,296.8398" style="stroke:#181818;stroke-width:1;"/><line style="stroke:#181818;stroke-width:1;stroke-dasharray:2,2;" x1="75.2549" x2="346.4565" y1="296.8398" y2="296.8398"/><text fill="#000000" font-family="sans-serif" font-size="13" lengthAdjust="spacing" textLength="138.582" x="87.2549" y="292.0977">Show created incident</text></g><rect fill="#EEEEEE" height="3" style="stroke:#EEEEEE;stroke-width:1;" width="733.1748" x="0" y="325.4951"/><line style="stroke:#000000;stroke-width:1;" x1="0" x2="733.1748" y1="325.4951" y2="325.4951"/><line style="stroke:#000000;stroke-width:1;" x1="0" x2="733.1748" y1="328.4951" y2="328.4951"/><rect fill="#EEEEEE" height="23.3105" style="stroke:#000000;stroke-width:2;" width="150.4238" x="291.3755" y="314.8398"/><text fill="#000000" font-family="sans-serif" font-size="13" font-weight="bold" lengthAdjust="spacing" textLength="132.1392" x="297.3755" y="331.4082">List/Filter Incidents</text><g class="message" data-participant-1="LO" data-participant-2="SPA"><polygon fill="#181818" points="335.4565,380.7715,345.4565,384.7715,335.4565,388.7715,339.4565,384.7715" style="stroke:#181818;stroke-width:1;"/><line style="stroke:#181818;stroke-width:1;" x1="70.2549" x2="341.4565" y1="384.7715" y2="384.7715"/><text fill="#000000" font-family="sans-serif" font-size="13" lengthAdjust="spacing" textLength="76.3433" x="77.2549" y="364.7188">Apply filters</text><text fill="#000000" font-family="sans-serif" font-size="13" lengthAdjust="spacing" textLength="225.6528" x="77.2549" y="380.0293">(vessel, date range, severity, status)</text></g><g class="message" data-participant-1="SPA" data-participant-2="API"><polygon fill="#181818" points="592.168,410.082,602.168,414.082,592.168,418.082,596.168,414.082" style="stroke:#181818;stroke-width:1;"/><line style="stroke:#181818;stroke-width:1;" x1="347.4565" x2="598.168" y1="414.082" y2="414.082"/><text fill="#000000" font-family="sans-serif" font-size="13" lengthAdjust="spacing" textLength="110.6396" x="354.4565" y="409.3398">GET /incidents?...</text></g><g class="message" data-participant-1="API" data-participant-2="SPA"><polygon fill="#181818" points="358.4565,439.3926,348.4565,443.3926,358.4565,447.3926,354.4565,443.3926" style="stroke:#181818;stroke-width:1;"/><line style="stroke:#181818;stroke-width:1;stroke-dasharray:2,2;" x1="352.4565" x2="603.168" y1="443.3926" y2="443.3926"/><text fill="#000000" font-family="sans-serif" font-size="13" lengthAdjust="spacing" textLength="147.0244" x="364.4565" y="438.6504">200 OK (IncidentDTO[])</text></g><g class="message" data-participant-1="SPA" data-participant-2="LO"><polygon fill="#181818" points="81.2549,484.0137,71.2549,488.0137,81.2549,492.0137,77.2549,488.0137" style="stroke:#181818;stroke-width:1;"/><line style="stroke:#181818;stroke-width:1;stroke-dasharray:2,2;" x1="75.2549" x2="346.4565" y1="488.0137" y2="488.0137"/><text fill="#000000" font-family="sans-serif" font-size="13" lengthAdjust="spacing" textLength="56.1895" x="87.2549" y="467.9609">Show list</text><text fill="#000000" font-family="sans-serif" font-size="13" lengthAdjust="spacing" textLength="172.3706" x="87.2549" y="483.2715">(highlight active impacting)</text></g><rect fill="#EEEEEE" height="3" style="stroke:#EEEEEE;stroke-width:1;" width="733.1748" x="0" y="516.6689"/><line style="stroke:#000000;stroke-width:1;" x1="0" x2="733.1748" y1="516.6689" y2="516.6689"/><line style="stroke:#000000;stroke-width:1;" x1="0" x2="733.1748" y1="519.6689" y2="519.6689"/><rect fill="#EEEEEE" height="23.3105" style="stroke:#000000;stroke-width:2;" width="213.418" x="259.8784" y="506.0137"/><text fill="#000000" font-family="sans-serif" font-size="13" font-weight="bold" lengthAdjust="spacing" textLength="195.1333" x="265.8784" y="522.582">Attach/Detach Affected VVEs</text><g class="message" data-participant-1="LO" data-participant-2="SPA"><polygon fill="#181818" points="335.4565,556.6348,345.4565,560.6348,335.4565,564.6348,339.4565,560.6348" style="stroke:#181818;stroke-width:1;"/><line style="stroke:#181818;stroke-width:1;" x1="70.2549" x2="341.4565" y1="560.6348" y2="560.6348"/><text fill="#000000" font-family="sans-serif" font-size="13" lengthAdjust="spacing" textLength="140.4292" x="77.2549" y="555.8926">Attach VVE to incident</text></g><g class="message" data-participant-1="SPA" data-participant-2="API"><polygon fill="#181818" points="592.168,585.9453,602.168,589.9453,592.168,593.9453,596.168,589.9453" style="stroke:#181818;stroke-width:1;"/><line style="stroke:#181818;stroke-width:1;" x1="347.4565" x2="598.168" y1="589.9453" y2="589.9453"/><text fill="#000000" font-family="sans-serif" font-size="13" lengthAdjust="spacing" textLength="209.917" x="354.4565" y="585.2031">POST /incidents/{id}/vves/{vveId}</text></g><g class="message" data-participant-1="API" data-participant-2="SPA"><polygon fill="#181818" points="358.4565,615.2559,348.4565,619.2559,358.4565,623.2559,354.4565,619.2559" style="stroke:#181818;stroke-width:1;"/><line style="stroke:#181818;stroke-width:1;stroke-dasharray:2,2;" x1="352.4565" x2="603.168" y1="619.2559" y2="619.2559"/><text fill="#000000" font-family="sans-serif" font-size="13" lengthAdjust="spacing" textLength="194.5811" x="364.4565" y="614.5137">200 OK (IncidentDTO updated)</text></g><g class="message" data-participant-1="SPA" data-participant-2="LO"><polygon fill="#181818" points="81.2549,644.5664,71.2549,648.5664,81.2549,652.5664,77.2549,648.5664" style="stroke:#181818;stroke-width:1;"/><line style="stroke:#181818;stroke-width:1;stroke-dasharray:2,2;" x1="75.2549" x2="346.4565" y1="648.5664" y2="648.5664"/><text fill="#000000" font-family="sans-serif" font-size="13" lengthAdjust="spacing" textLength="142.6636" x="87.2549" y="643.8242">Updated affected VVEs</text></g><g class="message" data-participant-1="LO" data-participant-2="SPA"><polygon fill="#181818" points="335.4565,673.877,345.4565,677.877,335.4565,681.877,339.4565,677.877" style="stroke:#181818;stroke-width:1;"/><line style="stroke:#181818;stroke-width:1;" x1="70.2549" x2="341.4565" y1="677.877" y2="677.877"/><text fill="#000000" font-family="sans-serif" font-size="13" lengthAdjust="spacing" textLength="160.9512" x="77.2549" y="673.1348">Detach VVE from incident</text></g><g class="message" data-participant-1="SPA" data-participant-2="API"><polygon fill="#181818" points="592.168,703.1875,602.168,707.1875,592.168,711.1875,596.168,707.1875" style="stroke:#181818;stroke-width:1;"/><line style="stroke:#181818;stroke-width:1;" x1="347.4565" x2="598.168" y1="707.1875" y2="707.1875"/><text fill="#000000" font-family="sans-serif" font-size="13" lengthAdjust="spacing" textLength="223.4375" x="354.4565" y="702.4453">DELETE /incidents/{id}/vves/{vveId}</text></g><g class="message" data-participant-1="API" data-participant-2="SPA"><polygon fill="#181818" points="358.4565,732.498,348.4565,736.498,358.4565,740.498,354.4565,736.498" style="stroke:#181818;stroke-width:1;"/><line style="stroke:#181818;stroke-width:1;stroke-dasharray:2,2;" x1="352.4565" x2="603.168" y1="736.498" y2="736.498"/><text fill="#000000" font-family="sans-serif" font-size="13" lengthAdjust="spacing" textLength="194.5811" x="364.4565" y="731.7559">200 OK (IncidentDTO updated)</text></g><g class="message" data-participant-1="SPA" data-participant-2="LO"><polygon fill="#181818" points="81.2549,761.8086,71.2549,765.8086,81.2549,769.8086,77.2549,765.8086" style="stroke:#181818;stroke-width:1;"/><line style="stroke:#181818;stroke-width:1;stroke-dasharray:2,2;" x1="75.2549" x2="346.4565" y1="765.8086" y2="765.8086"/><text fill="#000000" font-family="sans-serif" font-size="13" lengthAdjust="spacing" textLength="142.6636" x="87.2549" y="761.0664">Updated affected VVEs</text></g><rect fill="#EEEEEE" height="3" style="stroke:#EEEEEE;stroke-width:1;" width="733.1748" x="0" y="794.4639"/><line style="stroke:#000000;stroke-width:1;" x1="0" x2="733.1748" y1="794.4639" y2="794.4639"/><line style="stroke:#000000;stroke-width:1;" x1="0" x2="733.1748" y1="797.4639" y2="797.4639"/><rect fill="#EEEEEE" height="23.3105" style="stroke:#000000;stroke-width:2;" width="128.3975" x="302.3887" y="783.8086"/><text fill="#000000" font-family="sans-serif" font-size="13" font-weight="bold" lengthAdjust="spacing" textLength="110.1128" x="308.3887" y="800.377">Resolve Incident</text><g class="message" data-participant-1="LO" data-participant-2="SPA"><polygon fill="#181818" points="335.4565,834.4297,345.4565,838.4297,335.4565,842.4297,339.4565,838.4297" style="stroke:#181818;stroke-width:1;"/><line style="stroke:#181818;stroke-width:1;" x1="70.2549" x2="341.4565" y1="838.4297" y2="838.4297"/><text fill="#000000" font-family="sans-serif" font-size="13" lengthAdjust="spacing" textLength="136.2969" x="77.2549" y="833.6875">Set end time (resolve)</text></g><g class="message" data-participant-1="SPA" data-participant-2="API"><polygon fill="#181818" points="592.168,863.7402,602.168,867.7402,592.168,871.7402,596.168,867.7402" style="stroke:#181818;stroke-width:1;"/><line style="stroke:#181818;stroke-width:1;" x1="347.4565" x2="598.168" y1="867.7402" y2="867.7402"/><text fill="#000000" font-family="sans-serif" font-size="13" lengthAdjust="spacing" textLength="205.7085" x="354.4565" y="862.998">PATCH /incidents/{id} (endTime)</text></g><g class="message" data-participant-1="API" data-participant-2="API"><line style="stroke:#181818;stroke-width:1;" x1="604.168" x2="646.168" y1="897.0508" y2="897.0508"/><line style="stroke:#181818;stroke-width:1;" x1="646.168" x2="646.168" y1="897.0508" y2="910.0508"/><line style="stroke:#181818;stroke-width:1;" x1="605.168" x2="646.168" y1="910.0508" y2="910.0508"/><polygon fill="#181818" points="615.168,906.0508,605.168,910.0508,615.168,914.0508,611.168,910.0508" style="stroke:#181818;stroke-width:1;"/><text fill="#000000" font-family="sans-serif" font-size="13" lengthAdjust="spacing" textLength="115.0068" x="611.168" y="892.3086">Compute duration</text></g><g class="message" data-participant-1="API" data-participant-2="SPA"><polygon fill="#181818" points="358.4565,935.3613,348.4565,939.3613,358.4565,943.3613,354.4565,939.3613" style="stroke:#181818;stroke-width:1;"/><line style="stroke:#181818;stroke-width:1;stroke-dasharray:2,2;" x1="352.4565" x2="603.168" y1="939.3613" y2="939.3613"/><text fill="#000000" font-family="sans-serif" font-size="13" lengthAdjust="spacing" textLength="217.0518" x="364.4565" y="934.6191">200 OK (IncidentDTO w/ duration)</text></g><g class="message" data-participant-1="SPA" data-participant-2="LO"><polygon fill="#181818" points="81.2549,964.6719,71.2549,968.6719,81.2549,972.6719,77.2549,968.6719" style="stroke:#181818;stroke-width:1;"/><line style="stroke:#181818;stroke-width:1;stroke-dasharray:2,2;" x1="75.2549" x2="346.4565" y1="968.6719" y2="968.6719"/><text fill="#000000" font-family="sans-serif" font-size="13" lengthAdjust="spacing" textLength="144.9805" x="87.2549" y="963.9297">Show resolved incident</text></g><!--SRC=[lPF1Zjem48RlUOeHfo0joTBsX4Ih2D8MDLKGOVVIzk360rWASMGFhD1gtxtZ49g4qkwjXyJH-C_C_uqzfAX0oB8vZ625kJOIH2dXgoZ55c5HvafYIHRyXmpU1UDW_7ReUI8dRM2GwAsof78BQOL6S6m0maAIUZ_rePJ2d62GBQCwo6idskPTnTaQekMY5l7gUTCfp0mAQgl3TEebAOpUkomJY4j20-goAGM9xwLFfmhlm98mn0iUqIWwyLUkNLoYpOsgIEbow74MbuohJM2PSlrGjPpdsfVIytKwz5W8eqlrD_VZnfy4loUhqx8iIIUGxVGJv8tiahrcIxXbuKTLE8Qs3Nt2gAgA4sngaMMs8rgBnPr3HJ2Yt68FaGGTR1_hKzob-X04mJN5FQHVUW3VVjn0ADWj6zYfxQxWXu2FNXqHrBvoN-LsM4D5H2BVXNDq2qIR3UOE_F4n_WEjLheT8DrsvXz74Zuh-H8UkGVXCxyNykLL53XKhbMo3_Hm3eBeslEwvXh_pjp6wFrjU_CuYTVnVpJ8_LsXrSNnhnEH8G7or9BQ8_ZcBBwwvz5wzldQDFZyrvf_QkvuevtfVNNWcoOFFDGyCQ_ZF8M_nJSkKMEeCmY_0000]--></g></svg>