<svg xmlns="http://www.w3.org/2000/svg" xmlns:xlink="http://www.w3.org/1999/xlink" contentStyleType="text/css" data-diagram-type="CLASS" height="1370px" preserveAspectRatio="none" style="width:1035px;height:1370px;background:#FFFFFF;" version="1.1" viewBox="0 0 1035 1370" width="1035px" zoomAndPan="magnify"><title>Domain Model - Operation Plan Update (US4.1.4)</title><defs/><g><g class="title" data-source-line="3"><text fill="#000000" font-family="sans-serif" font-size="14" font-weight="bold" lengthAdjust="spacing" textLength="352.707" x="334.1465" y="23.5352">Domain Model - Operation Plan Update (US4.1.4)</text></g><!--class VVN--><g class="entity" data-entity="VVN" data-source-line="8" data-uid="ent0002" id="entity_VVN"><rect fill="#F1F1F1" height="155.5508" rx="2.5" ry="2.5" style="stroke:#181818;stroke-width:0.5;" width="148.083" x="421.96" y="178.5983"/><ellipse cx="446.2153" cy="198.9088" fill="#C2C2C2" rx="11" ry="11" style="stroke:#181818;stroke-width:1;"/><path d="M449.1885,204.5519 Q448.6074,204.8507 447.9683,205.0001 Q447.3291,205.1496 446.6235,205.1496 Q444.1167,205.1496 442.7969,203.4977 Q441.477,201.8458 441.477,198.7247 Q441.477,195.5954 442.7969,193.9435 Q444.1167,192.2916 446.6235,192.2916 Q447.3291,192.2916 447.9766,192.4411 Q448.624,192.5905 449.1885,192.8893 L449.1885,195.612 Q448.5576,195.0309 447.9641,194.7611 Q447.3706,194.4913 446.7397,194.4913 Q445.395,194.4913 444.7102,195.558 Q444.0254,196.6246 444.0254,198.7247 Q444.0254,200.8165 444.7102,201.8832 Q445.395,202.9498 446.7397,202.9498 Q447.3706,202.9498 447.9641,202.6801 Q448.5576,202.4103 449.1885,201.8292 Z " fill="#000000"/><text fill="#000000" font-family="sans-serif" font-size="12" font-style="italic" lengthAdjust="spacing" textLength="99.5156" x="460.2721" y="195.1998">&#171;AggregateRoot&#187;</text><text fill="#000000" font-family="sans-serif" font-size="14" lengthAdjust="spacing" textLength="28.6494" x="495.7052" y="211.2662">VVN</text><line style="stroke:#181818;stroke-width:0.5;" x1="422.96" x2="569.043" y1="219.2194" y2="219.2194"/><ellipse cx="432.96" cy="232.9635" fill="none" rx="3" ry="3" style="stroke:#545454;stroke-width:1;"/><text fill="#000000" font-family="sans-serif" font-size="14" lengthAdjust="spacing" textLength="122.083" x="441.96" y="236.7545">id: UniqueEntityID</text><ellipse cx="432.96" cy="249.4518" fill="none" rx="3" ry="3" style="stroke:#545454;stroke-width:1;"/><text fill="#000000" font-family="sans-serif" font-size="14" lengthAdjust="spacing" textLength="102.4365" x="441.96" y="253.2428">vesselId: string</text><ellipse cx="432.96" cy="265.9401" fill="none" rx="3" ry="3" style="stroke:#545454;stroke-width:1;"/><text fill="#000000" font-family="sans-serif" font-size="14" lengthAdjust="spacing" textLength="94.0352" x="441.96" y="269.7311">dockId: string</text><ellipse cx="432.96" cy="282.4284" fill="none" rx="3" ry="3" style="stroke:#545454;stroke-width:1;"/><text fill="#000000" font-family="sans-serif" font-size="14" lengthAdjust="spacing" textLength="82.4141" x="441.96" y="286.2194">eta: number</text><ellipse cx="432.96" cy="298.9166" fill="none" rx="3" ry="3" style="stroke:#545454;stroke-width:1;"/><text fill="#000000" font-family="sans-serif" font-size="14" lengthAdjust="spacing" textLength="83.4941" x="441.96" y="302.7077">etd: number</text><ellipse cx="432.96" cy="315.4049" fill="none" rx="3" ry="3" style="stroke:#545454;stroke-width:1;"/><text fill="#000000" font-family="sans-serif" font-size="14" lengthAdjust="spacing" textLength="89.5918" x="441.96" y="319.1959">status: string</text><line style="stroke:#181818;stroke-width:0.5;" x1="422.96" x2="569.043" y1="326.1491" y2="326.1491"/></g><!--class OperationPlan--><g class="entity" data-entity="OperationPlan" data-source-line="20" data-uid="ent0003" id="entity_OperationPlan"><rect fill="#F1F1F1" height="188.5273" rx="2.5" ry="2.5" style="stroke:#181818;stroke-width:0.5;" width="155.876" x="291.06" y="411.1483"/><ellipse cx="318.7286" cy="431.4588" fill="#C2C2C2" rx="11" ry="11" style="stroke:#181818;stroke-width:1;"/><path d="M321.7017,437.1019 Q321.1206,437.4007 320.4815,437.5501 Q319.8423,437.6996 319.1368,437.6996 Q316.6299,437.6996 315.3101,436.0477 Q313.9903,434.3958 313.9903,431.2747 Q313.9903,428.1454 315.3101,426.4935 Q316.6299,424.8416 319.1368,424.8416 Q319.8423,424.8416 320.4898,424.9911 Q321.1372,425.1405 321.7017,425.4393 L321.7017,428.162 Q321.0708,427.5809 320.4773,427.3111 Q319.8838,427.0413 319.253,427.0413 Q317.9082,427.0413 317.2234,428.108 Q316.5386,429.1746 316.5386,431.2747 Q316.5386,433.3665 317.2234,434.4332 Q317.9082,435.4998 319.253,435.4998 Q319.8838,435.4998 320.4773,435.2301 Q321.0708,434.9603 321.7017,434.3792 Z " fill="#000000"/><text fill="#000000" font-family="sans-serif" font-size="12" font-style="italic" lengthAdjust="spacing" textLength="99.5156" x="333.6478" y="427.7498">&#171;AggregateRoot&#187;</text><text fill="#000000" font-family="sans-serif" font-size="14" lengthAdjust="spacing" textLength="95.7236" x="335.5438" y="443.8162">OperationPlan</text><line style="stroke:#181818;stroke-width:0.5;" x1="292.06" x2="445.936" y1="451.7694" y2="451.7694"/><ellipse cx="302.06" cy="465.5135" fill="none" rx="3" ry="3" style="stroke:#545454;stroke-width:1;"/><text fill="#000000" font-family="sans-serif" font-size="14" lengthAdjust="spacing" textLength="122.083" x="311.06" y="469.3045">id: UniqueEntityID</text><ellipse cx="302.06" cy="482.0018" fill="none" rx="3" ry="3" style="stroke:#545454;stroke-width:1;"/><text fill="#000000" font-family="sans-serif" font-size="14" lengthAdjust="spacing" textLength="84.4512" x="311.06" y="485.7928">vvnId: string</text><ellipse cx="302.06" cy="498.4901" fill="none" rx="3" ry="3" style="stroke:#545454;stroke-width:1;"/><text fill="#000000" font-family="sans-serif" font-size="14" lengthAdjust="spacing" textLength="114.3037" x="311.06" y="502.2811">algorithm: string</text><ellipse cx="302.06" cy="514.9784" fill="none" rx="3" ry="3" style="stroke:#545454;stroke-width:1;"/><text fill="#000000" font-family="sans-serif" font-size="14" lengthAdjust="spacing" textLength="129.876" x="311.06" y="518.7694">totalDelay: number</text><ellipse cx="302.06" cy="531.4666" fill="none" rx="3" ry="3" style="stroke:#545454;stroke-width:1;"/><text fill="#000000" font-family="sans-serif" font-size="14" lengthAdjust="spacing" textLength="89.5918" x="311.06" y="535.2577">status: string</text><ellipse cx="302.06" cy="547.9549" fill="none" rx="3" ry="3" style="stroke:#545454;stroke-width:1;"/><text fill="#000000" font-family="sans-serif" font-size="14" lengthAdjust="spacing" textLength="100.6455" x="311.06" y="551.7459">planDate: Date</text><ellipse cx="302.06" cy="564.4432" fill="none" rx="3" ry="3" style="stroke:#545454;stroke-width:1;"/><text fill="#000000" font-family="sans-serif" font-size="14" lengthAdjust="spacing" textLength="105.2871" x="311.06" y="568.2342">createdAt: Date</text><ellipse cx="302.06" cy="580.9315" fill="none" rx="3" ry="3" style="stroke:#545454;stroke-width:1;"/><text fill="#000000" font-family="sans-serif" font-size="14" lengthAdjust="spacing" textLength="93.0986" x="311.06" y="584.7225">author: string</text><line style="stroke:#181818;stroke-width:0.5;" x1="292.06" x2="445.936" y1="591.6756" y2="591.6756"/></g><!--class Operation--><g class="entity" data-entity="Operation" data-source-line="31" data-uid="ent0004" id="entity_Operation"><rect fill="#F1F1F1" height="303.9453" rx="2.5" ry="2.5" style="stroke:#181818;stroke-width:0.5;" width="282.8193" x="58.59" y="676.6683"/><ellipse cx="161.9904" cy="696.9788" fill="#C2C2C2" rx="11" ry="11" style="stroke:#181818;stroke-width:1;"/><path d="M164.9635,702.6219 Q164.3825,702.9207 163.7433,703.0701 Q163.1042,703.2196 162.3986,703.2196 Q159.8918,703.2196 158.5719,701.5677 Q157.2521,699.9158 157.2521,696.7947 Q157.2521,693.6654 158.5719,692.0135 Q159.8918,690.3616 162.3986,690.3616 Q163.1042,690.3616 163.7516,690.5111 Q164.3991,690.6605 164.9635,690.9593 L164.9635,693.682 Q164.3327,693.1009 163.7392,692.8311 Q163.1457,692.5613 162.5148,692.5613 Q161.1701,692.5613 160.4853,693.628 Q159.8004,694.6946 159.8004,696.7947 Q159.8004,698.8865 160.4853,699.9532 Q161.1701,701.0198 162.5148,701.0198 Q163.1457,701.0198 163.7392,700.7501 Q164.3327,700.4803 164.9635,699.8992 Z " fill="#000000"/><text fill="#000000" font-family="sans-serif" font-size="12" font-style="italic" lengthAdjust="spacing" textLength="45.2402" x="193.6296" y="693.2698">&#171;Entity&#187;</text><text fill="#000000" font-family="sans-serif" font-size="14" lengthAdjust="spacing" textLength="67.5186" x="182.4904" y="709.3363">Operation</text><line style="stroke:#181818;stroke-width:0.5;" x1="59.59" x2="340.4093" y1="717.2894" y2="717.2894"/><ellipse cx="69.59" cy="731.0335" fill="none" rx="3" ry="3" style="stroke:#545454;stroke-width:1;"/><text fill="#000000" font-family="sans-serif" font-size="14" lengthAdjust="spacing" textLength="126.5127" x="78.59" y="734.8245">operationId: string</text><ellipse cx="69.59" cy="747.5218" fill="none" rx="3" ry="3" style="stroke:#545454;stroke-width:1;"/><text fill="#000000" font-family="sans-serif" font-size="14" lengthAdjust="spacing" textLength="84.4512" x="78.59" y="751.3128">vvnId: string</text><ellipse cx="69.59" cy="764.0101" fill="none" rx="3" ry="3" style="stroke:#545454;stroke-width:1;"/><text fill="#000000" font-family="sans-serif" font-size="14" lengthAdjust="spacing" textLength="89.5918" x="78.59" y="767.8011">vessel: string</text><ellipse cx="69.59" cy="780.4984" fill="none" rx="3" ry="3" style="stroke:#545454;stroke-width:1;"/><text fill="#000000" font-family="sans-serif" font-size="14" lengthAdjust="spacing" textLength="81.1904" x="78.59" y="784.2894">dock: string</text><ellipse cx="69.59" cy="796.9866" fill="none" rx="3" ry="3" style="stroke:#545454;stroke-width:1;"/><text fill="#000000" font-family="sans-serif" font-size="14" lengthAdjust="spacing" textLength="126.4854" x="78.59" y="800.7777">startTime: number</text><ellipse cx="69.59" cy="813.4749" fill="none" rx="3" ry="3" style="stroke:#545454;stroke-width:1;"/><text fill="#000000" font-family="sans-serif" font-size="14" lengthAdjust="spacing" textLength="120.7158" x="78.59" y="817.2659">endTime: number</text><ellipse cx="69.59" cy="829.9632" fill="none" rx="3" ry="3" style="stroke:#545454;stroke-width:1;"/><text fill="#000000" font-family="sans-serif" font-size="14" lengthAdjust="spacing" textLength="171.5068" x="78.59" y="833.7542">loadingDuration: number</text><ellipse cx="69.59" cy="846.4515" fill="none" rx="3" ry="3" style="stroke:#545454;stroke-width:1;"/><text fill="#000000" font-family="sans-serif" font-size="14" lengthAdjust="spacing" textLength="188.8838" x="78.59" y="850.2425">unloadingDuration: number</text><ellipse cx="69.59" cy="862.9398" fill="none" rx="3" ry="3" style="stroke:#545454;stroke-width:1;"/><text fill="#000000" font-family="sans-serif" font-size="14" lengthAdjust="spacing" textLength="85.5449" x="78.59" y="866.7308">crane: string</text><ellipse cx="69.59" cy="879.428" fill="none" rx="3" ry="3" style="stroke:#545454;stroke-width:1;"/><text fill="#000000" font-family="sans-serif" font-size="14" lengthAdjust="spacing" textLength="173.1133" x="78.59" y="883.2191">craneCountUsed: number</text><ellipse cx="69.59" cy="895.9163" fill="none" rx="3" ry="3" style="stroke:#545454;stroke-width:1;"/><text fill="#000000" font-family="sans-serif" font-size="14" lengthAdjust="spacing" textLength="193.2725" x="78.59" y="899.7073">totalCranesOnDock: number</text><ellipse cx="69.59" cy="912.4046" fill="none" rx="3" ry="3" style="stroke:#545454;stroke-width:1;"/><text fill="#000000" font-family="sans-serif" font-size="14" lengthAdjust="spacing" textLength="256.8193" x="78.59" y="916.1956">optimizedOperationDuration: number</text><ellipse cx="69.59" cy="928.8929" fill="none" rx="3" ry="3" style="stroke:#545454;stroke-width:1;"/><text fill="#000000" font-family="sans-serif" font-size="14" lengthAdjust="spacing" textLength="164.9102" x="78.59" y="932.6839">realArrivalTime: number</text><ellipse cx="69.59" cy="945.3812" fill="none" rx="3" ry="3" style="stroke:#545454;stroke-width:1;"/><text fill="#000000" font-family="sans-serif" font-size="14" lengthAdjust="spacing" textLength="188.7334" x="78.59" y="949.1722">realDepartureTime: number</text><ellipse cx="69.59" cy="961.8695" fill="none" rx="3" ry="3" style="stroke:#545454;stroke-width:1;"/><text fill="#000000" font-family="sans-serif" font-size="14" lengthAdjust="spacing" textLength="165.3613" x="78.59" y="965.6605">departureDelay: number</text><line style="stroke:#181818;stroke-width:0.5;" x1="59.59" x2="340.4093" y1="972.6136" y2="972.6136"/></g><!--class StaffAssignment--><g class="entity" data-entity="StaffAssignment" data-source-line="49" data-uid="ent0005" id="entity_StaffAssignment"><rect fill="#F1F1F1" height="122.5742" rx="2.5" ry="2.5" style="stroke:#181818;stroke-width:0.5;" width="152.4854" x="276.76" y="1057.6183"/><ellipse cx="296.0306" cy="1077.9288" fill="#C2C2C2" rx="11" ry="11" style="stroke:#181818;stroke-width:1;"/><path d="M299.0037,1083.5719 Q298.4227,1083.8707 297.7835,1084.0201 Q297.1444,1084.1696 296.4388,1084.1696 Q293.932,1084.1696 292.6121,1082.5177 Q291.2923,1080.8658 291.2923,1077.7447 Q291.2923,1074.6154 292.6121,1072.9635 Q293.932,1071.3116 296.4388,1071.3116 Q297.1444,1071.3116 297.7918,1071.4611 Q298.4393,1071.6105 299.0037,1071.9093 L299.0037,1074.632 Q298.3729,1074.0509 297.7794,1073.7811 Q297.1859,1073.5113 296.555,1073.5113 Q295.2103,1073.5113 294.5255,1074.578 Q293.8407,1075.6446 293.8407,1077.7447 Q293.8407,1079.8365 294.5255,1080.9032 Q295.2103,1081.9698 296.555,1081.9698 Q297.1859,1081.9698 297.7794,1081.7001 Q298.3729,1081.4303 299.0037,1080.8492 Z " fill="#000000"/><text fill="#000000" font-family="sans-serif" font-size="12" font-style="italic" lengthAdjust="spacing" textLength="82.4941" x="325.2301" y="1074.2198">&#171;ValueObject&#187;</text><text fill="#000000" font-family="sans-serif" font-size="14" lengthAdjust="spacing" textLength="110.9951" x="310.9796" y="1090.2862">StaffAssignment</text><line style="stroke:#181818;stroke-width:0.5;" x1="277.76" x2="428.2454" y1="1098.2394" y2="1098.2394"/><ellipse cx="287.76" cy="1111.9835" fill="none" rx="3" ry="3" style="stroke:#545454;stroke-width:1;"/><text fill="#000000" font-family="sans-serif" font-size="14" lengthAdjust="spacing" textLength="91.6699" x="296.76" y="1115.7745">staffId: string</text><ellipse cx="287.76" cy="1128.4718" fill="none" rx="3" ry="3" style="stroke:#545454;stroke-width:1;"/><text fill="#000000" font-family="sans-serif" font-size="14" lengthAdjust="spacing" textLength="74.6006" x="296.76" y="1132.2628">role: string</text><ellipse cx="287.76" cy="1144.9601" fill="none" rx="3" ry="3" style="stroke:#545454;stroke-width:1;"/><text fill="#000000" font-family="sans-serif" font-size="14" lengthAdjust="spacing" textLength="126.4854" x="296.76" y="1148.7511">startTime: number</text><ellipse cx="287.76" cy="1161.4484" fill="none" rx="3" ry="3" style="stroke:#545454;stroke-width:1;"/><text fill="#000000" font-family="sans-serif" font-size="14" lengthAdjust="spacing" textLength="120.7158" x="296.76" y="1165.2394">endTime: number</text><line style="stroke:#181818;stroke-width:0.5;" x1="277.76" x2="428.2454" y1="1172.1925" y2="1172.1925"/></g><!--class OperationPlanChangeLog--><g class="entity" data-entity="OperationPlanChangeLog" data-source-line="56" data-uid="ent0006" id="entity_OperationPlanChangeLog"><rect fill="#F1F1F1" height="139.0625" rx="2.5" ry="2.5" style="stroke:#181818;stroke-width:0.5;" width="203.8418" x="700.08" y="759.1183"/><ellipse cx="715.08" cy="779.4288" fill="#C2C2C2" rx="11" ry="11" style="stroke:#181818;stroke-width:1;"/><path d="M718.0531,785.0719 Q717.4721,785.3707 716.8329,785.5201 Q716.1938,785.6696 715.4882,785.6696 Q712.9814,785.6696 711.6615,784.0177 Q710.3417,782.3658 710.3417,779.2447 Q710.3417,776.1154 711.6615,774.4635 Q712.9814,772.8116 715.4882,772.8116 Q716.1938,772.8116 716.8412,772.9611 Q717.4887,773.1105 718.0531,773.4093 L718.0531,776.132 Q717.4223,775.5509 716.8288,775.2811 Q716.2353,775.0113 715.6044,775.0113 Q714.2597,775.0113 713.5749,776.078 Q712.8901,777.1446 712.8901,779.2447 Q712.8901,781.3365 713.5749,782.4032 Q714.2597,783.4698 715.6044,783.4698 Q716.2353,783.4698 716.8288,783.2001 Q717.4223,782.9303 718.0531,782.3492 Z " fill="#000000"/><text fill="#000000" font-family="sans-serif" font-size="12" font-style="italic" lengthAdjust="spacing" textLength="45.2402" x="792.3808" y="775.7198">&#171;Entity&#187;</text><text fill="#000000" font-family="sans-serif" font-size="14" lengthAdjust="spacing" textLength="171.8418" x="729.08" y="791.7863">OperationPlanChangeLog</text><line style="stroke:#181818;stroke-width:0.5;" x1="701.08" x2="902.9218" y1="799.7394" y2="799.7394"/><ellipse cx="711.08" cy="813.4835" fill="none" rx="3" ry="3" style="stroke:#545454;stroke-width:1;"/><text fill="#000000" font-family="sans-serif" font-size="14" lengthAdjust="spacing" textLength="82.6465" x="720.08" y="817.2745">logId: string</text><ellipse cx="711.08" cy="829.9718" fill="none" rx="3" ry="3" style="stroke:#545454;stroke-width:1;"/><text fill="#000000" font-family="sans-serif" font-size="14" lengthAdjust="spacing" textLength="112.6289" x="720.08" y="833.7628">changedAt: Date</text><ellipse cx="711.08" cy="846.4601" fill="none" rx="3" ry="3" style="stroke:#545454;stroke-width:1;"/><text fill="#000000" font-family="sans-serif" font-size="14" lengthAdjust="spacing" textLength="93.0986" x="720.08" y="850.2511">author: string</text><ellipse cx="711.08" cy="862.9484" fill="none" rx="3" ry="3" style="stroke:#545454;stroke-width:1;"/><text fill="#000000" font-family="sans-serif" font-size="14" lengthAdjust="spacing" textLength="167.2686" x="720.08" y="866.7394">reasonForChange: string</text><ellipse cx="711.08" cy="879.4366" fill="none" rx="3" ry="3" style="stroke:#545454;stroke-width:1;"/><text fill="#000000" font-family="sans-serif" font-size="14" lengthAdjust="spacing" textLength="134.7227" x="720.08" y="883.2277">diffSummary: string</text><line style="stroke:#181818;stroke-width:0.5;" x1="701.08" x2="902.9218" y1="890.1808" y2="890.1808"/></g><!--class Dock--><g class="entity" data-entity="Dock" data-source-line="67" data-uid="ent0007" id="entity_Dock"><rect fill="#F1F1F1" height="106.0859" rx="2.5" ry="2.5" style="stroke:#181818;stroke-width:0.5;" width="165.2686" x="7.37" y="1065.8583"/><ellipse cx="65.1342" cy="1086.1688" fill="#C2C2C2" rx="11" ry="11" style="stroke:#181818;stroke-width:1;"/><path d="M68.1073,1091.8119 Q67.5263,1092.1107 66.8871,1092.2601 Q66.2479,1092.4096 65.5424,1092.4096 Q63.0355,1092.4096 61.7157,1090.7577 Q60.3959,1089.1058 60.3959,1085.9847 Q60.3959,1082.8554 61.7157,1081.2035 Q63.0355,1079.5516 65.5424,1079.5516 Q66.2479,1079.5516 66.8954,1079.7011 Q67.5429,1079.8505 68.1073,1080.1493 L68.1073,1082.872 Q67.4764,1082.2909 66.8829,1082.0211 Q66.2894,1081.7513 65.6586,1081.7513 Q64.3138,1081.7513 63.629,1082.818 Q62.9442,1083.8846 62.9442,1085.9847 Q62.9442,1088.0765 63.629,1089.1432 Q64.3138,1090.2098 65.6586,1090.2098 Q66.2894,1090.2098 66.8829,1089.9401 Q67.4764,1089.6703 68.1073,1089.0892 Z " fill="#000000"/><text fill="#000000" font-family="sans-serif" font-size="12" font-style="italic" lengthAdjust="spacing" textLength="45.2402" x="83.6342" y="1082.4598">&#171;Entity&#187;</text><text fill="#000000" font-family="sans-serif" font-size="14" lengthAdjust="spacing" textLength="34.4395" x="89.0346" y="1098.5263">Dock</text><line style="stroke:#181818;stroke-width:0.5;" x1="8.37" x2="171.6386" y1="1106.4794" y2="1106.4794"/><ellipse cx="18.37" cy="1120.2235" fill="none" rx="3" ry="3" style="stroke:#545454;stroke-width:1;"/><text fill="#000000" font-family="sans-serif" font-size="14" lengthAdjust="spacing" textLength="94.0352" x="27.37" y="1124.0145">dockId: string</text><ellipse cx="18.37" cy="1136.7118" fill="none" rx="3" ry="3" style="stroke:#545454;stroke-width:1;"/><text fill="#000000" font-family="sans-serif" font-size="14" lengthAdjust="spacing" textLength="85.7158" x="27.37" y="1140.5028">name: string</text><ellipse cx="18.37" cy="1153.2001" fill="none" rx="3" ry="3" style="stroke:#545454;stroke-width:1;"/><text fill="#000000" font-family="sans-serif" font-size="14" lengthAdjust="spacing" textLength="139.2686" x="27.37" y="1156.9911">totalCranes: number</text><line style="stroke:#181818;stroke-width:0.5;" x1="8.37" x2="171.6386" y1="1163.9442" y2="1163.9442"/></g><!--class Crane--><g class="entity" data-entity="Crane" data-source-line="73" data-uid="ent0008" id="entity_Crane"><rect fill="#F1F1F1" height="122.5742" rx="2.5" ry="2.5" style="stroke:#181818;stroke-width:0.5;" width="141.4795" x="710.26" y="1057.6183"/><ellipse cx="756.1296" cy="1077.9288" fill="#C2C2C2" rx="11" ry="11" style="stroke:#181818;stroke-width:1;"/><path d="M759.1028,1083.5719 Q758.5217,1083.8707 757.8826,1084.0201 Q757.2434,1084.1696 756.5378,1084.1696 Q754.031,1084.1696 752.7112,1082.5177 Q751.3913,1080.8658 751.3913,1077.7447 Q751.3913,1074.6154 752.7112,1072.9635 Q754.031,1071.3116 756.5378,1071.3116 Q757.2434,1071.3116 757.8909,1071.4611 Q758.5383,1071.6105 759.1028,1071.9093 L759.1028,1074.632 Q758.4719,1074.0509 757.8784,1073.7811 Q757.2849,1073.5113 756.654,1073.5113 Q755.3093,1073.5113 754.6245,1074.578 Q753.9397,1075.6446 753.9397,1077.7447 Q753.9397,1079.8365 754.6245,1080.9032 Q755.3093,1081.9698 756.654,1081.9698 Q757.2849,1081.9698 757.8784,1081.7001 Q758.4719,1081.4303 759.1028,1080.8492 Z " fill="#000000"/><text fill="#000000" font-family="sans-serif" font-size="12" font-style="italic" lengthAdjust="spacing" textLength="45.2402" x="774.6296" y="1074.2198">&#171;Entity&#187;</text><text fill="#000000" font-family="sans-serif" font-size="14" lengthAdjust="spacing" textLength="39.6348" x="777.4324" y="1090.2862">Crane</text><line style="stroke:#181818;stroke-width:0.5;" x1="711.26" x2="850.7395" y1="1098.2394" y2="1098.2394"/><ellipse cx="721.26" cy="1111.9835" fill="none" rx="3" ry="3" style="stroke:#545454;stroke-width:1;"/><text fill="#000000" font-family="sans-serif" font-size="14" lengthAdjust="spacing" textLength="98.3896" x="730.26" y="1115.7745">craneId: string</text><ellipse cx="721.26" cy="1128.4718" fill="none" rx="3" ry="3" style="stroke:#545454;stroke-width:1;"/><text fill="#000000" font-family="sans-serif" font-size="14" lengthAdjust="spacing" textLength="94.0352" x="730.26" y="1132.2628">dockId: string</text><ellipse cx="721.26" cy="1144.9601" fill="none" rx="3" ry="3" style="stroke:#545454;stroke-width:1;"/><text fill="#000000" font-family="sans-serif" font-size="14" lengthAdjust="spacing" textLength="85.7158" x="730.26" y="1148.7511">name: string</text><ellipse cx="721.26" cy="1161.4484" fill="none" rx="3" ry="3" style="stroke:#545454;stroke-width:1;"/><text fill="#000000" font-family="sans-serif" font-size="14" lengthAdjust="spacing" textLength="115.4795" x="730.26" y="1165.2394">isActive: boolean</text><line style="stroke:#181818;stroke-width:0.5;" x1="711.26" x2="850.7395" y1="1172.1925" y2="1172.1925"/></g><!--class StaffMember--><g class="entity" data-entity="StaffMember" data-source-line="80" data-uid="ent0009" id="entity_StaffMember"><rect fill="#F1F1F1" height="106.0859" rx="2.5" ry="2.5" style="stroke:#181818;stroke-width:0.5;" width="141.4795" x="620.26" y="1257.1883"/><ellipse cx="645.7937" cy="1277.4988" fill="#C2C2C2" rx="11" ry="11" style="stroke:#181818;stroke-width:1;"/><path d="M648.7668,1283.1419 Q648.1858,1283.4407 647.5466,1283.5901 Q646.9075,1283.7396 646.2019,1283.7396 Q643.6951,1283.7396 642.3752,1282.0877 Q641.0554,1280.4358 641.0554,1277.3147 Q641.0554,1274.1854 642.3752,1272.5335 Q643.6951,1270.8816 646.2019,1270.8816 Q646.9075,1270.8816 647.5549,1271.0311 Q648.2024,1271.1805 648.7668,1271.4793 L648.7668,1274.202 Q648.136,1273.6209 647.5425,1273.3511 Q646.949,1273.0813 646.3181,1273.0813 Q644.9734,1273.0813 644.2886,1274.148 Q643.6038,1275.2146 643.6038,1277.3147 Q643.6038,1279.4065 644.2886,1280.4732 Q644.9734,1281.5398 646.3181,1281.5398 Q646.949,1281.5398 647.5425,1281.2701 Q648.136,1281.0003 648.7668,1280.4192 Z " fill="#000000"/><text fill="#000000" font-family="sans-serif" font-size="12" font-style="italic" lengthAdjust="spacing" textLength="45.2402" x="682.55" y="1273.7898">&#171;Entity&#187;</text><text fill="#000000" font-family="sans-serif" font-size="14" lengthAdjust="spacing" textLength="86.0713" x="662.1345" y="1289.8563">StaffMember</text><line style="stroke:#181818;stroke-width:0.5;" x1="621.26" x2="760.7395" y1="1297.8094" y2="1297.8094"/><ellipse cx="631.26" cy="1311.5535" fill="none" rx="3" ry="3" style="stroke:#545454;stroke-width:1;"/><text fill="#000000" font-family="sans-serif" font-size="14" lengthAdjust="spacing" textLength="91.6699" x="640.26" y="1315.3445">staffId: string</text><ellipse cx="631.26" cy="1328.0418" fill="none" rx="3" ry="3" style="stroke:#545454;stroke-width:1;"/><text fill="#000000" font-family="sans-serif" font-size="14" lengthAdjust="spacing" textLength="85.7158" x="640.26" y="1331.8328">name: string</text><ellipse cx="631.26" cy="1344.5301" fill="none" rx="3" ry="3" style="stroke:#545454;stroke-width:1;"/><text fill="#000000" font-family="sans-serif" font-size="14" lengthAdjust="spacing" textLength="115.4795" x="640.26" y="1348.3211">isActive: boolean</text><line style="stroke:#181818;stroke-width:0.5;" x1="621.26" x2="760.7395" y1="1355.2742" y2="1355.2742"/></g><!--class OperationPlanConsistencyChecker--><g class="entity" data-entity="OperationPlanConsistencyChecker" data-source-line="89" data-uid="ent0010" id="entity_OperationPlanConsistencyChecker"><rect fill="#F1F1F1" height="73.1094" rx="2.5" ry="2.5" style="stroke:#181818;stroke-width:0.5;" width="405.5791" x="293.21" y="44.4883"/><ellipse cx="375.607" cy="64.7988" fill="#C2C2C2" rx="11" ry="11" style="stroke:#181818;stroke-width:1;"/><path d="M378.5801,70.4419 Q377.9991,70.7407 377.3599,70.8901 Q376.7207,71.0396 376.0152,71.0396 Q373.5083,71.0396 372.1885,69.3877 Q370.8687,67.7358 370.8687,64.6147 Q370.8687,61.4854 372.1885,59.8335 Q373.5083,58.1816 376.0152,58.1816 Q376.7207,58.1816 377.3682,58.3311 Q378.0157,58.4805 378.5801,58.7793 L378.5801,61.502 Q377.9493,60.9209 377.3558,60.6511 Q376.7622,60.3813 376.1314,60.3813 Q374.7867,60.3813 374.1018,61.448 Q373.417,62.5146 373.417,64.6147 Q373.417,66.7065 374.1018,67.7732 Q374.7867,68.8398 376.1314,68.8398 Q376.7622,68.8398 377.3558,68.5701 Q377.9493,68.3003 378.5801,67.7192 Z " fill="#000000"/><text fill="#000000" font-family="sans-serif" font-size="12" font-style="italic" lengthAdjust="spacing" textLength="98.25" x="463.1246" y="61.0898">&#171;DomainService&#187;</text><text fill="#000000" font-family="sans-serif" font-size="14" lengthAdjust="spacing" textLength="232.2852" x="396.107" y="77.1563">OperationPlanConsistencyChecker</text><line style="stroke:#181818;stroke-width:0.5;" x1="294.21" x2="697.7891" y1="85.1094" y2="85.1094"/><line style="stroke:#181818;stroke-width:0.5;" x1="294.21" x2="697.7891" y1="93.1094" y2="93.1094"/><ellipse cx="304.21" cy="106.8535" fill="#A6A6A6" rx="3" ry="3" style="stroke:#545454;stroke-width:1;"/><text fill="#000000" font-family="sans-serif" font-size="14" lengthAdjust="spacing" textLength="379.5791" x="313.21" y="110.6445">check(updatedPlan: OperationPlan): ConflictOrWarning[]</text></g><g class="entity" data-entity="GMN23" data-source-line="114" data-uid="ent0024" id="entity_GMN23"><path d="M481.75,454.4783 L481.75,501.4083 L447.15,505.4083 L481.75,509.4083 L481.75,556.3416 A0,0 0 0 0 481.75,556.3416 L904.2583,556.3416 A0,0 0 0 0 904.2583,556.3416 L904.2583,464.4783 L894.2583,454.4783 L481.75,454.4783 A0,0 0 0 0 481.75,454.4783" fill="#FAFAFA" style="stroke:#181818;stroke-width:0.5;"/><path d="M894.2583,454.4783 L894.2583,464.4783 L904.2583,464.4783 L894.2583,454.4783" fill="#FAFAFA" style="stroke:#181818;stroke-width:0.5;"/><text fill="#000000" font-family="sans-serif" font-size="13" lengthAdjust="spacing" textLength="176.814" x="487.75" y="472.0466">Aggregate invariants (local):</text><text fill="#000000" font-family="sans-serif" font-size="13" lengthAdjust="spacing" textLength="141.1655" x="487.75" y="487.3572">- algorithm not empty</text><text fill="#000000" font-family="sans-serif" font-size="13" lengthAdjust="spacing" textLength="143.165" x="487.75" y="502.6677">- operations list exists</text><text fill="#000000" font-family="sans-serif" font-size="13" lengthAdjust="spacing" textLength="119.4121" x="487.75" y="517.9783">- planDate defined</text><text fill="#000000" font-family="sans-serif" font-size="13" lengthAdjust="spacing" textLength="119.5073" x="487.75" y="533.2888">Audit requirement:</text><text fill="#000000" font-family="sans-serif" font-size="13" lengthAdjust="spacing" textLength="401.5083" x="487.75" y="548.5994">- every update appends ChangeLog(changedAt, author, reason)</text></g><g class="entity" data-entity="GMN26" data-source-line="123" data-uid="ent0027" id="entity_GMN26"><path d="M376.54,770.0583 L376.54,824.6483 L341.69,828.6483 L376.54,832.6483 L376.54,887.2321 A0,0 0 0 0 376.54,887.2321 L665.4682,887.2321 A0,0 0 0 0 665.4682,887.2321 L665.4682,780.0583 L655.4682,770.0583 L376.54,770.0583 A0,0 0 0 0 376.54,770.0583" fill="#FAFAFA" style="stroke:#181818;stroke-width:0.5;"/><path d="M655.4682,770.0583 L655.4682,780.0583 L665.4682,780.0583 L655.4682,770.0583" fill="#FAFAFA" style="stroke:#181818;stroke-width:0.5;"/><text fill="#000000" font-family="sans-serif" font-size="13" lengthAdjust="spacing" textLength="182.8442" x="382.54" y="787.6266">Operation constraints (local):</text><text fill="#000000" font-family="sans-serif" font-size="13" lengthAdjust="spacing" textLength="145.2534" x="382.54" y="802.9372">- startTime &lt; endTime</text><text fill="#000000" font-family="sans-serif" font-size="13" lengthAdjust="spacing" textLength="108.7988" x="382.54" y="818.2477">- durations &gt;= 0</text><text fill="#000000" font-family="sans-serif" font-size="13" lengthAdjust="spacing" textLength="152.2549" x="382.54" y="833.5583">- craneCountUsed &gt;= 0</text><text fill="#000000" font-family="sans-serif" font-size="13" lengthAdjust="spacing" textLength="266.2588" x="382.54" y="848.8688">- craneCountUsed &lt;= totalCranesOnDock</text><text fill="#000000" font-family="sans-serif" font-size="13" lengthAdjust="spacing" textLength="157.498" x="382.54" y="864.1794">Cross-aggregate checks:</text><text fill="#000000" font-family="sans-serif" font-size="13" lengthAdjust="spacing" textLength="267.9282" x="382.54" y="879.4899">- dock/crane/staff overlaps vs other VVNs</text></g><!--link VVN to OperationPlan--><g class="link" data-entity-1="VVN" data-entity-2="OperationPlan" data-source-line="96" data-uid="lnk11" id="link_VVN_OperationPlan"><path codeLine="96" d="M456.34,334.5183 C443.89,358.7283 430.02,385.7183 417.06,410.9283" fill="none" id="VVN-OperationPlan" style="stroke:#181818;stroke-width:1;"/><polygon fill="#000000" points="442.814,377.2504,449.5632,370.5497,444.3356,367.8623,442.814,377.2504" style="stroke:#000000;stroke-width:1;"/><text fill="#000000" font-family="sans-serif" font-size="13" lengthAdjust="spacing" textLength="72.8901" x="454.1" y="377.7166">has/targets</text><text fill="#000000" font-family="sans-serif" font-size="13" lengthAdjust="spacing" textLength="8.2202" x="444.4612" y="354.7282">1</text><text fill="#000000" font-family="sans-serif" font-size="13" lengthAdjust="spacing" textLength="24.667" x="395.9603" y="400.3822">0..1</text></g><!--reverse link OperationPlan to Operation--><g class="link" data-entity-1="OperationPlan" data-entity-2="Operation" data-source-line="97" data-uid="lnk12" id="link_OperationPlan_Operation"><path codeLine="97" d="M314.3032,610.3785 C301.6832,634.3685 293.36,650.1783 279.63,676.2883" fill="none" id="OperationPlan-backto-Operation" style="stroke:#181818;stroke-width:1;"/><polygon fill="#181818" points="319.89,599.7583,313.5566,603.2061,314.3032,610.3785,320.6367,606.9306,319.89,599.7583" style="stroke:#181818;stroke-width:1;"/><text fill="#000000" font-family="sans-serif" font-size="13" lengthAdjust="spacing" textLength="67.209" x="300.64" y="643.2366">operations</text><text fill="#000000" font-family="sans-serif" font-size="13" lengthAdjust="spacing" textLength="8.2202" x="307.8323" y="620.1361">1</text><text fill="#000000" font-family="sans-serif" font-size="13" lengthAdjust="spacing" textLength="22.7119" x="260.9715" y="666.1213">0..*</text></g><!--reverse link Operation to StaffAssignment--><g class="link" data-entity-1="Operation" data-entity-2="StaffAssignment" data-source-line="98" data-uid="lnk13" id="link_Operation_StaffAssignment"><path codeLine="98" d="M285.9367,991.5473 C300.2967,1018.5973 308.84,1034.7083 320.81,1057.2583" fill="none" id="Operation-backto-StaffAssignment" style="stroke:#181818;stroke-width:1;"/><polygon fill="#181818" points="280.31,980.9483,279.5903,988.1234,285.9367,991.5473,286.6564,984.3722,280.31,980.9483" style="stroke:#181818;stroke-width:1;"/><text fill="#000000" font-family="sans-serif" font-size="13" lengthAdjust="spacing" textLength="109.3193" x="304.51" y="1024.1866">staffAssignments</text><text fill="#000000" font-family="sans-serif" font-size="13" lengthAdjust="spacing" textLength="8.2202" x="276.0116" y="1001.2648">1</text><text fill="#000000" font-family="sans-serif" font-size="13" lengthAdjust="spacing" textLength="22.7119" x="293.857" y="1046.8495">0..*</text></g><!--link Operation to Dock--><g class="link" data-entity-1="Operation" data-entity-2="Dock" data-source-line="99" data-uid="lnk14" id="link_Operation_Dock"><path codeLine="99" d="M142.26,980.9483 C130.64,1011.3983 121.3288,1035.8124 112.1188,1059.9524" fill="none" id="Operation-to-Dock" style="stroke:#181818;stroke-width:1;"/><polygon fill="#181818" points="109.98,1065.5583,116.9254,1058.5753,111.7623,1060.8867,109.4509,1055.7236,109.98,1065.5583" style="stroke:#181818;stroke-width:1;"/><polygon fill="#000000" points="131.9377,1023.9451,137.9078,1016.5418,132.416,1014.4466,131.9377,1023.9451" style="stroke:#000000;stroke-width:1;"/><text fill="#000000" font-family="sans-serif" font-size="13" lengthAdjust="spacing" textLength="28.5645" x="142.72" y="1024.1866">uses</text><text fill="#000000" font-family="sans-serif" font-size="13" lengthAdjust="spacing" textLength="22.7119" x="116.9477" y="1001.2648">0..*</text><text fill="#000000" font-family="sans-serif" font-size="13" lengthAdjust="spacing" textLength="8.2202" x="104.1415" y="1054.9717">1</text></g><!--link Operation to Crane--><g class="link" data-entity-1="Operation" data-entity-2="Crane" data-source-line="100" data-uid="lnk15" id="link_Operation_Crane"><path codeLine="100" d="M341.49,969.3983 C347.27,973.3583 353.11,977.1083 359,980.6183 C419.08,1016.3883 600.3033,1068.8627 704.0633,1097.2927" fill="none" id="Operation-to-Crane" style="stroke:#181818;stroke-width:1;"/><polygon fill="#181818" points="709.85,1098.8783,702.227,1092.6422,705.0277,1097.557,700.1129,1100.3578,709.85,1098.8783" style="stroke:#181818;stroke-width:1;"/><polygon fill="#000000" points="475.6552,1020.9368,468.1029,1015.1564,466.1476,1020.6995,475.6552,1020.9368" style="stroke:#000000;stroke-width:1;"/><text fill="#000000" font-family="sans-serif" font-size="13" lengthAdjust="spacing" textLength="55.7896" x="479.94" y="1024.1866">assigned</text><text fill="#000000" font-family="sans-serif" font-size="13" lengthAdjust="spacing" textLength="22.7119" x="349.3711" y="973.8457">0..*</text><text fill="#000000" font-family="sans-serif" font-size="13" lengthAdjust="spacing" textLength="22.7119" x="679.415" y="1093.6239">0..*</text></g><!--link StaffAssignment to StaffMember--><g class="link" data-entity-1="StaffAssignment" data-entity-2="StaffMember" data-source-line="101" data-uid="lnk16" id="link_StaffAssignment_StaffMember"><path codeLine="101" d="M429.7,1162.8683 C486.77,1194.8383 558.8551,1235.2165 614.5651,1266.4165" fill="none" id="StaffAssignment-to-StaffMember" style="stroke:#181818;stroke-width:1;"/><polygon fill="#181818" points="619.8,1269.3483,613.9021,1261.4606,615.4376,1266.9051,609.9931,1268.4406,619.8,1269.3483" style="stroke:#181818;stroke-width:1;"/><polygon fill="#000000" points="551.6023,1221.287,545.1471,1214.3027,542.2746,1219.4309,551.6023,1221.287" style="stroke:#000000;stroke-width:1;"/><text fill="#000000" font-family="sans-serif" font-size="13" lengthAdjust="spacing" textLength="46.9917" x="556.24" y="1223.7566">assigns</text><text fill="#000000" font-family="sans-serif" font-size="13" lengthAdjust="spacing" textLength="22.7119" x="437.2671" y="1163.5835">0..*</text><text fill="#000000" font-family="sans-serif" font-size="13" lengthAdjust="spacing" textLength="8.2202" x="604.0564" y="1261.9432">1</text></g><!--reverse link OperationPlan to OperationPlanChangeLog--><g class="link" data-entity-1="OperationPlan" data-entity-2="OperationPlanChangeLog" data-source-line="103" data-uid="lnk17" id="link_OperationPlan_OperationPlanChangeLog"><path codeLine="103" d="M456.7392,595.2787 C462.2292,599.4687 458.31,596.1283 464,599.6683 C551.57,654.2283 599.07,616.6683 683,676.6683 C713.41,698.4083 739.99,730.0283 760.26,758.7183" fill="none" id="OperationPlan-backto-OperationPlanChangeLog" style="stroke:#181818;stroke-width:1;"/><polygon fill="#181818" points="447.2,587.9983,449.5428,594.8182,456.7392,595.2787,454.3964,588.4587,447.2,587.9983" style="stroke:#181818;stroke-width:1;"/><text fill="#000000" font-family="sans-serif" font-size="13" lengthAdjust="spacing" textLength="60.2837" x="624.58" y="643.2366">auditTrail</text><text fill="#000000" font-family="sans-serif" font-size="13" lengthAdjust="spacing" textLength="8.2202" x="455.0454" y="592.7381">1</text><text fill="#000000" font-family="sans-serif" font-size="13" lengthAdjust="spacing" textLength="22.7119" x="732.8578" y="748.3176">0..*</text></g><!--link OperationPlanConsistencyChecker to OperationPlan--><g class="link" data-entity-1="OperationPlanConsistencyChecker" data-entity-2="OperationPlan" data-source-line="104" data-uid="lnk18" id="link_OperationPlanConsistencyChecker_OperationPlan"><path codeLine="104" d="M450.81,117.8883 C433.21,134.4083 414.71,155.4883 404,178.5983 C370.2,251.4983 363.0062,337.1384 363.3862,404.6484" fill="none" id="OperationPlanConsistencyChecker-to-OperationPlan" style="stroke:#181818;stroke-width:1;stroke-dasharray:7,7;"/><polygon fill="#181818" points="363.42,410.6483,367.3693,401.6259,363.3919,405.6484,359.3694,401.6709,363.42,410.6483" style="stroke:#181818;stroke-width:1;"/></g><!--link OperationPlanConsistencyChecker to Dock--><g class="link" data-entity-1="OperationPlanConsistencyChecker" data-entity-2="Dock" data-source-line="105" data-uid="lnk19" id="link_OperationPlanConsistencyChecker_Dock"><path codeLine="105" d="M292.81,116.0483 C158.09,144.5683 6,191.0183 6,255.3683 C634,1363.2783 634,1363.2783 6,829.6483 C6,914.8683 37.861,1003.3188 62.621,1060.0788" fill="none" id="OperationPlanConsistencyChecker-to-Dock" style="stroke:#181818;stroke-width:1;stroke-dasharray:7,7;"/><polygon fill="#181818" points="65.02,1065.5783,65.0878,1055.7297,63.0208,1060.9953,57.7551,1058.9283,65.02,1065.5783" style="stroke:#181818;stroke-width:1;"/></g><!--link OperationPlanConsistencyChecker to Crane--><g class="link" data-entity-1="OperationPlanConsistencyChecker" data-entity-2="Crane" data-source-line="106" data-uid="lnk20" id="link_OperationPlanConsistencyChecker_Crane"><path codeLine="106" d="M687.17,118.0383 C813.91,147.5583 957,194.3983 957,255.3683 C634,1363.2783 634,1363.2783 957,829.6483 C957,898.6283 954.95,920.5683 921,980.6183 C903.57,1011.4383 881.6372,1035.8295 856.4672,1058.7395" fill="none" id="OperationPlanConsistencyChecker-to-Crane" style="stroke:#181818;stroke-width:1;stroke-dasharray:7,7;"/><polygon fill="#181818" points="852.03,1062.7783,861.3783,1059.6783,855.7276,1059.4127,855.9932,1053.762,852.03,1062.7783" style="stroke:#181818;stroke-width:1;"/></g><!--link OperationPlanConsistencyChecker to StaffMember--><g class="link" data-entity-1="OperationPlanConsistencyChecker" data-entity-2="StaffMember" data-source-line="107" data-uid="lnk21" id="link_OperationPlanConsistencyChecker_StaffMember"><path codeLine="107" d="M699.02,109.9783 C849.29,136.5483 1028,183.3083 1028,255.3683 C634,1363.2783 634,1363.2783 1028,1119.9083 C1028,1240.8683 866.8554,1284.405 767.9854,1300.145" fill="none" id="OperationPlanConsistencyChecker-to-StaffMember" style="stroke:#181818;stroke-width:1;stroke-dasharray:7,7;"/><polygon fill="#181818" points="762.06,1301.0883,771.577,1303.6236,766.9978,1300.3022,770.3192,1295.7231,762.06,1301.0883" style="stroke:#181818;stroke-width:1;"/></g><!--link OperationPlanConsistencyChecker to VVN--><g class="link" data-entity-1="OperationPlanConsistencyChecker" data-entity-2="VVN" data-source-line="108" data-uid="lnk22" id="link_OperationPlanConsistencyChecker_VVN"><path codeLine="108" d="M496,117.9583 C496,135.5083 496,151.3483 496,172.4083" fill="none" id="OperationPlanConsistencyChecker-to-VVN" style="stroke:#181818;stroke-width:1;stroke-dasharray:7,7;"/><polygon fill="#181818" points="496,178.4083,500,169.4083,496,173.4083,492,169.4083,496,178.4083" style="stroke:#181818;stroke-width:1;"/></g><!--SRC=[bLRTRzis47_NNt78o-okjbkWJqPYmB0teC3Q37MJFGnxOAIpn8KYLHxfpHlsl-yenR8eDOwY1q6wxuyVxqYFKbV2YX9AeqrQM5CYEEinePP3XSZCNrBdi1UAC77IAOIjAONKyCbag606jnLQuQJHyAiI6kwgJ3Y4oTtkm_pz_CCqINw0c-SUvgtpt6BEAakul_zyKJXLWYX8mVLrg_R56BTQmRy9m8yoMyATbjyy_gGvrkF7RQ0Ua0ZLH-QHivnCe6KcVOmfwCGIj2yVq3Q_MVUNd72UMld_Nf5LMvzGdX7vHVAlpFIWuwI4oesLhYYxH6USK5jKudWXGwPKx7zRfn3UWP9QvAzixSuauLrXRBSmlImuWoR4K-Zcn8b37SJUjAtVjEu_XspTLrbYr3YTzKdAY8nLjhxnssLvVO6PMg6nwx0cR8pNxeummaTTqqrWqwtUrd6UcQPoifJ_ODOMvNlUkBPgRQqy2DLF8B2so6VIUOjzPdPYn2rjEx5pOhzV4ybSbwWTz-DUA8-t3tzYskA9Wb1SVsiKlhhQm_u756yAeNFynUG3C2YJnrxJMlGIn9fwaD4_6ziOZZ0Yz_kTBqjXZ-DFwyvNbR4k33eCuKaac5WaussAa0hkBSU-04eBpBnYkUc8WnnWC4XuE7YqA75mF1ie3SjQqmT6Qro-DE3wVYIjKoSFJ7imt6gUJJ5aFc5mFV3r7QICidov0qyxXT0U99Tyabf3D1EdqGUfqIJ9eKwFqzVEqCrPTrDW-bWdrJZSDVxQEWRsnDSRB0kglUazNG8RsokPkblxcx2Q4_xzZvUp-y8dCzYWGbPqKJOijwltLp2RmTMx-Po_udMmX4BGWazYZevWbSJSeFdcIVLDHvNLsgbBPvs-V7zIX9v6b4YtqPdDLhMP6knBy8HHM95Oyzb0U0cYDeiPY_STzsntuNZI2rv6PXzF83RWC-c-MY5LyX9EvlDLRt-FqGYr62LObsAKPAS4e-J3LUe5K7usZdkr0AaFmah1tOL9s5H62tNvZ6dM12lpme7Pz-hJtbOYkygaR7IPpA2zaG1R0ImhTsJg6PsWE1l0l_bDp3ZTGI33lMIm9ElGFB3upKkB0Ip1A1xG7g4vjo2gYhSIZyfJooVjJdaBpIvv2yq6cIOi6GB1vBcaEb0ECyWnR7ePjNiHhk5f7J8rywU4LZVmZWdntU4PwlKD36uIoQO_2qEVARWEGtvHcrZK9nKC5qA9Yk10O5p1O60Wq3dB_m40]--></g></svg>