<svg xmlns="http://www.w3.org/2000/svg" xmlns:xlink="http://www.w3.org/1999/xlink" contentStyleType="text/css" data-diagram-type="SEQUENCE" height="1039px" preserveAspectRatio="none" style="width:1540px;height:1039px;background:#FFFFFF;" version="1.1" viewBox="0 0 1540 1039" width="1540px" zoomAndPan="magnify"><title>Sequence Diagram (Design) - US 4.1.2: Store Operation Plan</title><defs/><g><text fill="#000000" font-family="sans-serif" font-size="14" font-weight="bold" lengthAdjust="spacing" textLength="431.5459" x="550.4348" y="28.5352">Sequence Diagram (Design) - US 4.1.2: Store Operation Plan</text><g><title>CreateOperationPlanController</title><rect fill="#FFFFFF" height="489.9688" style="stroke:#181818;stroke-width:1;" width="10" x="604.5015" y="318.8398"/></g><g><title>CreateOperationPlanController</title><rect fill="#FFFFFF" height="29.3105" style="stroke:#181818;stroke-width:1;" width="10" x="604.5015" y="853.0742"/></g><g><title>OperationPlanService</title><rect fill="#FFFFFF" height="346.7266" style="stroke:#181818;stroke-width:1;" width="10" x="795.9629" y="432.7715"/></g><g><title>OperationPlanService</title><rect fill="#FFFFFF" height="44.2656" style="stroke:#181818;stroke-width:1;" width="10" x="795.9629" y="808.8086"/></g><g><title>OperationPlan .Domain.</title><rect fill="#FFFFFF" height="29.3105" style="stroke:#181818;stroke-width:1;" width="10" x="978.2949" y="462.082"/></g><g><title>OperationPlanRepo</title><rect fill="#FFFFFF" height="146.5527" style="stroke:#181818;stroke-width:1;" width="10" x="1140.1294" y="545.0137"/></g><g><title>OperationPlanMap</title><rect fill="#FFFFFF" height="29.3105" style="stroke:#181818;stroke-width:1;" width="10" x="1348.0381" y="574.3242"/></g><g><title>OperationPlanMap</title><rect fill="#FFFFFF" height="29.3105" style="stroke:#181818;stroke-width:1;" width="10" x="1348.0381" y="720.877"/></g><rect fill="none" height="661.4316" style="stroke:#000000;stroke-width:1.5;" width="1346.8726" x="176.543" y="280.2188"/><rect fill="none" height="383.9922" style="stroke:#000000;stroke-width:1.5;" width="1326.8726" x="186.543" y="506.3926"/><g><title>Logistics Operator</title><rect fill="#000000" fill-opacity="0.00000" height="839.6738" width="8" x="66.2549" y="118.9766"/><line style="stroke:#181818;stroke-width:0.5;stroke-dasharray:5,5;" x1="70" x2="70" y1="118.9766" y2="958.6504"/></g><g><title>SPA</title><rect fill="#000000" fill-opacity="0.00000" height="839.6738" width="8" x="217.043" y="118.9766"/><line style="stroke:#181818;stroke-width:0.5;stroke-dasharray:5,5;" x1="220.543" x2="220.543" y1="118.9766" y2="958.6504"/></g><g><title>OperationPlan Routes</title><rect fill="#000000" fill-opacity="0.00000" height="839.6738" width="8" x="412.3345" y="118.9766"/><line style="stroke:#181818;stroke-width:0.5;stroke-dasharray:5,5;" x1="416.1011" x2="416.1011" y1="118.9766" y2="958.6504"/></g><g><title>CreateOperationPlanController</title><rect fill="#000000" fill-opacity="0.00000" height="839.6738" width="8" x="605.5015" y="118.9766"/><line style="stroke:#181818;stroke-width:0.5;stroke-dasharray:5,5;" x1="608.5679" x2="608.5679" y1="118.9766" y2="958.6504"/></g><g><title>OperationPlanService</title><rect fill="#000000" fill-opacity="0.00000" height="839.6738" width="8" x="796.9629" y="118.9766"/><line style="stroke:#181818;stroke-width:0.5;stroke-dasharray:5,5;" x1="800.4351" x2="800.4351" y1="118.9766" y2="958.6504"/></g><g><title>OperationPlan .Domain.</title><rect fill="#000000" fill-opacity="0.00000" height="839.6738" width="8" x="979.2949" y="118.9766"/><line style="stroke:#181818;stroke-width:0.5;stroke-dasharray:5,5;" x1="982.354" x2="982.354" y1="118.9766" y2="958.6504"/></g><g><title>OperationPlanRepo</title><rect fill="#000000" fill-opacity="0.00000" height="839.6738" width="8" x="1141.1294" y="118.9766"/><line style="stroke:#181818;stroke-width:0.5;stroke-dasharray:5,5;" x1="1144.2358" x2="1144.2358" y1="118.9766" y2="958.6504"/></g><g><title>OperationPlanMap</title><rect fill="#000000" fill-opacity="0.00000" height="839.6738" width="8" x="1349.0381" y="118.9766"/><line style="stroke:#181818;stroke-width:0.5;stroke-dasharray:5,5;" x1="1352.8755" x2="1352.8755" y1="118.9766" y2="958.6504"/></g><g><title>MongoDB</title><rect fill="#000000" fill-opacity="0.00000" height="839.6738" width="8" x="1463.8081" y="118.9766"/><line style="stroke:#181818;stroke-width:0.5;stroke-dasharray:5,5;" x1="1467.2007" x2="1467.2007" y1="118.9766" y2="958.6504"/></g><g class="participant participant-head" data-participant="Operator"><text fill="#000000" font-family="sans-serif" font-size="14" lengthAdjust="spacing" textLength="124.5098" x="5" y="116.0234">Logistics Operator</text><ellipse cx="70.2549" cy="50.9883" fill="#E3E3E3" rx="8" ry="8" style="stroke:#181818;stroke-width:0.5;"/><path d="M70.2549,58.9883 L70.2549,85.9883 M57.2549,66.9883 L83.2549,66.9883 M70.2549,85.9883 L57.2549,100.9883 M70.2549,85.9883 L83.2549,100.9883" fill="none" style="stroke:#181818;stroke-width:0.5;"/></g><g class="participant participant-tail" data-participant="Operator"><text fill="#000000" font-family="sans-serif" font-size="14" lengthAdjust="spacing" textLength="124.5098" x="5" y="971.1855">Logistics Operator</text><ellipse cx="70.2549" cy="982.6387" fill="#E3E3E3" rx="8" ry="8" style="stroke:#181818;stroke-width:0.5;"/><path d="M70.2549,990.6387 L70.2549,1017.6387 M57.2549,998.6387 L83.2549,998.6387 M70.2549,1017.6387 L57.2549,1032.6387 M70.2549,1017.6387 L83.2549,1032.6387" fill="none" style="stroke:#181818;stroke-width:0.5;"/></g><g class="participant participant-head" data-participant="SPA"><text fill="#000000" font-family="sans-serif" font-size="14" lengthAdjust="spacing" textLength="24.9375" x="205.5742" y="116.0234">SPA</text><path d="M200.543,74.4883 L200.543,98.4883 M200.543,86.4883 L217.543,86.4883" fill="none" style="stroke:#181818;stroke-width:0.5;"/><ellipse cx="229.543" cy="86.4883" fill="#E3E3E3" rx="12" ry="12" style="stroke:#181818;stroke-width:0.5;"/></g><g class="participant participant-tail" data-participant="SPA"><text fill="#000000" font-family="sans-serif" font-size="14" lengthAdjust="spacing" textLength="24.9375" x="205.5742" y="971.1855">SPA</text><path d="M200.543,978.1387 L200.543,1002.1387 M200.543,990.1387 L217.543,990.1387" fill="none" style="stroke:#181818;stroke-width:0.5;"/><ellipse cx="229.543" cy="990.1387" fill="#E3E3E3" rx="12" ry="12" style="stroke:#181818;stroke-width:0.5;"/></g><g class="participant participant-head" data-participant="Routes"><text fill="#000000" font-family="sans-serif" font-size="14" lengthAdjust="spacing" textLength="146.4668" x="340.1011" y="116.0234">OperationPlan Routes</text><path d="M395.8345,74.4883 L395.8345,98.4883 M395.8345,86.4883 L412.8345,86.4883" fill="none" style="stroke:#181818;stroke-width:0.5;"/><ellipse cx="424.8345" cy="86.4883" fill="#E3E3E3" rx="12" ry="12" style="stroke:#181818;stroke-width:0.5;"/></g><g class="participant participant-tail" data-participant="Routes"><text fill="#000000" font-family="sans-serif" font-size="14" lengthAdjust="spacing" textLength="146.4668" x="340.1011" y="971.1855">OperationPlan Routes</text><path d="M395.8345,978.1387 L395.8345,1002.1387 M395.8345,990.1387 L412.8345,990.1387" fill="none" style="stroke:#181818;stroke-width:0.5;"/><ellipse cx="424.8345" cy="990.1387" fill="#E3E3E3" rx="12" ry="12" style="stroke:#181818;stroke-width:0.5;"/></g><g class="participant participant-head" data-participant="Ctrl"><text fill="#000000" font-family="sans-serif" font-size="14" lengthAdjust="spacing" textLength="207.8672" x="502.5679" y="116.0234">CreateOperationPlanController</text><ellipse cx="609.5015" cy="86.4883" fill="#E3E3E3" rx="12" ry="12" style="stroke:#181818;stroke-width:0.5;"/><polygon fill="#181818" points="605.5015,74.4883,611.5015,69.4883,609.5015,74.4883,611.5015,79.4883,605.5015,74.4883" style="stroke:#181818;stroke-width:1;"/></g><g class="participant participant-tail" data-participant="Ctrl"><text fill="#000000" font-family="sans-serif" font-size="14" lengthAdjust="spacing" textLength="207.8672" x="502.5679" y="971.1855">CreateOperationPlanController</text><ellipse cx="609.5015" cy="990.1387" fill="#E3E3E3" rx="12" ry="12" style="stroke:#181818;stroke-width:0.5;"/><polygon fill="#181818" points="605.5015,978.1387,611.5015,973.1387,609.5015,978.1387,611.5015,983.1387,605.5015,978.1387" style="stroke:#181818;stroke-width:1;"/></g><g class="participant participant-head" data-participant="Svc"><text fill="#000000" font-family="sans-serif" font-size="14" lengthAdjust="spacing" textLength="143.0557" x="726.4351" y="116.0234">OperationPlanService</text><ellipse cx="800.9629" cy="86.4883" fill="#E3E3E3" rx="12" ry="12" style="stroke:#181818;stroke-width:0.5;"/><polygon fill="#181818" points="796.9629,74.4883,802.9629,69.4883,800.9629,74.4883,802.9629,79.4883,796.9629,74.4883" style="stroke:#181818;stroke-width:1;"/></g><g class="participant participant-tail" data-participant="Svc"><text fill="#000000" font-family="sans-serif" font-size="14" lengthAdjust="spacing" textLength="143.0557" x="726.4351" y="971.1855">OperationPlanService</text><ellipse cx="800.9629" cy="990.1387" fill="#E3E3E3" rx="12" ry="12" style="stroke:#181818;stroke-width:0.5;"/><polygon fill="#181818" points="796.9629,978.1387,802.9629,973.1387,800.9629,978.1387,802.9629,983.1387,796.9629,978.1387" style="stroke:#181818;stroke-width:1;"/></g><g class="participant participant-head" data-participant="Domain"><text fill="#000000" font-family="sans-serif" font-size="14" lengthAdjust="spacing" textLength="161.8818" x="899.354" y="116.0234">OperationPlan (Domain)</text><ellipse cx="983.2949" cy="86.4883" fill="#E3E3E3" rx="12" ry="12" style="stroke:#181818;stroke-width:0.5;"/><line style="stroke:#181818;stroke-width:0.5;" x1="971.2949" x2="995.2949" y1="100.4883" y2="100.4883"/></g><g class="participant participant-tail" data-participant="Domain"><text fill="#000000" font-family="sans-serif" font-size="14" lengthAdjust="spacing" textLength="161.8818" x="899.354" y="971.1855">OperationPlan (Domain)</text><ellipse cx="983.2949" cy="990.1387" fill="#E3E3E3" rx="12" ry="12" style="stroke:#181818;stroke-width:0.5;"/><line style="stroke:#181818;stroke-width:0.5;" x1="971.2949" x2="995.2949" y1="1004.1387" y2="1004.1387"/></g><g class="participant participant-head" data-participant="Repo"><text fill="#000000" font-family="sans-serif" font-size="14" lengthAdjust="spacing" textLength="129.7871" x="1077.2358" y="116.0234">OperationPlanRepo</text><ellipse cx="1145.1294" cy="86.4883" fill="#E3E3E3" rx="12" ry="12" style="stroke:#181818;stroke-width:0.5;"/><line style="stroke:#181818;stroke-width:0.5;" x1="1133.1294" x2="1157.1294" y1="100.4883" y2="100.4883"/></g><g class="participant participant-tail" data-participant="Repo"><text fill="#000000" font-family="sans-serif" font-size="14" lengthAdjust="spacing" textLength="129.7871" x="1077.2358" y="971.1855">OperationPlanRepo</text><ellipse cx="1145.1294" cy="990.1387" fill="#E3E3E3" rx="12" ry="12" style="stroke:#181818;stroke-width:0.5;"/><line style="stroke:#181818;stroke-width:0.5;" x1="1133.1294" x2="1157.1294" y1="1004.1387" y2="1004.1387"/></g><g class="participant participant-head" data-participant="Map"><rect fill="#E3E3E3" height="30.4883" rx="2.5" ry="2.5" style="stroke:#181818;stroke-width:0.5;" width="138.3252" x="1283.8755" y="87.4883"/><text fill="#000000" font-family="sans-serif" font-size="14" lengthAdjust="spacing" textLength="124.3252" x="1290.8755" y="108.0234">OperationPlanMap</text></g><g class="participant participant-tail" data-participant="Map"><rect fill="#E3E3E3" height="30.4883" rx="2.5" ry="2.5" style="stroke:#181818;stroke-width:0.5;" width="138.3252" x="1283.8755" y="957.6504"/><text fill="#000000" font-family="sans-serif" font-size="14" lengthAdjust="spacing" textLength="124.3252" x="1290.8755" y="978.1855">OperationPlanMap</text></g><g class="participant participant-head" data-participant="DB"><text fill="#000000" font-family="sans-serif" font-size="14" lengthAdjust="spacing" textLength="65.2148" x="1432.2007" y="116.0234">MongoDB</text><path d="M1449.8081,66.4883 C1449.8081,56.4883 1467.8081,56.4883 1467.8081,56.4883 C1467.8081,56.4883 1485.8081,56.4883 1485.8081,66.4883 L1485.8081,92.4883 C1485.8081,102.4883 1467.8081,102.4883 1467.8081,102.4883 C1467.8081,102.4883 1449.8081,102.4883 1449.8081,92.4883 L1449.8081,66.4883" fill="#E3E3E3" style="stroke:#181818;stroke-width:0.5;"/><path d="M1449.8081,66.4883 C1449.8081,76.4883 1467.8081,76.4883 1467.8081,76.4883 C1467.8081,76.4883 1485.8081,76.4883 1485.8081,66.4883" fill="none" style="stroke:#181818;stroke-width:0.5;"/></g><g class="participant participant-tail" data-participant="DB"><text fill="#000000" font-family="sans-serif" font-size="14" lengthAdjust="spacing" textLength="65.2148" x="1432.2007" y="971.1855">MongoDB</text><path d="M1449.8081,984.1387 C1449.8081,974.1387 1467.8081,974.1387 1467.8081,974.1387 C1467.8081,974.1387 1485.8081,974.1387 1485.8081,984.1387 L1485.8081,1010.1387 C1485.8081,1020.1387 1467.8081,1020.1387 1467.8081,1020.1387 C1467.8081,1020.1387 1449.8081,1020.1387 1449.8081,1010.1387 L1449.8081,984.1387" fill="#E3E3E3" style="stroke:#181818;stroke-width:0.5;"/><path d="M1449.8081,984.1387 C1449.8081,994.1387 1467.8081,994.1387 1467.8081,994.1387 C1467.8081,994.1387 1485.8081,994.1387 1485.8081,984.1387" fill="none" style="stroke:#181818;stroke-width:0.5;"/></g><g><title>CreateOperationPlanController</title><rect fill="#FFFFFF" height="489.9688" style="stroke:#181818;stroke-width:1;" width="10" x="604.5015" y="318.8398"/></g><g><title>CreateOperationPlanController</title><rect fill="#FFFFFF" height="29.3105" style="stroke:#181818;stroke-width:1;" width="10" x="604.5015" y="853.0742"/></g><g><title>OperationPlanService</title><rect fill="#FFFFFF" height="346.7266" style="stroke:#181818;stroke-width:1;" width="10" x="795.9629" y="432.7715"/></g><g><title>OperationPlanService</title><rect fill="#FFFFFF" height="44.2656" style="stroke:#181818;stroke-width:1;" width="10" x="795.9629" y="808.8086"/></g><g><title>OperationPlan .Domain.</title><rect fill="#FFFFFF" height="29.3105" style="stroke:#181818;stroke-width:1;" width="10" x="978.2949" y="462.082"/></g><g><title>OperationPlanRepo</title><rect fill="#FFFFFF" height="146.5527" style="stroke:#181818;stroke-width:1;" width="10" x="1140.1294" y="545.0137"/></g><g><title>OperationPlanMap</title><rect fill="#FFFFFF" height="29.3105" style="stroke:#181818;stroke-width:1;" width="10" x="1348.0381" y="574.3242"/></g><g><title>OperationPlanMap</title><rect fill="#FFFFFF" height="29.3105" style="stroke:#181818;stroke-width:1;" width="10" x="1348.0381" y="720.877"/></g><rect fill="#EEEEEE" height="3" style="stroke:#EEEEEE;stroke-width:1;" width="1533.4155" x="0" y="149.6318"/><line style="stroke:#000000;stroke-width:1;" x1="0" x2="1533.4155" y1="149.6318" y2="149.6318"/><line style="stroke:#000000;stroke-width:1;" x1="0" x2="1533.4155" y1="152.6318" y2="152.6318"/><rect fill="#EEEEEE" height="23.3105" style="stroke:#000000;stroke-width:2;" width="158.2759" x="687.5698" y="138.9766"/><text fill="#000000" font-family="sans-serif" font-size="13" font-weight="bold" lengthAdjust="spacing" textLength="139.9912" x="693.5698" y="155.5449">Store Generated Plan</text><g class="message" data-participant-1="Operator" data-participant-2="SPA"><polygon fill="#181818" points="209.043,189.5977,219.043,193.5977,209.043,197.5977,213.043,193.5977" style="stroke:#181818;stroke-width:1;"/><line style="stroke:#181818;stroke-width:1;" x1="70.2549" x2="215.043" y1="193.5977" y2="193.5977"/><text fill="#000000" font-family="sans-serif" font-size="13" lengthAdjust="spacing" textLength="126.7881" x="77.2549" y="188.8555">Confirm &amp; Save Plan</text></g><g class="message" data-participant-1="SPA" data-participant-2="Routes"><polygon fill="#181818" points="404.3345,218.9082,414.3345,222.9082,404.3345,226.9082,408.3345,222.9082" style="stroke:#181818;stroke-width:1;"/><line style="stroke:#181818;stroke-width:1;" x1="221.043" x2="410.3345" y1="222.9082" y2="222.9082"/><text fill="#000000" font-family="sans-serif" font-size="13" lengthAdjust="spacing" textLength="171.2915" x="228.043" y="218.166">POST /api/operation-plans</text></g><g class="message" data-participant-1="Routes" data-participant-2="Routes"><line style="stroke:#181818;stroke-width:1;" x1="416.3345" x2="458.3345" y1="252.2188" y2="252.2188"/><line style="stroke:#181818;stroke-width:1;" x1="458.3345" x2="458.3345" y1="252.2188" y2="265.2188"/><line style="stroke:#181818;stroke-width:1;" x1="417.3345" x2="458.3345" y1="265.2188" y2="265.2188"/><polygon fill="#181818" points="427.3345,261.2188,417.3345,265.2188,427.3345,269.2188,423.3345,265.2188" style="stroke:#181818;stroke-width:1;"/><text fill="#000000" font-family="sans-serif" font-size="13" lengthAdjust="spacing" textLength="172.7134" x="423.3345" y="247.4766">Middleware: Authentication</text></g><path d="M176.543,280.2188 L238.6816,280.2188 L238.6816,287.5293 L228.6816,297.5293 L176.543,297.5293 L176.543,280.2188" fill="#EEEEEE" style="stroke:#000000;stroke-width:1.5;"/><rect fill="none" height="661.4316" style="stroke:#000000;stroke-width:1.5;" width="1346.8726" x="176.543" y="280.2188"/><text fill="#000000" font-family="sans-serif" font-size="13" font-weight="bold" lengthAdjust="spacing" textLength="17.1387" x="191.543" y="293.7871">alt</text><text fill="#000000" font-family="sans-serif" font-size="11" font-weight="bold" lengthAdjust="spacing" textLength="70.9951" x="253.6816" y="292.8535">[Authorized]</text><g class="message" data-participant-1="Routes" data-participant-2="Ctrl"><polygon fill="#181818" points="592.5015,314.8398,602.5015,318.8398,592.5015,322.8398,596.5015,318.8398" style="stroke:#181818;stroke-width:1;"/><line style="stroke:#181818;stroke-width:1;" x1="416.3345" x2="598.5015" y1="318.8398" y2="318.8398"/><text fill="#000000" font-family="sans-serif" font-size="13" lengthAdjust="spacing" textLength="105.9043" x="423.3345" y="314.0977">execute(req, res)</text></g><g class="message" data-participant-1="Ctrl" data-participant-2="Ctrl"><line style="stroke:#181818;stroke-width:1;" x1="614.5015" x2="656.5015" y1="348.1504" y2="348.1504"/><line style="stroke:#181818;stroke-width:1;" x1="656.5015" x2="656.5015" y1="348.1504" y2="361.1504"/><line style="stroke:#181818;stroke-width:1;" x1="615.5015" x2="656.5015" y1="361.1504" y2="361.1504"/><polygon fill="#181818" points="625.5015,357.1504,615.5015,361.1504,625.5015,365.1504,621.5015,361.1504" style="stroke:#181818;stroke-width:1;"/><text fill="#000000" font-family="sans-serif" font-size="13" lengthAdjust="spacing" textLength="112.9946" x="621.5015" y="343.4082">Determine Author</text></g><g class="message" data-participant-1="Ctrl" data-participant-2="Ctrl"><line style="stroke:#181818;stroke-width:1;" x1="614.5015" x2="656.5015" y1="390.4609" y2="390.4609"/><line style="stroke:#181818;stroke-width:1;" x1="656.5015" x2="656.5015" y1="390.4609" y2="403.4609"/><line style="stroke:#181818;stroke-width:1;" x1="615.5015" x2="656.5015" y1="403.4609" y2="403.4609"/><polygon fill="#181818" points="625.5015,399.4609,615.5015,403.4609,625.5015,407.4609,621.5015,403.4609" style="stroke:#181818;stroke-width:1;"/><text fill="#000000" font-family="sans-serif" font-size="13" lengthAdjust="spacing" textLength="79.8408" x="621.5015" y="385.7188">Prepare DTO</text></g><g class="message" data-participant-1="Ctrl" data-participant-2="Svc"><polygon fill="#181818" points="783.9629,428.7715,793.9629,432.7715,783.9629,436.7715,787.9629,432.7715" style="stroke:#181818;stroke-width:1;"/><line style="stroke:#181818;stroke-width:1;" x1="614.5015" x2="789.9629" y1="432.7715" y2="432.7715"/><text fill="#000000" font-family="sans-serif" font-size="13" lengthAdjust="spacing" textLength="131.2949" x="621.5015" y="428.0293">createPlanAsync(dto)</text></g><g class="message" data-participant-1="Svc" data-participant-2="Domain"><polygon fill="#181818" points="966.2949,458.082,976.2949,462.082,966.2949,466.082,970.2949,462.082" style="stroke:#181818;stroke-width:1;"/><line style="stroke:#181818;stroke-width:1;" x1="805.9629" x2="972.2949" y1="462.082" y2="462.082"/><text fill="#000000" font-family="sans-serif" font-size="13" lengthAdjust="spacing" textLength="83.2559" x="812.9629" y="457.3398">create(props)</text></g><g class="message" data-participant-1="Domain" data-participant-2="Svc"><polygon fill="#181818" points="816.9629,487.3926,806.9629,491.3926,816.9629,495.3926,812.9629,491.3926" style="stroke:#181818;stroke-width:1;"/><line style="stroke:#181818;stroke-width:1;stroke-dasharray:2,2;" x1="810.9629" x2="982.2949" y1="491.3926" y2="491.3926"/><text fill="#000000" font-family="sans-serif" font-size="13" lengthAdjust="spacing" textLength="148.332" x="822.9629" y="486.6504">Result&lt;OperationPlan&gt;</text></g><path d="M186.543,506.3926 L248.6816,506.3926 L248.6816,513.7031 L238.6816,523.7031 L186.543,523.7031 L186.543,506.3926" fill="#EEEEEE" style="stroke:#000000;stroke-width:1.5;"/><rect fill="none" height="383.9922" style="stroke:#000000;stroke-width:1.5;" width="1326.8726" x="186.543" y="506.3926"/><text fill="#000000" font-family="sans-serif" font-size="13" font-weight="bold" lengthAdjust="spacing" textLength="17.1387" x="201.543" y="519.9609">alt</text><text fill="#000000" font-family="sans-serif" font-size="11" font-weight="bold" lengthAdjust="spacing" textLength="152.813" x="263.6816" y="519.0273">[Plan Created Successfully]</text><g class="message" data-participant-1="Svc" data-participant-2="Repo"><polygon fill="#181818" points="1128.1294,541.0137,1138.1294,545.0137,1128.1294,549.0137,1132.1294,545.0137" style="stroke:#181818;stroke-width:1;"/><line style="stroke:#181818;stroke-width:1;" x1="805.9629" x2="1134.1294" y1="545.0137" y2="545.0137"/><text fill="#000000" font-family="sans-serif" font-size="13" lengthAdjust="spacing" textLength="123.0049" x="812.9629" y="540.2715">save(operationPlan)</text></g><g class="message" data-participant-1="Repo" data-participant-2="Map"><polygon fill="#181818" points="1336.0381,570.3242,1346.0381,574.3242,1336.0381,578.3242,1340.0381,574.3242" style="stroke:#181818;stroke-width:1;"/><line style="stroke:#181818;stroke-width:1;" x1="1150.1294" x2="1342.0381" y1="574.3242" y2="574.3242"/><text fill="#000000" font-family="sans-serif" font-size="13" lengthAdjust="spacing" textLength="178.9087" x="1157.1294" y="569.582">toPersistence(operationPlan)</text></g><g class="message" data-participant-1="Map" data-participant-2="Repo"><polygon fill="#181818" points="1161.1294,599.6348,1151.1294,603.6348,1161.1294,607.6348,1157.1294,603.6348" style="stroke:#181818;stroke-width:1;"/><line style="stroke:#181818;stroke-width:1;stroke-dasharray:2,2;" x1="1155.1294" x2="1352.0381" y1="603.6348" y2="603.6348"/><text fill="#000000" font-family="sans-serif" font-size="13" lengthAdjust="spacing" textLength="70.8018" x="1167.1294" y="598.8926">rawSchema</text></g><g class="message" data-participant-1="Repo" data-participant-2="DB"><polygon fill="#181818" points="1455.8081,628.9453,1465.8081,632.9453,1455.8081,636.9453,1459.8081,632.9453" style="stroke:#181818;stroke-width:1;"/><line style="stroke:#181818;stroke-width:1;" x1="1150.1294" x2="1461.8081" y1="632.9453" y2="632.9453"/><text fill="#000000" font-family="sans-serif" font-size="13" lengthAdjust="spacing" textLength="107.0342" x="1157.1294" y="628.2031">save(rawSchema)</text></g><g class="message" data-participant-1="DB" data-participant-2="Repo"><polygon fill="#181818" points="1161.1294,658.2559,1151.1294,662.2559,1161.1294,666.2559,1157.1294,662.2559" style="stroke:#181818;stroke-width:1;"/><line style="stroke:#181818;stroke-width:1;stroke-dasharray:2,2;" x1="1155.1294" x2="1466.8081" y1="662.2559" y2="662.2559"/><text fill="#000000" font-family="sans-serif" font-size="13" lengthAdjust="spacing" textLength="48.5088" x="1167.1294" y="657.5137">success</text></g><g class="message" data-participant-1="Repo" data-participant-2="Svc"><polygon fill="#181818" points="816.9629,687.5664,806.9629,691.5664,816.9629,695.5664,812.9629,691.5664" style="stroke:#181818;stroke-width:1;"/><line style="stroke:#181818;stroke-width:1;stroke-dasharray:2,2;" x1="810.9629" x2="1144.1294" y1="691.5664" y2="691.5664"/><text fill="#000000" font-family="sans-serif" font-size="13" lengthAdjust="spacing" textLength="86.7725" x="822.9629" y="686.8242">operationPlan</text></g><g class="message" data-participant-1="Svc" data-participant-2="Map"><polygon fill="#181818" points="1336.0381,716.877,1346.0381,720.877,1336.0381,724.877,1340.0381,720.877" style="stroke:#181818;stroke-width:1;"/><line style="stroke:#181818;stroke-width:1;" x1="805.9629" x2="1342.0381" y1="720.877" y2="720.877"/><text fill="#000000" font-family="sans-serif" font-size="13" lengthAdjust="spacing" textLength="136.1318" x="812.9629" y="716.1348">toDTO(operationPlan)</text></g><g class="message" data-participant-1="Map" data-participant-2="Svc"><polygon fill="#181818" points="816.9629,746.1875,806.9629,750.1875,816.9629,754.1875,812.9629,750.1875" style="stroke:#181818;stroke-width:1;"/><line style="stroke:#181818;stroke-width:1;stroke-dasharray:2,2;" x1="810.9629" x2="1352.0381" y1="750.1875" y2="750.1875"/><text fill="#000000" font-family="sans-serif" font-size="13" lengthAdjust="spacing" textLength="55.2437" x="822.9629" y="745.4453">planDTO</text></g><g class="message" data-participant-1="Svc" data-participant-2="Ctrl"><polygon fill="#181818" points="625.5015,775.498,615.5015,779.498,625.5015,783.498,621.5015,779.498" style="stroke:#181818;stroke-width:1;"/><line style="stroke:#181818;stroke-width:1;stroke-dasharray:2,2;" x1="619.5015" x2="799.9629" y1="779.498" y2="779.498"/><text fill="#000000" font-family="sans-serif" font-size="13" lengthAdjust="spacing" textLength="122.1733" x="631.5015" y="774.7559">Result.ok(planDTO)</text></g><g class="message" data-participant-1="Ctrl" data-participant-2="SPA"><polygon fill="#181818" points="232.043,804.8086,222.043,808.8086,232.043,812.8086,228.043,808.8086" style="stroke:#181818;stroke-width:1;"/><line style="stroke:#181818;stroke-width:1;stroke-dasharray:2,2;" x1="226.043" x2="608.5015" y1="808.8086" y2="808.8086"/><text fill="#000000" font-family="sans-serif" font-size="13" lengthAdjust="spacing" textLength="90.6763" x="238.043" y="804.0664">200 OK (JSON)</text></g><line style="stroke:#000000;stroke-width:1;stroke-dasharray:2,2;" x1="186.543" x2="1513.4155" y1="817.8086" y2="817.8086"/><text fill="#000000" font-family="sans-serif" font-size="11" font-weight="bold" lengthAdjust="spacing" textLength="145.0679" x="191.543" y="828.4434">[Domain Validation Error]</text><g class="message" data-participant-1="Svc" data-participant-2="Ctrl"><polygon fill="#181818" points="625.5015,849.0742,615.5015,853.0742,625.5015,857.0742,621.5015,853.0742" style="stroke:#181818;stroke-width:1;"/><line style="stroke:#181818;stroke-width:1;stroke-dasharray:2,2;" x1="619.5015" x2="799.9629" y1="853.0742" y2="853.0742"/><text fill="#000000" font-family="sans-serif" font-size="13" lengthAdjust="spacing" textLength="102.0068" x="631.5015" y="848.332">Result.fail(error)</text></g><g class="message" data-participant-1="Ctrl" data-participant-2="SPA"><polygon fill="#181818" points="232.043,878.3848,222.043,882.3848,232.043,886.3848,228.043,882.3848" style="stroke:#181818;stroke-width:1;"/><line style="stroke:#181818;stroke-width:1;stroke-dasharray:2,2;" x1="226.043" x2="608.5015" y1="882.3848" y2="882.3848"/><text fill="#000000" font-family="sans-serif" font-size="13" lengthAdjust="spacing" textLength="106.1709" x="238.043" y="877.6426">400 Bad Request</text></g><line style="stroke:#000000;stroke-width:1;stroke-dasharray:2,2;" x1="176.543" x2="1523.4155" y1="898.3848" y2="898.3848"/><text fill="#000000" font-family="sans-serif" font-size="11" font-weight="bold" lengthAdjust="spacing" textLength="84.686" x="181.543" y="909.0195">[Unauthorized]</text><g class="message" data-participant-1="Routes" data-participant-2="SPA"><polygon fill="#181818" points="232.043,929.6504,222.043,933.6504,232.043,937.6504,228.043,933.6504" style="stroke:#181818;stroke-width:1;"/><line style="stroke:#181818;stroke-width:1;stroke-dasharray:2,2;" x1="226.043" x2="415.3345" y1="933.6504" y2="933.6504"/><text fill="#000000" font-family="sans-serif" font-size="13" lengthAdjust="spacing" textLength="113.9658" x="238.043" y="928.9082">401 Unauthorized</text></g><!--SRC=[dLN1SjCm4BthAtPo06U615euTIWpRS8m0vHaQk2kMfjKu6YD9AUKl-43EF49-J5MacCxJG8pv69dzVRjxjjTsNtLff9Mhc15XefRIoi4RsiKhZrnjrBHdJPBMCZIeV3QbmWvVglH50XJBPS1batHwQKPmWW-vV1YV38-FOFSaqMOLMYbrsHWNaeZX2pO38FtjDJEwy8r0B83aDqVSKErKTBUmo2VNyGZVlQiBMrWXMkgFRe8Iw-Y8ECjbJ2OM9GUT-2JT5PYYZdnjkpmEyWSxLeNcEAl2u661TYBdarf9RKPHbXwFuoynefIalmYM64MG5VI-0UuArb563-5abxUI8Smk2ApfEbbYd8fnFbv8_4RDC4PLPGOpi-5U0mpe42fMEmlcv-mrgwMfVv1DH1K32D0a4ko4hZqXROhARRYm-XLK1lEO9AEu17aSesfW-640Kbdnind-KTuAYlzbBOrZ4809qI3wQElj58btacBPt1H-zkWKn6TU3HA7srazGzK0lZNCOGkiJz-nu9DcSLlJy2Y6qOO3vLUimAfbz7q6DvlVY-P6z1LM6n-BSAx8kYw3pp5BCoA7B0SnUQtqakApZ5O5tIA7krA6spIYvX3mBb5xYhlnSVPFeO7Y255dCUWv8MxDqMcF3se8GnQKyB962PMIyizevilw0aKSWshpI-ZKwQ1bBdJrBNqMMMfUgXDCvdHsE17RLhNwEhIlzmPmrSHgl0WGsXM7BUqO0hokYZGkKLTblSHqGgGQZaTmnoj2rjlMtEJVjW7JiBna6NKJs7O8jiaukxiyKS6PkALOI9FJQXmI_sJCQpPrXZyHrr6LjxbnItoScm1FJc2tru2qyjj8Qrl5v8FU-GkANQicBOtE_aVIYHAqfFw-PXDlCY69sSxYZsrjnhnqNzfax8AEzudFoPC3DgjI1gqCNtD6eBX8OPs1xe5QY-bqsVFOFOEihVvxCD1v-uIGFvcRMVzCrz_Ads9NbjBTh_M4FJlMI-aBZCCtaUptcEDsHmfvGMNSYaLq_DLvFpHOc8jHWaH2_favE5RiiTxieiApdy0]--></g></svg>