<svg xmlns="http://www.w3.org/2000/svg" xmlns:xlink="http://www.w3.org/1999/xlink" contentStyleType="text/css" data-diagram-type="SEQUENCE" height="1003px" preserveAspectRatio="none" style="width:1450px;height:1003px;background:#FFFFFF;" version="1.1" viewBox="0 0 1450 1003" width="1450px" zoomAndPan="magnify"><title>Sequence Diagram (Design) - US 4.1.7: Create VVE Record</title><defs/><g><text fill="#000000" font-family="sans-serif" font-size="14" font-weight="bold" lengthAdjust="spacing" textLength="416.3564" x="513.1711" y="28.5352">Sequence Diagram (Design) - US 4.1.7: Create VVE Record</text><g><title>CreateVVEController</title><rect fill="#FFFFFF" height="453.6582" style="stroke:#181818;stroke-width:1;" width="10" x="575.1265" y="318.8398"/></g><g><title>CreateVVEController</title><rect fill="#FFFFFF" height="29.3105" style="stroke:#181818;stroke-width:1;" width="10" x="575.1265" y="816.7637"/></g><g><title>VVEService</title><rect fill="#FFFFFF" height="352.7266" style="stroke:#181818;stroke-width:1;" width="10" x="725.752" y="390.4609"/></g><g><title>VVEService</title><rect fill="#FFFFFF" height="44.2656" style="stroke:#181818;stroke-width:1;" width="10" x="725.752" y="772.498"/></g><g><title>VesselVisitExecution .Domain.</title><rect fill="#FFFFFF" height="29.3105" style="stroke:#181818;stroke-width:1;" width="10" x="880.9932" y="419.7715"/></g><g><title>VVERepo</title><rect fill="#FFFFFF" height="152.5527" style="stroke:#181818;stroke-width:1;" width="10" x="1029.6001" y="502.7031"/></g><g><title>VVEMap</title><rect fill="#FFFFFF" height="29.3105" style="stroke:#181818;stroke-width:1;" width="10" x="1171.436" y="532.0137"/></g><g><title>VVEMap</title><rect fill="#FFFFFF" height="29.3105" style="stroke:#181818;stroke-width:1;" width="10" x="1171.436" y="684.5664"/></g><rect fill="none" height="625.1211" style="stroke:#000000;stroke-width:1.5;" width="1202.9849" x="230.7139" y="280.2188"/><rect fill="none" height="389.9922" style="stroke:#000000;stroke-width:1.5;" width="1182.9849" x="240.7139" y="464.082"/><g><title>Logistics Operator</title><rect fill="#000000" fill-opacity="0.00000" height="803.3633" width="8" x="66.2549" y="118.9766"/><line style="stroke:#181818;stroke-width:0.5;stroke-dasharray:5,5;" x1="70" x2="70" y1="118.9766" y2="922.3398"/></g><g><title>SPA</title><rect fill="#000000" fill-opacity="0.00000" height="803.3633" width="8" x="271.2139" y="118.9766"/><line style="stroke:#181818;stroke-width:0.5;stroke-dasharray:5,5;" x1="274.7139" x2="274.7139" y1="118.9766" y2="922.3398"/></g><g><title>VVE Routes</title><rect fill="#000000" fill-opacity="0.00000" height="803.3633" width="8" x="409.1797" y="118.9766"/><line style="stroke:#181818;stroke-width:0.5;stroke-dasharray:5,5;" x1="412.8608" x2="412.8608" y1="118.9766" y2="922.3398"/></g><g><title>CreateVVEController</title><rect fill="#000000" fill-opacity="0.00000" height="803.3633" width="8" x="576.1265" y="118.9766"/><line style="stroke:#181818;stroke-width:0.5;stroke-dasharray:5,5;" x1="580.1074" x2="580.1074" y1="118.9766" y2="922.3398"/></g><g><title>VVEService</title><rect fill="#000000" fill-opacity="0.00000" height="803.3633" width="8" x="726.752" y="118.9766"/><line style="stroke:#181818;stroke-width:0.5;stroke-dasharray:5,5;" x1="730.1387" x2="730.1387" y1="118.9766" y2="922.3398"/></g><g><title>VesselVisitExecution .Domain.</title><rect fill="#000000" fill-opacity="0.00000" height="803.3633" width="8" x="881.9932" y="118.9766"/><line style="stroke:#181818;stroke-width:0.5;stroke-dasharray:5,5;" x1="885.3652" x2="885.3652" y1="118.9766" y2="922.3398"/></g><g><title>VVERepo</title><rect fill="#000000" fill-opacity="0.00000" height="803.3633" width="8" x="1030.6001" y="118.9766"/><line style="stroke:#181818;stroke-width:0.5;stroke-dasharray:5,5;" x1="1033.6211" x2="1033.6211" y1="118.9766" y2="922.3398"/></g><g><title>VVEMap</title><rect fill="#000000" fill-opacity="0.00000" height="803.3633" width="8" x="1172.436" y="118.9766"/><line style="stroke:#181818;stroke-width:0.5;stroke-dasharray:5,5;" x1="1176.188" x2="1176.188" y1="118.9766" y2="922.3398"/></g><g><title>MongoDB</title><rect fill="#000000" fill-opacity="0.00000" height="803.3633" width="8" x="1252.2915" y="118.9766"/><line style="stroke:#181818;stroke-width:0.5;stroke-dasharray:5,5;" x1="1255.6841" x2="1255.6841" y1="118.9766" y2="922.3398"/></g><g class="participant participant-head" data-participant="Operator"><text fill="#000000" font-family="sans-serif" font-size="14" lengthAdjust="spacing" textLength="124.5098" x="5" y="116.0234">Logistics Operator</text><ellipse cx="70.2549" cy="50.9883" fill="#E3E3E3" rx="8" ry="8" style="stroke:#181818;stroke-width:0.5;"/><path d="M70.2549,58.9883 L70.2549,85.9883 M57.2549,66.9883 L83.2549,66.9883 M70.2549,85.9883 L57.2549,100.9883 M70.2549,85.9883 L83.2549,100.9883" fill="none" style="stroke:#181818;stroke-width:0.5;"/></g><g class="participant participant-tail" data-participant="Operator"><text fill="#000000" font-family="sans-serif" font-size="14" lengthAdjust="spacing" textLength="124.5098" x="5" y="934.875">Logistics Operator</text><ellipse cx="70.2549" cy="946.3281" fill="#E3E3E3" rx="8" ry="8" style="stroke:#181818;stroke-width:0.5;"/><path d="M70.2549,954.3281 L70.2549,981.3281 M57.2549,962.3281 L83.2549,962.3281 M70.2549,981.3281 L57.2549,996.3281 M70.2549,981.3281 L83.2549,996.3281" fill="none" style="stroke:#181818;stroke-width:0.5;"/></g><g class="participant participant-head" data-participant="SPA"><text fill="#000000" font-family="sans-serif" font-size="14" lengthAdjust="spacing" textLength="24.9375" x="259.7451" y="116.0234">SPA</text><path d="M254.7139,74.4883 L254.7139,98.4883 M254.7139,86.4883 L271.7139,86.4883" fill="none" style="stroke:#181818;stroke-width:0.5;"/><ellipse cx="283.7139" cy="86.4883" fill="#E3E3E3" rx="12" ry="12" style="stroke:#181818;stroke-width:0.5;"/></g><g class="participant participant-tail" data-participant="SPA"><text fill="#000000" font-family="sans-serif" font-size="14" lengthAdjust="spacing" textLength="24.9375" x="259.7451" y="934.875">SPA</text><path d="M254.7139,941.8281 L254.7139,965.8281 M254.7139,953.8281 L271.7139,953.8281" fill="none" style="stroke:#181818;stroke-width:0.5;"/><ellipse cx="283.7139" cy="953.8281" fill="#E3E3E3" rx="12" ry="12" style="stroke:#181818;stroke-width:0.5;"/></g><g class="participant participant-head" data-participant="Routes"><text fill="#000000" font-family="sans-serif" font-size="14" lengthAdjust="spacing" textLength="76.6377" x="371.8608" y="116.0234">VVE Routes</text><path d="M392.6797,74.4883 L392.6797,98.4883 M392.6797,86.4883 L409.6797,86.4883" fill="none" style="stroke:#181818;stroke-width:0.5;"/><ellipse cx="421.6797" cy="86.4883" fill="#E3E3E3" rx="12" ry="12" style="stroke:#181818;stroke-width:0.5;"/></g><g class="participant participant-tail" data-participant="Routes"><text fill="#000000" font-family="sans-serif" font-size="14" lengthAdjust="spacing" textLength="76.6377" x="371.8608" y="934.875">VVE Routes</text><path d="M392.6797,941.8281 L392.6797,965.8281 M392.6797,953.8281 L409.6797,953.8281" fill="none" style="stroke:#181818;stroke-width:0.5;"/><ellipse cx="421.6797" cy="953.8281" fill="#E3E3E3" rx="12" ry="12" style="stroke:#181818;stroke-width:0.5;"/></g><g class="participant participant-head" data-participant="Ctrl"><text fill="#000000" font-family="sans-serif" font-size="14" lengthAdjust="spacing" textLength="138.0381" x="508.1074" y="116.0234">CreateVVEController</text><ellipse cx="580.1265" cy="86.4883" fill="#E3E3E3" rx="12" ry="12" style="stroke:#181818;stroke-width:0.5;"/><polygon fill="#181818" points="576.1265,74.4883,582.1265,69.4883,580.1265,74.4883,582.1265,79.4883,576.1265,74.4883" style="stroke:#181818;stroke-width:1;"/></g><g class="participant participant-tail" data-participant="Ctrl"><text fill="#000000" font-family="sans-serif" font-size="14" lengthAdjust="spacing" textLength="138.0381" x="508.1074" y="934.875">CreateVVEController</text><ellipse cx="580.1265" cy="953.8281" fill="#E3E3E3" rx="12" ry="12" style="stroke:#181818;stroke-width:0.5;"/><polygon fill="#181818" points="576.1265,941.8281,582.1265,936.8281,580.1265,941.8281,582.1265,946.8281,576.1265,941.8281" style="stroke:#181818;stroke-width:1;"/></g><g class="participant participant-head" data-participant="Svc"><text fill="#000000" font-family="sans-serif" font-size="14" lengthAdjust="spacing" textLength="73.2266" x="691.1387" y="116.0234">VVEService</text><ellipse cx="730.752" cy="86.4883" fill="#E3E3E3" rx="12" ry="12" style="stroke:#181818;stroke-width:0.5;"/><polygon fill="#181818" points="726.752,74.4883,732.752,69.4883,730.752,74.4883,732.752,79.4883,726.752,74.4883" style="stroke:#181818;stroke-width:1;"/></g><g class="participant participant-tail" data-participant="Svc"><text fill="#000000" font-family="sans-serif" font-size="14" lengthAdjust="spacing" textLength="73.2266" x="691.1387" y="934.875">VVEService</text><ellipse cx="730.752" cy="953.8281" fill="#E3E3E3" rx="12" ry="12" style="stroke:#181818;stroke-width:0.5;"/><polygon fill="#181818" points="726.752,941.8281,732.752,936.8281,730.752,941.8281,732.752,946.8281,726.752,941.8281" style="stroke:#181818;stroke-width:1;"/></g><g class="participant participant-head" data-participant="Domain"><text fill="#000000" font-family="sans-serif" font-size="14" lengthAdjust="spacing" textLength="205.2559" x="780.3652" y="116.0234">VesselVisitExecution (Domain)</text><ellipse cx="885.9932" cy="86.4883" fill="#E3E3E3" rx="12" ry="12" style="stroke:#181818;stroke-width:0.5;"/><line style="stroke:#181818;stroke-width:0.5;" x1="873.9932" x2="897.9932" y1="100.4883" y2="100.4883"/></g><g class="participant participant-tail" data-participant="Domain"><text fill="#000000" font-family="sans-serif" font-size="14" lengthAdjust="spacing" textLength="205.2559" x="780.3652" y="934.875">VesselVisitExecution (Domain)</text><ellipse cx="885.9932" cy="953.8281" fill="#E3E3E3" rx="12" ry="12" style="stroke:#181818;stroke-width:0.5;"/><line style="stroke:#181818;stroke-width:0.5;" x1="873.9932" x2="897.9932" y1="967.8281" y2="967.8281"/></g><g class="participant participant-head" data-participant="Repo"><text fill="#000000" font-family="sans-serif" font-size="14" lengthAdjust="spacing" textLength="59.958" x="1001.6211" y="116.0234">VVERepo</text><ellipse cx="1034.6001" cy="86.4883" fill="#E3E3E3" rx="12" ry="12" style="stroke:#181818;stroke-width:0.5;"/><line style="stroke:#181818;stroke-width:0.5;" x1="1022.6001" x2="1046.6001" y1="100.4883" y2="100.4883"/></g><g class="participant participant-tail" data-participant="Repo"><text fill="#000000" font-family="sans-serif" font-size="14" lengthAdjust="spacing" textLength="59.958" x="1001.6211" y="934.875">VVERepo</text><ellipse cx="1034.6001" cy="953.8281" fill="#E3E3E3" rx="12" ry="12" style="stroke:#181818;stroke-width:0.5;"/><line style="stroke:#181818;stroke-width:0.5;" x1="1022.6001" x2="1046.6001" y1="967.8281" y2="967.8281"/></g><g class="participant participant-head" data-participant="Map"><rect fill="#E3E3E3" height="30.4883" rx="2.5" ry="2.5" style="stroke:#181818;stroke-width:0.5;" width="68.4961" x="1142.188" y="87.4883"/><text fill="#000000" font-family="sans-serif" font-size="14" lengthAdjust="spacing" textLength="54.4961" x="1149.188" y="108.0234">VVEMap</text></g><g class="participant participant-tail" data-participant="Map"><rect fill="#E3E3E3" height="30.4883" rx="2.5" ry="2.5" style="stroke:#181818;stroke-width:0.5;" width="68.4961" x="1142.188" y="921.3398"/><text fill="#000000" font-family="sans-serif" font-size="14" lengthAdjust="spacing" textLength="54.4961" x="1149.188" y="941.875">VVEMap</text></g><g class="participant participant-head" data-participant="DB"><text fill="#000000" font-family="sans-serif" font-size="14" lengthAdjust="spacing" textLength="65.2148" x="1220.6841" y="116.0234">MongoDB</text><path d="M1238.2915,66.4883 C1238.2915,56.4883 1256.2915,56.4883 1256.2915,56.4883 C1256.2915,56.4883 1274.2915,56.4883 1274.2915,66.4883 L1274.2915,92.4883 C1274.2915,102.4883 1256.2915,102.4883 1256.2915,102.4883 C1256.2915,102.4883 1238.2915,102.4883 1238.2915,92.4883 L1238.2915,66.4883" fill="#E3E3E3" style="stroke:#181818;stroke-width:0.5;"/><path d="M1238.2915,66.4883 C1238.2915,76.4883 1256.2915,76.4883 1256.2915,76.4883 C1256.2915,76.4883 1274.2915,76.4883 1274.2915,66.4883" fill="none" style="stroke:#181818;stroke-width:0.5;"/></g><g class="participant participant-tail" data-participant="DB"><text fill="#000000" font-family="sans-serif" font-size="14" lengthAdjust="spacing" textLength="65.2148" x="1220.6841" y="934.875">MongoDB</text><path d="M1238.2915,947.8281 C1238.2915,937.8281 1256.2915,937.8281 1256.2915,937.8281 C1256.2915,937.8281 1274.2915,937.8281 1274.2915,947.8281 L1274.2915,973.8281 C1274.2915,983.8281 1256.2915,983.8281 1256.2915,983.8281 C1256.2915,983.8281 1238.2915,983.8281 1238.2915,973.8281 L1238.2915,947.8281" fill="#E3E3E3" style="stroke:#181818;stroke-width:0.5;"/><path d="M1238.2915,947.8281 C1238.2915,957.8281 1256.2915,957.8281 1256.2915,957.8281 C1256.2915,957.8281 1274.2915,957.8281 1274.2915,947.8281" fill="none" style="stroke:#181818;stroke-width:0.5;"/></g><g><title>CreateVVEController</title><rect fill="#FFFFFF" height="453.6582" style="stroke:#181818;stroke-width:1;" width="10" x="575.1265" y="318.8398"/></g><g><title>CreateVVEController</title><rect fill="#FFFFFF" height="29.3105" style="stroke:#181818;stroke-width:1;" width="10" x="575.1265" y="816.7637"/></g><g><title>VVEService</title><rect fill="#FFFFFF" height="352.7266" style="stroke:#181818;stroke-width:1;" width="10" x="725.752" y="390.4609"/></g><g><title>VVEService</title><rect fill="#FFFFFF" height="44.2656" style="stroke:#181818;stroke-width:1;" width="10" x="725.752" y="772.498"/></g><g><title>VesselVisitExecution .Domain.</title><rect fill="#FFFFFF" height="29.3105" style="stroke:#181818;stroke-width:1;" width="10" x="880.9932" y="419.7715"/></g><g><title>VVERepo</title><rect fill="#FFFFFF" height="152.5527" style="stroke:#181818;stroke-width:1;" width="10" x="1029.6001" y="502.7031"/></g><g><title>VVEMap</title><rect fill="#FFFFFF" height="29.3105" style="stroke:#181818;stroke-width:1;" width="10" x="1171.436" y="532.0137"/></g><g><title>VVEMap</title><rect fill="#FFFFFF" height="29.3105" style="stroke:#181818;stroke-width:1;" width="10" x="1171.436" y="684.5664"/></g><rect fill="#EEEEEE" height="3" style="stroke:#EEEEEE;stroke-width:1;" width="1443.6987" x="0" y="149.6318"/><line style="stroke:#000000;stroke-width:1;" x1="0" x2="1443.6987" y1="149.6318" y2="149.6318"/><line style="stroke:#000000;stroke-width:1;" x1="0" x2="1443.6987" y1="152.6318" y2="152.6318"/><rect fill="#EEEEEE" height="23.3105" style="stroke:#000000;stroke-width:2;" width="161.6338" x="641.0325" y="138.9766"/><text fill="#000000" font-family="sans-serif" font-size="13" font-weight="bold" lengthAdjust="spacing" textLength="143.3491" x="647.0325" y="155.5449">Record Vessel Arrival</text><g class="message" data-participant-1="Operator" data-participant-2="SPA"><polygon fill="#181818" points="263.2139,189.5977,273.2139,193.5977,263.2139,197.5977,267.2139,193.5977" style="stroke:#181818;stroke-width:1;"/><line style="stroke:#181818;stroke-width:1;" x1="70.2549" x2="269.2139" y1="193.5977" y2="193.5977"/><text fill="#000000" font-family="sans-serif" font-size="13" lengthAdjust="spacing" textLength="180.959" x="77.2549" y="188.8555">Select VVN &amp; Confirm Arrival</text></g><g class="message" data-participant-1="SPA" data-participant-2="Routes"><polygon fill="#181818" points="401.1797,218.9082,411.1797,222.9082,401.1797,226.9082,405.1797,222.9082" style="stroke:#181818;stroke-width:1;"/><line style="stroke:#181818;stroke-width:1;" x1="275.2139" x2="407.1797" y1="222.9082" y2="222.9082"/><text fill="#000000" font-family="sans-serif" font-size="13" lengthAdjust="spacing" textLength="90.0732" x="282.2139" y="218.166">POST /api/vve</text></g><g class="message" data-participant-1="Routes" data-participant-2="Routes"><line style="stroke:#181818;stroke-width:1;" x1="413.1797" x2="455.1797" y1="252.2188" y2="252.2188"/><line style="stroke:#181818;stroke-width:1;" x1="455.1797" x2="455.1797" y1="252.2188" y2="265.2188"/><line style="stroke:#181818;stroke-width:1;" x1="414.1797" x2="455.1797" y1="265.2188" y2="265.2188"/><polygon fill="#181818" points="424.1797,261.2188,414.1797,265.2188,424.1797,269.2188,420.1797,265.2188" style="stroke:#181818;stroke-width:1;"/><text fill="#000000" font-family="sans-serif" font-size="13" lengthAdjust="spacing" textLength="152.9468" x="420.1797" y="247.4766">Middleware: Auth Check</text></g><path d="M230.7139,280.2188 L292.8525,280.2188 L292.8525,287.5293 L282.8525,297.5293 L230.7139,297.5293 L230.7139,280.2188" fill="#EEEEEE" style="stroke:#000000;stroke-width:1.5;"/><rect fill="none" height="625.1211" style="stroke:#000000;stroke-width:1.5;" width="1202.9849" x="230.7139" y="280.2188"/><text fill="#000000" font-family="sans-serif" font-size="13" font-weight="bold" lengthAdjust="spacing" textLength="17.1387" x="245.7139" y="293.7871">alt</text><text fill="#000000" font-family="sans-serif" font-size="11" font-weight="bold" lengthAdjust="spacing" textLength="70.9951" x="307.8525" y="292.8535">[Authorized]</text><g class="message" data-participant-1="Routes" data-participant-2="Ctrl"><polygon fill="#181818" points="563.1265,314.8398,573.1265,318.8398,563.1265,322.8398,567.1265,318.8398" style="stroke:#181818;stroke-width:1;"/><line style="stroke:#181818;stroke-width:1;" x1="413.1797" x2="569.1265" y1="318.8398" y2="318.8398"/><text fill="#000000" font-family="sans-serif" font-size="13" lengthAdjust="spacing" textLength="105.9043" x="420.1797" y="314.0977">execute(req, res)</text></g><g class="message" data-participant-1="Ctrl" data-participant-2="Ctrl"><line style="stroke:#181818;stroke-width:1;" x1="585.1265" x2="627.1265" y1="348.1504" y2="348.1504"/><line style="stroke:#181818;stroke-width:1;" x1="627.1265" x2="627.1265" y1="348.1504" y2="361.1504"/><line style="stroke:#181818;stroke-width:1;" x1="586.1265" x2="627.1265" y1="361.1504" y2="361.1504"/><polygon fill="#181818" points="596.1265,357.1504,586.1265,361.1504,596.1265,365.1504,592.1265,361.1504" style="stroke:#181818;stroke-width:1;"/><text fill="#000000" font-family="sans-serif" font-size="13" lengthAdjust="spacing" textLength="116.6255" x="592.1265" y="343.4082">Determine Creator</text></g><g class="message" data-participant-1="Ctrl" data-participant-2="Svc"><polygon fill="#181818" points="713.752,386.4609,723.752,390.4609,713.752,394.4609,717.752,390.4609" style="stroke:#181818;stroke-width:1;"/><line style="stroke:#181818;stroke-width:1;" x1="585.1265" x2="719.752" y1="390.4609" y2="390.4609"/><text fill="#000000" font-family="sans-serif" font-size="13" lengthAdjust="spacing" textLength="105.1045" x="592.1265" y="385.7188">createAsync(dto)</text></g><g class="message" data-participant-1="Svc" data-participant-2="Domain"><polygon fill="#181818" points="868.9932,415.7715,878.9932,419.7715,868.9932,423.7715,872.9932,419.7715" style="stroke:#181818;stroke-width:1;"/><line style="stroke:#181818;stroke-width:1;" x1="735.752" x2="874.9932" y1="419.7715" y2="419.7715"/><text fill="#000000" font-family="sans-serif" font-size="13" lengthAdjust="spacing" textLength="83.2559" x="742.752" y="415.0293">create(props)</text></g><g class="message" data-participant-1="Domain" data-participant-2="Svc"><polygon fill="#181818" points="746.752,445.082,736.752,449.082,746.752,453.082,742.752,449.082" style="stroke:#181818;stroke-width:1;"/><line style="stroke:#181818;stroke-width:1;stroke-dasharray:2,2;" x1="740.752" x2="884.9932" y1="449.082" y2="449.082"/><text fill="#000000" font-family="sans-serif" font-size="13" lengthAdjust="spacing" textLength="83.4907" x="752.752" y="444.3398">Result&lt;VVE&gt;</text></g><path d="M240.7139,464.082 L302.8525,464.082 L302.8525,471.3926 L292.8525,481.3926 L240.7139,481.3926 L240.7139,464.082" fill="#EEEEEE" style="stroke:#000000;stroke-width:1.5;"/><rect fill="none" height="389.9922" style="stroke:#000000;stroke-width:1.5;" width="1182.9849" x="240.7139" y="464.082"/><text fill="#000000" font-family="sans-serif" font-size="13" font-weight="bold" lengthAdjust="spacing" textLength="17.1387" x="255.7139" y="477.6504">alt</text><text fill="#000000" font-family="sans-serif" font-size="11" font-weight="bold" lengthAdjust="spacing" textLength="52.2554" x="317.8525" y="476.7168">[Success]</text><g class="message" data-participant-1="Svc" data-participant-2="Repo"><polygon fill="#181818" points="1017.6001,498.7031,1027.6001,502.7031,1017.6001,506.7031,1021.6001,502.7031" style="stroke:#181818;stroke-width:1;"/><line style="stroke:#181818;stroke-width:1;" x1="735.752" x2="1023.6001" y1="502.7031" y2="502.7031"/><text fill="#000000" font-family="sans-serif" font-size="13" lengthAdjust="spacing" textLength="56.9321" x="742.752" y="497.9609">save(vve)</text></g><g class="message" data-participant-1="Repo" data-participant-2="Map"><polygon fill="#181818" points="1159.436,528.0137,1169.436,532.0137,1159.436,536.0137,1163.436,532.0137" style="stroke:#181818;stroke-width:1;"/><line style="stroke:#181818;stroke-width:1;" x1="1039.6001" x2="1165.436" y1="532.0137" y2="532.0137"/><text fill="#000000" font-family="sans-serif" font-size="13" lengthAdjust="spacing" textLength="112.8359" x="1046.6001" y="527.2715">toPersistence(vve)</text></g><g class="message" data-participant-1="Map" data-participant-2="Repo"><polygon fill="#181818" points="1050.6001,557.3242,1040.6001,561.3242,1050.6001,565.3242,1046.6001,561.3242" style="stroke:#181818;stroke-width:1;"/><line style="stroke:#181818;stroke-width:1;stroke-dasharray:2,2;" x1="1044.6001" x2="1175.436" y1="561.3242" y2="561.3242"/><text fill="#000000" font-family="sans-serif" font-size="13" lengthAdjust="spacing" textLength="51.4731" x="1056.6001" y="556.582">rawData</text></g><g class="message" data-participant-1="Repo" data-participant-2="DB"><polygon fill="#181818" points="1244.2915,589.6348,1254.2915,593.6348,1244.2915,597.6348,1248.2915,593.6348" style="stroke:#181818;stroke-width:1;"/><line style="stroke:#181818;stroke-width:1;" x1="1039.6001" x2="1250.2915" y1="593.6348" y2="593.6348"/><text fill="#000000" font-family="sans-serif" font-size="13" lengthAdjust="spacing" textLength="87.7056" x="1046.6001" y="588.8926">save(rawData)</text></g><path d="M1261,574.3242 L1261,599.3242 L1408,599.3242 L1408,584.3242 L1398,574.3242 L1261,574.3242" fill="#FAFAFA" style="stroke:#181818;stroke-width:0.5;"/><path d="M1398,574.3242 L1398,584.3242 L1408,584.3242 L1398,574.3242" fill="#FAFAFA" style="stroke:#181818;stroke-width:0.5;"/><text fill="#000000" font-family="sans-serif" font-size="13" lengthAdjust="spacing" textLength="126.4072" x="1267" y="591.8926">Automatic ID stored</text><g class="message" data-participant-1="DB" data-participant-2="Repo"><polygon fill="#181818" points="1050.6001,621.9453,1040.6001,625.9453,1050.6001,629.9453,1046.6001,625.9453" style="stroke:#181818;stroke-width:1;"/><line style="stroke:#181818;stroke-width:1;stroke-dasharray:2,2;" x1="1044.6001" x2="1255.2915" y1="625.9453" y2="625.9453"/><text fill="#000000" font-family="sans-serif" font-size="13" lengthAdjust="spacing" textLength="48.5088" x="1056.6001" y="621.2031">success</text></g><g class="message" data-participant-1="Repo" data-participant-2="Svc"><polygon fill="#181818" points="746.752,651.2559,736.752,655.2559,746.752,659.2559,742.752,655.2559" style="stroke:#181818;stroke-width:1;"/><line style="stroke:#181818;stroke-width:1;stroke-dasharray:2,2;" x1="740.752" x2="1033.6001" y1="655.2559" y2="655.2559"/><text fill="#000000" font-family="sans-serif" font-size="13" lengthAdjust="spacing" textLength="20.6997" x="752.752" y="650.5137">vve</text></g><g class="message" data-participant-1="Svc" data-participant-2="Map"><polygon fill="#181818" points="1159.436,680.5664,1169.436,684.5664,1159.436,688.5664,1163.436,684.5664" style="stroke:#181818;stroke-width:1;"/><line style="stroke:#181818;stroke-width:1;" x1="735.752" x2="1165.436" y1="684.5664" y2="684.5664"/><text fill="#000000" font-family="sans-serif" font-size="13" lengthAdjust="spacing" textLength="70.0591" x="742.752" y="679.8242">toDTO(vve)</text></g><g class="message" data-participant-1="Map" data-participant-2="Svc"><polygon fill="#181818" points="746.752,709.877,736.752,713.877,746.752,717.877,742.752,713.877" style="stroke:#181818;stroke-width:1;"/><line style="stroke:#181818;stroke-width:1;stroke-dasharray:2,2;" x1="740.752" x2="1175.436" y1="713.877" y2="713.877"/><text fill="#000000" font-family="sans-serif" font-size="13" lengthAdjust="spacing" textLength="48.7563" x="752.752" y="709.1348">vveDTO</text></g><g class="message" data-participant-1="Svc" data-participant-2="Ctrl"><polygon fill="#181818" points="596.1265,739.1875,586.1265,743.1875,596.1265,747.1875,592.1265,743.1875" style="stroke:#181818;stroke-width:1;"/><line style="stroke:#181818;stroke-width:1;stroke-dasharray:2,2;" x1="590.1265" x2="729.752" y1="743.1875" y2="743.1875"/><text fill="#000000" font-family="sans-serif" font-size="13" lengthAdjust="spacing" textLength="115.686" x="602.1265" y="738.4453">Result.ok(vveDTO)</text></g><g class="message" data-participant-1="Ctrl" data-participant-2="SPA"><polygon fill="#181818" points="286.2139,768.498,276.2139,772.498,286.2139,776.498,282.2139,772.498" style="stroke:#181818;stroke-width:1;"/><line style="stroke:#181818;stroke-width:1;stroke-dasharray:2,2;" x1="280.2139" x2="579.1265" y1="772.498" y2="772.498"/><text fill="#000000" font-family="sans-serif" font-size="13" lengthAdjust="spacing" textLength="121.1133" x="292.2139" y="767.7559">201 Created (JSON)</text></g><line style="stroke:#000000;stroke-width:1;stroke-dasharray:2,2;" x1="240.7139" x2="1423.6987" y1="781.498" y2="781.498"/><text fill="#000000" font-family="sans-serif" font-size="11" font-weight="bold" lengthAdjust="spacing" textLength="140.916" x="245.7139" y="792.1328">[Business Rule Violation]</text><g class="message" data-participant-1="Svc" data-participant-2="Ctrl"><polygon fill="#181818" points="596.1265,812.7637,586.1265,816.7637,596.1265,820.7637,592.1265,816.7637" style="stroke:#181818;stroke-width:1;"/><line style="stroke:#181818;stroke-width:1;stroke-dasharray:2,2;" x1="590.1265" x2="729.752" y1="816.7637" y2="816.7637"/><text fill="#000000" font-family="sans-serif" font-size="13" lengthAdjust="spacing" textLength="102.0068" x="602.1265" y="812.0215">Result.fail(error)</text></g><g class="message" data-participant-1="Ctrl" data-participant-2="SPA"><polygon fill="#181818" points="286.2139,842.0742,276.2139,846.0742,286.2139,850.0742,282.2139,846.0742" style="stroke:#181818;stroke-width:1;"/><line style="stroke:#181818;stroke-width:1;stroke-dasharray:2,2;" x1="280.2139" x2="579.1265" y1="846.0742" y2="846.0742"/><text fill="#000000" font-family="sans-serif" font-size="13" lengthAdjust="spacing" textLength="106.1709" x="292.2139" y="841.332">400 Bad Request</text></g><line style="stroke:#000000;stroke-width:1;stroke-dasharray:2,2;" x1="230.7139" x2="1433.6987" y1="862.0742" y2="862.0742"/><text fill="#000000" font-family="sans-serif" font-size="11" font-weight="bold" lengthAdjust="spacing" textLength="84.686" x="235.7139" y="872.709">[Unauthorized]</text><g class="message" data-participant-1="Routes" data-participant-2="SPA"><polygon fill="#181818" points="286.2139,893.3398,276.2139,897.3398,286.2139,901.3398,282.2139,897.3398" style="stroke:#181818;stroke-width:1;"/><line style="stroke:#181818;stroke-width:1;stroke-dasharray:2,2;" x1="280.2139" x2="412.1797" y1="897.3398" y2="897.3398"/><text fill="#000000" font-family="sans-serif" font-size="13" lengthAdjust="spacing" textLength="113.9658" x="292.2139" y="892.5977">401 Unauthorized</text></g><!--SRC=[bLNDRXen4BxxAKOSMf0A2McaIb6916mEhP8GXOIxuvqiLXPxOtj9qzVfeLAbdle8l5Z7zh8BXAGg1zYTd- -R-MPix8DK1JTy0Gkjj9WRlK1mfaHcQu-TyrG_IPN1FSyjCYTTZZ35nnALG4WaptnOEq4hCzM1BjnEuRZNxtqwWR51xX1cipEuHg5DoXWNJXjedUjCMYU5XKc1XfEj1RnvONUwL2atpz2QNWs3Ytuth05IbmvjSCP79hHoHkVGYiGKD8wM72F-s9cyYIB_5CrI2emCIy5GKNyU7wt5V2QjT6VVK9HEQaKzwWMNgXEYutEJC3kxnaB7QkY1aNhKdoouSi5xmOlWf5-MSiVlk4LeNMYLwMGK4KUC3GQLKX0hWA4nSibp60mOMwi3tLCl1vpG678KZWI-X7T0lTvBirYdC1z2aL4R2hwQJ6_WW1VoOBb4nYhxPiI5JDCSdxZ14nYMRWxZEOe76bhkmhisyZkc3EZJP7jDAHU3JDWs-FW13DfE2ADnKosq0q7vO7eFvwi_cHGSKWtDV88lO3MO2Jeq2wamRXBjnLOK3Oo2H9Zrq3uhqKwTtk7rGwre-ps2aNprS_L3U-vXPZ2ZvGvpNVrMiihri8GU1rmJj0kZYzskgYNmjiWIlghCRbtYDTeoTvzf2qv3G8gx216MP9wMGj3amtii-wW7LsWi7PVLBoKahrrLdNxRYCFo9RPfi9tQNtE4VLnRwuUGH_cqa9JkT4NYJ_KhE7vrrqQVrMtO3NzAQAbhzqQ7Fki5QJ9QbrnbDdHAKvAHsTo59IHzw1p1bmGiBK2rVK7bqMO1TaUt7SPw57xrznGP9DeG_MEFJCIdzAxSQxcIcyb_o5IJKze_HGfCpIc8szFJ3-sOtza7KEzvSq3gM-Bei5zTnIcqlqudbtiHmWdTaW_fleTHQUa0MhhLIhhtPrBdt5-6Bzls5RpTmJsNUHkDqURL5bwWRbMrqzVnuI6CU4hmz6TatPjDeQ8_dz3GhUBxhx8DtFvsb4_-2m00]--></g></svg>