<svg xmlns="http://www.w3.org/2000/svg" xmlns:xlink="http://www.w3.org/1999/xlink" contentStyleType="text/css" data-diagram-type="SEQUENCE" height="482px" preserveAspectRatio="none" style="width:900px;height:482px;background:#FFFFFF;" version="1.1" viewBox="0 0 900 482" width="900px" zoomAndPan="magnify"><title>System Sequence Diagram - Create Shipping Agent Organization</title><defs/><g><text fill="#000000" font-family="sans-serif" font-size="14" font-weight="bold" lengthAdjust="spacing" textLength="512.6064" x="190.0608" y="27.9951">System Sequence Diagram - Create Shipping Agent Organization</text><g><title>Port Authority Officer</title><rect fill="#000000" fill-opacity="0.00000" height="283.3281" width="8" x="78.3921" y="118.5938"/><line style="stroke:#181818;stroke-width:0.5;stroke-dasharray:5,5;" x1="82" x2="82" y1="118.5938" y2="401.9219"/></g><g><title>Shipping Agent Organization Management API</title><rect fill="#000000" fill-opacity="0.00000" height="283.3281" width="8" x="719.5112" y="118.5938"/><line style="stroke:#181818;stroke-width:0.5;stroke-dasharray:5,5;" x1="723.2944" x2="723.2944" y1="118.5938" y2="401.9219"/></g><g class="participant participant-head" data-participant="Officer"><text fill="#000000" font-family="sans-serif" font-size="14" lengthAdjust="spacing" textLength="148.7842" x="5" y="115.292">Port Authority Officer</text><ellipse cx="82.3921" cy="50.7969" fill="#E3E3E3" rx="8" ry="8" style="stroke:#181818;stroke-width:0.5;"/><path d="M82.3921,58.7969 L82.3921,85.7969 M69.3921,66.7969 L95.3921,66.7969 M82.3921,85.7969 L69.3921,100.7969 M82.3921,85.7969 L95.3921,100.7969" fill="none" style="stroke:#181818;stroke-width:0.5;"/></g><g class="participant participant-tail" data-participant="Officer"><text fill="#000000" font-family="sans-serif" font-size="14" lengthAdjust="spacing" textLength="148.7842" x="5" y="413.917">Port Authority Officer</text><ellipse cx="82.3921" cy="425.7188" fill="#E3E3E3" rx="8" ry="8" style="stroke:#181818;stroke-width:0.5;"/><path d="M82.3921,433.7188 L82.3921,460.7188 M69.3921,441.7188 L95.3921,441.7188 M82.3921,460.7188 L69.3921,475.7188 M82.3921,460.7188 L95.3921,475.7188" fill="none" style="stroke:#181818;stroke-width:0.5;"/></g><g class="participant participant-head" data-participant="System"><text fill="#000000" font-family="sans-serif" font-size="14" lengthAdjust="spacing" textLength="324.4336" x="558.2944" y="115.292">Shipping Agent Organization Management API</text><path d="M703.0112,74.2969 L703.0112,98.2969 M703.0112,86.2969 L720.0112,86.2969" fill="none" style="stroke:#181818;stroke-width:0.5;"/><ellipse cx="732.0112" cy="86.2969" fill="#E3E3E3" rx="12" ry="12" style="stroke:#181818;stroke-width:0.5;"/></g><g class="participant participant-tail" data-participant="System"><text fill="#000000" font-family="sans-serif" font-size="14" lengthAdjust="spacing" textLength="324.4336" x="558.2944" y="413.917">Shipping Agent Organization Management API</text><path d="M703.0112,421.2188 L703.0112,445.2188 M703.0112,433.2188 L720.0112,433.2188" fill="none" style="stroke:#181818;stroke-width:0.5;"/><ellipse cx="732.0112" cy="433.2188" fill="#E3E3E3" rx="12" ry="12" style="stroke:#181818;stroke-width:0.5;"/></g><rect fill="#EEEEEE" height="3" style="stroke:#EEEEEE;stroke-width:1;" width="893.728" x="0" y="149.1602"/><line style="stroke:#000000;stroke-width:1;" x1="0" x2="893.728" y1="149.1602" y2="149.1602"/><line style="stroke:#000000;stroke-width:1;" x1="0" x2="893.728" y1="152.1602" y2="152.1602"/><rect fill="#EEEEEE" height="23.1328" style="stroke:#000000;stroke-width:2;" width="283.4771" x="305.1255" y="138.5938"/><text fill="#000000" font-family="sans-serif" font-size="13" font-weight="bold" lengthAdjust="spacing" textLength="264.9512" x="311.1255" y="154.6606">Create Shipping Agent Organization</text><g class="message" data-participant-1="Officer" data-participant-2="System"><polygon fill="#181818" points="711.5112,203.9922,721.5112,207.9922,711.5112,211.9922,715.5112,207.9922" style="stroke:#181818;stroke-width:1;"/><line style="stroke:#181818;stroke-width:1;" x1="82.3921" x2="717.5112" y1="207.9922" y2="207.9922"/><text fill="#000000" font-family="sans-serif" font-size="13" lengthAdjust="spacing" textLength="245.5146" x="89.3921" y="187.7935">POST /api/ShippingAgentOrganization</text><text fill="#000000" font-family="sans-serif" font-size="13" lengthAdjust="spacing" textLength="617.1191" x="89.3921" y="202.9263">Body: CreatingShippingAgentOrganizationDto(code, legaName, altName, address, taxnumber)</text></g><g class="message" data-participant-1="System" data-participant-2="Officer"><polygon fill="#181818" points="93.3921,248.2578,83.3921,252.2578,93.3921,256.2578,89.3921,252.2578" style="stroke:#181818;stroke-width:1;"/><line style="stroke:#181818;stroke-width:1;stroke-dasharray:2,2;" x1="87.3921" x2="722.5112" y1="252.2578" y2="252.2578"/><text fill="#000000" font-family="sans-serif" font-size="13" lengthAdjust="spacing" textLength="80.6787" x="99.3921" y="232.0591">201 Created</text><text fill="#000000" font-family="sans-serif" font-size="13" lengthAdjust="spacing" textLength="242.9185" x="99.3921" y="247.1919">Body: ShippingAgentOrganizationDto</text></g><rect fill="#EEEEEE" height="3" style="stroke:#EEEEEE;stroke-width:1;" width="893.728" x="0" y="280.8242"/><line style="stroke:#000000;stroke-width:1;" x1="0" x2="893.728" y1="280.8242" y2="280.8242"/><line style="stroke:#000000;stroke-width:1;" x1="0" x2="893.728" y1="283.8242" y2="283.8242"/><rect fill="#EEEEEE" height="23.1328" style="stroke:#000000;stroke-width:2;" width="292.9668" x="300.3806" y="270.2578"/><text fill="#000000" font-family="sans-serif" font-size="13" font-weight="bold" lengthAdjust="spacing" textLength="274.4409" x="306.3806" y="286.3247">Search Shipping Agent Organizations</text><g class="message" data-participant-1="Officer" data-participant-2="System"><polygon fill="#181818" points="711.5112,320.5234,721.5112,324.5234,711.5112,328.5234,715.5112,324.5234" style="stroke:#181818;stroke-width:1;"/><line style="stroke:#181818;stroke-width:1;" x1="82.3921" x2="717.5112" y1="324.5234" y2="324.5234"/><text fill="#000000" font-family="sans-serif" font-size="13" lengthAdjust="spacing" textLength="562.3008" x="89.3921" y="319.4575">GET /api/ShippingAgentOrganization/filter?name={name}&amp;description={description}</text></g><g class="message" data-participant-1="System" data-participant-2="Officer"><polygon fill="#181818" points="93.3921,379.9219,83.3921,383.9219,93.3921,387.9219,89.3921,383.9219" style="stroke:#181818;stroke-width:1;"/><line style="stroke:#181818;stroke-width:1;stroke-dasharray:2,2;" x1="87.3921" x2="722.5112" y1="383.9219" y2="383.9219"/><text fill="#000000" font-family="sans-serif" font-size="13" lengthAdjust="spacing" textLength="47.7026" x="99.3921" y="348.5903">200 OK</text><text fill="#000000" font-family="sans-serif" font-size="13" lengthAdjust="spacing" textLength="287.4282" x="99.3921" y="363.7231">Body: List&lt;ShippingAgentOrganizationDto&gt;</text><text fill="#000000" font-family="sans-serif" font-size="13" lengthAdjust="spacing" textLength="115.2798" x="99.3921" y="378.856">OR 404 NotFound</text></g><!--SRC=[ZP91Jy9048Nl-oic78mc4D1m8XQ3eiQeb52FN8RkjDtOxjRTQRGI_hijj8OBrSjcTlVDlFTjrhqhdQF533AZJPXOan6mBKYutnkNe3IVIiSGOUf8iEAK82WTKmO1VHIaGuAvmhXM3-3E4d8bI5IUrrspc3I3RsFKwXjP6Iq4Xcmiz9R6CimAJenLN88VHIeasmDqRIqsfj0IRGczZe7mYXfZokhpsV9fF-0GK0ZF-qSYy3pHEC9Wsi9DOEa7Rp34N0tRvdtlSUjQtnfPJWucbU2aSCxcF3II-f1IZ0lCgWfJRWefBJdN1yOlNMGRiXUYIJ6e0hNP9d0rkcnuPElSvRZd3mXjc7JnkrCFy7Z_5_ymKYcJlT4LXxUjrzsP91TQbTVNtlPeipl5D0B_kSLvKOwlkvYcQ-slO3mQmyBmG_q_VW00]--></g></svg>