<svg xmlns="http://www.w3.org/2000/svg" xmlns:xlink="http://www.w3.org/1999/xlink" contentStyleType="text/css" data-diagram-type="SEQUENCE" height="2270px" preserveAspectRatio="none" style="width:1288px;height:2270px;background:#FFFFFF;" version="1.1" viewBox="0 0 1288 2270" width="1288px" zoomAndPan="magnify"><defs/><g><g><title>Client</title><rect fill="#000000" fill-opacity="0.00000" height="2108.1172" width="8" x="23.7524" y="81.4883"/><line style="stroke:#181818;stroke-width:0.5;stroke-dasharray:5,5;" x1="27" x2="27" y1="81.4883" y2="2189.6055"/></g><g><title>QualificationsController</title><rect fill="#000000" fill-opacity="0.00000" height="2108.1172" width="8" x="285.2437" y="81.4883"/><line style="stroke:#181818;stroke-width:0.5;stroke-dasharray:5,5;" x1="288.5659" x2="288.5659" y1="81.4883" y2="2189.6055"/></g><g><title>QualificationService</title><rect fill="#000000" fill-opacity="0.00000" height="2108.1172" width="8" x="520.5635" y="81.4883"/><line style="stroke:#181818;stroke-width:0.5;stroke-dasharray:5,5;" x1="523.8687" x2="523.8687" y1="81.4883" y2="2189.6055"/></g><g><title>QualificationRepository</title><rect fill="#000000" fill-opacity="0.00000" height="2108.1172" width="8" x="768.2866" y="81.4883"/><line style="stroke:#181818;stroke-width:0.5;stroke-dasharray:5,5;" x1="772.1948" x2="772.1948" y1="81.4883" y2="2189.6055"/></g><g><title>UnitOfWork</title><rect fill="#000000" fill-opacity="0.00000" height="2108.1172" width="8" x="902.4697" y="81.4883"/><line style="stroke:#181818;stroke-width:0.5;stroke-dasharray:5,5;" x1="906.3784" x2="906.3784" y1="81.4883" y2="2189.6055"/></g><g><title>QualificationFactory</title><rect fill="#000000" fill-opacity="0.00000" height="2108.1172" width="8" x="1025.2334" y="81.4883"/><line style="stroke:#181818;stroke-width:0.5;stroke-dasharray:5,5;" x1="1028.561" x2="1028.561" y1="81.4883" y2="2189.6055"/></g><g><title>Qualifications Database</title><rect fill="#000000" fill-opacity="0.00000" height="2108.1172" width="8" x="1189.0503" y="81.4883"/><line style="stroke:#181818;stroke-width:0.5;stroke-dasharray:5,5;" x1="1192.9058" x2="1192.9058" y1="81.4883" y2="2189.6055"/></g><g class="participant participant-head" data-participant="Client"><text fill="#000000" font-family="sans-serif" font-size="14" lengthAdjust="spacing" textLength="39.5049" x="5" y="78.5352">Client</text><ellipse cx="27.7524" cy="13.5" fill="#E2E2F0" rx="8" ry="8" style="stroke:#181818;stroke-width:0.5;"/><path d="M27.7524,21.5 L27.7524,48.5 M14.7524,29.5 L40.7524,29.5 M27.7524,48.5 L14.7524,63.5 M27.7524,48.5 L40.7524,63.5" fill="none" style="stroke:#181818;stroke-width:0.5;"/></g><g class="participant participant-tail" data-participant="Client"><text fill="#000000" font-family="sans-serif" font-size="14" lengthAdjust="spacing" textLength="39.5049" x="5" y="2202.1406">Client</text><ellipse cx="27.7524" cy="2213.5938" fill="#E2E2F0" rx="8" ry="8" style="stroke:#181818;stroke-width:0.5;"/><path d="M27.7524,2221.5938 L27.7524,2248.5938 M14.7524,2229.5938 L40.7524,2229.5938 M27.7524,2248.5938 L14.7524,2263.5938 M27.7524,2248.5938 L40.7524,2263.5938" fill="none" style="stroke:#181818;stroke-width:0.5;"/></g><g class="participant participant-head" data-participant="QualificationsController"><text fill="#000000" font-family="sans-serif" font-size="14" lengthAdjust="spacing" textLength="161.3555" x="205.5659" y="78.5352">QualificationsController</text><path d="M268.7437,37 L268.7437,61 M268.7437,49 L285.7437,49" fill="none" style="stroke:#181818;stroke-width:0.5;"/><ellipse cx="297.7437" cy="49" fill="#E2E2F0" rx="12" ry="12" style="stroke:#181818;stroke-width:0.5;"/></g><g class="participant participant-tail" data-participant="QualificationsController"><text fill="#000000" font-family="sans-serif" font-size="14" lengthAdjust="spacing" textLength="161.3555" x="205.5659" y="2202.1406">QualificationsController</text><path d="M268.7437,2209.0938 L268.7437,2233.0938 M268.7437,2221.0938 L285.7437,2221.0938" fill="none" style="stroke:#181818;stroke-width:0.5;"/><ellipse cx="297.7437" cy="2221.0938" fill="#E2E2F0" rx="12" ry="12" style="stroke:#181818;stroke-width:0.5;"/></g><g class="participant participant-head" data-participant="QualificationService"><text fill="#000000" font-family="sans-serif" font-size="14" lengthAdjust="spacing" textLength="133.3896" x="454.8687" y="78.5352">QualificationService</text><ellipse cx="524.5635" cy="49" fill="#E2E2F0" rx="12" ry="12" style="stroke:#181818;stroke-width:0.5;"/><line style="stroke:#181818;stroke-width:0.5;" x1="512.5635" x2="536.5635" y1="63" y2="63"/></g><g class="participant participant-tail" data-participant="QualificationService"><text fill="#000000" font-family="sans-serif" font-size="14" lengthAdjust="spacing" textLength="133.3896" x="454.8687" y="2202.1406">QualificationService</text><ellipse cx="524.5635" cy="2221.0938" fill="#E2E2F0" rx="12" ry="12" style="stroke:#181818;stroke-width:0.5;"/><line style="stroke:#181818;stroke-width:0.5;" x1="512.5635" x2="536.5635" y1="2235.0938" y2="2235.0938"/></g><g class="participant participant-head" data-participant="QualificationRepository"><text fill="#000000" font-family="sans-serif" font-size="14" lengthAdjust="spacing" textLength="158.1836" x="690.1948" y="78.5352">QualificationRepository</text><ellipse cx="772.2866" cy="49" fill="#E2E2F0" rx="12" ry="12" style="stroke:#181818;stroke-width:0.5;"/><line style="stroke:#181818;stroke-width:0.5;" x1="760.2866" x2="784.2866" y1="63" y2="63"/></g><g class="participant participant-tail" data-participant="QualificationRepository"><text fill="#000000" font-family="sans-serif" font-size="14" lengthAdjust="spacing" textLength="158.1836" x="690.1948" y="2202.1406">QualificationRepository</text><ellipse cx="772.2866" cy="2221.0938" fill="#E2E2F0" rx="12" ry="12" style="stroke:#181818;stroke-width:0.5;"/><line style="stroke:#181818;stroke-width:0.5;" x1="760.2866" x2="784.2866" y1="2235.0938" y2="2235.0938"/></g><g class="participant participant-head" data-participant="UnitOfWork"><text fill="#000000" font-family="sans-serif" font-size="14" lengthAdjust="spacing" textLength="78.1826" x="864.3784" y="78.5352">UnitOfWork</text><ellipse cx="906.4697" cy="49" fill="#E2E2F0" rx="12" ry="12" style="stroke:#181818;stroke-width:0.5;"/><line style="stroke:#181818;stroke-width:0.5;" x1="894.4697" x2="918.4697" y1="63" y2="63"/></g><g class="participant participant-tail" data-participant="UnitOfWork"><text fill="#000000" font-family="sans-serif" font-size="14" lengthAdjust="spacing" textLength="78.1826" x="864.3784" y="2202.1406">UnitOfWork</text><ellipse cx="906.4697" cy="2221.0938" fill="#E2E2F0" rx="12" ry="12" style="stroke:#181818;stroke-width:0.5;"/><line style="stroke:#181818;stroke-width:0.5;" x1="894.4697" x2="918.4697" y1="2235.0938" y2="2235.0938"/></g><g class="participant participant-head" data-participant="QualificationFactory"><text fill="#000000" font-family="sans-serif" font-size="14" lengthAdjust="spacing" textLength="135.3447" x="958.561" y="78.5352">QualificationFactory</text><ellipse cx="1029.2334" cy="49" fill="#E2E2F0" rx="12" ry="12" style="stroke:#181818;stroke-width:0.5;"/><line style="stroke:#181818;stroke-width:0.5;" x1="1017.2334" x2="1041.2334" y1="63" y2="63"/></g><g class="participant participant-tail" data-participant="QualificationFactory"><text fill="#000000" font-family="sans-serif" font-size="14" lengthAdjust="spacing" textLength="135.3447" x="958.561" y="2202.1406">QualificationFactory</text><ellipse cx="1029.2334" cy="2221.0938" fill="#E2E2F0" rx="12" ry="12" style="stroke:#181818;stroke-width:0.5;"/><line style="stroke:#181818;stroke-width:0.5;" x1="1017.2334" x2="1041.2334" y1="2235.0938" y2="2235.0938"/></g><g class="participant participant-head" data-participant="Database"><text fill="#000000" font-family="sans-serif" font-size="14" lengthAdjust="spacing" textLength="160.2891" x="1109.9058" y="78.5352">Qualifications Database</text><path d="M1175.0503,29 C1175.0503,19 1193.0503,19 1193.0503,19 C1193.0503,19 1211.0503,19 1211.0503,29 L1211.0503,55 C1211.0503,65 1193.0503,65 1193.0503,65 C1193.0503,65 1175.0503,65 1175.0503,55 L1175.0503,29" fill="#E2E2F0" style="stroke:#181818;stroke-width:0.5;"/><path d="M1175.0503,29 C1175.0503,39 1193.0503,39 1193.0503,39 C1193.0503,39 1211.0503,39 1211.0503,29" fill="none" style="stroke:#181818;stroke-width:0.5;"/></g><g class="participant participant-tail" data-participant="Database"><text fill="#000000" font-family="sans-serif" font-size="14" lengthAdjust="spacing" textLength="160.2891" x="1109.9058" y="2202.1406">Qualifications Database</text><path d="M1175.0503,2215.0938 C1175.0503,2205.0938 1193.0503,2205.0938 1193.0503,2205.0938 C1193.0503,2205.0938 1211.0503,2205.0938 1211.0503,2215.0938 L1211.0503,2241.0938 C1211.0503,2251.0938 1193.0503,2251.0938 1193.0503,2251.0938 C1193.0503,2251.0938 1175.0503,2251.0938 1175.0503,2241.0938 L1175.0503,2215.0938" fill="#E2E2F0" style="stroke:#181818;stroke-width:0.5;"/><path d="M1175.0503,2215.0938 C1175.0503,2225.0938 1193.0503,2225.0938 1193.0503,2225.0938 C1193.0503,2225.0938 1211.0503,2225.0938 1211.0503,2215.0938" fill="none" style="stroke:#181818;stroke-width:0.5;"/></g><rect fill="#EEEEEE" height="3" style="stroke:#EEEEEE;stroke-width:1;" width="1281.1948" x="0" y="112.1436"/><line style="stroke:#000000;stroke-width:1;" x1="0" x2="1281.1948" y1="112.1436" y2="112.1436"/><line style="stroke:#000000;stroke-width:1;" x1="0" x2="1281.1948" y1="115.1436" y2="115.1436"/><rect fill="#EEEEEE" height="23.3105" style="stroke:#000000;stroke-width:2;" width="160.6689" x="560.2629" y="101.4883"/><text fill="#000000" font-family="sans-serif" font-size="13" font-weight="bold" lengthAdjust="spacing" textLength="142.3843" x="566.2629" y="118.0566">Get All Qualifications</text><g class="message" data-participant-1="Client" data-participant-2="QualificationsController"><polygon fill="#181818" points="277.2437,152.1094,287.2437,156.1094,277.2437,160.1094,281.2437,156.1094" style="stroke:#181818;stroke-width:1;"/><line style="stroke:#181818;stroke-width:1;" x1="27.7524" x2="283.2437" y1="156.1094" y2="156.1094"/><text fill="#000000" font-family="sans-serif" font-size="13" lengthAdjust="spacing" textLength="146.1484" x="34.7524" y="151.3672">GET /api/qualifications</text></g><g class="message" data-participant-1="QualificationsController" data-participant-2="QualificationService"><polygon fill="#181818" points="512.5635,181.4199,522.5635,185.4199,512.5635,189.4199,516.5635,185.4199" style="stroke:#181818;stroke-width:1;"/><line style="stroke:#181818;stroke-width:1;" x1="289.2437" x2="518.5635" y1="185.4199" y2="185.4199"/><text fill="#000000" font-family="sans-serif" font-size="13" lengthAdjust="spacing" textLength="83.5542" x="296.2437" y="180.6777">GetAllAsync()</text></g><g class="message" data-participant-1="QualificationService" data-participant-2="QualificationRepository"><polygon fill="#181818" points="760.2866,210.7305,770.2866,214.7305,760.2866,218.7305,764.2866,214.7305" style="stroke:#181818;stroke-width:1;"/><line style="stroke:#181818;stroke-width:1;" x1="524.5635" x2="766.2866" y1="214.7305" y2="214.7305"/><text fill="#000000" font-family="sans-serif" font-size="13" lengthAdjust="spacing" textLength="83.5542" x="531.5635" y="209.9883">GetAllAsync()</text></g><g class="message" data-participant-1="QualificationRepository" data-participant-2="Database"><polygon fill="#181818" points="1181.0503,240.041,1191.0503,244.041,1181.0503,248.041,1185.0503,244.041" style="stroke:#181818;stroke-width:1;"/><line style="stroke:#181818;stroke-width:1;" x1="772.2866" x2="1187.0503" y1="244.041" y2="244.041"/><text fill="#000000" font-family="sans-serif" font-size="13" lengthAdjust="spacing" textLength="107.7769" x="779.2866" y="239.2988">Query all records</text></g><g class="message" data-participant-1="Database" data-participant-2="QualificationRepository"><polygon fill="#181818" points="783.2866,269.3516,773.2866,273.3516,783.2866,277.3516,779.2866,273.3516" style="stroke:#181818;stroke-width:1;"/><line style="stroke:#181818;stroke-width:1;stroke-dasharray:2,2;" x1="777.2866" x2="1192.0503" y1="273.3516" y2="273.3516"/><text fill="#000000" font-family="sans-serif" font-size="13" lengthAdjust="spacing" textLength="122.7573" x="789.2866" y="268.6094">List&lt;Qualification&gt;</text></g><g class="message" data-participant-1="QualificationRepository" data-participant-2="QualificationService"><polygon fill="#181818" points="535.5635,298.6621,525.5635,302.6621,535.5635,306.6621,531.5635,302.6621" style="stroke:#181818;stroke-width:1;"/><line style="stroke:#181818;stroke-width:1;stroke-dasharray:2,2;" x1="529.5635" x2="771.2866" y1="302.6621" y2="302.6621"/><text fill="#000000" font-family="sans-serif" font-size="13" lengthAdjust="spacing" textLength="122.7573" x="541.5635" y="297.9199">List&lt;Qualification&gt;</text></g><g class="message" data-participant-1="QualificationService" data-participant-2="QualificationFactory"><polygon fill="#181818" points="1017.2334,327.9727,1027.2334,331.9727,1017.2334,335.9727,1021.2334,331.9727" style="stroke:#181818;stroke-width:1;"/><line style="stroke:#181818;stroke-width:1;" x1="524.5635" x2="1023.2334" y1="331.9727" y2="331.9727"/><text fill="#000000" font-family="sans-serif" font-size="13" lengthAdjust="spacing" textLength="173.9702" x="531.5635" y="327.2305">CreateQualificationDtoList()</text></g><g class="message" data-participant-1="QualificationService" data-participant-2="QualificationsController"><polygon fill="#181818" points="300.2437,357.2832,290.2437,361.2832,300.2437,365.2832,296.2437,361.2832" style="stroke:#181818;stroke-width:1;"/><line style="stroke:#181818;stroke-width:1;stroke-dasharray:2,2;" x1="294.2437" x2="523.5635" y1="361.2832" y2="361.2832"/><text fill="#000000" font-family="sans-serif" font-size="13" lengthAdjust="spacing" textLength="145.3423" x="306.2437" y="356.541">List&lt;QualificationDto&gt;</text></g><g class="message" data-participant-1="QualificationsController" data-participant-2="Client"><polygon fill="#181818" points="38.7524,386.5938,28.7524,390.5938,38.7524,394.5938,34.7524,390.5938" style="stroke:#181818;stroke-width:1;"/><line style="stroke:#181818;stroke-width:1;stroke-dasharray:2,2;" x1="32.7524" x2="288.2437" y1="390.5938" y2="390.5938"/><text fill="#000000" font-family="sans-serif" font-size="13" lengthAdjust="spacing" textLength="196.8154" x="44.7524" y="385.8516">200 OK List&lt;QualificationDto&gt;</text></g><rect fill="#EEEEEE" height="3" style="stroke:#EEEEEE;stroke-width:1;" width="1281.1948" x="0" y="419.249"/><line style="stroke:#000000;stroke-width:1;" x1="0" x2="1281.1948" y1="419.249" y2="419.249"/><line style="stroke:#000000;stroke-width:1;" x1="0" x2="1281.1948" y1="422.249" y2="422.249"/><rect fill="#EEEEEE" height="23.3105" style="stroke:#000000;stroke-width:2;" width="169.9619" x="555.6165" y="408.5938"/><text fill="#000000" font-family="sans-serif" font-size="13" font-weight="bold" lengthAdjust="spacing" textLength="151.6772" x="561.6165" y="425.1621">Get Qualification By ID</text><g class="message" data-participant-1="Client" data-participant-2="QualificationsController"><polygon fill="#181818" points="277.2437,459.2148,287.2437,463.2148,277.2437,467.2148,281.2437,463.2148" style="stroke:#181818;stroke-width:1;"/><line style="stroke:#181818;stroke-width:1;" x1="27.7524" x2="283.2437" y1="463.2148" y2="463.2148"/><text fill="#000000" font-family="sans-serif" font-size="13" lengthAdjust="spacing" textLength="173.3608" x="34.7524" y="458.4727">GET /api/qualifications/{id}</text></g><g class="message" data-participant-1="QualificationsController" data-participant-2="QualificationService"><polygon fill="#181818" points="512.5635,488.5254,522.5635,492.5254,512.5635,496.5254,516.5635,492.5254" style="stroke:#181818;stroke-width:1;"/><line style="stroke:#181818;stroke-width:1;" x1="289.2437" x2="518.5635" y1="492.5254" y2="492.5254"/><text fill="#000000" font-family="sans-serif" font-size="13" lengthAdjust="spacing" textLength="185.104" x="296.2437" y="487.7832">GetByIdAsync(QualificationId)</text></g><g class="message" data-participant-1="QualificationService" data-participant-2="QualificationRepository"><polygon fill="#181818" points="760.2866,517.8359,770.2866,521.8359,760.2866,525.8359,764.2866,521.8359" style="stroke:#181818;stroke-width:1;"/><line style="stroke:#181818;stroke-width:1;" x1="524.5635" x2="766.2866" y1="521.8359" y2="521.8359"/><text fill="#000000" font-family="sans-serif" font-size="13" lengthAdjust="spacing" textLength="105.2061" x="531.5635" y="517.0938">GetByIdAsync(id)</text></g><g class="message" data-participant-1="QualificationRepository" data-participant-2="Database"><polygon fill="#181818" points="1181.0503,547.1465,1191.0503,551.1465,1181.0503,555.1465,1185.0503,551.1465" style="stroke:#181818;stroke-width:1;"/><line style="stroke:#181818;stroke-width:1;" x1="772.2866" x2="1187.0503" y1="551.1465" y2="551.1465"/><text fill="#000000" font-family="sans-serif" font-size="13" lengthAdjust="spacing" textLength="74.2041" x="779.2866" y="546.4043">Query by ID</text></g><g class="message" data-participant-1="Database" data-participant-2="QualificationRepository"><polygon fill="#181818" points="783.2866,576.457,773.2866,580.457,783.2866,584.457,779.2866,580.457" style="stroke:#181818;stroke-width:1;"/><line style="stroke:#181818;stroke-width:1;stroke-dasharray:2,2;" x1="777.2866" x2="1192.0503" y1="580.457" y2="580.457"/><text fill="#000000" font-family="sans-serif" font-size="13" lengthAdjust="spacing" textLength="125.0933" x="789.2866" y="575.7148">Qualification or null</text></g><g class="message" data-participant-1="QualificationRepository" data-participant-2="QualificationService"><polygon fill="#181818" points="535.5635,605.7676,525.5635,609.7676,535.5635,613.7676,531.5635,609.7676" style="stroke:#181818;stroke-width:1;"/><line style="stroke:#181818;stroke-width:1;stroke-dasharray:2,2;" x1="529.5635" x2="771.2866" y1="609.7676" y2="609.7676"/><text fill="#000000" font-family="sans-serif" font-size="13" lengthAdjust="spacing" textLength="125.0933" x="541.5635" y="605.0254">Qualification or null</text></g><g class="message" data-participant-1="QualificationService" data-participant-2="QualificationFactory"><polygon fill="#181818" points="1017.2334,635.0781,1027.2334,639.0781,1017.2334,643.0781,1021.2334,639.0781" style="stroke:#181818;stroke-width:1;"/><line style="stroke:#181818;stroke-width:1;" x1="524.5635" x2="1023.2334" y1="639.0781" y2="639.0781"/><text fill="#000000" font-family="sans-serif" font-size="13" lengthAdjust="spacing" textLength="151.7915" x="531.5635" y="634.3359">CreateQualificationDto()</text></g><g class="message" data-participant-1="QualificationService" data-participant-2="QualificationsController"><polygon fill="#181818" points="300.2437,664.3887,290.2437,668.3887,300.2437,672.3887,296.2437,668.3887" style="stroke:#181818;stroke-width:1;"/><line style="stroke:#181818;stroke-width:1;stroke-dasharray:2,2;" x1="294.2437" x2="523.5635" y1="668.3887" y2="668.3887"/><text fill="#000000" font-family="sans-serif" font-size="13" lengthAdjust="spacing" textLength="148.6875" x="306.2437" y="663.6465">QualificationDto or 404</text></g><g class="message" data-participant-1="QualificationsController" data-participant-2="Client"><polygon fill="#181818" points="38.7524,693.6992,28.7524,697.6992,38.7524,701.6992,34.7524,697.6992" style="stroke:#181818;stroke-width:1;"/><line style="stroke:#181818;stroke-width:1;stroke-dasharray:2,2;" x1="32.7524" x2="288.2437" y1="697.6992" y2="697.6992"/><text fill="#000000" font-family="sans-serif" font-size="13" lengthAdjust="spacing" textLength="93.5518" x="44.7524" y="692.957">200 OK or 404</text></g><rect fill="#EEEEEE" height="3" style="stroke:#EEEEEE;stroke-width:1;" width="1281.1948" x="0" y="726.3545"/><line style="stroke:#000000;stroke-width:1;" x1="0" x2="1281.1948" y1="726.3545" y2="726.3545"/><line style="stroke:#000000;stroke-width:1;" x1="0" x2="1281.1948" y1="729.3545" y2="729.3545"/><rect fill="#EEEEEE" height="23.3105" style="stroke:#000000;stroke-width:2;" width="189.1382" x="546.0283" y="715.6992"/><text fill="#000000" font-family="sans-serif" font-size="13" font-weight="bold" lengthAdjust="spacing" textLength="170.8535" x="552.0283" y="732.2676">Get Qualification By Code</text><g class="message" data-participant-1="Client" data-participant-2="QualificationsController"><polygon fill="#181818" points="277.2437,766.3203,287.2437,770.3203,277.2437,774.3203,281.2437,770.3203" style="stroke:#181818;stroke-width:1;"/><line style="stroke:#181818;stroke-width:1;" x1="27.7524" x2="283.2437" y1="770.3203" y2="770.3203"/><text fill="#000000" font-family="sans-serif" font-size="13" lengthAdjust="spacing" textLength="228.376" x="34.7524" y="765.5781">GET /api/qualifications/code/{code}</text></g><g class="message" data-participant-1="QualificationsController" data-participant-2="QualificationService"><polygon fill="#181818" points="512.5635,795.6309,522.5635,799.6309,512.5635,803.6309,516.5635,799.6309" style="stroke:#181818;stroke-width:1;"/><line style="stroke:#181818;stroke-width:1;" x1="289.2437" x2="518.5635" y1="799.6309" y2="799.6309"/><text fill="#000000" font-family="sans-serif" font-size="13" lengthAdjust="spacing" textLength="143.8125" x="296.2437" y="794.8887">GetByCodeAsync(code)</text></g><g class="message" data-participant-1="QualificationService" data-participant-2="QualificationRepository"><polygon fill="#181818" points="760.2866,824.9414,770.2866,828.9414,760.2866,832.9414,764.2866,828.9414" style="stroke:#181818;stroke-width:1;"/><line style="stroke:#181818;stroke-width:1;" x1="524.5635" x2="766.2866" y1="828.9414" y2="828.9414"/><text fill="#000000" font-family="sans-serif" font-size="13" lengthAdjust="spacing" textLength="223.7231" x="531.5635" y="824.1992">GetQualificationByCodeAsync(code)</text></g><g class="message" data-participant-1="QualificationRepository" data-participant-2="Database"><polygon fill="#181818" points="1181.0503,854.252,1191.0503,858.252,1181.0503,862.252,1185.0503,858.252" style="stroke:#181818;stroke-width:1;"/><line style="stroke:#181818;stroke-width:1;" x1="772.2866" x2="1187.0503" y1="858.252" y2="858.252"/><text fill="#000000" font-family="sans-serif" font-size="13" lengthAdjust="spacing" textLength="93.1265" x="779.2866" y="853.5098">Query by Code</text></g><g class="message" data-participant-1="Database" data-participant-2="QualificationRepository"><polygon fill="#181818" points="783.2866,883.5625,773.2866,887.5625,783.2866,891.5625,779.2866,887.5625" style="stroke:#181818;stroke-width:1;"/><line style="stroke:#181818;stroke-width:1;stroke-dasharray:2,2;" x1="777.2866" x2="1192.0503" y1="887.5625" y2="887.5625"/><text fill="#000000" font-family="sans-serif" font-size="13" lengthAdjust="spacing" textLength="125.0933" x="789.2866" y="882.8203">Qualification or null</text></g><g class="message" data-participant-1="QualificationRepository" data-participant-2="QualificationService"><polygon fill="#181818" points="535.5635,912.873,525.5635,916.873,535.5635,920.873,531.5635,916.873" style="stroke:#181818;stroke-width:1;"/><line style="stroke:#181818;stroke-width:1;stroke-dasharray:2,2;" x1="529.5635" x2="771.2866" y1="916.873" y2="916.873"/><text fill="#000000" font-family="sans-serif" font-size="13" lengthAdjust="spacing" textLength="125.0933" x="541.5635" y="912.1309">Qualification or null</text></g><g class="message" data-participant-1="QualificationService" data-participant-2="QualificationFactory"><polygon fill="#181818" points="1017.2334,942.1836,1027.2334,946.1836,1017.2334,950.1836,1021.2334,946.1836" style="stroke:#181818;stroke-width:1;"/><line style="stroke:#181818;stroke-width:1;" x1="524.5635" x2="1023.2334" y1="946.1836" y2="946.1836"/><text fill="#000000" font-family="sans-serif" font-size="13" lengthAdjust="spacing" textLength="151.7915" x="531.5635" y="941.4414">CreateQualificationDto()</text></g><g class="message" data-participant-1="QualificationService" data-participant-2="QualificationsController"><polygon fill="#181818" points="300.2437,971.4941,290.2437,975.4941,300.2437,979.4941,296.2437,975.4941" style="stroke:#181818;stroke-width:1;"/><line style="stroke:#181818;stroke-width:1;stroke-dasharray:2,2;" x1="294.2437" x2="523.5635" y1="975.4941" y2="975.4941"/><text fill="#000000" font-family="sans-serif" font-size="13" lengthAdjust="spacing" textLength="148.6875" x="306.2437" y="970.752">QualificationDto or 404</text></g><g class="message" data-participant-1="QualificationsController" data-participant-2="Client"><polygon fill="#181818" points="38.7524,1000.8047,28.7524,1004.8047,38.7524,1008.8047,34.7524,1004.8047" style="stroke:#181818;stroke-width:1;"/><line style="stroke:#181818;stroke-width:1;stroke-dasharray:2,2;" x1="32.7524" x2="288.2437" y1="1004.8047" y2="1004.8047"/><text fill="#000000" font-family="sans-serif" font-size="13" lengthAdjust="spacing" textLength="93.5518" x="44.7524" y="1000.0625">200 OK or 404</text></g><rect fill="#EEEEEE" height="3" style="stroke:#EEEEEE;stroke-width:1;" width="1281.1948" x="0" y="1033.46"/><line style="stroke:#000000;stroke-width:1;" x1="0" x2="1281.1948" y1="1033.46" y2="1033.46"/><line style="stroke:#000000;stroke-width:1;" x1="0" x2="1281.1948" y1="1036.46" y2="1036.46"/><rect fill="#EEEEEE" height="23.3105" style="stroke:#000000;stroke-width:2;" width="193.2007" x="543.9971" y="1022.8047"/><text fill="#000000" font-family="sans-serif" font-size="13" font-weight="bold" lengthAdjust="spacing" textLength="174.916" x="549.9971" y="1039.373">Get Qualification By Name</text><g class="message" data-participant-1="Client" data-participant-2="QualificationsController"><polygon fill="#181818" points="277.2437,1073.4258,287.2437,1077.4258,277.2437,1081.4258,281.2437,1077.4258" style="stroke:#181818;stroke-width:1;"/><line style="stroke:#181818;stroke-width:1;" x1="27.7524" x2="283.2437" y1="1077.4258" y2="1077.4258"/><text fill="#000000" font-family="sans-serif" font-size="13" lengthAdjust="spacing" textLength="237.4912" x="34.7524" y="1072.6836">GET /api/qualifications/name/{name}</text></g><g class="message" data-participant-1="QualificationsController" data-participant-2="QualificationService"><polygon fill="#181818" points="512.5635,1102.7363,522.5635,1106.7363,512.5635,1110.7363,516.5635,1106.7363" style="stroke:#181818;stroke-width:1;"/><line style="stroke:#181818;stroke-width:1;" x1="289.2437" x2="518.5635" y1="1106.7363" y2="1106.7363"/><text fill="#000000" font-family="sans-serif" font-size="13" lengthAdjust="spacing" textLength="152.1279" x="296.2437" y="1101.9941">GetByNameAsync(name)</text></g><g class="message" data-participant-1="QualificationService" data-participant-2="QualificationRepository"><polygon fill="#181818" points="760.2866,1132.0469,770.2866,1136.0469,760.2866,1140.0469,764.2866,1136.0469" style="stroke:#181818;stroke-width:1;"/><line style="stroke:#181818;stroke-width:1;" x1="524.5635" x2="766.2866" y1="1136.0469" y2="1136.0469"/><text fill="#000000" font-family="sans-serif" font-size="13" lengthAdjust="spacing" textLength="194.9238" x="531.5635" y="1131.3047">GetQualificationByName(name)</text></g><g class="message" data-participant-1="QualificationRepository" data-participant-2="Database"><polygon fill="#181818" points="1181.0503,1161.3574,1191.0503,1165.3574,1181.0503,1169.3574,1185.0503,1165.3574" style="stroke:#181818;stroke-width:1;"/><line style="stroke:#181818;stroke-width:1;" x1="772.2866" x2="1187.0503" y1="1165.3574" y2="1165.3574"/><text fill="#000000" font-family="sans-serif" font-size="13" lengthAdjust="spacing" textLength="96.8843" x="779.2866" y="1160.6152">Query by Name</text></g><g class="message" data-participant-1="Database" data-participant-2="QualificationRepository"><polygon fill="#181818" points="783.2866,1190.668,773.2866,1194.668,783.2866,1198.668,779.2866,1194.668" style="stroke:#181818;stroke-width:1;"/><line style="stroke:#181818;stroke-width:1;stroke-dasharray:2,2;" x1="777.2866" x2="1192.0503" y1="1194.668" y2="1194.668"/><text fill="#000000" font-family="sans-serif" font-size="13" lengthAdjust="spacing" textLength="125.0933" x="789.2866" y="1189.9258">Qualification or null</text></g><g class="message" data-participant-1="QualificationRepository" data-participant-2="QualificationService"><polygon fill="#181818" points="535.5635,1219.9785,525.5635,1223.9785,535.5635,1227.9785,531.5635,1223.9785" style="stroke:#181818;stroke-width:1;"/><line style="stroke:#181818;stroke-width:1;stroke-dasharray:2,2;" x1="529.5635" x2="771.2866" y1="1223.9785" y2="1223.9785"/><text fill="#000000" font-family="sans-serif" font-size="13" lengthAdjust="spacing" textLength="125.0933" x="541.5635" y="1219.2363">Qualification or null</text></g><g class="message" data-participant-1="QualificationService" data-participant-2="QualificationFactory"><polygon fill="#181818" points="1017.2334,1249.2891,1027.2334,1253.2891,1017.2334,1257.2891,1021.2334,1253.2891" style="stroke:#181818;stroke-width:1;"/><line style="stroke:#181818;stroke-width:1;" x1="524.5635" x2="1023.2334" y1="1253.2891" y2="1253.2891"/><text fill="#000000" font-family="sans-serif" font-size="13" lengthAdjust="spacing" textLength="151.7915" x="531.5635" y="1248.5469">CreateQualificationDto()</text></g><g class="message" data-participant-1="QualificationService" data-participant-2="QualificationsController"><polygon fill="#181818" points="300.2437,1278.5996,290.2437,1282.5996,300.2437,1286.5996,296.2437,1282.5996" style="stroke:#181818;stroke-width:1;"/><line style="stroke:#181818;stroke-width:1;stroke-dasharray:2,2;" x1="294.2437" x2="523.5635" y1="1282.5996" y2="1282.5996"/><text fill="#000000" font-family="sans-serif" font-size="13" lengthAdjust="spacing" textLength="148.6875" x="306.2437" y="1277.8574">QualificationDto or 404</text></g><g class="message" data-participant-1="QualificationsController" data-participant-2="Client"><polygon fill="#181818" points="38.7524,1307.9102,28.7524,1311.9102,38.7524,1315.9102,34.7524,1311.9102" style="stroke:#181818;stroke-width:1;"/><line style="stroke:#181818;stroke-width:1;stroke-dasharray:2,2;" x1="32.7524" x2="288.2437" y1="1311.9102" y2="1311.9102"/><text fill="#000000" font-family="sans-serif" font-size="13" lengthAdjust="spacing" textLength="93.5518" x="44.7524" y="1307.168">200 OK or 404</text></g><rect fill="#EEEEEE" height="3" style="stroke:#EEEEEE;stroke-width:1;" width="1281.1948" x="0" y="1340.5654"/><line style="stroke:#000000;stroke-width:1;" x1="0" x2="1281.1948" y1="1340.5654" y2="1340.5654"/><line style="stroke:#000000;stroke-width:1;" x1="0" x2="1281.1948" y1="1343.5654" y2="1343.5654"/><rect fill="#EEEEEE" height="23.3105" style="stroke:#000000;stroke-width:2;" width="151.7441" x="564.7253" y="1329.9102"/><text fill="#000000" font-family="sans-serif" font-size="13" font-weight="bold" lengthAdjust="spacing" textLength="133.4595" x="570.7253" y="1346.4785">Create Qualification</text><g class="message" data-participant-1="Client" data-participant-2="QualificationsController"><polygon fill="#181818" points="277.2437,1395.8418,287.2437,1399.8418,277.2437,1403.8418,281.2437,1399.8418" style="stroke:#181818;stroke-width:1;"/><line style="stroke:#181818;stroke-width:1;" x1="27.7524" x2="283.2437" y1="1399.8418" y2="1399.8418"/><text fill="#000000" font-family="sans-serif" font-size="13" lengthAdjust="spacing" textLength="153.9941" x="34.7524" y="1379.7891">POST /api/qualifications</text><text fill="#000000" font-family="sans-serif" font-size="13" lengthAdjust="spacing" textLength="194.689" x="34.7524" y="1395.0996">Body: CreatingQualificationDto</text></g><g class="message" data-participant-1="QualificationsController" data-participant-2="QualificationService"><polygon fill="#181818" points="512.5635,1425.1523,522.5635,1429.1523,512.5635,1433.1523,516.5635,1429.1523" style="stroke:#181818;stroke-width:1;"/><line style="stroke:#181818;stroke-width:1;" x1="289.2437" x2="518.5635" y1="1429.1523" y2="1429.1523"/><text fill="#000000" font-family="sans-serif" font-size="13" lengthAdjust="spacing" textLength="91.9331" x="296.2437" y="1424.4102">AddAsync(dto)</text></g><g class="message" data-participant-1="QualificationService" data-participant-2="QualificationService"><line style="stroke:#181818;stroke-width:1;" x1="524.5635" x2="566.5635" y1="1458.4629" y2="1458.4629"/><line style="stroke:#181818;stroke-width:1;" x1="566.5635" x2="566.5635" y1="1458.4629" y2="1471.4629"/><line style="stroke:#181818;stroke-width:1;" x1="525.5635" x2="566.5635" y1="1471.4629" y2="1471.4629"/><polygon fill="#181818" points="535.5635,1467.4629,525.5635,1471.4629,535.5635,1475.4629,531.5635,1471.4629" style="stroke:#181818;stroke-width:1;"/><text fill="#000000" font-family="sans-serif" font-size="13" lengthAdjust="spacing" textLength="189.7759" x="531.5635" y="1453.7207">EnsureNotRepeatedAsync(dto)</text></g><g class="message" data-participant-1="QualificationService" data-participant-2="QualificationService"><line style="stroke:#181818;stroke-width:1;" x1="524.5635" x2="566.5635" y1="1500.7734" y2="1500.7734"/><line style="stroke:#181818;stroke-width:1;" x1="566.5635" x2="566.5635" y1="1500.7734" y2="1513.7734"/><line style="stroke:#181818;stroke-width:1;" x1="525.5635" x2="566.5635" y1="1513.7734" y2="1513.7734"/><polygon fill="#181818" points="535.5635,1509.7734,525.5635,1513.7734,535.5635,1517.7734,531.5635,1513.7734" style="stroke:#181818;stroke-width:1;"/><text fill="#000000" font-family="sans-serif" font-size="13" lengthAdjust="spacing" textLength="120.5039" x="531.5635" y="1496.0313">GetCodeAsync(dto)</text></g><g class="message" data-participant-1="QualificationService" data-participant-2="QualificationRepository"><polygon fill="#181818" points="760.2866,1539.084,770.2866,1543.084,760.2866,1547.084,764.2866,1543.084" style="stroke:#181818;stroke-width:1;"/><line style="stroke:#181818;stroke-width:1;" x1="524.5635" x2="766.2866" y1="1543.084" y2="1543.084"/><text fill="#000000" font-family="sans-serif" font-size="13" lengthAdjust="spacing" textLength="150.814" x="531.5635" y="1538.3418">AddAsync(Qualification)</text></g><g class="message" data-participant-1="QualificationRepository" data-participant-2="Database"><polygon fill="#181818" points="1181.0503,1568.3945,1191.0503,1572.3945,1181.0503,1576.3945,1185.0503,1572.3945" style="stroke:#181818;stroke-width:1;"/><line style="stroke:#181818;stroke-width:1;" x1="772.2866" x2="1187.0503" y1="1572.3945" y2="1572.3945"/><text fill="#000000" font-family="sans-serif" font-size="13" lengthAdjust="spacing" textLength="83.5859" x="779.2866" y="1567.6523">Insert Record</text></g><g class="message" data-participant-1="Database" data-participant-2="QualificationRepository"><polygon fill="#181818" points="783.2866,1597.7051,773.2866,1601.7051,783.2866,1605.7051,779.2866,1601.7051" style="stroke:#181818;stroke-width:1;"/><line style="stroke:#181818;stroke-width:1;stroke-dasharray:2,2;" x1="777.2866" x2="1192.0503" y1="1601.7051" y2="1601.7051"/><text fill="#000000" font-family="sans-serif" font-size="13" lengthAdjust="spacing" textLength="48.8833" x="789.2866" y="1596.9629">Success</text></g><g class="message" data-participant-1="QualificationService" data-participant-2="UnitOfWork"><polygon fill="#181818" points="894.4697,1627.0156,904.4697,1631.0156,894.4697,1635.0156,898.4697,1631.0156" style="stroke:#181818;stroke-width:1;"/><line style="stroke:#181818;stroke-width:1;" x1="524.5635" x2="900.4697" y1="1631.0156" y2="1631.0156"/><text fill="#000000" font-family="sans-serif" font-size="13" lengthAdjust="spacing" textLength="95.4434" x="531.5635" y="1626.2734">CommitAsync()</text></g><g class="message" data-participant-1="UnitOfWork" data-participant-2="QualificationService"><polygon fill="#181818" points="535.5635,1656.3262,525.5635,1660.3262,535.5635,1664.3262,531.5635,1660.3262" style="stroke:#181818;stroke-width:1;"/><line style="stroke:#181818;stroke-width:1;stroke-dasharray:2,2;" x1="529.5635" x2="905.4697" y1="1660.3262" y2="1660.3262"/><text fill="#000000" font-family="sans-serif" font-size="13" lengthAdjust="spacing" textLength="48.8833" x="541.5635" y="1655.584">Success</text></g><g class="message" data-participant-1="QualificationService" data-participant-2="QualificationFactory"><polygon fill="#181818" points="1017.2334,1685.6367,1027.2334,1689.6367,1017.2334,1693.6367,1021.2334,1689.6367" style="stroke:#181818;stroke-width:1;"/><line style="stroke:#181818;stroke-width:1;" x1="524.5635" x2="1023.2334" y1="1689.6367" y2="1689.6367"/><text fill="#000000" font-family="sans-serif" font-size="13" lengthAdjust="spacing" textLength="151.7915" x="531.5635" y="1684.8945">CreateQualificationDto()</text></g><g class="message" data-participant-1="QualificationService" data-participant-2="QualificationsController"><polygon fill="#181818" points="300.2437,1714.9473,290.2437,1718.9473,300.2437,1722.9473,296.2437,1718.9473" style="stroke:#181818;stroke-width:1;"/><line style="stroke:#181818;stroke-width:1;stroke-dasharray:2,2;" x1="294.2437" x2="523.5635" y1="1718.9473" y2="1718.9473"/><text fill="#000000" font-family="sans-serif" font-size="13" lengthAdjust="spacing" textLength="102.4956" x="306.2437" y="1714.2051">QualificationDto</text></g><g class="message" data-participant-1="QualificationsController" data-participant-2="Client"><polygon fill="#181818" points="38.7524,1744.2578,28.7524,1748.2578,38.7524,1752.2578,34.7524,1748.2578" style="stroke:#181818;stroke-width:1;"/><line style="stroke:#181818;stroke-width:1;stroke-dasharray:2,2;" x1="32.7524" x2="288.2437" y1="1748.2578" y2="1748.2578"/><text fill="#000000" font-family="sans-serif" font-size="13" lengthAdjust="spacing" textLength="77.7969" x="44.7524" y="1743.5156">201 Created</text></g><rect fill="#EEEEEE" height="3" style="stroke:#EEEEEE;stroke-width:1;" width="1281.1948" x="0" y="1776.9131"/><line style="stroke:#000000;stroke-width:1;" x1="0" x2="1281.1948" y1="1776.9131" y2="1776.9131"/><line style="stroke:#000000;stroke-width:1;" x1="0" x2="1281.1948" y1="1779.9131" y2="1779.9131"/><rect fill="#EEEEEE" height="23.3105" style="stroke:#000000;stroke-width:2;" width="155.7559" x="562.7195" y="1766.2578"/><text fill="#000000" font-family="sans-serif" font-size="13" font-weight="bold" lengthAdjust="spacing" textLength="137.4712" x="568.7195" y="1782.8262">Update Qualification</text><g class="message" data-participant-1="Client" data-participant-2="QualificationsController"><polygon fill="#181818" points="277.2437,1832.1895,287.2437,1836.1895,277.2437,1840.1895,281.2437,1836.1895" style="stroke:#181818;stroke-width:1;"/><line style="stroke:#181818;stroke-width:1;" x1="27.7524" x2="283.2437" y1="1836.1895" y2="1836.1895"/><text fill="#000000" font-family="sans-serif" font-size="13" lengthAdjust="spacing" textLength="191.623" x="34.7524" y="1816.1367">PATCH /api/qualifications/{id}</text><text fill="#000000" font-family="sans-serif" font-size="13" lengthAdjust="spacing" textLength="194.689" x="34.7524" y="1831.4473">Body: CreatingQualificationDto</text></g><g class="message" data-participant-1="QualificationsController" data-participant-2="QualificationService"><polygon fill="#181818" points="512.5635,1861.5,522.5635,1865.5,512.5635,1869.5,516.5635,1865.5" style="stroke:#181818;stroke-width:1;"/><line style="stroke:#181818;stroke-width:1;" x1="289.2437" x2="518.5635" y1="1865.5" y2="1865.5"/><text fill="#000000" font-family="sans-serif" font-size="13" lengthAdjust="spacing" textLength="211.3198" x="296.2437" y="1860.7578">UpdateAsync(QualificationId, dto)</text></g><g class="message" data-participant-1="QualificationService" data-participant-2="QualificationRepository"><polygon fill="#181818" points="760.2866,1890.8105,770.2866,1894.8105,760.2866,1898.8105,764.2866,1894.8105" style="stroke:#181818;stroke-width:1;"/><line style="stroke:#181818;stroke-width:1;" x1="524.5635" x2="766.2866" y1="1894.8105" y2="1894.8105"/><text fill="#000000" font-family="sans-serif" font-size="13" lengthAdjust="spacing" textLength="105.2061" x="531.5635" y="1890.0684">GetByIdAsync(id)</text></g><g class="message" data-participant-1="QualificationRepository" data-participant-2="Database"><polygon fill="#181818" points="1181.0503,1920.1211,1191.0503,1924.1211,1181.0503,1928.1211,1185.0503,1924.1211" style="stroke:#181818;stroke-width:1;"/><line style="stroke:#181818;stroke-width:1;" x1="772.2866" x2="1187.0503" y1="1924.1211" y2="1924.1211"/><text fill="#000000" font-family="sans-serif" font-size="13" lengthAdjust="spacing" textLength="74.2041" x="779.2866" y="1919.3789">Query by ID</text></g><g class="message" data-participant-1="Database" data-participant-2="QualificationRepository"><polygon fill="#181818" points="783.2866,1949.4316,773.2866,1953.4316,783.2866,1957.4316,779.2866,1953.4316" style="stroke:#181818;stroke-width:1;"/><line style="stroke:#181818;stroke-width:1;stroke-dasharray:2,2;" x1="777.2866" x2="1192.0503" y1="1953.4316" y2="1953.4316"/><text fill="#000000" font-family="sans-serif" font-size="13" lengthAdjust="spacing" textLength="125.0933" x="789.2866" y="1948.6895">Qualification or null</text></g><g class="message" data-participant-1="QualificationRepository" data-participant-2="QualificationService"><polygon fill="#181818" points="535.5635,1978.7422,525.5635,1982.7422,535.5635,1986.7422,531.5635,1982.7422" style="stroke:#181818;stroke-width:1;"/><line style="stroke:#181818;stroke-width:1;stroke-dasharray:2,2;" x1="529.5635" x2="771.2866" y1="1982.7422" y2="1982.7422"/><text fill="#000000" font-family="sans-serif" font-size="13" lengthAdjust="spacing" textLength="125.0933" x="541.5635" y="1978">Qualification or null</text></g><g class="message" data-participant-1="QualificationService" data-participant-2="QualificationService"><line style="stroke:#181818;stroke-width:1;" x1="524.5635" x2="566.5635" y1="2012.0527" y2="2012.0527"/><line style="stroke:#181818;stroke-width:1;" x1="566.5635" x2="566.5635" y1="2012.0527" y2="2025.0527"/><line style="stroke:#181818;stroke-width:1;" x1="525.5635" x2="566.5635" y1="2025.0527" y2="2025.0527"/><polygon fill="#181818" points="535.5635,2021.0527,525.5635,2025.0527,535.5635,2029.0527,531.5635,2025.0527" style="stroke:#181818;stroke-width:1;"/><text fill="#000000" font-family="sans-serif" font-size="13" lengthAdjust="spacing" textLength="209.6567" x="531.5635" y="2007.3105">UpdateName and/or UpdateCode</text></g><g class="message" data-participant-1="QualificationService" data-participant-2="UnitOfWork"><polygon fill="#181818" points="894.4697,2050.3633,904.4697,2054.3633,894.4697,2058.3633,898.4697,2054.3633" style="stroke:#181818;stroke-width:1;"/><line style="stroke:#181818;stroke-width:1;" x1="524.5635" x2="900.4697" y1="2054.3633" y2="2054.3633"/><text fill="#000000" font-family="sans-serif" font-size="13" lengthAdjust="spacing" textLength="95.4434" x="531.5635" y="2049.6211">CommitAsync()</text></g><g class="message" data-participant-1="UnitOfWork" data-participant-2="QualificationService"><polygon fill="#181818" points="535.5635,2079.6738,525.5635,2083.6738,535.5635,2087.6738,531.5635,2083.6738" style="stroke:#181818;stroke-width:1;"/><line style="stroke:#181818;stroke-width:1;stroke-dasharray:2,2;" x1="529.5635" x2="905.4697" y1="2083.6738" y2="2083.6738"/><text fill="#000000" font-family="sans-serif" font-size="13" lengthAdjust="spacing" textLength="48.8833" x="541.5635" y="2078.9316">Success</text></g><g class="message" data-participant-1="QualificationService" data-participant-2="QualificationFactory"><polygon fill="#181818" points="1017.2334,2108.9844,1027.2334,2112.9844,1017.2334,2116.9844,1021.2334,2112.9844" style="stroke:#181818;stroke-width:1;"/><line style="stroke:#181818;stroke-width:1;" x1="524.5635" x2="1023.2334" y1="2112.9844" y2="2112.9844"/><text fill="#000000" font-family="sans-serif" font-size="13" lengthAdjust="spacing" textLength="151.7915" x="531.5635" y="2108.2422">CreateQualificationDto()</text></g><g class="message" data-participant-1="QualificationService" data-participant-2="QualificationsController"><polygon fill="#181818" points="300.2437,2138.2949,290.2437,2142.2949,300.2437,2146.2949,296.2437,2142.2949" style="stroke:#181818;stroke-width:1;"/><line style="stroke:#181818;stroke-width:1;stroke-dasharray:2,2;" x1="294.2437" x2="523.5635" y1="2142.2949" y2="2142.2949"/><text fill="#000000" font-family="sans-serif" font-size="13" lengthAdjust="spacing" textLength="148.6875" x="306.2437" y="2137.5527">QualificationDto or 404</text></g><g class="message" data-participant-1="QualificationsController" data-participant-2="Client"><polygon fill="#181818" points="38.7524,2167.6055,28.7524,2171.6055,38.7524,2175.6055,34.7524,2171.6055" style="stroke:#181818;stroke-width:1;"/><line style="stroke:#181818;stroke-width:1;stroke-dasharray:2,2;" x1="32.7524" x2="288.2437" y1="2171.6055" y2="2171.6055"/><text fill="#000000" font-family="sans-serif" font-size="13" lengthAdjust="spacing" textLength="93.5518" x="44.7524" y="2166.8633">200 OK or 404</text></g><!--SRC=[xPVFJzim5CVl-IkUE35fA0LnYjPARSfOjObk5BGB5pSsaqLgTxOpAQhsly_E3xAaSH9Su0ANICrxxvllipylSL6ak80mfeGfRyqJXf58uKU2OdfF8wGePpBaJ0aUnqHuEekgHdn5n1yQaTRODTboIVKZqZ9yowXQtl_aug6ru3EAicoC55eZIU2exWNcHU08KFN3yyPZk2GAfd7SC0_ZiPUt1oSJQsC1N5xSW8-srFzTI_5i5NjgnJ84neUsCPKfYuu_U6qvUxNLCdMMLsb6eMm-q5f4tqAwTq4YBh3qoXYST3tg6vNgKoqwiJ_Gsc-lYgthOgy320L1YjHYSyMDhdK1E_Totv6MctHifLRB6GdWR3I2vLURHCbPBGAp51Rp0q7pTnJ_TQDjbYvmpaijPO7TwAlaA7uIW6kp30FHgo-WVWMn98uTu1kWuuYV6tfD5MFfV7J-9FQA4Yjh8SVaKDeYhU7lpDKPEcCZvyJ8kB5MY_L8zi9dgj_nUt7yhj3cOFoOrl1tvkgCdx6His9adWK_8zccrakUANmdxpd9owqrkXm8tVVbgfMwEpRZk6oRibzDomuaJd7ngSIA3qJmiVQ2oKIGAwxqVfjctPKqoTMRStZz_rW-DbBB63W72oQ9K72T7Ju7pi4gYI8YfTLfzJz1RnZVRAWgZyHLf6Cy-kHVVo26Ji9fuG9dSt2xnUvpCBq9lrZFcYym3RdPrgFeHt3ZyWsTHnlBc7rc4SE-5idlPEURDpCl1tn0_W40]--></g></svg>