<svg xmlns="http://www.w3.org/2000/svg" xmlns:xlink="http://www.w3.org/1999/xlink" contentStyleType="text/css" data-diagram-type="CLASS" height="1478px" preserveAspectRatio="none" style="width:2046px;height:1478px;background:#FFFFFF;" version="1.1" viewBox="0 0 2046 1478" width="2046px" zoomAndPan="magnify"><title>US2.2.2 - Class Diagram (Vessel Management)</title><defs/><g><g class="title" data-source-line="11"><text fill="#000000" font-family="sans-serif" font-size="14" font-weight="bold" lengthAdjust="spacing" textLength="334.2227" x="848.8887" y="23.5352">US2.2.2 - Class Diagram (Vessel Management)</text></g><!--cluster Domain--><g class="cluster" data-entity="Domain" data-source-line="16" data-uid="ent0002" id="cluster_Domain"><path d="M8.5,1110.5983 L65.0967,1110.5983 A3.75,3.75 0 0 1 67.5967,1113.0983 L74.5967,1133.0866 L507.5,1133.0866 A2.5,2.5 0 0 1 510,1135.5866 L510,1469.4683 A2.5,2.5 0 0 1 507.5,1471.9683 L8.5,1471.9683 A2.5,2.5 0 0 1 6,1469.4683 L6,1113.0983 A2.5,2.5 0 0 1 8.5,1110.5983" fill="none" style="stroke:#000000;stroke-width:1.5;"/><line style="stroke:#000000;stroke-width:1.5;" x1="6" x2="74.5967" y1="1133.0866" y2="1133.0866"/><text fill="#000000" font-family="sans-serif" font-size="14" font-weight="bold" lengthAdjust="spacing" textLength="55.5967" x="10" y="1126.1334">Domain</text></g><!--cluster DTOs--><g class="cluster" data-entity="DTOs" data-source-line="49" data-uid="ent0008" id="cluster_DTOs"><path d="M166.5,901.6683 L207.7021,901.6683 A3.75,3.75 0 0 1 210.2021,904.1683 L217.2021,924.1566 L699.5,924.1566 A2.5,2.5 0 0 1 702,926.6566 L702,1075.0983 A2.5,2.5 0 0 1 699.5,1077.5983 L166.5,1077.5983 A2.5,2.5 0 0 1 164,1075.0983 L164,904.1683 A2.5,2.5 0 0 1 166.5,901.6683" fill="none" style="stroke:#000000;stroke-width:1.5;"/><line style="stroke:#000000;stroke-width:1.5;" x1="164" x2="217.2021" y1="924.1566" y2="924.1566"/><text fill="#000000" font-family="sans-serif" font-size="14" font-weight="bold" lengthAdjust="spacing" textLength="40.2021" x="168" y="917.2034">DTOs</text></g><!--cluster Application--><g class="cluster" data-entity="Application" data-source-line="74" data-uid="ent0012" id="cluster_Application"><path d="M61.5,301.8783 L144.5107,301.8783 A3.75,3.75 0 0 1 147.0107,304.3783 L154.0107,324.3666 L699.5,324.3666 A2.5,2.5 0 0 1 702,326.8666 L702,826.9483 A2.5,2.5 0 0 1 699.5,829.4483 L61.5,829.4483 A2.5,2.5 0 0 1 59,826.9483 L59,304.3783 A2.5,2.5 0 0 1 61.5,301.8783" fill="none" style="stroke:#000000;stroke-width:1.5;"/><line style="stroke:#000000;stroke-width:1.5;" x1="59" x2="154.0107" y1="324.3666" y2="324.3666"/><text fill="#000000" font-family="sans-serif" font-size="14" font-weight="bold" lengthAdjust="spacing" textLength="82.0107" x="63" y="317.4134">Application</text></g><!--cluster Infrastructure--><g class="cluster" data-entity="Infrastructure" data-source-line="102" data-uid="ent0018" id="cluster_Infrastructure"><path d="M728.5,661.7583 L829.7695,661.7583 A3.75,3.75 0 0 1 832.2695,664.2583 L839.2695,684.2466 L1742.5,684.2466 A2.5,2.5 0 0 1 1745,686.7466 L1745,1033.8783 A2.5,2.5 0 0 1 1742.5,1036.3783 L728.5,1036.3783 A2.5,2.5 0 0 1 726,1033.8783 L726,664.2583 A2.5,2.5 0 0 1 728.5,661.7583" fill="none" style="stroke:#000000;stroke-width:1.5;"/><line style="stroke:#000000;stroke-width:1.5;" x1="726" x2="839.2695" y1="684.2466" y2="684.2466"/><text fill="#000000" font-family="sans-serif" font-size="14" font-weight="bold" lengthAdjust="spacing" textLength="100.2695" x="730" y="677.2934">Infrastructure</text></g><!--cluster Presentation--><g class="cluster" data-entity="Presentation" data-source-line="134" data-uid="ent0028" id="cluster_Presentation"><path d="M1264.5,43.4883 L1356.2334,43.4883 A3.75,3.75 0 0 1 1358.7334,45.9883 L1365.7334,65.9766 L1719.5,65.9766 A2.5,2.5 0 0 1 1722,68.4766 L1722,266.3783 A2.5,2.5 0 0 1 1719.5,268.8783 L1264.5,268.8783 A2.5,2.5 0 0 1 1262,266.3783 L1262,45.9883 A2.5,2.5 0 0 1 1264.5,43.4883" fill="none" style="stroke:#000000;stroke-width:1.5;"/><line style="stroke:#000000;stroke-width:1.5;" x1="1262" x2="1365.7334" y1="65.9766" y2="65.9766"/><text fill="#000000" font-family="sans-serif" font-size="14" font-weight="bold" lengthAdjust="spacing" textLength="90.7334" x="1266" y="59.0234">Presentation</text></g><!--cluster Cross-cutting--><g class="cluster" data-entity="Cross-cutting" data-source-line="150" data-uid="ent0030" id="cluster_Cross-cutting"><path d="M1771.5,694.7383 L1873.5283,694.7383 A3.75,3.75 0 0 1 1876.0283,697.2383 L1883.0283,717.2266 L2036.5,717.2266 A2.5,2.5 0 0 1 2039,719.7266 L2039,835.1883 A2.5,2.5 0 0 1 2036.5,837.6883 L1771.5,837.6883 A2.5,2.5 0 0 1 1769,835.1883 L1769,697.2383 A2.5,2.5 0 0 1 1771.5,694.7383" fill="none" style="stroke:#000000;stroke-width:1.5;"/><line style="stroke:#000000;stroke-width:1.5;" x1="1769" x2="1883.0283" y1="717.2266" y2="717.2266"/><text fill="#000000" font-family="sans-serif" font-size="14" font-weight="bold" lengthAdjust="spacing" textLength="101.0283" x="1773" y="710.2734">Cross-cutting</text></g><!--class Vessel--><g class="entity" data-entity="Vessel" data-source-line="18" data-uid="ent0003" id="entity_Vessel"><rect fill="#F1F1F1" height="157.9063" rx="2.5" ry="2.5" style="stroke:#181818;stroke-width:0.5;" width="207.8223" x="23.09" y="1145.5983"/><text fill="#000000" font-family="sans-serif" font-size="14" lengthAdjust="spacing" textLength="43.0732" x="105.4645" y="1164.1334">Vessel</text><line style="stroke:#181818;stroke-width:0.5;" x1="24.09" x2="229.9123" y1="1172.0866" y2="1172.0866"/><rect fill="none" height="6" style="stroke:#595959;stroke-width:1;" width="6" x="31.09" y="1182.8307"/><text fill="#000000" font-family="sans-serif" font-size="14" lengthAdjust="spacing" textLength="164.7188" x="43.09" y="1189.6217">ImoNumber ImoNumber</text><rect fill="none" height="6" style="stroke:#595959;stroke-width:1;" width="6" x="31.09" y="1199.319"/><text fill="#000000" font-family="sans-serif" font-size="14" lengthAdjust="spacing" textLength="82.9404" x="43.09" y="1206.11">string Name</text><rect fill="none" height="6" style="stroke:#595959;stroke-width:1;" width="6" x="31.09" y="1215.8073"/><text fill="#000000" font-family="sans-serif" font-size="14" lengthAdjust="spacing" textLength="87.876" x="43.09" y="1222.5983">string Owner</text><rect fill="none" height="6" style="stroke:#595959;stroke-width:1;" width="6" x="31.09" y="1232.2955"/><text fill="#000000" font-family="sans-serif" font-size="14" lengthAdjust="spacing" textLength="181.8223" x="43.09" y="1239.0866">VesselTypeId VesselTypeId</text><line style="stroke:#181818;stroke-width:0.5;" x1="24.09" x2="229.9123" y1="1246.0397" y2="1246.0397"/><ellipse cx="34.09" cy="1259.7838" fill="#A6A6A6" rx="3" ry="3" style="stroke:#545454;stroke-width:1;"/><text fill="#000000" font-family="sans-serif" font-size="14" lengthAdjust="spacing" textLength="135.707" x="43.09" y="1263.5748">UpdateName(string)</text><ellipse cx="34.09" cy="1276.2721" fill="#A6A6A6" rx="3" ry="3" style="stroke:#545454;stroke-width:1;"/><text fill="#000000" font-family="sans-serif" font-size="14" lengthAdjust="spacing" textLength="140.6426" x="43.09" y="1280.0631">UpdateOwner(string)</text><ellipse cx="34.09" cy="1292.7604" fill="#A6A6A6" rx="3" ry="3" style="stroke:#545454;stroke-width:1;"/><text fill="#000000" font-family="sans-serif" font-size="14" lengthAdjust="spacing" textLength="119.3828" x="43.09" y="1296.5514">ToString() : string</text></g><!--class VesselId--><g class="entity" data-entity="VesselId" data-source-line="28" data-uid="ent0004" id="entity_VesselId"><rect fill="#F1F1F1" height="75.4648" rx="2.5" ry="2.5" style="stroke:#181818;stroke-width:0.5;" width="128.5186" x="21.74" y="1380.5083"/><text fill="#000000" font-family="sans-serif" font-size="14" lengthAdjust="spacing" textLength="55.918" x="58.0403" y="1399.0434">VesselId</text><line style="stroke:#181818;stroke-width:0.5;" x1="22.74" x2="149.2586" y1="1406.9966" y2="1406.9966"/><rect fill="none" height="6" style="stroke:#595959;stroke-width:1;" width="6" x="29.74" y="1417.7407"/><text fill="#000000" font-family="sans-serif" font-size="14" lengthAdjust="spacing" textLength="73.5137" x="41.74" y="1424.5317">Guid Value</text><line style="stroke:#181818;stroke-width:0.5;" x1="22.74" x2="149.2586" y1="1431.4848" y2="1431.4848"/><ellipse cx="32.74" cy="1445.229" fill="#A6A6A6" rx="3" ry="3" style="stroke:#545454;stroke-width:1;"/><text fill="#000000" font-family="sans-serif" font-size="14" lengthAdjust="spacing" textLength="102.5186" x="41.74" y="1449.02">AsGuid() : Guid</text></g><!--class ImoNumber--><g class="entity" data-entity="ImoNumber" data-source-line="33" data-uid="ent0005" id="entity_ImoNumber"><rect fill="#F1F1F1" height="75.4648" rx="2.5" ry="2.5" style="stroke:#181818;stroke-width:0.5;" width="145.3828" x="185.31" y="1380.5083"/><text fill="#000000" font-family="sans-serif" font-size="14" lengthAdjust="spacing" textLength="80.1445" x="217.9291" y="1399.0434">ImoNumber</text><line style="stroke:#181818;stroke-width:0.5;" x1="186.31" x2="329.6928" y1="1406.9966" y2="1406.9966"/><rect fill="none" height="6" style="stroke:#595959;stroke-width:1;" width="6" x="193.31" y="1417.7407"/><text fill="#000000" font-family="sans-serif" font-size="14" lengthAdjust="spacing" textLength="81.416" x="205.31" y="1424.5317">string Value</text><line style="stroke:#181818;stroke-width:0.5;" x1="186.31" x2="329.6928" y1="1431.4848" y2="1431.4848"/><ellipse cx="196.31" cy="1445.229" fill="#A6A6A6" rx="3" ry="3" style="stroke:#545454;stroke-width:1;"/><text fill="#000000" font-family="sans-serif" font-size="14" lengthAdjust="spacing" textLength="119.3828" x="205.31" y="1449.02">ToString() : string</text></g><!--class VesselTypeId--><g class="entity" data-entity="VesselTypeId" data-source-line="38" data-uid="ent0006" id="entity_VesselTypeId"><rect fill="#F1F1F1" height="75.4648" rx="2.5" ry="2.5" style="stroke:#181818;stroke-width:0.5;" width="128.5186" x="365.74" y="1380.5083"/><text fill="#000000" font-family="sans-serif" font-size="14" lengthAdjust="spacing" textLength="88.6963" x="385.6511" y="1399.0434">VesselTypeId</text><line style="stroke:#181818;stroke-width:0.5;" x1="366.74" x2="493.2586" y1="1406.9966" y2="1406.9966"/><rect fill="none" height="6" style="stroke:#595959;stroke-width:1;" width="6" x="373.74" y="1417.7407"/><text fill="#000000" font-family="sans-serif" font-size="14" lengthAdjust="spacing" textLength="73.5137" x="385.74" y="1424.5317">Guid Value</text><line style="stroke:#181818;stroke-width:0.5;" x1="366.74" x2="493.2586" y1="1431.4848" y2="1431.4848"/><ellipse cx="376.74" cy="1445.229" fill="#A6A6A6" rx="3" ry="3" style="stroke:#545454;stroke-width:1;"/><text fill="#000000" font-family="sans-serif" font-size="14" lengthAdjust="spacing" textLength="102.5186" x="385.74" y="1449.02">AsGuid() : Guid</text></g><!--class BusinessRuleValidationException--><g class="entity" data-entity="BusinessRuleValidationException" data-source-line="43" data-uid="ent0007" id="entity_BusinessRuleValidationException"><rect fill="#F1F1F1" height="42.4883" rx="2.5" ry="2.5" style="stroke:#181818;stroke-width:0.5;" width="228.6943" x="265.65" y="1203.3083"/><text fill="#000000" font-family="sans-serif" font-size="14" lengthAdjust="spacing" textLength="222.6943" x="268.65" y="1221.8434">BusinessRuleValidationException</text><line style="stroke:#181818;stroke-width:0.5;" x1="266.65" x2="493.3443" y1="1229.7966" y2="1229.7966"/><line style="stroke:#181818;stroke-width:0.5;" x1="266.65" x2="493.3443" y1="1237.7966" y2="1237.7966"/></g><!--class CreatingVesselDto--><g class="entity" data-entity="CreatingVesselDto" data-source-line="50" data-uid="ent0009" id="entity_CreatingVesselDto"><rect fill="#F1F1F1" height="108.4414" rx="2.5" ry="2.5" style="stroke:#181818;stroke-width:0.5;" width="150.79" x="179.6" y="944.9083"/><text fill="#000000" font-family="sans-serif" font-size="14" lengthAdjust="spacing" textLength="125.043" x="192.4735" y="963.4434">CreatingVesselDto</text><line style="stroke:#181818;stroke-width:0.5;" x1="180.6" x2="329.39" y1="971.3966" y2="971.3966"/><ellipse cx="190.6" cy="985.1407" fill="none" rx="3" ry="3" style="stroke:#545454;stroke-width:1;"/><text fill="#000000" font-family="sans-serif" font-size="14" lengthAdjust="spacing" textLength="124.1406" x="199.6" y="988.9317">string ImoNumber</text><ellipse cx="190.6" cy="1001.629" fill="none" rx="3" ry="3" style="stroke:#545454;stroke-width:1;"/><text fill="#000000" font-family="sans-serif" font-size="14" lengthAdjust="spacing" textLength="82.9404" x="199.6" y="1005.42">string Name</text><ellipse cx="190.6" cy="1018.1173" fill="none" rx="3" ry="3" style="stroke:#545454;stroke-width:1;"/><text fill="#000000" font-family="sans-serif" font-size="14" lengthAdjust="spacing" textLength="87.876" x="199.6" y="1021.9083">string Owner</text><ellipse cx="190.6" cy="1034.6055" fill="none" rx="3" ry="3" style="stroke:#545454;stroke-width:1;"/><text fill="#000000" font-family="sans-serif" font-size="14" lengthAdjust="spacing" textLength="124.79" x="199.6" y="1038.3966">Guid VesselTypeId</text><line style="stroke:#181818;stroke-width:0.5;" x1="180.6" x2="329.39" y1="1045.3497" y2="1045.3497"/></g><!--class UpdatingVesselDto--><g class="entity" data-entity="UpdatingVesselDto" data-source-line="57" data-uid="ent0010" id="entity_UpdatingVesselDto"><rect fill="#F1F1F1" height="75.4648" rx="2.5" ry="2.5" style="stroke:#181818;stroke-width:0.5;" width="135.1514" x="365.42" y="961.3983"/><text fill="#000000" font-family="sans-serif" font-size="14" lengthAdjust="spacing" textLength="129.1514" x="368.42" y="979.9334">UpdatingVesselDto</text><line style="stroke:#181818;stroke-width:0.5;" x1="366.42" x2="499.5714" y1="987.8866" y2="987.8866"/><ellipse cx="376.42" cy="1001.6307" fill="none" rx="3" ry="3" style="stroke:#545454;stroke-width:1;"/><text fill="#000000" font-family="sans-serif" font-size="14" lengthAdjust="spacing" textLength="88.8467" x="385.42" y="1005.4217">string? Name</text><ellipse cx="376.42" cy="1018.119" fill="none" rx="3" ry="3" style="stroke:#545454;stroke-width:1;"/><text fill="#000000" font-family="sans-serif" font-size="14" lengthAdjust="spacing" textLength="93.7822" x="385.42" y="1021.91">string? Owner</text><line style="stroke:#181818;stroke-width:0.5;" x1="366.42" x2="499.5714" y1="1028.8631" y2="1028.8631"/></g><!--class VesselDto--><g class="entity" data-entity="VesselDto" data-source-line="62" data-uid="ent0011" id="entity_VesselDto"><rect fill="#F1F1F1" height="124.9297" rx="2.5" ry="2.5" style="stroke:#181818;stroke-width:0.5;" width="150.79" x="535.6" y="936.6683"/><text fill="#000000" font-family="sans-serif" font-size="14" lengthAdjust="spacing" textLength="67.3955" x="577.2973" y="955.2034">VesselDto</text><line style="stroke:#181818;stroke-width:0.5;" x1="536.6" x2="685.39" y1="963.1566" y2="963.1566"/><ellipse cx="546.6" cy="976.9007" fill="none" rx="3" ry="3" style="stroke:#545454;stroke-width:1;"/><text fill="#000000" font-family="sans-serif" font-size="14" lengthAdjust="spacing" textLength="48.9385" x="555.6" y="980.6917">Guid Id</text><ellipse cx="546.6" cy="993.389" fill="none" rx="3" ry="3" style="stroke:#545454;stroke-width:1;"/><text fill="#000000" font-family="sans-serif" font-size="14" lengthAdjust="spacing" textLength="124.1406" x="555.6" y="997.18">string ImoNumber</text><ellipse cx="546.6" cy="1009.8773" fill="none" rx="3" ry="3" style="stroke:#545454;stroke-width:1;"/><text fill="#000000" font-family="sans-serif" font-size="14" lengthAdjust="spacing" textLength="82.9404" x="555.6" y="1013.6683">string Name</text><ellipse cx="546.6" cy="1026.3655" fill="none" rx="3" ry="3" style="stroke:#545454;stroke-width:1;"/><text fill="#000000" font-family="sans-serif" font-size="14" lengthAdjust="spacing" textLength="87.876" x="555.6" y="1030.1566">string Owner</text><ellipse cx="546.6" cy="1042.8538" fill="none" rx="3" ry="3" style="stroke:#545454;stroke-width:1;"/><text fill="#000000" font-family="sans-serif" font-size="14" lengthAdjust="spacing" textLength="124.79" x="555.6" y="1046.6448">Guid VesselTypeId</text><line style="stroke:#181818;stroke-width:0.5;" x1="536.6" x2="685.39" y1="1053.598" y2="1053.598"/></g><!--class IVesselService--><g class="entity" data-entity="IVesselService" data-source-line="75" data-uid="ent0013" id="entity_IVesselService"><rect fill="#F1F1F1" height="174.3945" rx="2.5" ry="2.5" style="stroke:#181818;stroke-width:0.5;" width="467.8887" x="218.06" y="336.8783"/><text fill="#000000" font-family="sans-serif" font-size="14" font-style="italic" lengthAdjust="spacing" textLength="94.4385" x="404.7851" y="355.4134">IVesselService</text><line style="stroke:#181818;stroke-width:0.5;" x1="219.06" x2="684.9487" y1="363.3666" y2="363.3666"/><line style="stroke:#181818;stroke-width:0.5;" x1="219.06" x2="684.9487" y1="371.3666" y2="371.3666"/><ellipse cx="229.06" cy="385.1107" fill="#A6A6A6" rx="3" ry="3" style="stroke:#545454;stroke-width:1;"/><text fill="#000000" font-family="sans-serif" font-size="14" lengthAdjust="spacing" textLength="216.8086" x="238.06" y="388.9017">GetAllAsync() : List&lt;VesselDto&gt;</text><ellipse cx="229.06" cy="401.599" fill="#A6A6A6" rx="3" ry="3" style="stroke:#545454;stroke-width:1;"/><text fill="#000000" font-family="sans-serif" font-size="14" lengthAdjust="spacing" textLength="237.043" x="238.06" y="405.39">GetByIdAsync(VesselId) : VesselDto</text><ellipse cx="229.06" cy="418.0873" fill="#A6A6A6" rx="3" ry="3" style="stroke:#545454;stroke-width:1;"/><text fill="#000000" font-family="sans-serif" font-size="14" lengthAdjust="spacing" textLength="287.9912" x="238.06" y="421.8783">GetByImoNumberAsync(string) : VesselDto</text><ellipse cx="229.06" cy="434.5755" fill="#A6A6A6" rx="3" ry="3" style="stroke:#545454;stroke-width:1;"/><text fill="#000000" font-family="sans-serif" font-size="14" lengthAdjust="spacing" textLength="292.9336" x="238.06" y="438.3666">GetByNameAsync(string) : List&lt;VesselDto&gt;</text><ellipse cx="229.06" cy="451.0638" fill="#A6A6A6" rx="3" ry="3" style="stroke:#545454;stroke-width:1;"/><text fill="#000000" font-family="sans-serif" font-size="14" lengthAdjust="spacing" textLength="297.8691" x="238.06" y="454.8548">GetByOwnerAsync(string) : List&lt;VesselDto&gt;</text><ellipse cx="229.06" cy="467.5521" fill="#A6A6A6" rx="3" ry="3" style="stroke:#545454;stroke-width:1;"/><text fill="#000000" font-family="sans-serif" font-size="14" lengthAdjust="spacing" textLength="441.8887" x="238.06" y="471.3431">GetFilterAsync(string?, string?, string?, string?) : List&lt;VesselDto&gt;</text><ellipse cx="229.06" cy="484.0404" fill="#A6A6A6" rx="3" ry="3" style="stroke:#545454;stroke-width:1;"/><text fill="#000000" font-family="sans-serif" font-size="14" lengthAdjust="spacing" textLength="298.7852" x="238.06" y="487.8314">CreateAsync(CreatingVesselDto) : VesselDto</text><ellipse cx="229.06" cy="500.5287" fill="#A6A6A6" rx="3" ry="3" style="stroke:#545454;stroke-width:1;"/><text fill="#000000" font-family="sans-serif" font-size="14" lengthAdjust="spacing" textLength="384.9727" x="238.06" y="504.3197">PatchByImoAsync(string, UpdatingVesselDto) : VesselDto</text></g><!--class VesselService--><g class="entity" data-entity="VesselService" data-source-line="86" data-uid="ent0014" id="entity_VesselService"><rect fill="#F1F1F1" height="42.4883" rx="2.5" ry="2.5" style="stroke:#181818;stroke-width:0.5;" width="96.4053" x="589.8" y="572.2683"/><text fill="#000000" font-family="sans-serif" font-size="14" lengthAdjust="spacing" textLength="90.4053" x="592.8" y="590.8034">VesselService</text><line style="stroke:#181818;stroke-width:0.5;" x1="590.8" x2="685.2053" y1="598.7566" y2="598.7566"/><line style="stroke:#181818;stroke-width:0.5;" x1="590.8" x2="685.2053" y1="606.7566" y2="606.7566"/></g><!--class VesselFactory--><g class="entity" data-entity="VesselFactory" data-source-line="89" data-uid="ent0016" id="entity_VesselFactory"><rect fill="#F1F1F1" height="58.9766" rx="2.5" ry="2.5" style="stroke:#181818;stroke-width:0.5;" width="303.5664" x="75.22" y="746.2283"/><text fill="#000000" font-family="sans-serif" font-size="14" lengthAdjust="spacing" textLength="92.3604" x="180.823" y="764.7634">VesselFactory</text><line style="stroke:#181818;stroke-width:0.5;" x1="76.22" x2="377.7864" y1="772.7166" y2="772.7166"/><line style="stroke:#181818;stroke-width:0.5;" x1="76.22" x2="377.7864" y1="780.7166" y2="780.7166"/><ellipse cx="86.22" cy="794.4607" fill="#A6A6A6" rx="3" ry="3" style="stroke:#545454;stroke-width:1;"/><text fill="#000000" font-family="sans-serif" font-size="14" lengthAdjust="spacing" textLength="277.5664" x="95.22" y="798.2517">CreateVessel(CreatingVesselDto) : Vessel</text></g><!--class VesselMapper--><g class="entity" data-entity="VesselMapper" data-source-line="93" data-uid="ent0017" id="entity_VesselMapper"><rect fill="#F1F1F1" height="75.4648" rx="2.5" ry="2.5" style="stroke:#181818;stroke-width:0.5;" width="272.0732" x="413.96" y="737.9783"/><text fill="#000000" font-family="sans-serif" font-size="14" lengthAdjust="spacing" textLength="94.0146" x="502.9893" y="756.5134">VesselMapper</text><line style="stroke:#181818;stroke-width:0.5;" x1="414.96" x2="685.0332" y1="764.4666" y2="764.4666"/><line style="stroke:#181818;stroke-width:0.5;" x1="414.96" x2="685.0332" y1="772.4666" y2="772.4666"/><ellipse cx="424.96" cy="786.2107" fill="#A6A6A6" rx="3" ry="3" style="stroke:#545454;stroke-width:1;"/><text fill="#000000" font-family="sans-serif" font-size="14" lengthAdjust="spacing" textLength="174.6377" x="433.96" y="790.0017">ToDto(Vessel) : VesselDto</text><ellipse cx="424.96" cy="802.699" fill="#A6A6A6" rx="3" ry="3" style="stroke:#545454;stroke-width:1;"/><text fill="#000000" font-family="sans-serif" font-size="14" lengthAdjust="spacing" textLength="246.0732" x="433.96" y="806.49">ToEntity(CreatingVesselDto) : Vessel</text></g><!--class IVesselRepository--><g class="entity" data-entity="IVesselRepository" data-source-line="103" data-uid="ent0019" id="entity_IVesselRepository"><rect fill="#F1F1F1" height="157.9063" rx="2.5" ry="2.5" style="stroke:#181818;stroke-width:0.5;" width="484.1445" x="741.93" y="696.7583"/><text fill="#000000" font-family="sans-serif" font-size="14" font-style="italic" lengthAdjust="spacing" textLength="119.2324" x="924.3861" y="715.2934">IVesselRepository</text><line style="stroke:#181818;stroke-width:0.5;" x1="742.93" x2="1225.0745" y1="723.2466" y2="723.2466"/><line style="stroke:#181818;stroke-width:0.5;" x1="742.93" x2="1225.0745" y1="731.2466" y2="731.2466"/><ellipse cx="752.93" cy="744.9907" fill="#A6A6A6" rx="3" ry="3" style="stroke:#545454;stroke-width:1;"/><text fill="#000000" font-family="sans-serif" font-size="14" lengthAdjust="spacing" textLength="192.4863" x="761.93" y="748.7817">GetAllAsync() : List&lt;Vessel&gt;</text><ellipse cx="752.93" cy="761.479" fill="#A6A6A6" rx="3" ry="3" style="stroke:#545454;stroke-width:1;"/><text fill="#000000" font-family="sans-serif" font-size="14" lengthAdjust="spacing" textLength="212.7207" x="761.93" y="765.27">GetByIdAsync(VesselId) : Vessel</text><ellipse cx="752.93" cy="777.9673" fill="#A6A6A6" rx="3" ry="3" style="stroke:#545454;stroke-width:1;"/><text fill="#000000" font-family="sans-serif" font-size="14" lengthAdjust="spacing" textLength="310.1533" x="761.93" y="781.7583">GetByImoNumberAsync(ImoNumber) : Vessel?</text><ellipse cx="752.93" cy="794.4555" fill="#A6A6A6" rx="3" ry="3" style="stroke:#545454;stroke-width:1;"/><text fill="#000000" font-family="sans-serif" font-size="14" lengthAdjust="spacing" textLength="268.6113" x="761.93" y="798.2466">GetByNameAsync(string) : List&lt;Vessel&gt;</text><ellipse cx="752.93" cy="810.9438" fill="#A6A6A6" rx="3" ry="3" style="stroke:#545454;stroke-width:1;"/><text fill="#000000" font-family="sans-serif" font-size="14" lengthAdjust="spacing" textLength="273.5469" x="761.93" y="814.7348">GetByOwnerAsync(string) : List&lt;Vessel&gt;</text><ellipse cx="752.93" cy="827.4321" fill="#A6A6A6" rx="3" ry="3" style="stroke:#545454;stroke-width:1;"/><text fill="#000000" font-family="sans-serif" font-size="14" lengthAdjust="spacing" textLength="458.1445" x="761.93" y="831.2231">GetFilterAsync(string?, ImoNumber?, string?, string?) : List&lt;Vessel&gt;</text><ellipse cx="752.93" cy="843.9204" fill="#A6A6A6" rx="3" ry="3" style="stroke:#545454;stroke-width:1;"/><text fill="#000000" font-family="sans-serif" font-size="14" lengthAdjust="spacing" textLength="119.4307" x="761.93" y="847.7114">AddAsync(Vessel)</text></g><!--class VesselRepository--><g class="entity" data-entity="VesselRepository" data-source-line="113" data-uid="ent0020" id="entity_VesselRepository"><rect fill="#F1F1F1" height="42.4883" rx="2.5" ry="2.5" style="stroke:#181818;stroke-width:0.5;" width="121.1992" x="788.4" y="977.8883"/><text fill="#000000" font-family="sans-serif" font-size="14" lengthAdjust="spacing" textLength="115.1992" x="791.4" y="996.4234">VesselRepository</text><line style="stroke:#181818;stroke-width:0.5;" x1="789.4" x2="908.5992" y1="1004.3766" y2="1004.3766"/><line style="stroke:#181818;stroke-width:0.5;" x1="789.4" x2="908.5992" y1="1012.3766" y2="1012.3766"/></g><!--class IVesselTypeRepository--><g class="entity" data-entity="IVesselTypeRepository" data-source-line="116" data-uid="ent0022" id="entity_IVesselTypeRepository"><rect fill="#F1F1F1" height="58.9766" rx="2.5" ry="2.5" style="stroke:#181818;stroke-width:0.5;" width="304.2773" x="1260.86" y="746.2283"/><text fill="#000000" font-family="sans-serif" font-size="14" font-style="italic" lengthAdjust="spacing" textLength="152.0107" x="1336.9933" y="764.7634">IVesselTypeRepository</text><line style="stroke:#181818;stroke-width:0.5;" x1="1261.86" x2="1564.1373" y1="772.7166" y2="772.7166"/><line style="stroke:#181818;stroke-width:0.5;" x1="1261.86" x2="1564.1373" y1="780.7166" y2="780.7166"/><ellipse cx="1271.86" cy="794.4607" fill="#A6A6A6" rx="3" ry="3" style="stroke:#545454;stroke-width:1;"/><text fill="#000000" font-family="sans-serif" font-size="14" lengthAdjust="spacing" textLength="278.2773" x="1280.86" y="798.2517">GetByIdAsync(VesselTypeId) : VesselType</text></g><!--class VesselTypeRepository--><g class="entity" data-entity="VesselTypeRepository" data-source-line="120" data-uid="ent0023" id="entity_VesselTypeRepository"><rect fill="#F1F1F1" height="42.4883" rx="2.5" ry="2.5" style="stroke:#181818;stroke-width:0.5;" width="153.9775" x="1336.01" y="977.8883"/><text fill="#000000" font-family="sans-serif" font-size="14" lengthAdjust="spacing" textLength="147.9775" x="1339.01" y="996.4234">VesselTypeRepository</text><line style="stroke:#181818;stroke-width:0.5;" x1="1337.01" x2="1488.9875" y1="1004.3766" y2="1004.3766"/><line style="stroke:#181818;stroke-width:0.5;" x1="1337.01" x2="1488.9875" y1="1012.3766" y2="1012.3766"/></g><!--class IUnitOfWork--><g class="entity" data-entity="IUnitOfWork" data-source-line="123" data-uid="ent0025" id="entity_IUnitOfWork"><rect fill="#F1F1F1" height="58.9766" rx="2.5" ry="2.5" style="stroke:#181818;stroke-width:0.5;" width="128.7852" x="1600.61" y="746.2283"/><text fill="#000000" font-family="sans-serif" font-size="14" font-style="italic" lengthAdjust="spacing" textLength="82.2158" x="1623.8947" y="764.7634">IUnitOfWork</text><line style="stroke:#181818;stroke-width:0.5;" x1="1601.61" x2="1728.3952" y1="772.7166" y2="772.7166"/><line style="stroke:#181818;stroke-width:0.5;" x1="1601.61" x2="1728.3952" y1="780.7166" y2="780.7166"/><ellipse cx="1611.61" cy="794.4607" fill="#A6A6A6" rx="3" ry="3" style="stroke:#545454;stroke-width:1;"/><text fill="#000000" font-family="sans-serif" font-size="14" lengthAdjust="spacing" textLength="102.7852" x="1620.61" y="798.2517">CommitAsync()</text></g><!--class UnitOfWork--><g class="entity" data-entity="UnitOfWork" data-source-line="127" data-uid="ent0026" id="entity_UnitOfWork"><rect fill="#F1F1F1" height="42.4883" rx="2.5" ry="2.5" style="stroke:#181818;stroke-width:0.5;" width="84.1826" x="1622.91" y="977.8883"/><text fill="#000000" font-family="sans-serif" font-size="14" lengthAdjust="spacing" textLength="78.1826" x="1625.91" y="996.4234">UnitOfWork</text><line style="stroke:#181818;stroke-width:0.5;" x1="1623.91" x2="1706.0926" y1="1004.3766" y2="1004.3766"/><line style="stroke:#181818;stroke-width:0.5;" x1="1623.91" x2="1706.0926" y1="1012.3766" y2="1012.3766"/></g><!--class VesselController--><g class="entity" data-entity="VesselController" data-source-line="135" data-uid="ent0029" id="entity_VesselController"><rect fill="#F1F1F1" height="174.3945" rx="2.5" ry="2.5" style="stroke:#181818;stroke-width:0.5;" width="427.9189" x="1278.04" y="78.4883"/><text fill="#000000" font-family="sans-serif" font-size="14" lengthAdjust="spacing" textLength="111.2344" x="1436.3823" y="97.0234">VesselController</text><line style="stroke:#181818;stroke-width:0.5;" x1="1279.04" x2="1704.9589" y1="104.9766" y2="104.9766"/><line style="stroke:#181818;stroke-width:0.5;" x1="1279.04" x2="1704.9589" y1="112.9766" y2="112.9766"/><ellipse cx="1289.04" cy="126.7207" fill="#A6A6A6" rx="3" ry="3" style="stroke:#545454;stroke-width:1;"/><text fill="#000000" font-family="sans-serif" font-size="14" lengthAdjust="spacing" textLength="176.8389" x="1298.04" y="130.5117">GetAll() : List&lt;VesselDto&gt;</text><ellipse cx="1289.04" cy="143.209" fill="#A6A6A6" rx="3" ry="3" style="stroke:#545454;stroke-width:1;"/><text fill="#000000" font-family="sans-serif" font-size="14" lengthAdjust="spacing" textLength="172.8193" x="1298.04" y="147">GetById(Guid) : VesselDto</text><ellipse cx="1289.04" cy="159.6973" fill="#A6A6A6" rx="3" ry="3" style="stroke:#545454;stroke-width:1;"/><text fill="#000000" font-family="sans-serif" font-size="14" lengthAdjust="spacing" textLength="193.5801" x="1298.04" y="163.4883">GetByImo(string) : VesselDto</text><ellipse cx="1289.04" cy="176.1855" fill="#A6A6A6" rx="3" ry="3" style="stroke:#545454;stroke-width:1;"/><text fill="#000000" font-family="sans-serif" font-size="14" lengthAdjust="spacing" textLength="252.9639" x="1298.04" y="179.9766">GetByName(string) : List&lt;VesselDto&gt;</text><ellipse cx="1289.04" cy="192.6738" fill="#A6A6A6" rx="3" ry="3" style="stroke:#545454;stroke-width:1;"/><text fill="#000000" font-family="sans-serif" font-size="14" lengthAdjust="spacing" textLength="257.8994" x="1298.04" y="196.4648">GetByOwner(string) : List&lt;VesselDto&gt;</text><ellipse cx="1289.04" cy="209.1621" fill="#A6A6A6" rx="3" ry="3" style="stroke:#545454;stroke-width:1;"/><text fill="#000000" font-family="sans-serif" font-size="14" lengthAdjust="spacing" textLength="401.9189" x="1298.04" y="212.9531">GetFilter(string?, string?, string?, string?) : List&lt;VesselDto&gt;</text><ellipse cx="1289.04" cy="225.6504" fill="#A6A6A6" rx="3" ry="3" style="stroke:#545454;stroke-width:1;"/><text fill="#000000" font-family="sans-serif" font-size="14" lengthAdjust="spacing" textLength="258.8154" x="1298.04" y="229.4414">Create(CreatingVesselDto) : VesselDto</text><ellipse cx="1289.04" cy="242.1387" fill="#A6A6A6" rx="3" ry="3" style="stroke:#545454;stroke-width:1;"/><text fill="#000000" font-family="sans-serif" font-size="14" lengthAdjust="spacing" textLength="345.0029" x="1298.04" y="245.9297">PatchByImo(string, UpdatingVesselDto) : VesselDto</text></g><!--class ILogger--><g class="entity" data-entity="ILogger" data-source-line="151" data-uid="ent0031" id="entity_ILogger"><rect fill="#F1F1F1" height="91.9531" rx="2.5" ry="2.5" style="stroke:#181818;stroke-width:0.5;" width="238.1055" x="1784.95" y="729.7383"/><text fill="#000000" font-family="sans-serif" font-size="14" font-style="italic" lengthAdjust="spacing" textLength="51.085" x="1872.6663" y="748.2734">ILogger</text><rect fill="#FFFFFF" height="16.1328" style="stroke:#181818;stroke-width:1;stroke-dasharray:2,2;" width="9.5879" x="2016.4676" y="726.7383"/><text fill="#000000" font-family="sans-serif" font-size="12" font-style="italic" lengthAdjust="spacing" textLength="7.5879" x="2017.4676" y="739.3398">T</text><line style="stroke:#181818;stroke-width:0.5;" x1="1785.95" x2="2022.0555" y1="756.2266" y2="756.2266"/><line style="stroke:#181818;stroke-width:0.5;" x1="1785.95" x2="2022.0555" y1="764.2266" y2="764.2266"/><ellipse cx="1795.95" cy="777.9707" fill="#A6A6A6" rx="3" ry="3" style="stroke:#545454;stroke-width:1;"/><text fill="#000000" font-family="sans-serif" font-size="14" lengthAdjust="spacing" textLength="212.1055" x="1804.95" y="781.7617">LogInformation(string, params)</text><ellipse cx="1795.95" cy="794.459" fill="#A6A6A6" rx="3" ry="3" style="stroke:#545454;stroke-width:1;"/><text fill="#000000" font-family="sans-serif" font-size="14" lengthAdjust="spacing" textLength="188.125" x="1804.95" y="798.25">LogWarning(string, params)</text><ellipse cx="1795.95" cy="810.9473" fill="#A6A6A6" rx="3" ry="3" style="stroke:#545454;stroke-width:1;"/><text fill="#000000" font-family="sans-serif" font-size="14" lengthAdjust="spacing" textLength="165.9082" x="1804.95" y="814.7383">LogError(string, params)</text></g><!--reverse link IVesselService to VesselService--><g class="link" data-entity-1="IVesselService" data-entity-2="VesselService" data-uid="lnk15" id="link_IVesselService_VesselService"><path d="M561.6493,523.7796 C586.6493,546.2796 597.95,556.4583 615.08,571.8783" fill="none" id="IVesselService-backto-VesselService" style="stroke:#181818;stroke-width:1;stroke-dasharray:7,7;"/><polygon fill="none" points="548.27,511.7383,557.6355,528.2394,565.6631,519.3199,548.27,511.7383" style="stroke:#181818;stroke-width:1;"/></g><!--reverse link IVesselRepository to VesselRepository--><g class="link" data-entity-1="IVesselRepository" data-entity-2="VesselRepository" data-uid="lnk21" id="link_IVesselRepository_VesselRepository"><path d="M926.8394,870.4568 C900.1394,914.2468 878.3,950.0683 861.41,977.7883" fill="none" id="IVesselRepository-backto-VesselRepository" style="stroke:#181818;stroke-width:1;stroke-dasharray:7,7;"/><polygon fill="none" points="936.21,855.0883,921.7165,867.3333,931.9622,873.5803,936.21,855.0883" style="stroke:#181818;stroke-width:1;"/></g><!--reverse link IVesselTypeRepository to VesselTypeRepository--><g class="link" data-entity-1="IVesselTypeRepository" data-entity-2="VesselTypeRepository" data-uid="lnk24" id="link_IVesselTypeRepository_VesselTypeRepository"><path d="M1413,823.6583 C1413,869.0283 1413,937.7783 1413,977.4283" fill="none" id="IVesselTypeRepository-backto-VesselTypeRepository" style="stroke:#181818;stroke-width:1;stroke-dasharray:7,7;"/><polygon fill="none" points="1413,805.6583,1407,823.6583,1419,823.6583,1413,805.6583" style="stroke:#181818;stroke-width:1;"/></g><!--reverse link IUnitOfWork to UnitOfWork--><g class="link" data-entity-1="IUnitOfWork" data-entity-2="UnitOfWork" data-uid="lnk27" id="link_IUnitOfWork_UnitOfWork"><path d="M1665,823.6583 C1665,869.0283 1665,937.7783 1665,977.4283" fill="none" id="IUnitOfWork-backto-UnitOfWork" style="stroke:#181818;stroke-width:1;stroke-dasharray:7,7;"/><polygon fill="none" points="1665,805.6583,1659,823.6583,1671,823.6583,1665,805.6583" style="stroke:#181818;stroke-width:1;"/></g><!--reverse link Vessel to VesselId--><g class="link" data-entity-1="Vessel" data-entity-2="VesselId" data-source-line="161" data-uid="lnk32" id="link_Vessel_VesselId"><path codeLine="161" d="M107.7529,1315.5235 C102.1129,1341.9235 98.58,1358.4383 93.94,1380.1383" fill="none" id="Vessel-backto-VesselId" style="stroke:#181818;stroke-width:1;"/><polygon fill="#181818" points="110.26,1303.7883,105.0947,1308.8202,107.7529,1315.5235,112.9182,1310.4916,110.26,1303.7883" style="stroke:#181818;stroke-width:1;"/><text fill="#000000" font-family="sans-serif" font-size="13" lengthAdjust="spacing" textLength="8.2202" x="100.4225" y="1324.0955">1</text><text fill="#000000" font-family="sans-serif" font-size="13" lengthAdjust="spacing" textLength="8.2202" x="86.6362" y="1369.8954">1</text></g><!--reverse link Vessel to ImoNumber--><g class="link" data-entity-1="Vessel" data-entity-2="ImoNumber" data-source-line="162" data-uid="lnk33" id="link_Vessel_ImoNumber"><path codeLine="162" d="M187.2403,1313.696 C205.2803,1340.096 217.81,1358.4383 232.65,1380.1383" fill="none" id="Vessel-backto-ImoNumber" style="stroke:#181818;stroke-width:1;"/><polygon fill="#181818" points="180.47,1303.7883,180.5526,1310.9989,187.2403,1313.696,187.1577,1306.4854,180.47,1303.7883" style="stroke:#181818;stroke-width:1;"/><text fill="#000000" font-family="sans-serif" font-size="13" lengthAdjust="spacing" textLength="8.2202" x="176.8856" y="1324.0955">1</text><text fill="#000000" font-family="sans-serif" font-size="13" lengthAdjust="spacing" textLength="8.2202" x="219.6242" y="1369.8954">1</text></g><!--link Vessel to VesselTypeId--><g class="link" data-entity-1="Vessel" data-entity-2="VesselTypeId" data-source-line="163" data-uid="lnk34" id="link_Vessel_VesselTypeId"><path codeLine="163" d="M231.22,1292.8283 C236.89,1296.4483 242.51,1300.0183 248,1303.5083 C288.58,1329.2583 329.3857,1354.7585 364.9357,1376.8785" fill="none" id="Vessel-to-VesselTypeId" style="stroke:#181818;stroke-width:1;"/><polygon fill="#181818" points="370.03,1380.0483,364.5017,1371.8973,365.7847,1377.4068,360.2753,1378.6898,370.03,1380.0483" style="stroke:#181818;stroke-width:1;"/><polygon fill="#000000" points="327.1232,1344.8244,321.0293,1337.5227,317.9013,1342.4991,327.1232,1344.8244" style="stroke:#000000;stroke-width:1;"/><text fill="#000000" font-family="sans-serif" font-size="13" lengthAdjust="spacing" textLength="65.7427" x="331.89" y="1347.0766">references</text></g><!--link VesselService to IVesselRepository--><g class="link" data-entity-1="VesselService" data-entity-2="IVesselRepository" data-source-line="165" data-uid="lnk35" id="link_VesselService_IVesselRepository"><path codeLine="165" d="M677.69,615.1883 C716.03,635.1583 771.2183,663.8971 828.3683,693.6571" fill="none" id="VesselService-to-IVesselRepository" style="stroke:#181818;stroke-width:1;"/><polygon fill="#181818" points="833.69,696.4283,827.5549,688.7237,829.2553,694.119,823.86,695.8193,833.69,696.4283" style="stroke:#181818;stroke-width:1;"/></g><!--link VesselService to IVesselTypeRepository--><g class="link" data-entity-1="VesselService" data-entity-2="IVesselTypeRepository" data-source-line="166" data-uid="lnk36" id="link_VesselService_IVesselTypeRepository"><path codeLine="166" d="M686.43,599.5783 C777.41,609.0383 980.11,629.8783 1151,645.7583 C1192.31,649.5983 1205.08,639.3983 1244,653.7583 C1298.84,673.9983 1347.5211,713.0105 1379.1311,741.9005" fill="none" id="VesselService-to-IVesselTypeRepository" style="stroke:#181818;stroke-width:1;"/><polygon fill="#181818" points="1383.56,745.9483,1379.6152,736.924,1379.8692,742.5751,1374.2181,742.8292,1383.56,745.9483" style="stroke:#181818;stroke-width:1;"/></g><!--link VesselService to IUnitOfWork--><g class="link" data-entity-1="VesselService" data-entity-2="IUnitOfWork" data-source-line="167" data-uid="lnk37" id="link_VesselService_IUnitOfWork"><path codeLine="167" d="M686.33,599.4983 C790.25,609.9983 1042.75,634.3683 1255,645.7583 C1273.2,646.7383 1567,645.0283 1583,653.7583 C1619.07,673.4583 1640.0065,711.1264 1652.2165,740.1964" fill="none" id="VesselService-to-IUnitOfWork" style="stroke:#181818;stroke-width:1;"/><polygon fill="#181818" points="1654.54,745.7283,1654.7427,735.8815,1652.6038,741.1184,1647.3669,738.9795,1654.54,745.7283" style="stroke:#181818;stroke-width:1;"/></g><!--link VesselService to VesselFactory--><g class="link" data-entity-1="VesselService" data-entity-2="VesselFactory" data-source-line="168" data-uid="lnk38" id="link_VesselService_VesselFactory"><path codeLine="168" d="M589.37,600.8583 C539.18,608.6583 459.48,624.5983 396,653.7583 C344.03,677.6383 296.2013,714.4219 263.8313,741.9419" fill="none" id="VesselService-to-VesselFactory" style="stroke:#181818;stroke-width:1;"/><polygon fill="#181818" points="259.26,745.8283,268.7078,743.0463,263.0694,742.5897,263.526,736.9513,259.26,745.8283" style="stroke:#181818;stroke-width:1;"/></g><!--link VesselService to VesselMapper--><g class="link" data-entity-1="VesselService" data-entity-2="VesselMapper" data-source-line="169" data-uid="lnk39" id="link_VesselService_VesselMapper"><path codeLine="169" d="M627.91,615.1883 C613.32,645.0483 588.7619,695.3263 570.6819,732.3663" fill="none" id="VesselService-to-VesselMapper" style="stroke:#181818;stroke-width:1;"/><polygon fill="#181818" points="568.05,737.7583,575.5925,731.425,570.2433,733.265,568.4033,727.9158,568.05,737.7583" style="stroke:#181818;stroke-width:1;"/></g><!--link VesselService to ILogger--><g class="link" data-entity-1="VesselService" data-entity-2="ILogger" data-source-line="170" data-uid="lnk40" id="link_VesselService_ILogger"><path codeLine="170" d="M686.42,595.4283 C886.74,599.4483 1644.79,616.9683 1745,653.7583 C1788.63,669.7783 1825.7302,698.1106 1855.3902,725.3406" fill="none" id="VesselService-to-ILogger" style="stroke:#181818;stroke-width:1;"/><polygon fill="#181818" points="1859.81,729.3983,1855.8854,720.3651,1856.1268,726.0168,1850.4751,726.2583,1859.81,729.3983" style="stroke:#181818;stroke-width:1;"/></g><!--link VesselRepository to Vessel--><g class="link" data-entity-1="VesselRepository" data-entity-2="Vessel" data-source-line="171" data-uid="lnk41" id="link_VesselRepository_Vessel"><path codeLine="171" d="M822.68,1020.8583 C794.6,1041.5983 747.93,1072.2883 702,1085.5983 C605.03,1113.6983 340.54,1062.2283 248,1102.5983 C225.68,1112.3383 209.5254,1124.0488 192.0554,1141.1688" fill="none" id="VesselRepository-to-Vessel" style="stroke:#181818;stroke-width:1;"/><polygon fill="#181818" points="187.77,1145.3683,196.9977,1141.9259,191.3411,1141.8687,191.3984,1136.2121,187.77,1145.3683" style="stroke:#181818;stroke-width:1;"/></g><!--link VesselFactory to Vessel--><g class="link" data-entity-1="VesselFactory" data-entity-2="Vessel" data-source-line="172" data-uid="lnk42" id="link_VesselFactory_Vessel"><path codeLine="172" d="M175.56,805.5683 C147.91,824.1783 116.41,851.1683 101,884.6683 C62.84,967.6183 78.7037,1068.3373 98.5037,1139.5973" fill="none" id="VesselFactory-to-Vessel" style="stroke:#181818;stroke-width:1;"/><polygon fill="#181818" points="100.11,1145.3783,101.5546,1135.6359,98.7714,1140.5608,93.8466,1137.7776,100.11,1145.3783" style="stroke:#181818;stroke-width:1;"/></g><!--link VesselMapper to Vessel--><g class="link" data-entity-1="VesselMapper" data-entity-2="Vessel" data-source-line="173" data-uid="lnk43" id="link_VesselMapper_Vessel"><path codeLine="173" d="M487.42,813.8183 C460.15,828.5383 427.31,844.3783 396,854.6683 C296.67,887.3183 235.88,817.7383 164,893.6683 C101.21,960.0083 101.2062,1064.7084 110.9162,1139.3684" fill="none" id="VesselMapper-to-Vessel" style="stroke:#181818;stroke-width:1;"/><polygon fill="#181818" points="111.69,1145.3183,114.4959,1135.8776,111.0451,1140.36,106.5627,1136.9093,111.69,1145.3183" style="stroke:#181818;stroke-width:1;"/></g><!--link VesselMapper to VesselDto--><g class="link" data-entity-1="VesselMapper" data-entity-2="VesselDto" data-source-line="174" data-uid="lnk44" id="link_VesselMapper_VesselDto"><path codeLine="174" d="M560.21,813.7783 C569.4,847.1383 581.4966,891.0437 592.3466,930.4337" fill="none" id="VesselMapper-to-VesselDto" style="stroke:#181818;stroke-width:1;"/><polygon fill="#181818" points="593.94,936.2183,595.4063,926.4792,592.6122,931.3978,587.6936,928.6037,593.94,936.2183" style="stroke:#181818;stroke-width:1;"/></g><!--link VesselController to IVesselService--><g class="link" data-entity-1="VesselController" data-entity-2="IVesselService" data-source-line="175" data-uid="lnk45" id="link_VesselController_IVesselService"><path codeLine="175" d="M1277.77,219.4983 C1105.48,261.9683 869.5556,320.132 692.1456,363.872" fill="none" id="VesselController-to-IVesselService" style="stroke:#181818;stroke-width:1;"/><polygon fill="#181818" points="686.32,365.3083,696.0159,367.0376,691.1746,364.1114,694.1008,359.2702,686.32,365.3083" style="stroke:#181818;stroke-width:1;"/></g><!--link VesselController to ILogger--><g class="link" data-entity-1="VesselController" data-entity-2="ILogger" data-source-line="176" data-uid="lnk46" id="link_VesselController_ILogger"><path codeLine="176" d="M1550.59,253.1483 C1639.46,384.2983 1801.8042,623.9012 1870.0542,724.6212" fill="none" id="VesselController-to-ILogger" style="stroke:#181818;stroke-width:1;"/><polygon fill="#181818" points="1873.42,729.5883,1871.6827,719.8939,1870.6152,725.4491,1865.06,724.3816,1873.42,729.5883" style="stroke:#181818;stroke-width:1;"/></g><!--SRC=[hLTRRviw77_dKrXvQR8iatOUgvrMbD0TffH4G3RjqGE7M0MCRBCjglRTZsq8Tt9PQ1uA_E-__ys-0__-zPzs1um8CWQM68OKnc01jku_7yGFJ1qKOiOH1J09m3OD84VWAs8CHS11Fg41cmbnFUDxGk_15q931BO_O1GGu920uZ13JEed2KU_-JtO4Ch12qnWY6AKS66gr2ODKSWnIPIn5uY5J08J7ma5DqIdiLUSf5065fE4-7jAOWGupL2DmlOm8Bzm4e8TZ1ZIzZX0mCVKZv2cSSmZL6AoQA4rBIAeefffjtby1vRh5zsomKh_RZgtwKgX_ohS0fCbYGMY4_2cQG3uAeB2yJVn0OYmh9ZOMVn39BjyAYWYCH8Q6yQe-MNzAocPSctU8KLMq7XHz7bHFLB7D9UUDGXALOlY4LUzJsVWlZ0fA7_Q4GXxnnW-PrWOXr662XKwav-K0ldG5AyYVcl6LTTmeHD5u7_do5F6S2BKE5c4X10EL1-OltsKoWVjp-qLfNiwy1pTTfzD1woVlfY6vuBfqbkh3XwbmeIkYG8W3ygWI8IHX3a-IquASEP7b9jbDk-KsRnRPlC2s6PvrP1KnNJ2w6DN_MEflvFKkhmoN5Rp-27SdcDzirbPXkvPwt57Xvwc4VPLIURvbPEPxg2FW9M7uIBw4ulN4Yl4zIZIsI7nLSMln6p_L4BwK74z7QmWPpksicGlEHkCHwXp_c9I377B3BGPJtYXqdCn_pEEU9FzyJqOV1XMfJgaSBFJBNsXRI3tzmgAkl7ttQfl2tSg-vWn7AUHMbgiBvSTiMVeSq8FPQBp27BQgH3wTBt0D2r7hvopGg8eWxxOFM8cOXCVpfgvlP4i-zdHNS_P6jxMCKVj9IlPKIZIblayesYWdHoK4eORG9_eg0lRwKGlbQyLz-CLpNHL9vrhezANyvrqLAK7ZQ1dVSLMWxHRyYsybN0dAN9KzoUcZNe-r2iivVlGaU6aNpqcsxvj4ypNks-4lbOzIU8Oyw9KMjknugvRQoaPeuKsZkcQjbTRHc2gRwonpXeRYfZmlRQJwi3AwmObKLIRBdd_d5z6KxcSJ-sWInRF5JldydKpmgQvTibSirzkBnd3MRlkmjXwdcL_1iRQDap7TaSg68CInXP-ncKOdR6x8c68w2VleQmNyKMCQa9ZLM8b4Egso6OLqpT84tav66GmAIMqXpm6OewvKWtc_cTjRWIgk0jEFax0kyL2_J-ka3vQTUujY8l5G_CYT0yesY6AnFsTWGTDQnuk97jd-0xpD0TX7ryrmdgeZRFB83q_Z_Gfpyj3wooBIbPh7eywXEAiS_wxRAVE4AiXKVWrm5Cu-Zy0]--></g></svg>