<svg xmlns="http://www.w3.org/2000/svg" xmlns:xlink="http://www.w3.org/1999/xlink" contentStyleType="text/css" data-diagram-type="CLASS" height="1478px" preserveAspectRatio="none" style="width:1714px;height:1478px;background:#FFFFFF;" version="1.1" viewBox="0 0 1714 1478" width="1714px" zoomAndPan="magnify"><title>US2.2.2 - Class Diagram (Vessel Management)</title><defs/><g><g class="title" data-source-line="11"><text fill="#000000" font-family="sans-serif" font-size="14" font-weight="bold" lengthAdjust="spacing" textLength="334.2227" x="683.2687" y="23.5352">US2.2.2 - Class Diagram (Vessel Management)</text></g><!--cluster Domain--><g class="cluster" data-entity="Domain" data-source-line="16" data-uid="ent0002" id="cluster_Domain"><path d="M163.26,1110.5983 L219.8567,1110.5983 A3.75,3.75 0 0 1 222.3567,1113.0983 L229.3567,1133.0866 L662.26,1133.0866 A2.5,2.5 0 0 1 664.76,1135.5866 L664.76,1469.4683 A2.5,2.5 0 0 1 662.26,1471.9683 L163.26,1471.9683 A2.5,2.5 0 0 1 160.76,1469.4683 L160.76,1113.0983 A2.5,2.5 0 0 1 163.26,1110.5983" fill="none" style="stroke:#000000;stroke-width:1.5;"/><line style="stroke:#000000;stroke-width:1.5;" x1="160.76" x2="229.3567" y1="1133.0866" y2="1133.0866"/><text fill="#000000" font-family="sans-serif" font-size="14" font-weight="bold" lengthAdjust="spacing" textLength="55.5967" x="164.76" y="1126.1334">Domain</text></g><!--cluster DTOs--><g class="cluster" data-entity="DTOs" data-source-line="49" data-uid="ent0008" id="cluster_DTOs"><path d="M61.26,901.6683 L102.4621,901.6683 A3.75,3.75 0 0 1 104.9621,904.1683 L111.9621,924.1566 L708.26,924.1566 A2.5,2.5 0 0 1 710.76,926.6566 L710.76,1075.0983 A2.5,2.5 0 0 1 708.26,1077.5983 L61.26,1077.5983 A2.5,2.5 0 0 1 58.76,1075.0983 L58.76,904.1683 A2.5,2.5 0 0 1 61.26,901.6683" fill="none" style="stroke:#000000;stroke-width:1.5;"/><line style="stroke:#000000;stroke-width:1.5;" x1="58.76" x2="111.9621" y1="924.1566" y2="924.1566"/><text fill="#000000" font-family="sans-serif" font-size="14" font-weight="bold" lengthAdjust="spacing" textLength="40.2021" x="62.76" y="917.2034">DTOs</text></g><!--cluster Application--><g class="cluster" data-entity="Application" data-source-line="74" data-uid="ent0012" id="cluster_Application"><path d="M213.26,301.8783 L296.2707,301.8783 A3.75,3.75 0 0 1 298.7707,304.3783 L305.7707,324.3666 L708.26,324.3666 A2.5,2.5 0 0 1 710.76,326.8666 L710.76,826.9483 A2.5,2.5 0 0 1 708.26,829.4483 L213.26,829.4483 A2.5,2.5 0 0 1 210.76,826.9483 L210.76,304.3783 A2.5,2.5 0 0 1 213.26,301.8783" fill="none" style="stroke:#000000;stroke-width:1.5;"/><line style="stroke:#000000;stroke-width:1.5;" x1="210.76" x2="305.7707" y1="324.3666" y2="324.3666"/><text fill="#000000" font-family="sans-serif" font-size="14" font-weight="bold" lengthAdjust="spacing" textLength="82.0107" x="214.76" y="317.4134">Application</text></g><!--cluster Infrastructure--><g class="cluster" data-entity="Infrastructure" data-source-line="98" data-uid="ent0017" id="cluster_Infrastructure"><path d="M737.26,661.7583 L838.5295,661.7583 A3.75,3.75 0 0 1 841.0295,664.2583 L848.0295,684.2466 L1411.26,684.2466 A2.5,2.5 0 0 1 1413.76,686.7466 L1413.76,1033.8783 A2.5,2.5 0 0 1 1411.26,1036.3783 L737.26,1036.3783 A2.5,2.5 0 0 1 734.76,1033.8783 L734.76,664.2583 A2.5,2.5 0 0 1 737.26,661.7583" fill="none" style="stroke:#000000;stroke-width:1.5;"/><line style="stroke:#000000;stroke-width:1.5;" x1="734.76" x2="848.0295" y1="684.2466" y2="684.2466"/><text fill="#000000" font-family="sans-serif" font-size="14" font-weight="bold" lengthAdjust="spacing" textLength="100.2695" x="738.76" y="677.2934">Infrastructure</text></g><!--cluster Presentation--><g class="cluster" data-entity="Presentation" data-source-line="123" data-uid="ent0024" id="cluster_Presentation"><path d="M1001.26,43.4883 L1092.9934,43.4883 A3.75,3.75 0 0 1 1095.4934,45.9883 L1102.4934,65.9766 L1472.26,65.9766 A2.5,2.5 0 0 1 1474.76,68.4766 L1474.76,266.3783 A2.5,2.5 0 0 1 1472.26,268.8783 L1001.26,268.8783 A2.5,2.5 0 0 1 998.76,266.3783 L998.76,45.9883 A2.5,2.5 0 0 1 1001.26,43.4883" fill="none" style="stroke:#000000;stroke-width:1.5;"/><line style="stroke:#000000;stroke-width:1.5;" x1="998.76" x2="1102.4934" y1="65.9766" y2="65.9766"/><text fill="#000000" font-family="sans-serif" font-size="14" font-weight="bold" lengthAdjust="spacing" textLength="90.7334" x="1002.76" y="59.0234">Presentation</text></g><!--cluster Cross-cutting--><g class="cluster" data-entity="Cross-cutting" data-source-line="139" data-uid="ent0026" id="cluster_Cross-cutting"><path d="M1440.26,694.7383 L1542.2883,694.7383 A3.75,3.75 0 0 1 1544.7883,697.2383 L1551.7883,717.2266 L1705.26,717.2266 A2.5,2.5 0 0 1 1707.76,719.7266 L1707.76,835.1883 A2.5,2.5 0 0 1 1705.26,837.6883 L1440.26,837.6883 A2.5,2.5 0 0 1 1437.76,835.1883 L1437.76,697.2383 A2.5,2.5 0 0 1 1440.26,694.7383" fill="none" style="stroke:#000000;stroke-width:1.5;"/><line style="stroke:#000000;stroke-width:1.5;" x1="1437.76" x2="1551.7883" y1="717.2266" y2="717.2266"/><text fill="#000000" font-family="sans-serif" font-size="14" font-weight="bold" lengthAdjust="spacing" textLength="101.0283" x="1441.76" y="710.2734">Cross-cutting</text></g><!--class Vessel--><g class="entity" data-entity="Vessel" data-source-line="18" data-uid="ent0003" id="entity_Vessel"><rect fill="#F1F1F1" height="157.9063" rx="2.5" ry="2.5" style="stroke:#181818;stroke-width:0.5;" width="207.8223" x="177.85" y="1145.5983"/><text fill="#000000" font-family="sans-serif" font-size="14" lengthAdjust="spacing" textLength="43.0732" x="260.2245" y="1164.1334">Vessel</text><line style="stroke:#181818;stroke-width:0.5;" x1="178.85" x2="384.6723" y1="1172.0866" y2="1172.0866"/><rect fill="none" height="6" style="stroke:#595959;stroke-width:1;" width="6" x="185.85" y="1182.8307"/><text fill="#000000" font-family="sans-serif" font-size="14" lengthAdjust="spacing" textLength="164.7188" x="197.85" y="1189.6217">ImoNumber ImoNumber</text><rect fill="none" height="6" style="stroke:#595959;stroke-width:1;" width="6" x="185.85" y="1199.319"/><text fill="#000000" font-family="sans-serif" font-size="14" lengthAdjust="spacing" textLength="82.9404" x="197.85" y="1206.11">string Name</text><rect fill="none" height="6" style="stroke:#595959;stroke-width:1;" width="6" x="185.85" y="1215.8073"/><text fill="#000000" font-family="sans-serif" font-size="14" lengthAdjust="spacing" textLength="87.876" x="197.85" y="1222.5983">string Owner</text><rect fill="none" height="6" style="stroke:#595959;stroke-width:1;" width="6" x="185.85" y="1232.2955"/><text fill="#000000" font-family="sans-serif" font-size="14" lengthAdjust="spacing" textLength="181.8223" x="197.85" y="1239.0866">VesselTypeId VesselTypeId</text><line style="stroke:#181818;stroke-width:0.5;" x1="178.85" x2="384.6723" y1="1246.0397" y2="1246.0397"/><ellipse cx="188.85" cy="1259.7838" fill="#A6A6A6" rx="3" ry="3" style="stroke:#545454;stroke-width:1;"/><text fill="#000000" font-family="sans-serif" font-size="14" lengthAdjust="spacing" textLength="135.707" x="197.85" y="1263.5748">UpdateName(string)</text><ellipse cx="188.85" cy="1276.2721" fill="#A6A6A6" rx="3" ry="3" style="stroke:#545454;stroke-width:1;"/><text fill="#000000" font-family="sans-serif" font-size="14" lengthAdjust="spacing" textLength="140.6426" x="197.85" y="1280.0631">UpdateOwner(string)</text><ellipse cx="188.85" cy="1292.7604" fill="#A6A6A6" rx="3" ry="3" style="stroke:#545454;stroke-width:1;"/><text fill="#000000" font-family="sans-serif" font-size="14" lengthAdjust="spacing" textLength="119.3828" x="197.85" y="1296.5514">ToString() : string</text></g><!--class VesselId--><g class="entity" data-entity="VesselId" data-source-line="28" data-uid="ent0004" id="entity_VesselId"><rect fill="#F1F1F1" height="75.4648" rx="2.5" ry="2.5" style="stroke:#181818;stroke-width:0.5;" width="128.5186" x="176.5" y="1380.5083"/><text fill="#000000" font-family="sans-serif" font-size="14" lengthAdjust="spacing" textLength="55.918" x="212.8003" y="1399.0434">VesselId</text><line style="stroke:#181818;stroke-width:0.5;" x1="177.5" x2="304.0186" y1="1406.9966" y2="1406.9966"/><rect fill="none" height="6" style="stroke:#595959;stroke-width:1;" width="6" x="184.5" y="1417.7407"/><text fill="#000000" font-family="sans-serif" font-size="14" lengthAdjust="spacing" textLength="73.5137" x="196.5" y="1424.5317">Guid Value</text><line style="stroke:#181818;stroke-width:0.5;" x1="177.5" x2="304.0186" y1="1431.4848" y2="1431.4848"/><ellipse cx="187.5" cy="1445.229" fill="#A6A6A6" rx="3" ry="3" style="stroke:#545454;stroke-width:1;"/><text fill="#000000" font-family="sans-serif" font-size="14" lengthAdjust="spacing" textLength="102.5186" x="196.5" y="1449.02">AsGuid() : Guid</text></g><!--class ImoNumber--><g class="entity" data-entity="ImoNumber" data-source-line="33" data-uid="ent0005" id="entity_ImoNumber"><rect fill="#F1F1F1" height="75.4648" rx="2.5" ry="2.5" style="stroke:#181818;stroke-width:0.5;" width="145.3828" x="340.07" y="1380.5083"/><text fill="#000000" font-family="sans-serif" font-size="14" lengthAdjust="spacing" textLength="80.1445" x="372.6891" y="1399.0434">ImoNumber</text><line style="stroke:#181818;stroke-width:0.5;" x1="341.07" x2="484.4528" y1="1406.9966" y2="1406.9966"/><rect fill="none" height="6" style="stroke:#595959;stroke-width:1;" width="6" x="348.07" y="1417.7407"/><text fill="#000000" font-family="sans-serif" font-size="14" lengthAdjust="spacing" textLength="81.416" x="360.07" y="1424.5317">string Value</text><line style="stroke:#181818;stroke-width:0.5;" x1="341.07" x2="484.4528" y1="1431.4848" y2="1431.4848"/><ellipse cx="351.07" cy="1445.229" fill="#A6A6A6" rx="3" ry="3" style="stroke:#545454;stroke-width:1;"/><text fill="#000000" font-family="sans-serif" font-size="14" lengthAdjust="spacing" textLength="119.3828" x="360.07" y="1449.02">ToString() : string</text></g><!--class VesselTypeId--><g class="entity" data-entity="VesselTypeId" data-source-line="38" data-uid="ent0006" id="entity_VesselTypeId"><rect fill="#F1F1F1" height="75.4648" rx="2.5" ry="2.5" style="stroke:#181818;stroke-width:0.5;" width="128.5186" x="520.5" y="1380.5083"/><text fill="#000000" font-family="sans-serif" font-size="14" lengthAdjust="spacing" textLength="88.6963" x="540.4111" y="1399.0434">VesselTypeId</text><line style="stroke:#181818;stroke-width:0.5;" x1="521.5" x2="648.0186" y1="1406.9966" y2="1406.9966"/><rect fill="none" height="6" style="stroke:#595959;stroke-width:1;" width="6" x="528.5" y="1417.7407"/><text fill="#000000" font-family="sans-serif" font-size="14" lengthAdjust="spacing" textLength="73.5137" x="540.5" y="1424.5317">Guid Value</text><line style="stroke:#181818;stroke-width:0.5;" x1="521.5" x2="648.0186" y1="1431.4848" y2="1431.4848"/><ellipse cx="531.5" cy="1445.229" fill="#A6A6A6" rx="3" ry="3" style="stroke:#545454;stroke-width:1;"/><text fill="#000000" font-family="sans-serif" font-size="14" lengthAdjust="spacing" textLength="102.5186" x="540.5" y="1449.02">AsGuid() : Guid</text></g><!--class BusinessRuleValidationException--><g class="entity" data-entity="BusinessRuleValidationException" data-source-line="43" data-uid="ent0007" id="entity_BusinessRuleValidationException"><rect fill="#F1F1F1" height="42.4883" rx="2.5" ry="2.5" style="stroke:#181818;stroke-width:0.5;" width="228.6943" x="420.41" y="1203.3083"/><text fill="#000000" font-family="sans-serif" font-size="14" lengthAdjust="spacing" textLength="222.6943" x="423.41" y="1221.8434">BusinessRuleValidationException</text><line style="stroke:#181818;stroke-width:0.5;" x1="421.41" x2="648.1043" y1="1229.7966" y2="1229.7966"/><line style="stroke:#181818;stroke-width:0.5;" x1="421.41" x2="648.1043" y1="1237.7966" y2="1237.7966"/></g><!--class CreatingVesselDto--><g class="entity" data-entity="CreatingVesselDto" data-source-line="50" data-uid="ent0009" id="entity_CreatingVesselDto"><rect fill="#F1F1F1" height="108.4414" rx="2.5" ry="2.5" style="stroke:#181818;stroke-width:0.5;" width="207.8223" x="74.85" y="944.9083"/><text fill="#000000" font-family="sans-serif" font-size="14" lengthAdjust="spacing" textLength="125.043" x="116.2396" y="963.4434">CreatingVesselDto</text><line style="stroke:#181818;stroke-width:0.5;" x1="75.85" x2="281.6723" y1="971.3966" y2="971.3966"/><ellipse cx="85.85" cy="985.1407" fill="none" rx="3" ry="3" style="stroke:#545454;stroke-width:1;"/><text fill="#000000" font-family="sans-serif" font-size="14" lengthAdjust="spacing" textLength="124.1406" x="94.85" y="988.9317">string ImoNumber</text><ellipse cx="85.85" cy="1001.629" fill="none" rx="3" ry="3" style="stroke:#545454;stroke-width:1;"/><text fill="#000000" font-family="sans-serif" font-size="14" lengthAdjust="spacing" textLength="82.9404" x="94.85" y="1005.42">string Name</text><ellipse cx="85.85" cy="1018.1173" fill="none" rx="3" ry="3" style="stroke:#545454;stroke-width:1;"/><text fill="#000000" font-family="sans-serif" font-size="14" lengthAdjust="spacing" textLength="87.876" x="94.85" y="1021.9083">string Owner</text><ellipse cx="85.85" cy="1034.6055" fill="none" rx="3" ry="3" style="stroke:#545454;stroke-width:1;"/><text fill="#000000" font-family="sans-serif" font-size="14" lengthAdjust="spacing" textLength="181.8223" x="94.85" y="1038.3966">VesselTypeId VesselTypeId</text><line style="stroke:#181818;stroke-width:0.5;" x1="75.85" x2="281.6723" y1="1045.3497" y2="1045.3497"/></g><!--class UpdatingVesselDto--><g class="entity" data-entity="UpdatingVesselDto" data-source-line="57" data-uid="ent0010" id="entity_UpdatingVesselDto"><rect fill="#F1F1F1" height="75.4648" rx="2.5" ry="2.5" style="stroke:#181818;stroke-width:0.5;" width="135.1514" x="317.18" y="961.3983"/><text fill="#000000" font-family="sans-serif" font-size="14" lengthAdjust="spacing" textLength="129.1514" x="320.18" y="979.9334">UpdatingVesselDto</text><line style="stroke:#181818;stroke-width:0.5;" x1="318.18" x2="451.3314" y1="987.8866" y2="987.8866"/><ellipse cx="328.18" cy="1001.6307" fill="none" rx="3" ry="3" style="stroke:#545454;stroke-width:1;"/><text fill="#000000" font-family="sans-serif" font-size="14" lengthAdjust="spacing" textLength="88.8467" x="337.18" y="1005.4217">string? Name</text><ellipse cx="328.18" cy="1018.119" fill="none" rx="3" ry="3" style="stroke:#545454;stroke-width:1;"/><text fill="#000000" font-family="sans-serif" font-size="14" lengthAdjust="spacing" textLength="93.7822" x="337.18" y="1021.91">string? Owner</text><line style="stroke:#181818;stroke-width:0.5;" x1="318.18" x2="451.3314" y1="1028.8631" y2="1028.8631"/></g><!--class VesselDto--><g class="entity" data-entity="VesselDto" data-source-line="62" data-uid="ent0011" id="entity_VesselDto"><rect fill="#F1F1F1" height="124.9297" rx="2.5" ry="2.5" style="stroke:#181818;stroke-width:0.5;" width="207.8223" x="486.85" y="936.6683"/><text fill="#000000" font-family="sans-serif" font-size="14" lengthAdjust="spacing" textLength="67.3955" x="557.0634" y="955.2034">VesselDto</text><line style="stroke:#181818;stroke-width:0.5;" x1="487.85" x2="693.6723" y1="963.1566" y2="963.1566"/><ellipse cx="497.85" cy="976.9007" fill="none" rx="3" ry="3" style="stroke:#545454;stroke-width:1;"/><text fill="#000000" font-family="sans-serif" font-size="14" lengthAdjust="spacing" textLength="48.9385" x="506.85" y="980.6917">Guid Id</text><ellipse cx="497.85" cy="993.389" fill="none" rx="3" ry="3" style="stroke:#545454;stroke-width:1;"/><text fill="#000000" font-family="sans-serif" font-size="14" lengthAdjust="spacing" textLength="164.7188" x="506.85" y="997.18">ImoNumber ImoNumber</text><ellipse cx="497.85" cy="1009.8773" fill="none" rx="3" ry="3" style="stroke:#545454;stroke-width:1;"/><text fill="#000000" font-family="sans-serif" font-size="14" lengthAdjust="spacing" textLength="82.9404" x="506.85" y="1013.6683">string Name</text><ellipse cx="497.85" cy="1026.3655" fill="none" rx="3" ry="3" style="stroke:#545454;stroke-width:1;"/><text fill="#000000" font-family="sans-serif" font-size="14" lengthAdjust="spacing" textLength="87.876" x="506.85" y="1030.1566">string Owner</text><ellipse cx="497.85" cy="1042.8538" fill="none" rx="3" ry="3" style="stroke:#545454;stroke-width:1;"/><text fill="#000000" font-family="sans-serif" font-size="14" lengthAdjust="spacing" textLength="181.8223" x="506.85" y="1046.6448">VesselTypeId VesselTypeId</text><line style="stroke:#181818;stroke-width:0.5;" x1="487.85" x2="693.6723" y1="1053.598" y2="1053.598"/></g><!--class IVesselService--><g class="entity" data-entity="IVesselService" data-source-line="75" data-uid="ent0013" id="entity_IVesselService"><rect fill="#F1F1F1" height="174.3945" rx="2.5" ry="2.5" style="stroke:#181818;stroke-width:0.5;" width="467.8887" x="226.81" y="336.8783"/><text fill="#000000" font-family="sans-serif" font-size="14" font-style="italic" lengthAdjust="spacing" textLength="94.4385" x="413.5351" y="355.4134">IVesselService</text><line style="stroke:#181818;stroke-width:0.5;" x1="227.81" x2="693.6987" y1="363.3666" y2="363.3666"/><line style="stroke:#181818;stroke-width:0.5;" x1="227.81" x2="693.6987" y1="371.3666" y2="371.3666"/><ellipse cx="237.81" cy="385.1107" fill="#A6A6A6" rx="3" ry="3" style="stroke:#545454;stroke-width:1;"/><text fill="#000000" font-family="sans-serif" font-size="14" lengthAdjust="spacing" textLength="216.8086" x="246.81" y="388.9017">GetAllAsync() : List&lt;VesselDto&gt;</text><ellipse cx="237.81" cy="401.599" fill="#A6A6A6" rx="3" ry="3" style="stroke:#545454;stroke-width:1;"/><text fill="#000000" font-family="sans-serif" font-size="14" lengthAdjust="spacing" textLength="237.043" x="246.81" y="405.39">GetByIdAsync(VesselId) : VesselDto</text><ellipse cx="237.81" cy="418.0873" fill="#A6A6A6" rx="3" ry="3" style="stroke:#545454;stroke-width:1;"/><text fill="#000000" font-family="sans-serif" font-size="14" lengthAdjust="spacing" textLength="287.9912" x="246.81" y="421.8783">GetByImoNumberAsync(string) : VesselDto</text><ellipse cx="237.81" cy="434.5755" fill="#A6A6A6" rx="3" ry="3" style="stroke:#545454;stroke-width:1;"/><text fill="#000000" font-family="sans-serif" font-size="14" lengthAdjust="spacing" textLength="292.9336" x="246.81" y="438.3666">GetByNameAsync(string) : List&lt;VesselDto&gt;</text><ellipse cx="237.81" cy="451.0638" fill="#A6A6A6" rx="3" ry="3" style="stroke:#545454;stroke-width:1;"/><text fill="#000000" font-family="sans-serif" font-size="14" lengthAdjust="spacing" textLength="297.8691" x="246.81" y="454.8548">GetByOwnerAsync(string) : List&lt;VesselDto&gt;</text><ellipse cx="237.81" cy="467.5521" fill="#A6A6A6" rx="3" ry="3" style="stroke:#545454;stroke-width:1;"/><text fill="#000000" font-family="sans-serif" font-size="14" lengthAdjust="spacing" textLength="441.8887" x="246.81" y="471.3431">GetFilterAsync(string?, string?, string?, string?) : List&lt;VesselDto&gt;</text><ellipse cx="237.81" cy="484.0404" fill="#A6A6A6" rx="3" ry="3" style="stroke:#545454;stroke-width:1;"/><text fill="#000000" font-family="sans-serif" font-size="14" lengthAdjust="spacing" textLength="298.7852" x="246.81" y="487.8314">CreateAsync(CreatingVesselDto) : VesselDto</text><ellipse cx="237.81" cy="500.5287" fill="#A6A6A6" rx="3" ry="3" style="stroke:#545454;stroke-width:1;"/><text fill="#000000" font-family="sans-serif" font-size="14" lengthAdjust="spacing" textLength="384.9727" x="246.81" y="504.3197">PatchByImoAsync(string, UpdatingVesselDto) : VesselDto</text></g><!--class VesselService--><g class="entity" data-entity="VesselService" data-source-line="86" data-uid="ent0014" id="entity_VesselService"><rect fill="#F1F1F1" height="42.4883" rx="2.5" ry="2.5" style="stroke:#181818;stroke-width:0.5;" width="96.4053" x="598.55" y="572.2683"/><text fill="#000000" font-family="sans-serif" font-size="14" lengthAdjust="spacing" textLength="90.4053" x="601.55" y="590.8034">VesselService</text><line style="stroke:#181818;stroke-width:0.5;" x1="599.55" x2="693.9553" y1="598.7566" y2="598.7566"/><line style="stroke:#181818;stroke-width:0.5;" x1="599.55" x2="693.9553" y1="606.7566" y2="606.7566"/></g><!--class VesselFactory--><g class="entity" data-entity="VesselFactory" data-source-line="89" data-uid="ent0016" id="entity_VesselFactory"><rect fill="#F1F1F1" height="75.4648" rx="2.5" ry="2.5" style="stroke:#181818;stroke-width:0.5;" width="303.5664" x="390.97" y="737.9783"/><text fill="#000000" font-family="sans-serif" font-size="14" lengthAdjust="spacing" textLength="92.3604" x="496.573" y="756.5134">VesselFactory</text><line style="stroke:#181818;stroke-width:0.5;" x1="391.97" x2="693.5364" y1="764.4666" y2="764.4666"/><line style="stroke:#181818;stroke-width:0.5;" x1="391.97" x2="693.5364" y1="772.4666" y2="772.4666"/><ellipse cx="401.97" cy="786.2107" fill="#A6A6A6" rx="3" ry="3" style="stroke:#545454;stroke-width:1;"/><text fill="#000000" font-family="sans-serif" font-size="14" lengthAdjust="spacing" textLength="277.5664" x="410.97" y="790.0017">CreateVessel(CreatingVesselDto) : Vessel</text><ellipse cx="401.97" cy="802.699" fill="#A6A6A6" rx="3" ry="3" style="stroke:#545454;stroke-width:1;"/><text fill="#000000" font-family="sans-serif" font-size="14" lengthAdjust="spacing" textLength="244.2412" x="410.97" y="806.49">CreateVesselDto(Vessel) : VesselDto</text></g><!--class IVesselRepository--><g class="entity" data-entity="IVesselRepository" data-source-line="99" data-uid="ent0018" id="entity_IVesselRepository"><rect fill="#F1F1F1" height="157.9063" rx="2.5" ry="2.5" style="stroke:#181818;stroke-width:0.5;" width="484.1445" x="750.69" y="696.7583"/><text fill="#000000" font-family="sans-serif" font-size="14" font-style="italic" lengthAdjust="spacing" textLength="119.2324" x="933.1461" y="715.2934">IVesselRepository</text><line style="stroke:#181818;stroke-width:0.5;" x1="751.69" x2="1233.8345" y1="723.2466" y2="723.2466"/><line style="stroke:#181818;stroke-width:0.5;" x1="751.69" x2="1233.8345" y1="731.2466" y2="731.2466"/><ellipse cx="761.69" cy="744.9907" fill="#A6A6A6" rx="3" ry="3" style="stroke:#545454;stroke-width:1;"/><text fill="#000000" font-family="sans-serif" font-size="14" lengthAdjust="spacing" textLength="192.4863" x="770.69" y="748.7817">GetAllAsync() : List&lt;Vessel&gt;</text><ellipse cx="761.69" cy="761.479" fill="#A6A6A6" rx="3" ry="3" style="stroke:#545454;stroke-width:1;"/><text fill="#000000" font-family="sans-serif" font-size="14" lengthAdjust="spacing" textLength="212.7207" x="770.69" y="765.27">GetByIdAsync(VesselId) : Vessel</text><ellipse cx="761.69" cy="777.9673" fill="#A6A6A6" rx="3" ry="3" style="stroke:#545454;stroke-width:1;"/><text fill="#000000" font-family="sans-serif" font-size="14" lengthAdjust="spacing" textLength="310.1533" x="770.69" y="781.7583">GetByImoNumberAsync(ImoNumber) : Vessel?</text><ellipse cx="761.69" cy="794.4555" fill="#A6A6A6" rx="3" ry="3" style="stroke:#545454;stroke-width:1;"/><text fill="#000000" font-family="sans-serif" font-size="14" lengthAdjust="spacing" textLength="268.6113" x="770.69" y="798.2466">GetByNameAsync(string) : List&lt;Vessel&gt;</text><ellipse cx="761.69" cy="810.9438" fill="#A6A6A6" rx="3" ry="3" style="stroke:#545454;stroke-width:1;"/><text fill="#000000" font-family="sans-serif" font-size="14" lengthAdjust="spacing" textLength="273.5469" x="770.69" y="814.7348">GetByOwnerAsync(string) : List&lt;Vessel&gt;</text><ellipse cx="761.69" cy="827.4321" fill="#A6A6A6" rx="3" ry="3" style="stroke:#545454;stroke-width:1;"/><text fill="#000000" font-family="sans-serif" font-size="14" lengthAdjust="spacing" textLength="458.1445" x="770.69" y="831.2231">GetFilterAsync(string?, ImoNumber?, string?, string?) : List&lt;Vessel&gt;</text><ellipse cx="761.69" cy="843.9204" fill="#A6A6A6" rx="3" ry="3" style="stroke:#545454;stroke-width:1;"/><text fill="#000000" font-family="sans-serif" font-size="14" lengthAdjust="spacing" textLength="119.4307" x="770.69" y="847.7114">AddAsync(Vessel)</text></g><!--class VesselRepository--><g class="entity" data-entity="VesselRepository" data-source-line="109" data-uid="ent0019" id="entity_VesselRepository"><rect fill="#F1F1F1" height="42.4883" rx="2.5" ry="2.5" style="stroke:#181818;stroke-width:0.5;" width="121.1992" x="797.16" y="977.8883"/><text fill="#000000" font-family="sans-serif" font-size="14" lengthAdjust="spacing" textLength="115.1992" x="800.16" y="996.4234">VesselRepository</text><line style="stroke:#181818;stroke-width:0.5;" x1="798.16" x2="917.3592" y1="1004.3766" y2="1004.3766"/><line style="stroke:#181818;stroke-width:0.5;" x1="798.16" x2="917.3592" y1="1012.3766" y2="1012.3766"/></g><!--class IUnitOfWork--><g class="entity" data-entity="IUnitOfWork" data-source-line="112" data-uid="ent0021" id="entity_IUnitOfWork"><rect fill="#F1F1F1" height="58.9766" rx="2.5" ry="2.5" style="stroke:#181818;stroke-width:0.5;" width="128.7852" x="1269.37" y="746.2283"/><text fill="#000000" font-family="sans-serif" font-size="14" font-style="italic" lengthAdjust="spacing" textLength="82.2158" x="1292.6547" y="764.7634">IUnitOfWork</text><line style="stroke:#181818;stroke-width:0.5;" x1="1270.37" x2="1397.1552" y1="772.7166" y2="772.7166"/><line style="stroke:#181818;stroke-width:0.5;" x1="1270.37" x2="1397.1552" y1="780.7166" y2="780.7166"/><ellipse cx="1280.37" cy="794.4607" fill="#A6A6A6" rx="3" ry="3" style="stroke:#545454;stroke-width:1;"/><text fill="#000000" font-family="sans-serif" font-size="14" lengthAdjust="spacing" textLength="102.7852" x="1289.37" y="798.2517">CommitAsync()</text></g><!--class UnitOfWork--><g class="entity" data-entity="UnitOfWork" data-source-line="116" data-uid="ent0022" id="entity_UnitOfWork"><rect fill="#F1F1F1" height="42.4883" rx="2.5" ry="2.5" style="stroke:#181818;stroke-width:0.5;" width="84.1826" x="1291.67" y="977.8883"/><text fill="#000000" font-family="sans-serif" font-size="14" lengthAdjust="spacing" textLength="78.1826" x="1294.67" y="996.4234">UnitOfWork</text><line style="stroke:#181818;stroke-width:0.5;" x1="1292.67" x2="1374.8526" y1="1004.3766" y2="1004.3766"/><line style="stroke:#181818;stroke-width:0.5;" x1="1292.67" x2="1374.8526" y1="1012.3766" y2="1012.3766"/></g><!--class VesselController--><g class="entity" data-entity="VesselController" data-source-line="124" data-uid="ent0025" id="entity_VesselController"><rect fill="#F1F1F1" height="174.3945" rx="2.5" ry="2.5" style="stroke:#181818;stroke-width:0.5;" width="443.2861" x="1015.11" y="78.4883"/><text fill="#000000" font-family="sans-serif" font-size="14" lengthAdjust="spacing" textLength="111.2344" x="1181.1359" y="97.0234">VesselController</text><line style="stroke:#181818;stroke-width:0.5;" x1="1016.11" x2="1457.3961" y1="104.9766" y2="104.9766"/><line style="stroke:#181818;stroke-width:0.5;" x1="1016.11" x2="1457.3961" y1="112.9766" y2="112.9766"/><ellipse cx="1026.11" cy="126.7207" fill="#A6A6A6" rx="3" ry="3" style="stroke:#545454;stroke-width:1;"/><text fill="#000000" font-family="sans-serif" font-size="14" lengthAdjust="spacing" textLength="176.8389" x="1035.11" y="130.5117">GetAll() : List&lt;VesselDto&gt;</text><ellipse cx="1026.11" cy="143.209" fill="#A6A6A6" rx="3" ry="3" style="stroke:#545454;stroke-width:1;"/><text fill="#000000" font-family="sans-serif" font-size="14" lengthAdjust="spacing" textLength="172.8193" x="1035.11" y="147">GetById(Guid) : VesselDto</text><ellipse cx="1026.11" cy="159.6973" fill="#A6A6A6" rx="3" ry="3" style="stroke:#545454;stroke-width:1;"/><text fill="#000000" font-family="sans-serif" font-size="14" lengthAdjust="spacing" textLength="193.5801" x="1035.11" y="163.4883">GetByImo(string) : VesselDto</text><ellipse cx="1026.11" cy="176.1855" fill="#A6A6A6" rx="3" ry="3" style="stroke:#545454;stroke-width:1;"/><text fill="#000000" font-family="sans-serif" font-size="14" lengthAdjust="spacing" textLength="252.9639" x="1035.11" y="179.9766">GetByName(string) : List&lt;VesselDto&gt;</text><ellipse cx="1026.11" cy="192.6738" fill="#A6A6A6" rx="3" ry="3" style="stroke:#545454;stroke-width:1;"/><text fill="#000000" font-family="sans-serif" font-size="14" lengthAdjust="spacing" textLength="257.8994" x="1035.11" y="196.4648">GetByOwner(string) : List&lt;VesselDto&gt;</text><ellipse cx="1026.11" cy="209.1621" fill="#A6A6A6" rx="3" ry="3" style="stroke:#545454;stroke-width:1;"/><text fill="#000000" font-family="sans-serif" font-size="14" lengthAdjust="spacing" textLength="417.2861" x="1035.11" y="212.9531">GetByFilter(string?, string?, string?, string?) : List&lt;VesselDto&gt;</text><ellipse cx="1026.11" cy="225.6504" fill="#A6A6A6" rx="3" ry="3" style="stroke:#545454;stroke-width:1;"/><text fill="#000000" font-family="sans-serif" font-size="14" lengthAdjust="spacing" textLength="258.8154" x="1035.11" y="229.4414">Create(CreatingVesselDto) : VesselDto</text><ellipse cx="1026.11" cy="242.1387" fill="#A6A6A6" rx="3" ry="3" style="stroke:#545454;stroke-width:1;"/><text fill="#000000" font-family="sans-serif" font-size="14" lengthAdjust="spacing" textLength="345.0029" x="1035.11" y="245.9297">PatchByImo(string, UpdatingVesselDto) : VesselDto</text></g><!--class ILogger--><g class="entity" data-entity="ILogger" data-source-line="140" data-uid="ent0027" id="entity_ILogger"><rect fill="#F1F1F1" height="91.9531" rx="2.5" ry="2.5" style="stroke:#181818;stroke-width:0.5;" width="238.1055" x="1453.7" y="729.7383"/><text fill="#000000" font-family="sans-serif" font-size="14" font-style="italic" lengthAdjust="spacing" textLength="51.085" x="1541.4163" y="748.2734">ILogger</text><rect fill="#FFFFFF" height="16.1328" style="stroke:#181818;stroke-width:1;stroke-dasharray:2,2;" width="9.5879" x="1685.2176" y="726.7383"/><text fill="#000000" font-family="sans-serif" font-size="12" font-style="italic" lengthAdjust="spacing" textLength="7.5879" x="1686.2176" y="739.3398">T</text><line style="stroke:#181818;stroke-width:0.5;" x1="1454.7" x2="1690.8055" y1="756.2266" y2="756.2266"/><line style="stroke:#181818;stroke-width:0.5;" x1="1454.7" x2="1690.8055" y1="764.2266" y2="764.2266"/><ellipse cx="1464.7" cy="777.9707" fill="#A6A6A6" rx="3" ry="3" style="stroke:#545454;stroke-width:1;"/><text fill="#000000" font-family="sans-serif" font-size="14" lengthAdjust="spacing" textLength="212.1055" x="1473.7" y="781.7617">LogInformation(string, params)</text><ellipse cx="1464.7" cy="794.459" fill="#A6A6A6" rx="3" ry="3" style="stroke:#545454;stroke-width:1;"/><text fill="#000000" font-family="sans-serif" font-size="14" lengthAdjust="spacing" textLength="188.125" x="1473.7" y="798.25">LogWarning(string, params)</text><ellipse cx="1464.7" cy="810.9473" fill="#A6A6A6" rx="3" ry="3" style="stroke:#545454;stroke-width:1;"/><text fill="#000000" font-family="sans-serif" font-size="14" lengthAdjust="spacing" textLength="165.9082" x="1473.7" y="814.7383">LogError(string, params)</text></g><!--reverse link IVesselService to VesselService--><g class="link" data-entity-1="IVesselService" data-entity-2="VesselService" data-uid="lnk15" id="link_IVesselService_VesselService"><path d="M570.4069,523.7823 C595.3969,546.2823 606.71,556.4583 623.84,571.8783" fill="none" id="IVesselService-backto-VesselService" style="stroke:#181818;stroke-width:1;stroke-dasharray:7,7;"/><polygon fill="none" points="557.03,511.7383,566.3922,528.2413,574.4216,519.3233,557.03,511.7383" style="stroke:#181818;stroke-width:1;"/></g><!--reverse link IVesselRepository to VesselRepository--><g class="link" data-entity-1="IVesselRepository" data-entity-2="VesselRepository" data-uid="lnk20" id="link_IVesselRepository_VesselRepository"><path d="M935.5994,870.4568 C908.8994,914.2468 887.06,950.0683 870.16,977.7883" fill="none" id="IVesselRepository-backto-VesselRepository" style="stroke:#181818;stroke-width:1;stroke-dasharray:7,7;"/><polygon fill="none" points="944.97,855.0883,930.4765,867.3333,940.7222,873.5803,944.97,855.0883" style="stroke:#181818;stroke-width:1;"/></g><!--reverse link IUnitOfWork to UnitOfWork--><g class="link" data-entity-1="IUnitOfWork" data-entity-2="UnitOfWork" data-uid="lnk23" id="link_IUnitOfWork_UnitOfWork"><path d="M1333.76,823.6583 C1333.76,869.0283 1333.76,937.7783 1333.76,977.4283" fill="none" id="IUnitOfWork-backto-UnitOfWork" style="stroke:#181818;stroke-width:1;stroke-dasharray:7,7;"/><polygon fill="none" points="1333.76,805.6583,1327.76,823.6583,1339.76,823.6583,1333.76,805.6583" style="stroke:#181818;stroke-width:1;"/></g><!--reverse link Vessel to VesselId--><g class="link" data-entity-1="Vessel" data-entity-2="VesselId" data-source-line="150" data-uid="lnk28" id="link_Vessel_VesselId"><path codeLine="150" d="M262.5129,1315.5235 C256.8729,1341.9235 253.33,1358.4383 248.69,1380.1383" fill="none" id="Vessel-backto-VesselId" style="stroke:#181818;stroke-width:1;"/><polygon fill="#181818" points="265.02,1303.7883,259.8547,1308.8202,262.5129,1315.5235,267.6782,1310.4916,265.02,1303.7883" style="stroke:#181818;stroke-width:1;"/><text fill="#000000" font-family="sans-serif" font-size="13" lengthAdjust="spacing" textLength="8.2202" x="255.1825" y="1324.0955">1</text><text fill="#000000" font-family="sans-serif" font-size="13" lengthAdjust="spacing" textLength="8.2202" x="241.3845" y="1369.8954">1</text></g><!--reverse link Vessel to ImoNumber--><g class="link" data-entity-1="Vessel" data-entity-2="ImoNumber" data-source-line="151" data-uid="lnk29" id="link_Vessel_ImoNumber"><path codeLine="151" d="M342.0003,1313.696 C360.0403,1340.096 372.57,1358.4383 387.4,1380.1383" fill="none" id="Vessel-backto-ImoNumber" style="stroke:#181818;stroke-width:1;"/><polygon fill="#181818" points="335.23,1303.7883,335.3126,1310.9989,342.0003,1313.696,341.9177,1306.4854,335.23,1303.7883" style="stroke:#181818;stroke-width:1;"/><text fill="#000000" font-family="sans-serif" font-size="13" lengthAdjust="spacing" textLength="8.2202" x="331.6456" y="1324.0955">1</text><text fill="#000000" font-family="sans-serif" font-size="13" lengthAdjust="spacing" textLength="8.2202" x="374.3724" y="1369.8954">1</text></g><!--link Vessel to VesselTypeId--><g class="link" data-entity-1="Vessel" data-entity-2="VesselTypeId" data-source-line="152" data-uid="lnk30" id="link_Vessel_VesselTypeId"><path codeLine="152" d="M385.98,1292.8283 C391.65,1296.4483 397.27,1300.0183 402.76,1303.5083 C443.34,1329.2583 484.1457,1354.7585 519.6957,1376.8785" fill="none" id="Vessel-to-VesselTypeId" style="stroke:#181818;stroke-width:1;"/><polygon fill="#181818" points="524.79,1380.0483,519.2617,1371.8973,520.5447,1377.4068,515.0353,1378.6898,524.79,1380.0483" style="stroke:#181818;stroke-width:1;"/><polygon fill="#000000" points="481.8732,1344.8244,475.7793,1337.5227,472.6513,1342.4991,481.8732,1344.8244" style="stroke:#000000;stroke-width:1;"/><text fill="#000000" font-family="sans-serif" font-size="13" lengthAdjust="spacing" textLength="65.7427" x="486.64" y="1347.0766">references</text></g><!--link VesselService to IVesselRepository--><g class="link" data-entity-1="VesselService" data-entity-2="IVesselRepository" data-source-line="154" data-uid="lnk31" id="link_VesselService_IVesselRepository"><path codeLine="154" d="M686.45,615.1883 C724.79,635.1583 779.9785,663.8967 837.1185,693.6567" fill="none" id="VesselService-to-IVesselRepository" style="stroke:#181818;stroke-width:1;"/><polygon fill="#181818" points="842.44,696.4283,836.3055,688.7233,838.0054,694.1186,832.61,695.8186,842.44,696.4283" style="stroke:#181818;stroke-width:1;"/></g><!--link VesselService to IUnitOfWork--><g class="link" data-entity-1="VesselService" data-entity-2="IUnitOfWork" data-source-line="155" data-uid="lnk32" id="link_VesselService_IUnitOfWork"><path codeLine="155" d="M695.26,601.8483 C772.3,613.1883 927.45,634.8283 1059.76,645.7583 C1081.15,647.5283 1234.04,643.2683 1252.76,653.7583 C1288.47,673.7883 1309.1173,711.3577 1321.1573,740.3277" fill="none" id="VesselService-to-IUnitOfWork" style="stroke:#181818;stroke-width:1;"/><polygon fill="#181818" points="1323.46,745.8683,1323.6997,736.0223,1321.5411,741.2512,1316.3123,739.0926,1323.46,745.8683" style="stroke:#181818;stroke-width:1;"/></g><!--link VesselService to VesselFactory--><g class="link" data-entity-1="VesselService" data-entity-2="VesselFactory" data-source-line="156" data-uid="lnk33" id="link_VesselService_VesselFactory"><path codeLine="156" d="M634.83,615.1883 C617.59,645.0483 588.4584,695.5212 567.0884,732.5612" fill="none" id="VesselService-to-VesselFactory" style="stroke:#181818;stroke-width:1;"/><polygon fill="#181818" points="564.09,737.7583,572.0523,731.9616,566.5887,733.4274,565.1229,727.9637,564.09,737.7583" style="stroke:#181818;stroke-width:1;"/></g><!--link VesselService to ILogger--><g class="link" data-entity-1="VesselService" data-entity-2="ILogger" data-source-line="157" data-uid="lnk34" id="link_VesselService_ILogger"><path codeLine="157" d="M695.22,594.6983 C842.27,595.8183 1281.45,603.3983 1413.76,653.7583 C1457.03,670.2283 1493.9733,698.379 1523.6633,725.409" fill="none" id="VesselService-to-ILogger" style="stroke:#181818;stroke-width:1;"/><polygon fill="#181818" points="1528.1,729.4483,1524.1377,720.4316,1524.4027,726.0823,1518.7521,726.3473,1528.1,729.4483" style="stroke:#181818;stroke-width:1;"/></g><!--link VesselRepository to Vessel--><g class="link" data-entity-1="VesselRepository" data-entity-2="Vessel" data-source-line="158" data-uid="lnk35" id="link_VesselRepository_Vessel"><path codeLine="158" d="M831.39,1020.6883 C803.27,1041.2983 756.57,1071.8783 710.76,1085.5983 C645.09,1105.2583 465.34,1074.6383 402.76,1102.5983 C380.66,1112.4683 364.6492,1124.1228 347.2592,1141.1328" fill="none" id="VesselRepository-to-Vessel" style="stroke:#181818;stroke-width:1;"/><polygon fill="#181818" points="342.97,1145.3283,352.2009,1141.8945,346.5444,1141.832,346.6069,1136.1755,342.97,1145.3283" style="stroke:#181818;stroke-width:1;"/></g><!--link VesselFactory to Vessel--><g class="link" data-entity-1="VesselFactory" data-entity-2="Vessel" data-source-line="159" data-uid="lnk36" id="link_VesselFactory_Vessel"><path codeLine="159" d="M390.62,793.0383 C264.55,810.0783 99.66,841.7083 58.76,893.6683 C6,960.6983 17.23,1011.0883 58.76,1085.5983 C84.41,1131.6283 127.0566,1161.6094 172.0066,1183.5194" fill="none" id="VesselFactory-to-Vessel" style="stroke:#181818;stroke-width:1;"/><polygon fill="#181818" points="177.4,1186.1483,171.0625,1178.6093,172.9055,1183.9575,167.5573,1185.8005,177.4,1186.1483" style="stroke:#181818;stroke-width:1;"/></g><!--link VesselFactory to VesselDto--><g class="link" data-entity-1="VesselFactory" data-entity-2="VesselDto" data-source-line="160" data-uid="lnk37" id="link_VesselFactory_VesselDto"><path codeLine="160" d="M550.79,813.7783 C558.02,847.1383 567.5287,890.9645 576.0687,930.3545" fill="none" id="VesselFactory-to-VesselDto" style="stroke:#181818;stroke-width:1;"/><polygon fill="#181818" points="577.34,936.2183,579.3422,926.5751,576.2806,931.3318,571.5239,928.2702,577.34,936.2183" style="stroke:#181818;stroke-width:1;"/></g><!--link VesselController to IVesselService--><g class="link" data-entity-1="VesselController" data-entity-2="IVesselService" data-source-line="161" data-uid="lnk38" id="link_VesselController_IVesselService"><path codeLine="161" d="M1014.65,240.0683 C914.65,273.1083 802.2471,310.2461 700.8471,343.7461" fill="none" id="VesselController-to-IVesselService" style="stroke:#181818;stroke-width:1;"/><polygon fill="#181818" points="695.15,345.6283,704.9505,346.6031,699.8976,344.0598,702.4409,339.0069,695.15,345.6283" style="stroke:#181818;stroke-width:1;"/></g><!--link VesselController to ILogger--><g class="link" data-entity-1="VesselController" data-entity-2="ILogger" data-source-line="162" data-uid="lnk39" id="link_VesselController_ILogger"><path codeLine="162" d="M1284.54,253.1483 C1357.01,384.2983 1489.2579,623.6168 1544.9179,724.3368" fill="none" id="VesselController-to-ILogger" style="stroke:#181818;stroke-width:1;"/><polygon fill="#181818" points="1547.82,729.5883,1546.9679,719.7764,1545.4016,725.2121,1539.9659,723.6458,1547.82,729.5883" style="stroke:#181818;stroke-width:1;"/></g><!--SRC=[hLTBRvj04BxpAqQ-nAxhIkqnQXCHJ58g1rk0M_MuWJLU1LYqkxIDelxtBWlcOR1ZryI70FF-vfjPk88l__sdNO4H8SvXJb38K0mpMBkVFiWVZ1qS4Yum0vG4i4u3931ynvpZ21piKnRmYJJNCx6bx1g-KHPYM3-XAA3Wq82HCCCyzqyJWV-8QrXH9k0H9IZ4CKw435LvomCn90XDLB17HAHDWX8VImSNLAVnPvAaA2yifWdrjup660JBS4F2joYWlqaImWP576jR4c3m2VCZh6c2Y0XNcCpsq1gN5THLJRJBChw2-V9HjsnOw3zDvp9VAVAVPLemcjDO8Zg2Lqq3y5K5PUAlyW78igoOsbdy99jTNPKIsPWS6Xl5kFra-Jkfb0fltakAhQ1re-JJaZsvZt5XFMa9bAizYKTTTJ-Um7KPKah-xbSWu-rgUCY838wY39SkT9u_KWxoYxPvNV5hkwwcXnEJA0l_lqJkCauIwSR98YoDIA3cmFpZupI_qFvUpYZTqy5pTDkzDnrOtdqp3S-5yTnRgWaUX67IrqW1K1HbC2pBIC82dxcW9JZJ7SfjcaqxD9jsQJOzIhC6eefKHuBVTiFSLd4wpMtQgyvMh3uqD8DKStdRzTLgOHcwPos7tIPwcaR4LomjMfulQxP1FWQhACF5x1UHjnLiMEXHfFENn5T3i93h_dE5xasjTVTY1ONQRhfpzKgpfRY3lD0lbySXxRmJ-uf7ib1jEbd_daIYhNxx7WvU77QbXgPCipD0VQMjaF2t2efcyFVT0TWtxf1yrp4Ifv4wntXVBpjczyWNbBrKZIugA6J7IkXHb_AowTraBvy5oxvtTDTpreQtTin1ny5ADWn9v3DVP0mVc0W7fvIJ5bP7XkB4YJWo3jLjhNrxnZoSDGnlJKALozl3i7Eb1wsY9ttSQq3QPUqUtiguqPHrGiHoyuEovvgwD8w9ADknTvxKsir8Uqw6eEdACLtJzXex6yRwoXhgb5unp6NkZTNT13H_KMSqYgfNeXr7tzxPu_nWFBQgJzdFPwpcqrGBDWwmai_TnkSiuij9OpXBrvqPQy-px0SmbhPXEhOx46KCHZcV-Pd8o-WijmKDGym-UpSLO-GJkH0fYnN9AY3KbnQVr4e_44lo5-k32YPZbFM8Xq3CCHTgnDolrkf2eChlgD774RoRpTJ_tQBkazKlYgLmDhjflmXU0yCRpB3yzkLmesdjKpXNxwouFfrwEVL8MuTtdtNHLwspIsjZhVq2S88W9tndqJJgAHCue5Dcz0y0]--></g></svg>