<svg xmlns="http://www.w3.org/2000/svg" xmlns:xlink="http://www.w3.org/1999/xlink" contentStyleType="text/css" data-diagram-type="SEQUENCE" height="527px" preserveAspectRatio="none" style="width:411px;height:527px;background:#FFFFFF;" version="1.1" viewBox="0 0 411 527" width="411px" zoomAndPan="magnify"><defs/><g><g><title>Port Authority Officer</title><rect fill="#000000" fill-opacity="0.00000" height="360.9102" width="8" x="68.9653" y="83.6211"/><line style="stroke:#181818;stroke-width:0.5;stroke-dasharray:5,5;" x1="72" x2="72" y1="83.6211" y2="444.5313"/></g><g><title>System</title><rect fill="#000000" fill-opacity="0.00000" height="360.9102" width="8" x="368.9868" y="83.6211"/><line style="stroke:#181818;stroke-width:0.5;stroke-dasharray:5,5;" x1="372.6489" x2="372.6489" y1="83.6211" y2="444.5313"/></g><g class="participant participant-head" data-participant="Officer"><text fill="#000000" font-family="sans-serif" font-size="14" lengthAdjust="spacing" textLength="129.9307" x="5" y="80.1074">Port Authority Officer</text><ellipse cx="72.9653" cy="13.5" fill="#E2E2F0" rx="8" ry="8" style="stroke:#181818;stroke-width:0.5;"/><path d="M72.9653,21.5 L72.9653,48.5 M59.9653,29.5 L85.9653,29.5 M72.9653,48.5 L59.9653,63.5 M72.9653,48.5 L85.9653,63.5" fill="none" style="stroke:#181818;stroke-width:0.5;"/></g><g class="participant participant-tail" data-participant="Officer"><text fill="#000000" font-family="sans-serif" font-size="14" lengthAdjust="spacing" textLength="129.9307" x="5" y="458.6387">Port Authority Officer</text><ellipse cx="72.9653" cy="470.6523" fill="#E2E2F0" rx="8" ry="8" style="stroke:#181818;stroke-width:0.5;"/><path d="M72.9653,478.6523 L72.9653,505.6523 M59.9653,486.6523 L85.9653,486.6523 M72.9653,505.6523 L59.9653,520.6523 M72.9653,505.6523 L85.9653,520.6523" fill="none" style="stroke:#181818;stroke-width:0.5;"/></g><g class="participant participant-head" data-participant="System"><text fill="#000000" font-family="sans-serif" font-size="14" lengthAdjust="spacing" textLength="46.6758" x="346.6489" y="80.1074">System</text><path d="M352.4868,37 L352.4868,61 M352.4868,49 L369.4868,49" fill="none" style="stroke:#181818;stroke-width:0.5;"/><ellipse cx="381.4868" cy="49" fill="#E2E2F0" rx="12" ry="12" style="stroke:#181818;stroke-width:0.5;"/></g><g class="participant participant-tail" data-participant="System"><text fill="#000000" font-family="sans-serif" font-size="14" lengthAdjust="spacing" textLength="46.6758" x="346.6489" y="458.6387">System</text><path d="M352.4868,466.1523 L352.4868,490.1523 M352.4868,478.1523 L369.4868,478.1523" fill="none" style="stroke:#181818;stroke-width:0.5;"/><ellipse cx="381.4868" cy="478.1523" fill="#E2E2F0" rx="12" ry="12" style="stroke:#181818;stroke-width:0.5;"/></g><rect fill="#EEEEEE" height="3" style="stroke:#EEEEEE;stroke-width:1;" width="404.3247" x="0" y="115.2666"/><line style="stroke:#000000;stroke-width:1;" x1="0" x2="404.3247" y1="115.2666" y2="115.2666"/><line style="stroke:#000000;stroke-width:1;" x1="0" x2="404.3247" y1="118.2666" y2="118.2666"/><rect fill="#EEEEEE" height="25.291" style="stroke:#000000;stroke-width:2;" width="58.0781" x="173.1233" y="103.6211"/><text fill="#000000" font-family="sans-serif" font-size="13" font-weight="bold" lengthAdjust="spacing" textLength="40.4663" x="179.1233" y="121.6494">Create</text><g class="message" data-participant-1="Officer" data-participant-2="System"><polygon fill="#181818" points="360.9868,175.4941,370.9868,179.4941,360.9868,183.4941,364.9868,179.4941" style="stroke:#181818;stroke-width:1;"/><line style="stroke:#181818;stroke-width:1;" x1="72.9653" x2="366.9868" y1="179.4941" y2="179.4941"/><text fill="#000000" font-family="sans-serif" font-size="13" lengthAdjust="spacing" textLength="240.6143" x="79.9653" y="156.9404">Submit CreateDock(code, name, location,</text><text fill="#000000" font-family="sans-serif" font-size="13" lengthAdjust="spacing" textLength="272.4097" x="83.5771" y="174.2314">length, depth, maxDraft, allowedVesselTypes[])</text></g><g class="message" data-participant-1="System" data-participant-2="Officer"><polygon fill="#181818" points="83.9653,206.7852,73.9653,210.7852,83.9653,214.7852,79.9653,210.7852" style="stroke:#181818;stroke-width:1;"/><line style="stroke:#181818;stroke-width:1;stroke-dasharray:2,2;" x1="77.9653" x2="371.9868" y1="210.7852" y2="210.7852"/><text fill="#000000" font-family="sans-serif" font-size="13" lengthAdjust="spacing" textLength="112.6772" x="89.9653" y="205.5225">success(DockDTO)</text></g><rect fill="#EEEEEE" height="3" style="stroke:#EEEEEE;stroke-width:1;" width="404.3247" x="0" y="240.4307"/><line style="stroke:#000000;stroke-width:1;" x1="0" x2="404.3247" y1="240.4307" y2="240.4307"/><line style="stroke:#000000;stroke-width:1;" x1="0" x2="404.3247" y1="243.4307" y2="243.4307"/><rect fill="#EEEEEE" height="25.291" style="stroke:#000000;stroke-width:2;" width="61.6709" x="171.3269" y="228.7852"/><text fill="#000000" font-family="sans-serif" font-size="13" font-weight="bold" lengthAdjust="spacing" textLength="44.0591" x="177.3269" y="246.8135">Update</text><g class="message" data-participant-1="Officer" data-participant-2="System"><polygon fill="#181818" points="360.9868,283.3672,370.9868,287.3672,360.9868,291.3672,364.9868,287.3672" style="stroke:#181818;stroke-width:1;"/><line style="stroke:#181818;stroke-width:1;" x1="72.9653" x2="366.9868" y1="287.3672" y2="287.3672"/><text fill="#000000" font-family="sans-serif" font-size="13" lengthAdjust="spacing" textLength="181.4858" x="79.9653" y="282.1045">Submit UpdateDock(id, fields&#8230;)</text></g><g class="message" data-participant-1="System" data-participant-2="Officer"><polygon fill="#181818" points="83.9653,314.6582,73.9653,318.6582,83.9653,322.6582,79.9653,318.6582" style="stroke:#181818;stroke-width:1;"/><line style="stroke:#181818;stroke-width:1;stroke-dasharray:2,2;" x1="77.9653" x2="371.9868" y1="318.6582" y2="318.6582"/><text fill="#000000" font-family="sans-serif" font-size="13" lengthAdjust="spacing" textLength="112.6772" x="89.9653" y="313.3955">success(DockDTO)</text></g><rect fill="#EEEEEE" height="3" style="stroke:#EEEEEE;stroke-width:1;" width="404.3247" x="0" y="348.3037"/><line style="stroke:#000000;stroke-width:1;" x1="0" x2="404.3247" y1="348.3037" y2="348.3037"/><line style="stroke:#000000;stroke-width:1;" x1="0" x2="404.3247" y1="351.3037" y2="351.3037"/><rect fill="#EEEEEE" height="25.291" style="stroke:#000000;stroke-width:2;" width="60.9727" x="171.676" y="336.6582"/><text fill="#000000" font-family="sans-serif" font-size="13" font-weight="bold" lengthAdjust="spacing" textLength="43.3608" x="177.676" y="354.6865">Search</text><g class="message" data-participant-1="Officer" data-participant-2="System"><polygon fill="#181818" points="360.9868,391.2402,370.9868,395.2402,360.9868,399.2402,364.9868,395.2402" style="stroke:#181818;stroke-width:1;"/><line style="stroke:#181818;stroke-width:1;" x1="72.9653" x2="366.9868" y1="395.2402" y2="395.2402"/><text fill="#000000" font-family="sans-serif" font-size="13" lengthAdjust="spacing" textLength="269.5215" x="79.9653" y="389.9775">SearchDock(name?, vesselTypeId?, location?)</text></g><g class="message" data-participant-1="System" data-participant-2="Officer"><polygon fill="#181818" points="83.9653,422.5313,73.9653,426.5313,83.9653,430.5313,79.9653,426.5313" style="stroke:#181818;stroke-width:1;"/><line style="stroke:#181818;stroke-width:1;stroke-dasharray:2,2;" x1="77.9653" x2="371.9868" y1="426.5313" y2="426.5313"/><text fill="#000000" font-family="sans-serif" font-size="13" lengthAdjust="spacing" textLength="92.4727" x="89.9653" y="421.2686">List&lt;DockDTO&gt;</text></g><!--SRC=[bP31JiCm38RlVGghfqtANc1QLo5wGK8QKZSkmC5BN1gH9bNY0htnD3mOJqARPN2Q41VRqlzRts-ZPESXltEUuMhWrddD8-oQHaloEM0upzdH3LQX7o6lny3KHV4qPbbHmBKdP8AYoD86hBP9XpNKmx7Jd4oLaoyBwHG9iDXDrJY9h9qLZnOCsMTk1IZgvzRXU-MnOG5eZ7iZTKyXaDcFFOM7fsMM2Ai9TkQk8GnIJhR53AhsksKCUEZLtm5FfXXGAm6D9gF2ryVdVq0rePVjHL1K8s4-lXJm-dFHZIf_dr5UODxgm9i4t7u3]--></g></svg>